<svg width="40" height="40" viewBox="0 0 40 40" fill="none" xmlns="http://www.w3.org/2000/svg">
<path d="M0 20C0 8.95431 8.95431 0 20 0C31.0457 0 40 8.95431 40 20C40 31.0457 31.0457 40 20 40C8.95431 40 0 31.0457 0 20Z" fill="#40A0C1"/>
<path d="M26.875 14.8438H24.2188L23.5859 13.0703C23.5422 12.949 23.4621 12.8441 23.3565 12.77C23.251 12.6958 23.1251 12.6561 22.9961 12.6563H17.0039C16.7402 12.6563 16.5039 12.8223 16.416 13.0703L15.7812 14.8438H13.125C12.2617 14.8438 11.5625 15.543 11.5625 16.4063V25.3125C11.5625 26.1758 12.2617 26.875 13.125 26.875H26.875C27.7383 26.875 28.4375 26.1758 28.4375 25.3125V16.4063C28.4375 15.543 27.7383 14.8438 26.875 14.8438ZM27.0312 25.3125C27.0312 25.3984 26.9609 25.4688 26.875 25.4688H13.125C13.0391 25.4688 12.9688 25.3984 12.9688 25.3125V16.4063C12.9688 16.3203 13.0391 16.25 13.125 16.25H16.7715L17.1055 15.3164L17.5527 14.0625H22.4453L22.8926 15.3164L23.2266 16.25H26.875C26.9609 16.25 27.0312 16.3203 27.0312 16.4063V25.3125ZM20 17.5C18.2734 17.5 16.875 18.8984 16.875 20.625C16.875 22.3516 18.2734 23.75 20 23.75C21.7266 23.75 23.125 22.3516 23.125 20.625C23.125 18.8984 21.7266 17.5 20 17.5ZM20 22.5C18.9648 22.5 18.125 21.6602 18.125 20.625C18.125 19.5898 18.9648 18.75 20 18.75C21.0352 18.75 21.875 19.5898 21.875 20.625C21.875 21.6602 21.0352 22.5 20 22.5Z" fill="white"/>
</svg>
