<svg width="32" height="32" viewBox="0 0 32 32" fill="none" xmlns="http://www.w3.org/2000/svg">
<path d="M8.33353 26.0008C6.19886 26.0008 4.30019 24.6342 3.61086 22.5995L3.56419 22.4462C3.40153 21.9075 3.33353 21.4542 3.33353 21.0008V11.9102L0.0988584 22.7075C-0.317142 24.2955 0.630858 25.9422 2.22153 26.3808L22.8389 31.9022C23.0962 31.9688 23.3535 32.0008 23.6069 32.0008C24.9349 32.0008 26.1482 31.1195 26.4882 29.8208L27.6895 26.0008H8.33353Z" fill="#54B2D3"/>
<path d="M12.0006 12.0013C13.4713 12.0013 14.6673 10.8053 14.6673 9.33463C14.6673 7.86397 13.4713 6.66797 12.0006 6.66797C10.53 6.66797 9.33398 7.86397 9.33398 9.33463C9.33398 10.8053 10.53 12.0013 12.0006 12.0013Z" fill="#54B2D3"/>
<path d="M28.6663 2.66797H8.66634C6.82901 2.66797 5.33301 4.16397 5.33301 6.0013V20.668C5.33301 22.5053 6.82901 24.0013 8.66634 24.0013H28.6663C30.5037 24.0013 31.9997 22.5053 31.9997 20.668V6.0013C31.9997 4.16397 30.5037 2.66797 28.6663 2.66797ZM8.66634 5.33464H28.6663C29.0343 5.33464 29.333 5.6333 29.333 6.0013V15.4666L25.121 10.552C24.6743 10.028 24.0277 9.74797 23.333 9.73197C22.6423 9.73597 21.9943 10.0426 21.5517 10.5733L16.5997 16.5173L14.9863 14.908C14.0743 13.996 12.5903 13.996 11.6797 14.908L7.99967 18.5866V6.0013C7.99967 5.6333 8.29834 5.33464 8.66634 5.33464Z" fill="#54B2D3"/>
</svg>
