<svg width="40" height="40" viewBox="0 0 40 40" fill="none" xmlns="http://www.w3.org/2000/svg">
<path d="M0 20C0 8.95431 8.95431 0 20 0C31.0457 0 40 8.95431 40 20C40 31.0457 31.0457 40 20 40C8.95431 40 0 31.0457 0 20Z" fill="#54B2D3"/>
<g clip-path="url(#clip0)">
<path d="M15.2078 26.252C13.8737 26.252 12.687 25.3978 12.2562 24.1261L12.227 24.0303C12.1253 23.6936 12.0828 23.4103 12.0828 23.127V17.4453L10.0612 24.1936C9.80118 25.1861 10.3937 26.2153 11.3878 26.4895L24.2737 29.9403C24.4345 29.982 24.5953 30.002 24.7537 30.002C25.5837 30.002 26.342 29.4511 26.5545 28.6395L27.3053 26.252H15.2078Z" fill="white"/>
<path d="M17.4987 17.5013C18.4179 17.5013 19.1654 16.7538 19.1654 15.8346C19.1654 14.9155 18.4179 14.168 17.4987 14.168C16.5795 14.168 15.832 14.9155 15.832 15.8346C15.832 16.7538 16.5795 17.5013 17.4987 17.5013Z" fill="white"/>
<path d="M27.9173 11.668H15.4173C14.269 11.668 13.334 12.603 13.334 13.7513V22.918C13.334 24.0663 14.269 25.0013 15.4173 25.0013H27.9173C29.0657 25.0013 30.0007 24.0663 30.0007 22.918V13.7513C30.0007 12.603 29.0657 11.668 27.9173 11.668ZM15.4173 13.3346H27.9173C28.1473 13.3346 28.334 13.5213 28.334 13.7513V19.6671L25.7015 16.5955C25.4223 16.268 25.0182 16.093 24.584 16.083C24.1523 16.0855 23.7473 16.2771 23.4707 16.6088L20.3757 20.3238L19.3673 19.318C18.7973 18.748 17.8698 18.748 17.3007 19.318L15.0007 21.6171V13.7513C15.0007 13.5213 15.1873 13.3346 15.4173 13.3346Z" fill="white"/>
</g>
<defs>
<clipPath id="clip0">
<rect width="20" height="20" fill="white" transform="translate(10 10)"/>
</clipPath>
</defs>
</svg>
