<svg width="24" height="24" viewBox="0 0 24 24" fill="none" xmlns="http://www.w3.org/2000/svg">
<path d="M18.8012 1.82114L16.3444 0.405375L13.8876 1.82114L11.4308 0.405375L8.9739 1.82109L5.8134 0V18.8723H2.03809V21.4087C2.03809 22.8376 3.20054 24 4.62943 24H19.3704C20.7993 24 21.9618 22.8376 21.9618 21.4087V0L18.8012 1.82114ZM4.62943 22.5927C3.97655 22.5927 3.44537 22.0616 3.44537 21.4087V20.2796H16.7791V21.4087C16.7791 21.835 16.8826 22.2376 17.0657 22.5927H4.62943ZM19.3704 22.5927C18.7176 22.5927 18.1864 22.0616 18.1864 21.4087V18.8723H7.22068V2.43506L8.97385 3.44527L11.4307 2.02964L13.8876 3.44527L16.3444 2.02959L18.8013 3.44527L20.5545 2.43506V21.4087C20.5545 22.0616 20.0233 22.5927 19.3704 22.5927Z" fill="#54B2D3"/>
<path d="M19.1469 6.35156H8.62793V7.75884H19.1469V6.35156Z" fill="#54B2D3"/>
<path d="M19.1469 9.03516H8.62793V10.4424H19.1469V9.03516Z" fill="#54B2D3"/>
<path d="M13.8875 11.7188H8.62793V13.126H13.8875V11.7188Z" fill="#54B2D3"/>
</svg>
