<svg width="24" height="24" viewBox="0 0 24 24" fill="none" xmlns="http://www.w3.org/2000/svg">
<path d="M19.3177 16.4035C18.7311 15.8164 18.0456 15.3372 17.2927 14.9879C18.3545 14.1277 19.0318 12.8152 19.0318 11.3433C19.0318 8.74645 16.8662 6.61598 14.2693 6.65582C11.7123 6.69567 9.65211 8.77926 9.65211 11.3433C9.65211 12.8152 10.3318 14.1277 11.3912 14.9879C10.6381 15.3369 9.95263 15.8161 9.36617 16.4035C8.08648 17.6855 7.35992 19.3777 7.31305 21.1824C7.31242 21.2074 7.31681 21.2323 7.32595 21.2556C7.33509 21.2789 7.34881 21.3001 7.36628 21.318C7.38375 21.3359 7.40464 21.3502 7.42769 21.3599C7.45075 21.3696 7.47552 21.3746 7.50055 21.3746H8.81305C8.91383 21.3746 8.9982 21.2949 9.00055 21.1941C9.04508 19.8347 9.59586 18.5621 10.5638 17.5964C11.0592 17.0985 11.6483 16.7037 12.2972 16.435C12.9462 16.1662 13.6419 16.0289 14.3443 16.0308C15.7716 16.0308 17.1146 16.5863 18.1248 17.5964C19.0904 18.5621 19.6412 19.8347 19.688 21.1941C19.6904 21.2949 19.7748 21.3746 19.8755 21.3746H21.188C21.2131 21.3746 21.2378 21.3696 21.2609 21.3599C21.284 21.3502 21.3048 21.3359 21.3223 21.318C21.3398 21.3001 21.3535 21.2789 21.3626 21.2556C21.3718 21.2323 21.3762 21.2074 21.3755 21.1824C21.3287 19.3777 20.6021 17.6855 19.3177 16.4035ZM14.3443 14.3433C13.5427 14.3433 12.788 14.0316 12.2232 13.4644C11.9397 13.1832 11.7158 12.8477 11.5648 12.4781C11.4138 12.1084 11.3388 11.7121 11.3443 11.3129C11.3513 10.5441 11.6584 9.80114 12.1951 9.25035C12.7576 8.67379 13.5099 8.3527 14.3138 8.34332C15.1084 8.33629 15.8795 8.64567 16.4466 9.20114C17.0279 9.77067 17.3466 10.5324 17.3466 11.3433C17.3466 12.1449 17.0349 12.8972 16.4677 13.4644C16.1895 13.744 15.8585 13.9657 15.494 14.1165C15.1295 14.2674 14.7388 14.3445 14.3443 14.3433ZM8.4732 11.9621C8.45211 11.7582 8.44039 11.5519 8.44039 11.3433C8.44039 10.9707 8.47555 10.6074 8.54117 10.2535C8.55758 10.1691 8.51305 10.0824 8.4357 10.0472C8.11695 9.90426 7.82398 9.70739 7.57086 9.45895C7.27259 9.16975 7.03789 8.82155 6.88172 8.43656C6.72554 8.05158 6.65134 7.63828 6.66383 7.22301C6.68492 6.47067 6.98727 5.75582 7.51461 5.21676C8.09352 4.62379 8.87164 4.30035 9.69898 4.30973C10.4466 4.31676 11.1685 4.60504 11.7146 5.11598C11.8998 5.28942 12.0591 5.4816 12.1927 5.68785C12.2396 5.76051 12.331 5.79098 12.4107 5.76285C12.8232 5.61989 13.2591 5.5191 13.7068 5.47223C13.838 5.45817 13.913 5.31754 13.8545 5.20035C13.0927 3.69332 11.5365 2.6527 9.73649 2.62457C7.13727 2.58473 4.97164 4.7152 4.97164 7.30973C4.97164 8.7816 5.64898 10.0941 6.7107 10.9543C5.96539 11.2988 5.27867 11.7746 4.68336 12.3699C3.39898 13.6519 2.67242 15.3441 2.62555 17.1511C2.62492 17.1761 2.62931 17.201 2.63845 17.2243C2.64759 17.2476 2.66131 17.2688 2.67878 17.2868C2.69625 17.3047 2.71713 17.3189 2.74019 17.3286C2.76325 17.3383 2.78802 17.3433 2.81305 17.3433H4.12789C4.22867 17.3433 4.31305 17.2636 4.31539 17.1629C4.35992 15.8035 4.9107 14.5308 5.87867 13.5652C6.56773 12.8761 7.41148 12.398 8.33258 12.166C8.42399 12.1425 8.48492 12.0558 8.4732 11.9621Z" fill="#65CD98"/>
</svg>
