<svg width="20" height="20" viewBox="0 0 20 20" fill="none" xmlns="http://www.w3.org/2000/svg">
<path d="M17.3177 14.4035C16.7311 13.8164 16.0456 13.3372 15.2927 12.9879C16.3545 12.1277 17.0318 10.8152 17.0318 9.34332C17.0318 6.74645 14.8662 4.61598 12.2693 4.65582C9.71227 4.69567 7.65211 6.77926 7.65211 9.34332C7.65211 10.8152 8.3318 12.1277 9.39117 12.9879C8.63814 13.3369 7.95263 13.8161 7.36617 14.4035C6.08648 15.6855 5.35992 17.3777 5.31305 19.1824C5.31242 19.2074 5.31681 19.2323 5.32595 19.2556C5.33509 19.2789 5.34881 19.3001 5.36628 19.318C5.38375 19.3359 5.40464 19.3502 5.42769 19.3599C5.45075 19.3696 5.47552 19.3746 5.50055 19.3746H6.81305C6.91383 19.3746 6.9982 19.2949 7.00055 19.1941C7.04508 17.8347 7.59586 16.5621 8.56383 15.5964C9.05916 15.0985 9.64833 14.7037 10.2972 14.435C10.9462 14.1662 11.6419 14.0289 12.3443 14.0308C13.7716 14.0308 15.1146 14.5863 16.1248 15.5964C17.0904 16.5621 17.6412 17.8347 17.688 19.1941C17.6904 19.2949 17.7748 19.3746 17.8755 19.3746H19.188C19.2131 19.3746 19.2378 19.3696 19.2609 19.3599C19.284 19.3502 19.3048 19.3359 19.3223 19.318C19.3398 19.3001 19.3535 19.2789 19.3626 19.2556C19.3718 19.2323 19.3762 19.2074 19.3755 19.1824C19.3287 17.3777 18.6021 15.6855 17.3177 14.4035ZM12.3443 12.3433C11.5427 12.3433 10.788 12.0316 10.2232 11.4644C9.93973 11.1832 9.71582 10.8477 9.56481 10.4781C9.41381 10.1084 9.33881 9.71213 9.3443 9.31285C9.35133 8.54411 9.65836 7.80114 10.1951 7.25035C10.7576 6.67379 11.5099 6.3527 12.3138 6.34332C13.1084 6.33629 13.8795 6.64567 14.4466 7.20114C15.0279 7.77067 15.3466 8.53239 15.3466 9.34332C15.3466 10.1449 15.0349 10.8972 14.4677 11.4644C14.1895 11.744 13.8585 11.9657 13.494 12.1165C13.1295 12.2674 12.7388 12.3445 12.3443 12.3433ZM6.4732 9.96207C6.45211 9.75817 6.44039 9.55192 6.44039 9.34332C6.44039 8.97067 6.47555 8.60739 6.54117 8.25348C6.55758 8.1691 6.51305 8.08239 6.4357 8.04723C6.11695 7.90426 5.82398 7.70739 5.57086 7.45895C5.27259 7.16975 5.03789 6.82155 4.88172 6.43656C4.72554 6.05158 4.65134 5.63828 4.66383 5.22301C4.68492 4.47067 4.98727 3.75582 5.51461 3.21676C6.09352 2.62379 6.87164 2.30035 7.69898 2.30973C8.44664 2.31676 9.16852 2.60504 9.71461 3.11598C9.89977 3.28942 10.0591 3.4816 10.1927 3.68785C10.2396 3.76051 10.331 3.79098 10.4107 3.76285C10.8232 3.61989 11.2591 3.5191 11.7068 3.47223C11.838 3.45817 11.913 3.31754 11.8545 3.20035C11.0927 1.69332 9.53648 0.652698 7.73649 0.624573C5.13727 0.58473 2.97164 2.7152 2.97164 5.30973C2.97164 6.7816 3.64898 8.0941 4.7107 8.95426C3.96539 9.29879 3.27867 9.77457 2.68336 10.3699C1.39898 11.6519 0.672422 13.3441 0.625547 15.1511C0.624921 15.1761 0.629309 15.201 0.638451 15.2243C0.647593 15.2476 0.661305 15.2688 0.678779 15.2868C0.696253 15.3047 0.717135 15.3189 0.740194 15.3286C0.763254 15.3383 0.788025 15.3433 0.813047 15.3433H2.12789C2.22867 15.3433 2.31305 15.2636 2.31539 15.1629C2.35992 13.8035 2.9107 12.5308 3.87867 11.5652C4.56773 10.8761 5.41148 10.398 6.33258 10.166C6.42399 10.1425 6.48492 10.0558 6.4732 9.96207Z" fill="#FAAD14"/>
</svg>
