<svg width="40" height="33" viewBox="0 0 40 33" fill="none" xmlns="http://www.w3.org/2000/svg">
	<path d="M23.4375 23.5508V25.8945C23.4375 28.5664 27.0312 30.582 31.7188 30.582C36.4062 30.582 40 28.5664 40 25.8945V23.5508H23.4375Z" fill="#FEA832" />
	<path d="M23.4375 23.5508V25.8945C23.4375 28.5664 27.0312 30.582 31.7188 30.582V23.5508H23.4375Z" fill="#FE9923" />
	<path d="M23.4375 21.207V23.5508C23.4375 26.2227 27.0312 28.2383 31.7188 28.2383C36.4062 28.2383 40 26.2227 40 23.5508V21.207H23.4375Z" fill="#FEA832" />
	<path d="M23.4375 21.207V23.5508C23.4375 26.2227 27.0312 28.2383 31.7188 28.2383V21.207H23.4375Z" fill="#FE9923" />
	<path d="M23.4375 21.207V23.5508C23.4375 26.2227 27.0312 28.2383 31.7188 28.2383C36.4062 28.2383 40 26.2227 40 23.5508V21.207H23.4375Z" fill="#FEDB41" />
	<path d="M23.4375 21.207V23.5508C23.4375 26.2227 27.0312 28.2383 31.7188 28.2383V21.207H23.4375Z" fill="#FFCC33" />
	<path d="M23.4375 18.8633V21.207C23.4375 23.8789 27.0312 25.8945 31.7188 25.8945C36.4062 25.8945 40 23.8789 40 21.207V18.8633H23.4375Z" fill="#FEA832" />
	<path d="M23.4375 18.8633V21.207C23.4375 23.8789 27.0312 25.8945 31.7188 25.8945V18.8633H23.4375Z" fill="#FE9923" />
	<path d="M23.4375 16.5195V18.8633C23.4375 21.5352 27.0312 23.5508 31.7188 23.5508C36.4062 23.5508 40 21.5352 40 18.8633V16.5195H23.4375Z" fill="#FEDB41" />
	<path d="M23.4375 16.5195V18.8633C23.4375 21.5352 27.0312 23.5508 31.7188 23.5508V16.5195H23.4375Z" fill="#FFCC33" />
	<path d="M23.4375 14.1758V16.5195C23.4375 19.1914 27.0312 21.207 31.7188 21.207C36.4062 21.207 40 19.1914 40 16.5195V14.1758H23.4375Z" fill="#FEA832" />
	<path d="M23.4375 14.1758V16.5195C23.4375 19.1914 27.0312 21.207 31.7188 21.207V14.1758H23.4375Z" fill="#FE9923" />
	<path d="M31.7188 10C36.4062 10 40 12.0156 40 14.6875C40 17.3594 36.4062 19.375 31.7188 19.375C27.0312 19.375 23.4375 17.3594 23.4375 14.6875C23.4375 12.0156 27.0312 10 31.7188 10Z" fill="#FEDB41" />
	<path d="M23.4375 14.6875C23.4375 17.3594 27.0312 19.375 31.7188 19.375V10C27.0312 10 23.4375 12.0156 23.4375 14.6875Z" fill="#FFCC33" />
	<path d="M7.03125 23.5508V25.8945C7.03125 28.5664 10.5469 30.582 15.2344 30.582C19.9219 30.582 23.4375 28.5664 23.4375 25.8945V23.5508H7.03125Z" fill="#FEA832" />
	<path d="M7.03125 23.5508V25.8945C7.03125 28.5664 10.5469 30.582 15.2344 30.582V23.5508H7.03125Z" fill="#FE9923" />
	<path d="M7.03125 21.207V23.5508C7.03125 26.2227 10.5469 28.2383 15.2344 28.2383C19.9219 28.2383 23.4375 26.2227 23.4375 23.5508V21.207H7.03125Z" fill="#FEDB41" />
	<path d="M7.03125 21.207V23.5508C7.03125 26.2227 10.5469 28.2383 15.2344 28.2383V21.207H7.03125Z" fill="#FFCC33" />
	<path d="M7.03125 18.8633V21.207C7.03125 23.8789 10.5469 25.8945 15.2344 25.8945C19.9219 25.8945 23.4375 23.8789 23.4375 21.207V18.8633H7.03125Z" fill="#FEA832" />
	<path d="M7.03125 18.8633V21.207C7.03125 23.8789 10.5469 25.8945 15.2344 25.8945V18.8633H7.03125Z" fill="#FE9923" />
	<path d="M7.03125 16.5195V18.8633C7.03125 21.5352 10.5469 23.5508 15.2344 23.5508C19.9219 23.5508 23.4375 21.5352 23.4375 18.8633V16.5195H7.03125Z" fill="#FEDB41" />
	<path d="M7.03125 16.5195V18.8633C7.03125 21.5352 10.5469 23.5508 15.2344 23.5508V16.5195H7.03125Z" fill="#FFCC33" />
	<path d="M7.03125 14.1758V16.5195C7.03125 19.1914 10.5469 21.207 15.2344 21.207C19.9219 21.207 23.4375 19.1914 23.4375 16.5195V14.1758H7.03125Z" fill="#FEA832" />
	<path d="M7.03125 14.1758V16.5195C7.03125 19.1914 10.5469 21.207 15.2344 21.207V14.1758H7.03125Z" fill="#FE9923" />
	<path d="M7.03125 11.832V14.1758C7.03125 16.8477 10.5469 18.8633 15.2344 18.8633C19.9219 18.8633 23.4375 16.8477 23.4375 14.1758V11.832H7.03125Z" fill="#FEDB41" />
	<path d="M7.03125 11.832V14.1758C7.03125 16.8477 10.5469 18.8633 15.2344 18.8633V11.832H7.03125Z" fill="#FFCC33" />
	<path d="M7.03125 9.48828V11.832C7.03125 14.5039 10.5469 16.5195 15.2344 16.5195C19.9219 16.5195 23.4375 14.5039 23.4375 11.832V9.48828H7.03125Z" fill="#FEA832" />
	<path d="M7.03125 9.48828V11.832C7.03125 14.5039 10.5469 16.5195 15.2344 16.5195V9.48828H7.03125Z" fill="#FE9923" />
	<path d="M7.03125 7.14453V9.48828C7.03125 12.1602 10.5469 14.1758 15.2344 14.1758C19.9219 14.1758 23.4375 12.1602 23.4375 9.48828V7.14453H7.03125Z" fill="#FEDB41" />
	<path d="M7.03125 7.14453V9.48828C7.03125 12.1602 10.5469 14.1758 15.2344 14.1758V7.14453H7.03125Z" fill="#FFCC33" />
	<path d="M7.03125 4.80078V7.14453C7.03125 9.81641 10.5469 11.832 15.2344 11.832C19.9219 11.832 23.4375 9.81641 23.4375 7.14453V4.80078H7.03125Z" fill="#FEA832" />
	<path d="M7.03125 4.80078V7.14453C7.03125 9.81641 10.5469 11.832 15.2344 11.832V4.80078H7.03125Z" fill="#FE9923" />
	<path d="M15.2344 0.113281C19.9219 0.113281 23.4375 2.12891 23.4375 4.80078C23.4375 7.47266 19.9219 9.48828 15.2344 9.48828C10.5469 9.48828 7.03125 7.47266 7.03125 4.80078C7.03125 2.12891 10.5469 0.113281 15.2344 0.113281Z" fill="#FEDB41" />
	<path d="M7.03125 4.80078C7.03125 7.47266 10.5469 9.48828 15.2344 9.48828V0.113281C10.5469 0.113281 7.03125 2.12891 7.03125 4.80078Z" fill="#FFCC33" />
	<path d="M9.375 13.8242C14.5548 13.8242 18.75 18.0196 18.75 23.1992C18.75 28.379 14.5548 32.5742 9.375 32.5742C4.19523 32.5742 0 28.379 0 23.1992C0 18.0196 4.19523 13.8242 9.375 13.8242Z" fill="#FEA832" />
	<path d="M0 23.1992C0 28.379 4.19523 32.5742 9.375 32.5742V13.8242C4.19523 13.8242 0 18.0196 0 23.1992Z" fill="#FE9923" />
	<path d="M9.375 16.168C13.2423 16.168 16.4062 19.3321 16.4062 23.1992C16.4062 27.0665 13.2423 30.2305 9.375 30.2305C5.50773 30.2305 2.34375 27.0665 2.34375 23.1992C2.34375 19.3321 5.50773 16.168 9.375 16.168Z" fill="#FEDB41" />
	<path d="M2.34375 23.1992C2.34375 27.0665 5.50773 30.2305 9.375 30.2305V16.168C5.50773 16.168 2.34375 19.3321 2.34375 23.1992Z" fill="#FFCC33" />
</svg>
