<svg width="41" height="40" viewBox="0 0 41 40" fill="none" xmlns="http://www.w3.org/2000/svg">
	<g clip-path="url(#clip0)">
		<path d="M2.71973 29.3399C2.71973 30.0195 5.60246 31.6836 10.9229 31.6836C16.2432 31.6836 19.2822 30.0195 19.2822 29.3399C19.2822 27.7929 21.626 27.7929 21.626 29.3399V34.0274C21.626 37.0977 16.1729 38.7149 10.9229 38.7149C5.67285 38.7149 0.375977 37.0977 0.375977 34.0274V29.3399C0.375977 27.7929 2.71973 27.7929 2.71973 29.3399Z" fill="#FEA832" />
		<path d="M2.71973 24.6524C2.71973 25.332 5.60246 26.9961 10.9229 26.9961C16.2432 26.9961 19.2822 25.332 19.2822 24.6524C19.2822 23.1054 21.626 23.1054 21.626 24.6524V29.3399C21.626 32.4102 16.1729 34.0274 10.9229 34.0274C5.67285 34.0274 0.375977 32.4102 0.375977 29.3399V24.6524C0.375977 23.1054 2.71973 23.1054 2.71973 24.6524Z" fill="#FEDB41" />
		<path d="M0.375977 29.3399V34.0274C0.375977 37.0977 5.67285 38.7149 10.9229 38.7149V31.6836C5.60246 31.6836 2.71973 30.0195 2.71973 29.3399C2.71973 27.7929 0.375977 27.7929 0.375977 29.3399Z" fill="#FE9923" />
		<path d="M0.375977 24.6524V29.3399C0.375977 32.4102 5.67285 34.0274 10.9229 34.0274V26.9961C5.60246 26.9961 2.71973 25.332 2.71973 24.6524C2.71973 23.1054 0.375977 23.1054 0.375977 24.6524Z" fill="#FFCC33" />
		<path d="M2.71973 19.9649C2.71973 20.6445 5.60246 22.3087 10.9229 22.3087C16.2432 22.3087 19.2822 20.6445 19.2822 19.9649C19.2822 18.4179 21.626 18.4179 21.626 19.9649V24.6524C21.626 27.7227 16.1729 29.3399 10.9229 29.3399C5.67285 29.3399 0.375977 27.7227 0.375977 24.6524V19.9649C0.375977 18.4179 2.71973 18.4179 2.71973 19.9649Z" fill="#FEA832" />
		<path d="M10.9229 15.3477C16.1963 15.3477 21.626 16.8712 21.626 19.9649C21.626 23.0352 16.1729 24.6524 10.9229 24.6524C5.67285 24.6524 0.375977 23.0352 0.375977 19.9649C0.375977 16.8711 5.64941 15.3477 10.9229 15.3477Z" fill="#FEDB41" />
		<path d="M0.375977 19.9649V24.6524C0.375977 27.7227 5.67285 29.3399 10.9229 29.3399V22.3087C5.60246 22.3087 2.71973 20.6445 2.71973 19.9649C2.71973 18.4179 0.375977 18.4179 0.375977 19.9649Z" fill="#FE9923" />
		<path d="M10.9229 24.6524V15.3477C5.64941 15.3477 0.375977 16.8712 0.375977 19.9649C0.375977 23.0352 5.67285 24.6524 10.9229 24.6524Z" fill="#FFCC33" />
		<path d="M21.626 29.3399C21.626 30.0195 24.5087 31.6836 29.8291 31.6836C35.1495 31.6836 38.0322 30.0195 38.0322 29.3399C38.0322 27.7929 40.376 27.7929 40.376 29.3399V34.0274C40.376 37.0977 35.0791 38.7149 29.8291 38.7149C24.5791 38.7149 19.2822 37.0977 19.2822 34.0274V29.3399C19.2822 27.7929 21.626 27.7929 21.626 29.3399Z" fill="#FEDB41" />
		<path d="M19.2822 29.3399V34.0274C19.2822 37.0977 24.5791 38.7149 29.8291 38.7149V31.6836C24.5087 31.6836 21.626 30.0195 21.626 29.3399C21.626 27.7929 19.2822 27.7929 19.2822 29.3399Z" fill="#FFCC33" />
		<path d="M21.626 24.6524C21.626 25.332 24.5087 26.9961 29.8291 26.9961C35.1495 26.9961 38.0322 25.332 38.0322 24.6524C38.0322 23.1054 40.376 23.1054 40.376 24.6524V29.3399C40.376 32.4102 35.0791 34.0274 29.8291 34.0274C24.5791 34.0274 19.2822 32.4102 19.2822 29.3399V24.6524C19.2822 23.1054 21.626 23.1054 21.626 24.6524Z" fill="#FEA832" />
		<path d="M19.2822 24.6524V29.3399C19.2822 32.4102 24.5791 34.0274 29.8291 34.0274V26.9961C24.5087 26.9961 21.626 25.332 21.626 24.6524C21.626 23.1054 19.2822 23.1054 19.2822 24.6524Z" fill="#FE9923" />
		<path d="M21.626 19.9649C21.626 20.6445 24.5087 22.3087 29.8291 22.3087C35.1495 22.3087 38.0322 20.6445 38.0322 19.9649C38.0322 18.4179 40.376 18.4179 40.376 19.9649V24.6524C40.376 27.7227 35.0791 29.3399 29.8291 29.3399C24.5791 29.3399 19.2822 27.7227 19.2822 24.6524V19.9649C19.2822 18.4179 21.626 18.4179 21.626 19.9649Z" fill="#FEDB41" />
		<path d="M19.2822 19.9649V24.6524C19.2822 27.7227 24.5791 29.3399 29.8291 29.3399V22.3087C24.5087 22.3087 21.626 20.6445 21.626 19.9649C21.626 18.4179 19.2822 18.4179 19.2822 19.9649Z" fill="#FFCC33" />
		<path d="M21.626 15.2774C21.626 15.957 24.5087 17.6212 29.8291 17.6212C35.1495 17.6212 38.0322 15.957 38.0322 15.2774C38.0322 13.7304 40.376 13.7304 40.376 15.2774V19.9649C40.376 23.0352 35.0791 24.6524 29.8291 24.6524C24.5791 24.6524 19.2822 23.0352 19.2822 19.9649V15.2774C19.2822 13.7304 21.626 13.7304 21.626 15.2774Z" fill="#FEA832" />
		<path d="M19.2822 15.2774V19.9649C19.2822 23.0352 24.5791 24.6524 29.8291 24.6524V17.6212C24.5087 17.6212 21.626 15.957 21.626 15.2774C21.626 13.7304 19.2822 13.7304 19.2822 15.2774Z" fill="#FE9923" />
		<path d="M29.8291 11C35.1025 11 40.376 12.5234 40.376 15.6172C40.376 18.6875 35.0791 20.3047 29.8291 20.3047C24.5791 20.3047 19.2822 18.6875 19.2822 15.6172C19.2822 12.5234 24.5557 11 29.8291 11Z" fill="#FEDB41" />
		<path d="M29.8291 20.3047V11C24.5557 11 19.2822 12.5235 19.2822 15.6173C19.2822 18.6875 24.5791 20.3047 29.8291 20.3047Z" fill="#FFCC33" />
	</g>
	<defs>
		<clipPath id="clip0">
			<rect width="40" height="40" fill="white" transform="matrix(-1 0 0 1 40.376 0)" />
		</clipPath>
	</defs>
</svg>
