<svg width="22" height="14" viewBox="0 0 22 14" fill="none" xmlns="http://www.w3.org/2000/svg">
	<path d="M18.9062 4.3399C18.9062 5.01951 16.0235 6.68365 10.7031 6.68365C5.38273 6.68365 2.34375 5.01951 2.34375 4.3399C2.34375 2.79295 0 2.79295 0 4.3399V9.0274C0 12.0977 5.45312 13.7149 10.7031 13.7149C15.9531 13.7149 21.25 12.0977 21.25 9.0274V4.3399C21.25 2.79295 18.9062 2.79295 18.9062 4.3399Z" fill="#FEA832" />
	<path d="M21.25 4.3399V9.0274C21.25 12.0977 15.9531 13.7149 10.7031 13.7149V6.68365C16.0235 6.68365 18.9062 5.01951 18.9062 4.3399C18.9062 2.79295 21.25 2.79295 21.25 4.3399Z" fill="#FE9923" />
	<path d="M10.7031 0C5.42969 0 0 1.52351 0 4.61726C0 7.68757 5.45312 9.30475 10.7031 9.30475C15.9531 9.30475 21.25 7.68757 21.25 4.61726C21.25 1.52343 15.9766 0 10.7031 0Z" fill="#FEDB41" />
	<path d="M10.7031 9.3047V0C15.9766 0 21.25 1.52352 21.25 4.61727C21.25 7.68751 15.9531 9.3047 10.7031 9.3047Z" fill="#FFCC33" />
</svg>
