<svg width="22" height="24" viewBox="0 0 22 24" fill="none" xmlns="http://www.w3.org/2000/svg">
	<path d="M18.9062 14.3399C18.9062 15.0195 16.0235 16.6836 10.7031 16.6836C5.38273 16.6836 2.34375 15.0195 2.34375 14.3399C2.34375 12.7929 0 12.7929 0 14.3399V19.0274C0 22.0977 5.45312 23.7149 10.7031 23.7149C15.9531 23.7149 21.25 22.0977 21.25 19.0274V14.3399C21.25 12.7929 18.9062 12.7929 18.9062 14.3399Z" fill="#FEA832" />
	<path d="M18.9062 9.6524C18.9062 10.332 16.0235 11.9961 10.7031 11.9961C5.38273 11.9961 2.34375 10.332 2.34375 9.6524C2.34375 8.10545 0 8.10545 0 9.6524V14.3399C0 17.4102 5.45312 19.0274 10.7031 19.0274C15.9531 19.0274 21.25 17.4102 21.25 14.3399V9.6524C21.25 8.10545 18.9062 8.10545 18.9062 9.6524Z" fill="#FEDB41" />
	<path d="M21.25 14.3399V19.0274C21.25 22.0977 15.9531 23.7149 10.7031 23.7149V16.6836C16.0235 16.6836 18.9062 15.0195 18.9062 14.3399C18.9062 12.7929 21.25 12.7929 21.25 14.3399Z" fill="#FE9923" />
	<path d="M21.25 9.6524V14.3399C21.25 17.4102 15.9531 19.0274 10.7031 19.0274V11.9961C16.0235 11.9961 18.9062 10.332 18.9062 9.6524C18.9062 8.10545 21.25 8.10545 21.25 9.6524Z" fill="#FFCC33" />
	<path d="M18.9062 4.9649C18.9062 5.64451 16.0235 7.30865 10.7031 7.30865C5.38273 7.30865 2.34375 5.64451 2.34375 4.9649C2.34375 3.41795 0 3.41795 0 4.9649V9.6524C0 12.7227 5.45312 14.3399 10.7031 14.3399C15.9531 14.3399 21.25 12.7227 21.25 9.6524V4.9649C21.25 3.41795 18.9062 3.41795 18.9062 4.9649Z" fill="#FEA832" />
	<path d="M10.7031 0.347656C5.42969 0.347656 0 1.87117 0 4.96492C0 8.03522 5.45312 9.65241 10.7031 9.65241C15.9531 9.65241 21.25 8.03522 21.25 4.96492C21.25 1.87109 15.9766 0.347656 10.7031 0.347656Z" fill="#FEDB41" />
	<path d="M21.25 4.9649V9.6524C21.25 12.7227 15.9531 14.3399 10.7031 14.3399V7.30865C16.0235 7.30865 18.9062 5.64451 18.9062 4.9649C18.9062 3.41795 21.25 3.41795 21.25 4.9649Z" fill="#FE9923" />
	<path d="M10.7031 9.65236V0.347656C15.9766 0.347656 21.25 1.87117 21.25 4.96493C21.25 8.03517 15.9531 9.65236 10.7031 9.65236Z" fill="#FFCC33" />
</svg>
