<svg width="41" height="44" viewBox="0 0 41 44" fill="none" xmlns="http://www.w3.org/2000/svg">
	<g clip-path="url(#clip0)">
		<path d="M23.8135 33.5508V35.8945C23.8135 38.5664 27.4072 40.582 32.0947 40.582C36.7822 40.582 40.376 38.5664 40.376 35.8945V33.5508H23.8135Z" fill="#FEA832" />
		<path d="M23.8135 33.5508V35.8945C23.8135 38.5664 27.4072 40.582 32.0947 40.582V33.5508H23.8135Z" fill="#FE9923" />
		<path d="M23.8135 31.207V33.5508C23.8135 36.2227 27.4072 38.2383 32.0947 38.2383C36.7822 38.2383 40.376 36.2227 40.376 33.5508V31.207H23.8135Z" fill="#FEA832" />
		<path d="M23.8135 31.207V33.5508C23.8135 36.2227 27.4072 38.2383 32.0947 38.2383V31.207H23.8135Z" fill="#FE9923" />
		<path d="M23.8135 31.207V33.5508C23.8135 36.2227 27.4072 38.2383 32.0947 38.2383C36.7822 38.2383 40.376 36.2227 40.376 33.5508V31.207H23.8135Z" fill="#FEDB41" />
		<path d="M23.8135 31.207V33.5508C23.8135 36.2227 27.4072 38.2383 32.0947 38.2383V31.207H23.8135Z" fill="#FFCC33" />
		<path d="M23.8135 28.8633V31.207C23.8135 33.8789 27.4072 35.8945 32.0947 35.8945C36.7822 35.8945 40.376 33.8789 40.376 31.207V28.8633H23.8135Z" fill="#FEA832" />
		<path d="M23.8135 28.8633V31.207C23.8135 33.8789 27.4072 35.8945 32.0947 35.8945V28.8633H23.8135Z" fill="#FE9923" />
		<path d="M23.8135 26.5195V28.8633C23.8135 31.5352 27.4072 33.5508 32.0947 33.5508C36.7822 33.5508 40.376 31.5352 40.376 28.8633V26.5195H23.8135Z" fill="#FEDB41" />
		<path d="M23.8135 26.5195V28.8633C23.8135 31.5352 27.4072 33.5508 32.0947 33.5508V26.5195H23.8135Z" fill="#FFCC33" />
		<path d="M23.8135 24.1758V26.5195C23.8135 29.1914 27.4072 31.207 32.0947 31.207C36.7822 31.207 40.376 29.1914 40.376 26.5195V24.1758H23.8135Z" fill="#FEA832" />
		<path d="M23.8135 24.1758V26.5195C23.8135 29.1914 27.4072 31.207 32.0947 31.207V24.1758H23.8135Z" fill="#FE9923" />
		<path d="M23.8135 21.832V24.1758C23.8135 26.8477 27.4072 28.8633 32.0947 28.8633C36.7822 28.8633 40.376 26.8477 40.376 24.1758V21.832H23.8135Z" fill="#FEDB41" />
		<path d="M23.8135 21.832V24.1758C23.8135 26.8477 27.4072 28.8633 32.0947 28.8633V21.832H23.8135Z" fill="#FFCC33" />
		<path d="M23.8135 19.4883V21.832C23.8135 24.5039 27.4072 26.5195 32.0947 26.5195C36.7822 26.5195 40.376 24.5039 40.376 21.832V19.4883H23.8135Z" fill="#FEA832" />
		<path d="M23.8135 19.4883V21.832C23.8135 24.5039 27.4072 26.5195 32.0947 26.5195V19.4883H23.8135Z" fill="#FE9923" />
		<path d="M23.8135 17.1445V19.4883C23.8135 22.1602 27.4072 24.1758 32.0947 24.1758C36.7822 24.1758 40.376 22.1602 40.376 19.4883V17.1445H23.8135Z" fill="#FEDB41" />
		<path d="M23.8135 17.1445V19.4883C23.8135 22.1602 27.4072 24.1758 32.0947 24.1758V17.1445H23.8135Z" fill="#FFCC33" />
		<path d="M23.8135 14.8008V17.1445C23.8135 19.8164 27.4072 21.832 32.0947 21.832C36.7822 21.832 40.376 19.8164 40.376 17.1445V14.8008H23.8135Z" fill="#FEA832" />
		<path d="M23.8135 14.8008V17.1445C23.8135 19.8164 27.4072 21.832 32.0947 21.832V14.8008H23.8135Z" fill="#FE9923" />
		<path d="M23.8135 12.457V14.8008C23.8135 17.4727 27.4072 19.4883 32.0947 19.4883C36.7822 19.4883 40.376 17.4727 40.376 14.8008V12.457H23.8135Z" fill="#FEDB41" />
		<path d="M23.8135 12.457V14.8008C23.8135 17.4727 27.4072 19.4883 32.0947 19.4883V12.457H23.8135Z" fill="#FFCC33" />
		<path d="M23.8135 10.1133V12.457C23.8135 15.1289 27.4072 17.1445 32.0947 17.1445C36.7822 17.1445 40.376 15.1289 40.376 12.457V10.1133H23.8135Z" fill="#FEA832" />
		<path d="M23.8135 10.1133V12.457C23.8135 15.1289 27.4072 17.1445 32.0947 17.1445V10.1133H23.8135Z" fill="#FE9923" />
		<path d="M7.40723 33.5508V35.8945C7.40723 38.5664 10.9229 40.582 15.6104 40.582C20.2979 40.582 23.8135 38.5664 23.8135 35.8945V33.5508H7.40723Z" fill="#FEA832" />
		<path d="M7.40723 33.5508V35.8945C7.40723 38.5664 10.9229 40.582 15.6104 40.582V33.5508H7.40723Z" fill="#FE9923" />
		<path d="M7.40723 31.207V33.5508C7.40723 36.2227 10.9229 38.2383 15.6104 38.2383C20.2979 38.2383 23.8135 36.2227 23.8135 33.5508V31.207H7.40723Z" fill="#FEDB41" />
		<path d="M7.40723 31.207V33.5508C7.40723 36.2227 10.9229 38.2383 15.6104 38.2383V31.207H7.40723Z" fill="#FFCC33" />
		<path d="M7.40723 28.8633V31.207C7.40723 33.8789 10.9229 35.8945 15.6104 35.8945C20.2979 35.8945 23.8135 33.8789 23.8135 31.207V28.8633H7.40723Z" fill="#FEA832" />
		<path d="M7.40723 28.8633V31.207C7.40723 33.8789 10.9229 35.8945 15.6104 35.8945V28.8633H7.40723Z" fill="#FE9923" />
		<path d="M7.40723 26.5195V28.8633C7.40723 31.5352 10.9229 33.5508 15.6104 33.5508C20.2979 33.5508 23.8135 31.5352 23.8135 28.8633V26.5195H7.40723Z" fill="#FEDB41" />
		<path d="M7.40723 26.5195V28.8633C7.40723 31.5352 10.9229 33.5508 15.6104 33.5508V26.5195H7.40723Z" fill="#FFCC33" />
		<path d="M7.40723 24.1758V26.5195C7.40723 29.1914 10.9229 31.207 15.6104 31.207C20.2979 31.207 23.8135 29.1914 23.8135 26.5195V24.1758H7.40723Z" fill="#FEA832" />
		<path d="M7.40723 24.1758V26.5195C7.40723 29.1914 10.9229 31.207 15.6104 31.207V24.1758H7.40723Z" fill="#FE9923" />
		<path d="M7.40723 21.832V24.1758C7.40723 26.8477 10.9229 28.8633 15.6104 28.8633C20.2979 28.8633 23.8135 26.8477 23.8135 24.1758V21.832H7.40723Z" fill="#FEDB41" />
		<path d="M7.40723 21.832V24.1758C7.40723 26.8477 10.9229 28.8633 15.6104 28.8633V21.832H7.40723Z" fill="#FFCC33" />
		<path d="M7.40723 19.4883V21.832C7.40723 24.5039 10.9229 26.5195 15.6104 26.5195C20.2979 26.5195 23.8135 24.5039 23.8135 21.832V19.4883H7.40723Z" fill="#FEA832" />
		<path d="M7.40723 19.4883V21.832C7.40723 24.5039 10.9229 26.5195 15.6104 26.5195V19.4883H7.40723Z" fill="#FE9923" />
		<path d="M7.40723 17.1445V19.4883C7.40723 22.1602 10.9229 24.1758 15.6104 24.1758C20.2979 24.1758 23.8135 22.1602 23.8135 19.4883V17.1445H7.40723Z" fill="#FEDB41" />
		<path d="M7.40723 17.1445V19.4883C7.40723 22.1602 10.9229 24.1758 15.6104 24.1758V17.1445H7.40723Z" fill="#FFCC33" />
		<path d="M7.40723 14.8008V17.1445C7.40723 19.8164 10.9229 21.832 15.6104 21.832C20.2979 21.832 23.8135 19.8164 23.8135 17.1445V14.8008H7.40723Z" fill="#FEA832" />
		<path d="M7.40723 14.8008V17.1445C7.40723 19.8164 10.9229 21.832 15.6104 21.832V14.8008H7.40723Z" fill="#FE9923" />
		<path d="M15.6104 10.1133C20.2979 10.1133 23.8135 12.1289 23.8135 14.8008C23.8135 17.4727 20.2979 19.4883 15.6104 19.4883C10.9229 19.4883 7.40723 17.4727 7.40723 14.8008C7.40723 12.1289 10.9229 10.1133 15.6104 10.1133Z" fill="#FEDB41" />
		<path d="M7.40723 14.8008C7.40723 17.4727 10.9229 19.4883 15.6104 19.4883V10.1133C10.9229 10.1133 7.40723 12.1289 7.40723 14.8008Z" fill="#FFCC33" />
		<path d="M9.75098 23.8242C14.9307 23.8242 19.126 28.0196 19.126 33.1992C19.126 38.379 14.9307 42.5742 9.75098 42.5742C4.57121 42.5742 0.375977 38.379 0.375977 33.1992C0.375977 28.0196 4.57121 23.8242 9.75098 23.8242Z" fill="#FEA832" />
		<path d="M0.375977 33.1992C0.375977 38.379 4.57121 42.5742 9.75098 42.5742V23.8242C4.57121 23.8242 0.375977 28.0196 0.375977 33.1992Z" fill="#FE9923" />
		<path d="M9.75098 26.168C13.6182 26.168 16.7822 29.3321 16.7822 33.1992C16.7822 37.0665 13.6182 40.2305 9.75098 40.2305C5.88371 40.2305 2.71973 37.0665 2.71973 33.1992C2.71973 29.3321 5.88371 26.168 9.75098 26.168Z" fill="#FEDB41" />
		<path d="M2.71973 33.1992C2.71973 37.0665 5.88371 40.2305 9.75098 40.2305V26.168C5.88371 26.168 2.71973 29.3321 2.71973 33.1992Z" fill="#FFCC33" />
		<path d="M23.8135 8V10.3438C23.8135 13.0156 27.4072 15.0312 32.0947 15.0312C36.7822 15.0312 40.376 13.0156 40.376 10.3438V8H23.8135Z" fill="#FEDB41" />
		<path d="M23.8135 8V10.3438C23.8135 13.0156 27.4072 15.0312 32.0947 15.0312V8H23.8135Z" fill="#FFCC33" />
		<path d="M23.8135 5V7.34375C23.8135 10.0156 27.4072 12.0312 32.0947 12.0312C36.7822 12.0312 40.376 10.0156 40.376 7.34375V5H23.8135Z" fill="#FEA832" />
		<path d="M23.8135 5V7.34375C23.8135 10.0156 27.4072 12.0312 32.0947 12.0312V5H23.8135Z" fill="#FE9923" />
	</g>
	<path d="M32.0947 0C36.7822 0 40.376 2.01562 40.376 4.6875C40.376 7.35938 36.7822 9.375 32.0947 9.375C27.4072 9.375 23.8135 7.35938 23.8135 4.6875C23.8135 2.01562 27.4072 0 32.0947 0Z" fill="#FEDB41" />
	<path d="M23.8135 4.6875C23.8135 7.35938 27.4072 9.375 32.0947 9.375V0C27.4072 0 23.8135 2.01562 23.8135 4.6875Z" fill="#FFCC33" />
	<defs>
		<clipPath id="clip0">
			<rect width="40" height="40" fill="white" transform="matrix(-1 0 0 1 40.376 4)" />
		</clipPath>
	</defs>
</svg>
