<svg width="14" height="13" viewBox="0 0 14 13" fill="none" xmlns="http://www.w3.org/2000/svg">
<mask id="path-1-inside-1" fill="white">
<path d="M6.00953 5.83984C6.00953 5.26546 6.46423 4.79984 7.02514 4.79984C7.58604 4.79984 8.04075 5.26546 8.04075 5.83984C8.04075 6.41421 7.58604 6.87984 7.02514 6.87984C6.46423 6.87984 6.00953 6.41421 6.00953 5.83984ZM9.99384 5.83984C9.99384 4.16357 8.66207 2.79984 7.02514 2.79984C5.38821 2.79984 4.05643 4.16357 4.05643 5.83984C4.05643 7.5161 5.38821 8.87984 7.02514 8.87984C8.66207 8.87984 9.99384 7.51608 9.99384 5.83984ZM8.95219 5.83984C8.95219 6.92794 8.08773 7.81317 7.02514 7.81317C5.96255 7.81317 5.09808 6.92794 5.09808 5.83984C5.09808 4.75173 5.96255 3.8665 7.02514 3.8665C8.08773 3.8665 8.95219 4.75173 8.95219 5.83984ZM7.62932 10.9781C7.91523 10.9457 8.12132 10.682 8.08968 10.3893C8.05804 10.0965 7.80093 9.88549 7.51469 9.91786C7.34716 9.93685 7.17753 9.94648 7.0105 9.94648C4.48174 9.94648 2.38528 7.73309 1.54519 6.42522C1.31678 6.0696 1.31678 5.61005 1.54519 5.25442C2.38528 3.94656 4.48174 1.73317 7.0105 1.73317C9.53922 1.73317 11.6228 3.94869 12.4553 5.25778C12.639 5.54656 12.675 5.91037 12.5516 6.23096C12.4461 6.50501 12.5776 6.81469 12.8452 6.92269C13.1129 7.03066 13.4153 6.89605 13.5207 6.62202C13.7675 5.98082 13.6955 5.25322 13.3282 4.6757C13.0517 4.24088 12.2714 3.12456 11.0013 2.1521C9.71385 1.16634 8.37111 0.666504 7.01048 0.666504C5.65172 0.666504 4.30786 1.16498 3.01616 2.14808C1.74042 3.11904 0.953871 4.23397 0.674917 4.66826C0.217736 5.37997 0.217736 6.2997 0.674917 7.01141C0.953871 7.4457 1.74042 8.56064 3.01616 9.5316C4.30786 10.5147 5.65172 11.0132 7.01048 11.0132C7.21568 11.0132 7.42388 11.0014 7.62932 10.9781ZM13.3271 10.4665C13.3271 9.96826 13.0311 9.28357 12.4222 8.37325C12.0052 7.74992 11.5939 7.24994 11.5766 7.22898C11.4776 7.10904 11.3321 7.03984 11.1787 7.03984C11.0254 7.03984 10.8798 7.10904 10.7809 7.22898C10.7636 7.24997 10.3522 7.74994 9.93525 8.37325C9.32633 9.28354 9.03032 9.96826 9.03032 10.4665C9.03032 11.6796 9.99411 12.6665 11.1787 12.6665C12.3633 12.6665 13.3271 11.6796 13.3271 10.4665ZM11.5628 8.97605C12.2506 10.0043 12.2855 10.398 12.2855 10.4665C12.2855 11.0914 11.789 11.5998 11.1787 11.5998C10.5684 11.5998 10.072 11.0914 10.072 10.4665C10.072 10.3983 10.1066 10.0062 10.7899 8.98306C10.9241 8.78213 11.0593 8.59312 11.1788 8.43168C11.2967 8.59098 11.4299 8.77736 11.5628 8.97605Z"/>
</mask>
<path d="M6.00953 5.83984C6.00953 5.26546 6.46423 4.79984 7.02514 4.79984C7.58604 4.79984 8.04075 5.26546 8.04075 5.83984C8.04075 6.41421 7.58604 6.87984 7.02514 6.87984C6.46423 6.87984 6.00953 6.41421 6.00953 5.83984ZM9.99384 5.83984C9.99384 4.16357 8.66207 2.79984 7.02514 2.79984C5.38821 2.79984 4.05643 4.16357 4.05643 5.83984C4.05643 7.5161 5.38821 8.87984 7.02514 8.87984C8.66207 8.87984 9.99384 7.51608 9.99384 5.83984ZM8.95219 5.83984C8.95219 6.92794 8.08773 7.81317 7.02514 7.81317C5.96255 7.81317 5.09808 6.92794 5.09808 5.83984C5.09808 4.75173 5.96255 3.8665 7.02514 3.8665C8.08773 3.8665 8.95219 4.75173 8.95219 5.83984ZM7.62932 10.9781C7.91523 10.9457 8.12132 10.682 8.08968 10.3893C8.05804 10.0965 7.80093 9.88549 7.51469 9.91786C7.34716 9.93685 7.17753 9.94648 7.0105 9.94648C4.48174 9.94648 2.38528 7.73309 1.54519 6.42522C1.31678 6.0696 1.31678 5.61005 1.54519 5.25442C2.38528 3.94656 4.48174 1.73317 7.0105 1.73317C9.53922 1.73317 11.6228 3.94869 12.4553 5.25778C12.639 5.54656 12.675 5.91037 12.5516 6.23096C12.4461 6.50501 12.5776 6.81469 12.8452 6.92269C13.1129 7.03066 13.4153 6.89605 13.5207 6.62202C13.7675 5.98082 13.6955 5.25322 13.3282 4.6757C13.0517 4.24088 12.2714 3.12456 11.0013 2.1521C9.71385 1.16634 8.37111 0.666504 7.01048 0.666504C5.65172 0.666504 4.30786 1.16498 3.01616 2.14808C1.74042 3.11904 0.953871 4.23397 0.674917 4.66826C0.217736 5.37997 0.217736 6.2997 0.674917 7.01141C0.953871 7.4457 1.74042 8.56064 3.01616 9.5316C4.30786 10.5147 5.65172 11.0132 7.01048 11.0132C7.21568 11.0132 7.42388 11.0014 7.62932 10.9781ZM13.3271 10.4665C13.3271 9.96826 13.0311 9.28357 12.4222 8.37325C12.0052 7.74992 11.5939 7.24994 11.5766 7.22898C11.4776 7.10904 11.3321 7.03984 11.1787 7.03984C11.0254 7.03984 10.8798 7.10904 10.7809 7.22898C10.7636 7.24997 10.3522 7.74994 9.93525 8.37325C9.32633 9.28354 9.03032 9.96826 9.03032 10.4665C9.03032 11.6796 9.99411 12.6665 11.1787 12.6665C12.3633 12.6665 13.3271 11.6796 13.3271 10.4665ZM11.5628 8.97605C12.2506 10.0043 12.2855 10.398 12.2855 10.4665C12.2855 11.0914 11.789 11.5998 11.1787 11.5998C10.5684 11.5998 10.072 11.0914 10.072 10.4665C10.072 10.3983 10.1066 10.0062 10.7899 8.98306C10.9241 8.78213 11.0593 8.59312 11.1788 8.43168C11.2967 8.59098 11.4299 8.77736 11.5628 8.97605Z" fill="#54B2D3" stroke="#54B2D3" stroke-width="1.99997" mask="url(#path-1-inside-1)"/>
</svg>
