<svg width="16" height="16" viewBox="0 0 16 16" fill="none" xmlns="http://www.w3.org/2000/svg">
<path d="M4.94314 14.6668C2.95203 14.6668 1.33203 13.0468 1.33203 11.0557C1.33203 10.0913 1.70759 9.18405 2.38981 8.50239L8.50092 2.39127C9.18259 1.70905 10.0898 1.3335 11.0543 1.3335C13.0454 1.3335 14.6654 2.9535 14.6654 4.94461C14.6654 5.90905 14.2898 6.81627 13.6076 7.49794L7.49648 13.6091C6.81481 14.2913 5.90759 14.6668 4.94314 14.6668ZM11.0543 1.88905C10.2381 1.88905 9.47092 2.20683 8.8937 2.78405L2.78259 8.89516C2.20536 9.47239 1.88759 10.2396 1.88759 11.0557C1.88759 12.7407 3.25814 14.1113 4.94314 14.1113C5.75925 14.1113 6.52648 13.7935 7.1037 13.2163L13.2148 7.10516C13.792 6.52794 14.1098 5.76072 14.1098 4.94461C14.1098 3.25961 12.7393 1.88905 11.0543 1.88905Z" fill="#54B2D3" stroke="#54B2D3" stroke-width="0.25"/>
<path d="M5.44531 5.83252L5.83809 5.43974L10.5577 10.1594L10.1649 10.5521L5.44531 5.83252Z" fill="#54B2D3" stroke="#54B2D3" stroke-width="0.25"/>
</svg>
