<svg width="16" height="16" viewBox="0 0 16 16" fill="none" xmlns="http://www.w3.org/2000/svg">
<mask id="path-1-inside-1" fill="white">
<path d="M9.78125 11.4321C9.52234 11.4321 9.3125 11.642 9.3125 11.9009C9.3125 12.9089 8.49246 13.729 7.48438 13.729C6.47629 13.729 5.65625 12.9089 5.65625 11.9009V10.5537L7.32269 8.13559C7.33295 8.12067 7.3421 8.10529 7.35043 8.08963C7.3822 8.05997 7.41351 8.02975 7.44409 7.99863C8.0444 7.38834 8.375 6.53516 8.375 5.59619C8.375 5.58813 8.37482 5.58008 8.37436 5.57211L8.375 3.75635C8.375 3.1554 7.88611 2.6665 7.28516 2.6665H6.40625C6.14734 2.6665 5.9375 2.87634 5.9375 3.13525V3.604C5.9375 3.86292 6.14734 4.07275 6.40625 4.07275C6.66516 4.07275 6.875 3.86292 6.875 3.604H7.28516C7.3692 3.604 7.4375 3.6723 7.4375 3.75616L7.43686 5.59601C7.43686 5.60361 7.43704 5.61111 7.43741 5.61853C7.42734 6.99228 6.48425 7.98682 5.1875 7.98682C3.88379 7.98682 2.9375 6.98138 2.9375 5.59619C2.9375 5.58163 2.93658 5.56717 2.9353 5.55289C2.93668 5.5386 2.9375 5.52423 2.9375 5.50958V3.75635C2.9375 3.6723 3.0058 3.604 3.08984 3.604H3.47711C3.47711 4.04932 3.69427 4.04932 3.94531 4.04932C4.20422 4.04932 4.41406 3.83948 4.41406 3.58057V3.13525C4.41406 2.87634 4.20422 2.6665 3.94531 2.6665H3.08984C2.48889 2.6665 2 3.1554 2 3.75635V5.50958C2 5.52423 2.00092 5.5386 2.0022 5.55289C2.00092 5.56717 2 5.58163 2 5.59619C2 6.53516 2.3306 7.38834 2.93091 7.99863C2.94968 8.01767 2.96863 8.03644 2.98776 8.05493C2.99976 8.08276 3.0145 8.10977 3.03235 8.13559L4.71875 10.5827V11.9009C4.71875 13.4259 5.95938 14.6665 7.48438 14.6665C9.00937 14.6665 10.25 13.4259 10.25 11.9009C10.25 11.642 10.0402 11.4321 9.78125 11.4321ZM5.1875 8.92432C5.34891 8.92432 5.50803 8.91287 5.66385 8.89053L5.17752 9.59622L4.68881 8.88715C4.85178 8.91168 5.0184 8.92432 5.1875 8.92432ZM13.0625 7.69247V4.5415C13.0625 3.5076 12.2214 2.6665 11.1875 2.6665C10.1536 2.6665 9.3125 3.5076 9.3125 4.5415V11.9009C9.3125 12.1598 9.52234 11.4321 9.78125 11.4321C10.0402 11.4321 10.25 12.1598 10.25 11.9009V4.5415C10.25 4.0246 10.6706 3.604 11.1875 3.604C11.7044 3.604 12.125 4.0246 12.125 4.5415V7.69247C11.5794 7.88593 11.1875 8.40695 11.1875 9.01807C11.1875 9.79352 11.8183 10.4243 12.5938 10.4243C13.3692 10.4243 14 9.79352 14 9.01807C14 8.40695 13.6081 7.88593 13.0625 7.69247ZM12.5938 9.48682C12.3353 9.48682 12.125 9.27652 12.125 9.01807C12.125 8.75961 12.3353 8.54932 12.5938 8.54932C12.8522 8.54932 13.0625 8.75961 13.0625 9.01807C13.0625 9.27652 12.8522 9.48682 12.5938 9.48682Z"/>
</mask>
<path d="M9.78125 11.4321C9.52234 11.4321 9.3125 11.642 9.3125 11.9009C9.3125 12.9089 8.49246 13.729 7.48438 13.729C6.47629 13.729 5.65625 12.9089 5.65625 11.9009V10.5537L7.32269 8.13559C7.33295 8.12067 7.3421 8.10529 7.35043 8.08963C7.3822 8.05997 7.41351 8.02975 7.44409 7.99863C8.0444 7.38834 8.375 6.53516 8.375 5.59619C8.375 5.58813 8.37482 5.58008 8.37436 5.57211L8.375 3.75635C8.375 3.1554 7.88611 2.6665 7.28516 2.6665H6.40625C6.14734 2.6665 5.9375 2.87634 5.9375 3.13525V3.604C5.9375 3.86292 6.14734 4.07275 6.40625 4.07275C6.66516 4.07275 6.875 3.86292 6.875 3.604H7.28516C7.3692 3.604 7.4375 3.6723 7.4375 3.75616L7.43686 5.59601C7.43686 5.60361 7.43704 5.61111 7.43741 5.61853C7.42734 6.99228 6.48425 7.98682 5.1875 7.98682C3.88379 7.98682 2.9375 6.98138 2.9375 5.59619C2.9375 5.58163 2.93658 5.56717 2.9353 5.55289C2.93668 5.5386 2.9375 5.52423 2.9375 5.50958V3.75635C2.9375 3.6723 3.0058 3.604 3.08984 3.604H3.47711C3.47711 4.04932 3.69427 4.04932 3.94531 4.04932C4.20422 4.04932 4.41406 3.83948 4.41406 3.58057V3.13525C4.41406 2.87634 4.20422 2.6665 3.94531 2.6665H3.08984C2.48889 2.6665 2 3.1554 2 3.75635V5.50958C2 5.52423 2.00092 5.5386 2.0022 5.55289C2.00092 5.56717 2 5.58163 2 5.59619C2 6.53516 2.3306 7.38834 2.93091 7.99863C2.94968 8.01767 2.96863 8.03644 2.98776 8.05493C2.99976 8.08276 3.0145 8.10977 3.03235 8.13559L4.71875 10.5827V11.9009C4.71875 13.4259 5.95938 14.6665 7.48438 14.6665C9.00937 14.6665 10.25 13.4259 10.25 11.9009C10.25 11.642 10.0402 11.4321 9.78125 11.4321ZM5.1875 8.92432C5.34891 8.92432 5.50803 8.91287 5.66385 8.89053L5.17752 9.59622L4.68881 8.88715C4.85178 8.91168 5.0184 8.92432 5.1875 8.92432ZM13.0625 7.69247V4.5415C13.0625 3.5076 12.2214 2.6665 11.1875 2.6665C10.1536 2.6665 9.3125 3.5076 9.3125 4.5415V11.9009C9.3125 12.1598 9.52234 11.4321 9.78125 11.4321C10.0402 11.4321 10.25 12.1598 10.25 11.9009V4.5415C10.25 4.0246 10.6706 3.604 11.1875 3.604C11.7044 3.604 12.125 4.0246 12.125 4.5415V7.69247C11.5794 7.88593 11.1875 8.40695 11.1875 9.01807C11.1875 9.79352 11.8183 10.4243 12.5938 10.4243C13.3692 10.4243 14 9.79352 14 9.01807C14 8.40695 13.6081 7.88593 13.0625 7.69247ZM12.5938 9.48682C12.3353 9.48682 12.125 9.27652 12.125 9.01807C12.125 8.75961 12.3353 8.54932 12.5938 8.54932C12.8522 8.54932 13.0625 8.75961 13.0625 9.01807C13.0625 9.27652 12.8522 9.48682 12.5938 9.48682Z" fill="#54B2D3"/>
</svg>
