<svg width="14" height="14" viewBox="0 0 14 14" fill="none" xmlns="http://www.w3.org/2000/svg">
<g clip-path="url(#clip0)">
<path d="M7.0003 6.46154C8.78461 6.46154 10.2311 5.01507 10.2311 3.23077C10.2311 1.44646 8.78461 0 7.0003 0C5.216 0 3.76953 1.44646 3.76953 3.23077C3.76953 5.01507 5.216 6.46154 7.0003 6.46154Z" fill="white"/>
<path d="M13.2737 9.82335C9.63906 6.77243 4.36106 6.77243 0.726447 9.82335C0.607986 9.9235 0.539062 10.07 0.539062 10.2261C0.539062 10.7463 0.539062 12.0041 0.539062 12.9249C0.539062 13.5193 1.02152 14.0007 1.61599 14.0007H12.3852C12.9797 14.0007 13.4621 13.5193 13.4621 12.9249V10.4372C13.4621 10.07 13.3932 9.9235 13.2737 9.82335Z" fill="white"/>
</g>
<defs>
<clipPath id="clip0">
<rect width="14" height="14" fill="white"/>
</clipPath>
</defs>
</svg>
