<svg width="15" height="14" viewBox="0 0 15 14" fill="none" xmlns="http://www.w3.org/2000/svg">
<mask id="mask0" mask-type="alpha" maskUnits="userSpaceOnUse" x="6" y="0" width="3" height="14">
<path d="M6.36719 0H8.50009V14H6.36719V0Z" fill="white"/>
</mask>
<g mask="url(#mask0)">
<path fill-rule="evenodd" clip-rule="evenodd" d="M7.84163 11.727C7.68061 11.5124 7.62491 11.2371 7.62099 10.9736C7.61708 10.669 7.68845 10.3487 7.89342 10.1149C8.11145 9.85446 8.40781 9.62328 8.47265 9.26887C8.5153 8.99444 8.51791 8.69509 8.38431 8.44338C8.2246 8.10208 7.85425 7.91548 7.71934 7.55845C7.59009 7.21453 7.58618 6.82123 7.70803 6.47512C7.85469 6.06259 8.30075 5.85327 8.43914 5.43593C8.52052 5.16848 8.52052 4.87132 8.43784 4.60431C8.29901 4.18698 7.84555 3.98202 7.70585 3.56469C7.5766 3.18493 7.57269 2.72127 7.82858 2.39177C7.95434 2.22659 8.11711 2.09374 8.24026 1.92637C8.48919 1.61828 8.53837 1.19046 8.47004 0.810701C8.34645 0.270566 7.75938 -0.103071 7.21975 0.025408C6.91207 0.0844032 6.6453 0.298534 6.49342 0.570349C6.27583 0.981131 6.34372 1.53394 6.67315 1.86693C6.85289 2.05659 7.04132 2.248 7.15186 2.48835C7.27328 2.74575 7.23585 3.03897 7.23106 3.31472C7.19451 3.70759 6.89162 3.98421 6.6453 4.25952C6.34633 4.57853 6.30238 5.07147 6.44686 5.47133C6.59352 5.83885 6.96604 6.04686 7.13184 6.40301C7.26675 6.6473 7.23759 6.93441 7.23498 7.20229C7.23193 7.44002 7.11748 7.66027 6.973 7.8425C6.8098 8.05969 6.57785 8.22575 6.46644 8.48052C6.33023 8.79822 6.33632 9.1723 6.47297 9.48869C6.63094 9.81556 6.96299 10.0135 7.12488 10.3382C7.27458 10.6179 7.24151 10.9474 7.22715 11.2529C7.17928 11.6387 6.87552 11.9075 6.63312 12.1815C6.26321 12.5918 6.28018 13.3002 6.68447 13.6826C6.90119 13.9037 7.21714 14.0239 7.52569 13.9964C7.83467 13.9697 8.12102 13.7949 8.30598 13.5489C8.51878 13.25 8.54663 12.8484 8.43436 12.5062C8.32556 12.1867 8.0305 11.9931 7.84163 11.727Z" fill="#24BEE1"/>
</g>
<path fill-rule="evenodd" clip-rule="evenodd" d="M6.08902 10.2732C5.87684 10.0438 5.60062 9.85114 5.4778 9.56191C5.32678 9.20541 5.32678 8.79254 5.48305 8.43778C5.59249 8.18613 5.82905 8.01399 6.01686 7.81521C6.18173 7.64176 6.30598 7.4255 6.31602 7.19219C6.32749 6.96239 6.33131 6.72035 6.2128 6.51064C6.05222 6.18515 5.68042 6.00384 5.51507 5.68097C5.33682 5.34456 5.32487 4.94393 5.44004 4.5883C5.52511 4.32747 5.73251 4.12344 5.94088 3.93776C6.18317 3.72106 6.34374 3.4196 6.3208 3.10504C6.34852 2.74503 6.14828 2.38241 5.81184 2.19193C5.55808 2.0176 5.22595 1.98309 4.92058 2.03115C4.60469 2.09712 4.30983 2.27668 4.15069 2.53882C3.97339 2.80227 3.97578 3.13169 4.03982 3.42572C4.15738 3.85999 4.64722 4.0732 4.83742 4.47077C5.01472 4.85349 5.00899 5.30699 4.8097 5.68185C4.62811 6.01782 4.23862 6.21617 4.08379 6.56787C3.98582 6.7636 4.00159 6.98423 4.0078 7.19394C4.01593 7.3971 4.11342 7.58933 4.24961 7.74749C4.44412 7.96637 4.69549 8.14768 4.82882 8.40807C5.01998 8.78511 5.00803 9.23949 4.81926 9.61522C4.62811 10.0006 4.14639 10.2094 4.03839 10.6371C3.97817 10.9224 3.97387 11.2405 4.13922 11.4991C4.34615 11.825 4.74184 12.057 5.16048 12.0483C5.69715 12.0618 6.20515 11.6817 6.30455 11.2007C6.35091 10.8826 6.31841 10.5314 6.08902 10.2732ZM10.0981 9.4668C9.99775 9.13389 9.99823 8.76515 10.1402 8.44141C10.2983 8.09233 10.6873 7.89529 10.867 7.55932C11.0381 7.24257 11.0439 6.85504 10.8857 6.53349C10.7112 6.1678 10.2816 5.96465 10.1287 5.58761C9.99632 5.25688 9.99345 4.88027 10.1163 4.54605C10.2319 4.22886 10.5488 4.03444 10.7552 3.77187C11.0008 3.46823 11.0706 3.05099 10.9172 2.69754C10.7284 2.20953 10.1163 1.91332 9.56669 2.03521C9.14949 2.12128 8.79107 2.43147 8.69263 2.81376C8.62811 3.03745 8.64388 3.27862 8.72847 3.49575C8.90338 3.93571 9.43193 4.1642 9.56621 4.62469C9.65415 4.95018 9.65462 5.31062 9.51078 5.62343C9.33635 5.97907 8.93301 6.18572 8.75571 6.53917C8.63002 6.81965 8.62046 7.14383 8.7213 7.43218C8.88378 7.86645 9.39847 8.08883 9.54949 8.52922C9.65462 8.84029 9.65271 9.18763 9.54375 9.49782C9.39561 9.91025 8.91963 10.12 8.74711 10.5193C8.60708 10.8382 8.61951 11.2183 8.81162 11.5176C8.95929 11.736 9.18677 11.913 9.45486 11.9947C9.79465 12.0991 10.1894 12.0541 10.4833 11.8623C10.7715 11.6889 10.9502 11.3887 10.9937 11.0798C11.0262 10.7543 10.9091 10.4166 10.6635 10.1772C10.4479 9.96093 10.1908 9.75865 10.0981 9.4668Z" fill="#24BEE1"/>
<path fill-rule="evenodd" clip-rule="evenodd" d="M12.1863 7.269C12.1826 6.99788 12.1516 6.7103 12.2703 6.4591C12.4229 6.08229 12.804 5.87657 12.935 5.48634C13.0725 5.08138 12.9892 4.58548 12.6767 4.2966C12.4384 4.04063 12.0712 3.97307 11.7485 4.0441C11.4751 4.12032 11.2323 4.31912 11.1046 4.58938C10.9851 4.82239 10.9842 5.10001 11.0222 5.35641C11.0854 5.69293 11.3396 5.92464 11.5457 6.16762C11.8554 6.53186 11.8868 7.0819 11.7501 7.5319C11.6265 7.92083 11.2474 8.12093 11.094 8.4895C10.994 8.69392 10.9895 8.93127 11.0108 9.15518C11.0728 9.54368 11.349 9.89233 11.7093 10.0002C11.9892 10.0851 12.3066 10.0431 12.5498 9.86981C12.7665 9.71346 12.9313 9.46875 12.9762 9.19243C13.0533 8.83035 12.9391 8.43536 12.693 8.1729C12.4625 7.92126 12.2095 7.63888 12.1863 7.269Z" fill="#24BEE1"/>
<path fill-rule="evenodd" clip-rule="evenodd" d="M14.9783 7.00968C14.85 6.43272 14.1636 6.04505 13.5886 6.24603C13.1615 6.37511 12.8223 6.78357 12.844 7.22842C12.8005 7.74084 13.221 8.21514 13.7311 8.29874C14.1854 8.37801 14.684 8.14324 14.886 7.73478C15.0121 7.51517 15.0179 7.25268 14.9783 7.00968ZM4.07421 8.49908C3.95433 8.20323 3.65729 8.03387 3.48724 7.77138C3.23238 7.39064 3.21418 6.88428 3.38334 6.46802C3.53697 6.09118 3.95345 5.89323 4.09375 5.51075C4.17145 5.29201 4.20742 5.05074 4.13993 4.82464C4.0569 4.42874 3.70791 4.11037 3.30653 4.0311C3.10318 4.01031 2.89005 4.00381 2.69824 4.08438C2.25335 4.22645 1.96297 4.69556 2.00382 5.14517C1.99228 5.52331 2.25202 5.83215 2.51354 6.08165C2.67249 6.22372 2.76396 6.41518 2.85587 6.60143C2.90382 6.91893 2.92557 7.25073 2.81013 7.55783C2.64496 7.95157 2.2205 8.16511 2.06776 8.56405C1.98872 8.74944 1.9976 8.95605 2.01137 9.15227C2.06776 9.53561 2.3679 9.86351 2.73865 9.99129C2.92691 10.0424 3.12715 10.061 3.32029 10.0207C3.72434 9.93801 4.07155 9.60881 4.14614 9.20901C4.20875 8.97294 4.16479 8.72258 4.07421 8.49908Z" fill="#24BEE1"/>
<path fill-rule="evenodd" clip-rule="evenodd" d="M1.99852 7.00364C2.00219 6.59735 1.71472 6.22266 1.3411 6.08477C1.12917 6.00433 0.898463 6.01131 0.682862 6.07164C0.478287 6.16192 0.276161 6.28791 0.161419 6.48613C0.0262604 6.71924 -0.0484648 7.00528 0.0352437 7.26957C0.103844 7.58927 0.345578 7.84987 0.645704 7.96601C1.02831 8.12648 1.49422 7.99022 1.76005 7.67915C1.91767 7.49365 2.01322 7.24946 1.99852 7.00364Z" fill="#24BEE1"/>
</svg>
