<svg width="12" height="12" viewBox="0 0 12 12" fill="none" xmlns="http://www.w3.org/2000/svg">
<circle cx="6" cy="6" r="6" fill="#FF5B64"/>
<path d="M6.34665 6.0014L8.10446 3.90608C8.13393 3.87126 8.10915 3.81836 8.06361 3.81836H7.52924C7.49777 3.81836 7.46763 3.83242 7.44687 3.85653L5.9971 5.58488L4.54732 3.85653C4.52723 3.83242 4.4971 3.81836 4.46495 3.81836H3.93058C3.88504 3.81836 3.86027 3.87126 3.88973 3.90608L5.64754 6.0014L3.88973 8.09671C3.88313 8.10447 3.8789 8.11396 3.87753 8.12406C3.87616 8.13416 3.87772 8.14443 3.88202 8.15367C3.88633 8.1629 3.89319 8.17071 3.90179 8.17617C3.9104 8.18162 3.92039 8.18449 3.93058 8.18443H4.46495C4.49643 8.18443 4.52656 8.17037 4.54732 8.14626L5.9971 6.41791L7.44687 8.14626C7.46696 8.17037 7.4971 8.18443 7.52924 8.18443H8.06361C8.10915 8.18443 8.13393 8.13153 8.10446 8.09671L6.34665 6.0014Z" fill="white" stroke="white" stroke-width="0.5"/>
</svg>
