<svg width="12" height="12" viewBox="0 0 12 12" fill="none" xmlns="http://www.w3.org/2000/svg">
<circle cx="6" cy="6" r="6" fill="#54B2D3"/>
<path d="M5.79869 3.58984H6.20047C6.23619 3.58984 6.25405 3.6077 6.25405 3.64342V8.3577C6.25405 8.39342 6.23619 8.41127 6.20047 8.41127H5.79869C5.76297 8.41127 5.74512 8.39342 5.74512 8.3577V3.64342C5.74512 3.6077 5.76297 3.58984 5.79869 3.58984Z" fill="white" stroke="white" stroke-width="0.5"/>
<path d="M3.74986 5.74609H8.24986C8.28557 5.74609 8.30343 5.76395 8.30343 5.79967V6.20145C8.30343 6.23717 8.28557 6.25502 8.24986 6.25502H3.74986C3.71415 6.25502 3.69629 6.23717 3.69629 6.20145V5.79967C3.69629 5.76395 3.71415 5.74609 3.74986 5.74609Z" fill="white" stroke="white" stroke-width="0.5"/>
</svg>
