<svg width="14" height="12" viewBox="0 0 14 12" fill="none" xmlns="http://www.w3.org/2000/svg">
<path d="M6.99989 3.8123H5.24986V1.18726C5.24986 1.00613 5.13874 0.844256 4.96986 0.779505C4.80273 0.713004 4.61023 0.758505 4.4886 0.893257L0.113533 5.70583C-0.0378443 5.87296 -0.0378443 6.12759 0.113533 6.29472L4.4886 11.1073C4.57348 11.1992 4.6916 11.2499 4.81236 11.2499C4.86573 11.2499 4.91911 11.2403 4.96986 11.221C5.13874 11.1554 5.24986 10.9935 5.24986 10.8124V8.18737H6.16863C8.84442 8.18737 11.3601 9.22951 13.2527 11.1222C13.3787 11.2482 13.5677 11.2849 13.7296 11.2167C13.8932 11.1493 14 10.9892 14 10.8124C14 6.95273 10.8596 3.8123 6.99989 3.8123Z" fill="white"/>
</svg>
