<svg width="40" height="40" viewBox="0 0 40 40" fill="none" xmlns="http://www.w3.org/2000/svg">
<path fill-rule="evenodd" clip-rule="evenodd" d="M29.6759 24.2969C28.5235 24.2969 27.4415 24.5859 26.4962 25.0938C26.4471 25.1198 26.392 25.1324 26.3364 25.1303C26.2809 25.1283 26.2268 25.1116 26.1798 25.082C24.3478 23.9336 22.2228 23.3203 20.0079 23.3203C16.8829 23.3203 13.9454 24.5391 11.7384 26.7539C9.60166 28.8945 8.39463 31.7188 8.3165 34.7344C8.3126 34.9023 8.17197 35.0391 8.004 35.0391H5.66416C5.62246 35.0391 5.58117 35.0307 5.54274 35.0145C5.50431 34.9984 5.4695 34.9746 5.44038 34.9448C5.41126 34.9149 5.3884 34.8796 5.37317 34.8407C5.35793 34.8019 5.35062 34.7604 5.35166 34.7187C5.38811 32.8639 5.77788 31.0331 6.5001 29.3242C7.23414 27.5792 8.30085 25.9937 9.64072 24.6562C10.9884 23.3047 12.5548 22.2461 14.3009 21.5078C14.3087 21.5039 14.3165 21.501 14.3243 21.498C14.3321 21.4951 14.3399 21.4922 14.3478 21.4883C11.9181 19.7266 10.3399 16.8633 10.3399 13.6328C10.3399 8.28125 14.6642 3.94531 20.004 3.94531C25.3438 3.94531 29.672 8.28125 29.672 13.6328C29.672 16.8633 28.0938 19.7266 25.6681 21.4883C25.6759 21.4922 25.6837 21.4951 25.6915 21.498C25.6993 21.501 25.7071 21.5039 25.7149 21.5078C27.1984 22.134 28.5673 23.0026 29.7657 24.0781C29.8517 24.1562 29.797 24.2969 29.6798 24.2969H29.6759ZM15.2657 18.3828C16.5353 19.6523 18.2188 20.3516 20.0079 20.3516C21.797 20.3516 23.4806 19.6523 24.7501 18.3828C26.0157 17.1133 26.7149 15.4258 26.7149 13.6328C26.7169 12.7506 26.5443 11.8767 26.2071 11.0615C25.8699 10.2463 25.3747 9.50582 24.7501 8.88281C23.4806 7.61328 21.8009 6.91406 20.0079 6.91406C18.2149 6.91406 16.5313 7.61328 15.2657 8.88281C14.0001 10.1523 13.3009 11.8398 13.3009 13.6328C13.2989 14.515 13.4715 15.3889 13.8087 16.2041C14.1459 17.0194 14.6411 17.7598 15.2657 18.3828ZM27.0572 28.6534C26.9791 28.5753 26.9791 28.4486 27.0572 28.3705L28.7558 26.6719C28.8339 26.5938 28.9606 26.5938 29.0387 26.6719L31.4421 29.0754L33.8447 26.6728C33.9228 26.5947 34.0495 26.5947 34.1276 26.6728L35.8262 28.3714C35.9043 28.4495 35.9043 28.5761 35.8262 28.6543L33.4236 31.0569L35.8269 33.4601C35.905 33.5382 35.905 33.6649 35.8269 33.743L34.1283 35.4416C34.0502 35.5197 33.9235 35.5197 33.8454 35.4416L31.4421 33.0383L29.038 35.4425C28.9599 35.5206 28.8332 35.5206 28.7551 35.4425L27.0565 33.7439C26.9784 33.6658 26.9784 33.5391 27.0565 33.461L29.4607 31.0569L27.0572 28.6534Z" fill="#54B2D3"/>
</svg>
