<svg width="24" height="24" viewBox="0 0 24 24" fill="none" xmlns="http://www.w3.org/2000/svg">
<rect width="24" height="24" rx="12" fill="#5F37B6"/>
<path d="M17.6875 7.1875H6.3125C6.07051 7.1875 5.875 7.38301 5.875 7.625V16.375C5.875 16.617 6.07051 16.8125 6.3125 16.8125H17.6875C17.9295 16.8125 18.125 16.617 18.125 16.375V7.625C18.125 7.38301 17.9295 7.1875 17.6875 7.1875ZM16.5828 8.67637L12.2693 12.0328C12.1627 12.1162 12.0137 12.1162 11.907 12.0328L7.59219 8.67637C7.57592 8.66381 7.56399 8.64649 7.55807 8.62681C7.55215 8.60714 7.55253 8.58611 7.55916 8.56666C7.56579 8.54721 7.57835 8.53033 7.59506 8.51838C7.61177 8.50642 7.6318 8.5 7.65234 8.5H16.5227C16.5432 8.5 16.5632 8.50642 16.5799 8.51838C16.5967 8.53033 16.6092 8.54721 16.6158 8.56666C16.6225 8.58611 16.6229 8.60714 16.6169 8.62681C16.611 8.64649 16.5991 8.66381 16.5828 8.67637Z" fill="white"/>
</svg>
