<svg width="28" height="28" viewBox="0 0 28 28" fill="none" xmlns="http://www.w3.org/2000/svg">
<rect width="28" height="28" rx="14" fill="#FEA832"/>
<path d="M14 7.875C10.6176 7.875 7.875 10.6176 7.875 14C7.875 17.3824 10.6176 20.125 14 20.125C17.3824 20.125 20.125 17.3824 20.125 14C20.125 10.6176 17.3824 7.875 14 7.875ZM11.4748 16.6031C11.4475 16.6154 11.4146 16.6031 11.4023 16.5744C11.3969 16.5607 11.3969 16.5443 11.4023 16.5307L12.7518 13.4477L14.5578 15.2537L11.4748 16.6031ZM16.6031 11.4748L15.2537 14.5578L13.4477 12.7518L16.5307 11.4023C16.558 11.39 16.5908 11.4023 16.6031 11.4311C16.6086 11.4447 16.6086 11.4598 16.6031 11.4748Z" fill="white"/>
</svg>
