<svg width="28" height="28" viewBox="0 0 28 28" fill="none" xmlns="http://www.w3.org/2000/svg">
<rect width="28" height="28" rx="14" fill="#3D9588"/>
<path d="M9.99297 15.6994L10.5754 16.0631C10.5768 16.0645 10.5795 16.0658 10.5809 16.0672L10.7545 16.1766L10.7586 16.1807C11.1496 16.4067 11.5935 16.5251 12.0451 16.5238C12.659 16.5238 13.2373 16.3092 13.6994 15.925C14.3312 15.3953 15.1295 15.1053 15.9539 15.1061C16.6689 15.1061 17.3512 15.3207 17.9309 15.7145L18.0389 15.7828L16.5131 11.8316V9.4582H17.3813C17.4414 9.4582 17.4906 9.40898 17.4906 9.34883V8.64063C17.4906 8.58047 17.4414 8.53125 17.3813 8.53125H10.6191C10.559 8.53125 10.5098 8.58047 10.5098 8.64063V9.3502C10.5098 9.41035 10.559 9.45957 10.6191 9.45957H11.4873V11.833L9.99297 15.6994ZM14.5457 12.9227C14.8465 12.9227 15.0912 13.1674 15.0912 13.4682C15.0912 13.7689 14.8465 14.0137 14.5457 14.0137C14.2449 14.0137 14.0002 13.7689 14.0002 13.4682C14.0002 13.1674 14.2449 12.9227 14.5457 12.9227ZM19.0041 18.2807L18.5953 17.2225L17.4236 16.491L17.4223 16.4924C17.4127 16.4855 17.4018 16.4787 17.3922 16.4719L17.2814 16.4035L17.2773 16.3994C16.8809 16.1602 16.4256 16.033 15.9512 16.033C15.3373 16.033 14.759 16.2477 14.2969 16.6318C13.6651 17.1616 12.8668 17.4516 12.0424 17.4508C11.3178 17.4508 10.6273 17.2307 10.0436 16.8273L9.64844 16.5799L8.99629 18.2807C8.95801 18.3818 8.9375 18.4885 8.9375 18.5951C8.9375 19.0764 9.32852 19.4674 9.80977 19.4674H18.1893C18.2973 19.4674 18.4039 19.4469 18.5037 19.4086C18.6109 19.3677 18.7089 19.306 18.7921 19.2271C18.8753 19.1482 18.9421 19.0536 18.9887 18.9488C19.0352 18.8439 19.0605 18.7309 19.0631 18.6163C19.0658 18.5016 19.0457 18.3875 19.0041 18.2807Z" fill="white"/>
</svg>
