<svg width="14" height="14" viewBox="0 0 14 14" fill="none" xmlns="http://www.w3.org/2000/svg">
<rect x="0.5" y="0.5" width="13" height="13" rx="6.5" fill="#5F37B6" stroke="#3D3D46"/>
<g clip-path="url(#clip0)">
<path d="M9.48463 3.57031H4.51657C4.0184 3.57031 3.61328 3.98693 3.61328 4.49922V8.67931C3.61328 9.19161 4.0184 9.60822 4.51657 9.60822V10.5367C4.51657 10.6268 4.56715 10.7085 4.64664 10.7471C4.6769 10.7615 4.70987 10.7689 4.74239 10.7689C4.79433 10.7689 4.84581 10.7508 4.88691 10.715L6.17906 9.60822H9.48463C9.98279 9.60822 10.3879 9.19161 10.3879 8.67931V4.49922C10.3879 3.98693 9.98279 3.57031 9.48463 3.57031ZM5.19403 6.35704C5.56754 6.35704 5.87149 6.66962 5.87149 7.05372C5.87149 7.43783 5.56754 7.7504 5.19403 7.7504H4.74239C4.61773 7.7504 4.51657 7.64637 4.51657 7.51818C4.51657 7.38999 4.61773 7.28595 4.74239 7.28595H5.19403C5.31868 7.28595 5.41985 7.18191 5.41985 7.05372C5.41985 6.92553 5.31868 6.82149 5.19403 6.82149C4.82052 6.82149 4.51657 6.50892 4.51657 6.12481C4.51657 5.74071 4.82052 5.42813 5.19403 5.42813H5.64567C5.77032 5.42813 5.87149 5.53217 5.87149 5.66036C5.87149 5.78855 5.77032 5.89259 5.64567 5.89259H5.19403C5.06938 5.89259 4.96821 5.99662 4.96821 6.12481C4.96821 6.253 5.06938 6.35704 5.19403 6.35704ZM7.67806 7.51818C7.67806 7.64637 7.57689 7.7504 7.45224 7.7504C7.32759 7.7504 7.22642 7.64637 7.22642 7.51818V6.64407L7.20248 6.69331C7.1257 6.85076 6.87504 6.85076 6.79826 6.69331L6.77478 6.64407V7.51818C6.77478 7.64637 6.67361 7.7504 6.54895 7.7504C6.4243 7.7504 6.32313 7.64637 6.32313 7.51818V5.66036C6.32313 5.5526 6.3954 5.45878 6.49702 5.43417C6.59773 5.40909 6.70387 5.46018 6.75084 5.55632L7.0006 6.07001L7.25035 5.55678C7.29687 5.45971 7.4003 5.40955 7.50418 5.43417C7.60625 5.45878 7.67806 5.5526 7.67806 5.66036V7.51818ZM8.80716 6.35704C9.18067 6.35704 9.48463 6.66962 9.48463 7.05372C9.48463 7.43783 9.18067 7.7504 8.80716 7.7504H8.35552C8.23087 7.7504 8.1297 7.64637 8.1297 7.51818C8.1297 7.38999 8.23087 7.28595 8.35552 7.28595H8.80716C8.93137 7.28595 9.03299 7.18191 9.03299 7.05372C9.03299 6.92553 8.93137 6.82149 8.80716 6.82149C8.43366 6.82149 8.1297 6.50892 8.1297 6.12481C8.1297 5.74071 8.43366 5.42813 8.80716 5.42813H9.25881C9.38346 5.42813 9.48463 5.53217 9.48463 5.66036C9.48463 5.78855 9.38346 5.89259 9.25881 5.89259H8.80716C8.68296 5.89259 8.58134 5.99662 8.58134 6.12481C8.58134 6.253 8.68296 6.35704 8.80716 6.35704Z" fill="white"/>
</g>
<defs>
<clipPath id="clip0">
<rect width="7" height="7.19858" fill="white" transform="translate(3.5 3.57031)"/>
</clipPath>
</defs>
</svg>
