<svg width="14" height="14" viewBox="0 0 14 14" fill="none" xmlns="http://www.w3.org/2000/svg">
<rect x="0.5" y="0.5" width="13" height="13" rx="6.5" fill="#5F37B6" stroke="#3D3D46"/>
<g clip-path="url(#clip0)">
<path d="M9.84375 4.69531H4.15625C4.03525 4.69531 3.9375 4.79584 3.9375 4.92027V9.41938C3.9375 9.54381 4.03525 9.64434 4.15625 9.64434H9.84375C9.96475 9.64434 10.0625 9.54381 10.0625 9.41938V4.92027C10.0625 4.79584 9.96475 4.69531 9.84375 4.69531ZM9.29141 5.46086L7.13467 7.1867C7.08135 7.22958 7.00684 7.22958 6.95352 7.1867L4.79609 5.46086C4.78796 5.45441 4.782 5.4455 4.77903 5.43538C4.77607 5.42527 4.77626 5.41445 4.77958 5.40445C4.7829 5.39446 4.78917 5.38578 4.79753 5.37963C4.80588 5.37348 4.8159 5.37018 4.82617 5.37018H9.26133C9.2716 5.37018 9.28162 5.37348 9.28997 5.37963C9.29833 5.38578 9.3046 5.39446 9.30792 5.40445C9.31124 5.41445 9.31143 5.42527 9.30847 5.43538C9.3055 5.4455 9.29954 5.45441 9.29141 5.46086Z" fill="white"/>
</g>
<defs>
<clipPath id="clip0">
<rect width="7" height="7.19858" fill="white" transform="translate(3.5 3.57031)"/>
</clipPath>
</defs>
</svg>
