<svg width="14" height="14" viewBox="0 0 14 14" fill="none" xmlns="http://www.w3.org/2000/svg">
<rect x="0.5" y="0.5" width="13" height="13" rx="6.5" fill="#3D9588" stroke="#3D3D46"/>
<g clip-path="url(#clip0)">
<path d="M10.0618 3.57129C7.09702 3.57129 4.6584 5.91683 4.39999 8.89763C4.89261 8.18318 5.49607 7.49571 6.24945 6.70537C6.30545 6.64598 6.3982 6.64479 6.45566 6.70328C6.51312 6.76116 6.514 6.85625 6.4577 6.91534C6.34424 7.03412 6.22904 7.15739 6.11324 7.28217C6.04702 7.35326 5.98227 7.42405 5.9187 7.49363C5.90704 7.50652 5.89536 7.51943 5.8837 7.53262C4.9527 8.55781 4.28711 9.45013 3.80381 10.5584C3.77085 10.634 3.80381 10.7228 3.87702 10.7567C3.89656 10.7657 3.91669 10.7699 3.93681 10.7699C3.99252 10.7699 4.0459 10.7369 4.0701 10.6814C4.24219 10.287 4.44197 9.92104 4.66656 9.56501C6.70356 9.51131 8.55769 8.34604 9.52952 6.49182C9.55374 6.44532 9.55256 6.38924 9.52631 6.34364C9.49977 6.29865 9.45222 6.27076 9.4009 6.27076H8.86074L9.82936 5.70146C9.85999 5.68347 9.88361 5.65438 9.89499 5.62019C10.1026 4.99931 10.2076 4.36043 10.2076 3.72126C10.2076 3.63848 10.1423 3.57129 10.0618 3.57129Z" fill="white"/>
</g>
<defs>
<clipPath id="clip0">
<rect width="7" height="7.19858" fill="white" transform="translate(3.5 3.57129)"/>
</clipPath>
</defs>
</svg>
