<svg width="12" height="12" viewBox="0 0 12 12" fill="none" xmlns="http://www.w3.org/2000/svg">
  <path d="M0.53125 11.0312C0.53125 11.2732 0.726758 11.4688 0.96875 11.4688H11.0312C11.2732 11.4688 11.4688 11.2732 11.4688 11.0312V5.28906H0.53125V11.0312ZM11.0312 1.51562H8.73438V0.640625C8.73438 0.580469 8.68516 0.53125 8.625 0.53125H7.85938C7.79922 0.53125 7.75 0.580469 7.75 0.640625V1.51562H4.25V0.640625C4.25 0.580469 4.20078 0.53125 4.14062 0.53125H3.375C3.31484 0.53125 3.26562 0.580469 3.26562 0.640625V1.51562H0.96875C0.726758 1.51562 0.53125 1.71113 0.53125 1.95312V4.35938H11.4688V1.95312C11.4688 1.71113 11.2732 1.51562 11.0312 1.51562Z" fill="white"/>
</svg>
