<svg width="20" height="20" viewBox="0 0 20 20" fill="none" xmlns="http://www.w3.org/2000/svg">
  <rect width="20" height="20" rx="4" fill="#EEF7FB"/>
  <path d="M15.2139 13.9035L14.5049 11.4062V5.96875C14.5049 5.76133 14.3373 5.59375 14.1299 5.59375H5.87992C5.6725 5.59375 5.50492 5.76133 5.50492 5.96875V11.4062L4.79594 13.9035C4.70805 14.1484 4.88851 14.4062 5.14867 14.4062H14.8612C15.1213 14.4062 15.3018 14.1484 15.2139 13.9035ZM6.34867 6.4375H13.6612V11.0664H6.34867V6.4375ZM9.02406 13.5625L9.11898 13.1289H10.8803L10.9752 13.5625H9.02406ZM11.6491 13.5625L11.4252 12.5465C11.4159 12.5031 11.3772 12.4727 11.3338 12.4727H8.66664C8.62211 12.4727 8.58461 12.5031 8.57523 12.5465L8.3514 13.5625H5.76976L6.26547 11.8164H13.7444L14.2401 13.5625H11.6491Z" fill="#54B2D3"/>
</svg>
