<svg width="14" height="14" viewBox="0 0 14 14" fill="none" xmlns="http://www.w3.org/2000/svg">
    <path d="M7.25068 11.0863L3.44676 11.6299L3.34409 11.0489L1.79712 2.28145L8.31235 1.19587L11.7231 0.627699L12.8378 6.76144C12.8664 6.92011 13.0222 7.02511 13.1773 6.99594C13.3354 6.96736 13.4404 6.81511 13.4118 6.65701L12.2452 0.240375C12.216 0.0834497 12.0643 -0.0226985 11.9103 0.00469987L8.25111 0.614273L0.899369 0.00177409C0.815369 -0.00755011 0.742444 0.0204498 0.683545 0.0723482C0.624046 0.123672 0.58787 0.197172 0.583796 0.275922L0.000472592 10.7759C-0.00827739 10.9305 0.105472 11.0652 0.258898 11.0822L2.80747 11.3657L2.92122 12.0096C2.94572 12.1508 3.06879 12.2506 3.20764 12.2506C3.22107 12.2506 3.23564 12.25 3.24907 12.2476L7.33238 11.6643C7.49163 11.6416 7.60306 11.494 7.58031 11.3342C7.55756 11.1743 7.40703 11.0641 7.25068 11.0863Z" fill="white"/>
    <path d="M7.66721 12.3339C7.61238 12.3887 7.58203 12.4628 7.58203 12.5404V13.7071C7.58203 13.8681 7.71271 13.9988 7.87371 13.9988H9.04038C9.11795 13.9988 9.19205 13.9678 9.24688 13.9136L12.5404 10.6201L10.9613 9.04102L7.66721 12.3339Z" fill="white"/>
    <path d="M13.9143 8.83597L12.7476 7.6693C12.6339 7.55555 12.4489 7.55555 12.3352 7.6693L11.375 8.62947L12.9541 10.2085L13.9143 9.24837C14.028 9.13462 14.028 8.9503 13.9143 8.83597Z" fill="white"/>
</svg>
