<svg width="24" height="24" viewBox="0 0 24 24"  fill="none" xmlns="http://www.w3.org/2000/svg">
  <path d="M0 12C0 5.37258 5.37258 0 12 0C18.6274 0 24 5.37258 24 12C24 18.6274 18.6274 24 12 24C5.37258 24 0 18.6274 0 12Z" stroke="" fill="#fff"/>
  <path d="M16.2417 12.666H15.3865C15.3283 12.666 15.2736 12.6921 15.2394 12.7348L11.9996 16.8139L8.75977 12.7348C8.72556 12.6921 8.67083 12.666 8.61267 12.666H7.75739C7.68327 12.666 7.63993 12.7431 7.68327 12.7983L11.7042 17.8618C11.8502 18.0452 12.149 18.0452 12.2938 17.8618L16.3147 12.7983C16.3592 12.7431 16.3159 12.666 16.2417 12.666Z" fill="#9292A3"/>
  <path d="M16.2417 11.334H15.3865C15.3283 11.334 15.2736 11.3079 15.2394 11.2652L11.9996 7.18607L8.75977 11.2652C8.72556 11.3079 8.67083 11.334 8.61267 11.334H7.75739C7.68327 11.334 7.63993 11.2569 7.68327 11.2017L11.7042 6.13815C11.8502 5.95482 12.149 5.95482 12.2938 6.13815L16.3147 11.2017C16.3592 11.2569 16.3159 11.334 16.2417 11.334Z" fill="#9292A3"/>
</svg>
