<svg width="24" height="24" viewBox="0 0 24 24" fill="none" xmlns="http://www.w3.org/2000/svg">
<path d="M0 12C0 5.37258 5.37258 0 12 0C18.6274 0 24 5.37258 24 12C24 18.6274 18.6274 24 12 24C5.37258 24 0 18.6274 0 12Z" fill="white"/>
<path d="M9.625 6.875H9.5C9.56875 6.875 9.625 6.81875 9.625 6.75V6.875H14.375V6.75C14.375 6.81875 14.4312 6.875 14.5 6.875H14.375V8H15.5V6.75C15.5 6.19844 15.0516 5.75 14.5 5.75H9.5C8.94844 5.75 8.5 6.19844 8.5 6.75V8H9.625V6.875ZM17.5 8H6.5C6.22344 8 6 8.22344 6 8.5V9C6 9.06875 6.05625 9.125 6.125 9.125H7.06875L7.45469 17.2969C7.47969 17.8297 7.92031 18.25 8.45312 18.25H15.5469C16.0813 18.25 16.5203 17.8313 16.5453 17.2969L16.9312 9.125H17.875C17.9438 9.125 18 9.06875 18 9V8.5C18 8.22344 17.7766 8 17.5 8ZM15.4266 17.125H8.57344L8.19531 9.125H15.8047L15.4266 17.125Z" fill="#9292A3"/>
<path d="M12 23C5.92487 23 1 18.0751 1 12H-1C-1 19.1797 4.8203 25 12 25V23ZM23 12C23 18.0751 18.0751 23 12 23V25C19.1797 25 25 19.1797 25 12H23ZM12 1C18.0751 1 23 5.92487 23 12H25C25 4.8203 19.1797 -1 12 -1V1ZM12 -1C4.8203 -1 -1 4.8203 -1 12H1C1 5.92487 5.92487 1 12 1V-1Z" fill="#ECEDF0"/>
</svg>
