<svg width="12" height="12" viewBox="0 0 12 12" fill="none" xmlns="http://www.w3.org/2000/svg">
  <path d="M10.481 3.1545C10.4685 3.12349 10.45 3.096 10.4265 3.07301L7.42699 0.0735C7.404 0.0505078 7.37599 0.0319922 7.3455 0.0190078C7.31501 0.00649219 7.2825 0 7.24999 0H2.25C1.83649 0 1.5 0.336492 1.5 0.75V11.25C1.5 11.6635 1.83649 12 2.25 12H9.75C10.1635 12 10.5 11.6635 10.5 11.25V3.25001C10.5 3.2175 10.4935 3.18499 10.481 3.1545ZM7.75001 3C7.6125 3 7.5 2.88799 7.5 2.74999V0.8535L9.6465 3H7.75001Z" fill="white"/>
</svg>
