<svg width="10" height="10" viewBox="0 0 10 10" fill="none" xmlns="http://www.w3.org/2000/svg">
  <path d="M5.00105 4.61538C6.27556 4.61538 7.30875 3.5822 7.30875 2.30769C7.30875 1.03319 6.27556 0 5.00105 0C3.72655 0 2.69336 1.03319 2.69336 2.30769C2.69336 3.5822 3.72655 4.61538 5.00105 4.61538Z" fill="#9292A3"/>
  <path d="M9.48092 7.01528C6.88477 4.83605 3.11477 4.83605 0.518612 7.01528C0.433996 7.08682 0.384766 7.19144 0.384766 7.30297C0.384766 7.67451 0.384766 8.57297 0.384766 9.23067C0.384766 9.65528 0.729381 9.99913 1.154 9.99913H8.8463C9.27092 9.99913 9.61553 9.65528 9.61553 9.23067V7.45374C9.61553 7.19144 9.5663 7.08682 9.48092 7.01528Z" fill="#9292A3"/>
</svg>
