<svg width="16" height="16" viewBox="0 0 16 16" fill="none" xmlns="http://www.w3.org/2000/svg">
  <g clip-path="url(#clip0)">
    <path d="M8.00012 5.50061H10.0002V2.50056C10.0002 2.29356 10.1272 2.10856 10.3202 2.03456C10.5112 1.95856 10.7312 2.01056 10.8702 2.16456L15.8702 7.66465C16.0433 7.85565 16.0433 8.14665 15.8702 8.33766L10.8702 13.8377C10.7732 13.9427 10.6382 14.0007 10.5002 14.0007C10.4392 14.0007 10.3782 13.9897 10.3202 13.9677C10.1272 13.8927 10.0002 13.7077 10.0002 13.5007V10.5007H8.95014C5.89209 10.5007 3.01705 11.6917 0.854013 13.8547C0.710011 13.9987 0.494008 14.0407 0.309005 13.9627C0.122002 13.8857 0 13.7027 0 13.5007C0 9.08967 3.58906 5.50061 8.00012 5.50061Z" fill="#9292A3"/>
  </g>
  <defs>
    <clipPath id="clip0">
      <rect width="16" height="16" fill="white" transform="matrix(-1 0 0 1 16 0)"/>
    </clipPath>
  </defs>
</svg>
