<svg width="14" height="14" viewBox="0 0 14 14" fill="none" xmlns="http://www.w3.org/2000/svg">
    <path d="M7.88083 4.92917C7.68833 4.64333 7.58333 4.305 7.58333 3.955V1.16667C7.90417 1.16667 8.16667 0.904167 8.16667 0.583333C8.16667 0.2625 7.90417 0 7.58333 0H4.08333C3.7625 0 3.5 0.2625 3.5 0.583333C3.5 0.904167 3.7625 1.16667 4.08333 1.16667V3.955C4.08333 4.305 3.97833 4.64333 3.78583 4.92917L0.443333 9.91667C0.151667 10.3483 0 10.85 0 11.375C0 12.8217 1.17833 14 2.625 14H6.0725C5.775 13.6675 5.5475 13.2708 5.4075 12.8333H2.625C1.82 12.8333 1.16667 12.18 1.16667 11.375C1.16667 11.0833 1.25417 10.8033 1.41167 10.5642L4.75417 5.5825C5.08083 5.09833 5.25 4.53833 5.25 3.955V1.16667H6.41667V3.955C6.41667 4.53833 6.58583 5.09833 6.9125 5.5825L8.18417 7.48417L9.03 6.63833L7.88083 4.92917Z" fill="white"/>
    <path d="M11.8118 6.41602C11.2268 6.41602 10.6778 6.6441 10.2654 7.0571L7.0571 10.2654C6.6441 10.6778 6.41602 11.2273 6.41602 11.8118C6.41602 13.0182 7.39777 13.9993 8.60352 13.9993C9.1886 13.9993 9.73752 13.7712 10.1505 13.3582L13.3583 10.1505C13.7713 9.73751 13.9993 9.18801 13.9993 8.60351C13.9993 7.39718 13.0176 6.41602 11.8118 6.41602ZM9.3251 12.5334C9.1326 12.7265 8.87652 12.8327 8.60352 12.8327C8.0406 12.8327 7.58268 12.3748 7.58268 11.8118C7.58268 11.5394 7.68885 11.2828 7.88193 11.0903L9.07368 9.89851L10.5174 11.3423L9.3251 12.5334ZM12.5334 9.32509L11.3417 10.5168L9.89852 9.07368L11.0908 7.88135C11.2828 7.68885 11.5388 7.58268 11.8118 7.58268C12.3748 7.58268 12.8327 8.0406 12.8327 8.60351C12.8327 8.87593 12.7265 9.13259 12.5334 9.32509Z" fill="white"/>
</svg>
