<svg width="14" height="14" viewBox="0 0 14 14" fill="none" xmlns="http://www.w3.org/2000/svg">
    <path d="M12.5358 0.105052C12.4483 0.0525521 12.355 0.0117188 12.25 0.0117188H3.92L5.08667 1.17839H10.1208C9.9925 1.44672 9.91667 1.73839 9.91667 2.05339V11.9467C9.91667 12.4309 9.52583 12.8217 9.04167 12.8217C8.5575 12.8217 8.16667 12.4309 8.16667 11.9467V10.5117C8.16667 10.1909 7.90417 9.92839 7.58333 9.92839H2.33333V6.23589L1.16667 5.06922V9.92839H0.583333C0.2625 9.92839 0 10.1909 0 10.5117V12.2384C0 13.2009 0.7875 13.9884 1.75 13.9884H9.04167C9.60167 13.9884 10.115 13.7609 10.4825 13.3876C10.8558 13.0201 11.0833 12.5067 11.0833 11.9467V3.51172H13.4167C13.7375 3.51172 14 3.24922 14 2.92839V2.05339C14 1.13172 13.3817 0.355885 12.5358 0.105052Z" fill="white"/>
    <path d="M7.14518 7.5829C7.11659 7.5829 7.08801 7.57998 7.05943 7.57415L5.01601 7.16581C4.93084 7.1489 4.85326 7.10748 4.79259 7.04623L0.296844 2.55048C-0.0992396 2.1544 -0.0986562 1.50981 0.296844 1.11431L1.11409 0.297063C1.50959 -0.0990208 2.15359 -0.0990208 2.54968 0.297063L7.04543 4.7934C7.10668 4.85406 7.14809 4.93223 7.16501 5.01681L7.57393 7.06023C7.60251 7.20373 7.55759 7.3519 7.45434 7.45515C7.37151 7.5374 7.26009 7.5829 7.14518 7.5829Z" fill="white"/>
</svg>
