<svg width="14" height="14" viewBox="0 0 14 14" fill="none" xmlns="http://www.w3.org/2000/svg">
  <path d="M12.25 0H1.75C0.785167 0 0 0.785167 0 1.75V12.25C0 13.2148 0.785167 14 1.75 14H12.25C13.2148 14 14 13.2148 14 12.25V1.75C14 0.785167 13.2148 0 12.25 0ZM11.6667 7.4375C11.6667 8.00042 11.2087 8.45833 10.6458 8.45833H8.45833V10.6458C8.45833 11.2087 8.00042 11.6667 7.4375 11.6667H6.5625C5.99958 11.6667 5.54167 11.2087 5.54167 10.6458V8.45833H3.35417C2.79125 8.45833 2.33333 8.00042 2.33333 7.4375V6.5625C2.33333 5.99958 2.79125 5.54167 3.35417 5.54167H5.54167V3.35417C5.54167 2.79125 5.99958 2.33333 6.5625 2.33333H7.4375C8.00042 2.33333 8.45833 2.79125 8.45833 3.35417V5.54167H10.6458C11.2087 5.54167 11.6667 5.99958 11.6667 6.5625V7.4375Z" fill="white"/>
</svg>
