<svg width="14" height="14" viewBox="0 0 14 14" fill="none" xmlns="http://www.w3.org/2000/svg">
  <path d="M4.37563 2.33332H9.62563C9.78662 2.33332 9.9173 2.20265 9.9173 2.04165V1.45832C9.9173 0.975898 9.52473 0.583324 9.0423 0.583324H8.00748C7.80155 0.2275 7.41945 0 7.00063 0C6.5818 0 6.1997 0.2275 5.99381 0.583324H4.95898C4.47656 0.583324 4.08398 0.975898 4.08398 1.45832V2.04165C4.08396 2.20268 4.21463 2.33332 4.37563 2.33332Z" fill="white"/>
  <path d="M11.375 1.16604H10.7917C10.6307 1.16604 10.5 1.29672 10.5 1.45772V2.04104C10.5 2.52347 10.1074 2.91604 9.625 2.91604H4.375C3.89257 2.91604 3.5 2.52347 3.5 2.04104V1.45769C3.5 1.29669 3.36932 1.16602 3.20832 1.16602H2.625C2.14257 1.16602 1.75 1.55859 1.75 2.04102V13.1244C1.75 13.6068 2.14257 13.9994 2.625 13.9994H11.375C11.8574 13.9994 12.25 13.6068 12.25 13.1244V2.04104C12.25 1.55862 11.8574 1.16604 11.375 1.16604ZM3.79168 11.9577C3.47025 11.9577 3.20835 11.6958 3.20835 11.3744C3.20835 11.0529 3.47028 10.791 3.79168 10.791C4.1131 10.791 4.375 11.053 4.375 11.3744C4.375 11.6958 4.11307 11.9577 3.79168 11.9577ZM3.79168 9.62437C3.47025 9.62437 3.20835 9.36244 3.20835 9.04104C3.20835 8.71964 3.47028 8.45772 3.79168 8.45772C4.1131 8.45772 4.375 8.71964 4.375 9.04104C4.375 9.36244 4.11307 9.62437 3.79168 9.62437ZM3.79168 7.29104C3.47025 7.29104 3.20835 7.02912 3.20835 6.70772C3.20835 6.38629 3.47028 6.12439 3.79168 6.12439C4.1131 6.12439 4.375 6.38632 4.375 6.70772C4.375 7.02912 4.11307 7.29104 3.79168 7.29104ZM3.79168 4.95769C3.47025 4.95769 3.20835 4.69577 3.20835 4.37437C3.20835 4.05297 3.47028 3.79104 3.79168 3.79104C4.1131 3.79104 4.375 4.05297 4.375 4.37437C4.375 4.69577 4.11307 4.95769 3.79168 4.95769ZM7.875 11.666H5.54168C5.38068 11.666 5.25 11.5354 5.25 11.3744C5.25 11.2134 5.38068 11.0827 5.54168 11.0827H7.875C8.036 11.0827 8.16668 11.2134 8.16668 11.3744C8.16668 11.5354 8.036 11.666 7.875 11.666ZM10.7917 9.33269H5.54168C5.38068 9.33269 5.25 9.20202 5.25 9.04102C5.25 8.88002 5.38068 8.74937 5.54168 8.74937H10.7917C10.9527 8.74937 11.0834 8.88004 11.0834 9.04104C11.0834 9.20204 10.9527 9.33269 10.7917 9.33269ZM10.7917 6.99937H5.54168C5.38068 6.99937 5.25 6.86869 5.25 6.70769C5.25 6.54669 5.38068 6.41602 5.54168 6.41602H10.7917C10.9527 6.41602 11.0834 6.54669 11.0834 6.70769C11.0834 6.86869 10.9527 6.99937 10.7917 6.99937ZM10.7917 4.66604H5.54168C5.38068 4.66604 5.25 4.53537 5.25 4.37437C5.25 4.21337 5.38068 4.08269 5.54168 4.08269H10.7917C10.9527 4.08269 11.0834 4.21337 11.0834 4.37437C11.0834 4.53537 10.9527 4.66604 10.7917 4.66604Z" fill="white"/>
</svg>
