<svg width="13" height="14" viewBox="0 0 13 14" fill="none" xmlns="http://www.w3.org/2000/svg">
  <path fill-rule="evenodd" clip-rule="evenodd" d="M0.728516 4.37565C0.728516 3.4897 1.44673 2.77148 2.33268 2.77148H8.16602C9.05198 2.77148 9.77018 3.4897 9.77018 4.37565V5.54232C9.77018 5.78394 9.5743 5.97982 9.33268 5.97982C9.09107 5.97982 8.89518 5.78394 8.89518 5.54232V4.37565C8.89518 3.97294 8.56875 3.64648 8.16602 3.64648H2.33268C1.92997 3.64648 1.60352 3.97294 1.60352 4.37565V10.209C1.60352 10.6117 1.92997 10.9382 2.33268 10.9382H4.66602C4.90764 10.9382 5.10352 11.134 5.10352 11.3757C5.10352 11.6173 4.90764 11.8132 4.66602 11.8132H2.33268C1.44673 11.8132 0.728516 11.095 0.728516 10.209V4.37565Z" fill="white"/>
  <path fill-rule="evenodd" clip-rule="evenodd" d="M1.89453 2.04166C1.89453 1.15571 2.61274 0.4375 3.4987 0.4375H6.9987C7.88467 0.4375 8.60287 1.15571 8.60287 2.04166V3.20833C8.60287 3.44995 8.40698 3.64583 8.16537 3.64583H2.33203C2.09041 3.64583 1.89453 3.44995 1.89453 3.20833V2.04166ZM3.4987 1.3125C3.09599 1.3125 2.76953 1.63896 2.76953 2.04166V2.77083H7.72787V2.04166C7.72787 1.63896 7.40143 1.3125 6.9987 1.3125H3.4987Z" fill="white"/>
  <path fill-rule="evenodd" clip-rule="evenodd" d="M1.16602 5.10352C0.924393 5.10352 0.728516 5.29939 0.728516 5.54102V9.04101C0.728516 9.28263 0.924393 9.47851 1.16602 9.47851H4.08268C4.96864 9.47851 5.68685 8.76031 5.68685 7.87435V6.70768C5.68685 5.82173 4.96864 5.10352 4.08268 5.10352H1.16602Z" fill="white"/>
  <path fill-rule="evenodd" clip-rule="evenodd" d="M8.45768 6.85352C7.89389 6.85352 7.43685 7.31056 7.43685 7.87435V8.31185H6.99935C6.43556 8.31185 5.97852 8.76889 5.97852 9.33268V11.0827C5.97852 11.6465 6.43556 12.1035 6.99935 12.1035H7.43685V12.541C7.43685 13.1048 7.89389 13.5618 8.45768 13.5618H10.2077C10.7715 13.5618 11.2285 13.1048 11.2285 12.541V12.1035H11.666C12.2298 12.1035 12.6868 11.6465 12.6868 11.0827V9.33268C12.6868 8.76889 12.2298 8.31185 11.666 8.31185H11.2285V7.87435C11.2285 7.31056 10.7715 6.85352 10.2077 6.85352H8.45768Z" fill="white"/>
</svg>
