<svg width="16" height="16" viewBox="0 0 16 16" fill="none" xmlns="http://www.w3.org/2000/svg">
  <path d="M12.9039 4.74016V1.33301H3.0953V4.74016L0.852539 6.34211V14.6657H15.1467V6.34211L12.9039 4.74016ZM5.93345 10.4023L1.69009 13.4332V7.37138L5.93345 10.4023ZM7.9996 9.95578L13.4211 13.8282H2.57811L7.9996 9.95578ZM10.0658 10.4023L14.3091 7.37138V13.4332L10.0658 10.4023ZM14.0074 6.55761L12.9039 7.3458V5.76942L14.0074 6.55761ZM12.0663 2.17056V7.94406L9.34526 9.88768L7.9996 8.92651L6.65394 9.88768L3.93285 7.94406V2.17056H12.0663ZM3.0953 7.34583L1.9918 6.55764L3.0953 5.76945V7.34583Z" fill="#9292A3"/>
  <path d="M5.11719 3.25488H8.00066V4.09243H5.11719V3.25488Z" fill="#9292A3"/>
  <path d="M5.11719 5.17773H10.8841V6.01528H5.11719V5.17773Z" fill="#9292A3"/>
  <path d="M5.11719 7.09961H10.8841V7.93716H5.11719V7.09961Z" fill="#9292A3"/>
</svg>
