<svg width="12" height="12" viewBox="0 0 12 12" fill="none" xmlns="http://www.w3.org/2000/svg">
  <path d="M5.25 3.75V3H0.75C0.33675 3 0 3.33675 0 3.75V5.25H5.40825C5.304 4.79175 5.25 4.29825 5.25 3.75Z" fill="white"/>
  <path d="M11.9692 6.75C11.4577 7.53825 10.6777 8.20875 9.56025 8.85075C9.3885 8.949 9.195 9 9 9C8.805 9 8.6115 8.949 8.442 8.85225C7.3245 8.20875 6.5445 7.5375 6.03225 6.75H0V10.5C0 10.914 0.33675 11.25 0.75 11.25H11.25C11.664 11.25 12 10.914 12 10.5V6.75H11.9692ZM3.375 9H1.875C1.668 9 1.5 8.832 1.5 8.625C1.5 8.418 1.668 8.25 1.875 8.25H3.375C3.582 8.25 3.75 8.418 3.75 8.625C3.75 8.832 3.582 9 3.375 9Z" fill="white"/>
  <path d="M11.7727 1.90538L9.14775 0.780375C9.0525 0.739875 8.94675 0.739875 8.8515 0.780375L6.2265 1.90538C6.08925 1.96388 6 2.09962 6 2.24962V3.74962C6 5.81287 6.76275 7.01888 8.81325 8.20013C8.871 8.23313 8.9355 8.24963 9 8.24963C9.0645 8.24963 9.129 8.23313 9.18675 8.20013C11.2372 7.02188 12 5.81588 12 3.74962V2.24962C12 2.09962 11.9107 1.96388 11.7727 1.90538ZM10.4183 3.60937L8.91825 5.48438C8.84625 5.57288 8.73825 5.62463 8.625 5.62463C8.61975 5.62463 8.61375 5.62463 8.60925 5.62463C8.49 5.61938 8.37975 5.55788 8.313 5.45813L7.563 4.33313C7.44825 4.16063 7.49475 3.92813 7.66725 3.81338C7.83825 3.69938 8.0715 3.74438 8.187 3.91763L8.65275 4.61588L9.83175 3.14137C9.9615 2.98012 10.1978 2.95463 10.359 3.08288C10.521 3.21113 10.5465 3.44737 10.4183 3.60937Z" fill="white"/>
</svg>
