<svg width="12" height="12" viewBox="0 0 12 12" fill="none" xmlns="http://www.w3.org/2000/svg">
    <path d="M3.12471 9.7508C2.32421 9.7508 1.61221 9.2383 1.35371 8.4753L1.33621 8.4178C1.27521 8.2158 1.24971 8.0458 1.24971 7.8758V4.4668L0.0367057 8.5158C-0.119294 9.1113 0.236206 9.7288 0.832706 9.8933L8.56421 11.9638C8.66071 11.9888 8.75721 12.0008 8.85221 12.0008C9.35021 12.0008 9.80521 11.6703 9.9327 11.1833L10.3832 9.7508H3.12471Z" fill="white"/>
    <path d="M4.5 4.5C5.0515 4.5 5.5 4.0515 5.5 3.5C5.5 2.9485 5.0515 2.5 4.5 2.5C3.9485 2.5 3.5 2.9485 3.5 3.5C3.5 4.0515 3.9485 4.5 4.5 4.5Z" fill="white"/>
    <path d="M10.75 1H3.25C2.561 1 2 1.561 2 2.25V7.75C2 8.439 2.561 9 3.25 9H10.75C11.439 9 12 8.439 12 7.75V2.25C12 1.561 11.439 1 10.75 1ZM3.25 2H10.75C10.888 2 11 2.112 11 2.25V5.7995L9.4205 3.9565C9.253 3.76 9.0105 3.655 8.75 3.649C8.491 3.6505 8.248 3.7655 8.082 3.9645L6.225 6.1935L5.62 5.59C5.278 5.248 4.7215 5.248 4.38 5.59L3 6.9695V2.25C3 2.112 3.112 2 3.25 2Z" fill="white"/>
</svg>
