<svg width="16" height="16" viewBox="0 0 16 16" fill="none" xmlns="http://www.w3.org/2000/svg">
  <path d="M7.99988 5.50061H5.99984V2.50056C5.99984 2.29356 5.87284 2.10856 5.67984 2.03456C5.48884 1.95856 5.26883 2.01056 5.12983 2.16456L0.129752 7.66465C-0.0432507 7.85565 -0.0432507 8.14665 0.129752 8.33766L5.12983 13.8377C5.22683 13.9427 5.36183 14.0007 5.49984 14.0007C5.56084 14.0007 5.62184 13.9897 5.67984 13.9677C5.87284 13.8927 5.99984 13.7077 5.99984 13.5007V10.5007H7.04986C10.1079 10.5007 12.983 11.6917 15.146 13.8547C15.29 13.9987 15.506 14.0407 15.691 13.9627C15.878 13.8857 16 13.7027 16 13.5007C16 9.08967 12.4109 5.50061 7.99988 5.50061Z" fill="#9292A3"/>
</svg>
