<svg width="24" height="24" viewBox="0 0 24 24" fill="none" xmlns="http://www.w3.org/2000/svg">
<path d="M0 12C0 5.37258 5.37258 0 12 0C18.6274 0 24 5.37258 24 12C24 18.6274 18.6274 24 12 24C5.37258 24 0 18.6274 0 12Z" fill="white"/>
<path d="M15.75 14.375C15.3047 14.375 14.8937 14.5312 14.5719 14.7922L11.3344 12.45C11.3886 12.1524 11.3886 11.8476 11.3344 11.55L14.5719 9.20781C14.8937 9.46875 15.3047 9.625 15.75 9.625C16.7844 9.625 17.625 8.78437 17.625 7.75C17.625 6.71563 16.7844 5.875 15.75 5.875C14.7156 5.875 13.875 6.71563 13.875 7.75C13.875 7.93125 13.9 8.10469 13.9484 8.27031L10.8734 10.4969C10.4172 9.89219 9.69219 9.5 8.875 9.5C7.49375 9.5 6.375 10.6188 6.375 12C6.375 13.3812 7.49375 14.5 8.875 14.5C9.69219 14.5 10.4172 14.1078 10.8734 13.5031L13.9484 15.7297C13.9 15.8953 13.875 16.0703 13.875 16.25C13.875 17.2844 14.7156 18.125 15.75 18.125C16.7844 18.125 17.625 17.2844 17.625 16.25C17.625 15.2156 16.7844 14.375 15.75 14.375ZM15.75 6.9375C16.1984 6.9375 16.5625 7.30156 16.5625 7.75C16.5625 8.19844 16.1984 8.5625 15.75 8.5625C15.3016 8.5625 14.9375 8.19844 14.9375 7.75C14.9375 7.30156 15.3016 6.9375 15.75 6.9375ZM8.875 13.375C8.11719 13.375 7.5 12.7578 7.5 12C7.5 11.2422 8.11719 10.625 8.875 10.625C9.63281 10.625 10.25 11.2422 10.25 12C10.25 12.7578 9.63281 13.375 8.875 13.375ZM15.75 17.0625C15.3016 17.0625 14.9375 16.6984 14.9375 16.25C14.9375 15.8016 15.3016 15.4375 15.75 15.4375C16.1984 15.4375 16.5625 15.8016 16.5625 16.25C16.5625 16.6984 16.1984 17.0625 15.75 17.0625Z" fill="#9292A3"/>
<path d="M12 23C5.92487 23 1 18.0751 1 12H-1C-1 19.1797 4.8203 25 12 25V23ZM23 12C23 18.0751 18.0751 23 12 23V25C19.1797 25 25 19.1797 25 12H23ZM12 1C18.0751 1 23 5.92487 23 12H25C25 4.8203 19.1797 -1 12 -1V1ZM12 -1C4.8203 -1 -1 4.8203 -1 12H1C1 5.92487 5.92487 1 12 1V-1Z" fill="#ECEDF0"/>
</svg>
