<svg width="12" height="12" viewBox="0 0 12 12" fill="none" xmlns="http://www.w3.org/2000/svg">
  <path d="M10.2585 0H1.74185C0.887856 0 0.193359 0.694496 0.193359 1.54849V8.51668C0.193359 9.37067 0.887856 10.0652 1.74185 10.0652V11.6129C1.74185 11.7631 1.82856 11.8993 1.96483 11.9636C2.0167 11.9876 2.07322 12 2.12897 12C2.21801 12 2.30627 11.9698 2.37673 11.9102L4.59184 10.0652H10.2585C11.1125 10.0652 11.807 9.37067 11.807 8.51668V1.54849C11.807 0.694496 11.1125 0 10.2585 0ZM2.90321 4.64546C3.54351 4.64546 4.06458 5.16653 4.06458 5.80683C4.06458 6.44713 3.54351 6.96819 2.90321 6.96819H2.12897C1.91528 6.96819 1.74185 6.79476 1.74185 6.58107C1.74185 6.36738 1.91528 6.19395 2.12897 6.19395H2.90321C3.1169 6.19395 3.29033 6.02052 3.29033 5.80683C3.29033 5.59314 3.1169 5.4197 2.90321 5.4197C2.26291 5.4197 1.74185 4.89864 1.74185 4.25834C1.74185 3.61804 2.26291 3.09697 2.90321 3.09697H3.67746C3.89115 3.09697 4.06458 3.2704 4.06458 3.4841C4.06458 3.69779 3.89115 3.87122 3.67746 3.87122H2.90321C2.68952 3.87122 2.51609 4.04465 2.51609 4.25834C2.51609 4.47203 2.68952 4.64546 2.90321 4.64546ZM7.16155 6.58107C7.16155 6.79476 6.98812 6.96819 6.77443 6.96819C6.56074 6.96819 6.38731 6.79476 6.38731 6.58107V5.12394L6.34627 5.20601C6.21465 5.46848 5.78495 5.46848 5.65332 5.20601L5.61306 5.12394V6.58107C5.61306 6.79476 5.43963 6.96819 5.22594 6.96819C5.01225 6.96819 4.83882 6.79476 4.83882 6.58107V3.4841C4.83882 3.30447 4.9627 3.14807 5.1369 3.10704C5.30956 3.06523 5.49151 3.1504 5.57203 3.31067L6.00019 4.16698L6.42834 3.31144C6.50809 3.14962 6.68539 3.066 6.86347 3.10704C7.03845 3.14807 7.16155 3.30447 7.16155 3.4841V6.58107ZM9.09716 4.64546C9.73746 4.64546 10.2585 5.16653 10.2585 5.80683C10.2585 6.44713 9.73746 6.96819 9.09716 6.96819H8.32292C8.10923 6.96819 7.93579 6.79476 7.93579 6.58107C7.93579 6.36738 8.10923 6.19395 8.32292 6.19395H9.09716C9.31008 6.19395 9.48428 6.02052 9.48428 5.80683C9.48428 5.59314 9.31008 5.4197 9.09716 5.4197C8.45686 5.4197 7.93579 4.89864 7.93579 4.25834C7.93579 3.61804 8.45686 3.09697 9.09716 3.09697H9.8714C10.0851 3.09697 10.2585 3.2704 10.2585 3.4841C10.2585 3.69779 10.0851 3.87122 9.8714 3.87122H9.09716C8.88424 3.87122 8.71004 4.04465 8.71004 4.25834C8.71004 4.47203 8.88424 4.64546 9.09716 4.64546Z" fill="white"/>
</svg>
