<svg width="12" height="12" viewBox="0 0 12 12" fill="none" xmlns="http://www.w3.org/2000/svg">
    <path d="M11.8087 9.26711L7.222 1.3227C6.96695 0.880953 6.51013 0.617188 5.99999 0.617188C5.48988 0.617188 5.03303 0.880953 4.77799 1.3227L0.191302 9.26708C-0.0637675 9.70888 -0.0637675 10.2364 0.191302 10.6781C0.446372 11.1199 0.903168 11.3836 1.41331 11.3836H10.5867C11.0968 11.3836 11.5536 11.1199 11.8087 10.6782C12.0638 10.2364 12.0638 9.70888 11.8087 9.26711ZM11.1999 10.3266C11.0719 10.5483 10.8426 10.6806 10.5867 10.6806H1.41331C1.15732 10.6806 0.928106 10.5483 0.800137 10.3266C0.672169 10.105 0.672169 9.84032 0.800137 9.61864L5.38687 1.67424C5.51484 1.45257 5.74406 1.32024 6.00002 1.32024C6.25595 1.32024 6.4852 1.45257 6.61316 1.67424L11.1999 9.61864C11.3278 9.84032 11.3278 10.105 11.1999 10.3266Z" fill="white"/>
    <path d="M6.35147 4.125H5.64844V7.6402H6.35147V4.125Z" fill="white"/>
    <path d="M5.99996 8.34375C5.74151 8.34375 5.53125 8.55401 5.53125 8.81245C5.53125 9.0709 5.74151 9.28115 5.99996 9.28115C6.25838 9.28115 6.46866 9.0709 6.46866 8.81245C6.46866 8.55401 6.2584 8.34375 5.99996 8.34375Z" fill="white"/>
</svg>
