<svg width="12" height="14" viewBox="0 0 12 14" fill="none" xmlns="http://www.w3.org/2000/svg">
  <path d="M11.1562 6.09375C11.1562 6.025 11.1 5.96875 11.0312 5.96875H10.0938C10.025 5.96875 9.96875 6.025 9.96875 6.09375C9.96875 8.28594 8.19219 10.0625 6 10.0625C3.80781 10.0625 2.03125 8.28594 2.03125 6.09375C2.03125 6.025 1.975 5.96875 1.90625 5.96875H0.96875C0.9 5.96875 0.84375 6.025 0.84375 6.09375C0.84375 8.72969 2.82188 10.9047 5.375 11.2125V12.8125H3.10469C2.89063 12.8125 2.71875 13.0359 2.71875 13.3125V13.875C2.71875 13.9438 2.7625 14 2.81563 14H9.18437C9.2375 14 9.28125 13.9438 9.28125 13.875V13.3125C9.28125 13.0359 9.10938 12.8125 8.89531 12.8125H6.5625V11.2203C9.14531 10.9391 11.1562 8.75156 11.1562 6.09375ZM6 8.75C7.46719 8.75 8.65625 7.575 8.65625 6.125V2.625C8.65625 1.175 7.46719 0 6 0C4.53281 0 3.34375 1.175 3.34375 2.625V6.125C3.34375 7.575 4.53281 8.75 6 8.75ZM4.53125 2.625C4.53125 1.83438 5.18594 1.1875 6 1.1875C6.81406 1.1875 7.46875 1.83438 7.46875 2.625V6.125C7.46875 6.91563 6.81406 7.5625 6 7.5625C5.18594 7.5625 4.53125 6.91563 4.53125 6.125V2.625Z" fill="white"/>
</svg>
