<svg width="20" height="20" viewBox="0 0 20 20" fill="none" xmlns="http://www.w3.org/2000/svg">
<path d="M3.33301 8.76699C3.33301 8.98791 3.51209 9.16699 3.73301 9.16699H7.09967C7.32059 9.16699 7.49967 8.98791 7.49967 8.76699V4.56699C7.49967 4.34608 7.32059 4.16699 7.09967 4.16699H3.73301C3.51209 4.16699 3.33301 4.34608 3.33301 4.56699V8.76699ZM3.33301 14.6003C3.33301 14.8212 3.51209 15.0003 3.73301 15.0003H7.09967C7.32059 15.0003 7.49967 14.8212 7.49967 14.6003V10.4003C7.49967 10.1794 7.32059 10.0003 7.09967 10.0003H3.73301C3.51209 10.0003 3.33301 10.1794 3.33301 10.4003V14.6003ZM8.33301 14.6003C8.33301 14.8212 8.51209 15.0003 8.73301 15.0003H12.0997C12.3206 15.0003 12.4997 14.8212 12.4997 14.6003V10.4003C12.4997 10.1794 12.3206 10.0003 12.0997 10.0003H8.73301C8.51209 10.0003 8.33301 10.1794 8.33301 10.4003V14.6003ZM13.333 14.6003C13.333 14.8212 13.5121 15.0003 13.733 15.0003H17.0997C17.3206 15.0003 17.4997 14.8212 17.4997 14.6003V10.4003C17.4997 10.1794 17.3206 10.0003 17.0997 10.0003H13.733C13.5121 10.0003 13.333 10.1794 13.333 10.4003V14.6003ZM8.33301 8.76699C8.33301 8.98791 8.51209 9.16699 8.73301 9.16699H12.0997C12.3206 9.16699 12.4997 8.98791 12.4997 8.76699V4.56699C12.4997 4.34608 12.3206 4.16699 12.0997 4.16699H8.73301C8.51209 4.16699 8.33301 4.34608 8.33301 4.56699V8.76699ZM13.733 4.16699C13.5121 4.16699 13.333 4.34608 13.333 4.56699V8.76699C13.333 8.98791 13.5121 9.16699 13.733 9.16699H17.0997C17.3206 9.16699 17.4997 8.98791 17.4997 8.76699V4.56699C17.4997 4.34608 17.3206 4.16699 17.0997 4.16699H13.733Z" fill="#9292A3"/>
</svg>
