<svg width="20" height="20" viewBox="0 0 20 20" fill="none" xmlns="http://www.w3.org/2000/svg">
<path d="M3.33398 11.267C3.33398 11.4879 3.51307 11.667 3.73398 11.667H6.26732C6.48823 11.667 6.66732 11.4879 6.66732 11.267V8.73366C6.66732 8.51275 6.48823 8.33366 6.26732 8.33366H3.73398C3.51307 8.33366 3.33398 8.51275 3.33398 8.73366V11.267ZM3.33398 15.4337C3.33398 15.6546 3.51307 15.8337 3.73398 15.8337H6.26732C6.48823 15.8337 6.66732 15.6546 6.66732 15.4337V12.9003C6.66732 12.6794 6.48823 12.5003 6.26732 12.5003H3.73398C3.51307 12.5003 3.33398 12.6794 3.33398 12.9003V15.4337ZM3.33398 7.10033C3.33398 7.32124 3.51307 7.50033 3.73398 7.50033H6.26732C6.48823 7.50033 6.66732 7.32124 6.66732 7.10033V4.56699C6.66732 4.34608 6.48823 4.16699 6.26732 4.16699H3.73398C3.51307 4.16699 3.33398 4.34608 3.33398 4.56699V7.10033ZM7.50065 11.267C7.50065 11.4879 7.67974 11.667 7.90065 11.667H17.1007C17.3216 11.667 17.5007 11.4879 17.5007 11.267V8.73366C17.5007 8.51275 17.3216 8.33366 17.1007 8.33366H7.90065C7.67974 8.33366 7.50065 8.51275 7.50065 8.73366V11.267ZM7.50065 15.4337C7.50065 15.6546 7.67974 15.8337 7.90065 15.8337H17.1007C17.3216 15.8337 17.5007 15.6546 17.5007 15.4337V12.9003C17.5007 12.6794 17.3216 12.5003 17.1007 12.5003H7.90065C7.67974 12.5003 7.50065 12.6794 7.50065 12.9003V15.4337ZM7.90065 4.16699C7.67974 4.16699 7.50065 4.34608 7.50065 4.56699V7.10033C7.50065 7.32124 7.67974 7.50033 7.90065 7.50033H17.1007C17.3216 7.50033 17.5007 7.32124 17.5007 7.10033V4.56699C17.5007 4.34608 17.3216 4.16699 17.1007 4.16699H7.90065Z" fill="#9292A3"/>
</svg>
