<svg width="28" height="28" viewBox="0 0 28 28" fill="none" xmlns="http://www.w3.org/2000/svg">
<rect width="28" height="28" rx="14" fill="#3D9588"/>
<path d="M8.53125 19.0312C8.53125 19.2732 8.72676 19.4688 8.96875 19.4688H19.0312C19.2732 19.4688 19.4688 19.2732 19.4688 19.0312V13.2891H8.53125V19.0312ZM19.0312 9.51562H16.7344V8.64062C16.7344 8.58047 16.6852 8.53125 16.625 8.53125H15.8594C15.7992 8.53125 15.75 8.58047 15.75 8.64062V9.51562H12.25V8.64062C12.25 8.58047 12.2008 8.53125 12.1406 8.53125H11.375C11.3148 8.53125 11.2656 8.58047 11.2656 8.64062V9.51562H8.96875C8.72676 9.51562 8.53125 9.71113 8.53125 9.95312V12.3594H19.4688V9.95312C19.4688 9.71113 19.2732 9.51562 19.0312 9.51562Z" fill="white"/>
</svg>
