<svg width="50" height="48" viewBox="0 0 50 48" fill="none" xmlns="http://www.w3.org/2000/svg">
<path d="M6.972 44L6.048 41.624H2.28L1.38 44H0.12L3.504 35.492H4.86L8.244 44H6.972ZM4.152 36.716L2.7 40.532H5.628L4.152 36.716ZM12.8265 43.304C12.6745 43.592 12.4425 43.812 12.1305 43.964C11.8185 44.108 11.4825 44.18 11.1225 44.18C10.4665 44.18 9.9425 43.964 9.5505 43.532C9.1585 43.092 8.9625 42.536 8.9625 41.864V38.228H10.0905V41.696C10.0905 42.128 10.1945 42.484 10.4025 42.764C10.6185 43.044 10.9505 43.184 11.3985 43.184C11.8465 43.184 12.1865 43.052 12.4185 42.788C12.6505 42.516 12.7665 42.156 12.7665 41.708V38.228H13.8945V42.932C13.8945 43.308 13.9145 43.664 13.9545 44H12.8745C12.8425 43.824 12.8265 43.592 12.8265 43.304ZM16.4328 41.096C16.4328 41.704 16.5808 42.2 16.8768 42.584C17.1808 42.968 17.5968 43.16 18.1248 43.16C18.6288 43.16 19.0328 42.964 19.3368 42.572C19.6408 42.18 19.7928 41.68 19.7928 41.072C19.7928 40.472 19.6448 39.988 19.3488 39.62C19.0528 39.252 18.6488 39.068 18.1368 39.068C17.6248 39.068 17.2128 39.256 16.9008 39.632C16.5888 40.008 16.4328 40.496 16.4328 41.096ZM19.8048 43.22V43.124C19.6528 43.42 19.4208 43.668 19.1088 43.868C18.8048 44.06 18.4408 44.156 18.0168 44.156C17.1928 44.156 16.5288 43.868 16.0248 43.292C15.5288 42.708 15.2808 41.976 15.2808 41.096C15.2808 40.256 15.5368 39.544 16.0488 38.96C16.5608 38.368 17.2168 38.072 18.0168 38.072C18.4888 38.072 18.8728 38.168 19.1688 38.36C19.4648 38.544 19.6688 38.772 19.7808 39.044V35.312H20.8968V42.932C20.8968 43.324 20.9168 43.68 20.9568 44H19.8648C19.8248 43.776 19.8048 43.516 19.8048 43.22ZM23.9315 44H22.8155V38.228H23.9315V44ZM22.7915 36.62C22.6395 36.46 22.5635 36.268 22.5635 36.044C22.5635 35.82 22.6395 35.628 22.7915 35.468C22.9515 35.308 23.1435 35.228 23.3675 35.228C23.5915 35.228 23.7835 35.308 23.9435 35.468C24.1035 35.62 24.1835 35.812 24.1835 36.044C24.1835 36.268 24.1035 36.46 23.9435 36.62C23.7835 36.772 23.5915 36.848 23.3675 36.848C23.1435 36.848 22.9515 36.772 22.7915 36.62ZM27.0386 42.632C27.3906 42.992 27.8186 43.172 28.3226 43.172C28.8266 43.172 29.2506 42.992 29.5946 42.632C29.9466 42.264 30.1226 41.756 30.1226 41.108C30.1226 40.468 29.9466 39.968 29.5946 39.608C29.2506 39.24 28.8266 39.056 28.3226 39.056C27.8186 39.056 27.3906 39.24 27.0386 39.608C26.6946 39.968 26.5226 40.468 26.5226 41.108C26.5226 41.756 26.6946 42.264 27.0386 42.632ZM26.1986 38.924C26.7586 38.34 27.4666 38.048 28.3226 38.048C29.1786 38.048 29.8826 38.34 30.4346 38.924C30.9946 39.5 31.2746 40.228 31.2746 41.108C31.2746 41.996 30.9986 42.732 30.4466 43.316C29.8946 43.892 29.1866 44.18 28.3226 44.18C27.4586 44.18 26.7506 43.892 26.1986 43.316C25.6466 42.732 25.3706 41.996 25.3706 41.108C25.3706 40.228 25.6466 39.5 26.1986 38.924Z" fill="#40A0C1"/>
<path d="M7.05556 17.7003V12.2559H6.66667C6.02234 12.2559 5.5 12.7782 5.5 13.4225V16.5336C5.5 17.178 6.02234 17.7003 6.66667 17.7003H7.05556Z" fill="#40A0C1"/>
<path d="M24.556 11.0898H23.0004C22.5709 11.0898 22.2227 11.4381 22.2227 11.8676V18.0898C22.2227 18.5194 22.5709 18.8676 23.0004 18.8676H24.556C24.9855 18.8676 25.3338 18.5194 25.3338 18.0898V11.8676C25.3338 11.4381 24.9855 11.0898 24.556 11.0898Z" fill="#40A0C1"/>
<path d="M25.3322 12.2559H24.9434V17.7003H25.3322C25.9766 17.7003 26.4989 17.178 26.4989 16.5336V13.4225C26.4989 12.7782 25.9766 12.2559 25.3322 12.2559Z" fill="#40A0C1"/>
<path d="M9.0008 11.0828C9.56838 7.71296 12.5834 4.47451 16.0008 4.47451C19.4181 4.47451 22.4332 7.71296 23.0008 11.0828H24.5564C23.9436 6.87877 20.2415 2.99023 15.993 2.99023C11.7445 2.99023 8.04241 6.87877 7.42969 11.0828H8.98524H9.0008Z" fill="#40A0C1"/>
<path d="M7.44379 18.8676H7.83268V20.8121C7.83268 22.7451 9.39969 24.3121 11.3327 24.3121H12.9582C13.1226 24.7771 13.5617 25.0885 14.0549 25.0899H17.9438C18.5881 25.0899 19.1105 24.5675 19.1105 23.9232C19.1105 23.2789 18.5881 22.7565 17.9438 22.7565H14.0549C13.5617 22.7579 13.1226 23.0693 12.9582 23.5343H11.3327C9.82924 23.5343 8.61046 22.3155 8.61046 20.8121V18.8676H8.99935C9.42891 18.8676 9.77713 18.5194 9.77713 18.0899V11.8676C9.77713 11.4381 9.42891 11.0898 8.99935 11.0898H7.44379C7.01424 11.0898 6.66602 11.4381 6.66602 11.8676V18.0899C6.66602 18.5194 7.01424 18.8676 7.44379 18.8676Z" fill="#40A0C1"/>
<path d="M47.9145 27.8016L42.4051 20.2063C42.2051 19.9313 41.7957 19.9313 41.5973 20.2063L36.0863 27.8016C36.0728 27.8202 36.0647 27.8423 36.0629 27.8653C36.0611 27.8883 36.0657 27.9114 36.0762 27.932C36.0867 27.9525 36.1027 27.9697 36.1225 27.9817C36.1422 27.9938 36.1648 28.0001 36.1879 28H37.3598C37.4395 28 37.5145 27.9609 37.5613 27.8969L42.0004 21.7781L46.4395 27.8969C46.4863 27.9609 46.5613 28 46.641 28H47.8129C47.9145 28 47.9738 27.8844 47.9145 27.8016Z" fill="#40A0C1"/>
</svg>
