<svg width="220" height="220" viewBox="0 0 220 220" fill="none" xmlns="http://www.w3.org/2000/svg">
<path d="M142.64 10.2783C142.64 10.2783 110.638 -1.10452 79.2225 17.0147C47.8065 35.1339 31.9533 71.0995 18.3441 99.9063C4.73488 128.713 12.5669 158.022 36.5469 171.384C60.5269 184.747 76.8333 165.048 110.467 164.089C144.1 163.13 153.147 167.939 181.074 148.936C209 129.932 214.038 85.0475 192.016 51.8363C169.994 18.6251 142.64 10.2783 142.64 10.2783Z" fill="#BDEBF6"/>
<path opacity="0.7" d="M142.64 10.2783C142.64 10.2783 110.638 -1.10452 79.2225 17.0147C47.8065 35.1339 31.9533 71.0995 18.3441 99.9063C4.73488 128.713 12.5669 158.022 36.5469 171.384C60.5269 184.747 76.8333 165.048 110.467 164.089C144.1 163.13 153.147 167.939 181.074 148.936C209 129.932 214.038 85.0475 192.016 51.8363C169.994 18.6251 142.64 10.2783 142.64 10.2783Z" fill="#BDEBF6"/>
<path d="M199.917 175.191C198.157 174.94 194.809 172.758 194.805 172.758C194.8 172.758 196.912 170.998 197.057 170.892C198.769 169.797 202.716 168.692 204.471 170.131C204.757 170.38 204.986 170.685 205.145 171.029C205.304 171.372 205.389 171.745 205.395 172.123C205.4 172.501 205.326 172.876 205.176 173.223C205.027 173.571 204.807 173.883 204.529 174.14C203.389 175.266 201.418 175.407 199.917 175.191Z" fill="#5ACEE8"/>
<path d="M167.099 158.299C167.055 158.299 167.878 155.659 167.949 155.501C168.771 153.644 171.469 150.542 173.713 150.779C174.087 150.829 174.446 150.957 174.768 151.155C175.089 151.353 175.366 151.616 175.578 151.928C175.791 152.24 175.936 152.593 176.004 152.964C176.071 153.336 176.06 153.717 175.97 154.084C175.644 155.659 174.078 156.865 172.705 157.511C171.095 158.273 167.099 158.299 167.099 158.299Z" fill="#5ACEE8"/>
<path d="M163.812 202.325C163.033 203.293 162.325 204.204 161.691 205.04H160.09C160.895 204.006 161.85 202.84 162.897 201.573C163.513 200.834 164.186 200.059 164.886 199.267C164.253 198.488 163.665 197.672 163.126 196.825C161.696 197.305 158.774 197.177 158.396 197.16C158.286 198.097 158.189 199.016 158.11 199.879C157.925 201.837 157.815 203.575 157.74 205.04H156.42C156.526 203.544 156.68 201.766 156.909 199.76C157.019 198.801 157.151 197.784 157.3 196.737C156.931 196.627 153.934 195.69 152.834 194.718C151.835 193.838 150.81 192.43 150.92 191.022C150.935 190.69 151.019 190.365 151.168 190.068C151.316 189.771 151.525 189.509 151.782 189.298C152.038 189.087 152.336 188.933 152.656 188.845C152.976 188.757 153.311 188.737 153.639 188.786C155.606 189.143 157.102 192.421 157.34 194.19C157.34 194.295 157.379 195.444 157.384 196.17C157.445 195.73 157.503 195.329 157.569 194.889C157.701 194.009 157.859 193.16 158.009 192.249C158.105 191.809 158.202 191.369 158.299 190.898C158.396 190.428 158.537 189.979 158.655 189.512C158.95 188.443 159.302 187.37 159.681 186.296C158.919 186.182 156.227 185.724 155.1 184.998C153.974 184.272 152.755 183.044 152.649 181.636C152.612 181.305 152.644 180.969 152.745 180.651C152.846 180.334 153.012 180.04 153.234 179.791C153.456 179.542 153.728 179.343 154.032 179.206C154.336 179.069 154.666 178.997 154.999 178.996C156.997 179.049 158.959 182.076 159.478 183.779C159.509 183.885 159.729 185.152 159.839 185.852C160.072 185.209 160.301 184.567 160.556 183.924C161.295 182.072 162.101 180.215 162.897 178.363C163.139 177.795 163.377 177.223 163.614 176.656C163.346 176.616 160.134 176.145 158.871 175.336C157.753 174.614 156.526 173.382 156.42 171.974C156.382 171.643 156.415 171.307 156.516 170.989C156.617 170.671 156.783 170.378 157.005 170.129C157.227 169.88 157.499 169.68 157.803 169.543C158.107 169.406 158.436 169.335 158.77 169.334C160.767 169.387 162.73 172.414 163.245 174.117C163.284 174.244 163.601 176.07 163.658 176.541C164.186 175.287 164.697 174.033 165.15 172.779C165.773 171.088 166.286 169.358 166.685 167.6C166.558 167.6 163.205 167.103 161.911 166.28C160.794 165.559 159.566 164.327 159.461 162.919C159.422 162.587 159.454 162.251 159.555 161.933C159.655 161.615 159.822 161.322 160.044 161.072C160.266 160.823 160.538 160.623 160.842 160.487C161.147 160.35 161.477 160.279 161.81 160.279C163.808 160.332 165.77 163.359 166.285 165.057C166.32 165.172 166.562 166.562 166.663 167.226H166.778C167.131 165.446 167.324 163.638 167.354 161.823C167.385 160.824 167.354 159.87 167.31 158.941C166.677 158.915 163.79 158.77 162.536 158.145C161.282 157.52 159.989 156.464 159.729 155.065C159.658 154.74 159.656 154.405 159.723 154.079C159.789 153.754 159.924 153.447 160.117 153.177C160.31 152.907 160.558 152.68 160.845 152.512C161.131 152.344 161.449 152.238 161.779 152.2C163.768 152.033 166.065 154.814 166.751 156.46C166.791 156.552 167.068 157.502 167.262 158.22C167.235 157.78 167.213 157.366 167.178 156.966C167.051 155.456 166.844 154.088 166.65 152.874C166.536 152.183 166.417 151.554 166.298 150.986C165.691 150.634 163.253 149.2 162.448 148.095C161.643 146.991 160.965 145.424 161.375 144.074C161.46 143.753 161.613 143.454 161.822 143.196C162.031 142.938 162.292 142.727 162.587 142.576C162.883 142.425 163.207 142.339 163.539 142.322C163.871 142.304 164.202 142.357 164.512 142.476C166.355 143.246 167.112 146.771 166.963 148.548C166.963 148.702 166.47 151.083 166.439 151.065L166.404 151.043C166.527 151.598 166.655 152.196 166.778 152.852C166.998 154.062 167.218 155.434 167.398 156.944C167.587 158.568 167.681 160.201 167.68 161.836C167.694 163.667 167.547 165.496 167.24 167.301C167.24 167.323 167.24 167.345 167.24 167.363C167.513 166.848 168.327 165.422 168.401 165.321C169.453 163.882 172.339 161.718 174.236 162.347C174.548 162.46 174.833 162.637 175.072 162.867C175.311 163.097 175.499 163.375 175.623 163.682C175.748 163.99 175.806 164.32 175.795 164.652C175.783 164.984 175.702 165.309 175.556 165.607C174.979 166.896 173.404 167.64 172.106 167.939C170.641 168.278 167.447 167.627 167.191 167.574C166.824 169.401 166.336 171.202 165.731 172.964C165.383 173.994 165 175.019 164.604 176.044C164.855 175.604 165.079 175.212 165.119 175.164C166.171 173.725 169.053 171.56 170.953 172.19C171.266 172.302 171.55 172.48 171.789 172.71C172.029 172.94 172.216 173.218 172.341 173.525C172.466 173.833 172.524 174.163 172.512 174.495C172.501 174.826 172.419 175.152 172.273 175.45C171.697 176.739 170.126 177.483 168.828 177.782C167.53 178.081 164.776 177.584 164.054 177.443C163.896 177.835 163.746 178.226 163.588 178.618C162.831 180.492 162.07 182.358 161.388 184.21C161.146 184.862 160.948 185.53 160.71 186.168C160.935 185.777 161.124 185.447 161.15 185.403C162.202 183.96 165.084 181.799 166.985 182.424C167.297 182.537 167.582 182.715 167.821 182.945C168.06 183.176 168.248 183.454 168.372 183.762C168.497 184.07 168.555 184.401 168.544 184.733C168.532 185.065 168.45 185.39 168.305 185.689C167.728 186.978 166.157 187.722 164.859 188.016C163.561 188.311 161.071 187.871 160.213 187.704C160.011 188.382 159.804 189.055 159.637 189.719C159.535 190.159 159.403 190.599 159.324 191.066C159.245 191.532 159.148 191.972 159.06 192.421C158.928 193.301 158.783 194.181 158.673 195.034C158.589 195.624 158.523 196.187 158.457 196.755C158.691 196.104 159.179 194.836 159.232 194.735C160.008 193.37 161.122 192.226 162.466 191.413C162.545 191.258 162.639 191.11 162.747 190.973C162.942 190.705 163.191 190.48 163.479 190.314C163.766 190.148 164.085 190.045 164.415 190.01C164.745 189.976 165.078 190.011 165.394 190.114C165.709 190.217 165.999 190.385 166.245 190.608C167.693 191.99 167.125 195.549 166.351 197.155C166.307 197.252 165.695 198.224 165.295 198.832C165.585 198.51 165.858 198.194 166.175 197.868C166.765 197.217 167.367 196.583 168.019 195.901L169.009 194.938C169.33 194.608 169.713 194.3 170.065 193.978C170.905 193.244 171.789 192.544 172.705 191.858C172.137 191.343 170.144 189.477 169.625 188.25C169.105 187.022 168.745 185.328 169.435 184.096C169.589 183.802 169.802 183.543 170.062 183.337C170.321 183.131 170.621 182.981 170.942 182.898C171.263 182.815 171.598 182.801 171.925 182.855C172.253 182.91 172.564 183.033 172.841 183.216C174.478 184.364 174.465 187.968 173.937 189.675C173.906 189.781 173.391 190.96 173.096 191.602C173.642 191.198 174.187 190.788 174.755 190.392C176.396 189.253 178.09 188.148 179.78 187.044L181.32 186.019C181.113 185.834 178.68 183.669 178.095 182.296C177.558 181.078 177.215 179.37 177.905 178.138C178.058 177.844 178.271 177.585 178.531 177.378C178.79 177.171 179.091 177.021 179.412 176.938C179.733 176.855 180.068 176.841 180.396 176.896C180.723 176.951 181.035 177.075 181.311 177.258C182.948 178.402 182.935 182.01 182.407 183.713C182.367 183.841 181.623 185.544 181.412 185.966C182.543 185.209 183.661 184.448 184.73 183.652C186.184 182.585 187.568 181.424 188.87 180.176C188.773 180.092 186.23 177.844 185.623 176.436C185.086 175.217 184.743 173.51 185.429 172.282C185.582 171.987 185.795 171.728 186.055 171.522C186.314 171.315 186.615 171.165 186.936 171.082C187.257 170.999 187.592 170.985 187.92 171.04C188.247 171.095 188.559 171.218 188.835 171.402C190.476 172.55 190.459 176.154 189.935 177.857C189.9 177.971 189.332 179.265 189.055 179.876C189.088 179.896 189.118 179.918 189.147 179.942C190.426 178.653 191.585 177.251 192.61 175.754C193.187 174.935 193.693 174.126 194.163 173.325C193.649 172.951 191.317 171.235 190.621 170.029C189.926 168.824 189.425 167.218 189.975 165.92C190.093 165.609 190.275 165.327 190.51 165.091C190.744 164.856 191.026 164.673 191.336 164.554C191.646 164.434 191.978 164.382 192.31 164.4C192.641 164.418 192.966 164.505 193.261 164.657C195.021 165.616 195.395 169.202 195.061 170.953C195.061 171.05 194.749 172 194.529 172.687C194.735 172.322 194.969 171.948 195.149 171.596C195.875 170.276 196.469 169.013 196.966 167.891C197.248 167.253 197.494 166.672 197.714 166.131C197.397 165.506 196.161 162.958 196.099 161.594C196.038 160.23 196.333 158.55 197.419 157.634C197.667 157.413 197.959 157.247 198.276 157.147C198.593 157.046 198.927 157.014 199.257 157.051C199.587 157.088 199.905 157.195 200.192 157.364C200.478 157.532 200.725 157.76 200.917 158.03C202.031 159.689 200.719 163.046 199.597 164.446C199.505 164.569 197.793 166.289 197.776 166.258L197.754 166.219C197.551 166.751 197.314 167.319 197.072 167.935C196.588 169.066 196.029 170.342 195.312 171.688C194.576 173.148 193.753 174.563 192.848 175.925C191.845 177.459 190.707 178.899 189.447 180.228C189.433 180.244 189.418 180.259 189.403 180.272C189.913 179.991 191.378 179.256 191.497 179.212C193.169 178.592 196.777 178.376 198.005 179.947C198.203 180.213 198.343 180.519 198.415 180.843C198.487 181.168 198.49 181.503 198.423 181.829C198.357 182.154 198.223 182.462 198.029 182.732C197.836 183.003 197.587 183.229 197.301 183.396C196.113 184.153 194.392 183.902 193.143 183.436C191.735 182.908 189.429 180.607 189.244 180.422C187.931 181.744 186.53 182.976 185.051 184.109C184.171 184.778 183.291 185.429 182.411 186.058C182.851 185.83 183.269 185.618 183.331 185.618C185.003 184.998 188.611 184.782 189.838 186.353C190.036 186.62 190.176 186.925 190.248 187.25C190.321 187.574 190.324 187.91 190.257 188.235C190.191 188.561 190.056 188.869 189.863 189.139C189.669 189.409 189.421 189.635 189.134 189.803C187.946 190.56 186.226 190.313 184.976 189.847C183.727 189.38 181.703 187.444 181.179 186.93C180.836 187.167 180.493 187.414 180.145 187.651C178.482 188.795 176.814 189.93 175.213 191.096C174.649 191.506 174.113 191.932 173.567 192.355C173.972 192.148 174.311 191.981 174.363 191.963C176.035 191.343 179.643 191.127 180.871 192.698C181.069 192.964 181.209 193.27 181.282 193.594C181.354 193.918 181.358 194.254 181.292 194.579C181.226 194.905 181.092 195.213 180.899 195.483C180.706 195.753 180.458 195.98 180.171 196.148C178.979 196.904 177.259 196.658 176.009 196.187C174.759 195.716 172.929 193.987 172.309 193.367C171.767 193.807 171.222 194.247 170.72 194.726C170.381 195.048 170.034 195.334 169.713 195.677L168.745 196.662C168.155 197.314 167.543 197.982 166.985 198.625C166.593 199.065 166.223 199.505 165.854 199.945C166.413 199.531 167.517 198.744 167.614 198.686C169.176 197.806 172.696 197.063 174.157 198.427C174.393 198.66 174.578 198.941 174.699 199.251C174.82 199.56 174.874 199.892 174.859 200.224C174.843 200.556 174.757 200.881 174.607 201.178C174.458 201.475 174.247 201.737 173.989 201.947C172.881 202.84 171.16 202.84 169.84 202.585C168.406 202.286 165.88 200.442 165.555 200.213C164.943 200.935 164.353 201.643 163.812 202.325Z" fill="#5ACEE8"/>
<path d="M144.478 175.191C142.718 174.94 139.37 172.758 139.365 172.758C139.361 172.758 141.473 170.998 141.618 170.892C143.33 169.797 147.276 168.692 149.032 170.131C149.317 170.38 149.547 170.685 149.706 171.029C149.865 171.372 149.95 171.745 149.955 172.123C149.961 172.501 149.886 172.876 149.737 173.223C149.588 173.571 149.367 173.883 149.089 174.14C147.95 175.266 145.978 175.407 144.478 175.191Z" fill="#5ACEE8"/>
<path d="M111.658 158.299C111.614 158.299 112.437 155.659 112.507 155.501C113.33 153.644 116.027 150.542 118.271 150.779C118.645 150.829 119.005 150.957 119.326 151.155C119.648 151.353 119.924 151.616 120.137 151.928C120.35 152.24 120.495 152.593 120.562 152.964C120.63 153.336 120.618 153.717 120.528 154.084C120.203 155.659 118.636 156.865 117.264 157.511C115.653 158.273 111.658 158.299 111.658 158.299Z" fill="#5ACEE8"/>
<path d="M108.372 202.325C107.593 203.293 106.885 204.204 106.251 205.04H104.65C105.455 204.006 106.41 202.84 107.457 201.573C108.073 200.834 108.746 200.059 109.446 199.267C108.813 198.488 108.225 197.672 107.686 196.825C106.256 197.305 103.334 197.177 102.956 197.16C102.846 198.097 102.749 199.016 102.67 199.879C102.485 201.837 102.375 203.575 102.3 205.04H101.002C101.108 203.544 101.262 201.766 101.491 199.76C101.601 198.801 101.733 197.784 101.882 196.737C101.513 196.627 98.5163 195.69 97.4163 194.718C96.4175 193.838 95.3923 192.43 95.5023 191.022C95.517 190.69 95.6014 190.365 95.7498 190.068C95.8983 189.771 96.1075 189.509 96.3639 189.298C96.6204 189.087 96.9183 188.933 97.2383 188.845C97.5583 188.757 97.8933 188.737 98.2215 188.786C100.188 189.143 101.684 192.421 101.922 194.19C101.922 194.295 101.961 195.444 101.966 196.17C102.027 195.73 102.085 195.329 102.151 194.889C102.283 194.009 102.441 193.16 102.591 192.249C102.687 191.809 102.784 191.369 102.881 190.898C102.978 190.428 103.119 189.979 103.237 189.512C103.532 188.443 103.884 187.37 104.263 186.296C103.501 186.182 100.809 185.724 99.6823 184.998C98.5559 184.272 97.3371 183.044 97.2315 181.636C97.1937 181.305 97.2263 180.969 97.3271 180.651C97.4278 180.334 97.5945 180.04 97.8163 179.791C98.038 179.542 98.3098 179.343 98.6139 179.206C98.918 179.069 99.2476 178.997 99.5811 178.996C101.579 179.049 103.541 182.076 104.06 183.779C104.091 183.885 104.311 185.152 104.421 185.852C104.654 185.209 104.861 184.567 105.138 183.924C105.877 182.072 106.683 180.215 107.479 178.363C107.721 177.795 107.959 177.223 108.196 176.656C107.928 176.616 104.716 176.145 103.453 175.336C102.335 174.614 101.108 173.382 101.002 171.974C100.965 171.643 100.997 171.307 101.098 170.989C101.199 170.671 101.365 170.378 101.587 170.129C101.809 169.88 102.081 169.68 102.385 169.543C102.689 169.406 103.018 169.335 103.352 169.334C105.349 169.387 107.312 172.414 107.827 174.117C107.866 174.244 108.183 176.07 108.24 176.541C108.768 175.287 109.279 174.033 109.732 172.779C110.355 171.088 110.868 169.358 111.267 167.6C111.14 167.6 107.787 167.103 106.493 166.28C105.376 165.559 104.148 164.327 104.043 162.919C104.004 162.587 104.036 162.251 104.137 161.933C104.237 161.615 104.404 161.322 104.626 161.072C104.848 160.823 105.12 160.623 105.424 160.487C105.729 160.35 106.059 160.279 106.392 160.279C108.39 160.332 110.352 163.359 110.867 165.057C110.902 165.172 111.144 166.562 111.245 167.226H111.36C111.713 165.446 111.906 163.638 111.936 161.823C111.967 160.824 111.936 159.87 111.892 158.941C111.259 158.915 108.372 158.77 107.118 158.145C105.864 157.52 104.571 156.464 104.311 155.065C104.24 154.741 104.238 154.405 104.304 154.08C104.371 153.755 104.505 153.448 104.698 153.178C104.891 152.908 105.138 152.682 105.424 152.513C105.71 152.345 106.027 152.238 106.357 152.2C108.35 152.033 110.647 154.814 111.333 156.46C111.373 156.552 111.65 157.502 111.844 158.22C111.817 157.78 111.795 157.366 111.76 156.966C111.633 155.456 111.426 154.088 111.232 152.874C111.118 152.183 110.999 151.554 110.88 150.986C110.273 150.634 107.835 149.2 107.03 148.095C106.225 146.991 105.547 145.424 105.957 144.074C106.042 143.753 106.195 143.454 106.404 143.196C106.613 142.938 106.874 142.727 107.169 142.576C107.465 142.425 107.789 142.339 108.121 142.322C108.453 142.304 108.784 142.357 109.094 142.476C110.937 143.246 111.694 146.771 111.545 148.548C111.545 148.702 111.052 151.083 111.021 151.065L110.986 151.043C111.109 151.598 111.237 152.196 111.36 152.852C111.58 154.062 111.822 155.434 111.98 156.944C112.169 158.568 112.263 160.201 112.262 161.836C112.269 163.668 112.114 165.497 111.8 167.301C111.8 167.323 111.8 167.345 111.8 167.363C112.073 166.848 112.887 165.422 112.961 165.321C114.013 163.882 116.899 161.718 118.796 162.347C119.108 162.46 119.393 162.637 119.632 162.867C119.871 163.097 120.059 163.375 120.183 163.682C120.308 163.99 120.366 164.32 120.355 164.652C120.343 164.984 120.262 165.309 120.116 165.607C119.539 166.896 117.964 167.64 116.666 167.939C115.201 168.278 112.007 167.627 111.751 167.574C111.384 169.401 110.896 171.202 110.291 172.964C109.943 173.994 109.56 175.019 109.164 176.044C109.415 175.604 109.639 175.212 109.679 175.164C110.731 173.725 113.613 171.56 115.513 172.19C115.826 172.302 116.11 172.48 116.35 172.71C116.589 172.94 116.777 173.218 116.901 173.525C117.026 173.833 117.084 174.163 117.072 174.495C117.061 174.826 116.979 175.152 116.833 175.45C116.257 176.739 114.686 177.483 113.388 177.782C112.09 178.081 109.336 177.584 108.614 177.443C108.456 177.835 108.306 178.226 108.148 178.618C107.391 180.492 106.63 182.358 105.948 184.21C105.706 184.862 105.508 185.53 105.27 186.168C105.495 185.777 105.684 185.447 105.71 185.403C106.762 183.96 109.644 181.799 111.545 182.424C111.857 182.537 112.142 182.715 112.381 182.945C112.62 183.176 112.808 183.454 112.932 183.762C113.057 184.07 113.115 184.401 113.104 184.733C113.092 185.065 113.011 185.39 112.865 185.689C112.288 186.978 110.717 187.722 109.419 188.016C108.121 188.311 105.631 187.871 104.773 187.704C104.571 188.382 104.364 189.055 104.197 189.719C104.095 190.159 103.963 190.599 103.884 191.066C103.805 191.532 103.708 191.972 103.62 192.421C103.488 193.301 103.343 194.181 103.233 195.034C103.149 195.624 103.083 196.187 103.017 196.755C103.251 196.104 103.739 194.836 103.792 194.735C104.568 193.37 105.682 192.226 107.026 191.413C107.105 191.258 107.199 191.11 107.307 190.973C107.502 190.701 107.752 190.474 108.042 190.305C108.331 190.137 108.652 190.032 108.985 189.998C109.318 189.963 109.654 190 109.972 190.105C110.289 190.21 110.581 190.382 110.827 190.608C112.275 191.99 111.707 195.549 110.933 197.155C110.889 197.252 110.277 198.224 109.877 198.832C110.167 198.51 110.44 198.194 110.757 197.868C111.347 197.217 111.949 196.583 112.601 195.901L113.591 194.938C113.912 194.608 114.295 194.3 114.647 193.978C115.487 193.244 116.371 192.544 117.287 191.858C116.719 191.343 114.726 189.477 114.207 188.25C113.687 187.022 113.327 185.328 114.017 184.096C114.171 183.802 114.384 183.543 114.644 183.337C114.903 183.131 115.203 182.981 115.524 182.898C115.846 182.815 116.18 182.801 116.508 182.855C116.835 182.91 117.147 183.033 117.423 183.216C119.06 184.364 119.047 187.968 118.519 189.675C118.488 189.781 117.973 190.96 117.678 191.602C118.224 191.198 118.769 190.788 119.337 190.392C120.978 189.253 122.672 188.148 124.362 187.044L125.902 186.019C125.695 185.834 123.262 183.669 122.677 182.296C122.14 181.078 121.797 179.37 122.487 178.138C122.64 177.844 122.853 177.585 123.113 177.378C123.372 177.171 123.673 177.021 123.994 176.938C124.315 176.855 124.65 176.841 124.978 176.896C125.305 176.951 125.617 177.075 125.893 177.258C127.53 178.402 127.517 182.01 126.989 183.713C126.949 183.841 126.205 185.544 125.994 185.966C127.125 185.209 128.243 184.448 129.312 183.652C130.767 182.585 132.15 181.424 133.452 180.176C133.355 180.092 130.812 177.844 130.205 176.436C129.668 175.217 129.325 173.51 130.011 172.282C130.164 171.987 130.377 171.728 130.637 171.522C130.896 171.315 131.197 171.165 131.518 171.082C131.839 170.999 132.174 170.985 132.502 171.04C132.829 171.095 133.141 171.218 133.417 171.402C135.058 172.55 135.041 176.154 134.517 177.857C134.482 177.971 133.914 179.265 133.637 179.876C133.67 179.896 133.701 179.918 133.729 179.942C135.008 178.653 136.167 177.251 137.192 175.754C137.769 174.935 138.275 174.126 138.745 173.325C138.231 172.951 135.899 171.235 135.203 170.029C134.508 168.824 134.007 167.218 134.557 165.92C134.675 165.609 134.857 165.327 135.092 165.091C135.326 164.856 135.608 164.673 135.918 164.554C136.228 164.434 136.56 164.382 136.892 164.4C137.223 164.418 137.548 164.505 137.843 164.657C139.603 165.616 139.977 169.202 139.643 170.953C139.643 171.05 139.331 172 139.111 172.687C139.317 172.322 139.551 171.948 139.731 171.596C140.457 170.276 141.051 169.013 141.548 167.891C141.83 167.253 142.076 166.672 142.296 166.131C141.979 165.506 140.743 162.958 140.681 161.594C140.62 160.23 140.915 158.55 142.001 157.634C142.25 157.413 142.541 157.247 142.858 157.147C143.175 157.046 143.509 157.014 143.839 157.051C144.169 157.088 144.488 157.195 144.774 157.364C145.06 157.532 145.307 157.76 145.499 158.03C146.613 159.689 145.301 163.046 144.179 164.446C144.087 164.569 142.375 166.289 142.358 166.258L142.336 166.219C142.133 166.751 141.896 167.319 141.654 167.935C141.17 169.066 140.611 170.342 139.894 171.688C139.158 173.148 138.335 174.563 137.43 175.925C136.427 177.459 135.289 178.899 134.029 180.228C134.015 180.244 134 180.259 133.985 180.272C134.495 179.991 135.96 179.256 136.079 179.212C137.751 178.592 141.359 178.376 142.587 179.947C142.785 180.213 142.925 180.519 142.997 180.843C143.069 181.168 143.072 181.503 143.006 181.829C142.939 182.154 142.805 182.462 142.611 182.732C142.418 183.003 142.17 183.229 141.883 183.396C140.695 184.153 138.974 183.902 137.725 183.436C136.317 182.908 134.011 180.607 133.826 180.422C132.513 181.744 131.112 182.976 129.633 184.109C128.753 184.778 127.873 185.429 126.993 186.058C127.433 185.83 127.851 185.618 127.913 185.618C129.585 184.998 133.193 184.782 134.42 186.353C134.618 186.62 134.758 186.925 134.83 187.25C134.903 187.574 134.906 187.91 134.839 188.235C134.773 188.561 134.638 188.869 134.445 189.139C134.251 189.409 134.003 189.635 133.716 189.803C132.528 190.56 130.808 190.313 129.558 189.847C128.309 189.38 126.285 187.444 125.761 186.93C125.418 187.167 125.075 187.414 124.727 187.651C123.064 188.795 121.396 189.93 119.795 191.096C119.231 191.506 118.695 191.932 118.149 192.355C118.554 192.148 118.893 191.981 118.945 191.963C120.617 191.343 124.225 191.127 125.453 192.698C125.651 192.964 125.791 193.27 125.864 193.594C125.936 193.918 125.94 194.254 125.874 194.579C125.808 194.905 125.674 195.213 125.481 195.483C125.288 195.753 125.04 195.98 124.753 196.148C123.561 196.904 121.841 196.658 120.591 196.187C119.341 195.716 117.511 193.987 116.891 193.367C116.349 193.807 115.804 194.247 115.302 194.726C114.963 195.048 114.616 195.334 114.295 195.677L113.327 196.662C112.737 197.314 112.125 197.982 111.567 198.625C111.175 199.065 110.805 199.505 110.436 199.945C110.995 199.531 112.099 198.744 112.196 198.686C113.758 197.806 117.278 197.063 118.739 198.427C118.975 198.66 119.16 198.941 119.281 199.251C119.402 199.56 119.456 199.892 119.441 200.224C119.425 200.556 119.339 200.881 119.189 201.178C119.04 201.475 118.829 201.737 118.571 201.947C117.441 202.84 115.72 202.84 114.4 202.585C112.966 202.286 110.44 200.442 110.115 200.213C109.503 200.935 108.913 201.643 108.372 202.325Z" fill="#5ACEE8"/>
<path d="M21.2652 178.521C22.8316 178.296 25.806 176.356 25.806 176.356C25.806 176.356 23.936 174.785 23.804 174.701C22.286 173.729 18.7792 172.739 17.204 174.024C16.9516 174.245 16.7486 174.517 16.6082 174.822C16.4677 175.127 16.393 175.458 16.3889 175.794C16.3847 176.13 16.4512 176.462 16.5841 176.771C16.7169 177.079 16.9132 177.356 17.16 177.583C18.1808 178.587 19.932 178.714 21.2652 178.521Z" fill="#5ACEE8"/>
<path d="M50.4286 163.513C50.4638 163.513 49.7334 161.167 49.6718 161.027C48.9414 159.377 46.561 156.627 44.5502 156.829C44.2173 156.873 43.8974 156.987 43.6115 157.163C43.3255 157.339 43.0799 157.573 42.8905 157.85C42.7012 158.128 42.5725 158.442 42.5127 158.772C42.453 159.103 42.4636 159.442 42.5438 159.768C42.8342 161.163 44.229 162.237 45.4478 162.813C46.8778 163.486 50.4242 163.513 50.4286 163.513Z" fill="#5ACEE8"/>
<path d="M53.346 202.628C54.0368 203.508 54.666 204.296 55.2291 205.04H56.6547C55.9375 204.12 55.1016 203.082 54.16 201.96C53.61 201.304 53.0116 200.613 52.4 199.914C52.9677 199.22 53.4951 198.494 53.9796 197.74C55.2467 198.18 57.8428 198.052 58.1815 198.035C58.2783 198.871 58.362 199.685 58.4324 200.455C58.5952 202.193 58.6964 203.737 58.7624 205.04H59.9151C59.8228 203.72 59.6863 202.131 59.4752 200.349C59.3783 199.5 59.2596 198.589 59.132 197.665C59.4576 197.564 62.1195 196.732 63.0919 195.87C63.972 195.082 64.8915 193.837 64.7947 192.588C64.7813 192.293 64.7062 192.004 64.5743 191.741C64.4424 191.477 64.2566 191.244 64.0289 191.056C63.8013 190.869 63.5368 190.731 63.2526 190.653C62.9684 190.574 62.6709 190.555 62.3792 190.599C60.6192 190.916 59.2991 193.828 59.0879 195.399C59.0879 195.492 59.0528 196.512 59.0528 197.159C58.9956 196.781 58.9472 196.411 58.8856 196.02C58.7668 195.25 58.626 194.484 58.4808 193.661C58.3928 193.265 58.3092 192.865 58.2212 192.46C58.1332 192.055 58.01 191.642 57.9044 191.228C57.6448 190.278 57.3324 189.323 56.9935 188.372C57.6712 188.267 60.0736 187.862 61.0592 187.215C62.0448 186.568 63.1448 185.482 63.2592 184.232C63.2906 183.938 63.26 183.642 63.1694 183.361C63.0787 183.08 62.9301 182.821 62.733 182.601C62.536 182.381 62.295 182.205 62.0256 182.084C61.7562 181.964 61.4644 181.901 61.1692 181.9C59.4092 181.948 57.6492 184.628 57.2092 186.146C57.1828 186.243 56.9847 187.369 56.8879 187.994C56.6811 187.422 56.4787 186.85 56.25 186.278C55.5943 184.632 54.8772 182.982 54.1732 181.337C53.9532 180.831 53.7332 180.325 53.5308 179.823C53.7728 179.788 56.6108 179.383 57.746 178.644C58.7404 178.002 59.8316 176.91 59.946 175.656C59.9781 175.363 59.9481 175.067 59.858 174.786C59.7678 174.505 59.6195 174.247 59.4228 174.027C59.226 173.807 58.9852 173.632 58.716 173.511C58.4467 173.391 58.1552 173.329 57.8604 173.329C56.1003 173.377 54.3404 176.052 53.9004 177.575C53.8652 177.689 53.5835 179.313 53.5352 179.731C53.0644 178.618 52.6112 177.504 52.2152 176.391C51.6636 174.888 51.2095 173.351 50.8556 171.789C50.9656 171.789 53.9356 171.349 55.0928 170.605C56.0872 169.963 57.1784 168.872 57.2928 167.618C57.3249 167.325 57.2949 167.028 57.2048 166.747C57.1146 166.466 56.9663 166.208 56.7696 165.988C56.5728 165.769 56.332 165.593 56.0628 165.473C55.7935 165.352 55.502 165.29 55.2072 165.29C53.4472 165.338 51.6872 168.014 51.2472 169.536C51.2164 169.637 51.0008 170.856 50.9128 171.463H50.8116C50.4525 169.887 50.2346 168.282 50.1604 166.667C50.134 165.787 50.1604 164.907 50.2 164.102C50.7632 164.102 53.3372 163.952 54.4416 163.398C55.546 162.844 56.7076 161.902 56.9363 160.67C56.9999 160.382 57.0022 160.084 56.9432 159.796C56.8842 159.507 56.7652 159.234 56.5938 158.994C56.4225 158.754 56.2027 158.553 55.9486 158.404C55.6946 158.254 55.412 158.16 55.1191 158.127C53.3591 157.977 51.3088 160.446 50.7192 161.911C50.6884 161.99 50.4376 162.835 50.2792 163.455C50.3056 163.081 50.3232 162.698 50.354 162.342C50.464 161.022 50.6488 159.786 50.8248 158.708C50.926 158.096 51.0316 157.542 51.1372 157.027C51.6784 156.719 53.8432 155.443 54.556 154.462C55.2687 153.48 55.876 152.09 55.5108 150.889C55.4347 150.604 55.2996 150.338 55.1142 150.109C54.9288 149.88 54.6973 149.692 54.4347 149.558C54.172 149.424 53.8842 149.347 53.5897 149.331C53.2953 149.315 53.0009 149.362 52.7256 149.468C51.0844 150.154 50.4112 153.282 50.5256 154.862C50.5256 154.998 50.9656 157.115 50.9656 157.102L51.0404 157.08C50.9304 157.572 50.816 158.105 50.706 158.686C50.508 159.764 50.2968 160.982 50.156 162.32C49.9874 163.764 49.9037 165.217 49.9052 166.672C49.8986 168.294 50.0355 169.913 50.3144 171.512V171.569C50.0724 171.129 49.3508 169.844 49.2848 169.752C48.3476 168.476 45.7648 166.553 44.1016 167.112C43.8245 167.212 43.5717 167.37 43.3596 167.575C43.1476 167.78 42.9809 168.027 42.8706 168.301C42.7602 168.574 42.7086 168.868 42.719 169.162C42.7294 169.457 42.8017 169.746 42.9312 170.011C43.4416 171.16 44.8364 171.815 46.0112 172.084C47.3312 172.383 50.1516 171.806 50.376 171.758C50.7079 173.383 51.1489 174.984 51.696 176.55C52.004 177.465 52.3428 178.376 52.6948 179.282C52.4704 178.895 52.2548 178.543 52.2548 178.499C51.3176 177.218 48.7568 175.296 47.0716 175.859C46.7945 175.96 46.5417 176.118 46.3296 176.322C46.1176 176.527 45.9509 176.775 45.8406 177.048C45.7302 177.321 45.6786 177.615 45.689 177.91C45.6994 178.204 45.7717 178.493 45.9012 178.758C46.4116 179.902 47.8064 180.562 48.9812 180.826C50.156 181.09 52.5804 180.655 53.2228 180.527C53.3591 180.875 53.4956 181.227 53.6364 181.57C54.3096 183.238 54.9872 184.892 55.5988 186.542C55.8188 187.118 56.0079 187.699 56.206 188.28C56.0079 187.932 55.8364 187.642 55.8056 187.598C54.8684 186.318 52.2856 184.395 50.6224 184.958C50.3453 185.059 50.0925 185.217 49.8804 185.422C49.6684 185.627 49.5017 185.874 49.3914 186.147C49.281 186.421 49.2294 186.714 49.2398 187.009C49.2502 187.303 49.3225 187.593 49.452 187.858C49.9624 189.002 51.3616 189.662 52.532 189.93C53.7024 190.198 55.8936 189.798 56.6592 189.653C56.8396 190.251 57.0243 190.85 57.1695 191.439C57.2619 191.84 57.3808 192.222 57.4512 192.636C57.5216 193.05 57.6052 193.441 57.6844 193.842C57.8032 194.612 57.9308 195.404 58.0276 196.16C58.1024 196.684 58.1596 197.186 58.2212 197.692C58.01 197.111 57.5788 195.984 57.5303 195.896C56.8434 194.681 55.8536 193.664 54.6572 192.944C54.5887 192.804 54.5061 192.671 54.4108 192.548C54.2371 192.31 54.0152 192.11 53.7596 191.963C53.504 191.816 53.2203 191.725 52.9269 191.694C52.6335 191.664 52.3371 191.696 52.0568 191.788C51.7765 191.879 51.5187 192.029 51.2999 192.227C50.0152 193.454 50.5124 196.627 51.2032 198.044C51.2472 198.127 51.7884 198.99 52.1448 199.531L51.3748 198.651C50.8512 198.074 50.3144 197.511 49.7336 196.891L48.8536 196.037C48.5676 195.742 48.2288 195.47 47.912 195.184C47.1684 194.532 46.3808 193.912 45.5756 193.3C46.0816 192.86 47.8504 191.184 48.33 190.097C48.8096 189.01 49.1132 187.497 48.5016 186.401C48.3658 186.139 48.1766 185.909 47.9462 185.725C47.7158 185.541 47.4493 185.407 47.164 185.332C46.8787 185.258 46.5808 185.244 46.2898 185.292C45.9987 185.339 45.7209 185.447 45.4744 185.609C44.018 186.63 44.0312 189.833 44.4976 191.329C44.5284 191.426 44.986 192.473 45.25 193.045C44.7616 192.684 44.2776 192.319 43.7716 191.967C42.3152 190.955 40.8104 189.978 39.31 188.993C38.87 188.694 38.3992 188.386 37.9416 188.082C38.122 187.919 40.2736 185.996 40.806 184.778C41.2812 183.691 41.5892 182.177 40.9776 181.082C40.8418 180.82 40.6526 180.589 40.4222 180.405C40.1918 180.221 39.9253 180.087 39.64 180.013C39.3547 179.938 39.0568 179.924 38.7658 179.972C38.4747 180.02 38.1969 180.128 37.9504 180.29C36.4984 181.31 36.5072 184.514 36.978 186.01C37.0132 186.124 37.6732 187.633 37.858 188.007C36.8548 187.338 35.8648 186.661 34.91 185.952C33.6196 185.007 32.3923 183.978 31.236 182.872C31.3196 182.798 33.5724 180.8 34.118 179.546C34.5976 178.464 34.9012 176.95 34.2896 175.854C34.1543 175.592 33.9654 175.361 33.735 175.177C33.5047 174.992 33.2381 174.858 32.9525 174.783C32.667 174.709 32.369 174.695 32.0778 174.743C31.7866 174.791 31.5087 174.9 31.2624 175.062C29.8104 176.083 29.8192 179.286 30.29 180.782C30.3208 180.884 30.8224 182.032 31.0732 182.573C31.0463 182.594 31.0184 182.613 30.9896 182.63C29.854 181.486 28.8232 180.241 27.9096 178.912C27.3992 178.186 26.9504 177.465 26.528 176.752C26.968 176.422 29.058 174.895 29.6784 173.826C30.2988 172.757 30.7388 171.327 30.2504 170.174C30.1456 169.898 29.9838 169.648 29.7755 169.439C29.5673 169.23 29.3173 169.068 29.0419 168.962C28.7665 168.857 28.4719 168.811 28.1775 168.827C27.883 168.843 27.5953 168.921 27.3332 169.056C25.7756 169.906 25.4324 173.091 25.7316 174.649C25.7316 174.732 26.0088 175.577 26.2068 176.189C26.022 175.863 25.824 175.533 25.6524 175.216C25.01 174.042 24.4908 172.924 24.042 171.93C23.7868 171.362 23.5712 170.843 23.3732 170.354C23.6548 169.8 24.7548 167.538 24.812 166.324C24.8692 165.11 24.6008 163.622 23.6372 162.804C23.4168 162.608 23.1576 162.46 22.8764 162.371C22.5953 162.282 22.2985 162.253 22.0053 162.286C21.7122 162.319 21.4294 162.414 21.1753 162.564C20.9213 162.714 20.7016 162.916 20.5308 163.156C19.5408 164.63 20.7068 167.613 21.688 168.876C21.776 168.982 23.294 170.513 23.3116 170.482V170.451C23.492 170.922 23.6944 171.428 23.9232 171.974C24.3632 172.981 24.8472 174.112 25.4676 175.309C26.1272 176.606 26.8618 177.863 27.6676 179.075C28.557 180.436 29.5672 181.715 30.686 182.894L30.73 182.938C30.29 182.688 28.97 182.032 28.8688 181.992C27.3816 181.438 24.1872 181.249 23.0872 182.644C22.9088 182.881 22.7827 183.153 22.7171 183.442C22.6515 183.732 22.6479 184.032 22.7065 184.323C22.7651 184.614 22.8846 184.889 23.0571 185.13C23.2296 185.372 23.4513 185.574 23.7076 185.724C24.768 186.397 26.2948 186.164 27.4036 185.759C28.6576 185.292 30.7036 183.246 30.8664 183.079C32.034 184.256 33.2806 185.351 34.5976 186.357C35.3588 186.951 36.142 187.523 36.9384 188.086C36.538 187.884 36.1772 187.704 36.1244 187.686C34.6372 187.136 31.4384 186.942 30.3428 188.342C30.1637 188.579 30.0371 188.851 29.9711 189.14C29.9051 189.43 29.9013 189.73 29.9599 190.021C30.0185 190.312 30.1383 190.588 30.3112 190.829C30.4842 191.07 30.7064 191.272 30.9632 191.422C32.0236 192.095 33.5504 191.862 34.6592 191.457C35.768 191.052 37.5676 189.327 38.034 188.87L38.9536 189.512C40.432 190.528 41.9104 191.536 43.3536 192.57C43.8552 192.935 44.3348 193.314 44.8188 193.688C44.4624 193.507 44.1588 193.358 44.1104 193.34C42.6232 192.79 39.4288 192.596 38.3288 193.996C38.1499 194.233 38.0235 194.505 37.9578 194.795C37.8922 195.085 37.8887 195.385 37.9478 195.676C38.0069 195.967 38.1271 196.243 38.3004 196.484C38.4738 196.725 38.6964 196.927 38.9536 197.076C40.0096 197.749 41.5408 197.516 42.6496 197.111C43.7584 196.706 45.382 195.148 45.9364 194.603C46.4204 195.003 46.9 195.404 47.3488 195.813C47.6524 196.099 47.9604 196.354 48.2288 196.658L49.1088 197.538C49.6324 198.114 50.178 198.708 50.6752 199.298C51.0272 199.694 51.3528 200.081 51.6784 200.468C51.1856 200.098 50.2 199.399 50.112 199.35C48.726 198.58 45.5976 197.907 44.2996 199.122C44.0899 199.329 43.9263 199.578 43.8193 199.853C43.7123 200.128 43.6643 200.422 43.6784 200.717C43.6925 201.012 43.7684 201.3 43.9012 201.563C44.034 201.827 44.2207 202.059 44.4492 202.246C45.3952 203.068 46.9396 203.082 48.0968 202.84C49.3728 202.571 51.6168 200.939 51.9072 200.732C52.3604 201.392 52.8664 202.021 53.346 202.628Z" fill="#5ACEE8"/>
<path d="M153.763 22.0176H72.3982C70.5344 22.0176 69.0234 23.5285 69.0234 25.3924V185.082C69.0234 186.945 70.5344 188.456 72.3982 188.456H153.763C155.627 188.456 157.138 186.945 157.138 185.082V25.3924C157.138 23.5285 155.627 22.0176 153.763 22.0176Z" fill="#263238" stroke="#263238" stroke-linecap="round" stroke-linejoin="round"/>
<path d="M153.226 40.291H72.9434V170.179H153.226V40.291Z" fill="white" stroke="#263238" stroke-linecap="round" stroke-linejoin="round"/>
<path d="M121.811 31.1997H104.356C104.041 31.1997 103.739 31.0746 103.516 30.8518C103.293 30.629 103.168 30.3268 103.168 30.0117C103.167 29.8554 103.198 29.7004 103.257 29.5558C103.317 29.4111 103.404 29.2796 103.514 29.1688C103.625 29.0581 103.756 28.9702 103.9 28.9102C104.045 28.8502 104.2 28.8193 104.356 28.8193H121.811C121.967 28.8193 122.122 28.8502 122.266 28.9102C122.411 28.9702 122.542 29.0581 122.652 29.1688C122.763 29.2796 122.85 29.4111 122.91 29.5558C122.969 29.7004 122.999 29.8554 122.999 30.0117C122.999 30.3268 122.874 30.629 122.651 30.8518C122.428 31.0746 122.126 31.1997 121.811 31.1997Z" fill="white"/>
<path d="M117.842 177.514C117.842 176.572 117.563 175.652 117.04 174.869C116.516 174.086 115.773 173.476 114.903 173.115C114.033 172.755 113.076 172.661 112.152 172.844C111.229 173.028 110.381 173.482 109.715 174.147C109.049 174.813 108.595 175.661 108.412 176.585C108.228 177.508 108.322 178.466 108.683 179.336C109.043 180.206 109.653 180.949 110.436 181.472C111.219 181.995 112.14 182.275 113.081 182.275C113.706 182.275 114.326 182.152 114.904 181.913C115.482 181.674 116.007 181.324 116.449 180.881C116.891 180.439 117.242 179.914 117.481 179.336C117.72 178.758 117.842 178.139 117.842 177.514Z" fill="white" stroke="#263238" stroke-width="0.704333" stroke-linecap="round" stroke-linejoin="round"/>
<path d="M115.497 175.098H110.67V179.924H115.497V175.098Z" fill="#263238"/>
<path d="M159.184 120.925L158.665 124.885C158.665 124.885 156.518 139.594 158.005 147.198C159.492 154.801 162.299 162.567 162.467 164.384C162.634 166.201 161.639 173.307 162.797 179.093C163.954 184.879 166.101 196.28 166.101 196.28L164.284 200.578C164.284 200.578 160.482 203.056 159.989 203.883C159.917 203.975 159.868 204.083 159.845 204.199C159.822 204.314 159.827 204.433 159.86 204.546C159.892 204.658 159.95 204.762 160.03 204.848C160.11 204.934 160.209 205 160.319 205.04H172.199C172.564 204.149 172.733 203.19 172.697 202.228V190.661C172.697 189.504 173.357 169.84 174.017 166.368C174.677 162.897 175.337 136.62 175.337 136.62H176.001C176.001 136.62 179.143 162.73 179.961 165.541C180.779 168.353 184.26 180.413 185.241 182.895C186.222 185.376 187.393 193.965 188.053 196.117C188.685 198.063 189.182 200.051 189.54 202.066C189.709 203.084 189.986 204.081 190.367 205.04H199.321C199.321 205.04 199.488 203.553 198.824 202.563C198.16 201.573 193.87 197.283 193.205 194.132C192.541 190.982 194.2 176.44 194.041 171.327C193.883 166.214 192.387 165.541 192.387 161.08C192.387 156.618 194.041 143.066 194.041 136.62C194.041 130.174 193.161 124.234 191.546 120.842L189.249 118.606H160.812L159.184 120.925Z" fill="#FFBE9D" stroke="#263238" stroke-width="0.5" stroke-linecap="round" stroke-linejoin="round"/>
<path d="M194.547 197.086V197.108C194.547 197.108 192.233 195.62 191.406 196.778C190.578 197.935 190.578 198.595 190.578 198.595H188.818C189.144 199.736 189.402 200.895 189.588 202.066C189.758 203.085 190.035 204.082 190.416 205.041H199.321C199.321 205.041 199.488 203.554 198.824 202.564C198.358 201.86 196.083 199.51 194.547 197.086Z" fill="#BDEBF6" stroke="#263238" stroke-width="0.5" stroke-linecap="round" stroke-linejoin="round"/>
<path d="M190.398 205.04H199.322C199.354 204.657 199.344 204.272 199.291 203.892H189.998C190.2 204.552 190.398 205.04 190.398 205.04Z" fill="white" stroke="#263238" stroke-width="0.5" stroke-linecap="round" stroke-linejoin="round"/>
<path d="M172.713 202.229V199.422H169.572C169.572 199.422 169.739 198.102 168.252 197.108C166.764 196.113 165.273 198.428 165.273 198.428H165.194L164.283 200.575C164.283 200.575 160.481 203.052 159.988 203.879C159.916 203.972 159.867 204.08 159.844 204.195C159.821 204.31 159.826 204.429 159.859 204.542C159.891 204.655 159.949 204.758 160.029 204.844C160.109 204.93 160.208 204.996 160.318 205.036H172.198C172.568 204.148 172.743 203.191 172.713 202.229Z" fill="#BDEBF6" stroke="#263238" stroke-width="0.5" stroke-linecap="round" stroke-linejoin="round"/>
<path d="M159.981 203.892C159.911 203.984 159.863 204.093 159.842 204.207C159.821 204.322 159.827 204.44 159.86 204.551C159.893 204.663 159.952 204.766 160.032 204.85C160.112 204.935 160.211 205 160.32 205.04H172.2C172.361 204.673 172.477 204.287 172.543 203.892H159.981Z" fill="white" stroke="#263238" stroke-width="0.5" stroke-linecap="round" stroke-linejoin="round"/>
<path d="M193.161 188.038C193.438 182.411 194.142 174.759 194.041 171.318C193.878 166.192 192.387 165.532 192.387 161.071C192.387 156.609 194.041 143.066 194.041 136.62C194.041 130.174 193.161 124.234 191.546 120.842L189.249 118.606H160.812L159.184 120.925L158.665 124.885C158.665 124.885 156.518 139.594 158.005 147.198C159.492 154.801 162.299 162.567 162.467 164.384C162.634 166.201 161.639 173.307 162.797 179.093C163.307 181.632 164.002 185.253 164.627 188.518C167.29 189.122 170.021 189.369 172.749 189.253C172.89 184.47 173.462 169.369 174.034 166.373C174.694 162.901 175.354 136.624 175.354 136.624H176.001C176.001 136.624 179.143 162.734 179.961 165.546C180.779 168.357 184.26 180.418 185.241 182.899C185.681 183.955 186.121 186.12 186.561 188.426C188.761 188.814 191.022 188.682 193.161 188.038Z" fill="white" stroke="#263238" stroke-width="0.5" stroke-linecap="round" stroke-linejoin="round"/>
<path d="M178.002 135.133L186.925 128.027" stroke="#263238" stroke-width="0.5" stroke-linecap="round" stroke-linejoin="round"/>
<path d="M164.943 128.688L169.572 132.489" stroke="#263238" stroke-width="0.5" stroke-linecap="round" stroke-linejoin="round"/>
<path d="M184.362 48.6028C184.362 48.6028 180.564 46.3588 180.652 47.5688C180.74 48.7788 182.377 49.6368 182.377 49.6368C182.377 49.6368 176.939 48.8624 176.076 49.1968C175.214 49.5312 176.684 49.9756 176.684 49.9756C176.684 49.9756 169.952 55.15 167.624 58.6876C165.296 62.2252 163.224 67.404 165.64 71.3728C168.055 75.3416 171.593 78.448 177.546 80.1728C183.499 81.8976 189.364 80.0848 193.333 78.448C197.302 76.8112 201.253 72.1472 200.58 66.282C199.907 60.4168 194.697 54.2964 190.812 50.1604C186.927 46.0244 184.516 46.6404 184.516 47.2256C184.505 47.6883 184.454 48.1492 184.362 48.6028Z" fill="#263238" stroke="#263238" stroke-linecap="round" stroke-linejoin="round"/>
<path d="M175.05 73.1107L174.17 79.7503C174.17 79.7503 167.87 81.8183 165.542 82.7687C163.214 83.7191 162.176 84.9247 161.745 85.9587C161.314 86.9927 155.145 101.359 154.881 102.723C154.617 104.087 155.052 104.707 156.949 105.569C158.845 106.432 164.121 103.242 164.121 103.242L164.812 105.657C164.812 105.657 161.358 111.523 160.755 113.419C160.152 115.315 159.202 120.925 159.202 120.925C159.202 120.925 165.758 124.203 176.111 123.948C186.464 123.693 191.555 120.842 191.555 120.842C191.555 120.842 190.433 115.232 189.227 111.954C188.022 108.676 186.983 107.382 186.983 106.089C186.983 104.795 190.78 98.0631 190.78 98.0631L198.797 101.843C198.797 101.843 196.905 95.3043 196.386 90.9043C195.867 86.5043 194.974 85.7871 193.244 84.2339C191.515 82.6807 183.93 80.4411 183.67 80.2739C183.41 80.1067 184.013 72.8555 184.013 72.8555C184.013 72.8555 177.466 74.5803 175.05 73.1107Z" fill="#FFBE9D" stroke="#263238" stroke-width="0.5" stroke-linecap="round" stroke-linejoin="round"/>
<path d="M180.058 77.6559C181.264 77.2159 182.698 76.0763 183.825 75.0555C183.917 73.8191 183.996 72.8555 183.996 72.8555C183.996 72.8555 177.467 74.5891 175.051 73.1195L174.457 77.5195C175.795 78.7163 177.977 78.4391 180.058 77.6559Z" fill="#263238" stroke="#263238" stroke-linecap="round" stroke-linejoin="round"/>
<path d="M189.201 111.954C187.991 108.676 186.957 107.382 186.957 106.088C186.957 104.795 190.754 98.0627 190.754 98.0627L198.771 101.842C198.771 101.842 196.879 95.3039 196.36 90.9039C196.082 88.5235 195.686 87.2255 195.114 86.284C182.821 87.8459 169.154 85.0431 163.703 83.7188C162.837 84.2535 162.15 85.0329 161.727 85.9583C161.287 86.9967 155.127 101.358 154.863 102.722C154.599 104.086 155.035 104.707 156.931 105.569C158.828 106.432 164.121 103.242 164.121 103.242L164.812 105.657C164.812 105.657 161.358 111.522 160.755 113.419C160.152 115.315 159.202 120.925 159.202 120.925C159.202 120.925 165.758 124.203 176.111 123.948C186.464 123.693 191.555 120.842 191.555 120.842C191.555 120.842 190.415 115.232 189.201 111.954Z" fill="#BDEBF6" stroke="#263238" stroke-width="0.5" stroke-linecap="round" stroke-linejoin="round"/>
<path d="M165.213 100.866C165.213 100.866 163.497 97.2714 163.963 95.397C164.43 93.5226 164.746 93.0518 164.746 93.0518" stroke="#263238" stroke-width="0.5" stroke-linecap="round" stroke-linejoin="round"/>
<path d="M196.368 90.904C196.091 88.5236 195.695 87.2256 195.123 86.284C182.829 87.846 169.163 85.0432 163.711 83.7188C162.846 84.2535 162.158 85.0329 161.735 85.9583C161.586 86.3235 160.719 88.3431 159.654 90.8599C164.494 92.1799 183.031 96.7691 196.997 94.6175C196.733 93.3371 196.504 92.048 196.368 90.904Z" fill="#BDEBF6" stroke="#263238" stroke-width="0.5" stroke-linecap="round" stroke-linejoin="round"/>
<path d="M176.735 57.0684L187.735 64.1568L187.431 67.0212C187.431 67.0212 189.394 65.0632 189.697 67.1752C190.001 69.2872 189.257 70.3432 187.884 70.946C186.512 71.5488 185.772 71.386 185.772 71.386C185.772 71.386 182.455 75.0028 180.052 75.9092C177.65 76.8156 175.08 77.0532 173.892 75.0908C172.704 73.1284 171.015 69.5732 171.468 67.4612C171.921 65.3492 176 57.0684 176 57.0684H176.735Z" fill="#FFBE9D" stroke="#263238" stroke-width="0.5" stroke-linecap="round" stroke-linejoin="round"/>
<path d="M177.818 63.7695C177.816 64.3026 177.633 64.8192 177.299 65.2347C176.784 65.7539 175.574 66.4447 175.574 66.9595C175.574 67.4743 176.696 68.5127 177.73 68.4291" stroke="#263238" stroke-width="0.5" stroke-linecap="round" stroke-linejoin="round"/>
<path d="M175.918 69.5519C176.43 69.9012 177.039 70.0807 177.659 70.0649C178.279 70.0491 178.878 69.8388 179.372 69.4639" stroke="#263238" stroke-width="0.5" stroke-linecap="round" stroke-linejoin="round"/>
<path d="M180.062 65.0631C180.062 65.0631 181.959 64.3723 182.993 65.8375" stroke="#263238" stroke-width="0.5" stroke-linecap="round" stroke-linejoin="round"/>
<path d="M174.193 64.2003C174.193 64.2003 175.747 63.5095 176.525 64.3719" stroke="#263238" stroke-width="0.5" stroke-linecap="round" stroke-linejoin="round"/>
<path d="M175.143 61.266C175.427 60.918 175.81 60.6653 176.242 60.5418C176.674 60.4183 177.133 60.43 177.558 60.5752" stroke="#263238" stroke-width="0.5" stroke-linecap="round" stroke-linejoin="round"/>
<path d="M180.924 61.4375C180.924 61.4375 183.339 61.5255 183.854 63.7695" stroke="#263238" stroke-width="0.5" stroke-linecap="round" stroke-linejoin="round"/>
<path d="M158.841 99.8807C158.841 99.8807 156.165 100.915 155.321 102.556C154.476 104.197 154.63 107.99 157.991 108.94C161.353 109.891 186.204 104.884 186.204 104.884C186.813 105.813 187.476 106.706 188.189 107.559C188.796 108.162 190.349 109.372 190.433 109.886C190.516 110.401 190.692 113.684 191.383 113.846C192.074 114.009 191.823 112.293 191.823 112.293C191.823 112.293 192.945 110.656 192.945 109.878C192.945 109.099 193.117 106.6 192.945 105.997C192.773 105.394 188.717 101.856 187.854 101.597C186.992 101.337 164.904 100.717 162.836 100.387C160.768 100.057 159.527 99.7883 158.841 99.8807Z" fill="#FFBE9D" stroke="#263238" stroke-width="0.5" stroke-linecap="round" stroke-linejoin="round"/>
<path d="M180.826 76.1364L183.468 77.8925C183.935 78.2032 184.566 78.0761 184.877 77.6086L190.204 69.5945C190.514 69.127 190.387 68.4961 189.92 68.1854L187.278 66.4294C186.81 66.1186 186.179 66.2457 185.869 66.7132L180.542 74.7273C180.231 75.1948 180.358 75.8257 180.826 76.1364Z" fill="#24BEE1" stroke="#263238" stroke-width="0.5" stroke-miterlimit="10"/>
<path d="M188.76 76.2748C188.76 76.2748 189.306 74.8756 189.847 73.868C190.388 72.8604 190.393 72.3896 190.005 72.3896C189.592 72.4643 189.209 72.6587 188.905 72.9489C188.6 73.2391 188.388 73.6123 188.294 74.022C188.106 74.8634 188.054 75.7294 188.14 76.5872L188.76 76.2748Z" fill="#D9D9D9" stroke="#263238" stroke-miterlimit="10"/>
<path d="M184.092 81.6384C184.092 81.6384 188.523 77.2076 188.677 76.8204C188.831 76.4332 188.677 71.3864 188.611 69.9608C188.612 69.8547 188.575 69.7518 188.506 69.6709C188.437 69.59 188.342 69.5368 188.237 69.5208C188.174 69.5073 188.11 69.5076 188.047 69.5217C187.985 69.5357 187.926 69.5631 187.876 69.6021C187.825 69.641 187.783 69.6905 187.754 69.7472C187.724 69.8038 187.707 69.8662 187.704 69.93L187.357 74.0176L186.34 68.8696C186.323 68.7655 186.27 68.6709 186.189 68.6031C186.108 68.5353 186.006 68.4987 185.9 68.5C185.839 68.4998 185.778 68.5123 185.722 68.5369C185.666 68.5614 185.616 68.5974 185.574 68.6426C185.533 68.6877 185.501 68.741 185.482 68.7991C185.462 68.8571 185.455 68.9186 185.46 68.9796L185.746 74.6996L184.47 69.8024C184.455 69.7416 184.427 69.6844 184.389 69.6344C184.351 69.5843 184.303 69.5423 184.249 69.5108C184.194 69.4793 184.134 69.4589 184.072 69.4508C184.009 69.4427 183.946 69.4471 183.885 69.4636C183.776 69.4934 183.681 69.5611 183.617 69.6547C183.553 69.7483 183.525 69.8615 183.538 69.974L184.114 75.254L183.027 76.1868V74.3212L181.707 72.1212C181.659 72.042 181.584 71.9835 181.495 71.9575C181.406 71.9314 181.311 71.9396 181.228 71.9804C181.142 72.0223 181.076 72.0958 181.044 72.1854C181.012 72.275 181.016 72.3735 181.056 72.46L181.936 74.3916C181.936 74.3916 180.224 81.3876 180.145 81.6208C180.066 81.854 180.458 83.0992 180.691 83.5656C180.924 84.032 191.339 106.102 191.959 106.956C192.58 107.81 196.777 109.134 198.643 107.11C200.508 105.086 199.888 103.071 198.876 100.739C197.864 98.4068 184.092 81.6384 184.092 81.6384Z" fill="#FFBE9D" stroke="#263238" stroke-width="0.5" stroke-miterlimit="10"/>
<path d="M111.759 84.0401C121.966 84.0401 130.239 75.7663 130.239 65.5601C130.239 55.3539 121.966 47.0801 111.759 47.0801C101.553 47.0801 93.2793 55.3539 93.2793 65.5601C93.2793 75.7663 101.553 84.0401 111.759 84.0401Z" fill="#24BEE1"/>
<path d="M123.042 57.1953H101.139L111.936 67.6057L123.042 57.1953Z" fill="#263238"/>
<path d="M116.322 65.3009L123.947 72.0417V58.1553L116.322 65.3009Z" fill="#263238"/>
<path d="M107.633 65.2866L99.9062 57.8418V71.7238L107.633 65.2866Z" fill="#263238"/>
<path d="M115.355 66.207L111.923 69.4234L108.588 66.2114L100.549 72.9082H122.936L115.355 66.207Z" fill="#263238"/>
<path d="M111.759 124.521C121.966 124.521 130.239 116.247 130.239 106.041C130.239 95.8343 121.966 87.5605 111.759 87.5605C101.553 87.5605 93.2793 95.8343 93.2793 106.041C93.2793 116.247 101.553 124.521 111.759 124.521Z" fill="#24BEE1"/>
<path d="M109.292 100.21C109.344 100.312 109.417 100.402 109.506 100.474C109.596 100.546 109.699 100.599 109.81 100.628C109.92 100.657 110.036 100.663 110.149 100.645C110.262 100.627 110.37 100.585 110.467 100.523C111.069 100.193 111.672 99.8629 112.227 99.4801C112.425 99.2914 112.589 99.0695 112.711 98.8245C112.601 98.5649 112.543 98.3845 112.455 98.2261C112.218 97.7861 111.963 97.3461 111.712 96.9061L109.164 92.5061C109.114 92.3779 109.034 92.2633 108.931 92.1715C108.828 92.0798 108.705 92.0135 108.572 91.978C108.439 91.9425 108.299 91.9387 108.165 91.967C108.03 91.9953 107.903 92.0548 107.796 92.1409C107.25 92.4489 106.709 92.7569 106.177 93.0825C106.073 93.1318 105.982 93.2024 105.908 93.2897C105.835 93.377 105.781 93.479 105.749 93.5888C105.718 93.6987 105.711 93.8139 105.727 93.9269C105.744 94.0399 105.785 94.148 105.847 94.2441C106.991 96.2417 108.139 98.2305 109.292 100.21Z" fill="#263238"/>
<path d="M121.977 114.691C120.862 112.755 119.745 110.822 118.624 108.892C118.577 108.775 118.503 108.67 118.408 108.586C118.314 108.501 118.202 108.44 118.08 108.405C117.958 108.371 117.83 108.365 117.706 108.387C117.581 108.41 117.463 108.461 117.361 108.536C116.801 108.849 116.247 109.171 115.698 109.499C115.595 109.548 115.502 109.617 115.427 109.704C115.352 109.79 115.295 109.891 115.261 110C115.226 110.109 115.215 110.224 115.228 110.338C115.24 110.452 115.276 110.562 115.333 110.661L118.976 116.878C119.108 116.992 119.272 117.06 119.446 117.074C119.619 117.087 119.792 117.045 119.94 116.953C120.529 116.632 121.123 116.31 121.7 115.936C121.904 115.751 122.079 115.536 122.219 115.298C122.154 115.09 122.073 114.887 121.977 114.691Z" fill="#263238"/>
<path d="M114.434 111.06C114.075 111.189 113.693 111.238 113.313 111.204C112.933 111.171 112.565 111.056 112.234 110.866C111.86 110.675 111.508 110.442 111.187 110.171C109.56 108.739 108.423 106.832 107.935 104.72C107.614 103.4 107.526 102.08 108.538 101.024L104.789 94.5996C104.494 94.7888 104.208 94.9692 103.94 95.1584C103.397 95.4953 102.957 95.9745 102.668 96.5439C102.379 97.1133 102.251 97.7511 102.299 98.388C102.366 99.6951 102.556 100.993 102.866 102.264C104.109 106.669 106.32 110.74 109.339 114.18C110.46 115.549 111.797 116.724 113.299 117.66C114.038 118.121 114.901 118.347 115.771 118.307C116.642 118.267 117.48 117.963 118.174 117.436L114.434 111.06Z" fill="#263238"/>
<path d="M111.759 165C121.966 165 130.239 156.726 130.239 146.52C130.239 136.314 121.966 128.04 111.759 128.04C101.553 128.04 93.2793 136.314 93.2793 146.52C93.2793 156.726 101.553 165 111.759 165Z" fill="#24BEE1"/>
<path d="M109.035 149.982H104.93V152.064C104.929 152.712 105.175 153.336 105.616 153.811C106.058 154.285 106.663 154.574 107.31 154.62L109.035 149.982Z" fill="#263238"/>
<path d="M120.48 142.855H118.72V146.476C118.72 147.409 118.349 148.305 117.689 148.965C117.029 149.625 116.134 149.996 115.2 149.996H115.139L108.855 154.629H115.675L113.99 159.161L120.119 154.629H120.489C121.17 154.629 121.823 154.359 122.304 153.878C122.786 153.397 123.057 152.744 123.059 152.064V145.42C123.058 145.082 122.991 144.748 122.861 144.436C122.731 144.124 122.541 143.841 122.301 143.602C122.062 143.364 121.778 143.175 121.465 143.047C121.153 142.919 120.818 142.853 120.48 142.855Z" fill="#263238"/>
<path d="M115.196 137.279H102.212C101.531 137.279 100.879 137.55 100.398 138.031C99.9167 138.512 99.6465 139.164 99.6465 139.845V146.489C99.6465 147.169 99.9166 147.822 100.398 148.304C100.878 148.786 101.531 149.057 102.212 149.058H110.391L108.706 153.559L114.84 149.045H115.209C115.89 149.044 116.543 148.773 117.025 148.291C117.507 147.809 117.778 147.156 117.779 146.475V139.831C117.774 139.151 117.5 138.5 117.015 138.021C116.531 137.543 115.877 137.276 115.196 137.279Z" fill="#263238"/>
<path d="M105.146 143.907C105.654 143.907 106.066 143.495 106.066 142.987C106.066 142.479 105.654 142.067 105.146 142.067C104.638 142.067 104.227 142.479 104.227 142.987C104.227 143.495 104.638 143.907 105.146 143.907Z" fill="#5ACEE8"/>
<path d="M109.81 143C109.81 143.182 109.756 143.359 109.655 143.511C109.554 143.662 109.41 143.78 109.242 143.849C109.074 143.919 108.889 143.937 108.711 143.902C108.533 143.866 108.369 143.779 108.24 143.65C108.111 143.521 108.024 143.357 107.988 143.179C107.953 143.001 107.971 142.816 108.041 142.648C108.11 142.48 108.228 142.336 108.379 142.235C108.531 142.134 108.708 142.08 108.89 142.08C109.134 142.081 109.367 142.178 109.539 142.351C109.711 142.523 109.809 142.756 109.81 143Z" fill="#5ACEE8"/>
<path d="M113.55 143C113.55 143.182 113.496 143.36 113.395 143.511C113.294 143.662 113.15 143.78 112.981 143.85C112.813 143.919 112.628 143.937 112.45 143.901C112.271 143.865 112.107 143.777 111.979 143.648C111.85 143.519 111.763 143.355 111.728 143.176C111.693 142.998 111.712 142.813 111.782 142.645C111.852 142.477 111.971 142.333 112.123 142.233C112.275 142.132 112.453 142.079 112.635 142.08C112.878 142.081 113.111 142.179 113.282 142.351C113.454 142.523 113.55 142.757 113.55 143Z" fill="#5ACEE8"/>
<path d="M67.3962 92.6672L67.7306 92.2272L73.1822 84.8C73.1822 84.8 73.9214 80.3692 74.291 79.2604C74.6606 78.1516 75.3998 75.8152 75.6462 74.9528C75.8926 74.0904 76.139 73.1048 76.6318 73.4744C77.1246 73.844 77.1246 75.3224 76.8782 76.0616C76.661 76.7366 76.6186 77.4557 76.755 78.1516C76.8782 78.5212 83.4034 72.9816 84.015 73.4744C84.6266 73.9672 83.773 76.308 82.541 77.9052C81.309 79.5024 76.2622 85.2928 76.2622 85.2928C76.2622 85.2928 70.4762 100.803 68.7514 103.267C67.0266 105.731 66.6614 104.622 64.9366 103.267C63.2118 101.912 60.9766 98.836 60.9766 98.836L67.3962 92.6672Z" fill="#FFBE9D" stroke="#263238" stroke-width="0.5" stroke-linecap="round" stroke-linejoin="round"/>
<path d="M76.3848 82.3274C76.3848 82.3274 77.0008 80.1274 77.6168 79.617C78.2328 79.1066 80.5692 77.6502 80.5692 77.6502L82.1708 72.7222C82.1708 72.7222 82.6636 72.3526 82.5404 73.4614C82.4172 74.5702 82.1708 77.0342 81.8012 78.1386C81.4316 79.243 79.83 81.2186 79.83 81.2186" fill="#FFBE9D"/>
<path d="M76.3848 82.3274C76.3848 82.3274 77.0008 80.1274 77.6168 79.617C78.2328 79.1066 80.5692 77.6502 80.5692 77.6502L82.1708 72.7222C82.1708 72.7222 82.6636 72.3526 82.5404 73.4614C82.4172 74.5702 82.1708 77.0342 81.8012 78.1386C81.4316 79.243 79.83 81.2186 79.83 81.2186" stroke="#263238" stroke-width="0.5" stroke-linecap="round" stroke-linejoin="round"/>
<path d="M58.5332 73.8311L68.0108 92.4211L60.7508 99.8087L58.6564 92.7907L58.5332 73.8311Z" fill="#BDEBF6" stroke="#263238" stroke-width="0.5" stroke-linecap="round" stroke-linejoin="round"/>
<path d="M59.8809 96.8969L60.7521 99.8097L68.0121 92.4221L66.7053 89.8613L59.8809 96.8969Z" fill="#263238" stroke="#263238" stroke-miterlimit="10"/>
<path d="M35.8083 196.239L34.9283 199.728C34.9283 199.728 29.7671 202.588 29.3711 202.984C28.9751 203.38 29.1291 205.048 29.1291 205.048H43.9043C43.9794 203.769 43.8727 202.486 43.5875 201.238C43.3641 199.69 43.2275 198.132 43.1783 196.569L35.8083 196.239Z" fill="#263238" stroke="#263238" stroke-width="0.5" stroke-linecap="round" stroke-linejoin="round"/>
<path d="M29.1326 205.039H43.9034C43.9206 204.721 43.9206 204.402 43.9034 204.084H29.1062C29.093 204.599 29.1326 205.039 29.1326 205.039Z" fill="white" stroke="#263238" stroke-linecap="round" stroke-linejoin="round"/>
<path d="M29.6922 202.839C30.7042 201.975 31.9454 201.423 33.265 201.25C35.6454 200.85 37.7926 201.726 38.2678 202.201C38.743 202.676 39.0598 204.027 39.0598 204.027L29.107 204.106C29.0329 203.989 28.9893 203.855 28.9803 203.716C28.9712 203.578 28.997 203.439 29.0551 203.313C29.1133 203.187 29.2021 203.078 29.3133 202.995C29.4246 202.912 29.5548 202.858 29.6922 202.839Z" fill="white" stroke="#263238" stroke-width="0.5" stroke-linecap="round" stroke-linejoin="round"/>
<path d="M42.3957 199.042C42.3957 199.9 42.0965 200.591 41.7225 200.591C41.3485 200.591 41.0449 199.9 41.0449 199.042C41.0449 198.184 41.3485 197.493 41.7225 197.493C42.0965 197.493 42.3957 198.188 42.3957 199.042Z" fill="white" stroke="#263238" stroke-linecap="round" stroke-linejoin="round"/>
<path d="M72.6792 196.239L73.5592 199.728C73.5592 199.728 78.7204 202.588 79.1164 202.984C79.5124 203.38 79.354 205.048 79.354 205.048H64.5832C64.5054 203.769 64.6121 202.486 64.9 201.238C65.1203 199.69 65.2555 198.132 65.3048 196.569L72.6792 196.239Z" fill="#263238" stroke="#263238" stroke-width="0.5" stroke-linecap="round" stroke-linejoin="round"/>
<path d="M79.35 205.039H64.5836C64.5587 204.721 64.5499 204.402 64.5572 204.084H79.3808C79.3877 204.403 79.3774 204.721 79.35 205.039Z" fill="white" stroke="#263238" stroke-linecap="round" stroke-linejoin="round"/>
<path d="M78.7958 202.839C77.783 201.976 76.5422 201.424 75.223 201.25C72.8426 200.85 70.6954 201.726 70.2202 202.201C69.745 202.676 69.4238 204.027 69.4238 204.027L79.381 204.106C79.4551 203.989 79.4986 203.855 79.5077 203.716C79.5168 203.578 79.491 203.439 79.4329 203.313C79.3747 203.187 79.2859 203.078 79.1747 202.995C79.0634 202.912 78.9332 202.858 78.7958 202.839Z" fill="white" stroke="#263238" stroke-width="0.5" stroke-linecap="round" stroke-linejoin="round"/>
<path d="M66.0879 199.042C66.0879 199.9 66.3915 200.591 66.7655 200.591C67.1395 200.591 67.4387 199.9 67.4387 199.042C67.4387 198.184 67.1395 197.493 66.7655 197.493C66.3915 197.493 66.0879 198.188 66.0879 199.042Z" fill="white" stroke="#263238" stroke-linecap="round" stroke-linejoin="round"/>
<path d="M35.6407 122.17L35.1523 129.87L35.8079 196.231L43.1779 196.561L50.5523 135.278L51.5379 134.948L65.3055 196.561L72.6799 196.231L69.3975 154.941L64.4432 119.504L35.6407 122.17Z" fill="white" stroke="#263238" stroke-width="0.5" stroke-linecap="round" stroke-linejoin="round"/>
<path d="M51.1992 124.26V129.879L52.7304 127.327L52.99 123.494" stroke="#808080" stroke-width="0.5" stroke-linecap="round" stroke-linejoin="round"/>
<path d="M40.6829 72.9689C40.6829 72.9689 24.0641 80.2333 23.8177 80.9593C23.5713 81.6853 19.1405 100.042 19.8577 101.763C20.2983 102.727 21.0871 103.49 22.0662 103.898C23.0453 104.306 24.1424 104.329 25.1377 103.963C27.4741 103.083 29.6917 94.1153 29.6917 94.1153C29.6917 94.1153 34.8617 109.872 34.8617 111.473C34.8617 113.075 35.3545 122.913 35.3545 122.913C35.3545 122.913 44.8321 124.264 52.7125 122.421C60.5929 120.577 64.4077 119.464 64.4077 119.464L60.7161 96.9357C60.7161 96.9357 58.7449 74.6541 58.5161 73.7917C58.2873 72.9293 44.2337 72.6829 43.1161 72.8061C41.9985 72.9293 40.6829 72.9689 40.6829 72.9689Z" fill="#BDEBF6" stroke="#263238" stroke-width="0.5" stroke-linecap="round" stroke-linejoin="round"/>
<path d="M28.0777 99.4391C27.513 97.6227 26.5043 95.9758 25.1429 94.6475C23.7701 93.4287 21.9441 94.1195 20.6945 94.8763C20.0345 98.2951 19.6077 101.168 19.8805 101.797C20.3211 102.762 21.1099 103.525 22.089 103.933C23.0681 104.341 24.1652 104.364 25.1605 103.997C26.2297 103.601 27.2813 101.551 28.0777 99.4391Z" fill="#263238" stroke="#263238" stroke-miterlimit="10"/>
<path d="M32.9439 104.28L60.9762 98.3885L60.7519 96.9981C60.7519 96.9981 60.7079 96.5581 60.6419 95.7617L32.1562 101.746C32.4202 102.564 32.6843 103.4 32.9439 104.28Z" fill="#263238"/>
<path d="M64.4439 119.503L61.6763 102.634L34.1543 108.354C34.4878 109.388 34.7364 110.447 34.8979 111.522C34.8979 113.119 35.3907 122.962 35.3907 122.962C35.3907 122.962 44.8683 124.313 52.7487 122.469C60.6291 120.625 64.4439 119.503 64.4439 119.503Z" fill="#263238" stroke="#263238" stroke-miterlimit="10"/>
<path d="M43.1481 72.8451C42.0393 72.9683 40.6841 72.9683 40.6841 72.9683C40.6841 72.9683 37.5689 74.3323 34.0137 75.9383L48.4017 90.7927C48.4017 90.7927 51.4817 75.9779 51.2089 74.7019C51.0793 74.1042 50.9088 73.5162 50.6985 72.9419C47.1653 72.8143 43.6761 72.7879 43.1481 72.8451Z" fill="#263238" stroke="#263238" stroke-miterlimit="10"/>
<path d="M47.8243 68.6617C47.8243 68.6617 48.5634 75.0637 48.933 76.2957C49.3026 77.5277 46.8386 86.1429 46.8386 86.1429C46.8386 86.1429 39.6975 78.8785 38.8351 76.7885C37.9727 74.6985 36.0059 67.4297 36.0059 67.4297C36.0059 67.4297 42.2847 70.6329 47.8243 68.6617Z" fill="#FFBE9D" stroke="#263238" stroke-width="0.5" stroke-linecap="round" stroke-linejoin="round"/>
<path d="M36.0059 67.4297C36.0059 67.4297 36.4459 69.0885 37.0179 71.0465C37.3171 71.2137 37.6779 71.4029 38.1179 71.6229C40.4112 72.8373 43.0231 73.3151 45.5979 72.9913C46.1355 72.9031 46.6448 72.69 47.085 72.369C47.5252 72.048 47.8839 71.6282 48.1323 71.1433C47.9563 69.7661 47.8287 68.6617 47.8287 68.6617C42.2847 70.6329 36.0059 67.4297 36.0059 67.4297Z" fill="#263238" stroke="#263238" stroke-linecap="round" stroke-linejoin="round"/>
<path d="M44.6608 52.5051C44.6608 52.5051 46.5264 56.2407 47.776 57.8599C49.0256 59.4791 51.0144 63.0959 50.1432 65.2123C49.272 67.3287 48.7 70.9323 45.906 71.3195C43.3309 71.6396 40.7196 71.1604 38.426 69.9467C36.182 68.8247 35.9356 68.4507 35.9356 68.4507C35.9356 68.4507 34.0656 68.4507 32.9436 67.5707C31.8216 66.6907 29.582 63.9583 30.2024 61.5911C30.8228 59.2239 32.3232 58.9731 32.3232 58.9731C32.3232 58.9731 29.208 57.7279 31.2012 54.6127C33.1944 51.4975 37.4272 50.3799 39.4248 50.3799C41.4224 50.3799 44.6608 52.5051 44.6608 52.5051Z" fill="#FFBE9D" stroke="#263238" stroke-width="0.5" stroke-linecap="round" stroke-linejoin="round"/>
<path d="M44.0352 56.6143C44.3214 57.0668 44.7046 57.45 45.1572 57.7363C46.0372 58.3611 47.2736 57.9871 46.9172 59.1091C46.5608 60.231 45.672 60.6006 44.924 60.4774" stroke="#263238" stroke-width="0.5" stroke-linecap="round" stroke-linejoin="round"/>
<path d="M47.0274 61.8496C47.0274 61.8496 44.6602 63.218 43.041 63.0948C42.1968 63.0759 41.3756 62.8164 40.6738 62.3468" stroke="#263238" stroke-linecap="round" stroke-linejoin="round"/>
<path d="M41.8008 63.0959C41.8008 63.0959 42.6808 66.2111 43.9172 65.2123C44.7002 64.5269 45.2276 63.5962 45.4132 62.5723C44.2639 63.017 43.029 63.196 41.8008 63.0959Z" fill="#263238" stroke="#263238" stroke-linecap="round" stroke-linejoin="round"/>
<path d="M41.6732 57.6968C41.946 58.1368 41.9548 58.6164 41.6732 58.7836C41.3916 58.9508 40.9692 58.7396 40.692 58.3084C40.4148 57.8772 40.4104 57.3888 40.692 57.2172C40.9736 57.0456 41.396 57.2612 41.6732 57.6968Z" fill="#263238"/>
<path d="M45.6517 55.8137C45.9245 56.2537 45.9333 56.7377 45.6517 56.9049C45.3701 57.0721 44.9477 56.8609 44.6705 56.4253C44.3933 55.9897 44.3889 55.5057 44.6705 55.3385C44.9521 55.1713 45.3745 55.3825 45.6517 55.8137Z" fill="#263238"/>
<path d="M39.0586 57.3227C39.0586 57.3227 39.4194 55.6595 40.7218 55.4395" stroke="#263238" stroke-width="0.5" stroke-linecap="round" stroke-linejoin="round"/>
<path d="M43.3281 54.718C43.3281 54.718 44.0541 53.3452 45.2113 53.9216" stroke="#263238" stroke-width="0.5" stroke-linecap="round" stroke-linejoin="round"/>
<path d="M32.6971 56.3679C32.6971 56.3679 40.7975 56.3679 41.4223 54.9951C42.0471 53.6223 40.1727 52.6279 40.1727 52.6279C40.1727 52.6279 47.1511 52.8787 47.8991 50.7579C48.6471 48.6371 45.4087 47.7703 44.4099 47.7703H42.9139C42.9139 47.7703 42.5399 44.6551 38.9275 45.4031C35.3151 46.1511 28.3367 50.8855 27.4875 53.6267C26.6383 56.3679 24.6231 57.2391 26.1191 60.4775C27.6151 63.7159 31.7247 66.3339 31.7247 66.3339C31.7247 66.3339 31.0999 63.9667 32.3495 63.8435C33.5991 63.7203 35.7111 64.5871 36.0851 64.5871C36.4591 64.5871 37.5811 63.5927 36.9651 62.9679C36.3491 62.3431 35.7199 61.9735 35.5967 61.5995C35.4735 61.2255 36.2171 59.9803 35.7199 58.8583C35.2227 57.7363 32.6971 56.3679 32.6971 56.3679Z" fill="#263238" stroke="#263238" stroke-linecap="round" stroke-linejoin="round"/>
<path d="M32.8122 60.8971L29.9246 62.8163C29.4571 63.127 29.33 63.7579 29.6407 64.2254L35.3302 72.7855C35.6409 73.253 36.2718 73.3801 36.7393 73.0694L39.6269 71.1501C40.0944 70.8394 40.2215 70.2085 39.9107 69.741L34.2213 61.1809C33.9106 60.7134 33.2797 60.5863 32.8122 60.8971Z" fill="#24BEE1" stroke="#263238" stroke-width="0.5" stroke-miterlimit="10"/>
<path d="M31.1301 71.258C31.1301 71.258 30.5537 69.784 29.9817 68.7148C29.4097 67.6456 29.4053 67.1572 29.8145 67.1572C30.2481 67.2386 30.6485 67.4447 30.9666 67.7503C31.2847 68.0559 31.5067 68.4477 31.6053 68.8776C31.8014 69.767 31.8564 70.6816 31.7681 71.588L31.1301 71.258Z" fill="#FFBE9D" stroke="#263238" stroke-width="0.5" stroke-miterlimit="10"/>
<path d="M36.1292 76.9992C36.1292 76.9992 31.452 72.322 31.2892 71.9128C31.1264 71.5036 31.3112 66.1928 31.3596 64.666C31.3683 64.5594 31.4118 64.4586 31.4833 64.3791C31.5548 64.2997 31.6505 64.2458 31.7556 64.226C31.8219 64.2148 31.8898 64.2175 31.955 64.234C32.0202 64.2505 32.0812 64.2804 32.1342 64.3218C32.1872 64.3632 32.2309 64.4152 32.2627 64.4744C32.2945 64.5337 32.3136 64.5989 32.3188 64.666L32.6884 68.978L33.7576 63.5396C33.7791 63.4297 33.8384 63.3309 33.9252 63.2601C34.012 63.1894 34.1208 63.1513 34.2328 63.1524C34.2979 63.1529 34.3622 63.1665 34.4218 63.1925C34.4815 63.2184 34.5354 63.2562 34.5801 63.3034C34.6249 63.3506 34.6597 63.4064 34.6824 63.4674C34.7051 63.5284 34.7153 63.5933 34.7124 63.6584L34.4088 69.7172L35.7596 64.5472C35.7759 64.4829 35.8049 64.4225 35.8449 64.3696C35.8849 64.3168 35.9351 64.2724 35.9925 64.2392C36.0499 64.206 36.1133 64.1846 36.1791 64.1763C36.2449 64.1679 36.3117 64.1729 36.3756 64.1908C36.4816 64.2207 36.5749 64.2848 36.6409 64.3731C36.7069 64.4614 36.742 64.5689 36.7408 64.6792L36.1292 70.2452L37.2776 71.2308V69.2596L38.6548 66.9452C38.7038 66.8601 38.7837 66.7971 38.8779 66.7693C38.9721 66.7414 39.0733 66.7508 39.1608 66.7956C39.2497 66.841 39.3179 66.9187 39.3514 67.0128C39.3849 67.1068 39.3813 67.2101 39.3412 67.3016L38.426 69.3432C38.426 69.3432 40.2344 76.7264 40.3136 76.9728C40.3928 77.2192 39.988 78.5348 39.7416 79.0276C39.4952 79.5204 28.4952 102.827 27.8616 103.729C27.228 104.631 22.7752 106.026 20.8216 103.892C18.868 101.758 19.5016 99.624 20.5752 97.1644C21.6488 94.7048 36.1292 76.9992 36.1292 76.9992Z" fill="#FFBE9D" stroke="#263238" stroke-width="0.5" stroke-miterlimit="10"/>
<path d="M37.7695 126.922L43.9999 130.525" stroke="#808080" stroke-width="0.5" stroke-linecap="round" stroke-linejoin="round"/>
<path d="M63.0047 124.462L59.2383 129.377" stroke="#808080" stroke-width="0.5" stroke-linecap="round" stroke-linejoin="round"/>
<path d="M13.1992 205.04H209.879" stroke="#263238" stroke-linecap="round" stroke-linejoin="round"/>
</svg>
