<svg width="24" height="24" viewBox="0 0 24 24" fill="none" xmlns="http://www.w3.org/2000/svg">
<rect width="24" height="24" rx="12" fill="#5F37B6"/>
<path d="M17.1078 8.14727L15.6518 6.69258C15.549 6.58942 15.427 6.50756 15.2925 6.45172C15.1581 6.39588 15.0139 6.36715 14.8684 6.36719C14.5717 6.36719 14.2928 6.4834 14.0836 6.69258L12.5168 8.25937C12.4136 8.36209 12.3318 8.48417 12.2759 8.61861C12.2201 8.75305 12.1914 8.8972 12.1914 9.04277C12.1914 9.33945 12.3076 9.61836 12.5168 9.82754L13.6625 10.9732C13.3943 11.5644 13.0215 12.1021 12.5619 12.5605C12.1035 13.0212 11.5658 13.3954 10.9746 13.6652L9.82891 12.5195C9.7262 12.4164 9.60411 12.3345 9.46967 12.2787C9.33523 12.2228 9.19108 12.1941 9.04551 12.1941C8.74883 12.1941 8.46992 12.3104 8.26074 12.5195L6.69258 14.085C6.58929 14.1879 6.50737 14.3102 6.45152 14.4449C6.39568 14.5795 6.36702 14.7239 6.36719 14.8697C6.36719 15.1664 6.4834 15.4453 6.69258 15.6545L8.1459 17.1078C8.47949 17.4428 8.94024 17.6328 9.41328 17.6328C9.51309 17.6328 9.60879 17.6246 9.70313 17.6082C11.5461 17.3047 13.374 16.3244 14.8492 14.8506C16.323 13.3781 17.302 11.5516 17.6096 9.70312C17.7025 9.13848 17.5152 8.55742 17.1078 8.14727Z" fill="white"/>
</svg>
