<svg width="24" height="24" viewBox="0 0 24 24" fill="none" xmlns="http://www.w3.org/2000/svg">
<circle cx="12" cy="12" r="12" fill="#54B2D3"/>
<path d="M17.7047 7.72969L16.0406 6.06719C15.8375 5.86406 15.5656 5.75 15.2781 5.75C14.9906 5.75 14.7188 5.8625 14.5156 6.06719L12.7234 7.85625C12.5203 8.05937 12.4062 8.33281 12.4062 8.62031C12.4062 8.90937 12.5187 9.17969 12.7234 9.38437L14.1234 10.7859C13.8045 11.529 13.3463 12.2042 12.7734 12.775C12.2 13.3516 11.5297 13.8062 10.7859 14.1281L9.38594 12.7266C9.18281 12.5234 8.91094 12.4094 8.62344 12.4094C8.48163 12.4089 8.34114 12.4366 8.21021 12.4911C8.07928 12.5456 7.96054 12.6256 7.86094 12.7266L6.06719 14.5156C5.86406 14.7187 5.75 14.9922 5.75 15.2797C5.75 15.5687 5.8625 15.8391 6.06719 16.0437L7.72969 17.7062C8.07656 18.0531 8.55469 18.2516 9.04531 18.2516C9.14687 18.2516 9.24531 18.2437 9.34531 18.2266C11.4141 17.8859 13.4672 16.7844 15.125 15.1281C16.7812 13.4688 17.8813 11.4156 18.225 9.34531C18.3234 8.75781 18.1266 8.15312 17.7047 7.72969ZM17.1172 9.15937C16.8125 11.0016 15.8219 12.8391 14.3297 14.3312C12.8375 15.8234 11.0016 16.8141 9.15938 17.1187C8.92813 17.1578 8.69062 17.0797 8.52187 16.9125L6.88906 15.2797L8.62031 13.5469L10.4922 15.4219L10.5062 15.4359L10.8438 15.3109C11.8671 14.9347 12.7964 14.3404 13.5672 13.5693C14.338 12.7983 14.9319 11.8688 15.3078 10.8453L15.4328 10.5078L13.5453 8.62187L15.2766 6.88906L16.9094 8.52187C17.0781 8.69062 17.1562 8.92812 17.1172 9.15937Z" fill="white"/>
</svg>
