<svg width="40" height="40" viewBox="0 0 40 40" fill="none" xmlns="http://www.w3.org/2000/svg">
<path d="M0 20C0 8.95431 8.95431 0 20 0C31.0457 0 40 8.95431 40 20C40 31.0457 31.0457 40 20 40C8.95431 40 0 31.0457 0 20Z" fill="#FF5B64"/>
<path d="M27.2969 14.4961L25.2168 12.418C25.0701 12.2706 24.8957 12.1537 24.7036 12.0739C24.5115 11.9941 24.3056 11.9531 24.0977 11.9531C23.6738 11.9531 23.2754 12.1191 22.9766 12.418L20.7383 14.6562C20.5909 14.803 20.474 14.9774 20.3942 15.1694C20.3144 15.3615 20.2734 15.5674 20.2734 15.7754C20.2734 16.1992 20.4395 16.5977 20.7383 16.8965L22.375 18.5332C21.9919 19.3777 21.4592 20.1459 20.8027 20.8008C20.1479 21.4589 19.3797 21.9935 18.5352 22.3789L16.8984 20.7422C16.7517 20.5948 16.5773 20.4779 16.3852 20.3981C16.1932 20.3183 15.9873 20.2773 15.7793 20.2773C15.3555 20.2773 14.957 20.4434 14.6582 20.7422L12.418 22.9785C12.2704 23.1255 12.1534 23.3002 12.0736 23.4926C11.9938 23.685 11.9529 23.8913 11.9531 24.0996C11.9531 24.5234 12.1191 24.9219 12.418 25.2207L14.4941 27.2969C14.9707 27.7754 15.6289 28.0469 16.3047 28.0469C16.4473 28.0469 16.584 28.0352 16.7188 28.0117C19.3516 27.5781 21.9629 26.1777 24.0703 24.0723C26.1758 21.9688 27.5742 19.3594 28.0137 16.7188C28.1465 15.9121 27.8789 15.082 27.2969 14.4961Z" fill="white"/>
</svg>
