<svg width="24" height="24" viewBox="0 0 24 24" fill="none" xmlns="http://www.w3.org/2000/svg">
<circle cx="12" cy="12" r="11.5" stroke="#ECEDF0"/>
<path d="M6.62504 11.8781C6.64066 11.1953 6.78129 10.5328 7.04535 9.90938C7.31566 9.26875 7.70316 8.69531 8.19691 8.2C8.69066 7.70469 9.26566 7.31719 9.90629 7.04688C10.5688 6.76719 11.2719 6.625 11.9985 6.625C12.725 6.625 13.4282 6.76719 14.0891 7.04688C14.7279 7.31663 15.308 7.70831 15.7969 8.2C15.9516 8.35469 16.0969 8.51875 16.2313 8.69063L15.2907 9.425C15.2721 9.4394 15.2579 9.45875 15.2498 9.48085C15.2417 9.50294 15.24 9.52687 15.2449 9.54988C15.2498 9.5729 15.2611 9.59406 15.2775 9.61094C15.2939 9.62783 15.3147 9.63974 15.3375 9.64531L18.0829 10.3172C18.161 10.3359 18.2375 10.2766 18.2375 10.1969L18.25 7.37031C18.25 7.26562 18.1297 7.20625 18.0485 7.27187L17.1672 7.96094C15.9657 6.42344 14.0969 5.4375 11.9969 5.4375C8.41723 5.4375 5.50473 8.30625 5.43754 11.8719C5.43712 11.8886 5.44005 11.9051 5.44614 11.9207C5.45224 11.9362 5.46138 11.9503 5.47303 11.9623C5.48468 11.9742 5.4986 11.9837 5.51397 11.9902C5.52934 11.9967 5.54586 12 5.56254 12H6.50004C6.56879 12 6.62348 11.9453 6.62504 11.8781ZM18.4375 12H17.5C17.4313 12 17.3766 12.0547 17.375 12.1219C17.3594 12.8047 17.2188 13.4672 16.9547 14.0906C16.6844 14.7312 16.2969 15.3063 15.8032 15.8C15.3048 16.3004 14.7123 16.6972 14.0598 16.9675C13.4074 17.2379 12.7078 17.3763 12.0016 17.375C11.2956 17.3763 10.5963 17.2378 9.9441 16.9675C9.29189 16.6972 8.69967 16.3004 8.2016 15.8C8.04691 15.6453 7.9016 15.4812 7.76723 15.3094L8.70785 14.575C8.72646 14.5606 8.74063 14.5412 8.74873 14.5192C8.75683 14.4971 8.75853 14.4731 8.75363 14.4501C8.74873 14.4271 8.73744 14.4059 8.72105 14.3891C8.70466 14.3722 8.68384 14.3603 8.66098 14.3547L5.91566 13.6828C5.83754 13.6641 5.76098 13.7234 5.76098 13.8031L5.75004 16.6313C5.75004 16.7359 5.87035 16.7953 5.9516 16.7297L6.83285 16.0406C8.03441 17.5766 9.90316 18.5625 12.0032 18.5625C15.5844 18.5625 18.4954 15.6922 18.5625 12.1281C18.563 12.1114 18.56 12.0949 18.5539 12.0793C18.5478 12.0638 18.5387 12.0496 18.5271 12.0377C18.5154 12.0258 18.5015 12.0163 18.4861 12.0098C18.4707 12.0033 18.4542 12 18.4375 12Z" fill="#9292A3"/>
</svg>
