<svg width="28" height="28" viewBox="0 0 28 28" fill="none" xmlns="http://www.w3.org/2000/svg">
<rect width="28" height="28" rx="14" fill="#5F37B6"/>
<path d="M19.0312 8.53125C18.9793 8.53125 18.926 8.54082 18.8727 8.5627L10.9922 11.7291H8.75C8.62969 11.7291 8.53125 11.8303 8.53125 11.9561V16.0439C8.53125 16.1697 8.62969 16.2709 8.75 16.2709H10.1391C10.0885 16.4295 10.0625 16.5977 10.0625 16.7686C10.0625 17.6695 10.798 18.4023 11.7031 18.4023C12.4605 18.4023 13.099 17.8883 13.2877 17.1937L18.874 19.4387C18.9273 19.4592 18.9807 19.4701 19.0326 19.4701C19.2637 19.4701 19.4701 19.276 19.4701 19.0162V8.98516C19.4687 8.72539 19.2637 8.53125 19.0312 8.53125ZM11.7031 17.4221C11.3408 17.4221 11.0469 17.1295 11.0469 16.7686C11.0469 16.6154 11.1002 16.4691 11.1973 16.3529L12.358 16.8191C12.3307 17.1555 12.0477 17.4221 11.7031 17.4221Z" fill="white"/>
</svg>
