<svg width="16" height="16" viewBox="0 0 16 16" fill="none" xmlns="http://www.w3.org/2000/svg">
<path d="M15.8625 4.11478L11.885 0.137297C11.702 -0.0457658 11.4052 -0.0457658 11.2221 0.137297L9.17088 2.18856C8.98782 2.37162 8.98782 2.6684 9.17088 2.85146L9.37394 3.05453L4.00892 5.73704C3.90623 5.78838 3.82595 5.87563 3.78333 5.98223L0.0349373 15.3531C0.0343747 15.3545 0.0338435 15.3558 0.0333122 15.3572C0.0284997 15.3692 0.0243435 15.3814 0.0205934 15.3936C0.0124684 15.4201 0.00606213 15.4508 0.00284337 15.4801C-0.0109379 15.6061 0.0259997 15.7265 0.100125 15.8206C0.102875 15.8241 0.105594 15.8277 0.108469 15.8311C0.221313 15.9665 0.394532 16.0228 0.556939 15.9916C0.568939 15.9893 0.580783 15.9863 0.592627 15.983C0.595096 15.9823 0.597627 15.9819 0.600096 15.9812C0.615908 15.9766 0.631502 15.9711 0.646846 15.9648L10.0177 12.2165C10.1243 12.1739 10.2115 12.0936 10.2629 11.9909L12.9454 6.62589L13.1484 6.82895C13.24 6.92048 13.3599 6.96626 13.4799 6.96626C13.5998 6.96626 13.7198 6.92051 13.8113 6.82895L15.8626 4.77769C16.0456 4.59466 16.0456 4.29788 15.8625 4.11478ZM9.50401 11.4122L2.41479 14.2479L6.42512 10.2376C6.60871 10.3256 6.81421 10.3751 7.03103 10.3751C7.80644 10.3751 8.43728 9.74421 8.43728 8.9688C8.43728 8.19339 7.80644 7.56255 7.03103 7.56255C6.25562 7.56255 5.62477 8.19339 5.62477 8.9688C5.62477 9.18561 5.67418 9.39115 5.76221 9.57471L1.75188 13.585L4.58755 6.49582L10.0727 3.75328L12.2465 5.92713L9.50401 11.4122ZM6.56228 8.9688C6.56228 8.71033 6.77256 8.50005 7.03103 8.50005C7.2895 8.50005 7.49978 8.71033 7.49978 8.9688C7.49978 9.22727 7.2895 9.43755 7.03103 9.43755C6.77256 9.43755 6.56228 9.22727 6.56228 8.9688ZM13.4798 5.83457L13.1424 5.4971C13.1421 5.49682 13.1418 5.49654 13.1415 5.49626L10.5036 2.85834C10.5033 2.858 10.5029 2.85765 10.5026 2.85731L10.1653 2.52003L11.5536 1.13171L14.8682 4.44628L13.4798 5.83457Z" fill="white"/>
</svg>
