<svg width="28" height="28" viewBox="0 0 28 28" fill="none" xmlns="http://www.w3.org/2000/svg">
<path d="M5.05556 17.7003V12.2559H4.66667C4.02234 12.2559 3.5 12.7782 3.5 13.4225V16.5336C3.5 17.178 4.02234 17.7003 4.66667 17.7003H5.05556Z" fill="#3D3D46"/>
<path d="M22.556 11.0898H21.0004C20.5709 11.0898 20.2227 11.4381 20.2227 11.8676V18.0898C20.2227 18.5194 20.5709 18.8676 21.0004 18.8676H22.556C22.9855 18.8676 23.3338 18.5194 23.3338 18.0898V11.8676C23.3338 11.4381 22.9855 11.0898 22.556 11.0898Z" fill="#3D3D46"/>
<path d="M23.3322 12.2559H22.9434V17.7003H23.3322C23.9766 17.7003 24.4989 17.178 24.4989 16.5336V13.4225C24.4989 12.7782 23.9766 12.2559 23.3322 12.2559Z" fill="#3D3D46"/>
<path d="M7.0008 11.0828C7.56838 7.71296 10.5834 4.47451 14.0008 4.47451C17.4181 4.47451 20.4332 7.71296 21.0008 11.0828H22.5564C21.9436 6.87877 18.2415 2.99023 13.993 2.99023C9.7445 2.99023 6.04241 6.87877 5.42969 11.0828H6.98524H7.0008Z" fill="#3D3D46"/>
<path d="M5.44379 18.8676H5.83268V20.8121C5.83268 22.7451 7.39969 24.3121 9.33269 24.3121H10.9582C11.1226 24.7771 11.5617 25.0885 12.0549 25.0899H15.9438C16.5881 25.0899 17.1105 24.5675 17.1105 23.9232C17.1105 23.2789 16.5881 22.7565 15.9438 22.7565H12.0549C11.5617 22.7579 11.1226 23.0693 10.9582 23.5343H9.33269C7.82924 23.5343 6.61046 22.3155 6.61046 20.8121V18.8676H6.99935C7.42891 18.8676 7.77713 18.5194 7.77713 18.0899V11.8676C7.77713 11.4381 7.42891 11.0898 6.99935 11.0898H5.44379C5.01424 11.0898 4.66602 11.4381 4.66602 11.8676V18.0899C4.66602 18.5194 5.01424 18.8676 5.44379 18.8676Z" fill="#3D3D46"/>
</svg>
