<svg width="24" height="24" viewBox="0 0 24 24" fill="none" xmlns="http://www.w3.org/2000/svg">
<rect width="24" height="24" rx="12" fill="#5F37B6"/>
<g clip-path="url(#clip0)">
<path d="M16.745 6.08977C16.67 6.04477 16.59 6.00977 16.5 6.00977H9.36L10.36 7.00977H14.675C14.565 7.23977 14.5 7.48977 14.5 7.75977V16.2398C14.5 16.6548 14.165 16.9898 13.75 16.9898C13.335 16.9898 13 16.6548 13 16.2398V15.0098C13 14.7348 12.775 14.5098 12.5 14.5098H8V11.3448L7 10.3448V14.5098H6.5C6.225 14.5098 6 14.7348 6 15.0098V16.4898C6 17.3148 6.675 17.9898 7.5 17.9898H13.75C14.23 17.9898 14.67 17.7948 14.985 17.4748C15.305 17.1598 15.5 16.7198 15.5 16.2398V9.00977H17.5C17.775 9.00977 18 8.78477 18 8.50977V7.75977C18 6.96977 17.47 6.30477 16.745 6.08977Z" fill="white"/>
<path d="M12.1244 12.4996C12.0999 12.4996 12.0754 12.4971 12.0509 12.4921L10.2994 12.1421C10.2264 12.1276 10.1599 12.0921 10.1079 12.0396L6.25444 8.18613C5.91494 7.84663 5.91544 7.29413 6.25444 6.95513L6.95494 6.25463C7.29394 5.91513 7.84594 5.91513 8.18544 6.25463L12.0389 10.1086C12.0914 10.1606 12.1269 10.2276 12.1414 10.3001L12.4919 12.0516C12.5164 12.1746 12.4779 12.3016 12.3894 12.3901C12.3184 12.4606 12.2229 12.4996 12.1244 12.4996Z" fill="white"/>
</g>
<defs>
<clipPath id="clip0">
<rect width="12" height="12" fill="white" transform="translate(6 6)"/>
</clipPath>
</defs>
</svg>
