<svg width="16" height="22" viewBox="0 0 16 22" fill="none" xmlns="http://www.w3.org/2000/svg">
<path d="M8 12.75C9.46719 12.75 10.6562 11.575 10.6562 10.125V6.625C10.6562 5.175 9.46719 4 8 4C6.53281 4 5.34375 5.175 5.34375 6.625V10.125C5.34375 11.575 6.53281 12.75 8 12.75ZM13.1562 10.0938C13.1562 10.025 13.1 9.96875 13.0312 9.96875H12.0938C12.025 9.96875 11.9688 10.025 11.9688 10.0938C11.9688 12.2859 10.1922 14.0625 8 14.0625C5.80781 14.0625 4.03125 12.2859 4.03125 10.0938C4.03125 10.025 3.975 9.96875 3.90625 9.96875H2.96875C2.9 9.96875 2.84375 10.025 2.84375 10.0938C2.84375 12.7297 4.82188 14.9047 7.375 15.2125V16.8125H5.10469C4.89063 16.8125 4.71875 17.0359 4.71875 17.3125V17.875C4.71875 17.9438 4.7625 18 4.81563 18H11.1844C11.2375 18 11.2812 17.9438 11.2812 17.875V17.3125C11.2812 17.0359 11.1094 16.8125 10.8953 16.8125H8.5625V15.2203C11.1453 14.9391 13.1562 12.7516 13.1562 10.0938Z" fill="#F5222D"/>
</svg>
