<?xml version="1.0" encoding="utf-8"?>
<svg viewBox="0 0 40 40" width="40" height="40" fill="none" xmlns="http://www.w3.org/2000/svg">
  <path d="M0 20C0 8.95431 8.95431 0 20 0C31.0457 0 40 8.95431 40 20C40 31.0457 31.0457 40 20 40C8.95431 40 0 31.0457 0 20Z" fill="white"/>
  <path d="M20 22.1875C21.834 22.1875 23.3203 20.7188 23.3203 18.9062V14.5312C23.3203 12.7188 21.834 11.25 20 11.25C18.166 11.25 16.6797 12.7188 16.6797 14.5312V18.9062C16.6797 20.7188 18.166 22.1875 20 22.1875ZM26.4453 18.8672C26.4453 18.7812 26.375 18.7109 26.2891 18.7109H25.1172C25.0312 18.7109 24.9609 18.7812 24.9609 18.8672C24.9609 21.6074 22.7402 23.8281 20 23.8281C17.2598 23.8281 15.0391 21.6074 15.0391 18.8672C15.0391 18.7812 14.9688 18.7109 14.8828 18.7109H13.7109C13.625 18.7109 13.5547 18.7812 13.5547 18.8672C13.5547 22.1621 16.0273 24.8809 19.2188 25.2656V27.2656H16.3809C16.1133 27.2656 15.8984 27.5449 15.8984 27.8906V28.5938C15.8984 28.6797 15.9531 28.75 16.0195 28.75H23.9805C24.0469 28.75 24.1016 28.6797 24.1016 28.5938V27.8906C24.1016 27.5449 23.8867 27.2656 23.6191 27.2656H20.7031V25.2754C23.9316 24.9238 26.4453 22.1895 26.4453 18.8672Z" fill="#9292A3"/>
  <path d="M20 39C9.50659 39 1 30.4934 1 20H-1C-1 31.598 8.40202 41 20 41V39ZM39 20C39 30.4934 30.4934 39 20 39V41C31.598 41 41 31.598 41 20H39ZM20 1C30.4934 1 39 9.50659 39 20H41C41 8.40202 31.598 -1 20 -1V1ZM20 -1C8.40202 -1 -1 8.40202 -1 20H1C1 9.50659 9.50659 1 20 1V-1Z" fill="#ECEDF0"/>
  <line style="stroke-width: 3px; stroke: rgb(236, 237, 240);" x1="34.90909090909091" y1="6.1818181818181825" x2="6.254545454545455" y2="34.90909090909091"/>
</svg>