<svg width="48" height="48" viewBox="0 0 48 48" fill="none" xmlns="http://www.w3.org/2000/svg">
<path d="M22.834 9.47301V23.193C22.834 23.27 22.9507 23.333 23.0932 23.333H24.9081C25.0507 23.333 25.1673 23.27 25.1673 23.193V9.47301C25.1673 9.39601 25.0507 9.33301 24.9081 9.33301H23.0932C22.9507 9.33301 22.834 9.39601 22.834 9.47301Z" fill="#54B2D3"/>
<path d="M28.666 4.85301V23.1463C28.666 23.249 28.7827 23.333 28.9253 23.333H30.7401C30.8827 23.333 30.9993 23.249 30.9993 23.1463V4.85301C30.9993 4.75034 30.8827 4.66634 30.7401 4.66634H28.9253C28.7827 4.66634 28.666 4.75034 28.666 4.85301Z" fill="#54B2D3"/>
<path d="M17 14.093V23.2397C17 23.291 17.1167 23.333 17.2593 23.333H19.0741C19.2167 23.333 19.3333 23.291 19.3333 23.2397V14.093C19.3333 14.0417 19.2167 13.9997 19.0741 13.9997H17.2593C17.1167 13.9997 17 14.0417 17 14.093Z" fill="#54B2D3"/>
<path d="M8.076 44H6.852L2.256 37.064V44H1.08V35.492H2.652L6.9 42.02V35.492H8.076V44ZM10.8443 40.52H14.0003C13.9843 40.088 13.8403 39.736 13.5683 39.464C13.2963 39.184 12.9123 39.044 12.4163 39.044C11.9683 39.044 11.6003 39.192 11.3123 39.488C11.0243 39.776 10.8683 40.12 10.8443 40.52ZM14.1683 42.02L15.1403 42.356C14.9723 42.892 14.6603 43.332 14.2043 43.676C13.7483 44.012 13.1963 44.18 12.5483 44.18C11.7403 44.18 11.0523 43.904 10.4843 43.352C9.92434 42.792 9.64434 42.04 9.64434 41.096C9.64434 40.216 9.91634 39.488 10.4603 38.912C11.0043 38.336 11.6523 38.048 12.4043 38.048C13.2763 38.048 13.9563 38.324 14.4443 38.876C14.9323 39.42 15.1763 40.152 15.1763 41.072C15.1763 41.216 15.1683 41.336 15.1523 41.432H10.8083C10.8163 41.944 10.9843 42.364 11.3123 42.692C11.6483 43.02 12.0603 43.184 12.5483 43.184C13.3723 43.184 13.9123 42.796 14.1683 42.02ZM18.1283 36.404V38.228H19.3763V39.248H18.1283V42.248C18.1283 42.52 18.1883 42.72 18.3083 42.848C18.4363 42.976 18.6443 43.04 18.9323 43.04C19.1003 43.04 19.2483 43.024 19.3763 42.992V43.952C19.1843 44.024 18.9283 44.06 18.6083 44.06C18.1123 44.06 17.7203 43.916 17.4323 43.628C17.1443 43.34 17.0003 42.936 17.0003 42.416V39.248H15.8963V38.228H16.2083C16.5043 38.228 16.7243 38.148 16.8683 37.988C17.0203 37.82 17.0963 37.604 17.0963 37.34V36.404H18.1283ZM24.2511 38.228H25.4151L26.9151 42.572L28.1871 38.228H29.3751L27.5031 44H26.3391L24.8031 39.608L23.3031 44H22.1151L20.2191 38.228H21.4551L22.7511 42.572L24.2511 38.228ZM31.5855 42.632C31.9375 42.992 32.3655 43.172 32.8695 43.172C33.3735 43.172 33.7975 42.992 34.1415 42.632C34.4935 42.264 34.6695 41.756 34.6695 41.108C34.6695 40.468 34.4935 39.968 34.1415 39.608C33.7975 39.24 33.3735 39.056 32.8695 39.056C32.3655 39.056 31.9375 39.24 31.5855 39.608C31.2415 39.968 31.0695 40.468 31.0695 41.108C31.0695 41.756 31.2415 42.264 31.5855 42.632ZM30.7455 38.924C31.3055 38.34 32.0135 38.048 32.8695 38.048C33.7255 38.048 34.4295 38.34 34.9815 38.924C35.5415 39.5 35.8215 40.228 35.8215 41.108C35.8215 41.996 35.5455 42.732 34.9935 43.316C34.4415 43.892 33.7335 44.18 32.8695 44.18C32.0055 44.18 31.2975 43.892 30.7455 43.316C30.1935 42.732 29.9175 41.996 29.9175 41.108C29.9175 40.228 30.1935 39.5 30.7455 38.924ZM40.4687 38.168V39.368C40.3007 39.344 40.1367 39.332 39.9767 39.332C38.9207 39.332 38.3927 39.924 38.3927 41.108V44H37.2647V38.228H38.3687V39.236C38.7207 38.5 39.2967 38.132 40.0967 38.132C40.2247 38.132 40.3487 38.144 40.4687 38.168ZM46.8429 38.228L44.3829 40.664L46.8909 44H45.4749L43.5909 41.456L42.7869 42.26V44H41.6709V35.312H42.7869V40.784L45.2829 38.228H46.8429Z" fill="#9292A3"/>
</svg>
