<svg width="28" height="28" viewBox="0 0 28 28" fill="none" xmlns="http://www.w3.org/2000/svg">
<rect width="28" height="28" rx="14" fill="#FEA832"/>
<path d="M16.2422 15.5176C15.9852 15.5176 15.7773 15.7254 15.7773 15.9824C15.7773 16.2395 15.9852 16.4473 16.2422 16.4473C16.4992 16.4473 16.707 16.2395 16.707 15.9824C16.707 15.7254 16.4992 15.5176 16.2422 15.5176ZM19.0312 9.29688H16.1328C16.1328 8.87441 15.7896 8.53125 15.3672 8.53125H14.2734C13.851 8.53125 13.5078 8.87441 13.5078 9.29688H10.6094C10.3674 9.29688 10.1719 9.49238 10.1719 9.73438V12.4688H8.96875C8.72676 12.4688 8.53125 12.6643 8.53125 12.9062V19.0312C8.53125 19.2732 8.72676 19.4688 8.96875 19.4688H13.5625C13.8045 19.4688 14 19.2732 14 19.0312V18.8125H19.0312C19.2732 18.8125 19.4688 18.617 19.4688 18.375V9.73438C19.4688 9.49238 19.2732 9.29688 19.0312 9.29688ZM13.125 18.5938H9.40625V15.4219H13.125V18.5938ZM13.125 14.5469H9.40625V13.3438H13.125V14.5469ZM13.3984 10.8281V10.1719H14.3828V9.40625H15.2578V10.1719H16.2422V10.8281H13.3984ZM15.8594 13.125V13.8906C15.8594 13.9508 15.8102 14 15.75 14H15.0938C15.0336 14 14.9844 13.9508 14.9844 13.8906V13.125C14.9844 13.0648 15.0336 13.0156 15.0938 13.0156H15.75C15.8102 13.0156 15.8594 13.0648 15.8594 13.125ZM16.2422 17.2402C15.5477 17.2402 14.9844 16.677 14.9844 15.9824C14.9844 15.2879 15.5477 14.7246 16.2422 14.7246C16.9367 14.7246 17.5 15.2879 17.5 15.9824C17.5 16.677 16.9367 17.2402 16.2422 17.2402ZM17.5 13.8906C17.5 13.9508 17.4508 14 17.3906 14H16.7344C16.6742 14 16.625 13.9508 16.625 13.8906V12.5781C16.625 12.518 16.6742 12.4688 16.7344 12.4688H17.3906C17.4508 12.4688 17.5 12.518 17.5 12.5781V13.8906ZM16.2422 14.7246C15.5477 14.7246 14.9844 15.2879 14.9844 15.9824C14.9844 16.677 15.5477 17.2402 16.2422 17.2402C16.9367 17.2402 17.5 16.677 17.5 15.9824C17.5 15.2879 16.9367 14.7246 16.2422 14.7246ZM16.2422 16.4473C15.9852 16.4473 15.7773 16.2395 15.7773 15.9824C15.7773 15.7254 15.9852 15.5176 16.2422 15.5176C16.4992 15.5176 16.707 15.7254 16.707 15.9824C16.707 16.2395 16.4992 16.4473 16.2422 16.4473Z" fill="white"/>
</svg>
