<svg width="74" height="18" viewBox="0 0 74 18" fill="none" xmlns="http://www.w3.org/2000/svg">
<path d="M15.8238 14L13.5558 9.94H12.0718V14H10.6858V4.074H14.4238C15.3384 4.074 16.0711 4.35867 16.6218 4.928C17.1818 5.488 17.4618 6.188 17.4618 7.028C17.4618 7.74667 17.2471 8.36267 16.8178 8.876C16.3884 9.38 15.8004 9.702 15.0538 9.842L17.4198 14H15.8238ZM12.0718 8.708H14.1718C14.7318 8.708 15.1844 8.55867 15.5298 8.26C15.8751 7.952 16.0478 7.54133 16.0478 7.028C16.0478 6.50533 15.8751 6.09 15.5298 5.782C15.1844 5.46467 14.7318 5.306 14.1718 5.306H12.0718V8.708ZM19.7943 9.94H23.4763C23.4576 9.436 23.2896 9.02533 22.9723 8.708C22.655 8.38133 22.207 8.218 21.6283 8.218C21.1056 8.218 20.6763 8.39067 20.3403 8.736C20.0043 9.072 19.8223 9.47333 19.7943 9.94ZM23.6723 11.69L24.8063 12.082C24.6103 12.7073 24.2463 13.2207 23.7143 13.622C23.1823 14.014 22.5383 14.21 21.7823 14.21C20.8396 14.21 20.037 13.888 19.3743 13.244C18.721 12.5907 18.3943 11.7133 18.3943 10.612C18.3943 9.58533 18.7116 8.736 19.3463 8.064C19.981 7.392 20.737 7.056 21.6143 7.056C22.6316 7.056 23.425 7.378 23.9943 8.022C24.5636 8.65667 24.8483 9.51067 24.8483 10.584C24.8483 10.752 24.839 10.892 24.8203 11.004H19.7523C19.7616 11.6013 19.9576 12.0913 20.3403 12.474C20.7323 12.8567 21.213 13.048 21.7823 13.048C22.7436 13.048 23.3736 12.5953 23.6723 11.69ZM29.3562 8.274C28.7869 8.274 28.3015 8.47933 27.9002 8.89C27.5082 9.30067 27.3122 9.87933 27.3122 10.626C27.3122 11.3633 27.5082 11.942 27.9002 12.362C28.3015 12.782 28.7915 12.992 29.3702 12.992C29.9302 12.992 30.3549 12.852 30.6442 12.572C30.9429 12.292 31.1435 11.97 31.2462 11.606L32.4082 12.11C32.2215 12.67 31.8669 13.16 31.3442 13.58C30.8309 14 30.1729 14.21 29.3702 14.21C28.3902 14.21 27.5782 13.8693 26.9342 13.188C26.2902 12.5067 25.9682 11.6527 25.9682 10.626C25.9682 9.58067 26.2902 8.72667 26.9342 8.064C27.5782 7.392 28.3855 7.056 29.3562 7.056C30.1775 7.056 30.8402 7.266 31.3442 7.686C31.8575 8.106 32.1935 8.61 32.3522 9.198L31.1622 9.702C31.0595 9.31 30.8635 8.974 30.5742 8.694C30.2849 8.414 29.8789 8.274 29.3562 8.274ZM35.2697 12.404C35.6803 12.824 36.1797 13.034 36.7677 13.034C37.3557 13.034 37.8503 12.824 38.2517 12.404C38.6623 11.9747 38.8677 11.382 38.8677 10.626C38.8677 9.87933 38.6623 9.296 38.2517 8.876C37.8503 8.44667 37.3557 8.232 36.7677 8.232C36.1797 8.232 35.6803 8.44667 35.2697 8.876C34.8683 9.296 34.6677 9.87933 34.6677 10.626C34.6677 11.382 34.8683 11.9747 35.2697 12.404ZM34.2897 8.078C34.943 7.39667 35.769 7.056 36.7677 7.056C37.7663 7.056 38.5877 7.39667 39.2317 8.078C39.885 8.75 40.2117 9.59933 40.2117 10.626C40.2117 11.662 39.8897 12.5207 39.2457 13.202C38.6017 13.874 37.7757 14.21 36.7677 14.21C35.7597 14.21 34.9337 13.874 34.2897 13.202C33.6457 12.5207 33.3237 11.662 33.3237 10.626C33.3237 9.59933 33.6457 8.75 34.2897 8.078ZM45.6334 7.196V8.596C45.4374 8.568 45.2461 8.554 45.0594 8.554C43.8274 8.554 43.2114 9.24467 43.2114 10.626V14H41.8954V7.266H43.1834V8.442C43.5941 7.58333 44.2661 7.154 45.1994 7.154C45.3487 7.154 45.4934 7.168 45.6334 7.196ZM47.7517 10.612C47.7517 11.3213 47.9243 11.9 48.2697 12.348C48.6243 12.796 49.1097 13.02 49.7257 13.02C50.3137 13.02 50.785 12.7913 51.1397 12.334C51.4943 11.8767 51.6717 11.2933 51.6717 10.584C51.6717 9.884 51.499 9.31933 51.1537 8.89C50.8083 8.46067 50.337 8.246 49.7397 8.246C49.1423 8.246 48.6617 8.46533 48.2977 8.904C47.9337 9.34267 47.7517 9.912 47.7517 10.612ZM51.6857 13.09V12.978C51.5083 13.3233 51.2377 13.6127 50.8737 13.846C50.519 14.07 50.0943 14.182 49.5997 14.182C48.6383 14.182 47.8637 13.846 47.2757 13.174C46.697 12.4927 46.4077 11.6387 46.4077 10.612C46.4077 9.632 46.7063 8.80133 47.3037 8.12C47.901 7.42933 48.6663 7.084 49.5997 7.084C50.1503 7.084 50.5983 7.196 50.9437 7.42C51.289 7.63467 51.527 7.90067 51.6577 8.218V3.864H52.9597V12.754C52.9597 13.2113 52.983 13.6267 53.0297 14H51.7557C51.709 13.7387 51.6857 13.4353 51.6857 13.09ZM56.5001 14H55.1981V7.266H56.5001V14ZM55.1701 5.39C54.9928 5.20333 54.9041 4.97933 54.9041 4.718C54.9041 4.45667 54.9928 4.23267 55.1701 4.046C55.3568 3.85933 55.5808 3.766 55.8421 3.766C56.1035 3.766 56.3275 3.85933 56.5141 4.046C56.7008 4.22333 56.7941 4.44733 56.7941 4.718C56.7941 4.97933 56.7008 5.20333 56.5141 5.39C56.3275 5.56733 56.1035 5.656 55.8421 5.656C55.5808 5.656 55.3568 5.56733 55.1701 5.39ZM60.0551 10.108V14H58.7391V7.266H60.0271V8.232C60.4751 7.45733 61.1658 7.07 62.0991 7.07C62.8738 7.07 63.4665 7.31733 63.8771 7.812C64.2971 8.30667 64.5071 8.946 64.5071 9.73V14H63.1911V9.954C63.1911 8.82467 62.6685 8.26 61.6231 8.26C61.1285 8.26 60.7411 8.43733 60.4611 8.792C60.1905 9.13733 60.0551 9.576 60.0551 10.108ZM66.1105 14.364L67.3845 14.07C67.4311 14.546 67.6225 14.938 67.9585 15.246C68.2945 15.5633 68.7145 15.722 69.2185 15.722C70.5905 15.722 71.2765 14.994 71.2765 13.538V12.572C71.1085 12.8987 70.8425 13.1647 70.4785 13.37C70.1238 13.5753 69.7038 13.678 69.2185 13.678C68.3225 13.678 67.5805 13.3747 66.9925 12.768C66.4138 12.152 66.1245 11.368 66.1245 10.416C66.1245 9.492 66.4138 8.71733 66.9925 8.092C67.5711 7.45733 68.3131 7.14 69.2185 7.14C70.2451 7.14 70.9358 7.49467 71.2905 8.204V7.266H72.5925V13.496C72.5925 13.944 72.5318 14.3593 72.4105 14.742C72.2985 15.134 72.1165 15.4933 71.8645 15.82C71.6125 16.1467 71.2578 16.4033 70.8005 16.59C70.3525 16.7767 69.8251 16.87 69.2185 16.87C68.3878 16.87 67.6831 16.632 67.1045 16.156C66.5258 15.6893 66.1945 15.092 66.1105 14.364ZM69.4145 12.572C69.9838 12.572 70.4458 12.376 70.8005 11.984C71.1551 11.5827 71.3325 11.06 71.3325 10.416C71.3325 9.772 71.1551 9.254 70.8005 8.862C70.4458 8.46067 69.9838 8.26 69.4145 8.26C68.8358 8.26 68.3645 8.456 68.0005 8.848C67.6458 9.24 67.4685 9.76267 67.4685 10.416C67.4685 11.0787 67.6411 11.606 67.9865 11.998C68.3411 12.3807 68.8171 12.572 69.4145 12.572Z" fill="#9292A3"/>
<circle cx="2.5" cy="9.5" r="2.5" fill="#65CD98"/>
</svg>
