<svg width="28" height="28" viewBox="0 0 28 28" fill="none" xmlns="http://www.w3.org/2000/svg">
<rect width="28" height="28" rx="14" fill="#4DC6FA"/>
<path d="M18.699 9.88203L18.1193 9.30234C18.0988 9.28199 18.071 9.27057 18.0421 9.27057C18.0132 9.27057 17.9854 9.28199 17.9648 9.30234L9.30098 17.9635C9.28062 17.984 9.2692 18.0118 9.2692 18.0407C9.2692 18.0697 9.28062 18.0974 9.30098 18.118L9.88066 18.6977C9.92305 18.74 9.99277 18.74 10.0352 18.6977L18.6977 10.0352C18.7414 9.99414 18.7414 9.92441 18.699 9.88203ZM11.1562 13.125C12.2418 13.125 13.125 12.2418 13.125 11.1562C13.125 10.0707 12.2418 9.1875 11.1562 9.1875C10.0707 9.1875 9.1875 10.0707 9.1875 11.1562C9.1875 12.2418 10.0707 13.125 11.1562 13.125ZM11.1562 10.1719C11.699 10.1719 12.1406 10.6135 12.1406 11.1562C12.1406 11.699 11.699 12.1406 11.1562 12.1406C10.6135 12.1406 10.1719 11.699 10.1719 11.1562C10.1719 10.6135 10.6135 10.1719 11.1562 10.1719ZM16.8438 14.875C15.7582 14.875 14.875 15.7582 14.875 16.8438C14.875 17.9293 15.7582 18.8125 16.8438 18.8125C17.9293 18.8125 18.8125 17.9293 18.8125 16.8438C18.8125 15.7582 17.9293 14.875 16.8438 14.875ZM16.8438 17.8281C16.301 17.8281 15.8594 17.3865 15.8594 16.8438C15.8594 16.301 16.301 15.8594 16.8438 15.8594C17.3865 15.8594 17.8281 16.301 17.8281 16.8438C17.8281 17.3865 17.3865 17.8281 16.8438 17.8281Z" fill="white"/>
</svg>
