<svg width="24" height="24" viewBox="0 0 24 24" fill="none" xmlns="http://www.w3.org/2000/svg">
<rect width="24" height="24" rx="12" fill="#5F37B6"/>
<path d="M16.2585 6H7.74185C6.88786 6 6.19336 6.6945 6.19336 7.54849V14.5167C6.19336 15.3707 6.88786 16.0652 7.74185 16.0652V17.6129C7.74185 17.7631 7.82856 17.8993 7.96483 17.9636C8.0167 17.9876 8.07322 18 8.12897 18C8.21801 18 8.30627 17.9698 8.37673 17.9102L10.5918 16.0652H16.2585C17.1125 16.0652 17.807 15.3707 17.807 14.5167V7.54849C17.807 6.6945 17.1125 6 16.2585 6ZM8.90321 10.6455C9.54351 10.6455 10.0646 11.1665 10.0646 11.8068C10.0646 12.4471 9.54351 12.9682 8.90321 12.9682H8.12897C7.91528 12.9682 7.74185 12.7948 7.74185 12.5811C7.74185 12.3674 7.91528 12.1939 8.12897 12.1939H8.90321C9.1169 12.1939 9.29033 12.0205 9.29033 11.8068C9.29033 11.5931 9.1169 11.4197 8.90321 11.4197C8.26291 11.4197 7.74185 10.8986 7.74185 10.2583C7.74185 9.61804 8.26291 9.09697 8.90321 9.09697H9.67746C9.89115 9.09697 10.0646 9.2704 10.0646 9.4841C10.0646 9.69779 9.89115 9.87122 9.67746 9.87122H8.90321C8.68952 9.87122 8.51609 10.0446 8.51609 10.2583C8.51609 10.472 8.68952 10.6455 8.90321 10.6455ZM13.1616 12.5811C13.1616 12.7948 12.9881 12.9682 12.7744 12.9682C12.5607 12.9682 12.3873 12.7948 12.3873 12.5811V11.1239L12.3463 11.206C12.2147 11.4685 11.7849 11.4685 11.6533 11.206L11.6131 11.1239V12.5811C11.6131 12.7948 11.4396 12.9682 11.2259 12.9682C11.0123 12.9682 10.8388 12.7948 10.8388 12.5811V9.4841C10.8388 9.30447 10.9627 9.14807 11.1369 9.10704C11.3096 9.06523 11.4915 9.1504 11.572 9.31067L12.0002 10.167L12.4283 9.31144C12.5081 9.14962 12.6854 9.066 12.8635 9.10704C13.0384 9.14807 13.1616 9.30447 13.1616 9.4841V12.5811ZM15.0972 10.6455C15.7375 10.6455 16.2585 11.1665 16.2585 11.8068C16.2585 12.4471 15.7375 12.9682 15.0972 12.9682H14.3229C14.1092 12.9682 13.9358 12.7948 13.9358 12.5811C13.9358 12.3674 14.1092 12.1939 14.3229 12.1939H15.0972C15.3101 12.1939 15.4843 12.0205 15.4843 11.8068C15.4843 11.5931 15.3101 11.4197 15.0972 11.4197C14.4569 11.4197 13.9358 10.8986 13.9358 10.2583C13.9358 9.61804 14.4569 9.09697 15.0972 9.09697H15.8714C16.0851 9.09697 16.2585 9.2704 16.2585 9.4841C16.2585 9.69779 16.0851 9.87122 15.8714 9.87122H15.0972C14.8842 9.87122 14.71 10.0446 14.71 10.2583C14.71 10.472 14.8842 10.6455 15.0972 10.6455Z" fill="white"/>
</svg>
