<svg width="200" height="200" viewBox="0 0 200 200" fill="none" xmlns="http://www.w3.org/2000/svg">
<rect x="0.5" y="0.5" width="199" height="199" rx="3.5" fill="white" stroke="#CFCFD7"/>
<path d="M44.6871 118.656H41.4531V127H39.7731V118.656H36.5531V117.074H44.6871V118.656ZM48.9716 120.14V121.792C48.785 121.764 48.6076 121.75 48.4396 121.75C47.217 121.75 46.6056 122.417 46.6056 123.752V127H44.9816V120.182H46.5636V121.274C46.7223 120.91 46.979 120.625 47.3336 120.42C47.6883 120.205 48.0896 120.098 48.5376 120.098C48.687 120.098 48.8316 120.112 48.9716 120.14ZM49.921 125.152C49.921 124.573 50.1077 124.111 50.481 123.766C50.8637 123.411 51.363 123.187 51.979 123.094L53.729 122.828C54.065 122.781 54.233 122.618 54.233 122.338C54.233 122.03 54.1257 121.783 53.911 121.596C53.6963 121.4 53.3743 121.302 52.945 121.302C52.5343 121.302 52.2077 121.419 51.965 121.652C51.7223 121.876 51.5823 122.17 51.545 122.534L50.061 122.198C50.1263 121.582 50.4203 121.059 50.943 120.63C51.4657 120.191 52.1283 119.972 52.931 119.972C53.9203 119.972 54.6483 120.21 55.115 120.686C55.591 121.162 55.829 121.773 55.829 122.52V125.908C55.829 126.356 55.857 126.72 55.913 127H54.401C54.3543 126.86 54.331 126.571 54.331 126.132C53.883 126.851 53.183 127.21 52.231 127.21C51.5403 127.21 50.9803 127.009 50.551 126.608C50.131 126.197 49.921 125.712 49.921 125.152ZM52.539 125.936C53.043 125.936 53.449 125.801 53.757 125.53C54.0743 125.25 54.233 124.797 54.233 124.172V123.864L52.455 124.13C51.8483 124.233 51.545 124.541 51.545 125.054C51.545 125.297 51.6337 125.507 51.811 125.684C51.9883 125.852 52.231 125.936 52.539 125.936ZM59.4162 123.066V127H57.7922V120.182H59.3742V121.092C59.5889 120.719 59.8735 120.443 60.2282 120.266C60.5922 120.079 60.9795 119.986 61.3902 119.986C62.1929 119.986 62.8042 120.238 63.2242 120.742C63.6442 121.246 63.8542 121.895 63.8542 122.688V127H62.2302V122.968C62.2302 122.511 62.1182 122.147 61.8942 121.876C61.6702 121.596 61.3155 121.456 60.8302 121.456C60.3822 121.456 60.0322 121.61 59.7802 121.918C59.5375 122.217 59.4162 122.599 59.4162 123.066ZM65.2293 125.152L66.6433 124.76C66.6713 125.087 66.8066 125.362 67.0493 125.586C67.2919 125.81 67.6186 125.922 68.0293 125.922C68.3466 125.922 68.5939 125.847 68.7713 125.698C68.9579 125.549 69.0513 125.362 69.0513 125.138C69.0513 124.746 68.7853 124.494 68.2533 124.382L67.2453 124.158C66.6573 124.027 66.2046 123.785 65.8873 123.43C65.5699 123.075 65.4113 122.655 65.4113 122.17C65.4113 121.573 65.6539 121.059 66.1393 120.63C66.6246 120.191 67.2173 119.972 67.9173 119.972C68.3653 119.972 68.7619 120.037 69.1073 120.168C69.4526 120.299 69.7186 120.471 69.9053 120.686C70.1013 120.891 70.2506 121.092 70.3533 121.288C70.4559 121.484 70.5213 121.68 70.5493 121.876L69.1773 122.268C69.1399 122.007 69.0186 121.773 68.8133 121.568C68.6173 121.353 68.3186 121.246 67.9173 121.246C67.6373 121.246 67.4039 121.325 67.2173 121.484C67.0306 121.633 66.9373 121.815 66.9373 122.03C66.9373 122.413 67.1659 122.651 67.6233 122.744L68.6593 122.954C69.2939 123.094 69.7793 123.346 70.1153 123.71C70.4513 124.074 70.6193 124.513 70.6193 125.026C70.6193 125.595 70.3906 126.104 69.9333 126.552C69.4853 126.991 68.8553 127.21 68.0433 127.21C67.5766 127.21 67.1566 127.14 66.7833 127C66.4193 126.86 66.1299 126.683 65.9153 126.468C65.7099 126.244 65.5466 126.025 65.4253 125.81C65.3133 125.586 65.2479 125.367 65.2293 125.152ZM75.2537 118.25C74.983 118.25 74.745 118.329 74.5397 118.488C74.3437 118.637 74.2457 118.903 74.2457 119.286V120.182H75.8277V121.596H74.2457V127H72.6077V121.596H71.4177V120.182H72.6077V119.244C72.6077 118.488 72.827 117.891 73.2657 117.452C73.7044 117.013 74.2784 116.794 74.9877 116.794C75.3704 116.794 75.655 116.841 75.8417 116.934V118.32C75.6737 118.273 75.4777 118.25 75.2537 118.25ZM78.0531 122.842H81.3991C81.3805 122.413 81.2265 122.053 80.9371 121.764C80.6571 121.475 80.2511 121.33 79.7191 121.33C79.2338 121.33 78.8418 121.484 78.5431 121.792C78.2445 122.091 78.0811 122.441 78.0531 122.842ZM81.5811 124.62L82.9531 125.054C82.7571 125.679 82.3885 126.197 81.8471 126.608C81.3151 127.009 80.6571 127.21 79.8731 127.21C78.9025 127.21 78.0765 126.879 77.3951 126.216C76.7231 125.553 76.3871 124.667 76.3871 123.556C76.3871 122.511 76.7138 121.652 77.3671 120.98C78.0298 120.308 78.8091 119.972 79.7051 119.972C80.7505 119.972 81.5671 120.294 82.1551 120.938C82.7431 121.573 83.0371 122.431 83.0371 123.514C83.0371 123.803 83.0231 123.976 82.9951 124.032H78.0111C78.0298 124.545 78.2165 124.97 78.5711 125.306C78.9351 125.642 79.3691 125.81 79.8731 125.81C80.7505 125.81 81.3198 125.413 81.5811 124.62ZM88.5791 120.14V121.792C88.3924 121.764 88.2151 121.75 88.0471 121.75C86.8244 121.75 86.2131 122.417 86.2131 123.752V127H84.5891V120.182H86.1711V121.274C86.3297 120.91 86.5864 120.625 86.9411 120.42C87.2957 120.205 87.6971 120.098 88.1451 120.098C88.2944 120.098 88.4391 120.112 88.5791 120.14ZM96.3481 121.47C95.8254 121.47 95.3821 121.661 95.0181 122.044C94.6541 122.417 94.4721 122.931 94.4721 123.584C94.4721 124.247 94.6541 124.769 95.0181 125.152C95.3914 125.535 95.8441 125.726 96.3761 125.726C96.8521 125.726 97.2301 125.6 97.5101 125.348C97.7994 125.087 97.9907 124.793 98.0841 124.466L99.5121 124.984C99.3254 125.591 98.9614 126.113 98.4201 126.552C97.8881 126.991 97.2067 127.21 96.3761 127.21C95.3774 127.21 94.5374 126.865 93.8561 126.174C93.1841 125.483 92.8481 124.62 92.8481 123.584C92.8481 122.539 93.1794 121.675 93.8421 120.994C94.5141 120.313 95.3447 119.972 96.3341 119.972C97.1834 119.972 97.8741 120.191 98.4061 120.63C98.9474 121.069 99.2974 121.596 99.4561 122.212L98.0001 122.744C97.9067 122.389 97.7247 122.091 97.4541 121.848C97.1927 121.596 96.8241 121.47 96.3481 121.47ZM100.493 125.152C100.493 124.573 100.68 124.111 101.053 123.766C101.436 123.411 101.935 123.187 102.551 123.094L104.301 122.828C104.637 122.781 104.805 122.618 104.805 122.338C104.805 122.03 104.698 121.783 104.483 121.596C104.269 121.4 103.947 121.302 103.517 121.302C103.107 121.302 102.78 121.419 102.537 121.652C102.295 121.876 102.155 122.17 102.117 122.534L100.633 122.198C100.699 121.582 100.993 121.059 101.515 120.63C102.038 120.191 102.701 119.972 103.503 119.972C104.493 119.972 105.221 120.21 105.687 120.686C106.163 121.162 106.401 121.773 106.401 122.52V125.908C106.401 126.356 106.429 126.72 106.485 127H104.973C104.927 126.86 104.903 126.571 104.903 126.132C104.455 126.851 103.755 127.21 102.803 127.21C102.113 127.21 101.553 127.009 101.123 126.608C100.703 126.197 100.493 125.712 100.493 125.152ZM103.111 125.936C103.615 125.936 104.021 125.801 104.329 125.53C104.647 125.25 104.805 124.797 104.805 124.172V123.864L103.027 124.13C102.421 124.233 102.117 124.541 102.117 125.054C102.117 125.297 102.206 125.507 102.383 125.684C102.561 125.852 102.803 125.936 103.111 125.936ZM109.988 127H108.364V116.864H109.988V127ZM113.707 127H112.083V116.864H113.707V127ZM121.333 118.096V120.182H122.747V121.624H121.333V124.788C121.333 125.087 121.403 125.306 121.543 125.446C121.683 125.577 121.902 125.642 122.201 125.642C122.387 125.642 122.574 125.623 122.761 125.586V126.93C122.518 127.033 122.187 127.084 121.767 127.084C121.132 127.084 120.633 126.907 120.269 126.552C119.905 126.188 119.723 125.689 119.723 125.054V121.624H118.463V120.182H118.813C119.158 120.182 119.419 120.084 119.597 119.888C119.774 119.692 119.863 119.435 119.863 119.118V118.096H121.333ZM125.985 125.18C126.358 125.563 126.811 125.754 127.343 125.754C127.875 125.754 128.323 125.563 128.687 125.18C129.06 124.797 129.247 124.265 129.247 123.584C129.247 122.912 129.06 122.389 128.687 122.016C128.323 121.633 127.875 121.442 127.343 121.442C126.811 121.442 126.358 121.633 125.985 122.016C125.621 122.389 125.439 122.912 125.439 123.584C125.439 124.256 125.621 124.788 125.985 125.18ZM127.343 119.972C128.37 119.972 129.214 120.313 129.877 120.994C130.549 121.675 130.885 122.539 130.885 123.584C130.885 124.629 130.549 125.497 129.877 126.188C129.214 126.869 128.37 127.21 127.343 127.21C126.326 127.21 125.481 126.869 124.809 126.188C124.146 125.497 123.815 124.629 123.815 123.584C123.815 122.539 124.146 121.675 124.809 120.994C125.481 120.313 126.326 119.972 127.343 119.972ZM137.999 129.758H136.263L137.901 126.188L134.989 120.182H136.823L138.783 124.494L140.617 120.182H142.339L137.999 129.758ZM144.852 125.18C145.225 125.563 145.678 125.754 146.21 125.754C146.742 125.754 147.19 125.563 147.554 125.18C147.927 124.797 148.114 124.265 148.114 123.584C148.114 122.912 147.927 122.389 147.554 122.016C147.19 121.633 146.742 121.442 146.21 121.442C145.678 121.442 145.225 121.633 144.852 122.016C144.488 122.389 144.306 122.912 144.306 123.584C144.306 124.256 144.488 124.788 144.852 125.18ZM146.21 119.972C147.237 119.972 148.081 120.313 148.744 120.994C149.416 121.675 149.752 122.539 149.752 123.584C149.752 124.629 149.416 125.497 148.744 126.188C148.081 126.869 147.237 127.21 146.21 127.21C145.193 127.21 144.348 126.869 143.676 126.188C143.013 125.497 142.682 124.629 142.682 123.584C142.682 122.539 143.013 121.675 143.676 120.994C144.348 120.313 145.193 119.972 146.21 119.972ZM155.718 126.244C155.56 126.543 155.298 126.776 154.934 126.944C154.58 127.112 154.197 127.196 153.786 127.196C152.993 127.196 152.363 126.939 151.896 126.426C151.439 125.913 151.21 125.264 151.21 124.48V120.182H152.834V124.186C152.834 124.643 152.946 125.017 153.17 125.306C153.394 125.595 153.74 125.74 154.206 125.74C154.664 125.74 155.014 125.6 155.256 125.32C155.508 125.04 155.634 124.671 155.634 124.214V120.182H157.258V125.754C157.258 126.165 157.282 126.58 157.328 127H155.774C155.737 126.795 155.718 126.543 155.718 126.244ZM163.351 120.14V121.792C163.164 121.764 162.987 121.75 162.819 121.75C161.596 121.75 160.985 122.417 160.985 123.752V127H159.361V120.182H160.943V121.274C161.101 120.91 161.358 120.625 161.713 120.42C162.067 120.205 162.469 120.098 162.917 120.098C163.066 120.098 163.211 120.112 163.351 120.14ZM82.5077 149.66H80.8977V140.182H82.4657V141.106C82.643 140.798 82.923 140.541 83.3057 140.336C83.6883 140.131 84.1317 140.028 84.6357 140.028C85.6157 140.028 86.3857 140.364 86.9457 141.036C87.5057 141.699 87.7857 142.548 87.7857 143.584C87.7857 144.62 87.4917 145.479 86.9037 146.16C86.3157 146.832 85.541 147.168 84.5797 147.168C84.113 147.168 83.6977 147.079 83.3337 146.902C82.9697 146.725 82.6943 146.501 82.5077 146.23V149.66ZM86.1617 143.584C86.1617 142.949 85.9937 142.441 85.6577 142.058C85.3217 141.666 84.8783 141.47 84.3277 141.47C83.7863 141.47 83.343 141.666 82.9977 142.058C82.6617 142.441 82.4937 142.949 82.4937 143.584C82.4937 144.228 82.6617 144.746 82.9977 145.138C83.343 145.53 83.7863 145.726 84.3277 145.726C84.869 145.726 85.3077 145.53 85.6437 145.138C85.989 144.746 86.1617 144.228 86.1617 143.584ZM90.9709 142.996V147H89.3469V136.864H90.9709V140.84C91.4095 140.271 92.0582 139.986 92.9169 139.986C93.7195 139.986 94.3355 140.238 94.7649 140.742C95.1942 141.246 95.4089 141.895 95.4089 142.688V147H93.7849V142.968C93.7849 142.511 93.6729 142.147 93.4489 141.876C93.2249 141.596 92.8702 141.456 92.3849 141.456C91.9555 141.456 91.6149 141.601 91.3629 141.89C91.1202 142.179 90.9895 142.548 90.9709 142.996ZM99.0239 145.18C99.3973 145.563 99.8499 145.754 100.382 145.754C100.914 145.754 101.362 145.563 101.726 145.18C102.099 144.797 102.286 144.265 102.286 143.584C102.286 142.912 102.099 142.389 101.726 142.016C101.362 141.633 100.914 141.442 100.382 141.442C99.8499 141.442 99.3973 141.633 99.0239 142.016C98.6599 142.389 98.4779 142.912 98.4779 143.584C98.4779 144.256 98.6599 144.788 99.0239 145.18ZM100.382 139.972C101.409 139.972 102.253 140.313 102.916 140.994C103.588 141.675 103.924 142.539 103.924 143.584C103.924 144.629 103.588 145.497 102.916 146.188C102.253 146.869 101.409 147.21 100.382 147.21C99.3646 147.21 98.5199 146.869 97.8479 146.188C97.1853 145.497 96.8539 144.629 96.8539 143.584C96.8539 142.539 97.1853 141.675 97.8479 140.994C98.5199 140.313 99.3646 139.972 100.382 139.972ZM107.117 143.066V147H105.493V140.182H107.075V141.092C107.29 140.719 107.575 140.443 107.929 140.266C108.293 140.079 108.681 139.986 109.091 139.986C109.894 139.986 110.505 140.238 110.925 140.742C111.345 141.246 111.555 141.895 111.555 142.688V147H109.931V142.968C109.931 142.511 109.819 142.147 109.595 141.876C109.371 141.596 109.017 141.456 108.531 141.456C108.083 141.456 107.733 141.61 107.481 141.918C107.239 142.217 107.117 142.599 107.117 143.066ZM114.666 142.842H118.012C117.994 142.413 117.84 142.053 117.55 141.764C117.27 141.475 116.864 141.33 116.332 141.33C115.847 141.33 115.455 141.484 115.156 141.792C114.858 142.091 114.694 142.441 114.666 142.842ZM118.194 144.62L119.566 145.054C119.37 145.679 119.002 146.197 118.46 146.608C117.928 147.009 117.27 147.21 116.486 147.21C115.516 147.21 114.69 146.879 114.008 146.216C113.336 145.553 113 144.667 113 143.556C113 142.511 113.327 141.652 113.98 140.98C114.643 140.308 115.422 139.972 116.318 139.972C117.364 139.972 118.18 140.294 118.768 140.938C119.356 141.573 119.65 142.431 119.65 143.514C119.65 143.803 119.636 143.976 119.608 144.032H114.624C114.643 144.545 114.83 144.97 115.184 145.306C115.548 145.642 115.982 145.81 116.486 145.81C117.364 145.81 117.933 145.413 118.194 144.62Z" fill="#3D3D46"/>
</svg>
