<svg width="28" height="28" viewBox="0 0 28 28" fill="none" xmlns="http://www.w3.org/2000/svg">
<rect width="28" height="28" rx="14" fill="#5F37B6"/>
<path d="M11.3747 9.33332H16.6246C16.7856 9.33332 16.9163 9.20265 16.9163 9.04165V8.45832C16.9163 7.9759 16.5237 7.58332 16.0413 7.58332H15.0065C14.8006 7.2275 14.4185 7 13.9997 7C13.5808 7 13.1987 7.2275 12.9928 7.58332H11.958C11.4756 7.58332 11.083 7.9759 11.083 8.45832V9.04165C11.083 9.20268 11.2137 9.33332 11.3747 9.33332Z" fill="white"/>
<path d="M18.375 8.16604H17.7917C17.6307 8.16604 17.5 8.29672 17.5 8.45772V9.04104C17.5 9.52347 17.1074 9.91604 16.625 9.91604H11.375C10.8926 9.91604 10.5 9.52347 10.5 9.04104V8.45769C10.5 8.29669 10.3693 8.16602 10.2083 8.16602H9.625C9.14257 8.16602 8.75 8.55859 8.75 9.04102V20.1244C8.75 20.6068 9.14257 20.9994 9.625 20.9994H18.375C18.8574 20.9994 19.25 20.6068 19.25 20.1244V9.04104C19.25 8.55862 18.8574 8.16604 18.375 8.16604ZM10.7917 18.9577C10.4703 18.9577 10.2084 18.6958 10.2084 18.3744C10.2084 18.0529 10.4703 17.791 10.7917 17.791C11.1131 17.791 11.375 18.053 11.375 18.3744C11.375 18.6958 11.1131 18.9577 10.7917 18.9577ZM10.7917 16.6244C10.4703 16.6244 10.2084 16.3624 10.2084 16.041C10.2084 15.7196 10.4703 15.4577 10.7917 15.4577C11.1131 15.4577 11.375 15.7196 11.375 16.041C11.375 16.3624 11.1131 16.6244 10.7917 16.6244ZM10.7917 14.291C10.4703 14.291 10.2084 14.0291 10.2084 13.7077C10.2084 13.3863 10.4703 13.1244 10.7917 13.1244C11.1131 13.1244 11.375 13.3863 11.375 13.7077C11.375 14.0291 11.1131 14.291 10.7917 14.291ZM10.7917 11.9577C10.4703 11.9577 10.2084 11.6958 10.2084 11.3744C10.2084 11.053 10.4703 10.791 10.7917 10.791C11.1131 10.791 11.375 11.053 11.375 11.3744C11.375 11.6958 11.1131 11.9577 10.7917 11.9577ZM14.875 18.666H12.5417C12.3807 18.666 12.25 18.5354 12.25 18.3744C12.25 18.2134 12.3807 18.0827 12.5417 18.0827H14.875C15.036 18.0827 15.1667 18.2134 15.1667 18.3744C15.1667 18.5354 15.036 18.666 14.875 18.666ZM17.7917 16.3327H12.5417C12.3807 16.3327 12.25 16.202 12.25 16.041C12.25 15.88 12.3807 15.7494 12.5417 15.7494H17.7917C17.9527 15.7494 18.0834 15.88 18.0834 16.041C18.0834 16.202 17.9527 16.3327 17.7917 16.3327ZM17.7917 13.9994H12.5417C12.3807 13.9994 12.25 13.8687 12.25 13.7077C12.25 13.5467 12.3807 13.416 12.5417 13.416H17.7917C17.9527 13.416 18.0834 13.5467 18.0834 13.7077C18.0834 13.8687 17.9527 13.9994 17.7917 13.9994ZM17.7917 11.666H12.5417C12.3807 11.666 12.25 11.5354 12.25 11.3744C12.25 11.2134 12.3807 11.0827 12.5417 11.0827H17.7917C17.9527 11.0827 18.0834 11.2134 18.0834 11.3744C18.0834 11.5354 17.9527 11.666 17.7917 11.666Z" fill="white"/>
</svg>
