<svg width="14" height="14" viewBox="0 0 14 14" fill="none" xmlns="http://www.w3.org/2000/svg">
<rect x="0.5" y="0.5" width="13" height="13" rx="6.5" fill="#5F37B6" stroke="#3D3D46"/>
<g clip-path="url(#clip0)">
<path d="M9.76792 3.62416C9.72417 3.59717 9.6775 3.57617 9.625 3.57617H5.46L6.04333 4.17605H8.56042C8.49625 4.31403 8.45833 4.464 8.45833 4.62597V9.71296C8.45833 9.96191 8.26292 10.1629 8.02083 10.1629C7.77875 10.1629 7.58333 9.96191 7.58333 9.71296V8.97511C7.58333 8.81014 7.45208 8.67517 7.29167 8.67517H4.66667V6.77654L4.08333 6.17666V8.67517H3.79167C3.63125 8.67517 3.5 8.81014 3.5 8.97511V9.86293C3.5 10.3578 3.89375 10.7628 4.375 10.7628H8.02083C8.30083 10.7628 8.5575 10.6458 8.74125 10.4538C8.92792 10.2649 9.04167 10.0009 9.04167 9.71296V5.37582H10.2083C10.3687 5.37582 10.5 5.24084 10.5 5.07588V4.62597C10.5 4.15206 10.1908 3.75314 9.76792 3.62416Z" fill="white"/>
<path d="M7.07259 7.46932C7.0583 7.46932 7.044 7.46782 7.02971 7.46482L6.00801 7.25486C5.96542 7.24616 5.92663 7.22487 5.8963 7.19337L3.64842 4.88173C3.45038 4.67807 3.45067 4.34663 3.64842 4.14327L4.05705 3.72306C4.2548 3.5194 4.5768 3.5194 4.77484 3.72306L7.02271 6.035C7.05334 6.0662 7.07405 6.10639 7.0825 6.14988L7.28696 7.20057C7.30125 7.27436 7.2788 7.35054 7.22717 7.40363C7.18576 7.44592 7.13005 7.46932 7.07259 7.46932Z" fill="white"/>
</g>
<defs>
<clipPath id="clip0">
<rect width="7" height="7.19858" fill="white" transform="translate(3.5 3.57031)"/>
</clipPath>
</defs>
</svg>
