<svg width="14" height="14" viewBox="0 0 14 14" fill="none" xmlns="http://www.w3.org/2000/svg">
<rect x="0.5" y="0.5" width="13" height="13" rx="6.5" fill="#3D9588" stroke="#3D3D46"/>
<g clip-path="url(#clip0)">
<path fill-rule="evenodd" clip-rule="evenodd" d="M3.86523 5.81898C3.86523 5.36343 4.22434 4.99414 4.66732 4.99414H7.58398C8.02697 4.99414 8.38607 5.36343 8.38607 5.81898V6.41886C8.38607 6.5431 8.28813 6.64382 8.16732 6.64382C8.04651 6.64382 7.94857 6.5431 7.94857 6.41886V5.81898C7.94857 5.61191 7.78535 5.44405 7.58398 5.44405H4.66732C4.46596 5.44405 4.30273 5.61191 4.30273 5.81898V8.81839C4.30273 9.02547 4.46596 9.19331 4.66732 9.19331H5.83398C5.9548 9.19331 6.05273 9.29403 6.05273 9.41827C6.05273 9.5425 5.9548 9.64322 5.83398 9.64322H4.66732C4.22434 9.64322 3.86523 9.27394 3.86523 8.81839V5.81898Z" fill="white"/>
<path fill-rule="evenodd" clip-rule="evenodd" d="M4.44922 4.61976C4.44922 4.16421 4.80832 3.79492 5.2513 3.79492H7.0013C7.44429 3.79492 7.80339 4.16421 7.80339 4.61976V5.21964C7.80339 5.34388 7.70544 5.4446 7.58464 5.4446H4.66797C4.54716 5.4446 4.44922 5.34388 4.44922 5.21964V4.61976ZM5.2513 4.24483C5.04995 4.24483 4.88672 4.41269 4.88672 4.61976V4.99468H7.36589V4.61976C7.36589 4.41269 7.20267 4.24483 7.0013 4.24483H5.2513Z" fill="white"/>
<path fill-rule="evenodd" clip-rule="evenodd" d="M4.08398 6.19531C3.96317 6.19531 3.86523 6.29603 3.86523 6.42027V8.21991C3.86523 8.34415 3.96317 8.44487 4.08398 8.44487H5.54232C5.9853 8.44487 6.3444 8.07558 6.3444 7.62003V7.02015C6.3444 6.56461 5.9853 6.19531 5.54232 6.19531H4.08398Z" fill="white"/>
<path fill-rule="evenodd" clip-rule="evenodd" d="M7.72982 7.09375C7.44792 7.09375 7.2194 7.32875 7.2194 7.61865V7.8436H7.00065C6.71876 7.8436 6.49023 8.07861 6.49023 8.3685V9.26832C6.49023 9.55821 6.71876 9.79322 7.00065 9.79322H7.2194V10.0182C7.2194 10.3081 7.44792 10.5431 7.72982 10.5431H8.60482C8.88671 10.5431 9.11523 10.3081 9.11523 10.0182V9.79322H9.33398C9.61588 9.79322 9.8444 9.55821 9.8444 9.26832V8.3685C9.8444 8.07861 9.61588 7.8436 9.33398 7.8436H9.11523V7.61865C9.11523 7.32875 8.88671 7.09375 8.60482 7.09375H7.72982Z" fill="white"/>
</g>
<defs>
<clipPath id="clip0">
<rect width="7" height="7.19858" fill="white" transform="translate(3.5 3.57031)"/>
</clipPath>
</defs>
</svg>
