<svg width="14" height="14" viewBox="0 0 14 14" fill="none" xmlns="http://www.w3.org/2000/svg">
<rect x="0.5" y="0.5" width="13" height="13" rx="6.5" fill="#3D9588" stroke="#3D3D46"/>
<g clip-path="url(#clip0)">
<path d="M7 7.95821C7.64189 7.95821 8.16211 7.42956 8.16211 6.77719V5.2025C8.16211 4.55013 7.64189 4.02148 7 4.02148C6.35811 4.02148 5.83789 4.55013 5.83789 5.2025V6.77719C5.83789 7.42956 6.35811 7.95821 7 7.95821ZM9.25586 6.76313C9.25586 6.7322 9.23125 6.70689 9.20117 6.70689H8.79102C8.76094 6.70689 8.73633 6.7322 8.73633 6.76313C8.73633 7.74942 7.95908 8.54872 7 8.54872C6.04092 8.54872 5.26367 7.74942 5.26367 6.76313C5.26367 6.7322 5.23906 6.70689 5.20898 6.70689H4.79883C4.76875 6.70689 4.74414 6.7322 4.74414 6.76313C4.74414 7.94907 5.60957 8.92763 6.72656 9.06612V9.78597H5.7333C5.63965 9.78597 5.56445 9.8865 5.56445 10.0109V10.264C5.56445 10.2949 5.58359 10.3202 5.60684 10.3202H8.39316C8.41641 10.3202 8.43555 10.2949 8.43555 10.264V10.0109C8.43555 9.8865 8.36035 9.78597 8.2667 9.78597H7.24609V9.06963C8.37607 8.94309 9.25586 7.95891 9.25586 6.76313Z" fill="white"/>
</g>
<defs>
<clipPath id="clip0">
<rect width="7" height="7.19858" fill="white" transform="translate(3.5 3.57129)"/>
</clipPath>
</defs>
</svg>
