<svg width="14" height="14" viewBox="0 0 14 14" fill="none" xmlns="http://www.w3.org/2000/svg">
<rect x="0.5" y="0.5" width="13" height="13" rx="6.5" fill="#5F37B6" stroke="#3D3D46"/>
<g clip-path="url(#clip0)">
<path d="M9.55391 5.1897L8.82588 4.44172C8.77452 4.38868 8.71348 4.34659 8.64626 4.31788C8.57904 4.28917 8.50697 4.2744 8.43418 4.27441C8.28584 4.27441 8.14639 4.33417 8.0418 4.44172L7.2584 5.24735C7.20682 5.30016 7.16589 5.36293 7.13797 5.43206C7.11005 5.50119 7.09569 5.57531 7.0957 5.65016C7.0957 5.80271 7.15381 5.94612 7.2584 6.05367L7.83125 6.64278C7.69716 6.94672 7.51073 7.22322 7.28096 7.45894C7.05176 7.69581 6.78291 7.88822 6.48731 8.02696L5.91445 7.43785C5.8631 7.38481 5.80206 7.34272 5.73484 7.31401C5.66762 7.2853 5.59554 7.27052 5.52275 7.27054C5.37441 7.27054 5.23496 7.3303 5.13037 7.43785L4.34629 8.24277C4.29464 8.29568 4.25368 8.35857 4.22576 8.42782C4.19784 8.49707 4.18351 8.57132 4.18359 8.64629C4.18359 8.79883 4.2417 8.94224 4.34629 9.0498L5.07295 9.79708C5.23975 9.96931 5.47012 10.067 5.70664 10.067C5.75654 10.067 5.80439 10.0628 5.85156 10.0544C6.77305 9.89831 7.68701 9.39426 8.42461 8.63645C9.16152 7.87933 9.65098 6.94014 9.80479 5.9897C9.85127 5.69937 9.75762 5.4006 9.55391 5.1897Z" fill="white"/>
</g>
<defs>
<clipPath id="clip0">
<rect width="7" height="7.19858" fill="white" transform="translate(3.5 3.57129)"/>
</clipPath>
</defs>
</svg>
