<svg width="200" height="200" viewBox="0 0 200 200" fill="none" xmlns="http://www.w3.org/2000/svg">
<rect x="0.5" y="0.5" width="199" height="199" rx="3.5" fill="white" stroke="#CFCFD7"/>
<circle cx="100" cy="72" r="24" fill="#EEF7FB"/>
<path d="M113.904 82.4094L112.013 75.75V61.25C112.013 60.6969 111.566 60.25 111.013 60.25H89.0131C88.46 60.25 88.0131 60.6969 88.0131 61.25V75.75L86.1225 82.4094C85.8881 83.0625 86.3694 83.75 87.0631 83.75H112.963C113.657 83.75 114.138 83.0625 113.904 82.4094ZM90.2631 62.5H109.763V74.8438H90.2631V62.5ZM97.3975 81.5L97.6506 80.3438H102.347L102.601 81.5H97.3975ZM104.397 81.5L103.801 78.7906C103.776 78.675 103.672 78.5938 103.557 78.5938H96.4444C96.3256 78.5938 96.2256 78.675 96.2006 78.7906L95.6037 81.5H88.7194L90.0412 76.8438H109.985L111.307 81.5H104.397Z" fill="#54B2D3"/>
<path d="M61.1413 127H59.4753V119.692L56.3813 127H54.9253L51.8593 119.72V127H50.2213V117.074H52.4613L55.6813 124.648L58.8593 117.074H61.1413V127ZM62.923 125.152C62.923 124.573 63.1096 124.111 63.483 123.766C63.8656 123.411 64.365 123.187 64.981 123.094L66.731 122.828C67.067 122.781 67.235 122.618 67.235 122.338C67.235 122.03 67.1276 121.783 66.913 121.596C66.6983 121.4 66.3763 121.302 65.947 121.302C65.5363 121.302 65.2096 121.419 64.967 121.652C64.7243 121.876 64.5843 122.17 64.547 122.534L63.063 122.198C63.1283 121.582 63.4223 121.059 63.945 120.63C64.4676 120.191 65.1303 119.972 65.933 119.972C66.9223 119.972 67.6503 120.21 68.117 120.686C68.593 121.162 68.831 121.773 68.831 122.52V125.908C68.831 126.356 68.859 126.72 68.915 127H67.403C67.3563 126.86 67.333 126.571 67.333 126.132C66.885 126.851 66.185 127.21 65.233 127.21C64.5423 127.21 63.9823 127.009 63.553 126.608C63.133 126.197 62.923 125.712 62.923 125.152ZM65.541 125.936C66.045 125.936 66.451 125.801 66.759 125.53C67.0763 125.25 67.235 124.797 67.235 124.172V123.864L65.457 124.13C64.8503 124.233 64.547 124.541 64.547 125.054C64.547 125.297 64.6356 125.507 64.813 125.684C64.9903 125.852 65.233 125.936 65.541 125.936ZM77.1781 120.182L74.3781 123.066L77.2341 127H75.2461L73.2441 124.214L72.4041 125.096V127H70.7941V116.864H72.4041V122.94L75.0221 120.182H77.1781ZM79.2153 122.842H82.5613C82.5426 122.413 82.3886 122.053 82.0993 121.764C81.8193 121.475 81.4133 121.33 80.8813 121.33C80.3959 121.33 80.0039 121.484 79.7053 121.792C79.4066 122.091 79.2433 122.441 79.2153 122.842ZM82.7433 124.62L84.1153 125.054C83.9193 125.679 83.5506 126.197 83.0093 126.608C82.4773 127.009 81.8193 127.21 81.0353 127.21C80.0646 127.21 79.2386 126.879 78.5573 126.216C77.8853 125.553 77.5493 124.667 77.5493 123.556C77.5493 122.511 77.8759 121.652 78.5293 120.98C79.1919 120.308 79.9713 119.972 80.8673 119.972C81.9126 119.972 82.7293 120.294 83.3173 120.938C83.9053 121.573 84.1993 122.431 84.1993 123.514C84.1993 123.803 84.1853 123.976 84.1573 124.032H79.1733C79.1919 124.545 79.3786 124.97 79.7333 125.306C80.0973 125.642 80.5313 125.81 81.0353 125.81C81.9126 125.81 82.4819 125.413 82.7433 124.62ZM92.1918 121.47C91.6692 121.47 91.2258 121.661 90.8618 122.044C90.4978 122.417 90.3158 122.931 90.3158 123.584C90.3158 124.247 90.4978 124.769 90.8618 125.152C91.2352 125.535 91.6878 125.726 92.2198 125.726C92.6958 125.726 93.0738 125.6 93.3538 125.348C93.6432 125.087 93.8345 124.793 93.9278 124.466L95.3558 124.984C95.1692 125.591 94.8052 126.113 94.2638 126.552C93.7318 126.991 93.0505 127.21 92.2198 127.21C91.2212 127.21 90.3812 126.865 89.6998 126.174C89.0278 125.483 88.6918 124.62 88.6918 123.584C88.6918 122.539 89.0232 121.675 89.6858 120.994C90.3578 120.313 91.1885 119.972 92.1778 119.972C93.0272 119.972 93.7178 120.191 94.2498 120.63C94.7912 121.069 95.1412 121.596 95.2998 122.212L93.8438 122.744C93.7505 122.389 93.5685 122.091 93.2978 121.848C93.0365 121.596 92.6678 121.47 92.1918 121.47ZM96.337 125.152C96.337 124.573 96.5237 124.111 96.897 123.766C97.2797 123.411 97.779 123.187 98.395 123.094L100.145 122.828C100.481 122.781 100.649 122.618 100.649 122.338C100.649 122.03 100.542 121.783 100.327 121.596C100.112 121.4 99.7904 121.302 99.361 121.302C98.9504 121.302 98.6237 121.419 98.381 121.652C98.1384 121.876 97.9984 122.17 97.961 122.534L96.477 122.198C96.5424 121.582 96.8364 121.059 97.359 120.63C97.8817 120.191 98.5444 119.972 99.347 119.972C100.336 119.972 101.064 120.21 101.531 120.686C102.007 121.162 102.245 121.773 102.245 122.52V125.908C102.245 126.356 102.273 126.72 102.329 127H100.817C100.77 126.86 100.747 126.571 100.747 126.132C100.299 126.851 99.599 127.21 98.647 127.21C97.9564 127.21 97.3964 127.009 96.967 126.608C96.547 126.197 96.337 125.712 96.337 125.152ZM98.955 125.936C99.459 125.936 99.865 125.801 100.173 125.53C100.49 125.25 100.649 124.797 100.649 124.172V123.864L98.871 124.13C98.2644 124.233 97.961 124.541 97.961 125.054C97.961 125.297 98.0497 125.507 98.227 125.684C98.4044 125.852 98.647 125.936 98.955 125.936ZM105.832 127H104.208V116.864H105.832V127ZM109.551 127H107.927V116.864H109.551V127ZM111.044 125.152L112.458 124.76C112.486 125.087 112.621 125.362 112.864 125.586C113.106 125.81 113.433 125.922 113.844 125.922C114.161 125.922 114.408 125.847 114.586 125.698C114.772 125.549 114.866 125.362 114.866 125.138C114.866 124.746 114.6 124.494 114.068 124.382L113.06 124.158C112.472 124.027 112.019 123.785 111.702 123.43C111.384 123.075 111.226 122.655 111.226 122.17C111.226 121.573 111.468 121.059 111.954 120.63C112.439 120.191 113.032 119.972 113.732 119.972C114.18 119.972 114.576 120.037 114.922 120.168C115.267 120.299 115.533 120.471 115.72 120.686C115.916 120.891 116.065 121.092 116.168 121.288C116.27 121.484 116.336 121.68 116.364 121.876L114.992 122.268C114.954 122.007 114.833 121.773 114.628 121.568C114.432 121.353 114.133 121.246 113.732 121.246C113.452 121.246 113.218 121.325 113.032 121.484C112.845 121.633 112.752 121.815 112.752 122.03C112.752 122.413 112.98 122.651 113.438 122.744L114.474 122.954C115.108 123.094 115.594 123.346 115.93 123.71C116.266 124.074 116.434 124.513 116.434 125.026C116.434 125.595 116.205 126.104 115.748 126.552C115.3 126.991 114.67 127.21 113.858 127.21C113.391 127.21 112.971 127.14 112.598 127C112.234 126.86 111.944 126.683 111.73 126.468C111.524 126.244 111.361 126.025 111.24 125.81C111.128 125.586 111.062 125.367 111.044 125.152ZM124.541 118.25C124.27 118.25 124.032 118.329 123.827 118.488C123.631 118.637 123.533 118.903 123.533 119.286V120.182H125.115V121.596H123.533V127H121.895V121.596H120.705V120.182H121.895V119.244C121.895 118.488 122.114 117.891 122.553 117.452C122.991 117.013 123.565 116.794 124.275 116.794C124.657 116.794 124.942 116.841 125.129 116.934V118.32C124.961 118.273 124.765 118.25 124.541 118.25ZM130.401 120.14V121.792C130.215 121.764 130.037 121.75 129.869 121.75C128.647 121.75 128.035 122.417 128.035 123.752V127H126.411V120.182H127.993V121.274C128.152 120.91 128.409 120.625 128.763 120.42C129.118 120.205 129.519 120.098 129.967 120.098C130.117 120.098 130.261 120.112 130.401 120.14ZM133.327 125.18C133.7 125.563 134.153 125.754 134.685 125.754C135.217 125.754 135.665 125.563 136.029 125.18C136.402 124.797 136.589 124.265 136.589 123.584C136.589 122.912 136.402 122.389 136.029 122.016C135.665 121.633 135.217 121.442 134.685 121.442C134.153 121.442 133.7 121.633 133.327 122.016C132.963 122.389 132.781 122.912 132.781 123.584C132.781 124.256 132.963 124.788 133.327 125.18ZM134.685 119.972C135.711 119.972 136.556 120.313 137.219 120.994C137.891 121.675 138.227 122.539 138.227 123.584C138.227 124.629 137.891 125.497 137.219 126.188C136.556 126.869 135.711 127.21 134.685 127.21C133.667 127.21 132.823 126.869 132.151 126.188C131.488 125.497 131.157 124.629 131.157 123.584C131.157 122.539 131.488 121.675 132.151 120.994C132.823 120.313 133.667 119.972 134.685 119.972ZM141.406 127H139.796V120.182H141.35V121.05C141.537 120.714 141.817 120.453 142.19 120.266C142.573 120.079 142.965 119.986 143.366 119.986C143.823 119.986 144.234 120.089 144.598 120.294C144.962 120.499 145.233 120.798 145.41 121.19C145.886 120.387 146.623 119.986 147.622 119.986C148.294 119.986 148.863 120.205 149.33 120.644C149.797 121.083 150.03 121.727 150.03 122.576V127H148.462V122.842C148.462 122.422 148.35 122.086 148.126 121.834C147.911 121.573 147.585 121.442 147.146 121.442C146.726 121.442 146.385 121.587 146.124 121.876C145.863 122.165 145.732 122.525 145.732 122.954V127H144.136V122.842C144.136 122.422 144.024 122.086 143.8 121.834C143.585 121.573 143.259 121.442 142.82 121.442C142.391 121.442 142.045 121.587 141.784 121.876C141.532 122.156 141.406 122.515 141.406 122.954V127ZM77.3242 140.182H79.0042L80.6142 144.9L81.9722 140.182H83.6242L81.4402 147H79.8162L78.1222 142.1L76.4702 147H74.8042L72.5922 140.182H74.3282L75.7142 144.9L77.3242 140.182ZM85.8324 142.842H89.1784C89.1598 142.413 89.0058 142.053 88.7164 141.764C88.4364 141.475 88.0304 141.33 87.4984 141.33C87.0131 141.33 86.6211 141.484 86.3224 141.792C86.0238 142.091 85.8604 142.441 85.8324 142.842ZM89.3604 144.62L90.7324 145.054C90.5364 145.679 90.1678 146.197 89.6264 146.608C89.0944 147.009 88.4364 147.21 87.6524 147.21C86.6818 147.21 85.8558 146.879 85.1744 146.216C84.5024 145.553 84.1664 144.667 84.1664 143.556C84.1664 142.511 84.4931 141.652 85.1464 140.98C85.8091 140.308 86.5884 139.972 87.4844 139.972C88.5298 139.972 89.3464 140.294 89.9344 140.938C90.5224 141.573 90.8164 142.431 90.8164 143.514C90.8164 143.803 90.8024 143.976 90.7744 144.032H85.7904C85.8091 144.545 85.9958 144.97 86.3504 145.306C86.7144 145.642 87.1484 145.81 87.6524 145.81C88.5298 145.81 89.0991 145.413 89.3604 144.62ZM93.9504 147H92.3684V136.864H93.9644V141.022C94.1324 140.733 94.4077 140.49 94.7904 140.294C95.173 140.098 95.6117 140 96.1064 140C97.0957 140 97.8657 140.336 98.4164 141.008C98.9764 141.671 99.2564 142.52 99.2564 143.556C99.2564 144.611 98.9624 145.479 98.3744 146.16C97.7957 146.832 97.021 147.168 96.0504 147.168C95.0797 147.168 94.3797 146.809 93.9504 146.09V147ZM97.1004 145.152C97.4457 144.76 97.6184 144.233 97.6184 143.57C97.6184 142.907 97.4504 142.389 97.1144 142.016C96.7784 141.633 96.335 141.442 95.7844 141.442C95.2524 141.442 94.8137 141.633 94.4684 142.016C94.123 142.389 93.9504 142.907 93.9504 143.57C93.9504 144.223 94.123 144.746 94.4684 145.138C94.8137 145.53 95.2524 145.726 95.7844 145.726C96.3257 145.726 96.7644 145.535 97.1004 145.152ZM103.87 145.152C103.87 144.573 104.057 144.111 104.43 143.766C104.813 143.411 105.312 143.187 105.928 143.094L107.678 142.828C108.014 142.781 108.182 142.618 108.182 142.338C108.182 142.03 108.075 141.783 107.86 141.596C107.646 141.4 107.324 141.302 106.894 141.302C106.484 141.302 106.157 141.419 105.914 141.652C105.672 141.876 105.532 142.17 105.494 142.534L104.01 142.198C104.076 141.582 104.37 141.059 104.892 140.63C105.415 140.191 106.078 139.972 106.88 139.972C107.87 139.972 108.598 140.21 109.064 140.686C109.54 141.162 109.778 141.773 109.778 142.52V145.908C109.778 146.356 109.806 146.72 109.862 147H108.35C108.304 146.86 108.28 146.571 108.28 146.132C107.832 146.851 107.132 147.21 106.18 147.21C105.49 147.21 104.93 147.009 104.5 146.608C104.08 146.197 103.87 145.712 103.87 145.152ZM106.488 145.936C106.992 145.936 107.398 145.801 107.706 145.53C108.024 145.25 108.182 144.797 108.182 144.172V143.864L106.404 144.13C105.798 144.233 105.494 144.541 105.494 145.054C105.494 145.297 105.583 145.507 105.76 145.684C105.938 145.852 106.18 145.936 106.488 145.936ZM113.351 149.66H111.741V140.182H113.309V141.106C113.487 140.798 113.767 140.541 114.149 140.336C114.532 140.131 114.975 140.028 115.479 140.028C116.459 140.028 117.229 140.364 117.789 141.036C118.349 141.699 118.629 142.548 118.629 143.584C118.629 144.62 118.335 145.479 117.747 146.16C117.159 146.832 116.385 147.168 115.423 147.168C114.957 147.168 114.541 147.079 114.177 146.902C113.813 146.725 113.538 146.501 113.351 146.23V149.66ZM117.005 143.584C117.005 142.949 116.837 142.441 116.501 142.058C116.165 141.666 115.722 141.47 115.171 141.47C114.63 141.47 114.187 141.666 113.841 142.058C113.505 142.441 113.337 142.949 113.337 143.584C113.337 144.228 113.505 144.746 113.841 145.138C114.187 145.53 114.63 145.726 115.171 145.726C115.713 145.726 116.151 145.53 116.487 145.138C116.833 144.746 117.005 144.228 117.005 143.584ZM121.801 149.66H120.191V140.182H121.759V141.106C121.936 140.798 122.216 140.541 122.599 140.336C122.981 140.131 123.425 140.028 123.929 140.028C124.909 140.028 125.679 140.364 126.239 141.036C126.799 141.699 127.079 142.548 127.079 143.584C127.079 144.62 126.785 145.479 126.197 146.16C125.609 146.832 124.834 147.168 123.873 147.168C123.406 147.168 122.991 147.079 122.627 146.902C122.263 146.725 121.987 146.501 121.801 146.23V149.66ZM125.455 143.584C125.455 142.949 125.287 142.441 124.951 142.058C124.615 141.666 124.171 141.47 123.621 141.47C123.079 141.47 122.636 141.666 122.291 142.058C121.955 142.441 121.787 142.949 121.787 143.584C121.787 144.228 121.955 144.746 122.291 145.138C122.636 145.53 123.079 145.726 123.621 145.726C124.162 145.726 124.601 145.53 124.937 145.138C125.282 144.746 125.455 144.228 125.455 143.584Z" fill="#3D3D46"/>
</svg>
