<svg width="56" height="60" viewBox="0 0 56 60" fill="none" xmlns="http://www.w3.org/2000/svg">
<rect width="56" height="56" rx="4" fill="#54B2D3" transform="translate(0 2)" />
<g clip-path="url(#clip0)">
<path d="M23.2078 34.252C21.8737 34.252 20.687 33.3978 20.2562 32.1261L20.227 32.0303C20.1253 31.6936 20.0828 31.4103 20.0828 31.127V25.4453L18.0612 32.1936C17.8012 33.1861 18.3937 34.2153 19.3878 34.4895L32.2737 37.9403C32.4345 37.982 32.5953 38.002 32.7537 38.002C33.5837 38.002 34.342 37.4511 34.5545 36.6395L35.3053 34.252H23.2078Z" fill="white"/>
<path d="M25.4987 25.5013C26.4179 25.5013 27.1654 24.7538 27.1654 23.8346C27.1654 22.9155 26.4179 22.168 25.4987 22.168C24.5795 22.168 23.832 22.9155 23.832 23.8346C23.832 24.7538 24.5795 25.5013 25.4987 25.5013Z" fill="white"/>
<path d="M35.9173 19.668H23.4173C22.269 19.668 21.334 20.603 21.334 21.7513V30.918C21.334 32.0663 22.269 33.0013 23.4173 33.0013H35.9173C37.0657 33.0013 38.0007 32.0663 38.0007 30.918V21.7513C38.0007 20.603 37.0657 19.668 35.9173 19.668ZM23.4173 21.3346H35.9173C36.1473 21.3346 36.334 21.5213 36.334 21.7513V27.6671L33.7015 24.5955C33.4223 24.268 33.0182 24.093 32.584 24.083C32.1523 24.0855 31.7473 24.2771 31.4707 24.6088L28.3757 28.3238L27.3673 27.318C26.7973 26.748 25.8698 26.748 25.3007 27.318L23.0007 29.6171V21.7513C23.0007 21.5213 23.1873 21.3346 23.4173 21.3346Z" fill="white"/>
</g>
<defs>
<clipPath id="clip0">
<rect width="20" height="20" fill="white" transform="translate(18 20)"/>
</clipPath>
</defs>
<rect width="2" height="60" rx="1" fill="#FAAD14" transform="translate(27 0)" />
</svg>
