<svg width="56" height="56" viewBox="0 0 56 56" fill="none" xmlns="http://www.w3.org/2000/svg">
<path d="M4 0C1.79086 0 0 1.79086 0 4L0 27.5H27.5V0L4 0Z" fill="#9292A3"/>
<path d="M52 0C54.2091 0 56 1.79086 56 4V27.5H28.5V0L52 0Z" fill="#9292A3"/>
<g clip-path="url(#clip0)">
<path d="M11.1247 17.7488C10.3242 17.7488 9.61221 17.2363 9.35371 16.4733L9.33621 16.4158C9.27521 16.2138 9.24971 16.0438 9.24971 15.8738V12.4648L8.03671 16.5138C7.88071 17.1093 8.23621 17.7268 8.83271 17.8913L16.5642 19.9618C16.6607 19.9868 16.7572 19.9988 16.8522 19.9988C17.3502 19.9988 17.8052 19.6683 17.9327 19.1813L18.3832 17.7488H11.1247Z" fill="white"/>
<path d="M12.5 12.5C13.0515 12.5 13.5 12.0515 13.5 11.5C13.5 10.9485 13.0515 10.5 12.5 10.5C11.9485 10.5 11.5 10.9485 11.5 11.5C11.5 12.0515 11.9485 12.5 12.5 12.5Z" fill="white"/>
<path d="M18.75 9H11.25C10.561 9 10 9.561 10 10.25V15.75C10 16.439 10.561 17 11.25 17H18.75C19.439 17 20 16.439 20 15.75V10.25C20 9.561 19.439 9 18.75 9ZM11.25 10H18.75C18.888 10 19 10.112 19 10.25V13.7995L17.4205 11.9565C17.253 11.76 17.0105 11.655 16.75 11.649C16.491 11.6505 16.248 11.7655 16.082 11.9645L14.225 14.1935L13.62 13.59C13.278 13.248 12.7215 13.248 12.38 13.59L11 14.9695V10.25C11 10.112 11.112 10 11.25 10Z" fill="white"/>
</g>
<g clip-path="url(#clip1)">
<path d="M39.1247 17.7488C38.3242 17.7488 37.6122 17.2363 37.3537 16.4733L37.3362 16.4158C37.2752 16.2138 37.2497 16.0438 37.2497 15.8738V12.4648L36.0367 16.5138C35.8807 17.1093 36.2362 17.7268 36.8327 17.8913L44.5642 19.9618C44.6607 19.9868 44.7572 19.9988 44.8522 19.9988C45.3502 19.9988 45.8052 19.6683 45.9327 19.1813L46.3832 17.7488H39.1247Z" fill="white"/>
<path d="M40.5 12.5C41.0515 12.5 41.5 12.0515 41.5 11.5C41.5 10.9485 41.0515 10.5 40.5 10.5C39.9485 10.5 39.5 10.9485 39.5 11.5C39.5 12.0515 39.9485 12.5 40.5 12.5Z" fill="white"/>
<path d="M46.75 9H39.25C38.561 9 38 9.561 38 10.25V15.75C38 16.439 38.561 17 39.25 17H46.75C47.439 17 48 16.439 48 15.75V10.25C48 9.561 47.439 9 46.75 9ZM39.25 10H46.75C46.888 10 47 10.112 47 10.25V13.7995L45.4205 11.9565C45.253 11.76 45.0105 11.655 44.75 11.649C44.491 11.6505 44.248 11.7655 44.082 11.9645L42.225 14.1935L41.62 13.59C41.278 13.248 40.7215 13.248 40.38 13.59L39 14.9695V10.25C39 10.112 39.112 10 39.25 10Z" fill="white"/>
</g>
<path d="M4 56C1.79086 56 0 54.2091 0 52L0 28.5H27.5V56H4Z" fill="#9292A3"/>
<path d="M52 56C54.2091 56 56 54.2091 56 52V28.5H28.5V56H52Z" fill="#9292A3"/>
<g clip-path="url(#clip2)">
<path d="M11.1247 45.7488C10.3242 45.7488 9.61221 45.2363 9.35371 44.4733L9.33621 44.4158C9.27521 44.2138 9.24971 44.0438 9.24971 43.8738V40.4648L8.03671 44.5138C7.88071 45.1093 8.23621 45.7268 8.83271 45.8913L16.5642 47.9618C16.6607 47.9868 16.7572 47.9988 16.8522 47.9988C17.3502 47.9988 17.8052 47.6683 17.9327 47.1813L18.3832 45.7488H11.1247Z" fill="white"/>
<path d="M12.5 40.5C13.0515 40.5 13.5 40.0515 13.5 39.5C13.5 38.9485 13.0515 38.5 12.5 38.5C11.9485 38.5 11.5 38.9485 11.5 39.5C11.5 40.0515 11.9485 40.5 12.5 40.5Z" fill="white"/>
<path d="M18.75 37H11.25C10.561 37 10 37.561 10 38.25V43.75C10 44.439 10.561 45 11.25 45H18.75C19.439 45 20 44.439 20 43.75V38.25C20 37.561 19.439 37 18.75 37ZM11.25 38H18.75C18.888 38 19 38.112 19 38.25V41.7995L17.4205 39.9565C17.253 39.76 17.0105 39.655 16.75 39.649C16.491 39.6505 16.248 39.7655 16.082 39.9645L14.225 42.1935L13.62 41.59C13.278 41.248 12.7215 41.248 12.38 41.59L11 42.9695V38.25C11 38.112 11.112 38 11.25 38Z" fill="white"/>
</g>
<g clip-path="url(#clip3)">
<path d="M39.1247 45.7488C38.3242 45.7488 37.6122 45.2363 37.3537 44.4733L37.3362 44.4158C37.2752 44.2138 37.2497 44.0438 37.2497 43.8738V40.4648L36.0367 44.5138C35.8807 45.1093 36.2362 45.7268 36.8327 45.8913L44.5642 47.9618C44.6607 47.9868 44.7572 47.9988 44.8522 47.9988C45.3502 47.9988 45.8052 47.6683 45.9327 47.1813L46.3832 45.7488H39.1247Z" fill="white"/>
<path d="M40.5 40.5C41.0515 40.5 41.5 40.0515 41.5 39.5C41.5 38.9485 41.0515 38.5 40.5 38.5C39.9485 38.5 39.5 38.9485 39.5 39.5C39.5 40.0515 39.9485 40.5 40.5 40.5Z" fill="white"/>
<path d="M46.75 37H39.25C38.561 37 38 37.561 38 38.25V43.75C38 44.439 38.561 45 39.25 45H46.75C47.439 45 48 44.439 48 43.75V38.25C48 37.561 47.439 37 46.75 37ZM39.25 38H46.75C46.888 38 47 38.112 47 38.25V41.7995L45.4205 39.9565C45.253 39.76 45.0105 39.655 44.75 39.649C44.491 39.6505 44.248 39.7655 44.082 39.9645L42.225 42.1935L41.62 41.59C41.278 41.248 40.7215 41.248 40.38 41.59L39 42.9695V38.25C39 38.112 39.112 38 39.25 38Z" fill="white"/>
</g>
<defs>
<clipPath id="clip0">
<rect width="12" height="12" fill="white" transform="translate(8 8)"/>
</clipPath>
<clipPath id="clip1">
<rect width="12" height="12" fill="white" transform="translate(36 8)"/>
</clipPath>
<clipPath id="clip2">
<rect width="12" height="12" fill="white" transform="translate(8 36)"/>
</clipPath>
<clipPath id="clip3">
<rect width="12" height="12" fill="white" transform="translate(36 36)"/>
</clipPath>
</defs>
</svg>
