<svg width="56" height="56" viewBox="0 0 56 56" fill="none" xmlns="http://www.w3.org/2000/svg">
<rect width="56" height="56" rx="4" fill="#54B2D3"/>
<rect x="7" y="42" width="43" height="1" fill="white"/>
<path d="M28 11.25C23.168 11.25 19.25 15.168 19.25 20C19.25 24.832 23.168 28.75 28 28.75C32.832 28.75 36.75 24.832 36.75 20C36.75 15.168 32.832 11.25 28 11.25ZM28 27.2656C23.9883 27.2656 20.7344 24.0117 20.7344 20C20.7344 15.9883 23.9883 12.7344 28 12.7344C32.0117 12.7344 35.2656 15.9883 35.2656 20C35.2656 24.0117 32.0117 27.2656 28 27.2656Z" fill="white"/>
<path d="M31.4121 22.4726L28.6269 20.459V15.625C28.6269 15.5391 28.5566 15.4688 28.4707 15.4688H27.5312C27.4453 15.4688 27.375 15.5391 27.375 15.625V21.0039C27.375 21.0547 27.3984 21.1015 27.4395 21.1308L30.6699 23.4863C30.7402 23.5371 30.8379 23.5215 30.8887 23.4531L31.4473 22.6914C31.498 22.6191 31.4824 22.5215 31.4121 22.4726Z" fill="white"/>
<circle cx="28.5" cy="42.5" r="3" fill="#54B2D3" stroke="white"/>
<circle cx="46.5" cy="42.5" r="3" fill="#54B2D3" stroke="white"/>
<circle cx="10.5" cy="42.5" r="3" fill="#54B2D3" stroke="white"/>
</svg>
