<svg width="56" height="56" viewBox="0 0 56 56" fill="none" xmlns="http://www.w3.org/2000/svg">
<path d="M4 0C1.79086 0 0 1.79086 0 4L0 27.5H18V0L4 0Z" fill="#9292A3"/>
<path d="M19 0V27.5H37V0L19 0Z" fill="#9292A3"/>
<path d="M52 0C54.2091 0 56 1.79086 56 4V27.5H38V0L52 0Z" fill="#9292A3"/>
<g clip-path="url(#clip0)">
<path d="M6.12471 17.7488C5.32421 17.7488 4.61221 17.2363 4.35371 16.4733L4.33621 16.4158C4.27521 16.2138 4.24971 16.0438 4.24971 15.8738V12.4648L3.03671 16.5138C2.88071 17.1093 3.23621 17.7268 3.83271 17.8913L11.5642 19.9618C11.6607 19.9868 11.7572 19.9988 11.8522 19.9988C12.3502 19.9988 12.8052 19.6683 12.9327 19.1813L13.3832 17.7488H6.12471Z" fill="white"/>
<path d="M7.5 12.5C8.0515 12.5 8.5 12.0515 8.5 11.5C8.5 10.9485 8.0515 10.5 7.5 10.5C6.9485 10.5 6.5 10.9485 6.5 11.5C6.5 12.0515 6.9485 12.5 7.5 12.5Z" fill="white"/>
<path d="M13.75 9H6.25C5.561 9 5 9.561 5 10.25V15.75C5 16.439 5.561 17 6.25 17H13.75C14.439 17 15 16.439 15 15.75V10.25C15 9.561 14.439 9 13.75 9ZM6.25 10H13.75C13.888 10 14 10.112 14 10.25V13.7995L12.4205 11.9565C12.253 11.76 12.0105 11.655 11.75 11.649C11.491 11.6505 11.248 11.7655 11.082 11.9645L9.225 14.1935L8.62 13.59C8.278 13.248 7.7215 13.248 7.38 13.59L6 14.9695V10.25C6 10.112 6.112 10 6.25 10Z" fill="white"/>
</g>
<g clip-path="url(#clip1)">
<path d="M25.1247 17.7488C24.3242 17.7488 23.6122 17.2363 23.3537 16.4733L23.3362 16.4158C23.2752 16.2138 23.2497 16.0438 23.2497 15.8738V12.4648L22.0367 16.5138C21.8807 17.1093 22.2362 17.7268 22.8327 17.8913L30.5642 19.9618C30.6607 19.9868 30.7572 19.9988 30.8522 19.9988C31.3502 19.9988 31.8052 19.6683 31.9327 19.1813L32.3832 17.7488H25.1247Z" fill="white"/>
<path d="M26.5 12.5C27.0515 12.5 27.5 12.0515 27.5 11.5C27.5 10.9485 27.0515 10.5 26.5 10.5C25.9485 10.5 25.5 10.9485 25.5 11.5C25.5 12.0515 25.9485 12.5 26.5 12.5Z" fill="white"/>
<path d="M32.75 9H25.25C24.561 9 24 9.561 24 10.25V15.75C24 16.439 24.561 17 25.25 17H32.75C33.439 17 34 16.439 34 15.75V10.25C34 9.561 33.439 9 32.75 9ZM25.25 10H32.75C32.888 10 33 10.112 33 10.25V13.7995L31.4205 11.9565C31.253 11.76 31.0105 11.655 30.75 11.649C30.491 11.6505 30.248 11.7655 30.082 11.9645L28.225 14.1935L27.62 13.59C27.278 13.248 26.7215 13.248 26.38 13.59L25 14.9695V10.25C25 10.112 25.112 10 25.25 10Z" fill="white"/>
</g>
<g clip-path="url(#clip2)">
<path d="M44.1247 17.7488C43.3242 17.7488 42.6122 17.2363 42.3537 16.4733L42.3362 16.4158C42.2752 16.2138 42.2497 16.0438 42.2497 15.8738V12.4648L41.0367 16.5138C40.8807 17.1093 41.2362 17.7268 41.8327 17.8913L49.5642 19.9618C49.6607 19.9868 49.7572 19.9988 49.8522 19.9988C50.3502 19.9988 50.8052 19.6683 50.9327 19.1813L51.3832 17.7488H44.1247Z" fill="white"/>
<path d="M45.5 12.5C46.0515 12.5 46.5 12.0515 46.5 11.5C46.5 10.9485 46.0515 10.5 45.5 10.5C44.9485 10.5 44.5 10.9485 44.5 11.5C44.5 12.0515 44.9485 12.5 45.5 12.5Z" fill="white"/>
<path d="M51.75 9H44.25C43.561 9 43 9.561 43 10.25V15.75C43 16.439 43.561 17 44.25 17H51.75C52.439 17 53 16.439 53 15.75V10.25C53 9.561 52.439 9 51.75 9ZM44.25 10H51.75C51.888 10 52 10.112 52 10.25V13.7995L50.4205 11.9565C50.253 11.76 50.0105 11.655 49.75 11.649C49.491 11.6505 49.248 11.7655 49.082 11.9645L47.225 14.1935L46.62 13.59C46.278 13.248 45.7215 13.248 45.38 13.59L44 14.9695V10.25C44 10.112 44.112 10 44.25 10Z" fill="white"/>
</g>
<path d="M4 56C1.79086 56 0 54.2091 0 52L0 28.5H18V56H4Z" fill="#9292A3"/>
<path d="M19 56V28.5H37V56H19Z" fill="#9292A3"/>
<path d="M52 56C54.2091 56 56 54.2091 56 52V28.5H38V56H52Z" fill="#9292A3"/>
<g clip-path="url(#clip3)">
<path d="M6.12471 45.7488C5.32421 45.7488 4.61221 45.2363 4.35371 44.4733L4.33621 44.4158C4.27521 44.2138 4.24971 44.0438 4.24971 43.8738V40.4648L3.03671 44.5138C2.88071 45.1093 3.23621 45.7268 3.83271 45.8913L11.5642 47.9618C11.6607 47.9868 11.7572 47.9988 11.8522 47.9988C12.3502 47.9988 12.8052 47.6683 12.9327 47.1813L13.3832 45.7488H6.12471Z" fill="white"/>
<path d="M7.5 40.5C8.0515 40.5 8.5 40.0515 8.5 39.5C8.5 38.9485 8.0515 38.5 7.5 38.5C6.9485 38.5 6.5 38.9485 6.5 39.5C6.5 40.0515 6.9485 40.5 7.5 40.5Z" fill="white"/>
<path d="M13.75 37H6.25C5.561 37 5 37.561 5 38.25V43.75C5 44.439 5.561 45 6.25 45H13.75C14.439 45 15 44.439 15 43.75V38.25C15 37.561 14.439 37 13.75 37ZM6.25 38H13.75C13.888 38 14 38.112 14 38.25V41.7995L12.4205 39.9565C12.253 39.76 12.0105 39.655 11.75 39.649C11.491 39.6505 11.248 39.7655 11.082 39.9645L9.225 42.1935L8.62 41.59C8.278 41.248 7.7215 41.248 7.38 41.59L6 42.9695V38.25C6 38.112 6.112 38 6.25 38Z" fill="white"/>
</g>
<g clip-path="url(#clip4)">
<path d="M44.1247 45.7488C43.3242 45.7488 42.6122 45.2363 42.3537 44.4733L42.3362 44.4158C42.2752 44.2138 42.2497 44.0438 42.2497 43.8738V40.4648L41.0367 44.5138C40.8807 45.1093 41.2362 45.7268 41.8327 45.8913L49.5642 47.9618C49.6607 47.9868 49.7572 47.9988 49.8522 47.9988C50.3502 47.9988 50.8052 47.6683 50.9327 47.1813L51.3832 45.7488H44.1247Z" fill="white"/>
<path d="M45.5 40.5C46.0515 40.5 46.5 40.0515 46.5 39.5C46.5 38.9485 46.0515 38.5 45.5 38.5C44.9485 38.5 44.5 38.9485 44.5 39.5C44.5 40.0515 44.9485 40.5 45.5 40.5Z" fill="white"/>
<path d="M51.75 37H44.25C43.561 37 43 37.561 43 38.25V43.75C43 44.439 43.561 45 44.25 45H51.75C52.439 45 53 44.439 53 43.75V38.25C53 37.561 52.439 37 51.75 37ZM44.25 38H51.75C51.888 38 52 38.112 52 38.25V41.7995L50.4205 39.9565C50.253 39.76 50.0105 39.655 49.75 39.649C49.491 39.6505 49.248 39.7655 49.082 39.9645L47.225 42.1935L46.62 41.59C46.278 41.248 45.7215 41.248 45.38 41.59L44 42.9695V38.25C44 38.112 44.112 38 44.25 38Z" fill="white"/>
</g>
<g clip-path="url(#clip5)">
<path d="M25.1247 45.7488C24.3242 45.7488 23.6122 45.2363 23.3537 44.4733L23.3362 44.4158C23.2752 44.2138 23.2497 44.0438 23.2497 43.8738V40.4648L22.0367 44.5138C21.8807 45.1093 22.2362 45.7268 22.8327 45.8913L30.5642 47.9618C30.6607 47.9868 30.7572 47.9988 30.8522 47.9988C31.3502 47.9988 31.8052 47.6683 31.9327 47.1813L32.3832 45.7488H25.1247Z" fill="white"/>
<path d="M26.5 40.5C27.0515 40.5 27.5 40.0515 27.5 39.5C27.5 38.9485 27.0515 38.5 26.5 38.5C25.9485 38.5 25.5 38.9485 25.5 39.5C25.5 40.0515 25.9485 40.5 26.5 40.5Z" fill="white"/>
<path d="M32.75 37H25.25C24.561 37 24 37.561 24 38.25V43.75C24 44.439 24.561 45 25.25 45H32.75C33.439 45 34 44.439 34 43.75V38.25C34 37.561 33.439 37 32.75 37ZM25.25 38H32.75C32.888 38 33 38.112 33 38.25V41.7995L31.4205 39.9565C31.253 39.76 31.0105 39.655 30.75 39.649C30.491 39.6505 30.248 39.7655 30.082 39.9645L28.225 42.1935L27.62 41.59C27.278 41.248 26.7215 41.248 26.38 41.59L25 42.9695V38.25C25 38.112 25.112 38 25.25 38Z" fill="white"/>
</g>
<defs>
<clipPath id="clip0">
<rect width="12" height="12" fill="white" transform="translate(3 8)"/>
</clipPath>
<clipPath id="clip1">
<rect width="12" height="12" fill="white" transform="translate(22 8)"/>
</clipPath>
<clipPath id="clip2">
<rect width="12" height="12" fill="white" transform="translate(41 8)"/>
</clipPath>
<clipPath id="clip3">
<rect width="12" height="12" fill="white" transform="translate(3 36)"/>
</clipPath>
<clipPath id="clip4">
<rect width="12" height="12" fill="white" transform="translate(41 36)"/>
</clipPath>
<clipPath id="clip5">
<rect width="12" height="12" fill="white" transform="translate(22 36)"/>
</clipPath>
</defs>
</svg>
