<svg width="56" height="56" viewBox="0 0 56 56" fill="none" xmlns="http://www.w3.org/2000/svg">
<path d="M38 0H52C54.2091 0 56 1.79086 56 4V52C56 54.2091 54.2091 56 52 56H38V0Z" fill="#9292A3"/>
<path d="M0 4C0 1.79086 1.79086 0 4 0H18V56H4C1.79086 56 0 54.2091 0 52V4Z" fill="#9292A3"/>
<path d="M19 0H37V56H19V0Z" fill="#9292A3"/>
<g clip-path="url(#clip0)">
<path d="M6.12471 31.7488C5.32421 31.7488 4.61221 31.2363 4.35371 30.4733L4.33621 30.4158C4.27521 30.2138 4.24971 30.0438 4.24971 29.8738V26.4648L3.03671 30.5138C2.88071 31.1093 3.23621 31.7268 3.83271 31.8913L11.5642 33.9618C11.6607 33.9868 11.7572 33.9988 11.8522 33.9988C12.3502 33.9988 12.8052 33.6683 12.9327 33.1813L13.3832 31.7488H6.12471Z" fill="white"/>
<path d="M7.5 26.5C8.0515 26.5 8.5 26.0515 8.5 25.5C8.5 24.9485 8.0515 24.5 7.5 24.5C6.9485 24.5 6.5 24.9485 6.5 25.5C6.5 26.0515 6.9485 26.5 7.5 26.5Z" fill="white"/>
<path d="M13.75 23H6.25C5.561 23 5 23.561 5 24.25V29.75C5 30.439 5.561 31 6.25 31H13.75C14.439 31 15 30.439 15 29.75V24.25C15 23.561 14.439 23 13.75 23ZM6.25 24H13.75C13.888 24 14 24.112 14 24.25V27.7995L12.4205 25.9565C12.253 25.76 12.0105 25.655 11.75 25.649C11.491 25.6505 11.248 25.7655 11.082 25.9645L9.225 28.1935L8.62 27.59C8.278 27.248 7.7215 27.248 7.38 27.59L6 28.9695V24.25C6 24.112 6.112 24 6.25 24Z" fill="white"/>
</g>
<g clip-path="url(#clip1)">
<path d="M44.1247 31.7488C43.3242 31.7488 42.6122 31.2363 42.3537 30.4733L42.3362 30.4158C42.2752 30.2138 42.2497 30.0438 42.2497 29.8738V26.4648L41.0367 30.5138C40.8807 31.1093 41.2362 31.7268 41.8327 31.8913L49.5642 33.9618C49.6607 33.9868 49.7572 33.9988 49.8522 33.9988C50.3502 33.9988 50.8052 33.6683 50.9327 33.1813L51.3832 31.7488H44.1247Z" fill="white"/>
<path d="M45.5 26.5C46.0515 26.5 46.5 26.0515 46.5 25.5C46.5 24.9485 46.0515 24.5 45.5 24.5C44.9485 24.5 44.5 24.9485 44.5 25.5C44.5 26.0515 44.9485 26.5 45.5 26.5Z" fill="white"/>
<path d="M51.75 23H44.25C43.561 23 43 23.561 43 24.25V29.75C43 30.439 43.561 31 44.25 31H51.75C52.439 31 53 30.439 53 29.75V24.25C53 23.561 52.439 23 51.75 23ZM44.25 24H51.75C51.888 24 52 24.112 52 24.25V27.7995L50.4205 25.9565C50.253 25.76 50.0105 25.655 49.75 25.649C49.491 25.6505 49.248 25.7655 49.082 25.9645L47.225 28.1935L46.62 27.59C46.278 27.248 45.7215 27.248 45.38 27.59L44 28.9695V24.25C44 24.112 44.112 24 44.25 24Z" fill="white"/>
</g>
<g clip-path="url(#clip2)">
<path d="M25.1247 32.7488C24.3242 32.7488 23.6122 32.2363 23.3537 31.4733L23.3362 31.4158C23.2752 31.2138 23.2497 31.0438 23.2497 30.8738V27.4648L22.0367 31.5138C21.8807 32.1093 22.2362 32.7268 22.8327 32.8913L30.5642 34.9618C30.6607 34.9868 30.7572 34.9988 30.8522 34.9988C31.3502 34.9988 31.8052 34.6683 31.9327 34.1813L32.3832 32.7488H25.1247Z" fill="white"/>
<path d="M26.5 27.5C27.0515 27.5 27.5 27.0515 27.5 26.5C27.5 25.9485 27.0515 25.5 26.5 25.5C25.9485 25.5 25.5 25.9485 25.5 26.5C25.5 27.0515 25.9485 27.5 26.5 27.5Z" fill="white"/>
<path d="M32.75 24H25.25C24.561 24 24 24.561 24 25.25V30.75C24 31.439 24.561 32 25.25 32H32.75C33.439 32 34 31.439 34 30.75V25.25C34 24.561 33.439 24 32.75 24ZM25.25 25H32.75C32.888 25 33 25.112 33 25.25V28.7995L31.4205 26.9565C31.253 26.76 31.0105 26.655 30.75 26.649C30.491 26.6505 30.248 26.7655 30.082 26.9645L28.225 29.1935L27.62 28.59C27.278 28.248 26.7215 28.248 26.38 28.59L25 29.9695V25.25C25 25.112 25.112 25 25.25 25Z" fill="white"/>
</g>
<defs>
<clipPath id="clip0">
<rect width="12" height="12" fill="white" transform="translate(3 22)"/>
</clipPath>
<clipPath id="clip1">
<rect width="12" height="12" fill="white" transform="translate(41 22)"/>
</clipPath>
<clipPath id="clip2">
<rect width="12" height="12" fill="white" transform="translate(22 23)"/>
</clipPath>
</defs>
</svg>
