<svg width="56" height="56" viewBox="0 0 56 56" fill="none" xmlns="http://www.w3.org/2000/svg">
<path d="M29 0H52C54.2091 0 56 1.79086 56 4V52C56 54.2091 54.2091 56 52 56H29V0Z" fill="#9292A3"/>
<path d="M0 4C0 1.79086 1.79086 0 4 0H27V56H4C1.79086 56 0 54.2091 0 52V4Z" fill="#9292A3"/>
<g clip-path="url(#clip0)">
<path d="M9.16627 32.9985C8.09894 32.9985 7.14961 32.3151 6.80494 31.2978L6.78161 31.2211C6.70027 30.9518 6.66627 30.7251 6.66627 30.4985V25.9531L5.04894 31.3518C4.84094 32.1458 5.31494 32.9691 6.11027 33.1885L16.4189 35.9491C16.5476 35.9825 16.6763 35.9985 16.8029 35.9985C17.4669 35.9985 18.0736 35.5578 18.2436 34.9085L18.8443 32.9985H9.16627Z" fill="white"/>
<path d="M10.9993 25.9987C11.7347 25.9987 12.3327 25.4007 12.3327 24.6654C12.3327 23.93 11.7347 23.332 10.9993 23.332C10.264 23.332 9.66602 23.93 9.66602 24.6654C9.66602 25.4007 10.264 25.9987 10.9993 25.9987Z" fill="white"/>
<path d="M19.3327 21.332H9.33268C8.41402 21.332 7.66602 22.08 7.66602 22.9987V30.332C7.66602 31.2507 8.41402 31.9987 9.33268 31.9987H19.3327C20.2513 31.9987 20.9993 31.2507 20.9993 30.332V22.9987C20.9993 22.08 20.2513 21.332 19.3327 21.332ZM9.33268 22.6654H19.3327C19.5167 22.6654 19.666 22.8147 19.666 22.9987V27.7314L17.56 25.274C17.3367 25.012 17.0133 24.872 16.666 24.864C16.3207 24.866 15.9967 25.0194 15.7753 25.2847L13.2993 28.2567L12.4927 27.452C12.0367 26.996 11.2947 26.996 10.8393 27.452L8.99935 29.2914V22.9987C8.99935 22.8147 9.14868 22.6654 9.33268 22.6654Z" fill="white"/>
</g>
<g clip-path="url(#clip1)">
<path d="M39.1663 32.9985C38.0989 32.9985 37.1496 32.3151 36.8049 31.2978L36.7816 31.2211C36.7003 30.9518 36.6663 30.7251 36.6663 30.4985V25.9531L35.0489 31.3518C34.8409 32.1458 35.3149 32.9691 36.1103 33.1885L46.4189 35.9491C46.5476 35.9825 46.6763 35.9985 46.8029 35.9985C47.4669 35.9985 48.0736 35.5578 48.2436 34.9085L48.8443 32.9985H39.1663Z" fill="white"/>
<path d="M40.9993 25.9987C41.7347 25.9987 42.3327 25.4007 42.3327 24.6654C42.3327 23.93 41.7347 23.332 40.9993 23.332C40.264 23.332 39.666 23.93 39.666 24.6654C39.666 25.4007 40.264 25.9987 40.9993 25.9987Z" fill="white"/>
<path d="M49.3327 21.332H39.3327C38.414 21.332 37.666 22.08 37.666 22.9987V30.332C37.666 31.2507 38.414 31.9987 39.3327 31.9987H49.3327C50.2513 31.9987 50.9993 31.2507 50.9993 30.332V22.9987C50.9993 22.08 50.2513 21.332 49.3327 21.332ZM39.3327 22.6654H49.3327C49.5167 22.6654 49.666 22.8147 49.666 22.9987V27.7314L47.56 25.274C47.3367 25.012 47.0133 24.872 46.666 24.864C46.3207 24.866 45.9967 25.0194 45.7753 25.2847L43.2993 28.2567L42.4927 27.452C42.0367 26.996 41.2947 26.996 40.8393 27.452L38.9993 29.2914V22.9987C38.9993 22.8147 39.1487 22.6654 39.3327 22.6654Z" fill="white"/>
</g>
<defs>
<clipPath id="clip0">
<rect width="16" height="16" fill="white" transform="translate(5 20)"/>
</clipPath>
<clipPath id="clip1">
<rect width="16" height="16" fill="white" transform="translate(35 20)"/>
</clipPath>
</defs>
</svg>
