<svg width="56" height="56" viewBox="0 0 56 56" fill="none" xmlns="http://www.w3.org/2000/svg">
<path d="M56 29V52C56 54.2091 54.2091 56 52 56H4C1.79086 56 0 54.2091 0 52V29L56 29Z" fill="#54B2D3"/>
<path d="M4 0C1.79086 0 0 1.79086 0 4L0 27L56 27V4C56 1.79086 54.2091 0 52 0L4 0Z" fill="#54B2D3"/>
<g clip-path="url(#clip0)">
<path d="M23.6663 18.4985C22.5989 18.4985 21.6496 17.8151 21.3049 16.7978L21.2816 16.7211C21.2003 16.4518 21.1663 16.2251 21.1663 15.9985V11.4531L19.5489 16.8518C19.3409 17.6458 19.8149 18.4691 20.6103 18.6885L30.9189 21.4491C31.0476 21.4825 31.1763 21.4985 31.3029 21.4985C31.9669 21.4985 32.5736 21.0578 32.7436 20.4085L33.3443 18.4985H23.6663Z" fill="white"/>
<path d="M25.4993 11.4987C26.2347 11.4987 26.8327 10.9007 26.8327 10.1654C26.8327 9.43003 26.2347 8.83203 25.4993 8.83203C24.764 8.83203 24.166 9.43003 24.166 10.1654C24.166 10.9007 24.764 11.4987 25.4993 11.4987Z" fill="white"/>
<path d="M33.8327 6.83203H23.8327C22.914 6.83203 22.166 7.58003 22.166 8.4987V15.832C22.166 16.7507 22.914 17.4987 23.8327 17.4987H33.8327C34.7513 17.4987 35.4993 16.7507 35.4993 15.832V8.4987C35.4993 7.58003 34.7513 6.83203 33.8327 6.83203ZM23.8327 8.16536H33.8327C34.0167 8.16536 34.166 8.3147 34.166 8.4987V13.2314L32.06 10.774C31.8367 10.512 31.5133 10.372 31.166 10.364C30.8207 10.366 30.4967 10.5194 30.2753 10.7847L27.7993 13.7567L26.9927 12.952C26.5367 12.496 25.7947 12.496 25.3393 12.952L23.4993 14.7914V8.4987C23.4993 8.3147 23.6487 8.16536 23.8327 8.16536Z" fill="white"/>
</g>
<g clip-path="url(#clip1)">
<path d="M24.6663 47.4985C23.5989 47.4985 22.6496 46.8151 22.3049 45.7978L22.2816 45.7211C22.2003 45.4518 22.1663 45.2251 22.1663 44.9985V40.4531L20.5489 45.8518C20.3409 46.6458 20.8149 47.4691 21.6103 47.6885L31.9189 50.4491C32.0476 50.4825 32.1763 50.4985 32.3029 50.4985C32.9669 50.4985 33.5736 50.0578 33.7436 49.4085L34.3443 47.4985H24.6663Z" fill="white"/>
<path d="M26.4993 40.4987C27.2347 40.4987 27.8327 39.9007 27.8327 39.1654C27.8327 38.43 27.2347 37.832 26.4993 37.832C25.764 37.832 25.166 38.43 25.166 39.1654C25.166 39.9007 25.764 40.4987 26.4993 40.4987Z" fill="white"/>
<path d="M34.8327 35.832H24.8327C23.914 35.832 23.166 36.58 23.166 37.4987V44.832C23.166 45.7507 23.914 46.4987 24.8327 46.4987H34.8327C35.7513 46.4987 36.4993 45.7507 36.4993 44.832V37.4987C36.4993 36.58 35.7513 35.832 34.8327 35.832ZM24.8327 37.1654H34.8327C35.0167 37.1654 35.166 37.3147 35.166 37.4987V42.2314L33.06 39.774C32.8367 39.512 32.5133 39.372 32.166 39.364C31.8207 39.366 31.4967 39.5194 31.2753 39.7847L28.7993 42.7567L27.9927 41.952C27.5367 41.496 26.7947 41.496 26.3393 41.952L24.4993 43.7914V37.4987C24.4993 37.3147 24.6487 37.1654 24.8327 37.1654Z" fill="white"/>
</g>
<defs>
<clipPath id="clip0">
<rect width="16" height="16" fill="white" transform="translate(19.5 5.5)"/>
</clipPath>
<clipPath id="clip1">
<rect width="16" height="16" fill="white" transform="translate(20.5 34.5)"/>
</clipPath>
</defs>
</svg>
