<svg width="14" height="14" viewBox="0 0 14 14" fill="none" xmlns="http://www.w3.org/2000/svg">
<g clip-path="url(#clip0)">
<path d="M7.60083 1.09052L1.19 0.11635C0.8925 0.0696834 0.589167 0.15135 0.361667 0.34385C0.134167 0.542183 0 0.828017 0 1.12552V13.4164C0 13.7372 0.2625 13.9997 0.583333 13.9997H2.47917V10.9372C2.47917 10.3714 2.93417 9.91635 3.5 9.91635H4.95833C5.52417 9.91635 5.97917 10.3714 5.97917 10.9372V13.9997H8.45833V2.09968C8.45833 1.59802 8.09667 1.17218 7.60083 1.09052ZM3.20833 8.60385H2.33333C2.09183 8.60385 1.89583 8.40785 1.89583 8.16635C1.89583 7.92485 2.09183 7.72885 2.33333 7.72885H3.20833C3.44983 7.72885 3.64583 7.92485 3.64583 8.16635C3.64583 8.40785 3.44983 8.60385 3.20833 8.60385ZM3.20833 6.85385H2.33333C2.09183 6.85385 1.89583 6.65785 1.89583 6.41635C1.89583 6.17485 2.09183 5.97885 2.33333 5.97885H3.20833C3.44983 5.97885 3.64583 6.17485 3.64583 6.41635C3.64583 6.65785 3.44983 6.85385 3.20833 6.85385ZM3.20833 5.10385H2.33333C2.09183 5.10385 1.89583 4.90785 1.89583 4.66635C1.89583 4.42485 2.09183 4.22885 2.33333 4.22885H3.20833C3.44983 4.22885 3.64583 4.42485 3.64583 4.66635C3.64583 4.90785 3.44983 5.10385 3.20833 5.10385ZM3.20833 3.35385H2.33333C2.09183 3.35385 1.89583 3.15785 1.89583 2.91635C1.89583 2.67485 2.09183 2.47885 2.33333 2.47885H3.20833C3.44983 2.47885 3.64583 2.67485 3.64583 2.91635C3.64583 3.15785 3.44983 3.35385 3.20833 3.35385ZM6.125 8.60385H5.25C5.0085 8.60385 4.8125 8.40785 4.8125 8.16635C4.8125 7.92485 5.0085 7.72885 5.25 7.72885H6.125C6.3665 7.72885 6.5625 7.92485 6.5625 8.16635C6.5625 8.40785 6.3665 8.60385 6.125 8.60385ZM6.125 6.85385H5.25C5.0085 6.85385 4.8125 6.65785 4.8125 6.41635C4.8125 6.17485 5.0085 5.97885 5.25 5.97885H6.125C6.3665 5.97885 6.5625 6.17485 6.5625 6.41635C6.5625 6.65785 6.3665 6.85385 6.125 6.85385ZM6.125 5.10385H5.25C5.0085 5.10385 4.8125 4.90785 4.8125 4.66635C4.8125 4.42485 5.0085 4.22885 5.25 4.22885H6.125C6.3665 4.22885 6.5625 4.42485 6.5625 4.66635C6.5625 4.90785 6.3665 5.10385 6.125 5.10385ZM6.125 3.35385H5.25C5.0085 3.35385 4.8125 3.15785 4.8125 2.91635C4.8125 2.67485 5.0085 2.47885 5.25 2.47885H6.125C6.3665 2.47885 6.5625 2.67485 6.5625 2.91635C6.5625 3.15785 6.3665 3.35385 6.125 3.35385Z" fill="#9292A3"/>
<path d="M13.1943 6.32483L9.04102 5.45508V14.0003H12.9785C13.5414 14.0003 13.9993 13.5424 13.9993 12.9795V7.32233C13.9993 6.84049 13.6709 6.43041 13.1943 6.32483ZM11.8118 12.2503H10.9368C10.6953 12.2503 10.4993 12.0543 10.4993 11.8128C10.4993 11.5713 10.6953 11.3753 10.9368 11.3753H11.8118C12.0533 11.3753 12.2493 11.5713 12.2493 11.8128C12.2493 12.0543 12.0533 12.2503 11.8118 12.2503ZM11.8118 10.5003H10.9368C10.6953 10.5003 10.4993 10.3043 10.4993 10.0628C10.4993 9.82133 10.6953 9.62533 10.9368 9.62533H11.8118C12.0533 9.62533 12.2493 9.82133 12.2493 10.0628C12.2493 10.3043 12.0533 10.5003 11.8118 10.5003ZM11.8118 8.75033H10.9368C10.6953 8.75033 10.4993 8.55433 10.4993 8.31283C10.4993 8.07133 10.6953 7.87533 10.9368 7.87533H11.8118C12.0533 7.87533 12.2493 8.07133 12.2493 8.31283C12.2493 8.55433 12.0533 8.75033 11.8118 8.75033Z" fill="#9292A3"/>
</g>
<defs>
<clipPath id="clip0">
<rect width="14" height="14" fill="white"/>
</clipPath>
</defs>
</svg>
