<svg width="14" height="14" viewBox="0 0 14 14" fill="none" xmlns="http://www.w3.org/2000/svg">
<g clip-path="url(#clip0)">
<path fill-rule="evenodd" clip-rule="evenodd" d="M8.75 5.25C8.75 5.54838 8.7115 5.838 8.64062 6.11363C8.65765 6.11442 8.67397 6.11682 8.69021 6.11922L8.69023 6.11922C8.70987 6.12212 8.72941 6.125 8.75 6.125C10.1972 6.125 11.375 4.94725 11.375 3.5C11.375 2.05275 10.1972 0.875 8.75 0.875C7.85225 0.875 7.06037 1.32912 6.587 2.01775C7.85487 2.5445 8.75 3.794 8.75 5.25ZM7.875 5.25C7.875 6.69975 6.69975 7.875 5.25 7.875C3.80025 7.875 2.625 6.69975 2.625 5.25C2.625 3.80025 3.80025 2.625 5.25 2.625C6.69975 2.625 7.875 3.80025 7.875 5.25ZM0.15225 10.6069C3.10538 8.128 7.39375 8.128 10.3469 10.6069C10.444 10.6883 10.5 10.809 10.5 11.0636V12.2519C10.5 12.7358 10.108 13.126 9.625 13.126H0.875C0.392 13.126 0 12.7358 0 12.1443V10.9359C0 10.809 0.056 10.6883 0.15225 10.6069ZM8.26028 7.01766C10.2308 6.89516 12.2372 7.50416 13.8472 8.85516C13.9443 8.93654 14.0003 9.05991 14.0003 9.18679V10.4993C14.0003 10.9823 13.6083 11.3743 13.1253 11.3743H11.3753V10.9368C11.3753 10.5658 11.2257 10.2009 10.9422 9.96116C9.8449 9.03191 8.5779 8.41941 7.25578 8.10966C7.6644 7.82179 8.00478 7.44728 8.26028 7.01766Z" fill="#9292A3"/>
</g>
<defs>
<clipPath id="clip0">
<rect width="14" height="14" fill="white"/>
</clipPath>
</defs>
</svg>
