<svg width="14" height="14" viewBox="0 0 14 14" fill="none" xmlns="http://www.w3.org/2000/svg">
<path d="M11.3755 0H2.85686H2.39488H2.18839L2.22514 0.0174992C1.22506 0.104995 0.438477 0.934456 0.438477 1.95641V5.24975H3.93831V13.5619C3.93831 13.7071 4.01093 13.8427 4.1308 13.9241C4.25067 14.0055 4.40379 14.0212 4.53853 13.9678L6.56319 13.1576L8.58784 13.9678C8.69197 14.0107 8.80833 14.0107 8.91245 13.9678L10.938 13.1576L12.9626 13.9678C13.0151 13.9888 13.0711 13.9993 13.1254 13.9993C13.212 13.9993 13.2969 13.974 13.3704 13.9241C13.4911 13.8427 13.5629 13.7071 13.5629 13.5619V2.1874C13.5629 0.981704 12.582 0 11.3755 0ZM3.93831 2.62488V4.37479H1.31344V1.95641C1.31344 1.36056 1.79904 0.874959 2.39488 0.874959H2.85686C3.45271 0.874959 3.93831 1.36056 3.93831 1.95641V2.62488ZM11.3755 10.4995H7.87563C7.63414 10.4995 7.43815 10.3035 7.43815 10.062C7.43815 9.82054 7.63414 9.62455 7.87563 9.62455H11.3755C11.617 9.62455 11.8129 9.82054 11.8129 10.062C11.8129 10.3035 11.617 10.4995 11.3755 10.4995ZM11.3755 8.74959H7.87563C7.63414 8.74959 7.43815 8.5536 7.43815 8.31211C7.43815 8.07062 7.63414 7.87463 7.87563 7.87463H11.3755C11.617 7.87463 11.8129 8.07062 11.8129 8.31211C11.8129 8.5536 11.617 8.74959 11.3755 8.74959ZM11.3755 6.99967H6.12571C5.88422 6.99967 5.68823 6.80368 5.68823 6.56219C5.68823 6.3207 5.88422 6.12471 6.12571 6.12471H11.3755C11.617 6.12471 11.8129 6.3207 11.8129 6.56219C11.8129 6.80368 11.617 6.99967 11.3755 6.99967ZM11.3755 3.49984H6.12571C5.88422 3.49984 5.68823 3.30385 5.68823 3.06236C5.68823 2.82087 5.88422 2.62488 6.12571 2.62488H11.3755C11.617 2.62488 11.8129 2.82087 11.8129 3.06236C11.8129 3.30385 11.617 3.49984 11.3755 3.49984Z" fill="#9292A3"/>
</svg>
