<svg width="14" height="14" viewBox="0 0 14 14" fill="none" xmlns="http://www.w3.org/2000/svg">
<g clip-path="url(#clip0)">
<path d="M6.99933 6.46154C8.78363 6.46154 10.2301 5.01507 10.2301 3.23077C10.2301 1.44646 8.78363 0 6.99933 0C5.21502 0 3.76855 1.44646 3.76855 3.23077C3.76855 5.01507 5.21502 6.46154 6.99933 6.46154Z" fill="#9292A3"/>
<path d="M13.2727 9.82335C9.63809 6.77243 4.36009 6.77243 0.725471 9.82335C0.607009 9.9235 0.538086 10.07 0.538086 10.2261C0.538086 10.7463 0.538086 12.0041 0.538086 12.9249C0.538086 13.5193 1.02055 14.0007 1.61501 14.0007H12.3842C12.9787 14.0007 13.4612 13.5193 13.4612 12.9249V10.4372C13.4612 10.07 13.3922 9.9235 13.2727 9.82335Z" fill="#9292A3"/>
</g>
<defs>
<clipPath id="clip0">
<rect width="14" height="14" fill="white"/>
</clipPath>
</defs>
</svg>
