<svg width="14" height="14" viewBox="0 0 14 14" fill="none" xmlns="http://www.w3.org/2000/svg">
<path fill-rule="evenodd" clip-rule="evenodd" d="M2.91634 2.33333C2.59434 2.33333 2.33301 2.072 2.33301 1.75L1.74967 1.75V3.79167C1.74967 5.23892 2.92742 6.41667 4.37467 6.41667C5.82192 6.41667 6.99967 5.23892 6.99967 3.79167V1.75L6.41634 1.75C6.41634 2.072 6.15501 2.33333 5.83301 2.33333C5.51101 2.33333 5.24967 2.072 5.24967 1.75V1.16742L5.24967 1.16667L5.24967 1.16591V0.583333C5.24967 0.261333 5.51101 0 5.83301 0C6.15501 0 6.41634 0.261333 6.41634 0.583333H6.99967C7.64309 0.583333 8.16634 1.10658 8.16634 1.75V3.79167C8.16634 5.68401 6.77275 7.25711 4.95801 7.53853V9.91667C4.95801 11.5249 6.26642 12.8333 7.87467 12.8333C9.48293 12.8333 10.7913 11.5249 10.7913 9.91667V9.21145C10.2768 8.98589 9.91634 8.47157 9.91634 7.875C9.91634 7.07117 10.5708 6.41667 11.3747 6.41667C12.1785 6.41667 12.833 7.07117 12.833 7.875C12.833 8.47157 12.4725 8.98588 11.958 9.21145V9.91667C11.958 12.1683 10.1263 14 7.87467 14C5.62301 14 3.79134 12.1683 3.79134 9.91667V7.53853C1.9766 7.25711 0.583008 5.68401 0.583008 3.79167V1.75C0.583008 1.10658 1.10626 0.583333 1.74967 0.583333H2.33301C2.33301 0.261333 2.59434 0 2.91634 0C3.23834 0 3.49967 0.261333 3.49967 0.583333V1.16516L3.49967 1.16667L3.49967 1.16817V1.75C3.49967 2.072 3.23834 2.33333 2.91634 2.33333Z" fill="#9292A3"/>
</svg>
