<svg width="52" height="52" viewBox="0 0 52 52" fill="none" xmlns="http://www.w3.org/2000/svg">
<path d="M47.9998 6.23972C47.9998 6.06106 47.8623 5.91204 47.6843 5.89726C43.4843 5.54793 41.722 4.81222 38.3193 5.47316C37.1066 5.70872 32.8355 7.36868 31.2307 12.7714C30.6118 14.8551 30.4694 17.1705 30.4469 19.3371C30.4374 20.254 30.3954 21.0751 30.1105 21.9106C29.6178 23.3558 26.504 32.1004 26.1523 32.8532C25.5112 34.2247 24.5422 35.2643 23.0739 35.6765C21.9493 35.9921 19.8968 36.4758 15.3622 37.7381C14.4579 37.9898 7.82257 39.0692 4.28419 39.6838C4.11945 39.7123 4 39.8551 4 40.0222V46.4508C4 46.643 4.15821 46.7978 4.35028 46.7945C14.5642 46.6179 20.5519 46.4523 24.9127 45.5855C27.463 45.0786 30.5294 44.5743 32.3962 42.702C39.1815 35.8968 41.5972 22.7574 45.2657 22.0086C46.1481 21.8285 46.8188 22.3591 47.428 22.8974C47.6501 23.0937 47.9998 22.9367 47.9998 22.6403V6.23972Z" fill="#FDBA91"/>
<path d="M43.7299 5.42773C45.447 6.13818 46.6562 7.66227 46.5127 10.6555L46.068 16.6607C45.8717 19.3118 44.2324 21.6158 41.8268 22.7491C41.6081 22.8522 41.4125 22.9646 41.2518 23.0858C38.2624 25.3395 36.5251 35.8947 29.7399 42.6999C28.7469 43.6958 27.3373 44.6483 25.8516 45.3983C28.1826 44.9354 30.7534 44.3471 32.3958 42.6999C39.1811 35.8947 41.5968 22.7553 45.2654 22.0065C46.1478 21.8263 46.8184 22.357 47.4276 22.8953C47.6498 23.0916 47.9995 22.9346 47.9995 22.6382V6.23761C47.9995 6.05903 47.8622 5.90993 47.6842 5.89515C46.0886 5.76246 44.8455 5.57417 43.7299 5.42773Z" fill="#FC997D"/>
<path d="M29.7158 38.7529C29.1335 36.9436 27.4014 36.0136 27.3279 35.9748C27.0129 35.8089 26.6232 35.9297 26.4573 36.2446C26.2913 36.5595 26.4121 36.9494 26.7271 37.1153C26.7403 37.1224 28.0724 37.8544 28.4887 39.1479C28.598 39.4874 28.9618 39.6729 29.2998 39.5639C29.6385 39.4549 29.8248 39.0918 29.7158 38.7529Z" fill="#EB866C"/>
</svg>
