<svg width="52" height="52" viewBox="0 0 52 52" fill="none" xmlns="http://www.w3.org/2000/svg">
<path d="M46.2079 48.5862H42.27C42.1012 48.5862 41.956 48.4669 41.9236 48.3013C41.6419 46.8623 40.3907 40.287 40.1551 35.8277C40.0888 34.5774 40.6261 31.9158 40.4209 30.6809C39.9705 27.9812 39.6638 23.6045 38.3871 20.6805C38.3126 20.5099 38.0601 20.5564 38.0491 20.7423C37.8616 23.9096 36.4917 26.9684 35.6132 29.3133C35.2003 30.4143 34.6604 33.7675 34.6849 34.9423C34.7406 37.6602 35.9992 43.0746 36.4973 48.2003C36.5174 48.4073 36.3536 48.5862 36.1455 48.5862H15.8558C15.6478 48.5862 15.4839 48.4073 15.5041 48.2003C16.0021 43.0746 17.2607 37.6602 17.3165 34.9423C17.341 33.7675 16.8011 30.4143 16.3881 29.3133C15.5096 26.9683 14.1398 23.9096 13.9523 20.7423C13.9412 20.5565 13.6888 20.5099 13.6143 20.6805C12.3376 23.6045 12.0309 27.9812 11.5804 30.6809C11.3754 31.9157 11.9125 34.5774 11.8463 35.8277C11.6106 40.287 10.3595 46.8623 10.0778 48.3013C10.0453 48.467 9.90027 48.5862 9.7314 48.5862H5.79367C5.60829 48.5862 5.4546 48.4432 5.44163 48.2582C5.3279 46.6401 4.85004 39.3795 5.0505 34.2734C5.24558 29.3323 6.39355 26.4114 6.42707 25.496C6.57592 21.5031 7.16389 17.6048 7.09674 15.9832C7.00781 13.8021 7.04778 11.3306 8.64122 9.8428C11.193 7.45872 18.4834 7.62247 19.9118 7.00098C21.2318 6.42748 22.3852 5.1731 22.4122 3.7623C22.4158 3.56854 22.5706 3.41211 22.7645 3.41211H29.2371C29.4309 3.41211 29.5858 3.56854 29.5894 3.7623C29.6164 5.1731 30.7697 6.42748 32.0897 7.00098C33.5181 7.62247 40.8085 7.45872 43.3603 9.8428C44.9538 11.3306 44.9937 13.8021 44.9048 15.9832C44.8377 17.6048 45.4257 21.503 45.5745 25.496C45.6081 26.4114 46.756 29.3323 46.951 34.2734C47.1516 39.3795 46.6737 46.6401 46.5599 48.2582C46.547 48.4432 46.3933 48.5862 46.2079 48.5862Z" fill="#FDBA91"/>
<path d="M46.2077 48.5862H42.2702C42.1015 48.5862 41.9563 48.4669 41.9238 48.3013C41.642 46.8623 40.3907 40.2871 40.1554 35.828C40.0893 34.5769 40.6258 31.9159 40.421 30.6807C39.9709 27.9808 39.6639 23.6046 38.387 20.6806C38.3129 20.5094 38.0606 20.5562 38.0491 20.7424C37.8621 23.9098 36.4917 26.9679 35.6137 29.3131C35.2007 30.4142 34.6607 33.7679 34.6854 34.9422C34.7405 37.6602 35.9997 43.075 36.4971 48.2003C36.5172 48.4073 36.3534 48.5862 36.1454 48.5862H15.8561C15.6481 48.5862 15.4842 48.4073 15.5043 48.2003C16.0018 43.0749 17.261 37.6602 17.3161 34.9422C17.3408 33.7679 16.8007 30.4142 16.3878 29.3131C15.5098 26.9679 14.1394 23.9098 13.9524 20.7424C13.9409 20.5562 13.6885 20.5094 13.6144 20.6806C12.3376 23.6046 12.0305 27.9808 11.5804 30.6807C11.3758 31.9159 11.9122 34.5769 11.846 35.828C11.6106 40.2871 10.3593 46.8623 10.0776 48.3013C10.0451 48.4669 9.90001 48.5862 9.73113 48.5862H5.79367C5.60829 48.5862 5.4546 48.4432 5.44163 48.2582C5.3279 46.6401 4.85004 39.3795 5.0505 34.2734C5.24549 29.3325 6.39355 26.4112 6.42707 25.4962C6.57618 21.5029 7.16389 17.6049 7.09683 15.9832C7.00772 13.8021 7.04742 11.3308 8.64104 9.84236C11.1929 7.45837 18.4834 7.62247 19.9121 7.00133C21.2315 6.4273 22.3851 5.17293 22.4119 3.76238C22.4156 3.56854 22.5704 3.41211 22.7643 3.41211H29.2373C29.4311 3.41211 29.5859 3.56854 29.5896 3.76238C29.6163 5.17293 30.77 6.4273 32.0894 7.00133C33.518 7.62247 40.8085 7.45837 43.3604 9.84236C44.954 11.3308 44.9937 13.8021 44.9046 15.9832C44.8376 17.6049 45.4253 21.5029 45.5744 25.4962C45.6079 26.4112 46.756 29.3325 46.951 34.2734C47.1514 39.3795 46.6736 46.6401 46.5598 48.2582C46.5468 48.4432 46.393 48.5862 46.2077 48.5862Z" fill="#FDBA91"/>
<path d="M11.8469 35.8255C11.9132 34.5752 11.3759 31.9136 11.5811 30.6788C12.0228 28.0314 12.3262 23.7717 13.5416 20.8504C13.6771 20.5246 13.37 20.1891 13.0326 20.2925C11.7312 20.6917 11.5073 20.9538 10.353 23.8204C9.26908 27.1787 9.3394 27.7688 8.85396 30.6789C8.64891 31.9137 9.18606 34.5753 9.11988 35.8256C8.85387 40.8577 7.29492 48.5841 7.29492 48.5841H9.73212C9.9009 48.5841 10.046 48.4648 10.0785 48.2992C10.3601 46.8602 11.6113 40.2849 11.8469 35.8255Z" fill="#FC997D"/>
<path d="M29.6564 6.36237C29.957 6.36237 30.4672 6.37957 31.1121 6.42421C30.2478 5.76425 29.611 4.80677 29.5906 3.76327C29.5868 3.56907 29.4323 3.41211 29.2381 3.41211H26.8802C26.7022 4.96267 27.5629 6.36237 29.6564 6.36237Z" fill="#FC997D"/>
<path d="M34.685 34.9409C34.6605 33.7661 35.2005 30.4129 35.6133 29.3119C36.4821 26.9928 37.8314 23.9756 38.0425 20.8457C38.0729 20.3943 37.5109 20.1601 37.2184 20.5053C35.8251 22.1501 33.6444 27.2881 32.8861 29.3119C32.4732 30.4129 31.9333 33.7661 31.9578 34.9409C32.015 37.7272 33.3363 43.3471 33.8063 48.5849H36.1455C36.3536 48.5849 36.5174 48.406 36.4973 48.199C35.9994 43.0732 34.7408 37.6589 34.685 34.9409Z" fill="#FC997D"/>
<path d="M46.9522 34.2744C46.7572 29.3333 45.6092 26.4123 45.5757 25.4969C45.4268 21.504 44.8389 17.6058 44.906 15.9842C44.9949 13.803 44.955 11.3316 43.3615 9.84376C42.4147 8.95916 40.8155 8.42554 39.1055 8.07227C39.8268 8.39043 40.4557 8.76479 40.9269 9.20515C42.5203 10.693 42.2678 13.803 42.1789 15.9842C42.1117 17.6058 42.6998 21.504 42.8486 25.4969C42.8822 26.4123 44.0301 29.3333 44.2251 34.2744C44.452 40.0517 43.8104 48.5871 43.8104 48.5871H46.2091C46.3945 48.5871 46.5482 48.4441 46.5611 48.2592C46.6748 46.641 47.1527 39.3805 46.9522 34.2744Z" fill="#FC997D"/>
<path d="M23.4173 13.2094C23.0621 13.1252 22.7052 13.3444 22.6203 13.6996C22.6097 13.7444 21.5145 18.2073 18.3043 21.3499C18.0431 21.6056 18.0387 22.0245 18.2944 22.2857C18.5501 22.5468 18.969 22.5513 19.2302 22.2956C22.7211 18.8782 23.8612 14.2029 23.9081 14.0056C23.9924 13.6502 23.7727 13.294 23.4173 13.2094Z" fill="#EB866C"/>
<path d="M34.3718 21.3502C31.1715 18.2172 30.0731 13.7718 30.0559 13.7004C29.9716 13.3449 29.6149 13.1253 29.2592 13.2093C28.9035 13.2938 28.6837 13.6504 28.768 14.006C28.8149 14.2033 29.955 18.8786 33.4457 22.2959C33.7069 22.5515 34.1258 22.5472 34.3816 22.2861C34.6374 22.0248 34.633 21.6059 34.3718 21.3502Z" fill="#EB866C"/>
<path d="M26.6615 26.9664V48.5847H25.3379V26.9664C25.3379 26.6011 25.6343 26.3047 25.9997 26.3047C26.3651 26.3047 26.6615 26.6011 26.6615 26.9664Z" fill="#EB866C"/>
</svg>
