<svg width="52" height="52" viewBox="0 0 52 52" fill="none" xmlns="http://www.w3.org/2000/svg">
<path d="M47.3735 48.574H4.62681C4.44464 48.574 4.29165 48.4357 4.27481 48.2544C3.42832 39.1806 4.40249 29.6468 9.09876 21.8868C10.2687 19.9538 11.6634 18.1362 12.4965 16.0324C14.0097 12.207 13.4983 7.92032 12.9 3.83149C12.8687 3.61855 13.0338 3.42773 13.2491 3.42773H38.7513C38.9666 3.42773 39.1316 3.61855 39.1005 3.83141C38.5021 7.92023 37.9898 12.207 39.5031 16.0323C40.3361 18.1361 41.7309 19.9537 42.9008 21.8867C47.5971 29.6467 48.5712 39.1805 47.7256 48.2542C47.7087 48.4356 47.5557 48.574 47.3735 48.574Z" fill="#FDBA91"/>
<path d="M42.8998 21.8868C41.73 19.9538 40.3352 18.1362 39.5021 16.0324C37.9888 12.207 38.5011 7.92032 39.0995 3.83149C39.1307 3.61855 38.9657 3.42773 38.7504 3.42773H36.4317C35.8099 7.63709 35.2118 12.0809 36.775 16.0324C37.608 18.1362 39.0028 19.9538 40.1727 21.8868C44.9242 29.738 45.8655 39.4049 44.9669 48.574H47.3727C47.5549 48.574 47.7079 48.4356 47.7247 48.2544C48.5703 39.1806 47.5962 29.6468 42.8998 21.8868Z" fill="#FC997D"/>
<path d="M29.5759 25.6445C28.2325 27.0826 26.0587 30.4087 26.0587 36.8858C26.0587 30.4161 23.8904 27.0891 22.5469 25.6492C22.6632 25.7361 24.5371 27.1317 25.9987 27.1317C27.5075 27.1317 29.5759 25.6445 29.5759 25.6445Z" fill="#FC997D"/>
<path d="M28.1837 48.5734H23.9336C24.5852 47.4747 26.0586 44.184 26.0586 36.8848C26.0586 44.184 27.5321 47.4747 28.1837 48.5734Z" fill="#FC997D"/>
<path d="M30.9628 25.2964C30.9354 25.314 29.887 25.9912 28.8518 27.7221C27.8801 29.3463 26.7224 32.2535 26.7224 36.8836C26.7224 45.4438 28.7972 48.336 28.9788 48.5723H27.4313C27.0283 47.8025 26.4843 46.4799 26.061 44.4033C25.6378 46.4799 25.0937 47.8025 24.6908 48.5723H23.1433C23.2967 48.3756 25.3997 45.5029 25.3997 36.8836C25.3997 32.2535 24.242 29.3463 23.2711 27.7221C22.2271 25.9771 21.1699 25.3025 21.1593 25.2964C20.8516 25.1033 20.7546 24.6968 20.9459 24.3873C21.1373 24.0778 21.5402 23.9799 21.8506 24.1686C22.0032 24.2612 24.7649 26.0097 26.061 31.1248C27.3572 26.0097 30.1198 24.2612 30.2715 24.1686C30.5827 23.979 30.9901 24.0778 31.1806 24.3899C31.3693 24.7003 31.2723 25.1059 30.9628 25.2964Z" fill="#EB866C"/>
<path d="M26.6605 3.42773V19.2333C26.6605 19.5984 26.3643 19.8947 25.9992 19.8947C25.6342 19.8947 25.3379 19.5984 25.3379 19.2333V3.42773H26.6605Z" fill="#EB866C"/>
</svg>
