<svg width="52" height="52" viewBox="0 0 52 52" fill="none" xmlns="http://www.w3.org/2000/svg">
<path fill-rule="evenodd" clip-rule="evenodd" d="M2.64929 16.0195C2.20433 16.8831 2 17.9119 2 18.9908C2 20.5543 2.4767 21.2857 2.91397 21.9567C3.10032 22.2426 3.27952 22.5176 3.4116 22.8413C3.52222 23.1124 3.58956 23.4907 3.66516 23.9155C3.93105 25.4094 4.29923 27.4781 7.01183 27.4781C9.90334 27.4781 12.2473 24.3736 12.2473 20.5441C12.2473 18.8151 11.7695 17.2339 10.9793 16.0195H2.64929Z" fill="#FDBA91"/>
<path fill-rule="evenodd" clip-rule="evenodd" d="M41.022 16.0195C40.2317 17.2339 39.7539 18.8151 39.7539 20.5441C39.7539 24.3736 42.0979 27.4781 44.9894 27.4781C47.702 27.4781 48.0702 25.4094 48.3361 23.9155C48.4117 23.4907 48.479 23.1124 48.5896 22.8413C48.7217 22.5176 48.9009 22.2426 49.0873 21.9567C49.5245 21.2857 50.0012 20.5543 50.0012 18.9908C50.0012 17.9119 49.7969 16.8831 49.352 16.0195H41.022Z" fill="#FDBA91"/>
<path d="M4.84416 16.7243C4.40798 16.8609 4.16511 17.3252 4.30172 17.7612C4.43832 18.1974 4.90264 18.4402 5.33871 18.3037C7.59156 17.5984 8.67611 19.2004 8.79517 19.3903C9.0334 19.7795 9.53998 19.9011 9.92838 19.6668C10.3198 19.4307 10.4457 18.9221 10.2096 18.5308C9.59779 17.5164 7.6891 15.8335 4.84416 16.7243Z" fill="#DE7459"/>
<path d="M47.157 16.725C44.3275 15.8322 42.4293 17.5175 41.8212 18.5333C41.5865 18.9255 41.7123 19.4365 42.1044 19.6713C42.4975 19.9066 43.0036 19.7804 43.2379 19.3891C43.353 19.2038 44.4267 17.5989 46.659 18.3033C47.0947 18.4409 47.5597 18.199 47.6972 17.7631C47.8347 17.3272 47.5929 16.8624 47.157 16.725Z" fill="#DE7459"/>
<path fill-rule="evenodd" clip-rule="evenodd" d="M8.68164 19.7891V16.0195H43.3102V20.3393C43.3102 25.4035 41.8064 30.354 38.989 34.5634L37.5849 36.6614H14.9052L13.5761 34.8344C10.395 30.462 8.68164 25.195 8.68164 19.7891Z" fill="#FDBA91"/>
<path fill-rule="evenodd" clip-rule="evenodd" d="M39.902 16.0171C39.902 15.9774 43.3154 16.0192 43.3154 16.0192V20.3393C43.3154 25.4037 41.8116 30.354 38.9942 34.5635L37.5899 36.6617H34.1777L35.582 34.5635C38.3994 30.354 39.9032 25.4036 39.9032 20.3393V16.0184L39.902 16.0171Z" fill="#FC997D"/>
<path d="M30.1354 25.8513C30.1343 25.8524 30.1343 25.8548 30.1331 25.8559C29.7497 26.3355 28.4827 27.6394 25.9985 27.6394C25.9178 27.6394 25.8382 27.6383 25.7609 27.6349H25.7598C25.7598 27.6349 27.3555 24.7374 27.6171 21.5296C27.7571 19.8165 27.3726 17.9467 28.4224 17.9375C29.4723 17.9273 30.7826 24.5578 30.1354 25.8513Z" fill="#FC997D"/>
<path d="M30.6995 24.9803C30.3112 24.739 29.801 24.8583 29.5599 25.2465C29.5502 25.2622 28.5563 26.8143 26.0014 26.8143C23.5029 26.8143 22.4896 25.3177 22.439 25.2405C22.1963 24.857 21.6894 24.7402 21.3031 24.9803C20.9148 25.2215 20.7956 25.7317 21.0369 26.1199C21.0964 26.2159 22.5363 28.4694 26.0014 28.4694C29.4664 28.4694 30.9063 26.2158 30.9659 26.1199C31.2069 25.7317 31.0877 25.2214 30.6995 24.9803Z" fill="#DE7459"/>
<path d="M30.4126 32.0698L30.375 32.57C30.2908 33.7056 29.4367 34.6343 28.3118 34.8127C27.6532 34.9161 26.8615 34.998 25.9982 34.998C25.1327 34.998 24.3354 34.9161 23.6699 34.8115C22.5348 34.6331 21.676 33.6919 21.601 32.5461L21.5703 32.0664C22.4313 32.2915 23.9032 32.5632 25.9982 32.5632C28.0831 32.5632 29.5503 32.2949 30.4126 32.0698Z" fill="#FC997D"/>
<path d="M32.0975 31.4332C31.9122 31.0172 31.4234 30.8302 31.0067 31.0134C30.9903 31.0205 29.3206 31.7373 25.9979 31.7373C22.6938 31.7373 21.0243 31.0286 20.9894 31.0135C20.5739 30.8279 20.0858 31.013 19.8979 31.4282C19.7096 31.8447 19.8946 32.3349 20.3111 32.5233C20.3895 32.5588 22.2764 33.3924 25.9979 33.3924C29.7194 33.3924 31.6061 32.5588 31.6846 32.5233C32.0994 32.3358 32.2829 31.8492 32.0975 31.4332Z" fill="#DE7459"/>
</svg>
