<svg width="52" height="52" viewBox="0 0 52 52" fill="none" xmlns="http://www.w3.org/2000/svg">
<path d="M41.7027 47.633H19.7528C19.5722 47.633 19.4234 47.4911 19.4146 47.3107C19.2053 43.0137 21.4354 38.2598 20.7291 34.0561C16.3332 37.9735 8 33.6513 8 27.1031C8 23.6131 16.3418 13.1109 18.5077 10.9972C20.2643 9.28302 21.1167 7.01916 21.6514 4.6327C21.6861 4.47789 21.8226 4.36719 21.9813 4.36719H43.2431C43.4145 4.36719 43.5593 4.49589 43.5792 4.66608C44.9357 16.2786 42.7374 23.3039 40.752 33.9682C40.0467 37.7553 41.6227 43.1278 42.0394 47.2613C42.0594 47.4604 41.9029 47.633 41.7027 47.633Z" fill="#FDBA91"/>
<path d="M40.7525 33.9682C42.738 23.3039 44.9362 16.2786 43.5797 4.66608C43.5598 4.49589 43.415 4.36719 43.2437 4.36719H40.9356C42.3653 16.1587 40.1464 23.2127 38.144 33.9682C37.4174 37.87 39.1122 43.4545 39.4659 47.633H41.7033C41.9035 47.633 42.0601 47.4604 42.04 47.2612C41.6233 43.1278 40.0473 37.7553 40.7525 33.9682Z" fill="#FC997D"/>
</svg>
