<svg width="52" height="52" viewBox="0 0 52 52" fill="none" xmlns="http://www.w3.org/2000/svg">
<path d="M13.0475 9C12.5924 10.6165 11.658 11.9233 10.4725 12.6149C9.87932 12.9612 9.22333 13.1538 8.5327 13.1538C5.79041 13.1538 5.65279 10.8547 5.38284 9.48527C5.33328 9.2337 5.52493 9 5.78127 9H13.0475Z" fill="#FDBA91"/>
<path d="M46.2174 9C46.4736 9 46.6652 9.2337 46.6157 9.48516C46.3457 10.8546 46.2081 13.1537 43.4658 13.1537C42.8067 13.1537 42.1778 12.9779 41.6066 12.6598C40.3835 11.9819 39.4167 10.6531 38.9512 9H46.2174Z" fill="#FDBA91"/>
<path fill-rule="evenodd" clip-rule="evenodd" d="M45.471 43C44.7577 42.8341 44.0499 42.6481 43.3521 42.4245C40.5312 41.5204 37.7558 39.8343 36.5419 37.1324C35.6419 35.1292 35.7121 32.8434 35.799 30.6491L36.172 21.2344H15.8264L16.1993 30.6491C16.2862 32.8434 16.3564 35.1292 15.4565 37.1324C14.2425 39.8344 11.4671 41.5204 8.6462 42.4245C7.94841 42.6481 7.24057 42.8341 6.52734 43H45.471Z" fill="#FDB191"/>
<path fill-rule="evenodd" clip-rule="evenodd" d="M36.5411 37.1324C37.7551 39.8344 40.5305 41.5205 43.3514 42.4246C44.049 42.6482 44.7567 42.8341 45.4698 43H42.331C41.6179 42.8341 40.9102 42.6482 40.2126 42.4246C37.3917 41.5204 34.6163 39.8344 33.4023 37.1324C32.5024 35.1292 32.5726 32.8434 32.6595 30.6491L33.0324 21.2344H36.1712L35.7983 30.6491C35.7115 32.8434 35.6412 35.1292 36.5411 37.1324Z" fill="#FC997D"/>
<path d="M41.9244 9C41.914 10.2314 41.8072 11.4546 41.6063 12.6599C41.0601 15.9473 39.8193 19.0966 37.9506 21.8902L35.5201 25.5239C34.1829 27.5234 31.9377 28.7223 29.5333 28.7223H23.0296C20.7247 28.7223 18.5588 27.6196 17.2029 25.7551L14.5746 22.1391C12.5061 19.2943 11.1115 16.0383 10.4722 12.6148C10.2494 11.4263 10.1186 10.2178 10.082 9L41.9244 9Z" fill="#FDBA91"/>
<path d="M38.7857 9C38.7752 10.2314 38.6685 11.4546 38.4676 12.6599C37.9214 15.9473 36.6806 19.0966 34.8118 21.8902L32.3813 25.5239C31.0442 27.5234 28.7989 28.7223 26.3945 28.7223H29.5335C31.9379 28.7223 34.1832 27.5233 35.5203 25.5239L37.9508 21.8902C39.8195 19.0966 41.0604 15.9473 41.6066 12.6599C41.8074 11.4546 41.9142 10.2315 41.9247 9H38.7857V9Z" fill="#FC997D"/>
</svg>
