<svg width="52" height="52" viewBox="0 0 52 52" fill="none" xmlns="http://www.w3.org/2000/svg">
<path d="M13.0468 18.6933C13.0468 18.6933 13.3479 6.65421 24.4269 4.85733C35.506 3.06044 38.9983 14.4407 38.9983 22.5266C38.9983 30.6125 30.5686 36.4225 27.1365 43.0109C23.7044 49.5994 15.9972 47.563 14.3113 44.089C12.6253 40.6151 13.0468 18.6933 13.0468 18.6933Z" fill="#FDBA91"/>
<path d="M25.3624 4.73673C33.678 5.62984 36.4164 15.3686 36.4164 22.5273C36.4164 30.6131 27.9867 36.4231 24.5546 43.0116C23.2002 45.6116 21.1801 46.8676 19.127 47.223C21.9288 47.693 25.2082 46.7146 27.1373 43.0116C30.5693 36.4231 38.999 30.6131 38.999 22.5273C38.999 14.6734 35.7036 3.71305 25.3624 4.73673Z" fill="#FC997D"/>
<path d="M21.9417 25.7389C22.8569 22.6275 16.3815 19.6934 18.5929 13.3137C19.737 10.013 22.3232 7.70117 25.9815 7.70117C32.0664 7.70117 34.6314 15.483 34.6314 21.2253C34.6314 26.0001 29.4715 35.8713 21.1221 35.8713C17.8201 35.8713 17.4219 33.1088 17.4219 31.23C17.422 27.7614 21.0266 28.8504 21.9417 25.7389Z" fill="#FC997D"/>
<path d="M25.982 7.70117C25.5118 7.70117 25.0596 7.74 24.6256 7.81358C29.8303 8.78235 32.0494 15.8851 32.0494 21.2253C32.0494 25.7019 27.5138 34.6583 20.0664 35.7594C20.3808 35.8313 20.7307 35.8713 21.1228 35.8713C29.4721 35.8713 34.632 26.0001 34.632 21.2253C34.632 15.4831 32.067 7.70117 25.982 7.70117Z" fill="#EB866C"/>
<path d="M27.8684 26.6904C27.7714 27.0197 27.4245 27.2112 27.0918 27.1128C26.761 27.0145 26.5718 26.667 26.6702 26.3362C26.676 26.3145 27.3076 24.098 26.4027 22.6165C25.9894 21.939 25.3236 21.5207 24.367 21.3357C21.5872 20.7999 19.8556 19.885 18.9407 19.265C18.6115 18.5801 18.3499 17.8409 18.2207 17.0352C19.0761 17.7934 20.4533 19.308 24.6036 20.1091C25.9094 20.3608 26.8743 20.9874 27.4735 21.9707C28.6642 23.9305 27.9018 26.5787 27.8684 26.6904Z" fill="#EB866C"/>
</svg>
