<svg width="52" height="52" viewBox="0 0 52 52" fill="none" xmlns="http://www.w3.org/2000/svg">
<g clip-path="url(#clip0)">
<path d="M26 12.8457C37.4162 12.8457 46.9049 19.8873 51.3432 24.3978C52.219 25.2879 52.219 26.7118 51.3432 27.6018C46.9049 32.1124 37.4162 39.1541 26 39.1541C14.5839 39.1541 5.09511 32.1124 0.65683 27.6019C-0.218943 26.7118 -0.218943 25.2879 0.65683 24.3979C5.09511 19.8873 14.5839 12.8457 26 12.8457Z" fill="#D1EFF2"/>
<path d="M26.0001 39.1544C33.265 39.1544 39.1544 33.265 39.1544 26.0001C39.1544 18.7351 33.265 12.8457 26.0001 12.8457C18.7351 12.8457 12.8457 18.7351 12.8457 26.0001C12.8457 33.265 18.7351 39.1544 26.0001 39.1544Z" fill="#76B7EB"/>
<path opacity="0.1" d="M19.1941 14.7422C15.3888 17.0474 12.8457 21.2271 12.8457 26.0009C12.8457 33.2658 18.735 39.1551 25.9999 39.1551C29.1377 39.1551 32.0184 38.0558 34.2793 36.2221C14.2845 41.0761 12.8457 21.8913 19.1941 14.7422Z" fill="black"/>
<path d="M25.9988 32.443C29.5578 32.443 32.443 29.5578 32.443 25.9988C32.443 22.4398 29.5578 19.5547 25.9988 19.5547C22.4398 19.5547 19.5547 22.4398 19.5547 25.9988C19.5547 29.5578 22.4398 32.443 25.9988 32.443Z" fill="#38648C"/>
<path d="M32.3185 25.596C33.9992 25.596 35.3616 24.2335 35.3616 22.5529C35.3616 20.8722 33.9992 19.5098 32.3185 19.5098C30.6378 19.5098 29.2754 20.8722 29.2754 22.5529C29.2754 24.2335 30.6378 25.596 32.3185 25.596Z" fill="white"/>
<path opacity="0.15" d="M1.12109 23.9363C5.53612 21.2102 15.3945 15.5376 26.0011 15.5376C36.6076 15.5376 46.466 21.2102 50.881 23.9363C46.268 19.4234 37.0349 12.8457 26.0011 12.8457C14.9672 12.8457 5.73416 19.4234 1.12109 23.9363Z" fill="black"/>
<g opacity="0.1">
<path opacity="0.1" d="M34.0952 33.348C33.9263 33.348 33.7563 33.2922 33.615 33.1772L32.6854 32.4211C32.359 32.1556 32.3097 31.6759 32.5751 31.3495C32.8405 31.0231 33.3204 30.9737 33.6467 31.2392L34.5763 31.9953C34.9027 32.2608 34.952 32.7405 34.6866 33.0669C34.5361 33.2521 34.3165 33.348 34.0952 33.348Z" fill="black"/>
<path opacity="0.1" d="M35.9845 29.8068C35.9109 29.8068 35.8362 29.796 35.7621 29.7734L34.6159 29.424C34.2135 29.3013 33.9868 28.8756 34.1095 28.4732C34.2322 28.0708 34.6576 27.8444 35.0602 27.9668L36.2064 28.3163C36.6088 28.439 36.8355 28.8647 36.7128 29.267C36.6127 29.5954 36.3108 29.8068 35.9845 29.8068Z" fill="black"/>
<path opacity="0.1" d="M25.0399 37.1542C25.0165 37.1542 24.9928 37.1531 24.9689 37.1509C24.5501 37.1122 24.2418 36.7412 24.2806 36.3223L24.3909 35.129C24.4296 34.7101 24.8007 34.4029 25.2195 34.4406C25.6383 34.4793 25.9466 34.8503 25.9078 35.2693L25.7975 36.4625C25.7609 36.8576 25.4289 37.1542 25.0399 37.1542Z" fill="black"/>
<path opacity="0.1" d="M15.8884 29.3526C15.5487 29.3526 15.2392 29.1239 15.151 28.7798C15.0465 28.3723 15.2922 27.9572 15.6997 27.8528L16.8605 27.5552C17.2685 27.4509 17.6832 27.6965 17.7875 28.104C17.892 28.5114 17.6463 28.9265 17.2388 29.031L16.078 29.3286C16.0146 29.3448 15.951 29.3526 15.8884 29.3526Z" fill="black"/>
<path opacity="0.1" d="M21.0803 18.9403C20.8272 18.9403 20.5796 18.8143 20.435 18.5841L19.7968 17.5698C19.5727 17.2139 19.6798 16.7435 20.0359 16.5195C20.3917 16.2954 20.8623 16.4024 21.0862 16.7586L21.7245 17.7729C21.9485 18.1288 21.8415 18.5992 21.4854 18.8232C21.3593 18.9025 21.219 18.9403 21.0803 18.9403Z" fill="black"/>
<path opacity="0.1" d="M30.2769 18.5721C30.158 18.5721 30.0375 18.5443 29.9248 18.4854C29.552 18.2906 29.4076 17.8304 29.6023 17.4576L30.1572 16.3954C30.352 16.0225 30.8123 15.8785 31.185 16.0729C31.5578 16.2677 31.7022 16.7278 31.5075 17.1007L30.9526 18.1629C30.8168 18.4231 30.5514 18.5721 30.2769 18.5721Z" fill="black"/>
</g>
</g>
<defs>
<clipPath id="clip0">
<rect width="52" height="52" fill="white"/>
</clipPath>
</defs>
</svg>
