<svg width="52" height="52" viewBox="0 0 52 52" fill="none" xmlns="http://www.w3.org/2000/svg">
<path fill-rule="evenodd" clip-rule="evenodd" d="M12.1588 39.4277C12.2171 39.0149 12.2476 38.5892 12.2476 38.1542C12.2476 34.339 9.90355 31.2461 7.01197 31.2461C3.44342 31.2461 2 33.7497 2 36.6067C2 38.0612 2.41567 38.7929 2.82676 39.4277H12.1588Z" fill="#FDBA91"/>
<path fill-rule="evenodd" clip-rule="evenodd" d="M39.8407 39.4277C39.7824 39.0149 39.752 38.5892 39.752 38.1542C39.752 34.339 42.096 31.2461 44.9876 31.2461C48.5561 31.2461 49.9996 33.7497 49.9996 36.6067C49.9996 38.0612 49.5839 38.7929 49.1728 39.4277H39.8407Z" fill="#FDBA91"/>
<path d="M4.84222 34.3503C4.40603 34.4864 4.16316 34.9489 4.29977 35.3834C4.43637 35.8179 4.9007 36.0598 5.33679 35.9238C7.58969 35.2211 8.67427 36.8172 8.79334 37.0064C9.03157 37.3941 9.53816 37.5152 9.92658 37.2819C10.318 37.0466 10.4439 36.54 10.2078 36.15C9.59598 35.1394 7.68724 33.4628 4.84222 34.3503Z" fill="#DE7459"/>
<path d="M47.1571 34.351C44.3276 33.4615 42.4293 35.1406 41.8212 36.1526C41.5865 36.5433 41.7123 37.0524 42.1045 37.2863C42.4975 37.5207 43.0037 37.395 43.2379 37.0051C43.353 36.8205 44.4268 35.2216 46.6592 35.9234C47.0948 36.0605 47.5599 35.8195 47.6974 35.3852C47.8349 34.951 47.593 34.4879 47.1571 34.351Z" fill="#DE7459"/>
<path fill-rule="evenodd" clip-rule="evenodd" d="M43.2682 39.4277H8.76242C8.70873 38.7564 8.68164 38.0814 8.68164 37.4043V29.2391C8.68153 19.7183 16.4337 12 25.9964 12C35.5591 12 43.3111 19.7183 43.3111 29.2391V37.9524C43.3111 38.4454 43.2968 38.9374 43.2682 39.4277Z" fill="#FDBA91"/>
<path fill-rule="evenodd" clip-rule="evenodd" d="M24.2949 12.0833C24.8562 12.0287 25.4253 12 26.0011 12C35.5638 12 43.3159 19.7183 43.3158 29.2391V37.9524C43.3158 38.4454 43.3015 38.9374 43.2729 39.4277H39.8606C39.8892 38.9374 39.9035 38.4454 39.9035 37.9524V29.2391C39.9035 20.2915 33.0566 12.9366 24.2949 12.0833Z" fill="#FC997D"/>
<path fill-rule="evenodd" clip-rule="evenodd" d="M27.5879 39.4242H29.9947C29.6244 37.4596 28.9847 35.5531 28.4203 35.5586C27.6516 35.5653 27.6519 36.5659 27.6522 37.7713C27.6523 38.2121 27.6525 38.6803 27.615 39.1373C27.6071 39.2332 27.5981 39.3289 27.5879 39.4242Z" fill="#FC997D"/>
<path d="M18.425 29.1199C15.566 28.8746 13.1892 29.7402 13.0895 29.7772C12.6616 29.9358 12.4441 30.4093 12.6025 30.8359C12.761 31.2625 13.2369 31.4806 13.6653 31.3232C13.6865 31.3155 15.8077 30.5502 18.2829 30.7627C20.5209 30.9548 21.6636 32.6978 21.7135 32.7758C21.9559 33.1592 22.4645 33.2764 22.8515 33.036C23.2393 32.7951 23.3577 32.2866 23.116 31.9001C23.0517 31.7976 21.5082 29.3846 18.425 29.1199Z" fill="#DE7459"/>
<path d="M38.9114 29.7773C38.8115 29.7402 36.4345 28.8745 33.5759 29.1199C30.4925 29.3845 28.949 31.7976 28.8848 31.9002C28.6439 32.2852 28.7617 32.79 29.1469 33.032C29.5304 33.2729 30.0413 33.1601 30.2872 32.7762C30.3347 32.7018 31.4776 30.9552 33.718 30.7628C36.1926 30.5503 38.3144 31.3155 38.3343 31.3228C38.7627 31.4816 39.2391 31.2643 39.3985 30.8374C39.5578 30.4106 39.3399 29.936 38.9114 29.7773Z" fill="#DE7459"/>
</svg>
