<svg width="52" height="52" viewBox="0 0 52 52" fill="none" xmlns="http://www.w3.org/2000/svg">
<path d="M9.84961 23.1789C9.84961 23.1789 8.20384 9.90616 25.148 8.99023C24.6175 9.24753 24.1652 9.64193 23.8382 10.1326C26.5187 9.38254 29.3158 9.1392 32.0857 9.41521C31.261 9.4961 30.4805 9.82622 29.8481 10.3618C29.8481 10.3618 35.7861 9.44264 40.0891 11.3513C39.1196 11.376 38.1741 11.6583 37.3497 12.1691C40.3144 12.4325 43.0775 13.781 45.1094 15.9558C44.6559 15.9194 44.1994 15.9631 43.7609 16.0852C45.2876 16.7111 46.7154 17.555 48 18.5905C48 18.5905 45.5317 19.8146 44.0797 23.7542C44.0797 23.7542 47.7323 24.9208 47.5601 31.1169C47.1477 35.0139 46.1869 38.833 44.7059 42.461C44.5523 42.8522 44.1413 43.078 43.7288 42.9977C43.2885 42.9127 42.9858 42.5057 43.0312 42.0597C43.1922 40.4906 43.3424 36.8547 41.7917 33.9286C41.4426 33.2514 41.0578 32.5932 40.6391 31.9566C40.0522 31.176 39.6293 30.2848 39.3958 29.3365C39.3958 29.3365 29.3936 30.7901 21.3999 29.8339C13.4062 28.8777 14.3705 27.8485 12.048 27.6162C12.048 27.6162 12.4773 30.0534 10.9867 31.7174C9.98842 32.9544 9.24718 34.3783 8.80645 35.9055C8.39069 37.9489 8.27761 40.0424 8.47111 42.1187C8.4957 42.4946 8.25625 42.8373 7.89479 42.9435C7.50495 43.0564 7.09204 42.8613 6.93158 42.4885C6.00435 40.3115 3.20919 33.1409 4.21531 28.0191C4.60107 25.9024 6.11145 24.165 8.1539 23.4886C8.70448 23.3168 9.27386 23.2128 9.84961 23.1789Z" fill="#414451"/>
</svg>
