<svg width="52" height="52" viewBox="0 0 52 52" fill="none" xmlns="http://www.w3.org/2000/svg">
<path d="M15.1127 24.4192C15.1127 27.451 13.257 29.9088 10.9678 29.9088C8.20962 29.9088 8.51309 27.2073 8.11755 26.2379C7.7676 25.3803 7 24.9548 7 23.1895C7 20.9192 8.1427 18.9297 10.9678 18.9297C13.257 18.9297 15.1127 21.3874 15.1127 24.4192Z" fill="#FDBA91"/>
<path d="M36.8867 24.4192C36.8867 27.451 38.7424 29.9088 41.0316 29.9088C43.7898 29.9088 43.4863 27.2073 43.8818 26.2379C44.2318 25.3803 44.9994 24.9548 44.9994 23.1895C44.9994 20.9192 43.8567 18.9297 41.0316 18.9297C38.7424 18.9297 36.8867 21.3874 36.8867 24.4192Z" fill="#FDBA91"/>
<path d="M9.25253 21.3984C8.90721 21.5066 8.71494 21.8741 8.82309 22.2194C8.93124 22.5647 9.29883 22.7569 9.64406 22.6488C11.4276 22.0904 12.2862 23.3588 12.3805 23.5091C12.5691 23.8172 12.9701 23.9135 13.2776 23.728C13.5875 23.5411 13.6872 23.1384 13.5003 22.8286C13.0159 22.0255 11.5048 20.6932 9.25253 21.3984Z" fill="#DE7459"/>
<path d="M42.7513 21.399C40.5113 20.6922 39.0085 22.0264 38.5271 22.8306C38.3413 23.1411 38.4408 23.5456 38.7513 23.7315C39.0625 23.9178 39.4632 23.8179 39.6486 23.5081C39.7397 23.3614 40.5898 22.0908 42.3571 22.6485C42.702 22.7574 43.0702 22.5659 43.179 22.2208C43.2879 21.8757 43.0964 21.5078 42.7513 21.399Z" fill="#DE7459"/>
<path d="M33.3945 48.3622H18.6053C18.4123 48.3622 18.2559 48.2057 18.2559 48.0127V37.2031H33.744V48.0127C33.7439 48.2057 33.5874 48.3622 33.3945 48.3622Z" fill="#FDBA91"/>
<path d="M31.043 37.2031V48.3622H33.3949C33.5879 48.3622 33.7444 48.2057 33.7444 48.0127V37.2031H31.043Z" fill="#FC997D"/>
<path d="M29.04 41.398H23.4427C21.459 41.398 19.5952 40.4493 18.4286 38.8458L16.1659 35.7355C13.6475 32.2739 12.291 28.1041 12.291 23.8243V17.3359C12.2909 9.77007 18.428 3.63672 25.9985 3.63672C33.5689 3.63672 39.706 9.77007 39.706 17.3359V24.2599C39.706 28.2692 38.5154 32.1884 36.2849 35.521L34.1927 38.647C33.0423 40.3661 31.1093 41.398 29.04 41.398Z" fill="#FDBA91"/>
<path d="M25.9991 3.63672C25.5433 3.63672 25.0928 3.65952 24.6484 3.70293C31.5848 4.38099 37.0052 10.2256 37.0052 17.3359V24.2599C37.0052 28.2692 35.8146 32.1884 33.5842 35.521L31.492 38.647C30.3414 40.3661 28.4085 41.398 26.3391 41.398H29.0405C31.1099 41.398 33.0429 40.3661 34.1934 38.647L36.2856 35.521C38.516 32.1884 39.7066 28.2693 39.7066 24.2599V17.3359C39.7067 9.77007 33.5696 3.63672 25.9991 3.63672V3.63672Z" fill="#FC997D"/>
<path d="M29.2746 28.6246C29.2738 28.6255 29.2738 28.6274 29.2728 28.6282C28.9693 29.008 27.9662 30.0402 25.9996 30.0402C25.9356 30.0402 25.8727 30.0394 25.8114 30.0367H25.8105C25.8105 30.0367 27.0739 27.7428 27.281 25.2032C27.3918 23.847 27.0874 22.3666 27.9185 22.3594C28.7497 22.3513 29.7871 27.6006 29.2746 28.6246Z" fill="#FC997D"/>
<path d="M29.7192 27.9328C29.4118 27.7417 29.0079 27.8363 28.817 28.1436C28.8093 28.156 28.0225 29.3847 25.9998 29.3847C24.0218 29.3847 23.2196 28.1999 23.1795 28.1388C22.9874 27.8352 22.5861 27.7427 22.2802 27.9328C21.9728 28.1238 21.8785 28.5277 22.0695 28.835C22.1166 28.911 23.2565 30.6951 25.9998 30.6951C28.743 30.6951 29.8829 28.9109 29.9301 28.835C30.121 28.5277 30.0265 28.1237 29.7192 27.9328Z" fill="#DE7459"/>
<path d="M20.002 17.2398C17.7386 17.0449 15.857 17.7327 15.778 17.7622C15.4393 17.8882 15.2671 18.2645 15.3925 18.6034C15.518 18.9425 15.8947 19.1158 16.2339 18.9907C16.2506 18.9846 17.93 18.3764 19.8895 18.5452C21.6612 18.6979 22.5659 20.0831 22.6054 20.145C22.7973 20.4497 23.1999 20.5428 23.5063 20.3518C23.8133 20.1604 23.907 19.7563 23.7156 19.4491C23.6648 19.3677 22.4429 17.4502 20.002 17.2398Z" fill="#DE7459"/>
<path d="M36.2222 17.7622C36.1432 17.7328 34.2614 17.0448 31.9983 17.2398C29.5573 17.4501 28.3354 19.3676 28.2845 19.4492C28.0938 19.7552 28.1871 20.1563 28.492 20.3486C28.7957 20.54 29.2001 20.4504 29.3947 20.1453C29.4324 20.0862 30.3371 18.6982 32.1108 18.5454C34.0699 18.3765 35.7496 18.9846 35.7654 18.9904C36.1045 19.1166 36.4817 18.9439 36.6078 18.6047C36.734 18.2655 36.5614 17.8884 36.2222 17.7622Z" fill="#DE7459"/>
<path d="M29.4944 33.5476L29.4647 33.9436C29.3981 34.8427 28.7218 35.5779 27.8312 35.7191C27.3099 35.801 26.6831 35.8658 25.9997 35.8658C25.3144 35.8658 24.6832 35.801 24.1564 35.7182C23.2577 35.5769 22.5778 34.8318 22.5184 33.9247L22.4941 33.5449C23.1758 33.7231 24.341 33.9382 25.9997 33.9382C27.6502 33.9382 28.8118 33.7258 29.4944 33.5476Z" fill="#FC997D"/>
<path d="M30.8279 33.0417C30.6812 32.7124 30.2942 32.5643 29.9643 32.7093C29.9513 32.715 28.6295 33.2824 25.9989 33.2824C23.3831 33.2824 22.0614 32.7214 22.0338 32.7094C21.7048 32.5625 21.3185 32.709 21.1697 33.0378C21.0206 33.3674 21.1671 33.7556 21.4968 33.9047C21.5589 33.9328 23.0526 34.5928 25.9989 34.5928C28.9452 34.5928 30.4389 33.9328 30.5011 33.9047C30.8294 33.7563 30.9747 33.371 30.8279 33.0417Z" fill="#DE7459"/>
</svg>
