<svg width="52" height="52" viewBox="0 0 52 52" fill="none" xmlns="http://www.w3.org/2000/svg">
<path d="M48 4.50553C48 4.32455 47.8602 4.17459 47.6795 4.16256C44.9768 3.98192 27.0409 3.76088 20.1171 4.66761C15.9509 5.21323 13.0695 5.69259 8.92621 6.38808C7.67143 6.59871 5.82687 7.03536 5.15106 8.2726C3.69983 10.9296 3.91648 14.1537 4.22749 17.1669C5.2736 27.3013 6.93899 37.4953 6.01696 47.6245C5.99866 47.826 6.15627 48 6.35874 48H15.355C15.5143 48 15.6525 47.8912 15.6893 47.7362C16.9547 42.4092 18.5843 34.9264 18.6369 29.5246C18.6757 25.531 17.5359 20.9756 16.7818 19.1053C16.6903 18.8783 16.8419 18.6267 17.0853 18.6007C24.0492 17.8593 30.8141 21.408 37.8244 22.0327C40.0221 22.2285 45.2055 22.1347 47.674 22.0124C47.857 22.0033 48 21.8523 48 21.6691V4.50553Z" fill="#FDBA91"/>
<path d="M47.0818 4.13281L45.9474 15.7895C45.6158 19.1977 42.8894 21.8401 39.5332 22.1205C42.0621 22.1891 45.7185 22.1102 47.6732 22.0134C47.8561 22.0044 47.9992 21.8533 47.9992 21.6701V4.50647C47.9992 4.3254 47.8594 4.17552 47.6788 4.16349C47.5266 4.15327 47.3259 4.14304 47.0818 4.13281Z" fill="#FC997D"/>
<path d="M17.0765 18.6028C15.4263 18.5566 14.4403 19.8166 14.8679 21.4317C15.4587 23.6637 16.0082 26.7319 15.981 29.5253C15.9276 35.0169 14.2443 42.6592 12.9707 48.0006H15.355C15.5143 48.0006 15.6526 47.8918 15.6893 47.7369C16.9548 42.4099 18.5843 34.927 18.6369 29.5253C18.6757 25.5324 17.5363 20.9779 16.7823 19.1069C16.6916 18.882 16.8379 18.6331 17.0765 18.6028Z" fill="#FC997D"/>
<path d="M40.6138 11.579C38.1364 11.4466 33.3578 10.3895 33.3098 10.3788C32.9623 10.3015 32.6181 10.5206 32.5409 10.8681C32.4637 11.2156 32.6827 11.5599 33.0302 11.6372C33.2303 11.6817 37.9609 12.7282 40.545 12.8663C40.5568 12.8669 40.5683 12.8672 40.58 12.8672C40.9201 12.8672 41.2047 12.6008 41.223 12.2571C41.242 11.9015 40.9693 11.598 40.6138 11.579Z" fill="#EB866C"/>
<path d="M10.0842 16.1311C9.47156 16.8393 9.94782 18.4604 8.84473 18.8827C7.74163 19.3041 7.77085 16.8642 7.78503 16.8588L7.78684 16.857C9.0325 16.3657 9.6876 15.6619 10.0267 15.0059C10.0267 15.0059 10.6969 15.4229 10.0842 16.1311Z" fill="#FC997D"/>
<path d="M10.3745 14.2257C10.0481 14.0835 9.66834 14.2328 9.5262 14.5592C9.18331 15.3465 8.44958 15.9442 7.34537 16.3356C7.00987 16.4545 6.8343 16.823 6.95323 17.1585C7.04699 17.4227 7.29544 17.5878 7.56073 17.5878C7.63223 17.5878 7.70493 17.5758 7.77608 17.5506C8.77597 17.1961 10.0961 16.4787 10.708 15.074C10.8502 14.7476 10.7009 14.3678 10.3745 14.2257Z" fill="#EB866C"/>
</svg>
