<svg width="52" height="52" viewBox="0 0 52 52" fill="none" xmlns="http://www.w3.org/2000/svg">
<path d="M49.0127 21.8948C48.9619 21.8692 43.7939 19.3435 37.6973 15.163C33.9971 12.6265 30.7568 12.7763 28.6895 13.3486C27.5146 13.6746 26.5869 14.1642 25.9531 14.573C25.9424 14.5789 25.9326 14.5858 25.9219 14.5927C23.8789 13.4008 21.6211 12.9536 19.333 13.2964C17.2725 13.6057 15.7061 14.4597 14.9561 14.9404C14.666 15.1266 14.4072 15.2852 14.1641 15.4241L1 22.9596L13.6396 34.2649C15.7344 36.1394 18.0781 37.4555 20.6055 38.1765C22.5342 38.7262 24.3242 38.9655 25.9531 38.9961C26.0781 38.999 26.2012 39 26.3242 39C29.1875 39 31.5322 38.3637 33.2236 37.68C34.5713 37.1353 35.8438 36.3355 37.0039 35.3041L51 22.8601L49.0127 21.8948ZM25.9648 27.4474H25.9531C21.8574 27.4455 16.6748 26.1699 12.3652 24.8312C16.4316 24.1653 21.8213 23.4374 25.9531 23.4364H25.9619C30.1104 23.4364 35.4883 24.1643 39.542 24.8312C35.2393 26.1708 30.0625 27.4474 25.9648 27.4474Z" fill="#FFA6B7"/>
<path d="M51 22.8601L37.0301 35.3041C35.8721 36.3355 34.602 37.1353 33.2569 37.68C31.5687 38.3637 29.2283 39 26.3704 39C26.2476 39 26.1248 38.999 26 38.9961V27.4474H26.0117C30.1017 27.4474 35.2688 26.1708 39.5634 24.8312C35.5173 24.1643 30.1494 23.4364 26.0088 23.4364H26V14.573C26.6326 14.1642 27.5586 13.6746 28.7312 13.3486C30.7947 12.7763 34.0289 12.6265 37.7222 15.163C43.8074 19.3435 48.9657 21.8692 49.0164 21.8948L51 22.8601Z" fill="#FF738D"/>
</svg>
