<svg width="52" height="52" viewBox="0 0 52 52" fill="none" xmlns="http://www.w3.org/2000/svg">
<path d="M43.2969 5H37.6407C35.936 5 34.5413 6.39485 34.5413 8.09961C34.5413 9.38643 35.3362 10.496 36.4591 10.9629C36.664 11.0482 36.7191 11.312 36.5621 11.4689L25 23.0317L28.9681 27L40.5302 15.4371C40.6871 15.2802 40.9509 15.3352 41.0361 15.5401C41.503 16.6631 42.6125 17.4581 43.8992 17.4581C45.604 17.4581 46.9987 16.0632 46.9986 14.3584V8.70186C47.0528 6.54002 45.4838 5 43.2969 5Z" fill="#89B0E0"/>
<path d="M30.1028 18L25 23.0558L28.9809 27L34 22.0271C33.2677 20.6155 31.2234 18.4791 30.1028 18Z" fill="#6197D5"/>
<path d="M19 19C11.268 19 5 25.268 5 33C5 40.7319 11.268 47 19 47C26.732 47 33 40.732 33 33C33 25.2679 26.7319 19 19 19ZM19 41.658C14.2183 41.658 10.3421 37.7817 10.3421 33C10.3421 28.2184 14.2184 24.3421 19 24.3421C23.7817 24.3421 27.6579 28.2184 27.6579 33C27.6579 37.7817 23.7816 41.658 19 41.658Z" fill="#99DDFC"/>
<path d="M18.9696 46.9397C18.0685 45.1085 17.3397 43.1997 16.7559 41.2514C13.1427 40.1353 10.5259 36.8604 10.5259 32.9934C10.5259 29.2692 12.9533 26.0939 16.3604 24.8675C16.5211 24.2595 16.6962 23.6547 16.8855 23.0538C17.1959 22.0681 17.5541 21.0942 18.0138 20.1636C18.2097 19.767 18.4263 19.3702 18.6805 19C11.0552 19.4026 5 25.5134 5 32.9934C5 40.5777 11.2251 46.7538 19 47C18.9901 46.9798 18.9796 46.9599 18.9696 46.9397Z" fill="#66CDF7"/>
</svg>
