<svg width="52" height="52" viewBox="0 0 52 52" fill="none" xmlns="http://www.w3.org/2000/svg">
<path d="M15.0409 4C14.6558 5.36778 13.8652 6.47354 12.8621 7.05877C12.3602 7.35182 11.8051 7.51476 11.2207 7.51476C8.90033 7.51476 8.78388 5.56939 8.55546 4.41061C8.51353 4.19774 8.67569 4 8.8926 4H15.0409Z" fill="#EB866C"/>
<path d="M43.1073 4C43.3241 4 43.4863 4.19774 43.4443 4.41052C43.2159 5.5693 43.0995 7.51467 40.7791 7.51467C40.2213 7.51467 39.6892 7.36591 39.2059 7.09676C38.171 6.52313 37.3529 5.3988 36.959 4L43.1073 4Z" fill="#EB866C"/>
<path d="M48 34.259C48 34.1056 47.8987 33.9697 47.7511 33.9282C45.4222 33.2729 42.9879 33.0204 40.6833 32.2817C38.2964 31.5166 35.948 30.09 34.9207 27.8037C34.1593 26.1088 34.2186 24.1746 34.2922 22.3179C34.3974 19.6624 34.5026 17.0069 34.6078 14.3516H17.3922C17.4974 17.007 17.6026 19.6625 17.7078 22.3179C17.7814 24.1746 17.8408 26.1088 17.0793 27.8037C16.052 30.0901 13.7036 31.5166 11.3167 32.2817C9.01205 33.0204 6.57778 33.2729 4.24887 33.9282C4.10132 33.9697 4 34.1056 4 34.259V47.6562C4 47.846 4.15391 48 4.34375 48H47.6562C47.8461 48 48 47.846 48 47.6562V34.259Z" fill="#FDB191"/>
<path d="M40.6815 32.2817C38.2946 31.5167 35.9462 30.0901 34.919 27.8037C34.1575 26.1088 34.2169 24.1746 34.2904 22.3179L34.606 14.3516H31.9501L31.6345 22.3179C31.561 24.1746 31.5016 26.1088 32.2631 27.8037C33.2903 30.0901 35.6387 31.5166 38.0256 32.2817C39.7251 32.8265 41.4952 33.1069 43.2414 33.4794C44.4673 33.7408 45.3423 34.8259 45.3423 36.0794V48H47.6545C47.8444 48 47.9983 47.8461 47.9983 47.6563V34.2591C47.9983 34.1058 47.897 33.9698 47.7494 33.9283C45.4204 33.273 42.9862 33.0205 40.6815 32.2817Z" fill="#FC997D"/>
<path d="M23.1282 36.8068C22.4029 36.3728 21.5885 36.2668 20.8701 36.1733L11.3021 34.9273C10.9486 34.8816 10.6256 35.1302 10.5797 35.4832C10.5337 35.8362 10.7826 36.1596 11.1355 36.2056L20.7037 37.4516C21.3267 37.5327 21.9709 37.6165 22.4664 37.9129C23.183 38.3418 23.5942 39.1999 24.0204 40.1943C24.1611 40.5226 24.5406 40.6727 24.8667 40.5328C25.1939 40.3926 25.3455 40.0137 25.2052 39.6865C24.807 38.7574 24.2616 37.485 23.1282 36.8068Z" fill="#EB866C"/>
<path d="M41.3829 35.4833C41.337 35.1304 41.0142 34.8812 40.6605 34.9274L31.0926 36.1734C30.3741 36.2669 29.5597 36.3728 28.8344 36.8069C27.701 37.485 27.1556 38.7574 26.7574 39.6867C26.6171 40.0138 26.7687 40.3927 27.0959 40.533C27.423 40.6732 27.8019 40.5216 27.9422 40.1945C28.3684 39.2 28.7796 38.3419 29.4962 37.9131C29.9916 37.6167 30.6358 37.5328 31.259 37.4518L40.827 36.2058C41.18 36.1597 41.4289 35.8363 41.3829 35.4833Z" fill="#EB866C"/>
<path d="M39.4748 4C39.466 5.04199 39.3756 6.07694 39.2056 7.09684C38.7435 9.87847 37.6936 12.5433 36.1123 14.9071L34.0558 17.9818C32.9243 19.6736 31.0245 20.6881 28.99 20.6881H23.4869C21.5366 20.6881 19.7039 19.755 18.5566 18.1774L16.3327 15.1177C14.5824 12.7105 13.4023 9.95547 12.8614 7.05869C12.6729 6.05305 12.5622 5.03048 12.5312 4L39.4748 4Z" fill="#FDBA91"/>
<path d="M36.8207 4C36.8119 5.04199 36.7216 6.07694 36.5516 7.09684C36.0894 9.87847 35.0395 12.5433 33.4583 14.9071L31.4017 17.9818C30.2702 19.6736 28.3704 20.6881 26.3359 20.6881H28.992C31.0265 20.6881 32.9263 19.6735 34.0578 17.9818L36.1143 14.9071C37.6955 12.5433 38.7455 9.87847 39.2077 7.09684C39.3776 6.07694 39.468 5.04208 39.4768 4H36.8207V4Z" fill="#FC997D"/>
</svg>
