<svg width="52" height="52" viewBox="0 0 52 52" fill="none" xmlns="http://www.w3.org/2000/svg">
<path d="M20.0683 41.1523C20.6177 39.5415 19.0809 37.5595 16.6357 36.7256C14.1906 35.8916 11.763 36.5213 11.2136 38.1322C10.6641 39.743 12.201 41.7249 14.6461 42.5589C17.0913 43.3929 19.5189 42.7631 20.0683 41.1523Z" fill="#DE7459"/>
<path d="M37.4033 42.5518C39.8485 41.7178 41.3853 39.7359 40.8359 38.125C40.2864 36.5142 37.8589 35.8845 35.4137 36.7184C32.9685 37.5524 31.4317 39.5344 31.9811 41.1452C32.5306 42.756 34.9581 43.3858 37.4033 42.5518Z" fill="#DE7459"/>
<path d="M40.9338 30.3408C39.8353 28.7289 38.51 27.2662 37.5837 25.548C36.0862 22.7706 35.7353 19.5414 35.2005 16.4292C34.6667 13.3181 33.8388 10.0813 31.6568 7.80517C30.1458 6.22793 27.7794 4.66602 25.9995 4.66602C24.2195 4.66602 21.8541 6.22793 20.3431 7.80508C18.1611 10.0813 17.3332 13.318 16.7994 16.4291C16.2646 19.5414 15.9138 22.7706 14.4163 25.5479C13.4899 27.2661 12.1647 28.7288 11.0661 30.3407C9.96761 31.9537 7.88712 35.0413 8.00479 36.9912C8.18554 39.9811 9.85745 42.3839 11.3838 42.3839C12.7005 42.3839 12.1294 38.9938 14.8665 38.9938C16.0185 38.9938 17.4487 39.481 17.9973 42.9152C18.4382 45.6647 22.6268 47.3325 25.9995 47.3325C29.3731 47.3325 33.5618 45.6648 34.0025 42.9153C34.5512 39.4811 35.9813 38.9939 37.1333 38.9939C39.8706 38.9939 39.2993 42.384 40.6161 42.384C42.1425 42.384 43.8143 39.9812 43.995 36.9913C44.1128 35.0414 42.0323 31.9538 40.9338 30.3408Z" fill="#FDBA91"/>
<path d="M12.2949 38.9941C10.4861 38.9941 10.122 40.4745 9.70312 41.4788C10.2272 42.051 10.8155 42.3844 11.3836 42.3844C12.4492 42.3844 12.2786 40.1644 13.6254 39.3174C13.1829 39.0611 12.72 38.9941 12.2949 38.9941Z" fill="#FC997D"/>
<path d="M40.9329 30.3408C39.8344 28.7289 38.5091 27.2662 37.5827 25.548C36.0853 22.7706 35.7344 19.5414 35.1996 16.4292C34.6658 13.3181 33.8379 10.0813 31.6559 7.80509C30.1449 6.22793 27.7785 4.66602 25.9986 4.66602C25.5946 4.66602 25.1603 4.74718 24.7129 4.88993C26.2373 5.37643 27.9164 6.58584 29.0845 7.80509C31.2665 10.0813 32.0944 13.318 32.6282 16.4292C33.163 19.5415 33.5138 22.7707 35.0113 25.548C35.9377 27.2662 37.2629 28.7289 38.3615 30.3408C39.46 31.9538 41.5405 35.0414 41.4228 36.9913C41.3093 38.8683 40.6081 40.5134 39.7242 41.4784C39.9392 41.9939 40.1686 42.384 40.6152 42.384C42.1416 42.384 43.8135 39.9812 43.9942 36.9913C44.1119 35.0414 42.0314 31.9538 40.9329 30.3408Z" fill="#FC997D"/>
<path d="M32.3114 43.0604C30.9328 46.1608 27.9102 47.0772 24.9609 47.2817C25.3119 47.3148 25.6594 47.3319 25.9984 47.3319C29.3721 47.3319 33.5608 45.6642 34.0015 42.9147C34.5032 39.7743 35.742 39.0986 36.8311 39.0059C35.6792 39.0059 33.7241 39.8834 32.3114 43.0604Z" fill="#FC997D"/>
</svg>
