<svg width="52" height="52" viewBox="0 0 52 52" fill="none" xmlns="http://www.w3.org/2000/svg">
<path d="M46 40.7369C46 43.4189 45.3935 45.9513 44.8012 48.3853C44.7626 48.544 44.6205 48.6554 44.4573 48.6554H7.54274C7.37947 48.6554 7.23743 48.544 7.19885 48.3853C6.60646 45.9513 6 43.4189 6 40.7369C6 30.6147 10.4876 28.059 12.4106 23.2138C13.9353 19.3705 10.2617 8.28738 9.4623 3.75986C9.42416 3.54358 9.59159 3.3457 9.81115 3.3457H42.1888C42.4083 3.3457 42.5758 3.54358 42.5376 3.75986C41.7382 8.28738 38.0647 19.3705 39.5893 23.2138C41.5124 28.059 46 30.6147 46 40.7369Z" fill="#FDBA91"/>
<path d="M39.5887 23.2136C38.0639 19.3708 41.7378 8.28712 42.5366 3.75977C42.5747 3.54358 42.4073 3.3457 42.1877 3.3457H39.8644C39.2387 7.5703 35.2754 19.2478 36.849 23.2136C38.7721 28.0591 43.2596 30.6145 43.2596 40.7367C43.2596 43.5182 42.6073 46.1383 41.9952 48.6553H44.4567C44.62 48.6553 44.762 48.5439 44.8006 48.3853C45.3927 45.951 45.9992 43.4189 45.9992 40.7368C45.9992 30.6145 41.5118 28.0592 39.5887 23.2136Z" fill="#FC997D"/>
<path d="M19.6131 48.657H18.1122L16.6255 45.8393C16.4547 45.5145 16.5786 45.1136 16.9034 44.9419C17.2273 44.7711 17.6291 44.895 17.7999 45.2198L19.6131 48.657Z" fill="#EB866C"/>
<path d="M35.3743 45.8391L33.8876 48.6568H32.3867L34.2 45.2196C34.3717 44.8957 34.7726 44.771 35.0965 44.9418C35.4212 45.1134 35.5451 45.5143 35.3743 45.8391Z" fill="#EB866C"/>
<path d="M27.1958 26.994C26.5775 28.0392 26.6611 29.179 26.6621 29.1701C26.6621 29.5076 26.4197 29.8084 26.0849 29.8507C25.68 29.902 25.3347 29.5874 25.3347 29.1925C25.3242 29.0953 25.4212 28.0426 24.8009 26.994C24.4494 26.3998 24.4489 25.6037 24.8009 25.0087C25.4193 23.9635 25.3356 22.8237 25.3347 22.8326C25.3347 22.4952 25.577 22.1944 25.9118 22.152C26.3168 22.1007 26.6621 22.4153 26.6621 22.8102C26.6725 22.9074 26.5755 23.9601 27.1958 25.0087C27.5473 25.6029 27.5477 26.399 27.1958 26.994Z" fill="#EB866C"/>
</svg>
