<svg width="52" height="52" viewBox="0 0 52 52" fill="none" xmlns="http://www.w3.org/2000/svg">
<path d="M35.8946 5.37305C39.8139 5.37305 43.0008 10.6526 43.0008 15.6037V23.4114C43.0008 33.0338 38.3263 35.4082 38.3263 43.6292V43.7158C38.3263 45.3242 37.228 46.6277 35.8728 46.6277H33.3726C32.0182 46.6277 30.9191 45.3242 30.9191 43.7158C30.9191 41.4472 29.1627 38.2398 26.0368 38.2398C22.9485 38.2398 21.0798 41.4158 21.0798 43.7158C21.0798 45.3242 19.9808 46.6277 18.6264 46.6277H16.1261C14.7709 46.6277 13.6727 45.3242 13.6727 43.7158V43.6292C13.6726 35.4082 8.99805 33.0337 8.99805 23.4114C8.99805 20.0121 8.99805 15.6037 8.99805 15.6037C8.99805 10.6526 12.185 5.37305 16.1043 5.37305C23.6406 5.37305 20.4398 6.9877 25.9994 6.9877C31.5348 6.9877 28.3583 5.37305 35.8946 5.37305V5.37305Z" fill="#F6F0EC"/>
<path d="M23.549 38.2422C20.4608 38.2422 18.5921 41.4182 18.5921 43.7182C18.5921 45.3266 17.4931 46.6301 16.1387 46.6301H18.6267C19.9811 46.6301 21.0801 45.3266 21.0801 43.7182C21.0801 41.7459 22.4552 39.1313 24.7941 38.4258C24.407 38.3087 23.9923 38.2422 23.549 38.2422Z" fill="#DFD3CF"/>
<path d="M35.8946 5.37305C35.1715 5.37305 34.5479 5.38803 34.0048 5.41487C37.645 5.9158 40.5128 10.9071 40.5128 15.6036V23.4114C40.5128 33.0337 35.8382 35.4082 35.8382 43.6291V43.7157C35.8382 45.3242 34.74 46.6276 33.3848 46.6276H35.8728C37.228 46.6276 38.3262 45.3242 38.3262 43.7157V43.6291C38.3263 35.4082 43.0009 33.0337 43.0009 23.4114C43.0009 20.0121 43.0009 15.6037 43.0009 15.6037C43.0009 10.6526 39.814 5.37305 35.8946 5.37305Z" fill="#DFD3CF"/>
<path d="M32.0847 9.19176C31.9237 8.89952 31.556 8.79299 31.2638 8.95415C31.2441 8.96494 29.2533 10.0412 25.9989 10.0412C24.3121 10.0412 22.9713 9.74596 22.1435 9.49827C21.2439 9.22915 20.7376 8.95608 20.7326 8.95334C20.4404 8.79332 20.0739 8.89976 19.913 9.19168C19.752 9.48401 19.8584 9.85151 20.1506 10.0126C20.2423 10.0631 22.4368 11.2497 25.9989 11.2497C29.5609 11.2497 31.7553 10.0631 31.847 10.0126C32.1394 9.85159 32.2457 9.48401 32.0847 9.19176Z" fill="#DFD3CF"/>
</svg>
