<svg width="52" height="52" viewBox="0 0 52 52" fill="none" xmlns="http://www.w3.org/2000/svg">
<path d="M21.3661 41.6875H23.2582V44.4082C23.2582 45.8396 24.4791 47 25.9852 47C27.4913 47 28.7122 45.8396 28.7122 44.4082V41.6875H30.6339C31.9407 41.6875 33 40.6806 33 39.4387C33 38.1968 31.9407 37.1899 30.6339 37.1899H28.7122V29H23.2878L23.2582 37.1899H21.3661C20.0593 37.1899 19 38.1968 19 39.4387C19 40.6806 20.0593 41.6875 21.3661 41.6875Z" fill="#EF7D92"/>
<path d="M29 35.7387V29H23.0235L23 35.7387C24.5232 36.1391 27.7547 36.031 29 35.7387Z" fill="#EB6773"/>
<path d="M26 5C18.268 5 12 11.268 12 19C12 26.732 18.268 33 26 33C33.732 33 40 26.732 40 19C40 11.268 33.732 5 26 5ZM26 27.658C21.2183 27.658 17.342 23.7817 17.342 19C17.342 14.2183 21.2183 10.342 26 10.342C30.7817 10.342 34.658 14.2183 34.658 19C34.658 23.7817 30.7817 27.658 26 27.658Z" fill="#F6A7AE"/>
<path d="M17.5547 20.9863C17.4048 20.3473 17.3247 19.6813 17.3247 18.9964C17.3247 14.216 21.1884 10.3407 25.9546 10.3407C26.6338 10.3407 27.2945 10.4201 27.9285 10.569C29.8464 9.35956 31.8443 8.28444 34 7.56048C31.7262 5.94813 28.951 5 25.9546 5C18.2477 5 12 11.2664 12 18.9963C12 22.4256 13.2303 25.5662 15.2714 28C15.3113 27.9185 15.8906 24.0645 17.5547 20.9863Z" fill="#F1919B"/>
</svg>
