<svg width="32" height="32" viewBox="0 0 32 32" fill="none" xmlns="http://www.w3.org/2000/svg">
<path d="M0.533306 4.80006V30.4001C0.535063 30.9884 1.0116 31.465 1.59997 31.4667H30.4C30.9884 31.465 31.4649 30.9884 31.4666 30.4001V4.80006C31.4649 4.21169 30.9884 3.73516 30.4 3.7334H28.8V25.0667C28.7982 25.6551 28.3217 26.1316 27.7333 26.1334H4.26664C3.67826 26.1316 3.20173 25.6551 3.19997 25.0667V3.7334H1.59997C1.0116 3.73516 0.535063 4.21169 0.533306 4.80006Z" fill="#DCF0F9"/>
<rect x="3.20001" y="6.40039" width="25.6" height="19.2" fill="white"/>
<path d="M3.19995 25.0664V27.7331C3.20171 28.3214 3.67825 28.798 4.26662 28.7997H27.7333C28.3217 28.798 28.7982 28.3214 28.8 27.7331V25.0664C28.7982 25.6548 28.3217 26.1313 27.7333 26.1331H4.26662C3.67825 26.1313 3.20171 25.6548 3.19995 25.0664Z" fill="#DCF0F9"/>
<path d="M3.19995 3.19948V6.39948H28.8V3.19948C28.7982 2.6111 28.3217 2.13457 27.7333 2.13281H4.26662C3.67825 2.13457 3.20171 2.6111 3.19995 3.19948Z" fill="#DCF0F9"/>
<path d="M17.6 1.59987C17.6 1.01077 18.0776 0.533203 18.6667 0.533203C19.2558 0.533203 19.7333 1.01077 19.7333 1.59987V3.19987C19.7333 3.78897 19.2558 4.26654 18.6667 4.26654C18.0776 4.26654 17.6 3.78897 17.6 3.19987V1.59987Z" fill="#DCF0F9"/>
<path d="M22.9333 1.59987C22.9333 1.01077 23.4109 0.533203 24 0.533203C24.5891 0.533203 25.0667 1.01077 25.0667 1.59987V3.19987C25.0667 3.78897 24.5891 4.26654 24 4.26654C23.4109 4.26654 22.9333 3.78897 22.9333 3.19987V1.59987Z" fill="#DCF0F9"/>
<path d="M12.2667 1.59987C12.2667 1.01077 12.7443 0.533203 13.3334 0.533203C13.9225 0.533203 14.4 1.01077 14.4 1.59987V3.19987C14.4 3.78897 13.9225 4.26654 13.3334 4.26654C12.7443 4.26654 12.2667 3.78897 12.2667 3.19987V1.59987Z" fill="#DCF0F9"/>
<path d="M6.93328 1.59987C6.93328 1.01077 7.41085 0.533203 7.99995 0.533203C8.58906 0.533203 9.06662 1.01077 9.06662 1.59987V3.19987C9.06662 3.78897 8.58906 4.26654 7.99995 4.26654C7.41085 4.26654 6.93328 3.78897 6.93328 3.19987V1.59987Z" fill="#DCF0F9"/>
<path d="M30.4 31.4667H28.8C29.3884 31.465 29.8649 30.9884 29.8666 30.4001V4.80006C29.8649 4.21169 29.3884 3.73516 28.8 3.7334H30.4C30.9884 3.73516 31.4649 4.21169 31.4666 4.80006V30.4001C31.4649 30.9884 30.9884 31.465 30.4 31.4667Z" fill="white"/>
<path d="M32 26.1328H30.9333V30.3995H32V26.1328Z" fill="white"/>
<path d="M31.4561 28.8001C31.7506 28.8015 31.9906 28.564 31.9921 28.2694C31.9935 27.9748 31.7559 27.7349 31.4614 27.7334H31.4561C31.1615 27.7334 30.9227 27.9722 30.9227 28.2667C30.9227 28.5613 31.1615 28.8001 31.4561 28.8001Z" fill="#54B2D3"/>
<path d="M1.6 3.2H2.66667C2.66667 2.31634 3.38301 1.6 4.26666 1.6H6.4C6.4 0.716344 7.11634 0 8 0C8.88365 0 9.6 0.716344 9.6 1.6H11.7333C11.7333 0.716344 12.4497 0 13.3333 0C14.217 0 14.9333 0.716344 14.9333 1.6H17.0667C17.0667 0.716344 17.783 4.8e-08 18.6667 4.8e-08C19.5503 4.8e-08 20.2667 0.716344 20.2667 1.6H22.4C22.4 0.716344 23.1163 0 24 0C24.8837 0 25.6 0.716344 25.6 1.6H27.7333C28.617 1.6 29.3333 2.31634 29.3333 3.2H30.4C30.8243 3.2 31.2313 3.36857 31.5314 3.66863C31.8314 3.96869 32 4.37565 32 4.8V26.1333C32 26.4279 31.7612 26.6667 31.4667 26.6667C31.1721 26.6667 30.9333 26.4279 30.9333 26.1333V4.8C30.9333 4.50545 30.6946 4.26667 30.4 4.26667H29.3333V27.7333C29.3333 28.617 28.617 29.3333 27.7333 29.3333H4.26666C3.38301 29.3333 2.66667 28.617 2.66667 27.7333V4.26667H1.6C1.30545 4.26667 1.06667 4.50545 1.06667 4.8V30.4C1.06667 30.6946 1.30545 30.9333 1.6 30.9333H30.4C30.6946 30.9333 30.9333 30.6946 30.9333 30.4C30.9333 30.1054 31.1721 29.8667 31.4667 29.8667C31.7612 29.8667 32 30.1054 32 30.4C32 31.2837 31.2837 32 30.4 32H1.6C0.716343 32 0 31.2837 0 30.4V4.8C0 3.91634 0.716343 3.2 1.6 3.2ZM8.53333 1.6C8.53333 1.30545 8.29455 1.06667 8 1.06667C7.70545 1.06667 7.46667 1.30545 7.46667 1.6V3.2C7.46667 3.49455 7.70545 3.73333 8 3.73333C8.29455 3.73333 8.53333 3.49455 8.53333 3.2V1.6ZM13.8667 1.6C13.8667 1.30545 13.6279 1.06667 13.3333 1.06667C13.0388 1.06667 12.8 1.30545 12.8 1.6V3.2C12.8 3.49455 13.0388 3.73333 13.3333 3.73333C13.6279 3.73333 13.8667 3.49455 13.8667 3.2V1.6ZM19.2 1.6C19.2 1.30545 18.9612 1.06667 18.6667 1.06667C18.3721 1.06667 18.1333 1.30545 18.1333 1.6V3.2C18.1333 3.49455 18.3721 3.73333 18.6667 3.73333C18.9612 3.73333 19.2 3.49455 19.2 3.2V1.6ZM24.5333 1.6C24.5333 1.30545 24.2946 1.06667 24 1.06667C23.7054 1.06667 23.4667 1.30545 23.4667 1.6V3.2C23.4667 3.49455 23.7054 3.73333 24 3.73333C24.2946 3.73333 24.5333 3.49455 24.5333 3.2V1.6ZM28.2667 3.2C28.2667 2.90545 28.0279 2.66667 27.7333 2.66667H25.6V3.2C25.6 4.08366 24.8837 4.8 24 4.8C23.1163 4.8 22.4 4.08366 22.4 3.2V2.66667H20.2667V3.2C20.2667 4.08366 19.5503 4.8 18.6667 4.8C17.783 4.8 17.0667 4.08366 17.0667 3.2V2.66667H14.9333V3.2C14.9333 4.08366 14.217 4.8 13.3333 4.8C12.4497 4.8 11.7333 4.08366 11.7333 3.2V2.66667H9.6V3.2C9.6 4.08366 8.88365 4.8 8 4.8C7.11634 4.8 6.4 4.08366 6.4 3.2V2.66667H4.26666C3.97211 2.66667 3.73333 2.90545 3.73333 3.2V5.86667H28.2667V3.2ZM4.26666 28.2667H27.7333C28.0279 28.2667 28.2667 28.0279 28.2667 27.7333V26.5685C28.0959 26.6317 27.9154 26.6649 27.7333 26.6667H4.26666C4.08456 26.6649 3.90413 26.6317 3.73333 26.5685V27.7333C3.73333 28.0279 3.97211 28.2667 4.26666 28.2667ZM4.26666 25.6H27.7333C28.0279 25.6 28.2667 25.3612 28.2667 25.0667V6.93333H3.73333V25.0667C3.73333 25.3612 3.97211 25.6 4.26666 25.6Z" fill="#54B2D3"/>
<path d="M6.93334 8.5332H7.46667C7.76122 8.5332 8 8.77198 8 9.06654C8 9.36109 7.76122 9.59987 7.46667 9.59987H6.93334V12.2665C6.93334 13.1502 7.64968 13.8665 8.53334 13.8665C9.41699 13.8665 10.1333 13.1502 10.1333 12.2665V9.59987H9.6C9.30545 9.59987 9.06667 9.36109 9.06667 9.06654C9.06667 8.77198 9.30545 8.5332 9.6 8.5332H10.1333C10.7224 8.5332 11.2 9.01077 11.2 9.59987V12.2665C11.1984 13.5333 10.3074 14.6247 9.06667 14.8799V15.9999C9.06667 19.829 12.1708 22.9332 16 22.9332C19.8292 22.9332 22.9333 19.829 22.9333 15.9999C22.931 15.0603 22.7357 14.1312 22.3595 13.2703C21.3077 13.5261 20.2299 12.9595 19.8444 11.948C19.4589 10.9366 19.886 9.79635 20.8412 9.28715C21.7963 8.77795 22.9811 9.05889 23.606 9.94273C24.2308 10.8266 24.1005 12.0372 23.3019 12.7679C23.7593 13.7841 23.9972 14.8854 24 15.9999C24 20.4181 20.4183 23.9999 16 23.9999C11.5817 23.9999 8 20.4181 8 15.9999V14.8799C6.75925 14.6247 5.86827 13.5333 5.86667 12.2665V9.59987C5.86667 9.01077 6.34423 8.5332 6.93334 8.5332ZM21.8667 10.1332C21.2776 10.1332 20.8 10.6108 20.8 11.1999C20.8 11.789 21.2776 12.2665 21.8667 12.2665C22.4558 12.2665 22.9333 11.789 22.9333 11.1999C22.9333 10.6108 22.4558 10.1332 21.8667 10.1332Z" fill="#54B2D3"/>
<path d="M17.4437 19.0439C17.3437 19.1439 17.2081 19.2001 17.0666 19.2001C17.0512 19.2009 17.0357 19.2009 17.0202 19.2001C16.8632 19.1864 16.7202 19.1038 16.6298 18.9745L12.8965 13.6412C12.7385 13.4001 12.8006 13.0771 13.0368 12.9118C13.273 12.7465 13.5978 12.7989 13.7701 13.03L17.1392 17.8401L18.2896 16.6897C18.4988 16.4876 18.8315 16.4905 19.0372 16.6962C19.2429 16.902 19.2458 17.2346 19.0437 17.4439L17.4437 19.0439Z" fill="#54B2D3"/>
</svg>
