<svg width="40" height="40" viewBox="0 0 40 40" fill="none" xmlns="http://www.w3.org/2000/svg">
<path d="M38.7097 8.38721H9.03227V9.03236C9.03227 9.389 8.74367 9.67752 8.38711 9.67752C8.03047 9.67752 7.74195 9.38893 7.74195 9.03236V8.38721H1.29031C0.577734 8.38721 0 8.96486 0 9.67752V15.357C0 15.6822 0.159922 15.9913 0.436484 16.1624C1.72234 16.9577 2.58063 18.377 2.58063 20.0001C2.58063 21.6231 1.72234 23.0425 0.436484 23.8378C0.159922 24.0089 0 24.3181 0 24.6432V30.3227C0 31.0353 0.577734 31.613 1.29031 31.613H7.74195V30.9678C7.74195 30.6112 8.03055 30.3227 8.38711 30.3227C8.74375 30.3227 9.03227 30.6113 9.03227 30.9678V31.613H38.7097C39.4223 31.613 40 31.0353 40 30.3227V9.67752C40 8.96486 39.4223 8.38721 38.7097 8.38721ZM9.03227 28.3872C9.03227 28.7438 8.74367 29.0324 8.38711 29.0324C8.03047 29.0324 7.74195 28.7438 7.74195 28.3872V27.0969C7.74195 26.7403 8.03055 26.4517 8.38711 26.4517C8.74375 26.4517 9.03227 26.7403 9.03227 27.0969V28.3872ZM9.03227 24.5162C9.03227 24.8728 8.74367 25.1613 8.38711 25.1613C8.03047 25.1613 7.74195 24.8728 7.74195 24.5162V23.2259C7.74195 22.8692 8.03055 22.5807 8.38711 22.5807C8.74375 22.5807 9.03227 22.8693 9.03227 23.2259V24.5162ZM9.03227 20.6453C9.03227 21.0019 8.74367 21.2904 8.38711 21.2904C8.03047 21.2904 7.74195 21.0018 7.74195 20.6453V19.3549C7.74195 18.9983 8.03055 18.7098 8.38711 18.7098C8.74375 18.7098 9.03227 18.9984 9.03227 19.3549V20.6453ZM9.03227 16.7743C9.03227 17.131 8.74367 17.4195 8.38711 17.4195C8.03047 17.4195 7.74195 17.1309 7.74195 16.7743V15.484C7.74195 15.1274 8.03055 14.8388 8.38711 14.8388C8.74375 14.8388 9.03227 15.1274 9.03227 15.484V16.7743ZM9.03227 12.9033C9.03227 13.2599 8.74367 13.5485 8.38711 13.5485C8.03047 13.5485 7.74195 13.2599 7.74195 12.9033V11.613C7.74195 11.2563 8.03055 10.9678 8.38711 10.9678C8.74375 10.9678 9.03227 11.2564 9.03227 11.613V12.9033Z" fill="#FFCB64"/>
<path d="M38.0642 30.3224H10.9674C10.6111 30.3224 10.3223 30.0336 10.3223 29.6772V10.3224C10.3223 9.96607 10.6111 9.67725 10.9674 9.67725H38.0642C38.4206 9.67725 38.7094 9.96607 38.7094 10.3224V29.6772C38.7094 30.0336 38.4206 30.3224 38.0642 30.3224Z" fill="#FFE07D"/>
<path d="M23.9826 24.4585L20.6385 26.5579C19.9016 27.0205 18.9767 26.3487 19.189 25.5048L20.1523 21.6756L17.1223 19.144C16.4545 18.586 16.8077 17.4988 17.6759 17.44L21.6153 17.1729L23.0867 13.5088C23.411 12.7013 24.5541 12.7013 24.8784 13.5088L26.3498 17.1729L30.2892 17.44C31.1574 17.4989 31.5107 18.5861 30.8429 19.144L27.8129 21.6756L28.7762 25.5048C28.9884 26.3487 28.0637 27.0206 27.3266 26.5579L23.9826 24.4585Z" fill="white"/>
<path d="M28.3565 23.8368C24.1759 23.5812 20.6316 20.9934 19.012 17.3494L17.6759 17.4399C16.8077 17.4988 16.4545 18.586 17.1223 19.1439L20.1523 21.6755L19.1889 25.5047C18.9766 26.3486 19.9014 27.0205 20.6384 26.5578L23.9825 24.4584L27.3265 26.5578C28.0634 27.0205 28.9883 26.3486 28.7759 25.5047L28.3565 23.8368Z" fill="#FFF6D8"/>
</svg>
