<svg width="24" height="24" viewBox="0 0 24 24" fill="none" xmlns="http://www.w3.org/2000/svg">
<path d="M7.41667 22C4.43 22 2 19.57 2 16.5833C2 15.1367 2.56333 13.7758 3.58667 12.7533L12.7533 3.58667C13.7758 2.56333 15.1367 2 16.5833 2C19.57 2 22 4.43 22 7.41667C22 8.86333 21.4367 10.2242 20.4133 11.2467L11.2467 20.4133C10.2242 21.4367 8.86333 22 7.41667 22ZM16.5833 2.83333C15.3592 2.83333 14.2083 3.31 13.3425 4.17583L4.17583 13.3425C3.31 14.2083 2.83333 15.3592 2.83333 16.5833C2.83333 19.1108 4.88917 21.1667 7.41667 21.1667C8.64083 21.1667 9.79167 20.69 10.6575 19.8242L19.8242 10.6575C20.69 9.79167 21.1667 8.64083 21.1667 7.41667C21.1667 4.88917 19.1108 2.83333 16.5833 2.83333Z" fill="#3D3D46" stroke="#3D3D46" stroke-width="0.8"/>
<path d="M8.16699 8.74805L8.75616 8.15888L15.8356 15.2383L15.2464 15.8275L8.16699 8.74805Z" fill="#3D3D46" stroke="#3D3D46" stroke-width="0.8"/>
</svg>
