<svg width="28" height="28" viewBox="0 0 28 28" fill="none" xmlns="http://www.w3.org/2000/svg">
	<g clipPath="url(#figma-first-place-icon-clip0)">
		<path d="M8.47757 19.4199L7.36752 19.4741L5.21535 25.6574C5.14677 25.8543 5.30635 26.0557 5.51378 26.0339L8.53051 25.7181C8.61478 25.7093 8.69856 25.7384 8.75916 25.7976L10.9278 27.9184C11.0769 28.0641 11.327 28.0054 11.3955 27.8084L13.5618 21.5847L12.923 20.9648L8.47757 19.4199Z" fill="#FF5B64" />
		<path d="M13.5624 21.5851L14.0001 20.3276L7.80457 18.2207L7.36816 19.4745C9.12746 20.7299 11.2576 21.4983 13.5624 21.5851Z" fill="#DF2B2B" />
		<path d="M19.5216 19.4199L20.6317 19.4741L22.7839 25.6574C22.8524 25.8543 22.6929 26.0557 22.4854 26.0339L19.4687 25.7181C19.3844 25.7093 19.3006 25.7384 19.2401 25.7976L17.0715 27.9184C16.9224 28.0641 16.6722 28.0054 16.6037 27.8084L14.4375 21.5847L15.0762 20.9648L19.5216 19.4199Z" fill="#FF5B64" />
		<path d="M14.4377 21.5851L14 20.3276L20.1955 18.2207L20.632 19.4745C18.8727 20.7299 16.7425 21.4983 14.4377 21.5851Z" fill="#DF2B2B" />
		<path d="M13.9992 19.6938C3.83544 19.6938 3.83971 9.82116 3.84813 9.65147C4.11495 4.27623 8.55771 0 13.9992 0C19.4407 0 23.8835 4.27623 24.1503 9.65152C24.1587 9.82122 24.163 19.6938 13.9992 19.6938Z" fill="#FFE27A" />
		<path d="M13.9997 19.3029C8.5582 19.3029 4.11561 15.0267 3.84873 9.65137C3.84031 9.82106 3.83594 9.99185 3.83594 10.1636C3.83594 15.7769 8.38643 20.3274 13.9997 20.3274C19.613 20.3274 24.1635 15.7769 24.1635 10.1636C24.1635 9.9918 24.1591 9.82106 24.1507 9.65137C23.8838 15.0267 19.4412 19.3029 13.9997 19.3029Z" fill="#F9CF58" />
		<path d="M14.0003 17.507C6.0095 17.507 5.99878 9.64936 6.0095 9.47994C6.27369 5.29657 9.75029 1.98535 14.0003 1.98535C18.2503 1.98535 21.7269 5.29657 21.991 9.47994C22.0018 9.64931 21.991 17.507 14.0003 17.507Z" fill="#FFBA57" />
		<path d="M14.0001 17.146C9.75014 17.146 6.27415 13.8347 6.00995 9.65137C5.99923 9.82079 5.99316 9.99152 5.99316 10.1636C5.99316 14.5857 9.57799 18.1705 14.0001 18.1705C18.4222 18.1705 22.007 14.5857 22.007 10.1636C22.007 9.99147 22.0009 9.82079 21.9902 9.65137C21.726 13.8347 18.25 17.146 14.0001 17.146Z" fill="#FFAC3E" />
		<path d="M14.4568 14.9194C13.9009 14.9194 13.4502 14.4687 13.4502 13.9128V13.3804V8.2717C13.4502 8.2717 12.8479 8.87573 12.1273 8.51331C11.5654 8.23074 11.5654 7.50345 11.5654 7.50345L12.8065 5.40859C12.9877 5.10267 13.3169 4.91504 13.6725 4.91504H14.4568C15.0127 4.91504 15.4633 5.36566 15.4633 5.92162V13.3804V13.9128C15.4633 14.4687 15.0127 14.9194 14.4568 14.9194Z" fill="#FFE27A" />
		<path d="M13.3109 7.48095C13.0437 7.93195 12.4757 8.12752 12.0019 7.90302C11.8102 7.81219 11.6624 7.67104 11.5641 7.50435C11.2846 7.97718 11.4359 8.58547 11.9013 8.87285C12.3812 9.16926 13.0226 8.99229 13.31 8.50694L13.4492 8.27183V7.51873C13.4492 7.44316 13.3494 7.41587 13.3109 7.48095Z" fill="#F9CF58" />
		<path d="M14.4558 14.3874C13.8999 14.3874 13.4492 13.9368 13.4492 13.3809V14.4054C13.4492 14.9614 13.8999 15.412 14.4558 15.412C15.0117 15.412 15.4624 14.9614 15.4624 14.4054V13.3809C15.4624 13.9368 15.0117 14.3874 14.4558 14.3874Z" fill="#F9CF58" />
	</g>
	<defs>
		<clipPath id="figma-first-place-icon-clip0">
			<rect width="28" height="28" fill="white" />
		</clipPath>
	</defs>
</svg>
