<svg width="28" height="28" viewBox="0 0 28 28" fill="none" xmlns="http://www.w3.org/2000/svg">
	<g clipPath="url(#figma-second-place-icon-clip0)">
		<path d="M12.8776 20.9339L8.36425 19.373L7.36845 19.4745L5.21633 25.6578C5.14775 25.8547 5.30733 26.0561 5.51476 26.0344L8.53149 25.7185C8.61576 25.7097 8.69954 25.7388 8.76013 25.7981L10.9288 27.9188C11.0778 28.0646 11.328 28.0058 11.3965 27.8089L13.5627 21.5852L12.8776 20.9339Z" fill="#65CD98" />
		<path d="M13.5624 21.5851L14.0001 20.3276L7.80457 18.2207L7.36816 19.4745C9.12746 20.7299 11.2576 21.4983 13.5624 21.5851Z" fill="url(#paint0_linear)" />
		<path d="M15.1225 20.9339L19.6359 19.373L20.6317 19.4745L22.7838 25.6578C22.8524 25.8547 22.6929 26.0561 22.4854 26.0344L19.4687 25.7185C19.3844 25.7097 19.3006 25.7388 19.2401 25.7981L17.0715 27.9188C16.9224 28.0646 16.6722 28.0058 16.6037 27.8089L14.4375 21.5852L15.1225 20.9339Z" fill="#65CD98" />
		<path d="M14.4377 21.5851L14 20.3276L20.1955 18.2207L20.632 19.4745C18.8727 20.7299 16.7425 21.4983 14.4377 21.5851Z" fill="url(#paint1_linear)" />
		<path d="M13.9992 19.6568C3.8481 19.6568 3.83968 9.82122 3.8481 9.65152C4.11492 4.27623 8.55768 0 13.9992 0C19.4371 0 23.8776 4.27055 24.1497 9.64075C24.1585 9.814 24.1497 19.6568 13.9992 19.6568Z" fill="#E0E0E0" />
		<path d="M13.9997 19.3029C8.5582 19.3029 4.11561 15.0267 3.84873 9.65137C3.84031 9.82106 3.83594 9.99185 3.83594 10.1636C3.83594 15.7769 8.38643 20.3274 13.9997 20.3274C19.613 20.3274 24.1635 15.7769 24.1635 10.1636C24.1635 9.9918 24.1591 9.82106 24.1507 9.65137C23.8838 15.0267 19.4412 19.3029 13.9997 19.3029Z" fill="#CECECE" />
		<path d="M14.0003 17.5338C5.99342 17.5338 5.99883 9.82027 6.00955 9.65084C6.27375 5.46747 9.75034 2.15625 14.0003 2.15625C18.2503 2.15625 21.7269 5.46747 21.9911 9.65084C22.0018 9.82027 21.9911 17.5338 14.0003 17.5338Z" fill="#9E9E9E" />
		<path d="M13.9991 17.146C9.74916 17.146 6.27317 13.8346 6.00898 9.65137C5.99826 9.82079 5.99219 9.99152 5.99219 10.1636C5.99219 14.5857 9.57701 18.1705 13.9991 18.1705C18.4212 18.1705 22.006 14.5857 22.006 10.1636C22.006 9.99147 21.9999 9.82079 21.9892 9.65137C21.725 13.8346 18.249 17.146 13.9991 17.146Z" fill="#898989" />
		<path d="M16.3051 14.9194H11.7157C11.1598 14.9194 10.7305 13.9517 10.7723 13.7305C10.8885 13.1164 11.1617 12.5377 11.5697 12.0554L14.799 8.23884C15.1011 7.88173 14.9663 7.49695 14.9178 7.38746C14.8588 7.25441 14.6753 6.94329 14.2478 6.92885C14.2355 6.92841 14.2226 6.9282 14.2098 6.9282C13.6094 6.9282 13.121 7.41666 13.121 8.01708C13.121 8.57298 12.6703 9.02366 12.1144 9.02366C11.5585 9.02366 11.1078 8.57303 11.1078 8.01708C11.1078 6.30667 12.4993 4.91504 14.2098 4.91504C14.2452 4.91504 14.2804 4.91564 14.3154 4.91684C15.3857 4.95294 16.3215 5.58698 16.7581 6.57141C17.2011 7.57055 17.0393 8.70773 16.3358 9.5392L13.1066 13.3557C13.0947 13.3698 13.0831 13.384 13.0717 13.3984H16.3052C16.6738 13.3984 16.9961 13.5966 17.1715 13.8922C17.2605 14.0423 16.861 14.9194 16.3051 14.9194Z" fill="#E0E0E0" />
		<path d="M16.3041 14.3878H11.7146C11.282 14.3878 10.9142 14.1144 10.7719 13.7314C10.73 13.9527 10.708 14.1783 10.708 14.4058C10.708 14.9618 11.1587 15.4124 11.7146 15.4124H16.3041C16.86 15.4124 17.3106 14.9618 17.3106 14.4058C17.3106 14.2185 17.2585 14.0437 17.1694 13.8935C16.9941 14.1891 16.6727 14.3878 16.3041 14.3878Z" fill="#CECECE" />
	</g>
	<defs>
		<linearGradient id="paint0_linear" x1="7.36816" y1="21.5851" x2="12.568" y2="17.3433" gradientUnits="userSpaceOnUse">
			<stop stopColor="#00A36E" />
			<stop offset="1" stopColor="#00A69B" />
		</linearGradient>
		<linearGradient id="paint1_linear" x1="14" y1="21.5851" x2="19.1998" y2="17.3433" gradientUnits="userSpaceOnUse">
			<stop stopColor="#00A36E" />
			<stop offset="1" stopColor="#00A69B" />
		</linearGradient>
		<clipPath id="figma-second-place-icon-clip0">
			<rect width="28" height="28" fill="white" />
		</clipPath>
	</defs>
</svg>
