<svg width="28" height="28" viewBox="0 0 28 28" fill="none" xmlns="http://www.w3.org/2000/svg">
	<path d="M12.7949 20.8805L8.59783 19.4815L7.36747 19.4746L5.21535 25.6579C5.14677 25.8548 5.30635 26.0562 5.51378 26.0344L8.53051 25.7186C8.61478 25.7098 8.69856 25.7389 8.75916 25.7981L10.9278 27.9189C11.0769 28.0647 11.327 28.0059 11.3955 27.8089L13.5618 21.5852L12.7949 20.8805Z" fill="#54B2D3" />
	<path d="M13.5624 21.5851L14.0001 20.3276L7.80457 18.2207L7.36816 19.4745C9.12746 20.7299 11.2576 21.4983 13.5624 21.5851Z" fill="#40A0C1" />
	<path d="M15.2043 20.8805L19.4013 19.4815L20.6317 19.4746L22.7839 25.6579C22.8524 25.8548 22.6929 26.0562 22.4854 26.0345L19.4687 25.7186C19.3844 25.7098 19.3006 25.7389 19.2401 25.7982L17.0715 27.9189C16.9224 28.0647 16.6722 28.0059 16.6037 27.809L14.4375 21.5853L15.2043 20.8805Z" fill="#54B2D3" />
	<path d="M14.4377 21.5851L14 20.3276L20.1955 18.2207L20.632 19.4745C18.8727 20.7299 16.7425 21.4983 14.4377 21.5851Z" fill="#40A0C1" />
	<path d="M14.0002 19.4745C3.84908 19.4745 3.84066 9.82122 3.84908 9.65152C4.1159 4.27623 8.55866 0 14.0002 0C19.4417 0 23.8844 4.27623 24.1513 9.65152C24.1597 9.82122 24.1513 19.4745 14.0002 19.4745Z" fill="#FF9838" />
	<path d="M13.9997 19.3028C8.5582 19.3028 4.11561 15.0266 3.84873 9.65137C3.84031 9.82106 3.83594 9.99185 3.83594 10.1636C3.83594 15.7769 8.38643 20.3274 13.9997 20.3274C19.613 20.3274 24.1635 15.7769 24.1635 10.1636C24.1635 9.99185 24.1591 9.82106 24.1507 9.65137C23.8838 15.0266 19.4412 19.3028 13.9997 19.3028Z" fill="#FF8709" />
	<path d="M22.006 10.1632C22.006 13.5917 18.4212 17.6779 13.9991 17.6779C9.57701 17.6779 5.99219 13.3669 5.99219 10.1632C5.99219 9.99105 5.9976 9.82026 6.00832 9.65084C6.27246 5.46747 9.74911 2.15625 13.9991 2.15625C18.2491 2.15625 21.7257 5.46747 21.9899 9.65084C22.0006 9.82026 22.006 9.99105 22.006 10.1632Z" fill="#CE7430" />
	<path d="M13.9991 17.146C9.74916 17.146 6.27317 13.8346 6.00898 9.65137C5.99826 9.82079 5.99219 9.99147 5.99219 10.1636C5.99219 14.5857 9.57701 18.1705 13.9991 18.1705C18.4212 18.1705 22.006 14.5857 22.006 10.1636C22.006 9.99147 21.9999 9.82079 21.9892 9.65137C21.725 13.8346 18.249 17.146 13.9991 17.146Z" fill="#BC672E" />
	<path d="M14.0102 14.9202C12.2857 14.9202 11.1885 13.7315 10.9773 12.3211C10.9581 12.1928 10.952 11.9174 10.952 11.9174C11.0988 11.5433 11.4632 11.2784 11.8893 11.2784C12.4452 11.2784 12.8959 11.729 12.8959 12.285C12.8959 12.8994 13.3958 13.3992 14.0102 13.3992C14.6246 13.3992 15.1245 12.8994 15.1245 12.285C15.1245 12.1003 15.0793 11.9259 14.9994 11.7723C14.9994 11.7723 14.9238 10.8232 14.0641 10.8232C13.2017 10.8232 13.1439 9.65135 13.1439 9.65135C13.3193 9.35576 13.6416 9.15763 14.0102 9.15763C14.6246 9.15763 15.1245 8.65779 15.1245 8.04337C15.1245 7.42896 14.6246 6.92912 14.0102 6.92912C13.3958 6.92912 12.896 7.42896 12.896 8.04337C12.896 8.59932 12.4453 9.04995 11.8894 9.04995C11.3335 9.04995 10.8828 8.59932 10.8828 8.04337C10.8828 6.31897 12.2858 4.91602 14.0102 4.91602C15.7346 4.91602 17.1376 6.31897 17.1376 8.04337C17.1376 8.86106 16.8223 9.60634 16.3067 10.1642C16.7123 10.6031 16.994 11.1581 17.0957 11.7731C17.0957 11.7731 17.0989 12.1106 17.0696 12.2825C16.8201 13.7493 15.7346 14.9202 14.0102 14.9202Z" fill="#FFAA5C" />
	<path d="M14.0104 10.1456C13.6418 10.1456 13.3204 9.9469 13.1451 9.65137C13.056 9.80154 13.0039 9.97632 13.0039 10.1636C13.0039 10.7196 13.4545 11.1702 14.0105 11.1702C14.4402 11.1702 14.8131 11.4151 14.999 11.7723C15.0789 11.6187 15.1248 11.4447 15.1248 11.26C15.1247 10.6455 14.6248 10.1456 14.0104 10.1456Z" fill="#EA9957" />
	<path d="M14.0102 14.3871C12.5113 14.3871 11.2558 13.3269 10.9529 11.9171C10.9082 12.031 10.8828 12.1546 10.8828 12.2843C10.8828 14.0088 12.2858 15.4118 14.0102 15.4118C15.7347 15.4118 17.1376 14.0088 17.1376 12.2843C17.1376 12.1099 17.1225 11.9391 17.0949 11.7725C16.8495 13.2537 15.5601 14.3871 14.0102 14.3871Z" fill="#EA9957" />
</svg>
