<svg width="32" height="32" viewBox="0 0 32 32" fill="none" xmlns="http://www.w3.org/2000/svg">
	<g clipPath="url(#figma-book-icon-clip0)">
		<path d="M3.19922 2.66654C3.19922 1.48833 4.15434 0.533203 5.33255 0.533203H26.6659C27.8441 0.533203 28.7992 1.48833 28.7992 2.66654V25.0665L22.3992 31.4665H5.33255C4.15434 31.4665 3.19922 30.5114 3.19922 29.3332V2.66654Z" fill="#DCF0F9" />
		<path d="M26.6665 0.533203H25.0665C26.2447 0.533203 27.1998 1.48833 27.1998 2.66654V25.0665L20.7998 31.4665H22.3998L28.7998 25.0665V2.66654C28.7998 1.48833 27.8447 0.533203 26.6665 0.533203Z" fill="#B4DDF0" />
		<path d="M22.3994 31.4664V27.1997C22.3994 26.0215 23.3545 25.0664 24.5327 25.0664H28.7994" fill="#B4DDF0" />
		<path d="M5.33255 31.4665H6.93255C5.75434 31.4665 4.79922 30.5114 4.79922 29.3332V2.66654C4.79922 1.48833 5.75434 0.533203 6.93255 0.533203H5.33255C4.15434 0.533203 3.19922 1.48833 3.19922 2.66654V29.3332C3.19922 30.5114 4.15434 31.4665 5.33255 31.4665Z" fill="white" />
		<path d="M2.66602 25.0664H3.73268V29.3331H2.66602V25.0664Z" fill="white" />
		<path d="M3.19935 27.7327C3.4939 27.7327 3.73268 27.4939 3.73268 27.1993C3.73268 26.9048 3.4939 26.666 3.19935 26.666C2.9048 26.666 2.66602 26.9048 2.66602 27.1993C2.66602 27.4939 2.9048 27.7327 3.19935 27.7327Z" fill="#54B2D3" />
		<path d="M5.33268 32H22.3993C22.5408 32 22.6764 31.9438 22.7764 31.8437L29.1764 25.4437C29.2764 25.3437 29.3327 25.2081 29.3327 25.0667V2.66667C29.3309 1.19464 28.138 0.00176326 26.666 0H5.33268C3.86065 0.00176326 2.66778 1.19464 2.66602 2.66667V25.0667C2.66602 25.3612 2.9048 25.6 3.19935 25.6C3.4939 25.6 3.73268 25.3612 3.73268 25.0667V2.66667C3.73268 1.78301 4.44903 1.06667 5.33268 1.06667H26.666C27.5497 1.06667 28.266 1.78301 28.266 2.66667V24.5333H24.5327C23.0607 24.5351 21.8678 25.728 21.866 27.2V30.9333H5.33268C4.44903 30.9333 3.73268 30.217 3.73268 29.3333C3.73268 29.0388 3.4939 28.8 3.19935 28.8C2.9048 28.8 2.66602 29.0388 2.66602 29.3333C2.66778 30.8054 3.86065 31.9982 5.33268 32ZM24.5327 25.6H27.5119L22.9327 30.1792V27.2C22.9327 26.3163 23.649 25.6 24.5327 25.6Z" fill="#54B2D3" />
		<path d="M6.39954 4.26686H7.46621C7.76076 4.26686 7.99955 4.02808 7.99955 3.73353C7.99955 3.43898 7.76076 3.2002 7.46621 3.2002H6.39954C6.10499 3.2002 5.86621 3.43898 5.86621 3.73353C5.86621 4.02808 6.10499 4.26686 6.39954 4.26686Z" fill="#54B2D3" />
		<path d="M25.5997 3.2002H9.59974C9.30519 3.2002 9.06641 3.43898 9.06641 3.73353C9.06641 4.02808 9.30519 4.26686 9.59974 4.26686H25.5997C25.8943 4.26686 26.1331 4.02808 26.1331 3.73353C26.1331 3.43898 25.8943 3.2002 25.5997 3.2002Z" fill="#54B2D3" />
		<path d="M6.39954 7.46706H7.46621C7.76076 7.46706 7.99955 7.22828 7.99955 6.93372C7.99955 6.63917 7.76076 6.40039 7.46621 6.40039H6.39954C6.10499 6.40039 5.86621 6.63917 5.86621 6.93372C5.86621 7.22828 6.10499 7.46706 6.39954 7.46706Z" fill="#54B2D3" />
		<path d="M9.59974 7.46706H21.8664C22.161 7.46706 22.3997 7.22828 22.3997 6.93372C22.3997 6.63917 22.161 6.40039 21.8664 6.40039H9.59974C9.30519 6.40039 9.06641 6.63917 9.06641 6.93372C9.06641 7.22828 9.30519 7.46706 9.59974 7.46706Z" fill="#54B2D3" />
		<path d="M6.39954 10.6663H7.46621C7.76076 10.6663 7.99955 10.4275 7.99955 10.1329C7.99955 9.83839 7.76076 9.59961 7.46621 9.59961H6.39954C6.10499 9.59961 5.86621 9.83839 5.86621 10.1329C5.86621 10.4275 6.10499 10.6663 6.39954 10.6663Z" fill="#54B2D3" />
		<path d="M9.59974 10.6663H18.1331C18.4276 10.6663 18.6664 10.4275 18.6664 10.1329C18.6664 9.83839 18.4276 9.59961 18.1331 9.59961H9.59974C9.30519 9.59961 9.06641 9.83839 9.06641 10.1329C9.06641 10.4275 9.30519 10.6663 9.59974 10.6663Z" fill="#54B2D3" />
		<path d="M27.1995 11.1993C27.1995 10.9048 26.9607 10.666 26.6661 10.666C26.3716 10.666 26.1328 10.9048 26.1328 11.1993V19.7327C26.1328 20.0272 26.3716 20.266 26.6661 20.266C26.9607 20.266 27.1995 20.0272 27.1995 19.7327V11.1993Z" fill="#54B2D3" />
		<path d="M26.6661 21.334C26.3716 21.334 26.1328 21.5728 26.1328 21.8673V22.934C26.1328 23.2285 26.3716 23.4673 26.6661 23.4673C26.9607 23.4673 27.1995 23.2285 27.1995 22.934V21.8673C27.1995 21.5728 26.9607 21.334 26.6661 21.334Z" fill="#54B2D3" />
	</g>
	<defs>
		<clipPath id="figma-book-icon-clip0">
			<rect width="32" height="32" fill="white" />
		</clipPath>
	</defs>
</svg>
