<svg width="32" height="30" viewBox="0 0 32 30" fill="none" xmlns="http://www.w3.org/2000/svg">
	<path d="M6.58006 17.8087L12.6683 19.6578C13.3408 19.8621 13.7093 20.5388 13.4915 21.1692C13.2736 21.7997 12.5518 22.1452 11.8793 21.9409L5.79108 20.0918C5.11861 19.8876 4.75006 19.2109 4.96793 18.5805C5.18579 17.95 5.90758 17.6045 6.58006 17.8087Z" fill="#B4DDF0" />
	<path d="M20.7996 21.9995L3.2002 16.7997V13.1998L20.7996 8V21.9995Z" fill="#B4DDF0" />
	<path d="M19.1997 21.4996L3.2002 16.7997V13.1998L19.1997 8.5V21.4996Z" fill="#DCF0F9" />
	<path d="M22.3998 5.5C23.2833 5.5 23.9997 6.17158 23.9997 6.99995V22.9994C23.9997 23.8278 23.2833 24.4994 22.3998 24.4994C21.5162 24.4994 20.7998 23.8278 20.7998 22.9994V6.99995C20.7998 6.17152 21.5162 5.5 22.3998 5.5Z" fill="#B4DDF0" />
	<path d="M21.6538 5.7373C21.6565 5.92849 21.5462 6.10532 21.3672 6.19684C21.1881 6.28836 20.9697 6.27951 20.7998 6.17381V23.6594C20.8735 23.6296 20.9529 23.6144 21.0331 23.6149C21.2136 23.6149 21.383 23.6965 21.4882 23.834C21.5934 23.9715 21.6215 24.1481 21.5635 24.3084C22.0762 24.0479 22.3967 23.5462 22.3997 22.9996V7.00008C22.3979 6.48722 22.1164 6.01093 21.6538 5.7373Z" fill="#DCF0F9" />
	<path d="M1.86647 11.5C2.60282 11.5 3.19974 12.0596 3.19974 12.7499V17.2498C3.19974 17.9401 2.60282 18.4997 1.86647 18.4997C1.13012 18.4997 0.533203 17.9401 0.533203 17.2498V12.7499C0.533141 12.0596 1.13012 11.5 1.86647 11.5Z" fill="#B4DDF0" />
	<path d="M20.7998 22.4998C20.7454 22.4997 20.6913 22.4919 20.6393 22.4768L3.03992 17.2768C2.81799 17.211 2.66712 17.018 2.66699 16.7997V13.2003C2.66712 12.9821 2.81799 12.7891 3.03992 12.7232L20.6393 7.5232C20.8014 7.47521 20.9781 7.50258 21.1152 7.59685C21.2522 7.69107 21.3332 7.84094 21.3331 8.00025V21.9998C21.3332 22.1324 21.2771 22.2597 21.177 22.3535C21.077 22.4474 20.9413 22.5 20.7998 22.4998ZM3.73364 16.4331L20.2664 21.3182V8.68191L3.73364 13.567V16.4331Z" fill="#54B2D3" />
	<path d="M12.2724 22.4997C12.0833 22.4995 11.8955 22.4715 11.7157 22.4166H11.7151L5.62731 20.5676C5.01039 20.3809 4.54672 19.8996 4.41122 19.3053C4.27567 18.7111 4.48885 18.0941 4.97039 17.6872C5.45194 17.2804 6.12854 17.1454 6.74502 17.3333L12.8334 19.1824C13.6824 19.4404 14.2049 20.2393 14.0652 21.0657C13.9253 21.8922 13.1649 22.5004 12.2724 22.4997ZM12.0443 21.4655C12.4363 21.5837 12.8564 21.3821 12.9833 21.0149C13.1102 20.6476 12.8961 20.2534 12.5047 20.1335L6.41584 18.2845C6.02348 18.1656 5.60262 18.3674 5.47575 18.7352C5.34888 19.103 5.56412 19.4976 5.95649 19.6165L12.0443 21.4655Z" fill="#54B2D3" />
	<path d="M1.86663 18.9998C0.836222 18.9986 0.00124996 18.2158 0 17.2498V12.75C0 11.7835 0.835722 11 1.86663 11C2.89753 11 3.73325 11.7835 3.73325 12.75V17.2498C3.73194 18.2158 2.89697 18.9986 1.86663 18.9998ZM1.86663 12C1.42502 12.0005 1.06715 12.336 1.06665 12.75V17.2498C1.06665 17.664 1.42483 17.9998 1.86663 17.9998C2.30842 17.9998 2.6666 17.664 2.6666 17.2498V12.75C2.6661 12.336 2.30824 12.0005 1.86663 12Z" fill="#54B2D3" />
	<path d="M22.3998 24.9993C21.2221 24.9982 20.2677 24.1034 20.2666 22.9994V6.99991C20.2666 5.8954 21.2217 5 22.3998 5C23.578 5 24.5331 5.8954 24.5331 6.99991V22.9994C24.532 24.1034 23.5775 24.9982 22.3998 24.9993ZM22.3998 5.99993C21.811 6.00063 21.334 6.44792 21.3332 6.99991V22.9994C21.3332 23.5517 21.8107 23.9994 22.3998 23.9994C22.9889 23.9994 23.4665 23.5517 23.4665 22.9994V6.99991C23.4657 6.44792 22.9886 6.00063 22.3998 5.99993Z" fill="#54B2D3" />
	<path d="M31.466 15.4999H26.6661C26.3716 15.4999 26.1328 15.2761 26.1328 15C26.1328 14.7238 26.3716 14.5 26.6661 14.5H31.466C31.7605 14.5 31.9992 14.7239 31.9992 15C31.9992 15.2761 31.7605 15.4999 31.466 15.4999Z" fill="#54B2D3" />
	<path d="M26.666 9.68216C26.4503 9.6821 26.2559 9.56029 26.1734 9.3735C26.0909 9.18671 26.1365 8.97168 26.289 8.82872L29.6831 5.64671C29.8175 5.5191 30.0146 5.46877 30.1995 5.51482C30.3843 5.56087 30.5288 5.69628 30.5779 5.86959C30.627 6.04291 30.5733 6.22765 30.4372 6.35368L27.0431 9.53568C26.9432 9.62961 26.8074 9.68234 26.666 9.68216Z" fill="#54B2D3" />
	<path d="M26.6659 12.6818C26.4045 12.6817 26.1816 12.5039 26.1398 12.262C26.0978 12.0201 26.2492 11.7853 26.4972 11.7077L31.297 10.2077C31.4778 10.1507 31.6774 10.1886 31.8203 10.3072C31.9631 10.4257 32.0276 10.6067 31.9893 10.7819C31.9509 10.9571 31.8156 11.0998 31.6345 11.156L26.8347 12.6559C26.7802 12.673 26.7233 12.6817 26.6659 12.6818Z" fill="#54B2D3" />
	<path d="M30.0597 24.4995C29.9182 24.4997 29.7825 24.447 29.6826 24.3531L26.2885 21.1711C26.1523 21.045 26.0987 20.8603 26.1478 20.687C26.1969 20.5137 26.3413 20.3783 26.5262 20.3322C26.7111 20.2862 26.9081 20.3365 27.0426 20.4641L30.4368 23.6462C30.5893 23.7891 30.6348 24.0042 30.5523 24.1909C30.4698 24.3777 30.2753 24.4995 30.0597 24.4995Z" fill="#54B2D3" />
	<path d="M31.4657 19.8178C31.4083 19.8178 31.3513 19.8091 31.2969 19.7919L26.4971 18.292C26.2185 18.2042 26.0683 17.9215 26.1614 17.6601C26.2544 17.3987 26.5555 17.2572 26.8346 17.3438L31.6344 18.8438C31.8824 18.9214 32.0338 19.1561 31.9918 19.3981C31.9499 19.64 31.7271 19.8178 31.4657 19.8178Z" fill="#54B2D3" />
</svg>
