<svg width="32" height="32" viewBox="0 0 32 32" fill="none" xmlns="http://www.w3.org/2000/svg">
	<g clip-path="url(#clip0)">
		<path d="M28.8002 11.2005V14.9338C28.8002 15.2283 28.5614 15.4671 28.2669 15.4671H3.73353C3.43898 15.4671 3.2002 15.2283 3.2002 14.9338V11.2005C3.20195 10.6121 3.67849 10.1355 4.26686 10.1338H27.7335C28.3219 10.1355 28.7984 10.6121 28.8002 11.2005Z" fill="#DCF0F9" />
		<path d="M27.7328 10.1338H26.1328C26.7212 10.1355 27.1977 10.6121 27.1995 11.2005V14.9338C27.1995 15.2283 26.9607 15.4671 26.6661 15.4671H28.2662C28.5607 15.4671 28.7995 15.2283 28.7995 14.9338V11.2005C28.7977 10.6121 28.3212 10.1355 27.7328 10.1338Z" fill="#B4DDF0" />
		<path d="M27.7333 15.4668V30.4001C27.7333 30.9892 27.2557 31.4668 26.6666 31.4668H5.33327C4.74416 31.4668 4.2666 30.9892 4.2666 30.4001V15.4668H27.7333Z" fill="#DCF0F9" />
		<path d="M26.1341 15.4668V30.4001C26.1341 30.9892 25.6565 31.4668 25.0674 31.4668H26.6674C27.2565 31.4668 27.7341 30.9892 27.7341 30.4001V15.4668H26.1341Z" fill="#B4DDF0" />
		<path d="M18.6664 9.06692L18.6664 10.1336H13.333L13.3331 9.06692C13.3313 8.80924 13.3802 8.55373 13.4771 8.31492C13.7867 7.48425 14.5799 6.93346 15.4664 6.93359H16.533C17.4196 6.9333 18.2129 7.48415 18.5224 8.31492C18.6192 8.55373 18.6681 8.80924 18.6664 9.06692Z" fill="#E8EDFC" />
		<path d="M18.5229 8.31492C18.2134 7.48415 17.4201 6.9333 16.5335 6.93359H15.4669C15.3776 6.93487 15.2886 6.94182 15.2002 6.95439C15.9832 7.05125 16.6472 7.5757 16.9229 8.31492C17.0197 8.55373 17.0686 8.80924 17.0669 9.06692V10.1336H18.6669V9.06692C18.6686 8.80924 18.6197 8.55373 18.5229 8.31492Z" fill="#B4DDF0" />
		<path d="M16.0001 6.93371H15.4668C14.2886 6.93371 13.3334 7.88884 13.3334 9.06705V10.1337H9.52012C7.68012 9.40838 6.34678 7.69105 5.68011 6.67238C5.27654 6.05657 5.22005 5.27587 5.53078 4.60838C6.23711 2.94083 7.50259 1.57162 9.10945 0.736379C9.36058 0.598638 9.64461 0.532241 9.93078 0.544379C13.3009 0.755046 15.4193 3.78065 16.0001 6.93371Z" fill="#DCF0F9" />
		<path d="M14.3415 7.25918C13.9419 7.50283 13.6372 7.87527 13.4775 8.31518C11.1789 6.91785 10.4109 4.10718 10.2029 3.06717C10.1856 2.97485 10.2175 2.88018 10.2871 2.81711C10.3567 2.75404 10.454 2.7316 10.5442 2.75784C13.0242 3.45651 14.0909 6.43785 14.3415 7.25918Z" fill="#B4DDF0" />
		<path d="M26.32 6.66683C25.6533 7.69083 24.32 9.40816 22.48 10.1335H18.6667V9.06683C18.6667 7.88862 17.7115 6.9335 16.5333 6.9335H16C16.5189 3.8519 18.6965 0.746831 22.0693 0.538831C22.356 0.521467 22.6414 0.588199 22.8907 0.730831C24.58 1.589 25.887 3.04824 26.5547 4.8215C26.7661 5.43979 26.6795 6.12115 26.32 6.66683Z" fill="#DCF0F9" />
		<path d="M26.5545 4.82182C25.8869 3.04856 24.5799 1.58932 22.8905 0.731149C22.3417 0.486472 21.7195 0.463351 21.154 0.666616C22.9084 1.51099 24.2696 2.99928 24.9545 4.82182C25.166 5.44011 25.0794 6.12146 24.7199 6.66715C24.0532 7.69115 22.7199 9.40848 20.8799 10.1338H22.4799C24.3199 9.40848 25.6532 7.69115 26.3199 6.66715C26.6794 6.12146 26.766 5.44011 26.5545 4.82182Z" fill="#B4DDF0" />
		<path d="M21.7969 3.06717C21.5889 4.10718 20.8209 6.91785 18.5222 8.31518C18.3625 7.87527 18.0578 7.50283 17.6582 7.25918C17.9089 6.43785 18.9755 3.45651 21.4555 2.75784C21.5457 2.7316 21.6431 2.75404 21.7127 2.81711C21.7823 2.88018 21.8141 2.97485 21.7969 3.06717Z" fill="#B4DDF0" />
		<path d="M12.8008 10.1338H19.2008V15.4671H12.8008V10.1338Z" fill="#B4DDF0" />
		<path d="M17.5996 10.1338H19.1996V15.4671H17.5996V10.1338Z" fill="#B4DDF0" />
		<path d="M13.8662 15.4668H18.1329V31.4668H13.8662V15.4668Z" fill="#B4DDF0" />
		<path d="M16.5342 15.4668H18.1342V31.4668H16.5342V15.4668Z" fill="#B4DDF0" />
		<path d="M9.52085 10.1337H6.40085C2.66751 10.1337 0.53418 5.33366 0.53418 5.33366H3.20085V2.66699L5.53151 4.60833C5.22078 5.27582 5.27727 6.05652 5.68085 6.67233C6.34751 7.69099 7.68085 9.40833 9.52085 10.1337Z" fill="#B4DDF0" />
		<path d="M31.4671 5.33366C31.4671 5.33366 29.3338 10.1337 25.6005 10.1337H22.4805C24.3205 9.40833 25.6538 7.69099 26.3205 6.66699C26.722 6.05283 26.7804 5.27559 26.4751 4.60833L28.8005 2.66699V5.33366H31.4671Z" fill="#B4DDF0" />
		<path d="M29.8667 5.33398C29.8667 5.33398 27.7333 10.134 24 10.134H25.6C29.3333 10.134 31.4667 5.33398 31.4667 5.33398H29.8667Z" fill="#B4DDF0" />
		<path d="M5.33353 31.4671H6.93353C6.34443 31.4671 5.86686 30.9896 5.86686 30.4005V15.4671H5.33353C5.03898 15.4671 4.8002 15.2283 4.8002 14.9338V11.2005C4.80195 10.6121 5.27849 10.1355 5.86686 10.1338H4.26686C3.67849 10.1355 3.20195 10.6121 3.2002 11.2005V14.9338C3.2002 15.2283 3.43898 15.4671 3.73353 15.4671H4.26686V30.4005C4.26686 30.9896 4.74443 31.4671 5.33353 31.4671Z" fill="white" />
		<path d="M4.80019 3.99979L3.2002 2.66699V5.33365H4.80019V3.99979Z" fill="white" />
		<path d="M6.40085 10.134H8.00085C4.26751 10.134 2.13418 5.33398 2.13418 5.33398H0.53418C0.53418 5.33398 2.66751 10.134 6.40085 10.134Z" fill="white" />
		<path d="M3.7334 26.1338H4.80007V30.4005H3.7334V26.1338Z" fill="white" />
		<path d="M4.27722 28.8001C3.98267 28.8015 3.74269 28.564 3.74122 28.2694C3.73974 27.9748 3.97733 27.7349 4.27188 27.7334H4.27722C4.57177 27.7334 4.81055 27.9722 4.81055 28.2667C4.81055 28.5613 4.57177 28.8001 4.27722 28.8001Z" fill="#54B2D3" />
		<path d="M3.5446 9.78135C3.00806 10.0516 2.66877 10.6003 2.66674 11.2011V14.9344C2.66674 15.5235 3.1443 16.0011 3.7334 16.0011V26.1344C3.7334 26.429 3.97218 26.6677 4.26674 26.6677C4.56129 26.6677 4.80007 26.429 4.80007 26.1344V16.0011H13.3334V30.9344H5.3334C5.03885 30.9344 4.80007 30.6956 4.80007 30.4011C4.80007 30.1065 4.56129 29.8677 4.26674 29.8677C3.97218 29.8677 3.7334 30.1065 3.7334 30.4011C3.7334 31.2847 4.44975 32.0011 5.3334 32.0011H26.6667C27.5504 32.0011 28.2667 31.2847 28.2667 30.4011V16.0011C28.8558 16.0011 29.3334 15.5235 29.3334 14.9344V11.2011C29.3314 10.6003 28.9921 10.0516 28.4555 9.78135C30.6742 8.35895 31.8865 5.70348 31.9542 5.55095C32.0275 5.38596 32.0124 5.19509 31.914 5.04373C31.8156 4.89237 31.6473 4.80106 31.4667 4.80108H29.3334V2.66775C29.3335 2.46066 29.2137 2.27223 29.0261 2.18445C28.8386 2.09667 28.6172 2.1254 28.4582 2.25815L26.6774 3.74508C25.8654 2.26416 24.6381 1.05289 23.1467 0.26028C22.8074 0.0729681 22.4223 -0.0155315 22.0353 0.00481351C18.463 0.22828 16.7521 3.11521 16.0001 5.06775C15.2449 3.11735 13.5339 0.23788 9.96487 0.0149468C9.57799 -0.00684521 9.1928 0.0807662 8.8534 0.267747C7.36462 1.05898 6.13893 2.26724 5.32647 3.74455L3.5414 2.25761C3.38236 2.12515 3.16105 2.09666 2.97364 2.18453C2.78624 2.2724 2.66661 2.46077 2.66674 2.66775V4.80108H0.533403C0.352868 4.80106 0.184577 4.89237 0.0861795 5.04373C-0.0122175 5.19509 -0.0273613 5.38596 0.0459359 5.55095C0.113669 5.70348 1.32594 8.35895 3.5446 9.78135ZM12.2667 10.6677V14.9344H3.7334V11.2011C3.7334 10.9065 3.97218 10.6677 4.26674 10.6677H12.2667ZM13.2961 7.52961C12.0565 6.46192 11.1929 5.02412 10.8326 3.42828C12.5174 4.16641 13.3979 6.17655 13.7169 7.07148C13.5593 7.20733 13.4181 7.36108 13.2961 7.52961ZM13.8667 9.06775C13.8667 8.18409 14.5831 7.46775 15.4667 7.46775H16.5334C17.4171 7.46775 18.1334 8.18409 18.1334 9.06775V9.60108H13.8667V9.06775ZM18.6667 14.9344H13.3334V10.6677H18.6667V14.9344ZM18.2833 7.07148C18.6033 6.17655 19.4833 4.16641 21.1675 3.42828C20.8075 5.02423 19.9439 6.46212 18.7041 7.52961C18.5821 7.36108 18.4409 7.20733 18.2833 7.07148ZM14.4001 30.9344V16.0011H17.6001V30.9344H14.4001ZM27.2001 30.4011C27.2001 30.6956 26.9613 30.9344 26.6667 30.9344H18.6667V16.0011H27.2001V30.4011ZM27.7334 10.6677C28.028 10.6677 28.2667 10.9065 28.2667 11.2011V14.9344H19.7334V10.6677H27.7334ZM28.8001 5.86775H30.5835C29.8422 7.14401 28.0907 9.60108 25.6001 9.60108H24.4054C25.3258 8.8494 26.1234 7.95868 26.7691 6.96108C27.1885 6.31746 27.3077 5.52351 27.0961 4.78508L28.2667 3.80801V5.33441C28.2667 5.62897 28.5055 5.86775 28.8001 5.86775ZM22.1019 1.06775C22.2897 1.05951 22.476 1.10423 22.6395 1.19681C23.4257 1.62348 25.3318 2.84215 26.0486 4.99148C26.2073 5.45562 26.1438 5.96694 25.8763 6.37815C25.2801 7.28961 24.0385 8.90295 22.3627 9.60108H19.2001V9.06775C19.2 8.89023 19.1821 8.71317 19.1467 8.53921C21.3334 6.99255 22.0918 4.30028 22.3201 3.17175C22.3758 2.89995 22.2847 2.61885 22.0801 2.43148C21.8737 2.23842 21.581 2.16813 21.3094 2.24641C18.9899 2.89975 17.8166 5.26188 17.3398 6.53975C17.1203 6.46849 16.8924 6.42635 16.6619 6.41441C17.0561 4.93975 18.3969 1.30135 22.1019 1.06775ZM5.95154 4.99895C6.66674 2.85228 8.57394 1.63308 9.36007 1.20855C9.52414 1.1168 9.71036 1.07213 9.8982 1.07948C13.6001 1.31095 14.9414 4.93868 15.3382 6.41281C15.1081 6.4248 14.8805 6.46693 14.6614 6.53815C14.1846 5.25815 13.0113 2.89815 10.6918 2.24481C10.4202 2.1674 10.1279 2.23759 9.92114 2.42988C9.7171 2.61759 9.62659 2.89864 9.68274 3.17015C9.90834 4.30028 10.6667 6.99415 12.8534 8.53921C12.818 8.71317 12.8001 8.89023 12.8001 9.06775V9.60108H9.6374C7.96167 8.90401 6.719 7.29228 6.1238 6.38135C5.85688 5.97154 5.79335 5.46172 5.95154 4.99895ZM3.20007 5.86775C3.49462 5.86775 3.7334 5.62897 3.7334 5.33441V3.80588L4.90674 4.78295C4.6925 5.52286 4.81107 6.31939 5.23154 6.96481C5.87676 7.9611 6.67355 8.85057 7.59314 9.60108H6.40007C3.91634 9.60108 2.1622 7.14455 1.4182 5.86775H3.20007Z" fill="#54B2D3" />
		<path d="M6.39955 19.2007C6.6941 19.2007 6.93288 18.9619 6.93288 18.6674V17.6007C6.93288 17.3062 6.6941 17.0674 6.39955 17.0674C6.10499 17.0674 5.86621 17.3062 5.86621 17.6007V18.6674C5.86621 18.9619 6.10499 19.2007 6.39955 19.2007Z" fill="#54B2D3" />
		<path d="M5.86621 29.3333C5.86621 29.6278 6.10499 29.8666 6.39955 29.8666C6.6941 29.8666 6.93288 29.6278 6.93288 29.3333V20.7999C6.93288 20.5054 6.6941 20.2666 6.39955 20.2666C6.10499 20.2666 5.86621 20.5054 5.86621 20.7999V29.3333Z" fill="#54B2D3" />
		<path d="M25.6007 19.2007C25.8953 19.2007 26.134 18.9619 26.134 18.6674V17.6007C26.134 17.3062 25.8953 17.0674 25.6007 17.0674C25.3062 17.0674 25.0674 17.3062 25.0674 17.6007V18.6674C25.0674 18.9619 25.3062 19.2007 25.6007 19.2007Z" fill="#54B2D3" />
		<path d="M25.6007 29.8666C25.8953 29.8666 26.134 29.6278 26.134 29.3333V20.7999C26.134 20.5054 25.8953 20.2666 25.6007 20.2666C25.3062 20.2666 25.0674 20.5054 25.0674 20.7999V29.3333C25.0674 29.6278 25.3062 29.8666 25.6007 29.8666Z" fill="#54B2D3" />
	</g>
	<defs>
		<clipPath id="clip0">
			<rect width="32" height="32" fill="white" />
		</clipPath>
	</defs>
</svg>
