<svg width="20" height="20" viewBox="0 0 20 20" fill="none" xmlns="http://www.w3.org/2000/svg">
<path d="M19.6812 15.4449L12.0367 2.20418C11.6116 1.46793 10.8502 1.02832 9.99999 1.02832C9.1498 1.02832 8.38839 1.46793 7.96331 2.20418L0.318837 15.4448C-0.106279 16.1811 -0.106279 17.0603 0.318837 17.7966C0.743954 18.5329 1.50528 18.9724 2.35551 18.9724H17.6445C18.4947 18.9724 19.256 18.5328 19.6812 17.7966C20.1063 17.0603 20.1063 16.1811 19.6812 15.4449ZM18.6664 17.2107C18.4531 17.5802 18.0711 17.8007 17.6445 17.8007H2.35551C1.92887 17.8007 1.54684 17.5802 1.33356 17.2107C1.12028 16.8413 1.12028 16.4002 1.33356 16.0308L8.97812 2.79007C9.1914 2.42062 9.57343 2.20008 10 2.20008C10.4266 2.20008 10.8087 2.42062 11.0219 2.79007L18.6665 16.0308C18.8797 16.4002 18.8797 16.8413 18.6664 17.2107Z" fill="#9292A3"/>
<path d="M10.5858 6.875H9.41406V12.7337H10.5858V6.875Z" fill="#9292A3"/>
<path d="M9.99993 13.9053C9.56918 13.9053 9.21875 14.2557 9.21875 14.6864C9.21875 15.1172 9.56918 15.4676 9.99993 15.4676C10.4306 15.4676 10.7811 15.1172 10.7811 14.6864C10.7811 14.2557 10.4307 13.9053 9.99993 13.9053Z" fill="#9292A3"/>
</svg>
