<svg width="20" height="20" viewBox="0 0 20 20" fill="none" xmlns="http://www.w3.org/2000/svg">
<path d="M13.1901 1.17676V0H6.80988V1.17676H3.53027V20H16.4697V1.17676H13.1901ZM7.98176 1.17188H12.0182V2.35352H7.98176V1.17188ZM15.2979 18.8281H4.70215V2.34863H6.80988V3.52539H13.1901V2.34863H15.2978V18.8281H15.2979Z" fill="#9292A3"/>
<path d="M9.41406 8.18359H10.5859V7.11914H11.6504V5.94727H10.5859V4.88281H9.41406V5.94727H8.34961V7.11914H9.41406V8.18359Z" fill="#9292A3"/>
<path d="M6.46973 9.41406H7.64648V10.5859H6.46973V9.41406Z" fill="#9292A3"/>
<path d="M8.82324 9.41406H13.5303V10.5859H8.82324V9.41406Z" fill="#9292A3"/>
<path d="M6.46973 11.7676H7.64648V12.9395H6.46973V11.7676Z" fill="#9292A3"/>
<path d="M8.82324 11.7676H13.5303V12.9395H8.82324V11.7676Z" fill="#9292A3"/>
<path d="M6.46973 14.1211H13.5303V15.293H6.46973V14.1211Z" fill="#9292A3"/>
<path d="M6.46973 16.4746H13.5303V17.6465H6.46973V16.4746Z" fill="#9292A3"/>
</svg>
