<svg width="20" height="20" viewBox="0 0 20 20" fill="none" xmlns="http://www.w3.org/2000/svg">
<path d="M17.0711 2.92891C15.1823 1.0402 12.6711 0 10 0C7.32891 0 4.8177 1.0402 2.92891 2.92891C1.0402 4.8177 0 7.32891 0 10C0 12.6711 1.0402 15.1823 2.92891 17.0711C4.8177 18.9598 7.32891 20 10 20C12.6711 20 15.1823 18.9598 17.0711 17.0711C18.9598 15.1823 20 12.6711 20 10C20 7.32891 18.9598 4.8177 17.0711 2.92891ZM16.2424 16.2424C14.575 17.9098 12.3581 18.8281 10 18.8281C7.64191 18.8281 5.425 17.9098 3.75758 16.2424C2.09016 14.575 1.17188 12.3581 1.17188 10C1.17188 7.64191 2.09016 5.425 3.75758 3.75758C5.425 2.09016 7.64191 1.17188 10 1.17188C12.3581 1.17188 14.575 2.09016 16.2424 3.75758C17.9098 5.425 18.8281 7.64191 18.8281 10C18.8281 12.3581 17.9098 14.575 16.2424 16.2424Z" fill="#9292A3"/>
<path d="M12.4712 7.52891V4.0791H7.52891V7.52891H4.0791V12.4712H7.52891V15.921H12.4712V12.4712H15.921V7.52891H12.4712ZM14.7492 11.2993H11.2994V14.7491H8.70082V11.2993H5.25102V8.70078H8.70082V5.25098H11.2994V8.70078H14.7492V11.2993Z" fill="#9292A3"/>
</svg>
