<svg width="62" height="62" viewBox="0 0 62 62" fill="none" xmlns="http://www.w3.org/2000/svg">
<path d="M31.3813 27.7933C31.3359 27.7354 31.2781 27.6886 31.212 27.6564C31.1459 27.6242 31.0733 27.6074 30.9998 27.6074C30.9263 27.6074 30.8537 27.6242 30.7877 27.6564C30.7216 27.6886 30.6637 27.7354 30.6184 27.7933L23.8371 36.3728C23.7812 36.4442 23.7465 36.5299 23.737 36.62C23.7275 36.7102 23.7436 36.8012 23.7834 36.8827C23.8232 36.9642 23.8851 37.0328 23.962 37.0808C24.039 37.1287 24.1279 37.154 24.2186 37.1538H28.693V51.8305C28.693 52.0969 28.9109 52.3148 29.1774 52.3148H32.8102C33.0766 52.3148 33.2945 52.0969 33.2945 51.8305V37.1599H37.781C38.1867 37.1599 38.4107 36.6937 38.1625 36.3788L31.3813 27.7933Z" fill="#54B2D3"/>
<path d="M49.1277 22.2025C46.3547 14.8885 39.2889 9.6875 31.0121 9.6875C22.7354 9.6875 15.6695 14.8824 12.8965 22.1965C7.70762 23.5588 3.875 28.2875 3.875 33.9062C3.875 40.5967 9.29394 46.0156 15.9783 46.0156H18.4062C18.6727 46.0156 18.8906 45.7977 18.8906 45.5312V41.8984C18.8906 41.632 18.6727 41.4141 18.4062 41.4141H15.9783C13.9379 41.4141 12.0186 40.6027 10.5896 39.1314C9.1668 37.6662 8.40996 35.6924 8.47656 33.6459C8.53105 32.0475 9.07598 30.5459 10.0629 29.2805C11.074 27.9908 12.4908 27.0523 14.065 26.6346L16.3598 26.0352L17.2014 23.8191C17.7221 22.4387 18.4486 21.149 19.3629 19.9805C20.2655 18.8223 21.3346 17.8041 22.5355 16.9592C25.024 15.2094 27.9545 14.283 31.0121 14.283C34.0697 14.283 37.0002 15.2094 39.4887 16.9592C40.6936 17.8068 41.7592 18.824 42.6613 19.9805C43.5756 21.149 44.3021 22.4447 44.8228 23.8191L45.6584 26.0291L47.9471 26.6346C51.2287 27.5186 53.5234 30.5035 53.5234 33.9062C53.5234 35.9104 52.7424 37.7994 51.3256 39.2162C50.6308 39.9151 49.8042 40.4692 48.8938 40.8465C47.9834 41.2237 47.0072 41.4166 46.0217 41.4141H43.5938C43.3273 41.4141 43.1094 41.632 43.1094 41.8984V45.5312C43.1094 45.7977 43.3273 46.0156 43.5938 46.0156H46.0217C52.7061 46.0156 58.125 40.5967 58.125 33.9062C58.125 28.2936 54.3045 23.5709 49.1277 22.2025Z" fill="#54B2D3"/>
</svg>
