<svg width="17" height="14" viewBox="0 0 17 14" fill="none" xmlns="http://www.w3.org/2000/svg">
<path d="M0 5.69375C0 5.91466 0.179086 6.09375 0.4 6.09375H4.6C4.82091 6.09375 5 5.91466 5 5.69375V0.49375C5 0.272836 4.82091 0.09375 4.6 0.09375H0.4C0.179086 0.09375 0 0.272836 0 0.49375V5.69375ZM0 12.6938C0 12.9147 0.179086 13.0938 0.4 13.0938H4.6C4.82091 13.0938 5 12.9147 5 12.6938V7.49375C5 7.27284 4.82091 7.09375 4.6 7.09375H0.4C0.179086 7.09375 0 7.27284 0 7.49375V12.6938ZM6 12.6938C6 12.9147 6.17909 13.0938 6.4 13.0938H10.6C10.8209 13.0938 11 12.9147 11 12.6938V7.49375C11 7.27284 10.8209 7.09375 10.6 7.09375H6.4C6.17909 7.09375 6 7.27284 6 7.49375V12.6938ZM12 12.6938C12 12.9147 12.1791 13.0938 12.4 13.0938H16.6C16.8209 13.0938 17 12.9147 17 12.6938V7.49375C17 7.27284 16.8209 7.09375 16.6 7.09375H12.4C12.1791 7.09375 12 7.27284 12 7.49375V12.6938ZM6 5.69375C6 5.91466 6.17909 6.09375 6.4 6.09375H10.6C10.8209 6.09375 11 5.91466 11 5.69375V0.49375C11 0.272836 10.8209 0.09375 10.6 0.09375H6.4C6.17909 0.09375 6 0.272836 6 0.49375V5.69375ZM12.4 0.09375C12.1791 0.09375 12 0.272836 12 0.49375V5.69375C12 5.91466 12.1791 6.09375 12.4 6.09375H16.6C16.8209 6.09375 17 5.91466 17 5.69375V0.49375C17 0.272836 16.8209 0.09375 16.6 0.09375H12.4Z" fill="white"/>
</svg>
