<svg width="13" height="16" viewBox="0 0 13 16" fill="none" xmlns="http://www.w3.org/2000/svg">
<path d="M11.5413 2.08025V13.644L6.99534 9.38216C6.87994 9.27397 6.70037 9.27397 6.58497 9.38216L2.20733 13.4862C2.14346 13.546 2.03894 13.5008 2.03894 13.4132V2.08025C2.03894 2.02503 2.08371 1.98025 2.13894 1.98025H11.4413C11.4966 1.98025 11.5413 2.02503 11.5413 2.08025ZM1.2 0.9C1.03431 0.9 0.9 1.03431 0.9 1.2V15.5384C0.9 15.801 1.21358 15.9368 1.40518 15.7572L6.72176 10.7729C6.76023 10.7369 6.82008 10.7369 6.85855 10.7729L12.1751 15.7572C12.3667 15.9368 12.6803 15.801 12.6803 15.5384V1.2C12.6803 1.03431 12.546 0.9 12.3803 0.9H1.2Z" fill="#9292A3" stroke="#9292A3" stroke-width="0.2"/>
</svg>
