<svg width="20" height="20" viewBox="0 0 20 20" fill="none" xmlns="http://www.w3.org/2000/svg">
<path d="M10.5405 10.1351C10.5405 10.0608 10.4797 10 10.4054 10H9.59459C9.52027 10 9.45946 10.0608 9.45946 10.1351V11.9595H7.63514C7.56081 11.9595 7.5 12.0203 7.5 12.0946V12.9054C7.5 12.9797 7.56081 13.0405 7.63514 13.0405H9.45946V14.8649C9.45946 14.9392 9.52027 15 9.59459 15H10.4054C10.4797 15 10.5405 14.9392 10.5405 14.8649V13.0405H12.3649C12.4392 13.0405 12.5 12.9797 12.5 12.9054V12.0946C12.5 12.0203 12.4392 11.9595 12.3649 11.9595H10.5405V10.1351Z" fill="#9292A3"/>
<path d="M17.1875 3.59375H13.9062V2.34375C13.9062 2.25781 13.8359 2.1875 13.75 2.1875H12.6562C12.5703 2.1875 12.5 2.25781 12.5 2.34375V3.59375H7.5V2.34375C7.5 2.25781 7.42969 2.1875 7.34375 2.1875H6.25C6.16406 2.1875 6.09375 2.25781 6.09375 2.34375V3.59375H2.8125C2.4668 3.59375 2.1875 3.87305 2.1875 4.21875V17.1875C2.1875 17.5332 2.4668 17.8125 2.8125 17.8125H17.1875C17.5332 17.8125 17.8125 17.5332 17.8125 17.1875V4.21875C17.8125 3.87305 17.5332 3.59375 17.1875 3.59375ZM16.4062 16.4062H3.59375V8.98438H16.4062V16.4062ZM3.59375 7.65625V5H6.09375V5.9375C6.09375 6.02344 6.16406 6.09375 6.25 6.09375H7.34375C7.42969 6.09375 7.5 6.02344 7.5 5.9375V5H12.5V5.9375C12.5 6.02344 12.5703 6.09375 12.6562 6.09375H13.75C13.8359 6.09375 13.9062 6.02344 13.9062 5.9375V5H16.4062V7.65625H3.59375Z" fill="#9292A3"/>
</svg>
