<svg xmlns="http://www.w3.org/2000/svg" fill="none" viewBox="0 0 24 24" height="24" width="24">
<circle fill="#54B2D3" r="12" cy="12" cx="12"></circle>
<path fill="white" d="M12.8093 12L16.9108 7.11094C16.9796 7.02969 16.9218 6.90625 16.8155 6.90625H15.5687C15.4952 6.90625 15.4249 6.93906 15.3765 6.99531L11.9937 11.0281L8.61085 6.99531C8.56397 6.93906 8.49366 6.90625 8.41866 6.90625H7.17179C7.06554 6.90625 7.00772 7.02969 7.07647 7.11094L11.178 12L7.07647 16.8891C7.06107 16.9072 7.05119 16.9293 7.04801 16.9529C7.04482 16.9764 7.04846 17.0004 7.05849 17.022C7.06853 17.0435 7.08454 17.0617 7.10462 17.0745C7.1247 17.0872 7.14801 17.0939 7.17179 17.0938H8.41866C8.4921 17.0938 8.56241 17.0609 8.61085 17.0047L11.9937 12.9719L15.3765 17.0047C15.4233 17.0609 15.4937 17.0938 15.5687 17.0938H16.8155C16.9218 17.0938 16.9796 16.9703 16.9108 16.8891L12.8093 12Z"></path>
</svg>
