<svg width="24" height="24" viewBox="0 0 24 24" fill="none" xmlns="http://www.w3.org/2000/svg">
<path d="M0 12C0 5.37258 5.37258 0 12 0C18.6274 0 24 5.37258 24 12C24 18.6274 18.6274 24 12 24C5.37258 24 0 18.6274 0 12Z" fill="#ECEDF0"/>
<path d="M14.5 5H13.414C13.208 4.418 12.652 4 12 4C11.348 4 10.792 4.418 10.585 5H9.5C9.224 5 9 5.224 9 5.5V7.5C9 7.776 9.224 8 9.5 8H14.5C14.776 8 15 7.776 15 7.5V5.5C15 5.224 14.776 5 14.5 5Z" fill="#9292A3"/>
<path d="M17 6H16V7.5C16 8.327 15.327 9 14.5 9H9.5C8.673 9 8 8.327 8 7.5V6H7C6.449 6 6 6.449 6 7V19C6 19.561 6.439 20 7 20H17C17.561 20 18 19.561 18 19V7C18 6.439 17.561 6 17 6ZM11.854 14.854L9.854 16.854C9.756 16.951 9.628 17 9.5 17C9.372 17 9.244 16.951 9.146 16.854L8.146 15.854C7.951 15.659 7.951 15.342 8.146 15.147C8.341 14.952 8.658 14.952 8.853 15.147L9.5 15.793L11.146 14.147C11.341 13.952 11.658 13.952 11.853 14.147C12.048 14.342 12.049 14.658 11.854 14.854ZM11.854 10.854L9.854 12.854C9.756 12.951 9.628 13 9.5 13C9.372 13 9.244 12.951 9.146 12.854L8.146 11.854C7.951 11.659 7.951 11.342 8.146 11.147C8.341 10.952 8.658 10.952 8.853 11.147L9.5 11.793L11.146 10.147C11.341 9.952 11.658 9.952 11.853 10.147C12.048 10.342 12.049 10.658 11.854 10.854ZM15.5 16H13.5C13.224 16 13 15.776 13 15.5C13 15.224 13.224 15 13.5 15H15.5C15.776 15 16 15.224 16 15.5C16 15.776 15.776 16 15.5 16ZM15.5 12H13.5C13.224 12 13 11.776 13 11.5C13 11.224 13.224 11 13.5 11H15.5C15.776 11 16 11.224 16 11.5C16 11.776 15.776 12 15.5 12Z" fill="#9292A3"/>
<path d="M12 23C5.92487 23 1 18.0751 1 12H-1C-1 19.1797 4.8203 25 12 25V23ZM23 12C23 18.0751 18.0751 23 12 23V25C19.1797 25 25 19.1797 25 12H23ZM12 1C18.0751 1 23 5.92487 23 12H25C25 4.8203 19.1797 -1 12 -1V1ZM12 -1C4.8203 -1 -1 4.8203 -1 12H1C1 5.92487 5.92487 1 12 1V-1Z" fill="#ECEDF0"/>
</svg>
