<svg width="16" height="17" viewBox="0 0 16 17" fill="none" xmlns="http://www.w3.org/2000/svg">
<g clip-path="url(#clip0)">
<path d="M0 16.998H16V0.998047H0V16.998Z" fill="#9292A3"/>
<path d="M8.09124 5.1476C8.45499 5.1476 8.64988 4.98673 8.76841 4.80313L8.76183 4.83104C8.72749 5.00319 8.8708 5.10871 9.00564 5.10871H9.1226L9.44779 3.25921H9.04515L8.99153 3.54128C8.91878 3.39562 8.71369 3.2208 8.38208 3.2208C7.79663 3.2208 7.44965 3.70309 7.39148 4.21689C7.325 4.80423 7.70428 5.1476 8.09124 5.1476ZM8.44009 3.52231C9.11476 3.55978 8.8951 4.84907 8.2093 4.81097C7.58904 4.77647 7.78189 3.48562 8.44009 3.52231ZM2.88971 3.13425C2.88971 2.71593 2.62097 2.5212 2.14919 2.5212C1.85913 2.5212 1.4024 2.52042 1.23588 2.52042L0.775391 5.10871C0.832306 5.10871 1.33027 5.10856 1.61155 5.1084C1.80253 5.1084 1.98456 5.10213 2.0871 5.08065C2.55622 4.98156 2.74656 4.64038 2.78435 4.39014C2.83672 4.04364 2.61799 3.81456 2.36948 3.75906C2.55606 3.71877 2.88971 3.52638 2.88971 3.13425ZM1.90867 4.7909C1.85615 4.8036 1.77242 4.81065 1.59729 4.81065H1.29296L1.44677 3.94282H1.89801C2.4935 3.94282 2.43925 4.65919 1.90867 4.7909ZM2.08569 3.61089C2.0283 3.62987 1.95195 3.6352 1.81303 3.6352H1.50149L1.64762 2.80703H2.05527C2.5443 2.80703 2.50604 3.4726 2.08569 3.61089ZM4.66693 3.26094H4.54667C4.54667 3.26094 4.36934 4.27725 4.34943 4.39296C4.30647 4.64195 4.18652 4.81238 3.84927 4.81238C3.65783 4.81238 3.47078 4.69651 3.51452 4.43702C3.53177 4.33668 3.65877 3.59819 3.66959 3.53861C3.70502 3.33886 3.5349 3.26094 3.39458 3.26094H3.28827C3.26224 3.41538 3.14544 4.06512 3.10106 4.31974C3.08288 4.42213 3.07629 4.52608 3.08413 4.5935C3.12396 4.93844 3.42703 5.14901 3.80192 5.14901C4.44899 5.14901 4.69233 4.81097 4.76979 4.40911C4.79519 4.27678 4.9178 3.60619 4.92736 3.53861C4.95543 3.33886 4.7908 3.26094 4.66693 3.26094ZM5.33282 5.83857L5.5205 4.81834C5.59341 4.964 5.80147 5.14901 6.13324 5.14901C6.73029 5.14901 7.09985 4.68303 7.13685 4.13724C7.17636 3.55711 6.8355 3.22315 6.44023 3.22315C6.09749 3.22315 5.86371 3.38998 5.74471 3.56354L5.74973 3.53861C5.78751 3.36019 5.63527 3.26094 5.50607 3.26094H5.37813C5.37813 3.26094 5.03006 5.25171 4.98239 5.49128C4.92595 5.77303 5.15471 5.83857 5.22699 5.83857H5.33282ZM6.30618 3.55476C6.92628 3.58941 6.73343 4.88388 6.07507 4.84734C5.40071 4.81003 5.61975 3.51698 6.30618 3.55476ZM14.9805 5.88718C14.8077 5.88718 14.5725 5.8773 14.4322 5.82948C14.2666 5.77272 14.1205 5.66015 13.9657 5.54114C13.8881 5.48172 13.808 5.41963 13.7213 5.36224C13.6157 5.29216 13.5279 5.25939 13.4442 5.25939C13.3313 5.25939 13.2216 5.32069 13.088 5.45836C12.9075 5.64415 12.6198 6.06592 12.5049 6.23855C12.4974 6.24921 12.4876 6.26112 12.4731 6.26112C12.4448 6.26112 12.4442 6.22428 12.4442 6.2122C12.4386 5.72945 12.3628 3.09505 12.31 2.30843C12.2866 1.96052 12.1786 1.74446 12.0279 1.74446C11.9069 1.74446 11.7255 1.90548 11.612 2.35939C11.323 3.51462 10.7067 6.08317 10.4417 7.38782C10.4338 7.42372 10.3934 7.42341 10.386 7.38782C10.3564 7.25439 10.3304 7.10309 10.3054 6.97562C10.2263 6.57329 10.1577 6.22569 10.0227 6.03456C9.86846 5.81725 9.6408 5.80361 9.36469 5.98658C9.3037 6.02703 9.24506 6.07752 9.18312 6.13114C9.00579 6.28354 8.80557 6.4568 8.47271 6.4568H5.21946L5.13965 6.88797H8.56286C8.91282 6.88797 9.23737 6.6865 9.43132 6.54742C9.52963 6.47687 9.59768 6.43594 9.65224 6.43594C9.72734 6.43594 9.76105 6.5123 9.78896 6.62707C9.80276 6.68336 9.81954 6.76113 9.83851 6.85097C9.90342 7.14887 10.0008 7.61846 10.1243 7.93063C10.1822 8.07597 10.2675 8.15625 10.3652 8.15625C10.5147 8.15625 10.6675 7.97939 10.7535 7.70563C10.8689 7.34078 11.5612 4.34185 11.8531 3.0858C11.8652 3.03437 11.8716 3.00521 11.8722 3.00302C11.8774 2.98091 11.8922 2.96617 11.9096 2.96617C11.9248 2.96617 11.9419 2.97918 11.9425 3.00756L11.9428 3.01242C11.9651 4.28337 12.0282 6.51528 12.1228 6.74451C12.175 6.8712 12.2551 6.9383 12.3547 6.9383C12.4699 6.9383 12.6084 6.84548 12.7068 6.70186C12.7564 6.62974 12.8196 6.53535 12.8865 6.43594C13.0518 6.19025 13.2391 5.91226 13.2943 5.85284C13.3768 5.76535 13.4715 5.76519 13.6062 5.85707C13.6258 5.87024 13.6491 5.88718 13.6764 5.90693C13.82 6.01104 14.0603 6.15435 14.3301 6.22867C14.509 6.27774 14.7393 6.28809 14.9006 6.28809C15.0049 6.28809 15.1158 6.28386 15.1481 6.28182L15.2222 5.88216C15.1832 5.88404 15.078 5.88718 14.9805 5.88718Z" fill="white"/>
</g>
<defs>
<clipPath id="clip0">
<rect width="16" height="16" fill="white" transform="translate(0 0.998047)"/>
</clipPath>
</defs>
</svg>
