<svg width="328" height="328" viewBox="0 0 328 328" fill="none" xmlns="http://www.w3.org/2000/svg">
<path d="M228.111 66.9125C228.111 66.9125 190.306 45.7696 146.944 61.8285C103.582 77.8873 75.9123 119.701 52.6243 153.012C29.3363 186.324 32.8721 224.818 60.1683 246.742C87.4644 268.665 112.189 247.398 154.698 253.387C197.207 259.376 207.552 267.353 246.728 249.451C285.904 231.549 301.871 176.189 281.299 129.738C260.727 83.2862 228.111 66.9125 228.111 66.9125Z" fill="#24BEE1"/>
<path opacity="0.8" d="M228.111 66.9125C228.111 66.9125 190.306 45.7696 146.944 61.8285C103.582 77.8873 75.9123 119.701 52.6243 153.012C29.3363 186.324 32.8721 224.818 60.1683 246.742C87.4644 268.665 112.189 247.398 154.698 253.387C197.207 259.376 207.552 267.353 246.728 249.451C285.904 231.549 301.871 176.189 281.299 129.738C260.727 83.2862 228.111 66.9125 228.111 66.9125Z" fill="white"/>
<path d="M262.512 125.762C259.277 123.998 257.808 125.467 256.608 123.998C255.407 122.528 259.842 118.704 251.018 114.879C251.018 114.879 250.435 106.646 238.377 106.351C226.32 106.056 229.6 114.591 226.32 116.644C223.04 118.697 222.2 115.47 218.966 117.529C215.732 119.589 217.202 123.702 214.558 124.293C211.914 124.883 208.385 121.669 205.151 123.702C201.917 125.736 201.917 127.527 200.441 127.527C198.965 127.527 196.032 126.353 194.268 127.527C192.503 128.701 190.443 130.151 190.443 130.151H264.867C264.867 130.151 265.752 127.527 262.512 125.762Z" fill="#24BEE1"/>
<path opacity="0.5" d="M262.512 125.762C259.277 123.998 257.808 125.467 256.608 123.998C255.407 122.528 259.842 118.704 251.018 114.879C251.018 114.879 250.435 106.646 238.377 106.351C226.32 106.056 229.6 114.591 226.32 116.644C223.04 118.697 222.2 115.47 218.966 117.529C215.732 119.589 217.202 123.702 214.558 124.293C211.914 124.883 208.385 121.669 205.151 123.702C201.917 125.736 201.917 127.527 200.441 127.527C198.965 127.527 196.032 126.353 194.268 127.527C192.503 128.701 190.443 130.151 190.443 130.151H264.867C264.867 130.151 265.752 127.527 262.512 125.762Z" fill="#24BEE1"/>
<path d="M149.876 88.1465C147.961 87.1034 147.088 87.9759 146.393 87.1034C145.698 86.231 148.309 83.9678 143.113 81.698C143.113 81.698 142.765 76.8174 135.622 76.6468C128.478 76.4762 130.374 81.5274 128.478 82.7476C126.582 83.9678 126.037 82.0522 124.115 83.2658C122.193 84.4794 123.072 86.9263 121.491 87.2806C119.91 87.6348 117.831 85.7062 115.915 86.9263C114 88.1465 114 89.1961 113.127 89.1961C112.255 89.1961 110.503 88.4942 109.467 89.1961C108.43 89.898 107.204 90.7639 107.204 90.7639H151.274C151.274 90.7639 151.798 89.2158 149.876 88.1465Z" fill="#24BEE1"/>
<path opacity="0.5" d="M149.876 88.1465C147.961 87.1034 147.088 87.9759 146.393 87.1034C145.698 86.231 148.309 83.9678 143.113 81.698C143.113 81.698 142.765 76.8174 135.622 76.6468C128.478 76.4762 130.374 81.5274 128.478 82.7476C126.582 83.9678 126.037 82.0522 124.115 83.2658C122.193 84.4794 123.072 86.9263 121.491 87.2806C119.91 87.6348 117.831 85.7062 115.915 86.9263C114 88.1465 114 89.1961 113.127 89.1961C112.255 89.1961 110.503 88.4942 109.467 89.1961C108.43 89.898 107.204 90.7639 107.204 90.7639H151.274C151.274 90.7639 151.798 89.2158 149.876 88.1465Z" fill="#24BEE1"/>
<path d="M176.753 233.47C171.242 230.459 168.736 232.965 166.729 230.459C164.721 227.953 172.239 221.446 157.21 214.932C157.21 214.932 156.207 200.9 135.667 200.401C115.128 199.903 120.632 214.426 115.121 217.936C109.611 221.446 108.109 215.929 102.598 219.438C97.0879 222.948 99.5872 229.934 95.0805 230.964C90.5738 231.994 84.5845 226.451 79.0479 229.961C73.5112 233.47 73.5375 236.475 71.0316 236.475C68.5256 236.475 63.5138 234.467 60.5356 236.475C57.5573 238.482 54.0215 240.981 54.0215 240.981H180.761C180.761 240.981 182.263 236.475 176.753 233.47Z" fill="#24BEE1"/>
<path opacity="0.5" d="M176.753 233.47C171.242 230.459 168.736 232.965 166.729 230.459C164.721 227.953 172.239 221.446 157.21 214.932C157.21 214.932 156.207 200.9 135.667 200.401C115.128 199.903 120.632 214.426 115.121 217.936C109.611 221.446 108.109 215.929 102.598 219.438C97.0879 222.948 99.5872 229.934 95.0805 230.964C90.5738 231.994 84.5845 226.451 79.0479 229.961C73.5112 233.47 73.5375 236.475 71.0316 236.475C68.5256 236.475 63.5138 234.467 60.5356 236.475C57.5573 238.482 54.0215 240.981 54.0215 240.981H180.761C180.761 240.981 182.263 236.475 176.753 233.47Z" fill="#24BEE1"/>
<g opacity="0.5">
<path opacity="0.5" d="M262.512 125.762C259.277 123.998 257.808 125.467 256.608 123.998C255.407 122.528 259.842 118.704 251.018 114.879C251.018 114.879 250.435 106.646 238.377 106.351C226.32 106.056 229.6 114.591 226.32 116.644C223.04 118.697 222.2 115.47 218.966 117.529C215.732 119.589 217.202 123.702 214.558 124.293C211.914 124.883 208.385 121.669 205.151 123.702C201.917 125.736 201.917 127.527 200.441 127.527C198.965 127.527 196.032 126.353 194.268 127.527C192.503 128.701 190.443 130.151 190.443 130.151H264.867C264.867 130.151 265.752 127.527 262.512 125.762Z" fill="white"/>
<path opacity="0.5" d="M262.512 125.762C259.277 123.998 257.808 125.467 256.608 123.998C255.407 122.528 259.842 118.704 251.018 114.879C251.018 114.879 250.435 106.646 238.377 106.351C226.32 106.056 229.6 114.591 226.32 116.644C223.04 118.697 222.2 115.47 218.966 117.529C215.732 119.589 217.202 123.702 214.558 124.293C211.914 124.883 208.385 121.669 205.151 123.702C201.917 125.736 201.917 127.527 200.441 127.527C198.965 127.527 196.032 126.353 194.268 127.527C192.503 128.701 190.443 130.151 190.443 130.151H264.867C264.867 130.151 265.752 127.527 262.512 125.762Z" fill="white"/>
</g>
<g opacity="0.5">
<path opacity="0.5" d="M149.876 88.1465C147.961 87.1034 147.088 87.9759 146.393 87.1034C145.698 86.231 148.309 83.9678 143.113 81.698C143.113 81.698 142.765 76.8174 135.622 76.6468C128.478 76.4762 130.374 81.5274 128.478 82.7476C126.582 83.9678 126.037 82.0522 124.115 83.2658C122.193 84.4794 123.072 86.9263 121.491 87.2806C119.91 87.6348 117.831 85.7062 115.915 86.9263C114 88.1465 114 89.1961 113.127 89.1961C112.255 89.1961 110.503 88.4942 109.467 89.1961C108.43 89.898 107.204 90.7639 107.204 90.7639H151.274C151.274 90.7639 151.798 89.2158 149.876 88.1465Z" fill="white"/>
<path opacity="0.5" d="M149.876 88.1465C147.961 87.1034 147.088 87.9759 146.393 87.1034C145.698 86.231 148.309 83.9678 143.113 81.698C143.113 81.698 142.765 76.8174 135.622 76.6468C128.478 76.4762 130.374 81.5274 128.478 82.7476C126.582 83.9678 126.037 82.0522 124.115 83.2658C122.193 84.4794 123.072 86.9263 121.491 87.2806C119.91 87.6348 117.831 85.7062 115.915 86.9263C114 88.1465 114 89.1961 113.127 89.1961C112.255 89.1961 110.503 88.4942 109.467 89.1961C108.43 89.898 107.204 90.7639 107.204 90.7639H151.274C151.274 90.7639 151.798 89.2158 149.876 88.1465Z" fill="white"/>
</g>
<g opacity="0.5">
<path opacity="0.5" d="M176.753 233.47C171.242 230.459 168.736 232.965 166.729 230.459C164.721 227.953 172.239 221.446 157.21 214.932C157.21 214.932 156.207 200.9 135.667 200.401C115.128 199.903 120.632 214.426 115.121 217.936C109.611 221.446 108.109 215.929 102.598 219.438C97.0879 222.948 99.5872 229.934 95.0805 230.964C90.5738 231.994 84.5845 226.451 79.0479 229.961C73.5112 233.47 73.5375 236.475 71.0316 236.475C68.5256 236.475 63.5138 234.467 60.5356 236.475C57.5573 238.482 54.0215 240.981 54.0215 240.981H180.761C180.761 240.981 182.263 236.475 176.753 233.47Z" fill="white"/>
<path opacity="0.5" d="M176.753 233.47C171.242 230.459 168.736 232.965 166.729 230.459C164.721 227.953 172.239 221.446 157.21 214.932C157.21 214.932 156.207 200.9 135.667 200.401C115.128 199.903 120.632 214.426 115.121 217.936C109.611 221.446 108.109 215.929 102.598 219.438C97.0879 222.948 99.5872 229.934 95.0805 230.964C90.5738 231.994 84.5845 226.451 79.0479 229.961C73.5112 233.47 73.5375 236.475 71.0316 236.475C68.5256 236.475 63.5138 234.467 60.5356 236.475C57.5573 238.482 54.0215 240.981 54.0215 240.981H180.761C180.761 240.981 182.263 236.475 176.753 233.47Z" fill="white"/>
</g>
<path d="M84.1448 212.104C84.1448 212.104 80.9042 209.264 77.552 208.293C74.1999 207.322 70.336 207.302 66.997 206.39C63.658 205.478 61.6637 204.711 61.6637 204.711L61.4932 207.729L84.0071 213.81L99.41 209.546L100.945 206.417C99.2666 207.198 97.5064 207.79 95.697 208.181C92.3448 208.975 88.5925 208.975 86.513 209.775C84.4335 210.576 84.1448 212.104 84.1448 212.104Z" fill="white" stroke="#263238" stroke-linecap="round" stroke-linejoin="round"/>
<path d="M61.1785 205.393C65.5794 206.739 70.0905 207.694 74.6593 208.246C78.0957 208.712 81.3585 210.039 84.1451 212.103C86.4117 210.655 89.0211 209.831 91.7088 209.716C94.9414 209.471 98.1305 208.82 101.201 207.78L100.237 209.748L83.6924 212.989L60.8374 207.019L61.1785 205.393Z" fill="white" stroke="#263238" stroke-linecap="round" stroke-linejoin="round"/>
<path d="M60.5551 206.076C64.0518 207.416 67.7158 208.27 71.4447 208.615C77.5324 209.074 83.9743 212.105 83.9743 212.105C86.4659 210.848 89.2015 210.15 91.9906 210.058C95.1207 210.031 98.2349 209.61 101.26 208.805C101.166 209.119 101.142 209.45 101.191 209.775C101.24 210.099 101.359 210.409 101.542 210.681L83.9152 214.434L60.437 207.611L60.5551 206.076Z" fill="white" stroke="#263238" stroke-linecap="round" stroke-linejoin="round"/>
<path d="M60.2665 207.328L83.1806 213.068V213.855L85.1092 213.908V213.003L102.054 210.326C102.054 210.326 102.795 210.155 102.165 210.982C101.535 211.809 90.6262 221.334 90.6262 221.334L78.5164 222.58L60.1484 218.546L60.2665 207.328Z" fill="#24BEE1"/>
<path opacity="0.3" d="M83.1804 213.868V213.068L60.2663 207.328L60.1548 218.585L78.5162 222.619L78.8442 222.587L83.6921 213.882L83.1804 213.868Z" fill="black"/>
<path d="M60.2665 207.328L83.1806 213.068V213.855L85.1092 213.908V213.003L102.054 210.326C102.054 210.326 102.795 210.155 102.165 210.982C101.535 211.809 90.6262 221.334 90.6262 221.334L78.5164 222.58L60.1484 218.546L60.2665 207.328Z" stroke="#263238" stroke-linecap="round" stroke-linejoin="round"/>
<path d="M83.1805 213.869L78.1162 222.62L79.0871 222.679L85.1092 213.922L83.1805 213.869Z" fill="#24BEE1" stroke="#263238" stroke-linecap="round" stroke-linejoin="round"/>
<path d="M82.3671 267.221C82.3671 267.221 81.265 269.53 79.7955 270.586C78.3261 271.642 76.4499 272.141 74.9674 273.158C74.1621 273.702 73.391 274.296 72.6583 274.935L72.0679 272.928L81.9997 266.086L90.2325 267.083L91.5051 268.999C90.5854 268.687 89.6277 268.502 88.6581 268.448C86.8935 268.323 85.0632 268.782 83.9021 268.5C83.5675 268.414 83.2563 268.254 82.9909 268.033C82.7254 267.812 82.5124 267.534 82.3671 267.221Z" fill="white" stroke="#263238" stroke-linecap="round" stroke-linejoin="round"/>
<path d="M72.2974 274.536C74.1842 273.117 76.2293 271.922 78.3917 270.974C80.0634 270.151 81.4486 268.843 82.367 267.222C83.6247 267.877 85.061 268.107 86.4605 267.878C88.108 267.651 89.7817 267.7 91.4133 268.022L90.6064 266.795L81.9997 266.664L71.8579 273.467L72.2974 274.536Z" fill="white" stroke="#263238" stroke-linecap="round" stroke-linejoin="round"/>
<path d="M71.8779 274.155C73.3135 272.86 74.9685 271.832 76.7651 271.118C79.6515 270.068 82.2886 267.241 82.2886 267.241C83.6403 267.769 85.113 267.908 86.5395 267.641C88.0885 267.278 89.6881 267.183 91.2692 267.359C91.0707 266.952 91.0086 266.492 91.0921 266.047L81.8688 265.68L71.563 273.138L71.8779 274.155Z" fill="white" stroke="#263238" stroke-linecap="round" stroke-linejoin="round"/>
<path d="M71.5036 273.348L81.7109 266.683L81.5732 266.151L82.5112 265.876L82.6621 266.486L91.3738 266.223C91.3738 266.223 91.7608 266.223 91.3148 265.751C90.8687 265.279 83.9676 260.182 83.9676 260.182L77.8471 260.838L69.5684 265.79L71.5036 273.348Z" fill="#24BEE1"/>
<path opacity="0.3" d="M81.5997 266.152L81.7374 266.683L71.5301 273.348L69.5752 265.771L77.8539 260.819L78.0179 260.799L81.849 266.08L81.5997 266.152Z" fill="black"/>
<path d="M71.5036 273.348L81.7109 266.683L81.5732 266.151L82.5112 265.876L82.6621 266.486L91.3738 266.223C91.3738 266.223 91.7608 266.223 91.3148 265.751C90.8687 265.279 83.9676 260.182 83.9676 260.182L77.8471 260.838L69.5684 265.79L71.5036 273.348Z" stroke="#263238" stroke-linecap="round" stroke-linejoin="round"/>
<path d="M81.5996 266.152L77.6636 260.864L78.1228 260.707L82.5377 265.876L81.5996 266.152Z" fill="#24BEE1" stroke="#263238" stroke-linecap="round" stroke-linejoin="round"/>
<path d="M234.992 196.609L253.517 215.371L213.961 226.516L211.343 207.709L234.992 196.609Z" fill="#24BEE1" stroke="#263238" stroke-linecap="round" stroke-linejoin="round"/>
<path d="M251.385 218.081L210.471 230.105L213.77 208.484L234.415 199.273L251.385 218.081Z" fill="white" stroke="#263238" stroke-linecap="round" stroke-linejoin="round"/>
<path d="M235.386 200.441L250.605 220.121L212.216 231.267L216.677 207.611L235.386 200.441Z" fill="white"/>
<path opacity="0.17" d="M235.386 200.441L250.605 220.121L212.216 231.267L216.677 207.611L235.386 200.441Z" fill="black"/>
<path d="M235.386 200.441L250.605 220.121L212.216 231.267L216.677 207.611L235.386 200.441Z" stroke="#263238" stroke-linecap="round" stroke-linejoin="round"/>
<path d="M235.386 200.441L228.406 224.674L201.162 232.92L211.632 210.616L235.386 200.441Z" fill="white" stroke="#263238" stroke-linecap="round" stroke-linejoin="round"/>
<path d="M226.47 222.739L200.198 231.562L199.417 227.875L223.755 219.15L226.47 222.739Z" fill="white" stroke="#263238" stroke-linecap="round" stroke-linejoin="round"/>
<path d="M234.71 197.141L252.16 215.272L251.386 218.08L235.386 200.44L226.471 222.738L223.755 219.149L234.71 197.141Z" fill="white" stroke="#263238" stroke-linecap="round" stroke-linejoin="round"/>
<path d="M234.992 196.609L223.853 219.832L198.158 228.557L211.343 207.709L234.992 196.609Z" fill="#24BEE1"/>
<path opacity="0.3" d="M234.992 196.609L223.853 219.832L198.158 228.557L211.343 207.709L234.992 196.609Z" fill="black"/>
<path d="M234.992 196.609L223.853 219.832L198.158 228.557L211.343 207.709L234.992 196.609Z" stroke="#263238" stroke-linecap="round" stroke-linejoin="round"/>
<path d="M210.281 209.847L230.951 200.414" stroke="#263238" stroke-linecap="round" stroke-linejoin="round"/>
<path d="M148.925 264.027L167.897 240.686L128.76 238.85L125.644 258.457L148.925 264.027Z" fill="#24BEE1" stroke="#263238" stroke-linecap="round" stroke-linejoin="round"/>
<path d="M165.843 238.455L125.375 236.061L128.077 257.098L148.42 261.481L165.843 238.455Z" fill="white" stroke="#263238" stroke-linecap="round" stroke-linejoin="round"/>
<path d="M149.417 260.07L165.121 236.579L127.146 234.467L130.957 257.282L149.417 260.07Z" fill="white"/>
<path opacity="0.17" d="M149.417 260.07L165.121 236.579L127.146 234.467L130.957 257.282L149.417 260.07Z" fill="black"/>
<path d="M149.417 260.07L165.121 236.579L127.146 234.467L130.957 257.282L149.417 260.07Z" stroke="#263238" stroke-linecap="round" stroke-linejoin="round"/>
<path d="M149.417 260.07L143.113 237.268L116.171 235.438L126.011 255.452L149.417 260.07Z" fill="white" stroke="#263238" stroke-linecap="round" stroke-linejoin="round"/>
<path d="M141.125 239.689L115.167 237.039L114.294 240.942L138.324 243.953L141.125 239.689Z" fill="white" stroke="#263238" stroke-linecap="round" stroke-linejoin="round"/>
<path d="M148.649 263.56L166.538 241.105L165.843 238.455L149.417 260.07L141.125 239.688L138.324 243.952L148.649 263.56Z" fill="white" stroke="#263238" stroke-linecap="round" stroke-linejoin="round"/>
<path d="M148.925 264.026L138.435 243.244L113.055 240.555L125.643 258.457L148.925 264.026Z" fill="#24BEE1"/>
<path opacity="0.3" d="M148.925 264.026L138.435 243.244L113.055 240.555L125.643 258.457L148.925 264.026Z" fill="black"/>
<path d="M148.925 264.026L138.435 243.244L113.055 240.555L125.643 258.457L148.925 264.026Z" stroke="#263238" stroke-linecap="round" stroke-linejoin="round"/>
<path d="M123.708 255.873L144.379 260.222" stroke="#263238" stroke-linecap="round" stroke-linejoin="round"/>
<path d="M164.308 107.078C164.308 107.078 155.715 111.23 152.277 116.262C148.84 121.293 149.843 130.582 155.137 133.587C160.431 136.591 178.911 147.625 191.946 146.051C204.98 144.476 202.973 131.153 196.387 125.852C189.8 120.552 180.918 115.829 180.918 115.829C180.918 115.829 180.492 112.968 179.915 111.965C179.337 110.961 172.758 104.499 164.308 107.078Z" fill="#263238" stroke="#263238" stroke-linecap="round" stroke-linejoin="round"/>
<path d="M199.194 128.989C179.685 123.02 166.834 133.706 162.806 137.799C170.875 141.991 182.762 147.141 191.946 146.032C202.848 144.714 203.222 135.169 199.194 128.989Z" fill="white" stroke="#263238" stroke-linecap="round" stroke-linejoin="round"/>
<path d="M185.93 127.414C185.93 127.414 197.391 136.598 193.376 145.743" stroke="#263238" stroke-linecap="round" stroke-linejoin="round"/>
<path d="M148.315 103.078L143.723 124.496H147.416L156.522 107.617C156.522 107.617 154.744 102.205 148.315 103.078Z" fill="white" stroke="#263238" stroke-linecap="round" stroke-linejoin="round"/>
<path d="M206.03 92.6854C202.271 88.0934 197.305 83.8359 188.206 83.1078C188.206 83.1078 180.452 82.8651 169.904 87.3521C161.658 90.8551 152.848 98.5041 148.315 103.096C152.369 104.126 154.783 105.786 156.528 107.636C158.326 105.923 159.893 104.434 161.048 103.496C164.931 100.341 170.632 97.6775 170.632 97.6775C170.632 97.6775 164.446 106.16 163.232 108.344C162.019 110.529 162.872 114.045 169.294 115.016C175.716 115.986 177.297 114.773 179.842 113.317C182.388 111.86 185.543 110.529 186.757 110.529C189.182 110.7 191.589 110.003 193.546 108.561C196.695 106.376 198.033 100.197 199.122 99.7111C199.87 99.3766 206.489 108.01 211.645 114.491L212.091 114.261C214.335 113.107 216.086 110.752 217.287 108.679C213.115 102.584 208.464 95.6636 206.03 92.6854Z" fill="#24BEE1" stroke="#263238" stroke-linecap="round" stroke-linejoin="round"/>
<path d="M184.296 87.1816C184.296 87.1816 181.725 93.3677 186.874 95.7096" stroke="#263238" stroke-linecap="round" stroke-linejoin="round"/>
<path d="M170.632 97.659L176.221 96.0059" stroke="#263238" stroke-linecap="round" stroke-linejoin="round"/>
<path d="M170.56 108.45C170.56 108.45 174.083 111.559 182.329 108.043" stroke="#263238" stroke-linecap="round" stroke-linejoin="round"/>
<path d="M202.737 97.3555C200.703 97.6244 199.122 99.7171 199.122 99.7171C201.469 99.2171 203.855 98.9252 206.253 98.8446" stroke="#263238" stroke-linecap="round" stroke-linejoin="round"/>
<path d="M170.816 98.169C170.816 98.169 174.601 98.169 178.255 98.0312" stroke="#263238" stroke-linecap="round" stroke-linejoin="round"/>
<path d="M172.843 106.822C172.843 106.822 173.249 109.263 178.524 108.987" stroke="#263238" stroke-linecap="round" stroke-linejoin="round"/>
<path d="M186.874 85.1683C186.874 85.1683 186.028 89.5307 186.632 91.8333C187.235 94.1358 189.42 96.8057 191.001 94.0177C192.582 91.2297 193.421 88.1137 193.421 86.6246C193.421 85.1355 187.963 82.3803 186.874 85.1683Z" fill="white" stroke="#263238" stroke-linecap="round" stroke-linejoin="round"/>
<path d="M199.122 79.7101C199.122 79.7101 202.514 78.9819 205.426 75.2231C208.339 71.4642 204.58 70.9853 203.366 67.3511C202.153 63.7168 206.423 64.9239 200.244 58.6197C194.064 52.3156 183.995 54.5 179.252 56.5599C174.509 58.6197 174.66 65.534 171.255 66.0194C167.851 66.5048 166.401 63.2314 162.281 63.2314C158.162 63.2314 153.793 67.5938 155.492 71.228C157.191 74.8623 160.464 73.2944 160.707 72.6844C160.95 72.0743 159.008 72.809 158.883 70.9853C158.758 69.1616 163.246 70.1391 164.584 72.5663C165.666 74.5343 163.678 77.3288 163.744 79.3952C163.882 83.5411 168.959 86.1914 172.22 86.7621C176.621 87.5296 181.974 87.2607 185.963 85.0762C190.863 82.3866 188.587 76.8106 192.195 75.3543C195.803 73.898 197.653 76.0824 197.653 76.0824L199.122 79.7101Z" fill="#263238" stroke="#263238" stroke-linecap="round" stroke-linejoin="round"/>
<path d="M162.065 65.4808C161.44 65.2094 160.753 65.1154 160.078 65.2091C159.403 65.3028 158.767 65.5807 158.24 66.0121" stroke="white" stroke-linecap="round" stroke-linejoin="round"/>
<path d="M194.419 68.8791C194.419 68.8791 194.419 61.6631 189.355 60.1937C184.29 58.7242 178.504 65.258 175.579 69.3777C172.653 73.4973 168.363 72.5133 165.207 68.1706C164.91 67.752 164.581 67.3572 164.223 66.9898" stroke="white" stroke-linecap="round" stroke-linejoin="round"/>
<path d="M165.719 82.4134C168.343 84.0993 170.311 84.5847 174.161 83.3777C178.012 82.1706 177.54 75.8993 180.912 72.5274C184.284 69.1556 190.319 70.3561 190.319 70.3561C190.319 70.3561 183.569 66.735 178.261 70.5922C172.954 74.4495 173.433 80.9636 168.612 82.1706" stroke="white" stroke-linecap="round" stroke-linejoin="round"/>
<path d="M197.797 69.6273C197.797 69.6273 202.389 68.4203 202.14 64.3203" stroke="white" stroke-linecap="round" stroke-linejoin="round"/>
<path d="M160.011 116.111C160.011 116.111 172.475 117.686 178.773 122.015" stroke="white" stroke-linecap="round" stroke-linejoin="round"/>
<path d="M195.166 71.1888C194.39 70.9661 193.566 70.9714 192.793 71.2041C192.019 71.4367 191.329 71.8868 190.804 72.5008C188.744 74.6787 188.836 75.7808 187.117 77.1387C186.605 77.5869 185.959 77.8535 185.279 77.8974C184.6 77.9413 183.924 77.7599 183.358 77.3814C182.63 77.0206 181.784 77.2633 181.541 78.9558C181.299 80.6483 183.601 81.9865 183.969 81.9865C184.334 82.0064 184.697 82.048 185.057 82.1112C185.057 82.1112 185.057 85.1419 187.117 86.959C189.177 88.7761 193.303 91.6888 196.091 91.0853C198.879 90.4817 199.968 84.0529 199.968 80.7795C199.866 77.4604 199.212 74.1815 198.033 71.0773C197.18 69.1617 195.166 71.1888 195.166 71.1888Z" fill="white" stroke="#263238" stroke-linecap="round" stroke-linejoin="round"/>
<path d="M192.864 78.5554C192.864 79.2114 192.627 79.7756 192.326 79.7756C192.024 79.7756 191.781 79.2311 191.781 78.5554C191.781 77.8797 192.024 77.3418 192.326 77.3418C192.627 77.3418 192.864 77.8863 192.864 78.5554Z" fill="#263238"/>
<path d="M197.187 78.1491C197.187 78.8051 196.944 79.3693 196.649 79.3693C196.354 79.3693 196.104 78.8248 196.104 78.1491C196.104 77.4735 196.347 76.9355 196.649 76.9355C196.951 76.9355 197.187 77.48 197.187 78.1491Z" fill="#263238"/>
<path d="M190.292 76.0955C190.292 76.0955 191.099 74.8819 193.133 75.4395" stroke="#263238" stroke-linecap="round" stroke-linejoin="round"/>
<path d="M195.429 75.4392C195.429 75.4392 196.78 73.9501 198 75.4392" stroke="#263238" stroke-linecap="round" stroke-linejoin="round"/>
<path d="M195.298 78.1484C195.298 78.1484 195.429 80.8577 196.242 80.8577C197.056 80.8577 196.78 82.0713 195.698 82.4781" stroke="#263238" stroke-linecap="round" stroke-linejoin="round"/>
<path d="M194.615 85.188C194.615 85.188 192.181 86.2704 191.237 83.8301" stroke="#263238" stroke-linecap="round" stroke-linejoin="round"/>
<path d="M195.186 145.067C195.186 145.067 181.41 132.983 167.136 128.87C152.861 124.757 136.435 126.692 122.167 122.829C107.899 118.965 99.6857 113.645 99.6857 113.645L98.9575 126.456L194.734 152.329L260.255 134.197L266.782 120.9C266.782 120.9 258.805 125.006 244.537 128.391C230.269 131.776 214.282 131.77 205.328 135.135C196.374 138.5 195.186 145.067 195.186 145.067Z" fill="white" stroke="#263238" stroke-linecap="round" stroke-linejoin="round"/>
<path d="M97.5079 116.539C97.5079 116.539 113.488 126.215 149.489 129.6C173.204 131.824 195.186 145.069 195.186 145.069C204.819 138.91 215.908 135.407 227.33 134.914C246.19 134.192 267.707 126.694 267.707 126.694L263.607 135.137L193.251 148.913L96.0581 123.525L97.5079 116.539Z" fill="white" stroke="#263238" stroke-linecap="round" stroke-linejoin="round"/>
<path d="M94.8507 119.443C108.452 125.586 123.009 129.341 137.884 130.543C163.75 132.478 194.458 145.047 194.458 145.047C194.458 145.047 210.654 136.348 228.57 136.348C241.876 136.235 255.115 134.448 267.976 131.028C267.576 132.365 267.477 133.773 267.685 135.152C267.894 136.531 268.405 137.847 269.183 139.005L194.215 154.979L94.3652 125.951L94.8507 119.443Z" fill="white" stroke="#263238" stroke-linecap="round" stroke-linejoin="round"/>
<path d="M95.3363 125.184L191.073 149.18V152.565L199.293 152.808V148.911L271.341 137.549C271.341 137.549 274.483 136.821 271.827 140.449C269.17 144.076 222.745 184.453 222.745 184.453L171.249 189.773L93.1519 172.632L93.6176 126.509C93.6191 126.3 93.6681 126.093 93.7611 125.906C93.854 125.719 93.9884 125.555 94.154 125.427C94.3197 125.3 94.5122 125.211 94.7171 125.169C94.9219 125.127 95.1337 125.132 95.3363 125.184Z" fill="#24BEE1"/>
<path opacity="0.3" d="M191.073 152.565V149.18L93.6371 124.764L93.1582 172.632L171.248 189.799L172.646 189.655L193.257 152.631L191.073 152.565Z" fill="black"/>
<path d="M95.3363 125.184L191.073 149.18V152.565L199.293 152.808V148.911L271.341 137.549C271.341 137.549 274.483 136.821 271.827 140.449C269.17 144.076 222.745 184.453 222.745 184.453L171.249 189.773L93.1519 172.632L93.6176 126.509C93.6191 126.3 93.6681 126.093 93.7611 125.906C93.854 125.719 93.9884 125.555 94.154 125.427C94.3197 125.3 94.5122 125.211 94.7171 125.169C94.9219 125.127 95.1337 125.132 95.3363 125.184Z" stroke="#263238" stroke-linecap="round" stroke-linejoin="round"/>
<path d="M191.073 152.564L169.556 189.799L173.669 190.035L199.293 152.807L191.073 152.564Z" fill="#24BEE1" stroke="#263238" stroke-linecap="round" stroke-linejoin="round"/>
<path d="M262.885 139.071C262.885 139.071 269.307 140.271 267.969 144.555L271.827 140.462C271.827 140.462 273.591 138.264 272.784 137.838C271.977 137.411 262.885 139.071 262.885 139.071Z" fill="#263238"/>
<path d="M104.212 127.617C104.212 127.617 95.1263 130.129 93.7159 136.919L93.6372 126.508C93.6372 126.508 93.9127 124.94 95.3494 125.196C96.786 125.452 104.212 127.617 104.212 127.617Z" fill="#263238"/>
<path d="M93.2435 169.445L97.8093 173.795L93.1582 172.633L93.2435 169.445Z" fill="#263238"/>
<path d="M219.458 184.763L225.651 181.719L222.39 184.546L219.458 184.763Z" fill="#263238"/>
<path d="M217.287 108.686L234.71 129.573L230.321 130.268L211.645 114.524C211.645 114.524 216.48 111.355 217.287 108.686Z" fill="white" stroke="#263238" stroke-linecap="round" stroke-linejoin="round"/>
<path d="M140.023 122.58C140.023 122.58 139.151 121.524 138.928 122.469C138.705 123.414 136.73 126.694 138.272 126.923C139.813 127.153 140.686 123.407 140.686 123.407L140.023 122.58Z" fill="white" stroke="#263238" stroke-linecap="round" stroke-linejoin="round"/>
<path d="M142.109 122.456C142.109 122.456 141.23 121.4 141.013 122.338C140.797 123.276 138.816 126.562 140.357 126.798C141.899 127.035 142.778 123.276 142.778 123.276L142.109 122.456Z" fill="white" stroke="#263238" stroke-linecap="round" stroke-linejoin="round"/>
<path d="M144.202 122.376C144.202 122.376 143.159 121.201 142.89 122.244C142.621 123.287 140.266 126.935 142.109 127.197C143.953 127.46 144.976 123.261 144.976 123.261L144.202 122.376Z" fill="white" stroke="#263238" stroke-linecap="round" stroke-linejoin="round"/>
<path d="M146.025 122.77L149.542 126.154H145.376L146.025 122.77Z" fill="white" stroke="#263238" stroke-linecap="round" stroke-linejoin="round"/>
<path d="M146.026 122.77C146.026 122.77 144.982 121.596 144.714 122.639C144.445 123.682 142.09 127.329 143.933 127.585C145.776 127.841 146.8 123.649 146.8 123.649L146.026 122.77Z" fill="white" stroke="#263238" stroke-linecap="round" stroke-linejoin="round"/>
<path d="M239.44 125.808C239.44 125.808 240.142 124.627 240.509 125.519C240.876 126.411 243.336 129.35 241.86 129.822C240.384 130.295 238.921 126.726 238.921 126.726L239.44 125.808Z" fill="white" stroke="#263238" stroke-linecap="round" stroke-linejoin="round"/>
<path d="M237.38 126.005C237.38 126.005 238.082 124.824 238.449 125.716C238.817 126.608 241.283 129.547 239.801 130.02C238.318 130.492 236.862 126.923 236.862 126.923L237.38 126.005Z" fill="white" stroke="#263238" stroke-linecap="round" stroke-linejoin="round"/>
<path d="M235.307 126.259C235.307 126.259 236.153 124.947 236.573 125.924C236.993 126.902 239.853 130.149 238.121 130.694C236.389 131.238 234.677 127.282 234.677 127.282L235.307 126.259Z" fill="white" stroke="#263238" stroke-linecap="round" stroke-linejoin="round"/>
<path d="M233.568 126.936L230.623 130.832L234.743 130.176L233.568 126.936Z" fill="white" stroke="#263238" stroke-linecap="round" stroke-linejoin="round"/>
<path d="M233.569 126.935C233.569 126.935 234.408 125.623 234.835 126.6C235.261 127.578 238.115 130.818 236.383 131.363C234.651 131.907 232.939 127.958 232.939 127.958L233.569 126.935Z" fill="white" stroke="#263238" stroke-linecap="round" stroke-linejoin="round"/>
<path d="M114.059 161.973L118.258 161.317L114.059 160.661C113.689 160.605 113.347 160.432 113.083 160.167C112.819 159.903 112.646 159.561 112.59 159.191L111.934 154.986L111.278 159.191C111.222 159.56 111.05 159.901 110.787 160.166C110.524 160.43 110.183 160.603 109.815 160.661L105.61 161.317L109.815 161.973C110.182 162.033 110.521 162.207 110.784 162.471C111.046 162.735 111.219 163.075 111.278 163.442L111.934 167.647L112.59 163.442C112.649 163.074 112.822 162.733 113.086 162.469C113.35 162.205 113.691 162.032 114.059 161.973Z" fill="white"/>
<path d="M82.6956 190.455L86.9005 189.799L82.6956 189.143C82.3275 189.083 81.9875 188.909 81.7238 188.645C81.4601 188.382 81.286 188.042 81.2261 187.674L80.5701 183.469L79.9141 187.674C79.8572 188.043 79.684 188.385 79.4198 188.649C79.1555 188.913 78.814 189.086 78.4447 189.143L74.2397 189.799L78.4447 190.455C78.814 190.512 79.1555 190.685 79.4198 190.95C79.684 191.214 79.8572 191.555 79.9141 191.925L80.5701 196.13L81.2261 191.925C81.286 191.556 81.4601 191.217 81.7238 190.953C81.9875 190.689 82.3275 190.515 82.6956 190.455Z" fill="#24BEE1"/>
<path opacity="0.5" d="M82.6956 190.455L86.9005 189.799L82.6956 189.143C82.3275 189.083 81.9875 188.909 81.7238 188.645C81.4601 188.382 81.286 188.042 81.2261 187.674L80.5701 183.469L79.9141 187.674C79.8572 188.043 79.684 188.385 79.4198 188.649C79.1555 188.913 78.814 189.086 78.4447 189.143L74.2397 189.799L78.4447 190.455C78.814 190.512 79.1555 190.685 79.4198 190.95C79.684 191.214 79.8572 191.555 79.9141 191.925L80.5701 196.13L81.2261 191.925C81.286 191.556 81.4601 191.217 81.7238 190.953C81.9875 190.689 82.3275 190.515 82.6956 190.455Z" fill="white"/>
<path d="M187.393 207.992L191.598 207.336L187.393 206.68C187.025 206.623 186.684 206.451 186.42 206.188C186.156 205.925 185.982 205.585 185.924 205.217L185.268 201.012L184.612 205.217C184.554 205.585 184.38 205.925 184.116 206.188C183.852 206.451 183.511 206.623 183.142 206.68L178.938 207.336L183.142 207.992C183.511 208.048 183.852 208.22 184.116 208.483C184.38 208.746 184.554 209.086 184.612 209.454L185.268 213.659L185.924 209.454C185.982 209.086 186.156 208.746 186.42 208.483C186.684 208.22 187.025 208.048 187.393 207.992Z" fill="#24BEE1"/>
<path opacity="0.5" d="M187.393 207.992L191.598 207.336L187.393 206.68C187.025 206.623 186.684 206.451 186.42 206.188C186.156 205.925 185.982 205.585 185.924 205.217L185.268 201.012L184.612 205.217C184.554 205.585 184.38 205.925 184.116 206.188C183.852 206.451 183.511 206.623 183.142 206.68L178.938 207.336L183.142 207.992C183.511 208.048 183.852 208.22 184.116 208.483C184.38 208.746 184.554 209.086 184.612 209.454L185.268 213.659L185.924 209.454C185.982 209.086 186.156 208.746 186.42 208.483C186.684 208.22 187.025 208.048 187.393 207.992Z" fill="white"/>
<path d="M77.3164 168.086L80.0978 167.646L77.3164 167.207C77.0723 167.169 76.8466 167.055 76.6721 166.88C76.4975 166.706 76.3831 166.48 76.3455 166.236L75.9125 163.461L75.473 166.236C75.4354 166.48 75.3211 166.706 75.1465 166.88C74.9719 167.055 74.7462 167.169 74.5021 167.207L71.7207 167.646L74.5021 168.086C74.7462 168.123 74.9719 168.238 75.1465 168.412C75.3211 168.587 75.4354 168.813 75.473 169.057L75.9125 171.831L76.3455 169.057C76.3831 168.813 76.4975 168.587 76.6721 168.412C76.8466 168.238 77.0723 168.123 77.3164 168.086Z" fill="#24BEE1"/>
<path opacity="0.5" d="M77.3164 168.086L80.0978 167.646L77.3164 167.207C77.0723 167.169 76.8466 167.055 76.6721 166.88C76.4975 166.706 76.3831 166.48 76.3455 166.236L75.9125 163.461L75.473 166.236C75.4354 166.48 75.3211 166.706 75.1465 166.88C74.9719 167.055 74.7462 167.169 74.5021 167.207L71.7207 167.646L74.5021 168.086C74.7462 168.123 74.9719 168.238 75.1465 168.412C75.3211 168.587 75.4354 168.813 75.473 169.057L75.9125 171.831L76.3455 169.057C76.3831 168.813 76.4975 168.587 76.6721 168.412C76.8466 168.238 77.0723 168.123 77.3164 168.086Z" fill="white"/>
<path d="M257.756 174.226L260.537 173.793L257.756 173.354C257.512 173.315 257.287 173.201 257.113 173.026C256.938 172.852 256.823 172.627 256.785 172.383L256.345 169.602L255.912 172.383C255.874 172.627 255.759 172.852 255.585 173.026C255.41 173.201 255.185 173.315 254.942 173.354L252.16 173.793L254.942 174.226C255.185 174.265 255.41 174.38 255.585 174.554C255.759 174.728 255.874 174.954 255.912 175.197L256.345 177.979L256.785 175.197C256.823 174.954 256.938 174.728 257.113 174.554C257.287 174.38 257.512 174.265 257.756 174.226Z" fill="#24BEE1"/>
<path opacity="0.5" d="M257.756 174.226L260.537 173.793L257.756 173.354C257.512 173.315 257.287 173.201 257.113 173.026C256.938 172.852 256.823 172.627 256.785 172.383L256.345 169.602L255.912 172.383C255.874 172.627 255.759 172.852 255.585 173.026C255.41 173.201 255.185 173.315 254.942 173.354L252.16 173.793L254.942 174.226C255.185 174.265 255.41 174.38 255.585 174.554C255.759 174.728 255.874 174.954 255.912 175.197L256.345 177.979L256.785 175.197C256.823 174.954 256.938 174.728 257.113 174.554C257.287 174.38 257.512 174.265 257.756 174.226Z" fill="white"/>
<path d="M130.643 151.109L133.365 150.683L130.643 150.256C130.404 150.219 130.183 150.107 130.012 149.936C129.841 149.765 129.729 149.544 129.691 149.305L129.258 146.576L128.832 149.305C128.794 149.544 128.681 149.764 128.51 149.935C128.34 150.105 128.119 150.218 127.881 150.256L125.152 150.683L127.881 151.109C128.119 151.147 128.34 151.26 128.51 151.431C128.681 151.602 128.794 151.822 128.832 152.06L129.232 154.816L129.665 152.087C129.699 151.839 129.813 151.61 129.989 151.433C130.166 151.257 130.395 151.143 130.643 151.109Z" fill="white"/>
<path d="M220.836 178.043L223.565 177.61L220.836 177.184C220.598 177.146 220.377 177.033 220.207 176.862C220.036 176.692 219.923 176.471 219.885 176.233L219.459 173.504L219.032 176.233C218.994 176.471 218.881 176.692 218.711 176.862C218.54 177.033 218.319 177.146 218.081 177.184L215.352 177.61L218.081 178.043C218.32 178.081 218.541 178.193 218.712 178.364C218.883 178.535 218.995 178.756 219.032 178.995L219.459 181.717L219.885 178.995C219.922 178.756 220.035 178.535 220.206 178.364C220.377 178.193 220.597 178.081 220.836 178.043Z" fill="white"/>
</svg>
