<svg width="18" height="18" viewBox="0 0 18 18" fill="none" xmlns="http://www.w3.org/2000/svg">
<path d="M13.7727 9.75H12.8105C12.7451 9.75 12.6835 9.7793 12.645 9.82734L9.00024 14.4164L5.35548 9.82734C5.31699 9.7793 5.25541 9.75 5.18998 9.75H4.2278C4.14441 9.75 4.09566 9.83672 4.14441 9.89883L8.66797 15.5953C8.83218 15.8016 9.1683 15.8016 9.33124 15.5953L13.8548 9.89883C13.9048 9.83672 13.8561 9.75 13.7727 9.75Z" fill="#9292A3"/>
<path d="M13.7727 8.25H12.8105C12.7451 8.25 12.6835 8.2207 12.645 8.17266L9.00024 3.58359L5.35548 8.17266C5.31699 8.2207 5.25541 8.25 5.18998 8.25H4.2278C4.14441 8.25 4.09566 8.16328 4.14441 8.10117L8.66797 2.40469C8.83218 2.19844 9.1683 2.19844 9.33124 2.40469L13.8548 8.10117C13.9048 8.16328 13.8561 8.25 13.7727 8.25Z" fill="#9292A3"/>
</svg>
