<svg width="71" height="24" viewBox="0 0 71 24" fill="none" xmlns="http://www.w3.org/2000/svg">
  <rect x="0.5" y="0.5" width="70" height="23" rx="11.5" fill="#CFCFCF" fill-opacity="0.1"/>
  <path d="M18.5007 4.71667C21.5885 4.71667 24.1173 7.96819 24.1173 12C24.1173 16.0384 21.5885 19.2833 18.5007 19.2833C15.4128 19.2833 12.884 16.0384 12.884 12C12.884 7.96819 15.4128 4.71667 18.5007 4.71667ZM18.5007 5.95C17.2839 5.95 16.1869 6.63304 15.3959 7.72823C14.605 8.82348 14.1173 10.334 14.1173 12C14.1173 13.666 14.605 15.1765 15.3959 16.2718C16.1869 17.367 17.2839 18.05 18.5007 18.05C19.7174 18.05 20.8144 17.367 21.6054 16.2718C22.3963 15.1765 22.884 13.666 22.884 12C22.884 10.334 22.3963 8.82348 21.6054 7.72823C20.8144 6.63304 19.7174 5.95 18.5007 5.95ZM16.7339 11.4892L16.098 10.8533L18.1874 8.75743L18.8233 9.39339L16.7339 11.4892ZM16.3714 13.74L20.0742 10.0372L20.7098 10.6669L17.0073 14.3759L16.3714 13.74Z" fill="#9292A3" stroke="white" stroke-width="0.1"/>
  <path d="M33.132 17H31.76V7.074H37.794V8.348H33.132V11.54H37.36V12.828H33.132V17ZM38.4188 15.194C38.4188 14.6153 38.6054 14.1533 38.9788 13.808C39.3521 13.4533 39.8468 13.234 40.4628 13.15L42.2828 12.884C42.6281 12.8373 42.8008 12.6693 42.8008 12.38C42.8008 12.0253 42.6794 11.736 42.4368 11.512C42.1941 11.288 41.8301 11.176 41.3448 11.176C40.8968 11.176 40.5421 11.302 40.2808 11.554C40.0194 11.7967 39.8654 12.1233 39.8188 12.534L38.5588 12.24C38.6241 11.596 38.9181 11.0733 39.4408 10.672C39.9634 10.2613 40.5888 10.056 41.3167 10.056C42.2688 10.056 42.9734 10.2893 43.4308 10.756C43.8881 11.2133 44.1168 11.8013 44.1168 12.52V15.894C44.1168 16.2953 44.1448 16.664 44.2008 17H42.9128C42.8661 16.72 42.8428 16.4167 42.8428 16.09C42.6561 16.3887 42.3808 16.65 42.0168 16.874C41.6621 17.098 41.2141 17.21 40.6728 17.21C40.0101 17.21 39.4688 17.014 39.0488 16.622C38.6288 16.2207 38.4188 15.7447 38.4188 15.194ZM40.8548 16.104C41.4428 16.104 41.9141 15.9453 42.2688 15.628C42.6234 15.3107 42.8008 14.8067 42.8008 14.116V13.808L40.7428 14.116C40.4441 14.1627 40.2061 14.27 40.0288 14.438C39.8514 14.606 39.7628 14.8347 39.7628 15.124C39.7628 15.3853 39.8608 15.614 40.0568 15.81C40.2621 16.006 40.5281 16.104 40.8548 16.104ZM48.9949 11.274C48.4255 11.274 47.9402 11.4793 47.5389 11.89C47.1469 12.3007 46.9509 12.8793 46.9509 13.626C46.9509 14.3633 47.1469 14.942 47.5389 15.362C47.9402 15.782 48.4302 15.992 49.0089 15.992C49.5689 15.992 49.9935 15.852 50.2829 15.572C50.5815 15.292 50.7822 14.97 50.8849 14.606L52.0469 15.11C51.8602 15.67 51.5055 16.16 50.9829 16.58C50.4695 17 49.8115 17.21 49.0089 17.21C48.0289 17.21 47.2169 16.8693 46.5729 16.188C45.9289 15.5067 45.6069 14.6527 45.6069 13.626C45.6069 12.5807 45.9289 11.7267 46.5729 11.064C47.2169 10.392 48.0242 10.056 48.9949 10.056C49.8162 10.056 50.4789 10.266 50.9829 10.686C51.4962 11.106 51.8322 11.61 51.9909 12.198L50.8009 12.702C50.6982 12.31 50.5022 11.974 50.2129 11.694C49.9235 11.414 49.5175 11.274 48.9949 11.274ZM54.3763 12.94H58.0583C58.0397 12.436 57.8717 12.0253 57.5543 11.708C57.237 11.3813 56.789 11.218 56.2103 11.218C55.6877 11.218 55.2583 11.3907 54.9223 11.736C54.5863 12.072 54.4043 12.4733 54.3763 12.94ZM58.2543 14.69L59.3883 15.082C59.1923 15.7073 58.8283 16.2207 58.2963 16.622C57.7643 17.014 57.1203 17.21 56.3643 17.21C55.4217 17.21 54.619 16.888 53.9563 16.244C53.303 15.5907 52.9763 14.7133 52.9763 13.612C52.9763 12.5853 53.2937 11.736 53.9283 11.064C54.563 10.392 55.319 10.056 56.1963 10.056C57.2137 10.056 58.007 10.378 58.5763 11.022C59.1457 11.6567 59.4303 12.5107 59.4303 13.584C59.4303 13.752 59.421 13.892 59.4023 14.004H54.3343C54.3437 14.6013 54.5397 15.0913 54.9223 15.474C55.3143 15.8567 55.795 16.048 56.3643 16.048C57.3257 16.048 57.9557 15.5953 58.2543 14.69Z" fill="#C0C0C0"/>
  <rect x="0.5" y="0.5" width="70" height="23" rx="11.5" stroke="#C0C0C0"/>
</svg>
