<svg width="119" height="13" viewBox="0 0 119 13" fill="none" xmlns="http://www.w3.org/2000/svg">
<path d="M10.2052 11.3288C10.2052 11.7603 10.0222 11.8429 9.7226 11.8429H8.3103C8.01132 11.8429 7.76227 11.7264 7.57919 11.4768L2.62606 4.88012H2.59337V11.3454C2.59337 11.7104 2.42693 11.8435 2.09466 11.8435H0.548631C0.166432 11.8435 0 11.7603 0 11.3615V0.823938C0 0.39181 0.199124 0.308594 0.548631 0.308594H1.94488C2.27715 0.308594 2.44298 0.407859 2.62606 0.657506L7.57919 7.30646H7.61248V0.790652C7.61248 0.425096 7.79496 0.308594 8.12782 0.308594H9.73983C10.1726 0.308594 10.2052 0.541004 10.2052 0.823938V11.3288Z" fill="#3D3D46"/>
<path d="M15.504 11.4244C15.504 11.6253 15.3715 11.8084 15.1385 11.8084H13.2269C12.9778 11.8084 12.8613 11.6253 12.8613 11.4428V0.655042C12.8613 0.455918 12.9945 0.273438 13.2269 0.273438H15.1385C15.3875 0.273438 15.504 0.455918 15.504 0.639588V11.4244Z" fill="#3D3D46"/>
<path d="M26.6733 1.25325L26.1912 2.64949C26.1252 2.81652 26.058 2.89914 25.9421 2.89914C25.8762 2.89914 25.809 2.86526 25.7258 2.83198C24.8455 2.41768 24.1637 2.26789 23.3827 2.26789C21.6535 2.26789 20.5396 3.59697 20.5396 6.0239C20.5396 8.65115 21.8027 9.77991 23.432 9.77991C24.213 9.77991 24.8948 9.63072 25.6758 9.31509C25.7757 9.28062 25.8589 9.24852 25.9249 9.24852C26.0747 9.24852 26.1573 9.31509 26.2233 9.51422L26.6394 10.7446C26.6721 10.8439 26.6887 10.9277 26.6887 11.0103C26.6887 11.1762 26.6227 11.2927 26.3897 11.3753C25.2431 11.808 24.2945 12.0238 23.0159 12.0238C19.4917 12.0238 17.7139 9.68065 17.7139 6.10712C17.7145 2.51635 19.8917 0.0234375 23.2329 0.0234375C24.4294 0.0234375 25.4434 0.256442 26.4076 0.688571C26.6406 0.787835 26.7238 0.904338 26.7238 1.02084C26.7232 1.08682 26.7065 1.17003 26.6733 1.25325Z" fill="#3D3D46"/>
<path d="M35.723 0.273438C36.0553 0.273438 36.1551 0.439869 36.1385 0.655636L35.9893 2.00195C35.9554 2.35086 35.7396 2.41803 35.3408 2.41803H31.3185V4.89371H35.0911C35.4573 4.89371 35.5898 5.07678 35.5898 5.34248V6.55565C35.5898 6.88911 35.424 7.0383 35.1078 7.0383H31.3185V9.66376H35.6564C35.9554 9.66376 36.1385 9.79631 36.1385 10.1125V11.3423C36.1385 11.6586 35.9893 11.8078 35.6731 11.8078H29.2232C28.841 11.8078 28.6758 11.7073 28.6758 11.2924V0.738852C28.6758 0.456513 28.825 0.274032 29.1079 0.274032H35.723V0.273438Z" fill="#3D3D46"/>
<path d="M43.3882 1.26562V5.61663H42.8164L40.1279 1.94265V5.61663H39.6357V1.26562H40.207L42.896 4.92653V1.26562H43.3882Z" fill="#3D3D46"/>
<path d="M45.549 5.22531C45.9044 5.22531 46.1844 5.10286 46.3906 4.85738C46.5874 4.62556 46.686 4.33193 46.686 3.97707C46.686 3.62222 46.5874 3.32858 46.3906 3.09617C46.1844 2.85068 45.9044 2.72824 45.549 2.72824C45.1989 2.72824 44.9135 2.85128 44.6948 3.09617C44.4885 3.32858 44.3851 3.62222 44.3851 3.97707C44.3851 4.33193 44.4885 4.62556 44.6948 4.85738C44.9141 5.10286 45.1989 5.22531 45.549 5.22531ZM46.6599 5.09395C46.3972 5.47971 46.0049 5.6723 45.4836 5.6723C45.0098 5.6723 44.6247 5.50765 44.3269 5.17954C44.038 4.85559 43.8936 4.45437 43.8936 3.97707C43.8936 3.49917 44.038 3.09855 44.3269 2.77401C44.6247 2.4453 45.0211 2.28125 45.5163 2.28125C46.0114 2.28125 46.3924 2.47621 46.6599 2.86614V2.33356H47.1532V5.61999H46.6599V5.09395Z" fill="#3D3D46"/>
<path d="M48.2965 5.619V2.76648H47.626V2.33257H48.2965V1.15625H48.7892V2.33257H49.5453V2.76648H48.7892V5.619H48.2965Z" fill="#3D3D46"/>
<path d="M50.0186 2.33325H50.512V5.61968H50.0186V2.33325ZM50.5316 1.78105H49.999V1.13672H50.5316V1.78105Z" fill="#3D3D46"/>
<path d="M52.7259 5.22591C53.0808 5.22591 53.3613 5.10346 53.5676 4.85797C53.7644 4.62616 53.863 4.33193 53.863 3.97767C53.863 3.62281 53.7644 3.32918 53.5676 3.09677C53.3619 2.85128 53.0814 2.72883 52.7259 2.72883C52.3717 2.72883 52.0911 2.85187 51.8849 3.09677C51.6875 3.32918 51.5888 3.62281 51.5888 3.97767C51.5888 4.33252 51.6881 4.62616 51.8849 4.85797C52.0905 5.10286 52.3711 5.22591 52.7259 5.22591ZM52.7259 2.28125C53.2169 2.28125 53.6158 2.4453 53.9225 2.77401C54.2113 3.08963 54.3558 3.49085 54.3558 3.97707C54.3558 4.46329 54.2113 4.86451 53.9225 5.17954C53.6158 5.50824 53.2169 5.6723 52.7259 5.6723C52.2356 5.6723 51.8367 5.50824 51.53 5.17954C51.2411 4.86392 51.0967 4.46329 51.0967 3.97707C51.0967 3.49085 51.2411 3.08963 51.53 2.77401C51.8367 2.4453 52.235 2.28125 52.7259 2.28125Z" fill="#3D3D46"/>
<path d="M55.4345 2.32965V2.84262C55.5528 2.68451 55.6973 2.55077 55.8679 2.4414C56.0396 2.33203 56.2346 2.27734 56.4533 2.27734C56.6727 2.27734 56.8611 2.30825 57.0186 2.36888C57.1761 2.4307 57.3146 2.52224 57.4323 2.64468C57.7046 2.91216 57.8407 3.26405 57.8407 3.70271V5.61549H57.3473V3.71639C57.3473 3.41443 57.2623 3.1731 57.0911 2.9936C56.9205 2.81349 56.6988 2.72374 56.4272 2.72374C56.1514 2.72374 55.9172 2.81528 55.7246 3.00013C55.5314 3.18856 55.4351 3.42929 55.4351 3.72292V5.61609H54.9424V2.32965H55.4345Z" fill="#3D3D46"/>
<path d="M59.9216 5.22531C60.2771 5.22531 60.5564 5.10286 60.7633 4.85738C60.9606 4.62556 61.0593 4.33193 61.0593 3.97707C61.0593 3.62222 60.9606 3.32858 60.7633 3.09617C60.5564 2.85068 60.2771 2.72824 59.9216 2.72824C59.5709 2.72824 59.2862 2.85128 59.0669 3.09617C58.8606 3.32858 58.7578 3.62222 58.7578 3.97707C58.7578 4.33193 58.8606 4.62556 59.0669 4.85738C59.2862 5.10286 59.5709 5.22531 59.9216 5.22531ZM61.0326 5.09395C60.7692 5.47971 60.3775 5.6723 59.8556 5.6723C59.3831 5.6723 58.9979 5.50765 58.6995 5.17954C58.4107 4.85559 58.2656 4.45437 58.2656 3.97707C58.2656 3.49917 58.4107 3.09855 58.6995 2.77401C58.9979 2.4453 59.3932 2.28125 59.8895 2.28125C60.3841 2.28125 60.7651 2.47621 61.0331 2.86614V2.33356H61.5253V5.61999H61.0331V5.09395H61.0326Z" fill="#3D3D46"/>
<path d="M62.3164 1.01562H62.8086V5.61628H62.3164V1.01562Z" fill="#3D3D46"/>
<path d="M65.0332 1.26562H65.5254V5.61663H65.0332V1.26562Z" fill="#3D3D46"/>
<path d="M66.9178 2.32965V2.84262C67.0349 2.68451 67.1799 2.55077 67.3517 2.4414C67.5223 2.33203 67.7172 2.27734 67.9354 2.27734C68.1547 2.27734 68.3431 2.30825 68.5007 2.36888C68.6588 2.4307 68.7967 2.52224 68.915 2.64468C69.1866 2.91216 69.3227 3.26405 69.3227 3.70271V5.61549H68.8294V3.71639C68.8294 3.41443 68.7444 3.1731 68.5726 2.9936C68.402 2.81349 68.1803 2.72374 67.9098 2.72374C67.6334 2.72374 67.398 2.81528 67.2061 3.00013C67.0135 3.18856 66.9172 3.42929 66.9172 3.72292V5.61609H66.4238V2.32965H66.9178Z" fill="#3D3D46"/>
<path d="M72.0118 3.21386C71.9678 2.87208 71.6926 2.70149 71.1862 2.70149C70.6798 2.70149 70.4272 2.85901 70.4272 3.17463C70.4272 3.306 70.4806 3.40585 70.5876 3.47362C70.6958 3.54138 70.8302 3.59725 70.993 3.64064C71.1553 3.68463 71.3306 3.72564 71.5214 3.76249C71.7128 3.79994 71.8894 3.85225 72.0511 3.9206C72.2133 3.98837 72.3483 4.08169 72.4564 4.19997C72.5634 4.31826 72.6169 4.48053 72.6169 4.68619C72.6169 5.00657 72.4963 5.25028 72.2561 5.41849C72.0148 5.5879 71.6885 5.67171 71.2766 5.67171C70.8391 5.67171 70.4908 5.56234 70.2316 5.343C69.995 5.15101 69.8684 4.89899 69.8506 4.58752H70.3624C70.3939 4.88948 70.5645 5.09395 70.8753 5.19856C70.9889 5.23423 71.103 5.25147 71.213 5.25147C71.3253 5.25147 71.4287 5.24493 71.525 5.23126C71.6213 5.21818 71.7164 5.1944 71.8074 5.15933C72.0184 5.07552 72.123 4.93406 72.123 4.73196C72.123 4.59584 72.0695 4.49182 71.9619 4.4199C71.8549 4.34738 71.7206 4.28854 71.5589 4.24277C71.3966 4.197 71.2201 4.15539 71.0293 4.11795C70.8385 4.0805 70.6625 4.02878 70.4997 3.9634C70.3386 3.89802 70.2037 3.80767 70.0955 3.69414C69.9885 3.58061 69.9344 3.4219 69.9344 3.221C69.9344 2.9232 70.0438 2.69198 70.2595 2.52733C70.4777 2.36328 70.7981 2.28125 71.2231 2.28125C71.6261 2.28125 71.9441 2.37695 72.1765 2.57013C72.3691 2.7318 72.4808 2.94757 72.5117 3.21446H72.0118V3.21386Z" fill="#3D3D46"/>
<path d="M73.5328 5.619V2.76648H72.8623V2.33257H73.5328V1.15625H74.0256V2.33257H74.781V2.76648H74.0256V5.619H73.5328Z" fill="#3D3D46"/>
<path d="M75.2565 2.33325H75.7499V5.61968H75.2565V2.33325ZM75.7683 1.78105H75.2363V1.13672H75.7683V1.78105Z" fill="#3D3D46"/>
<path d="M76.8916 5.619V2.76648H76.2217V2.33257H76.8916V1.15625H77.3849V2.33257H78.1404V2.76648H77.3849V5.619H76.8916Z" fill="#3D3D46"/>
<path d="M80.987 5.61847V5.1061C80.8687 5.26421 80.7237 5.39735 80.5531 5.50731C80.3825 5.61668 80.1875 5.67137 79.9682 5.67137C79.7488 5.67137 79.5604 5.64105 79.4029 5.57983C79.2448 5.51801 79.1069 5.42648 78.9898 5.30344C78.717 5.03655 78.582 4.68348 78.582 4.2454V2.33203H79.0742V4.23173C79.0742 4.53428 79.1604 4.77501 79.331 4.95452C79.5016 5.13463 79.7233 5.22438 79.9937 5.22438C80.2701 5.22438 80.5043 5.13225 80.6975 4.94858C80.8913 4.76015 80.9876 4.51883 80.9876 4.22579V2.33203H81.4797V5.61847H80.987Z" fill="#3D3D46"/>
<path d="M82.6214 5.619V2.76648H81.9521V2.33257H82.6214V1.15625H83.1154V2.33257H83.8709V2.76648H83.1154V5.619H82.6214Z" fill="#3D3D46"/>
<path d="M85.706 2.72705C85.4041 2.72705 85.1497 2.82096 84.9434 3.00939C84.752 3.18949 84.6337 3.42369 84.5891 3.71256H86.8241C86.7801 3.42369 86.6618 3.18949 86.4686 3.00939C86.2636 2.82096 86.0092 2.72705 85.706 2.72705ZM85.7453 5.22472C86.1887 5.22472 86.5055 5.04045 86.6987 4.67252H87.2384C87.1249 4.97091 86.9436 5.21164 86.6951 5.3959C86.4478 5.57957 86.1298 5.67171 85.7399 5.67171C85.2442 5.67171 84.8412 5.50765 84.5303 5.17895C84.2283 4.85916 84.0762 4.45794 84.0762 3.97648C84.0762 3.49026 84.2212 3.08963 84.5101 2.77401C84.8168 2.4453 85.215 2.28125 85.706 2.28125C86.197 2.28125 86.5964 2.4453 86.9031 2.77401C87.192 3.08963 87.3365 3.49026 87.3365 3.97648V4.17263H84.5826C84.6177 4.47518 84.7383 4.72483 84.9434 4.92157C85.1544 5.12426 85.4213 5.22472 85.7453 5.22472Z" fill="#3D3D46"/>
<path d="M90.6222 1.43204C90.3898 1.43204 90.2157 1.48375 90.0997 1.58659C89.9827 1.68942 89.9256 1.85466 89.9256 2.08232V2.33256H90.6882V2.76647H89.9256V5.61899H89.4322V2.76587H88.8682V2.33196H89.4322V2.04308C89.4322 1.68347 89.5404 1.41362 89.755 1.2347C89.9696 1.05519 90.2668 0.964844 90.649 0.964844H90.6882V1.43204H90.6222Z" fill="#3D3D46"/>
<path d="M92.5185 5.22591C92.874 5.22591 93.1533 5.10346 93.3602 4.85797C93.5563 4.62616 93.655 4.33193 93.655 3.97767C93.655 3.62281 93.5563 3.32918 93.3602 3.09677C93.1533 2.85128 92.874 2.72883 92.5185 2.72883C92.1643 2.72883 91.8837 2.85187 91.6768 3.09677C91.4795 3.32918 91.3808 3.62281 91.3808 3.97767C91.3808 4.33252 91.4795 4.62616 91.6768 4.85797C91.8831 5.10286 92.1643 5.22591 92.5185 5.22591ZM92.5185 2.28125C93.0095 2.28125 93.4077 2.4453 93.7156 2.77401C94.0045 3.08963 94.1496 3.49085 94.1496 3.97707C94.1496 4.46329 94.0045 4.86451 93.7156 5.17954C93.4077 5.50824 93.0095 5.6723 92.5185 5.6723C92.0275 5.6723 91.6293 5.50824 91.3226 5.17954C91.0325 4.86392 90.8887 4.46329 90.8887 3.97707C90.8887 3.49085 91.0325 3.08963 91.3226 2.77401C91.6293 2.4453 92.0275 2.28125 92.5185 2.28125Z" fill="#3D3D46"/>
<path d="M96.471 2.27734V2.7701H96.4115C96.0573 2.7701 95.7672 2.91276 95.5443 3.19747C95.3339 3.46971 95.2287 3.79306 95.2287 4.16991V5.61609H94.7354V2.32965H95.2287V3.13803C95.3345 2.79685 95.561 2.54482 95.9123 2.38255C96.0573 2.31241 96.2314 2.27734 96.4383 2.27734H96.471Z" fill="#3D3D46"/>
<path d="M42.6589 7.46094V9.39274H40.1279V7.46094H39.6357V11.8125H40.1279V9.87301H42.6589V11.8125H43.1516V7.46094H42.6589Z" fill="#3D3D46"/>
<path d="M45.413 8.91846C45.1105 8.91846 44.8561 9.01237 44.6504 9.20198C44.4573 9.38149 44.339 9.61509 44.2956 9.90456H46.5305C46.4865 9.61569 46.3688 9.38149 46.1757 9.20198C45.9694 9.01237 45.7156 8.91846 45.413 8.91846ZM45.4523 11.4161C45.8945 11.4161 46.2131 11.2319 46.4051 10.8633H46.9442C46.8301 11.1623 46.6494 11.4025 46.4021 11.5873C46.1543 11.771 45.8357 11.8631 45.4457 11.8631C44.9506 11.8631 44.5476 11.6991 44.2367 11.3692C43.9342 11.0506 43.7832 10.6493 43.7832 10.1673C43.7832 9.68107 43.9282 9.28104 44.2165 8.96482C44.5232 8.63671 44.9227 8.47266 45.413 8.47266C45.9034 8.47266 46.3023 8.63671 46.609 8.96482C46.8985 9.28104 47.0429 9.68107 47.0429 10.1673V10.3646H44.289C44.3247 10.6666 44.4442 10.9162 44.6504 11.1136C44.8608 11.3151 45.1277 11.4161 45.4523 11.4161Z" fill="#3D3D46"/>
<path d="M49.0339 11.4161C49.3888 11.4161 49.6693 11.2937 49.875 11.047C50.0729 10.8152 50.171 10.5221 50.171 10.1673C50.171 9.81243 50.0723 9.51821 49.875 9.28698C49.6693 9.0415 49.3888 8.91905 49.0339 8.91905C48.6832 8.91905 48.3979 9.0415 48.1792 9.28698C47.9735 9.5188 47.8701 9.81243 47.8701 10.1673C47.8701 10.5221 47.9735 10.8158 48.1792 11.047C48.3979 11.2937 48.6832 11.4161 49.0339 11.4161ZM50.1443 11.2842C49.8815 11.6699 49.4892 11.8631 48.968 11.8631C48.4948 11.8631 48.109 11.6985 47.8118 11.3692C47.5224 11.0452 47.3779 10.6452 47.3779 10.1673C47.3779 9.68999 47.5224 9.28877 47.8118 8.96482C48.109 8.63671 48.5055 8.47266 49.0006 8.47266C49.4958 8.47266 49.8768 8.66762 50.1443 9.05755V8.52496H50.6376V11.8114H50.1443V11.2842Z" fill="#3D3D46"/>
<path d="M51.4268 7.21094H51.9195V11.8122H51.4268V7.21094Z" fill="#3D3D46"/>
<path d="M53.0625 7.34766V8.52516H52.3926V8.95907H53.0625V11.8104H53.5558V8.95907H54.3119V8.52516H53.5558V7.34766H53.0625Z" fill="#3D3D46"/>
<path d="M55.2777 7.21094V9.03812C55.3954 8.88001 55.5405 8.74568 55.7111 8.6375C55.8817 8.52753 56.0766 8.47344 56.2954 8.47344C56.5147 8.47344 56.7031 8.50435 56.8612 8.56439C57.0187 8.6262 57.1566 8.71834 57.2749 8.84019C57.5466 9.10826 57.6827 9.46015 57.6827 9.89881V11.811H57.1899V9.91189C57.1899 9.60994 57.1043 9.3692 56.9331 9.18969C56.7626 9.00959 56.5403 8.91984 56.2692 8.91984C55.9928 8.91984 55.7586 9.01137 55.5654 9.19564C55.3728 9.38466 55.2766 9.62598 55.2766 9.91902V11.8116H54.7832V7.21153H55.2777V7.21094Z" fill="#3D3D46"/>
<path d="M61.223 11.4161C61.5785 11.4161 61.8578 11.2937 62.0635 11.047C62.2608 10.8152 62.3595 10.5221 62.3595 10.1673C62.3595 9.81243 62.2608 9.51821 62.0635 9.28698C61.8578 9.0415 61.5785 8.91905 61.223 8.91905C60.8723 8.91905 60.587 9.0415 60.3677 9.28698C60.162 9.5188 60.0586 9.81243 60.0586 10.1673C60.0586 10.5221 60.162 10.8158 60.3677 11.047C60.587 11.2937 60.8729 11.4161 61.223 11.4161ZM62.3333 11.2842C62.0712 11.6699 61.6783 11.8631 61.157 11.8631C60.6833 11.8631 60.2981 11.6985 60.0009 11.3692C59.7108 11.0452 59.5664 10.6452 59.5664 10.1673C59.5664 9.68999 59.7108 9.28877 60.0009 8.96482C60.2981 8.63671 60.6952 8.47266 61.1897 8.47266C61.6854 8.47266 62.0665 8.66762 62.3333 9.05755V8.52496H62.8267V11.8114H62.3333V11.2842Z" fill="#3D3D46"/>
<path d="M63.9871 8.52496V9.03734C64.1042 8.87923 64.2492 8.74489 64.421 8.63671C64.5916 8.52675 64.7866 8.47266 65.0059 8.47266C65.2241 8.47266 65.4137 8.50357 65.57 8.5636C65.7281 8.62542 65.866 8.71755 65.9843 8.8394C66.2559 9.10748 66.3921 9.45936 66.3921 9.89803V11.8102H65.8987V9.9111C65.8987 9.60915 65.8137 9.36842 65.6431 9.18891C65.4725 9.0088 65.2508 8.91905 64.9792 8.91905C64.7028 8.91905 64.4686 9.01059 64.2754 9.19485C64.0828 9.38387 63.9865 9.6252 63.9865 9.91824V11.8108H63.4932V8.52556H63.9871V8.52496Z" fill="#3D3D46"/>
<path d="M68.4747 11.4169C68.8302 11.4169 69.1107 11.2945 69.3164 11.0478C69.5137 10.816 69.6124 10.5229 69.6124 10.1681C69.6124 9.81322 69.5137 9.51899 69.3164 9.28777C69.1107 9.04228 68.8302 8.91984 68.4747 8.91984C68.124 8.91984 67.8399 9.04228 67.62 9.28777C67.4143 9.51959 67.3109 9.81322 67.3109 10.1681C67.3109 10.5229 67.4143 10.8166 67.62 11.0478C67.8393 11.2945 68.124 11.4169 68.4747 11.4169ZM69.5857 11.285C69.3235 11.6707 68.9306 11.8639 68.4093 11.8639C67.9356 11.8639 67.5504 11.6992 67.2532 11.37C66.9632 11.046 66.8193 10.646 66.8193 10.1681C66.8193 9.69077 66.9632 9.28955 67.2532 8.96561C67.5504 8.6375 67.9463 8.47344 68.442 8.47344C68.9378 8.47344 69.3188 8.66841 69.5857 9.05833V7.21094H70.079V11.8122H69.5857V11.285Z" fill="#3D3D46"/>
<path d="M74.371 11.381C74.6819 11.381 74.9547 11.3025 75.1895 11.145C75.4243 10.9875 75.5984 10.7753 75.712 10.5078H76.2309C76.087 10.9203 75.8475 11.2437 75.5158 11.4803C75.1604 11.7353 74.7413 11.8625 74.2598 11.8625C73.6238 11.8625 73.1091 11.6449 72.7144 11.2104C72.3429 10.7955 72.1562 10.2689 72.1562 9.63406C72.1562 8.99865 72.3429 8.4732 72.7144 8.05652C73.1091 7.62261 73.6232 7.40625 74.2598 7.40625C74.7419 7.40625 75.161 7.53345 75.5158 7.78667C75.8481 8.02383 76.087 8.34778 76.2309 8.7597H75.712C75.5984 8.49281 75.4243 8.28061 75.1895 8.1231C74.9547 7.96558 74.6819 7.88593 74.371 7.88593C74.0601 7.88593 73.8022 7.9317 73.5953 8.02205C73.3884 8.11061 73.2167 8.23484 73.0764 8.39295C72.7917 8.71334 72.649 9.12704 72.649 9.63525C72.649 10.1435 72.7917 10.5578 73.0764 10.8775C73.3736 11.2128 73.8057 11.381 74.371 11.381Z" fill="#3D3D46"/>
<path d="M78.2468 11.4161C78.6023 11.4161 78.8816 11.2937 79.0885 11.047C79.2858 10.8152 79.3845 10.5221 79.3845 10.1673C79.3845 9.81243 79.2858 9.51821 79.0885 9.28698C78.8816 9.0415 78.6023 8.91905 78.2468 8.91905C77.8961 8.91905 77.612 9.0415 77.3921 9.28698C77.1864 9.5188 77.083 9.81243 77.083 10.1673C77.083 10.5221 77.1864 10.8158 77.3921 11.047C77.612 11.2937 77.8961 11.4161 78.2468 11.4161ZM79.3578 11.2842C79.0944 11.6699 78.7015 11.8631 78.1814 11.8631C77.7077 11.8631 77.3225 11.6985 77.0241 11.3692C76.7353 11.0452 76.5908 10.6452 76.5908 10.1673C76.5908 9.68999 76.7347 9.28877 77.0241 8.96482C77.3225 8.63671 77.7184 8.47266 78.2141 8.47266C78.7087 8.47266 79.0909 8.66762 79.3578 9.05755V8.52496H79.8511V11.8114H79.3578V11.2842Z" fill="#3D3D46"/>
<path d="M82.3724 8.47266V8.96482H82.3117C81.9575 8.96482 81.6686 9.10748 81.4445 9.3916C81.2341 9.66383 81.1289 9.98838 81.1289 10.3652V11.8108H80.6367V8.52556H81.1289V9.33335C81.2347 8.99216 81.4623 8.73954 81.8124 8.57787C81.9575 8.50773 82.1328 8.47325 82.3385 8.47325H82.3724V8.47266Z" fill="#3D3D46"/>
<path d="M84.1849 8.91846C83.8818 8.91846 83.6274 9.01237 83.4223 9.20198C83.2297 9.38149 83.1102 9.61509 83.0668 9.90456H85.3018C85.2578 9.61569 85.1395 9.38149 84.9463 9.20198C84.7413 9.01237 84.4869 8.91846 84.1849 8.91846ZM84.2236 11.4161C84.6658 11.4161 84.9838 11.2319 85.177 10.8633H85.7167C85.602 11.1623 85.4219 11.4025 85.1734 11.5873C84.9261 11.771 84.6069 11.8631 84.2182 11.8631C83.7225 11.8631 83.3195 11.6991 83.0086 11.3692C82.7054 11.0506 82.5557 10.6493 82.5557 10.1673C82.5557 9.68107 82.6995 9.28104 82.9896 8.96482C83.2951 8.63671 83.6945 8.47266 84.1855 8.47266C84.6753 8.47266 85.0735 8.63671 85.3814 8.96482C85.6703 9.28104 85.8154 9.68107 85.8154 10.1673V10.3646H83.0603C83.0954 10.6666 83.216 10.9162 83.4223 11.1136C83.6315 11.3151 83.8996 11.4161 84.2236 11.4161Z" fill="#3D3D46"/>
<path d="M87.793 7.46094V11.8125H90.9938V11.3382H88.2863V9.87301H90.7043V9.39274H88.2863V7.93349H90.9938V7.46094H87.793Z" fill="#3D3D46"/>
<path d="M93.6123 8.52734L92.7718 9.76964L91.9242 8.52734H91.2923L92.4823 10.1174L91.2139 11.8126H91.838L92.7718 10.4722L93.6979 11.8126H94.3297L93.0535 10.1174L94.2435 8.52734H93.6123Z" fill="#3D3D46"/>
<path d="M96.0905 11.4161C96.3009 11.4161 96.4864 11.3573 96.6487 11.2378C96.8109 11.1207 96.9298 10.9674 97.0041 10.7783H97.5361C97.4362 11.1029 97.2514 11.3632 96.9845 11.5606C96.7033 11.7621 96.3717 11.8631 95.9859 11.8631C95.5032 11.8631 95.1104 11.6991 94.809 11.3692C94.5154 11.0506 94.3691 10.6493 94.3691 10.1673C94.3691 9.68523 94.5154 9.2852 94.809 8.96482C95.1109 8.63671 95.5032 8.47266 95.9859 8.47266C96.3711 8.47266 96.7033 8.57311 96.9845 8.77402C97.2514 8.97195 97.4362 9.2323 97.5361 9.55565H97.0041C96.9298 9.36842 96.8115 9.21447 96.6487 9.09618C96.4864 8.97849 96.3003 8.91905 96.0905 8.91905C95.8807 8.91905 95.7018 8.95174 95.5556 9.01772C95.4081 9.08251 95.2851 9.17345 95.1829 9.28698C94.9695 9.52296 94.8613 9.81778 94.8613 10.1673C94.8613 10.5186 94.9695 10.8116 95.1829 11.047C95.4016 11.2937 95.7036 11.4161 96.0905 11.4161Z" fill="#3D3D46"/>
<path d="M99.508 8.91846C99.2048 8.91846 98.9504 9.01237 98.7454 9.20198C98.5528 9.38149 98.4345 9.61509 98.3911 9.90456H100.625C100.582 9.61569 100.464 9.38149 100.271 9.20198C100.064 9.01237 99.8093 8.91846 99.508 8.91846ZM99.5472 11.4161C99.9894 11.4161 100.307 11.2319 100.501 10.8633H101.039C100.926 11.1623 100.744 11.4025 100.497 11.5873C100.25 11.771 99.9306 11.8631 99.5407 11.8631C99.0461 11.8631 98.6431 11.6991 98.3311 11.3692C98.0291 11.0506 97.877 10.6493 97.877 10.1673C97.877 9.68107 98.022 9.28104 98.3109 8.96482C98.6188 8.63671 99.017 8.47266 99.508 8.47266C99.999 8.47266 100.397 8.63671 100.704 8.96482C100.994 9.28104 101.138 9.68107 101.138 10.1673V10.3646H98.384C98.419 10.6666 98.5397 10.9162 98.7448 11.1136C98.9552 11.3151 99.2221 11.4161 99.5472 11.4161Z" fill="#3D3D46"/>
<path d="M101.678 7.21094H102.17V11.8122H101.678V7.21094Z" fill="#3D3D46"/>
<path d="M102.962 7.21094H103.455V11.8122H102.962V7.21094Z" fill="#3D3D46"/>
<path d="M105.667 8.91846C105.365 8.91846 105.11 9.01237 104.904 9.20198C104.713 9.38149 104.593 9.61509 104.55 9.90456H106.784C106.741 9.61569 106.623 9.38149 106.429 9.20198C106.223 9.01237 105.97 8.91846 105.667 8.91846ZM105.707 11.4161C106.148 11.4161 106.466 11.2319 106.659 10.8633H107.199C107.086 11.1623 106.903 11.4025 106.656 11.5873C106.409 11.771 106.091 11.8631 105.701 11.8631C105.205 11.8631 104.802 11.6991 104.491 11.3692C104.188 11.0506 104.038 10.6493 104.038 10.1673C104.038 9.68107 104.182 9.28104 104.471 8.96482C104.778 8.63671 105.178 8.47266 105.667 8.47266C106.158 8.47266 106.557 8.63671 106.864 8.96482C107.153 9.28104 107.298 9.68107 107.298 10.1673V10.3646H104.544C104.579 10.6666 104.7 10.9162 104.905 11.1136C105.115 11.3151 105.382 11.4161 105.707 11.4161Z" fill="#3D3D46"/>
<path d="M108.329 8.52496V9.03734C108.448 8.87923 108.593 8.74489 108.763 8.63671C108.934 8.52675 109.129 8.47266 109.349 8.47266C109.568 8.47266 109.756 8.50357 109.913 8.5636C110.072 8.62542 110.21 8.71755 110.327 8.8394C110.599 9.10748 110.735 9.45936 110.735 9.89803V11.8102H110.243V9.9111C110.243 9.60915 110.156 9.36842 109.986 9.18891C109.814 9.0088 109.594 8.91905 109.322 8.91905C109.046 8.91905 108.811 9.01059 108.618 9.19485C108.426 9.38387 108.329 9.6252 108.329 9.91824V11.8108H107.836V8.52556H108.329V8.52496Z" fill="#3D3D46"/>
<path d="M113.008 11.4161C113.218 11.4161 113.405 11.3573 113.566 11.2378C113.728 11.1207 113.847 10.9674 113.921 10.7783H114.453C114.353 11.1029 114.169 11.3632 113.902 11.5606C113.621 11.7621 113.288 11.8631 112.903 11.8631C112.42 11.8631 112.028 11.6991 111.726 11.3692C111.433 11.0506 111.285 10.6493 111.285 10.1673C111.285 9.68523 111.433 9.2852 111.726 8.96482C112.028 8.63671 112.42 8.47266 112.903 8.47266C113.287 8.47266 113.621 8.57311 113.902 8.77402C114.169 8.97195 114.353 9.2323 114.453 9.55565H113.921C113.847 9.36842 113.729 9.21447 113.566 9.09618C113.405 8.97849 113.218 8.91905 113.008 8.91905C112.797 8.91905 112.619 8.95174 112.473 9.01772C112.325 9.08251 112.202 9.17345 112.101 9.28698C111.887 9.52296 111.779 9.81778 111.779 10.1673C111.779 10.5186 111.887 10.8116 112.101 11.047C112.319 11.2937 112.622 11.4161 113.008 11.4161Z" fill="#3D3D46"/>
<path d="M116.425 8.91846C116.122 8.91846 115.867 9.01237 115.662 9.20198C115.47 9.38149 115.351 9.61509 115.307 9.90456H117.542C117.498 9.61569 117.381 9.38149 117.187 9.20198C116.981 9.01237 116.726 8.91846 116.425 8.91846ZM116.464 11.4161C116.906 11.4161 117.224 11.2319 117.417 10.8633H117.956C117.842 11.1623 117.661 11.4025 117.414 11.5873C117.167 11.771 116.847 11.8631 116.457 11.8631C115.963 11.8631 115.559 11.6991 115.249 11.3692C114.946 11.0506 114.795 10.6493 114.795 10.1673C114.795 9.68107 114.94 9.28104 115.229 8.96482C115.534 8.63671 115.934 8.47266 116.425 8.47266C116.916 8.47266 117.314 8.63671 117.621 8.96482C117.911 9.28104 118.055 9.68107 118.055 10.1673V10.3646H115.301C115.336 10.6666 115.456 10.9162 115.662 11.1136C115.872 11.3151 116.139 11.4161 116.464 11.4161Z" fill="#3D3D46"/>
</svg>
