<svg width="24" height="24" viewBox="0 0 24 24" fill="none" xmlns="http://www.w3.org/2000/svg">
<rect width="24" height="24" rx="4" fill="#FF5B64"/>
<path d="M12.8038 12L16.8456 7.3209C16.9134 7.24314 16.8564 7.125 16.7517 7.125H15.523C15.4506 7.125 15.3813 7.1564 15.3336 7.21024L12 11.0699L8.66642 7.21024C8.62023 7.1564 8.55094 7.125 8.47703 7.125H7.2483C7.1436 7.125 7.08663 7.24314 7.15438 7.3209L11.1962 12L7.15438 16.6791C7.1392 16.6964 7.12947 16.7176 7.12633 16.7402C7.12318 16.7627 7.12677 16.7857 7.13666 16.8063C7.14655 16.8269 7.16233 16.8444 7.18212 16.8565C7.20191 16.8687 7.22488 16.8751 7.2483 16.875H8.47703C8.5494 16.875 8.61869 16.8436 8.66642 16.7898L12 12.9301L15.3336 16.7898C15.3798 16.8436 15.4491 16.875 15.523 16.875H16.7517C16.8564 16.875 16.9134 16.7569 16.8456 16.6791L12.8038 12Z" fill="white"/>
</svg>
