<svg width="70" height="24" viewBox="0 0 70 24" fill="none" xmlns="http://www.w3.org/2000/svg">
  <rect x="0.5" y="0.5" width="69" height="23" rx="11.5" fill="#CFCFCF" fill-opacity="0.1"/>
  <path d="M16.734 10.9573V10.8573V7.80931V7.70931H16.834H19.4706L19.8305 7.35734C19.8306 7.35729 19.8306 7.35723 19.8307 7.35718C20.3426 6.85399 21.0299 6.56941 21.7477 6.56356C22.4655 6.5577 23.1575 6.83109 23.6775 7.32596C24.1976 7.82084 24.5049 8.49846 24.5346 9.2157C24.5643 9.93292 24.314 10.6336 23.8367 11.1698L16.734 10.9573ZM16.734 10.9573H16.834H19.4712L19.8312 11.3093C19.8312 11.3093 19.8313 11.3094 19.8313 11.3094C20.2101 11.6817 20.6883 11.9368 21.2085 12.0439L21.2086 12.044L21.8845 12.1821M16.734 10.9573L21.9593 12.0953M23.4413 16.4595C23.5109 16.6506 23.6535 16.8063 23.8378 16.8923C24.0221 16.9783 24.233 16.9875 24.4242 16.9179C24.6153 16.8484 24.771 16.7058 24.857 16.5215C24.9429 16.3372 24.9522 16.1262 24.8826 15.9351L24.8826 15.9351L23.3477 11.7198L23.8367 11.1698L23.5353 16.4253M23.4413 16.4595L23.5353 16.4253M23.4413 16.4595L23.4413 16.4595L23.5353 16.4253M23.4413 16.4595L21.8845 12.1821M23.5353 16.4253L21.9593 12.0953M21.8845 12.1821L21.9393 12.1933L21.9593 12.0953M21.8845 12.1821L21.8653 12.1295L21.9593 12.0953M15.5007 10.9573H15.6007V10.8573V7.80931V7.70931H15.5007H14.1673H14.0673V7.80931V10.8573V10.9573H14.1673H15.5007ZM18.9673 6.57598H19.0082L19.0374 6.54731C19.7592 5.83823 20.7282 5.43741 21.74 5.42948C22.7518 5.42156 23.727 5.80715 24.4598 6.50484C25.1926 7.20252 25.6256 8.15769 25.6673 9.16863C25.709 10.1796 25.3561 11.1671 24.6833 11.9228L24.6436 11.9674L24.664 12.0235L25.9474 15.5475L25.9476 15.5483C26.0353 15.7832 26.0755 16.0332 26.066 16.2838C26.0566 16.5344 25.9976 16.7807 25.8925 17.0083C25.7874 17.236 25.6383 17.4407 25.4538 17.6105C25.2692 17.7803 25.0529 17.9118 24.8172 17.9976C24.5816 18.0834 24.3313 18.1216 24.0807 18.1102C23.8302 18.0988 23.5845 18.0378 23.3576 17.931C23.1307 17.8241 22.9273 17.6733 22.759 17.4874C22.5906 17.3016 22.4608 17.0842 22.3769 16.8479L22.3766 16.8471L21.0553 13.2178L21.0362 13.1653L20.9814 13.154C20.2475 13.0034 19.5727 12.6441 19.038 12.1193L19.0089 12.0906H18.968H18.9673H14.1673C13.8402 12.0906 13.5265 11.9607 13.2952 11.7294C13.0639 11.4981 12.934 11.1844 12.934 10.8573V7.80931C12.934 7.48221 13.0639 7.16851 13.2952 6.93721C13.5265 6.70592 13.8402 6.57598 14.1673 6.57598H18.9673ZM20.834 8.76664H22.834C22.9843 8.76664 23.1284 8.82635 23.2347 8.93262C23.341 9.03889 23.4007 9.18302 23.4007 9.33331C23.4007 9.4836 23.341 9.62773 23.2347 9.734C23.1284 9.84027 22.9843 9.89998 22.834 9.89998H20.834C20.6837 9.89998 20.5396 9.84027 20.4333 9.734C20.327 9.62773 20.2673 9.4836 20.2673 9.33331C20.2673 9.18302 20.327 9.03889 20.4333 8.93262C20.5396 8.82635 20.6837 8.76664 20.834 8.76664Z" fill="#9292A3" stroke="white" stroke-width="0.2"/>
  <path d="M40.572 17H39.2V12.59H34.132V17H32.76V7.074H34.132V11.316H39.2V7.074H40.572V17ZM42.4676 15.194C42.4676 14.6153 42.6542 14.1533 43.0276 13.808C43.4009 13.4533 43.8956 13.234 44.5116 13.15L46.3316 12.884C46.6769 12.8373 46.8496 12.6693 46.8496 12.38C46.8496 12.0253 46.7282 11.736 46.4856 11.512C46.2429 11.288 45.8789 11.176 45.3936 11.176C44.9456 11.176 44.5909 11.302 44.3296 11.554C44.0682 11.7967 43.9142 12.1233 43.8676 12.534L42.6076 12.24C42.6729 11.596 42.9669 11.0733 43.4896 10.672C44.0122 10.2613 44.6376 10.056 45.3656 10.056C46.3176 10.056 47.0222 10.2893 47.4796 10.756C47.9369 11.2133 48.1656 11.8013 48.1656 12.52V15.894C48.1656 16.2953 48.1936 16.664 48.2496 17H46.9616C46.9149 16.72 46.8916 16.4167 46.8916 16.09C46.7049 16.3887 46.4296 16.65 46.0656 16.874C45.7109 17.098 45.2629 17.21 44.7216 17.21C44.0589 17.21 43.5176 17.014 43.0976 16.622C42.6776 16.2207 42.4676 15.7447 42.4676 15.194ZM44.9036 16.104C45.4916 16.104 45.9629 15.9453 46.3176 15.628C46.6722 15.3107 46.8496 14.8067 46.8496 14.116V13.808L44.7916 14.116C44.4929 14.1627 44.2549 14.27 44.0776 14.438C43.9002 14.606 43.8116 14.8347 43.8116 15.124C43.8116 15.3853 43.9096 15.614 44.1056 15.81C44.3109 16.006 44.5769 16.104 44.9036 16.104ZM51.5177 17H50.2157V10.266H51.5177V17ZM50.1877 8.39C50.0104 8.20333 49.9217 7.97933 49.9217 7.718C49.9217 7.45667 50.0104 7.23267 50.1877 7.046C50.3744 6.85933 50.5984 6.766 50.8597 6.766C51.121 6.766 51.345 6.85933 51.5317 7.046C51.7184 7.22333 51.8117 7.44733 51.8117 7.718C51.8117 7.97933 51.7184 8.20333 51.5317 8.39C51.345 8.56733 51.121 8.656 50.8597 8.656C50.5984 8.656 50.3744 8.56733 50.1877 8.39ZM57.4947 10.196V11.596C57.2987 11.568 57.1074 11.554 56.9207 11.554C55.6887 11.554 55.0727 12.2447 55.0727 13.626V17H53.7567V10.266H55.0447V11.442C55.4554 10.5833 56.1274 10.154 57.0607 10.154C57.2101 10.154 57.3547 10.168 57.4947 10.196Z" fill="#C0C0C0"/>
  <rect x="0.5" y="0.5" width="69" height="23" rx="11.5" stroke="#C0C0C0"/>
</svg>