<svg width="22" height="22" viewBox="0 0 22 22" fill="none" xmlns="http://www.w3.org/2000/svg">
<path d="M21.1829 10.8364L12.1267 1.7848L11.5196 1.17777C11.3813 1.04037 11.1943 0.963257 10.9993 0.963257C10.8044 0.963257 10.6173 1.04037 10.479 1.17777L0.815722 10.8364C0.673998 10.9775 0.561991 11.1457 0.486313 11.3308C0.410635 11.516 0.372819 11.7145 0.375097 11.9145C0.384472 12.7395 1.07119 13.3981 1.89619 13.3981H2.89228V21.0317H19.1063V13.3981H20.1235C20.5243 13.3981 20.9017 13.241 21.1853 12.9575C21.3249 12.8183 21.4355 12.6528 21.5108 12.4705C21.586 12.2883 21.6243 12.0929 21.6235 11.8957C21.6235 11.4973 21.4665 11.12 21.1829 10.8364ZM12.3118 19.3442H9.68682V14.5629H12.3118V19.3442ZM17.4188 11.7106V19.3442H13.8118V14.0004C13.8118 13.4825 13.3923 13.0629 12.8743 13.0629H9.12432C8.60635 13.0629 8.18682 13.4825 8.18682 14.0004V19.3442H4.57978V11.7106H2.32978L11.0017 3.04574L11.5431 3.58714L19.6712 11.7106H17.4188Z" fill="#54B2D3"/>
</svg>
