<svg width="24" height="24" viewBox="0 0 24 24" fill="none" xmlns="http://www.w3.org/2000/svg">
<path d="M0 12C0 5.37258 5.37258 0 12 0C18.6274 0 24 5.37258 24 12C24 18.6274 18.6274 24 12 24C5.37258 24 0 18.6274 0 12Z" fill="#ECEDF0"/>
<path d="M17.3531 8.51094L13.9906 5.14688C13.8969 5.05313 13.7688 5 13.6359 5H7C6.72344 5 6.5 5.22344 6.5 5.5V18.5C6.5 18.7766 6.72344 19 7 19H17C17.2766 19 17.5 18.7766 17.5 18.5V8.86406C17.5 8.73125 17.4469 8.60469 17.3531 8.51094ZM10.25 10.2812C10.5953 10.2812 10.875 10.5609 10.875 10.9062C10.875 11.2516 10.5953 11.5312 10.25 11.5312C9.90469 11.5312 9.625 11.2516 9.625 10.9062C9.625 10.5609 9.90469 10.2812 10.25 10.2812ZM14.875 14.875H9.125C9.02031 14.875 8.9625 14.7547 9.02656 14.6734L10.5859 12.6859C10.5976 12.671 10.6126 12.6589 10.6296 12.6506C10.6467 12.6423 10.6654 12.638 10.6844 12.638C10.7033 12.638 10.7221 12.6423 10.7391 12.6506C10.7562 12.6589 10.7711 12.671 10.7828 12.6859L11.425 13.5047L12.6406 11.9547C12.6523 11.9397 12.6673 11.9277 12.6843 11.9194C12.7014 11.911 12.7201 11.9067 12.7391 11.9067C12.758 11.9067 12.7768 11.911 12.7938 11.9194C12.8109 11.9277 12.8258 11.9397 12.8375 11.9547L14.9703 14.6734C15.0375 14.7547 14.9781 14.875 14.875 14.875ZM13.4062 9.09375V6.15313L16.3469 9.09375H13.4062Z" fill="#9292A3"/>
<path d="M12 23C5.92487 23 1 18.0751 1 12H-1C-1 19.1797 4.8203 25 12 25V23ZM23 12C23 18.0751 18.0751 23 12 23V25C19.1797 25 25 19.1797 25 12H23ZM12 1C18.0751 1 23 5.92487 23 12H25C25 4.8203 19.1797 -1 12 -1V1ZM12 -1C4.8203 -1 -1 4.8203 -1 12H1C1 5.92487 5.92487 1 12 1V-1Z" fill="#ECEDF0"/>
</svg>
