<svg width="16" height="16" viewBox="0 0 16 16" fill="none" xmlns="http://www.w3.org/2000/svg">
  <g clip-path="url(#clip0)">
    <path d="M15.5312 6.04578H13.774V4.28845C13.774 4.02954 13.5641 3.8197 13.3053 3.8197H11.548V2.0625C11.548 1.80359 11.3381 1.59375 11.0792 1.59375H0.46875C0.209839 1.59375 0 1.80359 0 2.0625V9.48242C0 9.74133 0.209839 9.95117 0.46875 9.95117H2.22595V11.7084C2.22595 11.9673 2.43579 12.1771 2.6947 12.1771H4.45203V13.9344C4.45203 14.1932 4.66187 14.4032 4.92078 14.4032H15.5312C15.7902 14.4032 16 14.1932 16 13.9344V6.51453C16 6.25562 15.7902 6.04578 15.5312 6.04578ZM0.9375 2.53125H10.6105V9.01367H0.9375V2.53125ZM3.16345 9.95117H11.0792C11.3381 9.95117 11.548 9.74133 11.548 9.48242V4.7572H12.8365V11.2397H3.16345V9.95117ZM15.0625 13.4657H5.38953V12.1772H13.3053C13.5642 12.1772 13.774 11.9673 13.774 11.7085V6.98328H15.0625V13.4657Z" fill="#9292A3"/>
  </g>
  <defs>
    <clipPath id="clip0">
      <rect width="16" height="16" fill="white"/>
    </clipPath>
  </defs>
</svg>
