<svg width="9" height="8" viewBox="0 0 9 8" fill="none" xmlns="http://www.w3.org/2000/svg">
<g clip-path="url(#clip0)">
<path d="M2.58314 6.50313C2.04947 6.50313 1.5748 6.16147 1.40247 5.6528L1.3908 5.61447C1.35014 5.4798 1.33314 5.36647 1.33314 5.25313V2.98047L0.52447 5.6798C0.42047 6.0768 0.65747 6.48847 1.05514 6.59813L6.20947 7.97847C6.2738 7.99513 6.33814 8.00313 6.40147 8.00313C6.73347 8.00313 7.0368 7.7828 7.1218 7.45813L7.42214 6.50313H2.58314Z" fill="white"/>
<path d="M3.50065 3.0013C3.86832 3.0013 4.16732 2.7023 4.16732 2.33463C4.16732 1.96697 3.86832 1.66797 3.50065 1.66797C3.13298 1.66797 2.83398 1.96697 2.83398 2.33463C2.83398 2.7023 3.13298 3.0013 3.50065 3.0013Z" fill="white"/>
<path d="M7.66732 0.667969H2.66732C2.20798 0.667969 1.83398 1.04197 1.83398 1.5013V5.16797C1.83398 5.6273 2.20798 6.0013 2.66732 6.0013H7.66732C8.12665 6.0013 8.50065 5.6273 8.50065 5.16797V1.5013C8.50065 1.04197 8.12665 0.667969 7.66732 0.667969ZM2.66732 1.33464H7.66732C7.75932 1.33464 7.83398 1.4093 7.83398 1.5013V3.86764L6.78098 2.63897C6.66932 2.50797 6.50765 2.43797 6.33398 2.43397C6.16132 2.43497 5.99932 2.51164 5.88865 2.6443L4.65065 4.1303L4.24732 3.72797C4.01932 3.49997 3.64832 3.49997 3.42065 3.72797L2.50065 4.64764V1.5013C2.50065 1.4093 2.57532 1.33464 2.66732 1.33464Z" fill="white"/>
</g>
<defs>
<clipPath id="clip0">
<rect width="8" height="8" fill="white" transform="translate(0.5)"/>
</clipPath>
</defs>
</svg>
