<svg width="14" height="14" viewBox="0 0 14 14" fill="none" xmlns="http://www.w3.org/2000/svg">
  <path d="M14 6.60742L7.48243 0.0898438V4.35962C5.52981 4.462 3.70858 5.27118 2.31561 6.66416C0.822363 8.15737 0 10.1427 0 12.2545V13.9071L0.794855 12.4582C2.035 10.1977 4.40896 8.79344 6.99021 8.79344C7.15389 8.79344 7.31845 8.79924 7.48243 8.81072V13.125L14 6.60742ZM6.99021 7.94633C4.67849 7.94633 2.51511 8.95236 1.03094 10.6502C1.75921 7.52819 4.56528 5.19561 7.90595 5.19561H8.32948V2.13483L12.802 6.60739L8.32948 11.08V8.05202L7.95802 8.006C7.63839 7.96643 7.31279 7.94633 6.99021 7.94633Z" fill="#9292A3"/>
</svg>
