<svg width="24" height="24" viewBox="0 0 24 24" fill="none" xmlns="http://www.w3.org/2000/svg">
<rect width="24" height="24" rx="12" fill="#ECEDF0"/>
<g clip-path="url(#clip0)">
<path d="M12.755 10.225C12.59 9.98 12.5 9.69 12.5 9.39V7C12.775 7 13 6.775 13 6.5C13 6.225 12.775 6 12.5 6H9.5C9.225 6 9 6.225 9 6.5C9 6.775 9.225 7 9.5 7V9.39C9.5 9.69 9.41 9.98 9.245 10.225L6.38 14.5C6.13 14.87 6 15.3 6 15.75C6 16.99 7.01 18 8.25 18H11.205C10.95 17.715 10.755 17.375 10.635 17H8.25C7.56 17 7 16.44 7 15.75C7 15.5 7.075 15.26 7.21 15.055L10.075 10.785C10.355 10.37 10.5 9.89 10.5 9.39V7H11.5V9.39C11.5 9.89 11.645 10.37 11.925 10.785L13.015 12.415L13.74 11.69L12.755 10.225Z" fill="#9292A3"/>
<path d="M16.125 11.5C15.6235 11.5 15.153 11.6955 14.7995 12.0495L12.0495 14.7995C11.6955 15.153 11.5 15.624 11.5 16.125C11.5 17.159 12.3415 18 13.375 18C13.8765 18 14.347 17.8045 14.701 17.4505L17.4505 14.701C17.8045 14.347 18 13.876 18 13.375C18 12.341 17.1585 11.5 16.125 11.5ZM13.9935 16.7435C13.8285 16.909 13.609 17 13.375 17C12.8925 17 12.5 16.6075 12.5 16.125C12.5 15.8915 12.591 15.6715 12.7565 15.5065L13.778 14.485L15.0155 15.7225L13.9935 16.7435ZM16.7435 13.9935L15.722 15.015L14.485 13.778L15.507 12.756C15.6715 12.591 15.891 12.5 16.125 12.5C16.6075 12.5 17 12.8925 17 13.375C17 13.6085 16.909 13.8285 16.7435 13.9935Z" fill="#9292A3"/>
</g>
<defs>
<clipPath id="clip0">
<rect width="12" height="12" fill="white" transform="translate(6 6)"/>
</clipPath>
</defs>
</svg>
