<svg xmlns="http://www.w3.org/2000/svg" fill="none" viewBox="0 0 12 12" height="12" width="12">
<g clip-path="url(#clip0)">
<path fill="white" d="M6.755 4.225C6.59 3.98 6.5 3.69 6.5 3.39V1C6.775 1 7 0.775 7 0.5C7 0.225 6.775 0 6.5 0H3.5C3.225 0 3 0.225 3 0.5C3 0.775 3.225 1 3.5 1V3.39C3.5 3.69 3.41 3.98 3.245 4.225L0.38 8.5C0.13 8.87 0 9.3 0 9.75C0 10.99 1.01 12 2.25 12H5.205C4.95 11.715 4.755 11.375 4.635 11H2.25C1.56 11 1 10.44 1 9.75C1 9.5 1.075 9.26 1.21 9.055L4.075 4.785C4.355 4.37 4.5 3.89 4.5 3.39V1H5.5V3.39C5.5 3.89 5.645 4.37 5.925 4.785L7.015 6.415L7.74 5.69L6.755 4.225Z"></path>
<path fill="white" d="M10.125 5.5C9.6235 5.5 9.153 5.6955 8.7995 6.0495L6.0495 8.79949C5.6955 9.15299 5.5 9.62399 5.5 10.125C5.5 11.159 6.3415 12 7.375 12C7.8765 12 8.347 11.8045 8.701 11.4505L11.4505 8.70099C11.8045 8.34699 12 7.87599 12 7.375C12 6.341 11.1585 5.5 10.125 5.5ZM7.9935 10.7435C7.8285 10.909 7.609 11 7.375 11C6.8925 11 6.5 10.6075 6.5 10.125C6.5 9.89149 6.591 9.67149 6.7565 9.50649L7.778 8.48499L9.0155 9.72249L7.9935 10.7435ZM10.7435 7.99349L9.722 9.01499L8.485 7.77799L9.507 6.756C9.6715 6.591 9.891 6.5 10.125 6.5C10.6075 6.5 11 6.8925 11 7.375C11 7.6085 10.909 7.8285 10.7435 7.99349Z"></path>
</g>
<defs>
<clipPath id="clip0">
<rect fill="white" height="12" width="12"></rect>
</clipPath>
</defs>
</svg>
