<svg width="22" height="18" viewBox="0 0 22 18" fill="none" xmlns="http://www.w3.org/2000/svg">
<path d="M21.4278 16.807L20.0098 11.8125V0.9375C20.0098 0.522656 19.6747 0.1875 19.2598 0.1875H2.75984C2.345 0.1875 2.00984 0.522656 2.00984 0.9375V11.8125L0.591872 16.807C0.416091 17.2969 0.777028 17.8125 1.29734 17.8125H20.7223C21.2427 17.8125 21.6036 17.2969 21.4278 16.807ZM3.69734 1.875H18.3223V11.1328H3.69734V1.875ZM9.04812 16.125L9.23797 15.2578H12.7606L12.9505 16.125H9.04812ZM14.2981 16.125L13.8505 14.093C13.8317 14.0062 13.7544 13.9453 13.6677 13.9453H8.33328C8.24422 13.9453 8.16922 14.0062 8.15047 14.093L7.70281 16.125H2.53953L3.53093 12.6328H18.4887L19.4802 16.125H14.2981Z" fill="#54B2D3"/>
</svg>
