<svg width="17" height="14" viewBox="0 0 17 14" fill="none" xmlns="http://www.w3.org/2000/svg">
<path d="M0 8.6C0 8.82091 0.179086 9 0.4 9H3.6C3.82091 9 4 8.82091 4 8.6V5.4C4 5.17909 3.82091 5 3.6 5H0.4C0.179086 5 0 5.17909 0 5.4V8.6ZM0 13.6C0 13.8209 0.179086 14 0.4 14H3.6C3.82091 14 4 13.8209 4 13.6V10.4C4 10.1791 3.82091 10 3.6 10H0.4C0.179086 10 0 10.1791 0 10.4V13.6ZM0 3.6C0 3.82091 0.179086 4 0.4 4H3.6C3.82091 4 4 3.82091 4 3.6V0.4C4 0.179086 3.82091 0 3.6 0H0.4C0.179086 0 0 0.179086 0 0.4V3.6ZM5 8.6C5 8.82091 5.17909 9 5.4 9H16.6C16.8209 9 17 8.82091 17 8.6V5.4C17 5.17909 16.8209 5 16.6 5H5.4C5.17909 5 5 5.17909 5 5.4V8.6ZM5 13.6C5 13.8209 5.17909 14 5.4 14H16.6C16.8209 14 17 13.8209 17 13.6V10.4C17 10.1791 16.8209 10 16.6 10H5.4C5.17909 10 5 10.1791 5 10.4V13.6ZM5.4 0C5.17909 0 5 0.179086 5 0.4V3.6C5 3.82091 5.17909 4 5.4 4H16.6C16.8209 4 17 3.82091 17 3.6V0.4C17 0.179086 16.8209 0 16.6 0H5.4Z"/>
</svg>
