<svg width="22" height="4" viewBox="0 0 22 4" fill="none" xmlns="http://www.w3.org/2000/svg">
<path d="M22 2H0.5V2.5H22V2Z" fill="white"/>
<path d="M11.25 3.5C11.9404 3.5 12.5 2.94036 12.5 2.25C12.5 1.55964 11.9404 1 11.25 1C10.5596 1 10 1.55964 10 2.25C10 2.94036 10.5596 3.5 11.25 3.5Z" fill="#40A0C1" stroke="white"/>
<path d="M20.25 3.5C20.9404 3.5 21.5 2.94036 21.5 2.25C21.5 1.55964 20.9404 1 20.25 1C19.5596 1 19 1.55964 19 2.25C19 2.94036 19.5596 3.5 20.25 3.5Z" fill="#40A0C1" stroke="white"/>
<path d="M2.25 3.5C2.94036 3.5 3.5 2.94036 3.5 2.25C3.5 1.55964 2.94036 1 2.25 1C1.55964 1 1 1.55964 1 2.25C1 2.94036 1.55964 3.5 2.25 3.5Z" fill="#40A0C1" stroke="white"/>
</svg>
