<svg xmlns="http://www.w3.org/2000/svg" fill="none" viewBox="0 0 12 12" height="12" width="12">
<g clip-path="url(#clip0)">
<path fill="white" d="M7.875 0.75H7.0605C6.906 0.3135 6.489 0 6 0C5.511 0 5.094 0.3135 4.93875 0.75H4.125C3.918 0.75 3.75 0.918 3.75 1.125V2.625C3.75 2.832 3.918 3 4.125 3H7.875C8.082 3 8.25 2.832 8.25 2.625V1.125C8.25 0.918 8.082 0.75 7.875 0.75Z"></path>
<path fill="white" d="M8.88525 7.49998L7.851 10.257C7.79625 10.4032 7.656 10.5 7.5 10.5C7.49475 10.5 7.4895 10.5 7.48425 10.5C7.323 10.4932 7.1835 10.3837 7.13925 10.2285L5.94075 6.03223L4.848 8.76373C4.79775 8.88973 4.683 8.97823 4.54875 8.99698C4.41375 9.01498 4.281 8.95798 4.2 8.84998L3.1875 7.49998H1.5V11.25C1.5 11.6707 1.82925 12 2.25 12H9.75C10.1707 12 10.5 11.6707 10.5 11.25V7.49998H8.88525Z"></path>
<path fill="white" d="M9.75 1.5H9V2.625C9 3.24525 8.49525 3.75 7.875 3.75H4.125C3.50475 3.75 3 3.24525 3 2.625V1.5H2.25C1.83675 1.5 1.5 1.83675 1.5 2.25V6.75H3.375C3.49275 6.75 3.6045 6.8055 3.675 6.9L4.3995 7.866L5.65125 4.7355C5.71125 4.587 5.86275 4.491 6.01875 4.5C6.17925 4.50825 6.31575 4.61775 6.36075 4.7715L7.548 8.928L8.274 6.993C8.32875 6.84675 8.469 6.75 8.625 6.75H10.5V2.25C10.5 1.82925 10.1707 1.5 9.75 1.5Z"></path>
</g>
<defs>
<clipPath id="clip0">
<rect fill="white" height="12" width="12"></rect>
</clipPath>
</defs>
</svg>
