<svg width="328" height="328" viewBox="0 0 328 328" fill="none" xmlns="http://www.w3.org/2000/svg">
<path d="M228.111 66.912C228.111 66.912 190.306 45.7691 146.944 61.828C103.582 77.8869 75.9123 119.7 52.6243 153.012C29.3363 186.324 32.8721 224.818 60.1683 246.741C87.4644 268.665 112.189 247.397 154.698 253.387C197.207 259.376 207.552 267.353 246.728 249.451C285.904 231.548 301.871 176.189 281.299 129.737C260.727 83.2858 228.111 66.912 228.111 66.912Z" fill="#24BEE1"/>
<path opacity="0.8" d="M228.111 66.912C228.111 66.912 190.306 45.7691 146.944 61.828C103.582 77.8869 75.9123 119.7 52.6243 153.012C29.3363 186.324 32.8721 224.818 60.1683 246.741C87.4644 268.665 112.189 247.397 154.698 253.387C197.207 259.376 207.552 267.353 246.728 249.451C285.904 231.548 301.871 176.189 281.299 129.737C260.727 83.2858 228.111 66.912 228.111 66.912Z" fill="white"/>
<path d="M262.512 125.762C259.277 123.997 257.808 125.466 256.608 123.997C255.407 122.527 259.842 118.703 251.018 114.878C251.018 114.878 250.435 106.646 238.377 106.35C226.32 106.055 229.6 114.59 226.32 116.643C223.04 118.696 222.2 115.469 218.966 117.529C215.732 119.589 217.202 123.702 214.558 124.292C211.914 124.882 208.385 121.668 205.151 123.702C201.917 125.735 201.917 127.526 200.441 127.526C198.965 127.526 196.032 126.352 194.268 127.526C192.503 128.7 190.443 130.15 190.443 130.15H264.867C264.867 130.15 265.752 127.526 262.512 125.762Z" fill="#24BEE1"/>
<path opacity="0.5" d="M262.512 125.762C259.277 123.997 257.808 125.466 256.608 123.997C255.407 122.527 259.842 118.703 251.018 114.878C251.018 114.878 250.435 106.646 238.377 106.35C226.32 106.055 229.6 114.59 226.32 116.643C223.04 118.696 222.2 115.469 218.966 117.529C215.732 119.589 217.202 123.702 214.558 124.292C211.914 124.882 208.385 121.668 205.151 123.702C201.917 125.735 201.917 127.526 200.441 127.526C198.965 127.526 196.032 126.352 194.268 127.526C192.503 128.7 190.443 130.15 190.443 130.15H264.867C264.867 130.15 265.752 127.526 262.512 125.762Z" fill="#24BEE1"/>
<path d="M149.876 88.1466C147.96 87.1036 147.088 87.976 146.393 87.1036C145.697 86.2311 148.308 83.9679 143.113 81.6981C143.113 81.6981 142.765 76.8175 135.621 76.6469C128.477 76.4764 130.373 81.5276 128.477 82.7477C126.581 83.9679 126.037 82.0524 124.115 83.266C122.193 84.4796 123.072 86.9264 121.491 87.2807C119.91 87.6349 117.83 85.7063 115.915 86.9264C113.999 88.1466 113.999 89.1962 113.127 89.1962C112.254 89.1962 110.503 88.4943 109.466 89.1962C108.43 89.8981 107.203 90.764 107.203 90.764H151.273C151.273 90.764 151.798 89.2159 149.876 88.1466Z" fill="#24BEE1"/>
<path opacity="0.5" d="M149.876 88.1466C147.96 87.1036 147.088 87.976 146.393 87.1036C145.697 86.2311 148.308 83.9679 143.113 81.6981C143.113 81.6981 142.765 76.8175 135.621 76.6469C128.477 76.4764 130.373 81.5276 128.477 82.7477C126.581 83.9679 126.037 82.0524 124.115 83.266C122.193 84.4796 123.072 86.9264 121.491 87.2807C119.91 87.6349 117.83 85.7063 115.915 86.9264C113.999 88.1466 113.999 89.1962 113.127 89.1962C112.254 89.1962 110.503 88.4943 109.466 89.1962C108.43 89.8981 107.203 90.764 107.203 90.764H151.273C151.273 90.764 151.798 89.2159 149.876 88.1466Z" fill="#24BEE1"/>
<path d="M176.753 233.47C171.242 230.459 168.736 232.965 166.729 230.459C164.721 227.954 172.239 221.446 157.21 214.932C157.21 214.932 156.207 200.9 135.667 200.402C115.128 199.903 120.632 214.427 115.121 217.936C109.611 221.446 108.109 215.929 102.598 219.439C97.0879 222.948 99.5872 229.935 95.0805 230.965C90.5738 231.994 84.5845 226.451 79.0479 229.961C73.5112 233.47 73.5375 236.475 71.0316 236.475C68.5256 236.475 63.5138 234.468 60.5356 236.475C57.5573 238.482 54.0215 240.982 54.0215 240.982H180.761C180.761 240.982 182.263 236.475 176.753 233.47Z" fill="#24BEE1"/>
<path opacity="0.5" d="M176.753 233.47C171.242 230.459 168.736 232.965 166.729 230.459C164.721 227.954 172.239 221.446 157.21 214.932C157.21 214.932 156.207 200.9 135.667 200.402C115.128 199.903 120.632 214.427 115.121 217.936C109.611 221.446 108.109 215.929 102.598 219.439C97.0879 222.948 99.5872 229.935 95.0805 230.965C90.5738 231.994 84.5845 226.451 79.0479 229.961C73.5112 233.47 73.5375 236.475 71.0316 236.475C68.5256 236.475 63.5138 234.468 60.5356 236.475C57.5573 238.482 54.0215 240.982 54.0215 240.982H180.761C180.761 240.982 182.263 236.475 176.753 233.47Z" fill="#24BEE1"/>
<g opacity="0.5">
<path opacity="0.5" d="M262.512 125.762C259.277 123.997 257.808 125.466 256.608 123.997C255.407 122.527 259.842 118.703 251.018 114.878C251.018 114.878 250.435 106.646 238.377 106.35C226.32 106.055 229.6 114.59 226.32 116.643C223.04 118.696 222.2 115.469 218.966 117.529C215.732 119.589 217.202 123.702 214.558 124.292C211.914 124.882 208.385 121.668 205.151 123.702C201.917 125.735 201.917 127.526 200.441 127.526C198.965 127.526 196.032 126.352 194.268 127.526C192.503 128.7 190.443 130.15 190.443 130.15H264.867C264.867 130.15 265.752 127.526 262.512 125.762Z" fill="white"/>
<path opacity="0.5" d="M262.512 125.762C259.277 123.997 257.808 125.466 256.608 123.997C255.407 122.527 259.842 118.703 251.018 114.878C251.018 114.878 250.435 106.646 238.377 106.35C226.32 106.055 229.6 114.59 226.32 116.643C223.04 118.696 222.2 115.469 218.966 117.529C215.732 119.589 217.202 123.702 214.558 124.292C211.914 124.882 208.385 121.668 205.151 123.702C201.917 125.735 201.917 127.526 200.441 127.526C198.965 127.526 196.032 126.352 194.268 127.526C192.503 128.7 190.443 130.15 190.443 130.15H264.867C264.867 130.15 265.752 127.526 262.512 125.762Z" fill="white"/>
</g>
<g opacity="0.5">
<path opacity="0.5" d="M149.876 88.1466C147.96 87.1036 147.088 87.976 146.393 87.1036C145.697 86.2311 148.308 83.9679 143.113 81.6981C143.113 81.6981 142.765 76.8175 135.621 76.6469C128.477 76.4764 130.373 81.5276 128.477 82.7477C126.581 83.9679 126.037 82.0524 124.115 83.266C122.193 84.4796 123.072 86.9264 121.491 87.2807C119.91 87.6349 117.83 85.7063 115.915 86.9264C113.999 88.1466 113.999 89.1962 113.127 89.1962C112.254 89.1962 110.503 88.4943 109.466 89.1962C108.43 89.8981 107.203 90.764 107.203 90.764H151.273C151.273 90.764 151.798 89.2159 149.876 88.1466Z" fill="white"/>
<path opacity="0.5" d="M149.876 88.1466C147.96 87.1036 147.088 87.976 146.393 87.1036C145.697 86.2311 148.308 83.9679 143.113 81.6981C143.113 81.6981 142.765 76.8175 135.621 76.6469C128.477 76.4764 130.373 81.5276 128.477 82.7477C126.581 83.9679 126.037 82.0524 124.115 83.266C122.193 84.4796 123.072 86.9264 121.491 87.2807C119.91 87.6349 117.83 85.7063 115.915 86.9264C113.999 88.1466 113.999 89.1962 113.127 89.1962C112.254 89.1962 110.503 88.4943 109.466 89.1962C108.43 89.8981 107.203 90.764 107.203 90.764H151.273C151.273 90.764 151.798 89.2159 149.876 88.1466Z" fill="white"/>
</g>
<g opacity="0.5">
<path opacity="0.5" d="M176.753 233.47C171.242 230.459 168.736 232.965 166.729 230.459C164.721 227.954 172.239 221.446 157.21 214.932C157.21 214.932 156.207 200.9 135.667 200.402C115.128 199.903 120.632 214.427 115.121 217.936C109.611 221.446 108.109 215.929 102.598 219.439C97.0879 222.948 99.5872 229.935 95.0805 230.965C90.5738 231.994 84.5845 226.451 79.0479 229.961C73.5112 233.47 73.5375 236.475 71.0316 236.475C68.5256 236.475 63.5138 234.468 60.5356 236.475C57.5573 238.482 54.0215 240.982 54.0215 240.982H180.761C180.761 240.982 182.263 236.475 176.753 233.47Z" fill="white"/>
<path opacity="0.5" d="M176.753 233.47C171.242 230.459 168.736 232.965 166.729 230.459C164.721 227.954 172.239 221.446 157.21 214.932C157.21 214.932 156.207 200.9 135.667 200.402C115.128 199.903 120.632 214.427 115.121 217.936C109.611 221.446 108.109 215.929 102.598 219.439C97.0879 222.948 99.5872 229.935 95.0805 230.965C90.5738 231.994 84.5845 226.451 79.0479 229.961C73.5112 233.47 73.5375 236.475 71.0316 236.475C68.5256 236.475 63.5138 234.468 60.5356 236.475C57.5573 238.482 54.0215 240.982 54.0215 240.982H180.761C180.761 240.982 182.263 236.475 176.753 233.47Z" fill="white"/>
</g>
<path d="M84.1448 212.104C84.1448 212.104 80.9042 209.264 77.552 208.293C74.1999 207.322 70.336 207.302 66.997 206.391C63.658 205.479 61.6637 204.711 61.6637 204.711L61.4932 207.729L84.0071 213.81L99.41 209.546L100.945 206.417C99.2666 207.198 97.5064 207.79 95.697 208.181C92.3448 208.975 88.5925 208.975 86.513 209.775C84.4335 210.576 84.1448 212.104 84.1448 212.104Z" fill="white" stroke="#263238" stroke-linecap="round" stroke-linejoin="round"/>
<path d="M61.178 205.393C65.5789 206.739 70.09 207.694 74.6588 208.247C78.0952 208.713 81.3581 210.04 84.1446 212.104C86.4113 210.655 89.0206 209.831 91.7083 209.716C94.941 209.471 98.13 208.821 101.201 207.781L100.236 209.749L83.692 212.99L60.8369 207.02L61.178 205.393Z" fill="white" stroke="#263238" stroke-linecap="round" stroke-linejoin="round"/>
<path d="M60.5556 206.076C64.0523 207.416 67.7163 208.27 71.4452 208.614C77.5329 209.074 83.9748 212.104 83.9748 212.104C86.4664 210.848 89.202 210.149 91.9911 210.058C95.1212 210.03 98.2354 209.609 101.26 208.805C101.166 209.119 101.143 209.45 101.191 209.774C101.24 210.099 101.36 210.408 101.542 210.681L83.9157 214.433L60.4375 207.611L60.5556 206.076Z" fill="white" stroke="#263238" stroke-linecap="round" stroke-linejoin="round"/>
<path d="M60.2665 207.328L83.1806 213.068V213.856L85.1092 213.908V213.003L102.054 210.326C102.054 210.326 102.795 210.156 102.165 210.982C101.535 211.809 90.6262 221.334 90.6262 221.334L78.5164 222.581L60.1484 218.546L60.2665 207.328Z" fill="#24BEE1"/>
<path opacity="0.3" d="M83.1809 213.869V213.068L60.2668 207.328L60.1553 218.585L78.5167 222.62L78.8447 222.587L83.6926 213.882L83.1809 213.869Z" fill="black"/>
<path d="M60.2665 207.328L83.1806 213.068V213.856L85.1092 213.908V213.003L102.054 210.326C102.054 210.326 102.795 210.156 102.165 210.982C101.535 211.809 90.6262 221.334 90.6262 221.334L78.5164 222.581L60.1484 218.546L60.2665 207.328Z" stroke="#263238" stroke-linecap="round" stroke-linejoin="round"/>
<path d="M83.1805 213.869L78.1162 222.62L79.0871 222.679L85.1092 213.921L83.1805 213.869Z" fill="#24BEE1" stroke="#263238" stroke-linecap="round" stroke-linejoin="round"/>
<path d="M82.3676 267.221C82.3676 267.221 81.2655 269.53 79.796 270.587C78.3266 271.643 76.4504 272.141 74.9679 273.158C74.1626 273.703 73.3914 274.297 72.6588 274.936L72.0684 272.928L82.0002 266.086L90.233 267.083L91.5056 268.999C90.5859 268.688 89.6281 268.502 88.6586 268.448C86.894 268.323 85.0637 268.783 83.9026 268.5C83.568 268.414 83.2568 268.255 82.9914 268.033C82.7259 267.812 82.5129 267.535 82.3676 267.221Z" fill="white" stroke="#263238" stroke-linecap="round" stroke-linejoin="round"/>
<path d="M72.2979 274.536C74.1847 273.117 76.2298 271.922 78.3922 270.974C80.0639 270.151 81.4491 268.843 82.3675 267.222C83.6252 267.877 85.0614 268.107 86.461 267.878C88.1085 267.651 89.7822 267.7 91.4138 268.022L90.6069 266.795L82.0002 266.664L71.8584 273.467L72.2979 274.536Z" fill="white" stroke="#263238" stroke-linecap="round" stroke-linejoin="round"/>
<path d="M71.8774 274.156C73.313 272.861 74.968 271.832 76.7646 271.118C79.651 270.069 82.2881 267.241 82.2881 267.241C83.6398 267.77 85.1125 267.908 86.539 267.641C88.088 267.279 89.6876 267.183 91.2687 267.359C91.0702 266.952 91.0081 266.492 91.0916 266.047L81.8683 265.68L71.5625 273.139L71.8774 274.156Z" fill="white" stroke="#263238" stroke-linecap="round" stroke-linejoin="round"/>
<path d="M71.5036 273.348L81.7109 266.683L81.5732 266.152L82.5112 265.876L82.6621 266.487L91.3738 266.224C91.3738 266.224 91.7608 266.224 91.3148 265.752C90.8687 265.279 83.9676 260.182 83.9676 260.182L77.8471 260.838L69.5684 265.791L71.5036 273.348Z" fill="#24BEE1"/>
<path opacity="0.3" d="M81.5997 266.152L81.7374 266.684L71.5301 273.348L69.5752 265.772L77.8539 260.819L78.0179 260.799L81.849 266.08L81.5997 266.152Z" fill="black"/>
<path d="M71.5036 273.348L81.7109 266.683L81.5732 266.152L82.5112 265.876L82.6621 266.487L91.3738 266.224C91.3738 266.224 91.7608 266.224 91.3148 265.752C90.8687 265.279 83.9676 260.182 83.9676 260.182L77.8471 260.838L69.5684 265.791L71.5036 273.348Z" stroke="#263238" stroke-linecap="round" stroke-linejoin="round"/>
<path d="M81.6001 266.152L77.6641 260.864L78.1233 260.707L82.5381 265.876L81.6001 266.152Z" fill="#24BEE1" stroke="#263238" stroke-linecap="round" stroke-linejoin="round"/>
<path d="M234.993 196.609L253.518 215.371L213.961 226.516L211.344 207.709L234.993 196.609Z" fill="#24BEE1" stroke="#263238" stroke-linecap="round" stroke-linejoin="round"/>
<path d="M251.385 218.08L210.471 230.105L213.77 208.483L234.415 199.273L251.385 218.08Z" fill="white" stroke="#263238" stroke-linecap="round" stroke-linejoin="round"/>
<path d="M235.386 200.441L250.605 220.121L212.216 231.266L216.677 207.611L235.386 200.441Z" fill="white"/>
<path opacity="0.17" d="M235.386 200.441L250.605 220.121L212.216 231.266L216.677 207.611L235.386 200.441Z" fill="black"/>
<path d="M235.386 200.441L250.605 220.121L212.216 231.266L216.677 207.611L235.386 200.441Z" stroke="#263238" stroke-linecap="round" stroke-linejoin="round"/>
<path d="M235.386 200.441L228.406 224.673L201.162 232.919L211.632 210.615L235.386 200.441Z" fill="white" stroke="#263238" stroke-linecap="round" stroke-linejoin="round"/>
<path d="M226.47 222.738L200.198 231.561L199.417 227.875L223.755 219.15L226.47 222.738Z" fill="white" stroke="#263238" stroke-linecap="round" stroke-linejoin="round"/>
<path d="M234.71 197.141L252.16 215.272L251.386 218.08L235.386 200.44L226.471 222.738L223.755 219.149L234.71 197.141Z" fill="white" stroke="#263238" stroke-linecap="round" stroke-linejoin="round"/>
<path d="M234.993 196.609L223.854 219.832L198.158 228.557L211.344 207.709L234.993 196.609Z" fill="#24BEE1"/>
<path opacity="0.3" d="M234.993 196.609L223.854 219.832L198.158 228.557L211.344 207.709L234.993 196.609Z" fill="black"/>
<path d="M234.993 196.609L223.854 219.832L198.158 228.557L211.344 207.709L234.993 196.609Z" stroke="#263238" stroke-linecap="round" stroke-linejoin="round"/>
<path d="M210.28 209.847L230.951 200.414" stroke="#263238" stroke-linecap="round" stroke-linejoin="round"/>
<path d="M148.925 264.026L167.897 240.686L128.76 238.849L125.644 258.457L148.925 264.026Z" fill="#24BEE1" stroke="#263238" stroke-linecap="round" stroke-linejoin="round"/>
<path d="M165.844 238.455L125.375 236.061L128.078 257.099L148.42 261.481L165.844 238.455Z" fill="white" stroke="#263238" stroke-linecap="round" stroke-linejoin="round"/>
<path d="M149.417 260.071L165.121 236.579L127.146 234.467L130.957 257.283L149.417 260.071Z" fill="white"/>
<path opacity="0.17" d="M149.417 260.071L165.121 236.579L127.146 234.467L130.957 257.283L149.417 260.071Z" fill="black"/>
<path d="M149.417 260.071L165.121 236.579L127.146 234.467L130.957 257.283L149.417 260.071Z" stroke="#263238" stroke-linecap="round" stroke-linejoin="round"/>
<path d="M149.417 260.071L143.113 237.269L116.171 235.438L126.011 255.453L149.417 260.071Z" fill="white" stroke="#263238" stroke-linecap="round" stroke-linejoin="round"/>
<path d="M141.125 239.689L115.167 237.038L114.295 240.942L138.324 243.953L141.125 239.689Z" fill="white" stroke="#263238" stroke-linecap="round" stroke-linejoin="round"/>
<path d="M148.65 263.561L166.539 241.106L165.843 238.456L149.417 260.071L141.125 239.689L138.324 243.953L148.65 263.561Z" fill="white" stroke="#263238" stroke-linecap="round" stroke-linejoin="round"/>
<path d="M148.925 264.026L138.435 243.244L113.055 240.555L125.643 258.457L148.925 264.026Z" fill="#24BEE1"/>
<path opacity="0.3" d="M148.925 264.026L138.435 243.244L113.055 240.555L125.643 258.457L148.925 264.026Z" fill="black"/>
<path d="M148.925 264.026L138.435 243.244L113.055 240.555L125.643 258.457L148.925 264.026Z" stroke="#263238" stroke-linecap="round" stroke-linejoin="round"/>
<path d="M123.708 255.873L144.379 260.222" stroke="#263238" stroke-linecap="round" stroke-linejoin="round"/>
<path d="M164.309 107.079C164.309 107.079 155.715 111.231 152.278 116.263C148.84 121.295 149.844 130.583 155.138 133.588C160.432 136.592 178.911 147.626 191.946 146.052C204.981 144.478 202.973 131.154 196.387 125.854C189.801 120.553 180.919 115.83 180.919 115.83C180.919 115.83 180.492 112.97 179.915 111.966C179.338 110.963 172.758 104.501 164.309 107.079Z" fill="#263238" stroke="#263238" stroke-linecap="round" stroke-linejoin="round"/>
<path d="M199.195 128.989C179.686 123.02 166.834 133.706 162.807 137.799C170.875 141.991 182.762 147.141 191.946 146.032C202.849 144.714 203.223 135.169 199.195 128.989Z" fill="white" stroke="#263238" stroke-linecap="round" stroke-linejoin="round"/>
<path d="M185.931 127.415C185.931 127.415 197.391 136.599 193.376 145.744" stroke="#263238" stroke-linecap="round" stroke-linejoin="round"/>
<path d="M148.316 103.077L143.724 124.496H147.417L156.522 107.617C156.522 107.617 154.744 102.205 148.316 103.077Z" fill="white" stroke="#263238" stroke-linecap="round" stroke-linejoin="round"/>
<path d="M206.03 92.6865C202.271 88.0945 197.306 83.8371 188.207 83.1089C188.207 83.1089 180.453 82.8662 169.904 87.3533C161.658 90.8563 152.848 98.5053 148.315 103.097C152.37 104.127 154.784 105.787 156.529 107.637C158.326 105.925 159.894 104.435 161.048 103.497C164.932 100.342 170.633 97.6787 170.633 97.6787C170.633 97.6787 164.446 106.161 163.233 108.345C162.019 110.53 162.872 114.046 169.294 115.017C175.717 115.988 177.298 114.774 179.843 113.318C182.388 111.861 185.543 110.53 186.757 110.53C189.182 110.702 191.589 110.004 193.547 108.562C196.695 106.377 198.034 100.198 199.123 99.7123C199.87 99.3777 206.49 108.011 211.646 114.492L212.092 114.262C214.335 113.108 216.087 110.753 217.287 108.68C213.115 102.586 208.464 95.6648 206.03 92.6865Z" fill="#24BEE1" stroke="#263238" stroke-linecap="round" stroke-linejoin="round"/>
<path d="M184.297 87.1829C184.297 87.1829 181.726 93.369 186.875 95.7109" stroke="#263238" stroke-linecap="round" stroke-linejoin="round"/>
<path d="M170.633 97.6589L176.222 96.0057" stroke="#263238" stroke-linecap="round" stroke-linejoin="round"/>
<path d="M170.561 108.45C170.561 108.45 174.083 111.56 182.329 108.043" stroke="#263238" stroke-linecap="round" stroke-linejoin="round"/>
<path d="M202.738 97.3569C200.704 97.6259 199.123 99.7185 199.123 99.7185C201.47 99.2186 203.856 98.9267 206.254 98.846" stroke="#263238" stroke-linecap="round" stroke-linejoin="round"/>
<path d="M170.816 98.1706C170.816 98.1706 174.602 98.1706 178.255 98.0328" stroke="#263238" stroke-linecap="round" stroke-linejoin="round"/>
<path d="M172.843 106.823C172.843 106.823 173.249 109.263 178.524 108.988" stroke="#263238" stroke-linecap="round" stroke-linejoin="round"/>
<path d="M186.875 85.1687C186.875 85.1687 186.029 89.5311 186.632 91.8336C187.236 94.1362 189.42 96.8061 191.001 94.0181C192.582 91.2301 193.422 88.1141 193.422 86.625C193.422 85.1359 187.964 82.3807 186.875 85.1687Z" fill="white" stroke="#263238" stroke-linecap="round" stroke-linejoin="round"/>
<path d="M199.122 79.7108C199.122 79.7108 202.514 78.9826 205.426 75.2237C208.339 71.4649 204.58 70.986 203.366 67.3517C202.153 63.7175 206.423 64.9245 200.244 58.6204C194.064 52.3162 183.995 54.5007 179.252 56.5605C174.509 58.6204 174.66 65.5346 171.255 66.0201C167.851 66.5055 166.401 63.2321 162.281 63.2321C158.162 63.2321 153.793 67.5945 155.492 71.2287C157.191 74.8629 160.464 73.2951 160.707 72.685C160.95 72.0749 159.008 72.8097 158.883 70.986C158.758 69.1623 163.246 70.1397 164.584 72.5669C165.666 74.5349 163.678 77.3295 163.744 79.3959C163.882 83.5418 168.959 86.1921 172.22 86.7628C176.621 87.5303 181.974 87.2613 185.963 85.0769C190.863 82.3873 188.587 76.8113 192.195 75.3549C195.803 73.8986 197.653 76.0831 197.653 76.0831L199.122 79.7108Z" fill="#263238" stroke="#263238" stroke-linecap="round" stroke-linejoin="round"/>
<path d="M162.065 65.4821C161.44 65.2107 160.753 65.1167 160.078 65.2104C159.403 65.3042 158.767 65.582 158.24 66.0135" stroke="white" stroke-linecap="round" stroke-linejoin="round"/>
<path d="M194.419 68.8802C194.419 68.8802 194.419 61.6642 189.355 60.1948C184.291 58.7253 178.505 65.2591 175.579 69.3788C172.653 73.4984 168.363 72.5144 165.208 68.1717C164.911 67.7531 164.582 67.3583 164.224 66.9909" stroke="white" stroke-linecap="round" stroke-linejoin="round"/>
<path d="M165.719 82.4138C168.343 84.0997 170.311 84.5851 174.161 83.3781C178.012 82.1711 177.54 75.8997 180.912 72.5279C184.284 69.156 190.319 70.3565 190.319 70.3565C190.319 70.3565 183.569 66.7354 178.261 70.5927C172.954 74.45 173.433 80.964 168.612 82.1711" stroke="white" stroke-linecap="round" stroke-linejoin="round"/>
<path d="M197.798 69.6283C197.798 69.6283 202.39 68.4212 202.141 64.3212" stroke="white" stroke-linecap="round" stroke-linejoin="round"/>
<path d="M160.012 116.112C160.012 116.112 172.476 117.686 178.773 122.016" stroke="white" stroke-linecap="round" stroke-linejoin="round"/>
<path d="M195.166 71.1895C194.39 70.9669 193.566 70.9722 192.793 71.2048C192.019 71.4374 191.329 71.8875 190.804 72.5015C188.744 74.6794 188.836 75.7815 187.117 77.1394C186.605 77.5876 185.959 77.8542 185.279 77.8981C184.6 77.942 183.924 77.7606 183.358 77.3822C182.63 77.0214 181.784 77.2641 181.541 78.9566C181.299 80.649 183.601 81.9873 183.969 81.9873C184.334 82.0071 184.697 82.0487 185.057 82.1119C185.057 82.1119 185.057 85.1426 187.117 86.9598C189.177 88.7769 193.303 91.6895 196.091 91.086C198.879 90.4825 199.968 84.0537 199.968 80.7802C199.866 77.4612 199.212 74.1822 198.033 71.078C197.18 69.1625 195.166 71.1895 195.166 71.1895Z" fill="white" stroke="#263238" stroke-linecap="round" stroke-linejoin="round"/>
<path d="M192.865 78.5566C192.865 79.2126 192.628 79.7767 192.327 79.7767C192.025 79.7767 191.782 79.2322 191.782 78.5566C191.782 77.8809 192.025 77.343 192.327 77.343C192.628 77.343 192.865 77.8874 192.865 78.5566Z" fill="#263238"/>
<path d="M197.188 78.1495C197.188 78.8055 196.945 79.3697 196.65 79.3697C196.355 79.3697 196.105 78.8252 196.105 78.1495C196.105 77.4738 196.348 76.9359 196.65 76.9359C196.952 76.9359 197.188 77.4804 197.188 78.1495Z" fill="#263238"/>
<path d="M190.293 76.0964C190.293 76.0964 191.1 74.8828 193.133 75.4404" stroke="#263238" stroke-linecap="round" stroke-linejoin="round"/>
<path d="M195.43 75.4403C195.43 75.4403 196.781 73.9512 198.001 75.4403" stroke="#263238" stroke-linecap="round" stroke-linejoin="round"/>
<path d="M195.298 78.1497C195.298 78.1497 195.429 80.8589 196.242 80.8589C197.056 80.8589 196.78 82.0726 195.698 82.4793" stroke="#263238" stroke-linecap="round" stroke-linejoin="round"/>
<path d="M194.616 85.1885C194.616 85.1885 192.182 86.2709 191.237 83.8306" stroke="#263238" stroke-linecap="round" stroke-linejoin="round"/>
<path d="M195.187 145.068C195.187 145.068 181.411 132.984 167.136 128.871C152.862 124.758 136.435 126.693 122.167 122.829C107.899 118.966 99.6862 113.645 99.6862 113.645L98.958 126.457L194.734 152.33L260.255 134.198L266.782 120.901C266.782 120.901 258.806 125.007 244.538 128.392C230.27 131.777 214.283 131.771 205.328 135.136C196.374 138.501 195.187 145.068 195.187 145.068Z" fill="white" stroke="#263238" stroke-linecap="round" stroke-linejoin="round"/>
<path d="M97.5084 116.539C97.5084 116.539 113.489 126.215 149.49 129.6C173.204 131.824 195.187 145.068 195.187 145.068C204.819 138.91 215.908 135.407 227.331 134.914C246.191 134.192 267.708 126.694 267.708 126.694L263.608 135.137L193.252 148.913L96.0586 123.525L97.5084 116.539Z" fill="white" stroke="#263238" stroke-linecap="round" stroke-linejoin="round"/>
<path d="M94.8516 119.444C108.453 125.587 123.01 129.342 137.885 130.544C163.751 132.479 194.459 145.048 194.459 145.048C194.459 145.048 210.655 136.35 228.571 136.35C241.877 136.236 255.116 134.449 267.977 131.029C267.577 132.366 267.478 133.774 267.686 135.153C267.895 136.532 268.406 137.848 269.184 139.006L194.216 154.98L94.3662 125.952L94.8516 119.444Z" fill="white" stroke="#263238" stroke-linecap="round" stroke-linejoin="round"/>
<path d="M95.3368 125.185L191.073 149.181V152.566L199.293 152.809V148.912L271.342 137.55C271.342 137.55 274.484 136.822 271.827 140.45C269.17 144.078 222.745 184.454 222.745 184.454L171.249 189.775L93.1523 172.633L93.6181 126.51C93.6196 126.301 93.6686 126.095 93.7616 125.907C93.8545 125.72 93.9889 125.556 94.1545 125.429C94.3202 125.301 94.5127 125.212 94.7176 125.17C94.9224 125.128 95.1342 125.133 95.3368 125.185Z" fill="#24BEE1"/>
<path opacity="0.3" d="M191.074 152.566V149.181L93.6381 124.765L93.1592 172.633L171.249 189.801L172.647 189.656L193.258 152.632L191.074 152.566Z" fill="black"/>
<path d="M95.3368 125.185L191.073 149.181V152.566L199.293 152.809V148.912L271.342 137.55C271.342 137.55 274.484 136.822 271.827 140.45C269.17 144.078 222.745 184.454 222.745 184.454L171.249 189.775L93.1523 172.633L93.6181 126.51C93.6196 126.301 93.6686 126.095 93.7616 125.907C93.8545 125.72 93.9889 125.556 94.1545 125.429C94.3202 125.301 94.5127 125.212 94.7176 125.17C94.9224 125.128 95.1342 125.133 95.3368 125.185Z" stroke="#263238" stroke-linecap="round" stroke-linejoin="round"/>
<path d="M191.073 152.566L169.557 189.8L173.67 190.037L199.293 152.809L191.073 152.566Z" fill="#24BEE1" stroke="#263238" stroke-linecap="round" stroke-linejoin="round"/>
<path d="M262.886 139.072C262.886 139.072 269.308 140.273 267.97 144.557L271.827 140.463C271.827 140.463 273.592 138.266 272.785 137.839C271.978 137.413 262.886 139.072 262.886 139.072Z" fill="#263238"/>
<path d="M104.212 127.618C104.212 127.618 95.1268 130.131 93.7164 136.92L93.6377 126.51C93.6377 126.51 93.9132 124.942 95.3499 125.198C96.7865 125.454 104.212 127.618 104.212 127.618Z" fill="#263238"/>
<path d="M93.2445 169.445L97.8102 173.794L93.1592 172.633L93.2445 169.445Z" fill="#263238"/>
<path d="M219.459 184.762L225.652 181.719L222.391 184.546L219.459 184.762Z" fill="#263238"/>
<path d="M217.287 108.686L234.71 129.573L230.322 130.269L211.646 114.525C211.646 114.525 216.48 111.356 217.287 108.686Z" fill="white" stroke="#263238" stroke-linecap="round" stroke-linejoin="round"/>
<path d="M140.024 122.581C140.024 122.581 139.151 121.525 138.928 122.469C138.705 123.414 136.731 126.694 138.272 126.923C139.814 127.153 140.686 123.407 140.686 123.407L140.024 122.581Z" fill="white" stroke="#263238" stroke-linecap="round" stroke-linejoin="round"/>
<path d="M142.109 122.456C142.109 122.456 141.23 121.4 141.014 122.338C140.797 123.276 138.816 126.563 140.358 126.799C141.9 127.035 142.779 123.276 142.779 123.276L142.109 122.456Z" fill="white" stroke="#263238" stroke-linecap="round" stroke-linejoin="round"/>
<path d="M144.203 122.377C144.203 122.377 143.16 121.203 142.891 122.246C142.622 123.289 140.267 126.936 142.11 127.198C143.953 127.461 144.977 123.262 144.977 123.262L144.203 122.377Z" fill="white" stroke="#263238" stroke-linecap="round" stroke-linejoin="round"/>
<path d="M146.026 122.771L149.543 126.156H145.377L146.026 122.771Z" fill="white" stroke="#263238" stroke-linecap="round" stroke-linejoin="round"/>
<path d="M146.026 122.771C146.026 122.771 144.983 121.596 144.714 122.639C144.445 123.682 142.09 127.33 143.933 127.586C145.777 127.842 146.8 123.65 146.8 123.65L146.026 122.771Z" fill="white" stroke="#263238" stroke-linecap="round" stroke-linejoin="round"/>
<path d="M239.44 125.808C239.44 125.808 240.142 124.627 240.509 125.519C240.877 126.411 243.337 129.35 241.861 129.822C240.385 130.295 238.922 126.726 238.922 126.726L239.44 125.808Z" fill="white" stroke="#263238" stroke-linecap="round" stroke-linejoin="round"/>
<path d="M237.381 126.005C237.381 126.005 238.082 124.824 238.45 125.716C238.817 126.608 241.284 129.547 239.801 130.02C238.319 130.492 236.862 126.923 236.862 126.923L237.381 126.005Z" fill="white" stroke="#263238" stroke-linecap="round" stroke-linejoin="round"/>
<path d="M235.308 126.26C235.308 126.26 236.154 124.948 236.574 125.926C236.993 126.903 239.854 130.15 238.122 130.695C236.39 131.239 234.678 127.284 234.678 127.284L235.308 126.26Z" fill="white" stroke="#263238" stroke-linecap="round" stroke-linejoin="round"/>
<path d="M233.569 126.936L230.624 130.833L234.744 130.177L233.569 126.936Z" fill="white" stroke="#263238" stroke-linecap="round" stroke-linejoin="round"/>
<path d="M233.569 126.936C233.569 126.936 234.409 125.624 234.835 126.602C235.262 127.579 238.115 130.82 236.383 131.364C234.652 131.909 232.939 127.96 232.939 127.96L233.569 126.936Z" fill="white" stroke="#263238" stroke-linecap="round" stroke-linejoin="round"/>
<path d="M114.059 161.973L118.257 161.317L114.059 160.661C113.689 160.605 113.347 160.432 113.082 160.168C112.818 159.903 112.645 159.561 112.589 159.192L111.933 154.987L111.277 159.192C111.222 159.56 111.05 159.902 110.787 160.166C110.523 160.43 110.183 160.604 109.814 160.661L105.609 161.317L109.814 161.973C110.182 162.033 110.521 162.208 110.783 162.471C111.046 162.735 111.219 163.075 111.277 163.442L111.933 167.647L112.589 163.442C112.648 163.074 112.822 162.733 113.086 162.47C113.35 162.206 113.69 162.032 114.059 161.973Z" fill="white"/>
<path d="M82.6961 190.457L86.901 189.801L82.6961 189.145C82.328 189.085 81.988 188.911 81.7243 188.647C81.4606 188.383 81.2865 188.043 81.2266 187.675L80.5706 183.47L79.9146 187.675C79.8577 188.044 79.6845 188.386 79.4203 188.65C79.156 188.914 78.8145 189.088 78.4452 189.145L74.2402 189.801L78.4452 190.457C78.8145 190.514 79.156 190.687 79.4203 190.951C79.6845 191.215 79.8577 191.557 79.9146 191.926L80.5706 196.131L81.2266 191.926C81.2865 191.558 81.4606 191.218 81.7243 190.954C81.988 190.691 82.328 190.516 82.6961 190.457Z" fill="#24BEE1"/>
<path opacity="0.5" d="M82.6961 190.457L86.901 189.801L82.6961 189.145C82.328 189.085 81.988 188.911 81.7243 188.647C81.4606 188.383 81.2865 188.043 81.2266 187.675L80.5706 183.47L79.9146 187.675C79.8577 188.044 79.6845 188.386 79.4203 188.65C79.156 188.914 78.8145 189.088 78.4452 189.145L74.2402 189.801L78.4452 190.457C78.8145 190.514 79.156 190.687 79.4203 190.951C79.6845 191.215 79.8577 191.557 79.9146 191.926L80.5706 196.131L81.2266 191.926C81.2865 191.558 81.4606 191.218 81.7243 190.954C81.988 190.691 82.328 190.516 82.6961 190.457Z" fill="white"/>
<path d="M187.393 207.991L191.598 207.335L187.393 206.679C187.025 206.623 186.684 206.451 186.42 206.188C186.156 205.925 185.982 205.585 185.924 205.217L185.268 201.012L184.612 205.217C184.554 205.585 184.38 205.925 184.116 206.188C183.852 206.451 183.511 206.623 183.142 206.679L178.938 207.335L183.142 207.991C183.511 208.048 183.852 208.22 184.116 208.483C184.38 208.746 184.554 209.086 184.612 209.454L185.268 213.659L185.924 209.454C185.982 209.086 186.156 208.746 186.42 208.483C186.684 208.22 187.025 208.048 187.393 207.991Z" fill="#24BEE1"/>
<path opacity="0.5" d="M187.393 207.991L191.598 207.335L187.393 206.679C187.025 206.623 186.684 206.451 186.42 206.188C186.156 205.925 185.982 205.585 185.924 205.217L185.268 201.012L184.612 205.217C184.554 205.585 184.38 205.925 184.116 206.188C183.852 206.451 183.511 206.623 183.142 206.679L178.938 207.335L183.142 207.991C183.511 208.048 183.852 208.22 184.116 208.483C184.38 208.746 184.554 209.086 184.612 209.454L185.268 213.659L185.924 209.454C185.982 209.086 186.156 208.746 186.42 208.483C186.684 208.22 187.025 208.048 187.393 207.991Z" fill="white"/>
<path d="M77.3164 168.087L80.0978 167.647L77.3164 167.208C77.0723 167.17 76.8466 167.056 76.6721 166.881C76.4975 166.707 76.3831 166.481 76.3455 166.237L75.9125 163.462L75.473 166.237C75.4354 166.481 75.3211 166.707 75.1465 166.881C74.9719 167.056 74.7462 167.17 74.5021 167.208L71.7207 167.647L74.5021 168.087C74.7462 168.125 74.9719 168.239 75.1465 168.414C75.3211 168.588 75.4354 168.814 75.473 169.058L75.9125 171.833L76.3455 169.058C76.3831 168.814 76.4975 168.588 76.6721 168.414C76.8466 168.239 77.0723 168.125 77.3164 168.087Z" fill="#24BEE1"/>
<path opacity="0.5" d="M77.3164 168.087L80.0978 167.647L77.3164 167.208C77.0723 167.17 76.8466 167.056 76.6721 166.881C76.4975 166.707 76.3831 166.481 76.3455 166.237L75.9125 163.462L75.473 166.237C75.4354 166.481 75.3211 166.707 75.1465 166.881C74.9719 167.056 74.7462 167.17 74.5021 167.208L71.7207 167.647L74.5021 168.087C74.7462 168.125 74.9719 168.239 75.1465 168.414C75.3211 168.588 75.4354 168.814 75.473 169.058L75.9125 171.833L76.3455 169.058C76.3831 168.814 76.4975 168.588 76.6721 168.414C76.8466 168.239 77.0723 168.125 77.3164 168.087Z" fill="white"/>
<path d="M257.756 174.227L260.537 173.794L257.756 173.355C257.512 173.316 257.287 173.202 257.113 173.027C256.938 172.853 256.823 172.628 256.785 172.384L256.345 169.603L255.912 172.384C255.874 172.628 255.759 172.853 255.585 173.027C255.41 173.202 255.185 173.316 254.942 173.355L252.16 173.794L254.942 174.227C255.185 174.266 255.41 174.381 255.585 174.555C255.759 174.729 255.874 174.955 255.912 175.198L256.345 177.98L256.785 175.198C256.823 174.955 256.938 174.729 257.113 174.555C257.287 174.381 257.512 174.266 257.756 174.227Z" fill="#24BEE1"/>
<path opacity="0.5" d="M257.756 174.227L260.537 173.794L257.756 173.355C257.512 173.316 257.287 173.202 257.113 173.027C256.938 172.853 256.823 172.628 256.785 172.384L256.345 169.603L255.912 172.384C255.874 172.628 255.759 172.853 255.585 173.027C255.41 173.202 255.185 173.316 254.942 173.355L252.16 173.794L254.942 174.227C255.185 174.266 255.41 174.381 255.585 174.555C255.759 174.729 255.874 174.955 255.912 175.198L256.345 177.98L256.785 175.198C256.823 174.955 256.938 174.729 257.113 174.555C257.287 174.381 257.512 174.266 257.756 174.227Z" fill="white"/>
<path d="M130.643 151.11L133.365 150.683L130.643 150.257C130.404 150.22 130.183 150.107 130.012 149.936C129.842 149.765 129.729 149.545 129.692 149.306L129.259 146.577L128.833 149.306C128.794 149.544 128.682 149.765 128.511 149.935C128.34 150.106 128.12 150.219 127.881 150.257L125.152 150.683L127.881 151.11C128.12 151.148 128.34 151.261 128.511 151.431C128.682 151.602 128.794 151.823 128.833 152.061L129.233 154.816L129.666 152.087C129.699 151.84 129.813 151.61 129.99 151.434C130.166 151.257 130.396 151.143 130.643 151.11Z" fill="white"/>
<path d="M220.836 178.045L223.565 177.612L220.836 177.186C220.597 177.147 220.377 177.035 220.206 176.864C220.035 176.693 219.923 176.473 219.885 176.234L219.458 173.505L219.032 176.234C218.993 176.473 218.881 176.693 218.71 176.864C218.539 177.035 218.319 177.147 218.081 177.186L215.352 177.612L218.081 178.045C218.319 178.082 218.54 178.195 218.711 178.365C218.882 178.536 218.994 178.757 219.032 178.996L219.458 181.719L219.885 178.996C219.922 178.757 220.034 178.536 220.205 178.365C220.376 178.195 220.597 178.082 220.836 178.045Z" fill="white"/>
</svg>
