<svg width="32" height="32" viewBox="0 0 32 32" fill="none" xmlns="http://www.w3.org/2000/svg">
<g clip-path="url(#clip0)">
<path d="M16 32C24.8366 32 32 24.8366 32 16C32 7.16344 24.8366 0 16 0C7.16344 0 0 7.16344 0 16C0 24.8366 7.16344 32 16 32Z" fill="#91C6E0"/>
<path d="M28.4748 4.6543V26.0212C27.9903 26.6239 27.4626 27.1908 26.8964 27.7172C26.2283 28.3396 25.506 28.9044 24.7387 29.4054C22.227 31.0465 19.2256 32 16.0014 32C12.7772 32 9.77578 31.0459 7.26347 29.4054C6.49609 28.9038 5.77384 28.3389 5.10578 27.7165C4.53959 27.1902 4.01191 26.6233 3.52734 26.0205V4.6543H28.4748Z" fill="white"/>
<path d="M28.473 4.6543H3.52539V7.78898H28.473V4.6543Z" fill="#E6E5E5"/>
<path d="M29.812 4.27058V5.56233C29.812 6.21539 29.2824 6.74502 28.6293 6.74502H3.37019C2.7165 6.74502 2.1875 6.21539 2.1875 5.56233V4.27058C2.1875 3.61752 2.7165 3.08789 3.37019 3.08789H28.6293C29.2824 3.08789 29.812 3.61752 29.812 4.27058Z" fill="#263E82"/>
<path d="M29.812 4.27058V4.71333C29.812 5.36639 29.2824 5.89602 28.6293 5.89602H3.37019C2.7165 5.89602 2.1875 5.36639 2.1875 4.71333V4.27058C2.1875 3.61752 2.7165 3.08789 3.37019 3.08789H28.6293C29.2824 3.08789 29.812 3.61752 29.812 4.27058Z" fill="#384E99"/>
<path d="M5.10645 17.3939V10.8542C5.10645 10.3878 5.48451 10.0098 5.95088 10.0098H10.3465C10.8129 10.0098 11.191 10.3878 11.191 10.8542V17.3939C11.191 17.8603 10.8129 18.2383 10.3465 18.2383H5.95095C5.48457 18.2384 5.10645 17.8603 5.10645 17.3939Z" fill="#384E99"/>
<path d="M10.2614 10.9375H6.03125V17.3121H10.2614V10.9375Z" fill="#C5DEEA"/>
<path d="M10.7842 12.4434H5.51074V13.4289H10.7842V12.4434Z" fill="#384E99"/>
<path d="M12.96 17.3939V10.8542C12.96 10.3878 13.338 10.0098 13.8044 10.0098H18.2C18.6664 10.0098 19.0445 10.3878 19.0445 10.8542V17.3939C19.0445 17.8603 18.6664 18.2383 18.2 18.2383H13.8044C13.338 18.2384 12.96 17.8603 12.96 17.3939Z" fill="#384E99"/>
<path d="M18.115 10.9375H13.8848V17.3121H18.115V10.9375Z" fill="#C5DEEA"/>
<path d="M18.6339 12.4434H13.3604V13.4289H18.6339V12.4434Z" fill="#384E99"/>
<path d="M20.8066 17.3939V10.8542C20.8066 10.3878 21.1847 10.0098 21.6511 10.0098H26.0467C26.5131 10.0098 26.8911 10.3878 26.8911 10.8542V17.3939C26.8911 17.8603 26.5131 18.2383 26.0467 18.2383H21.6511C21.1847 18.2384 20.8066 17.8603 20.8066 17.3939Z" fill="#384E99"/>
<path d="M25.9685 10.9375H21.7383V17.3121H25.9685V10.9375Z" fill="#C5DEEA"/>
<path d="M26.4883 12.4434H21.2148V13.4289H26.4883V12.4434Z" fill="#384E99"/>
<path d="M11.1891 22.0203V28.56C11.1891 29.0263 10.8109 29.4044 10.3446 29.4044H7.26218C6.4948 28.9028 5.77255 28.338 5.10449 27.7156V22.0202C5.10449 21.5539 5.48262 21.1758 5.94893 21.1758H10.3447C10.811 21.1758 11.1891 21.554 11.1891 22.0203Z" fill="#384E99"/>
<path d="M10.2614 22.1035H6.03125V28.4781H10.2614V22.1035Z" fill="#C5DEEA"/>
<path d="M10.7842 23.6113H5.51074V24.5968H10.7842V23.6113Z" fill="#384E99"/>
<path d="M12.96 28.5619V22.0222C12.96 21.5558 13.338 21.1777 13.8044 21.1777H18.2C18.6664 21.1777 19.0445 21.5558 19.0445 22.0222V28.5619C19.0445 29.0282 18.6664 29.4062 18.2 29.4062H13.8044C13.338 29.4063 12.96 29.0282 12.96 28.5619Z" fill="#384E99"/>
<path d="M18.115 22.1035H13.8848V28.4781H18.115V22.1035Z" fill="#C5DEEA"/>
<path d="M18.6339 23.6094H13.3604V24.5949H18.6339V23.6094Z" fill="#384E99"/>
<path d="M26.8912 22.0202V27.7162C26.2231 28.3386 25.5008 28.9035 24.7335 29.4044H21.6511C21.1848 29.4044 20.8066 29.0263 20.8066 28.56V22.0202C20.8066 21.5539 21.1848 21.1758 21.6511 21.1758H26.0468C26.5131 21.1758 26.8912 21.5539 26.8912 22.0202Z" fill="#384E99"/>
<path d="M25.9685 22.1035H21.7383V28.4781H25.9685V22.1035Z" fill="#C5DEEA"/>
<path d="M26.4883 23.6113H21.2148V24.5968H26.4883V23.6113Z" fill="#384E99"/>
<path d="M12.8728 8.75675H19.13C19.7167 8.75675 20.1923 8.28113 20.1923 7.6945V1.43725C20.1923 0.850563 19.7166 0.375 19.13 0.375H12.8728C12.2861 0.375 11.8105 0.850625 11.8105 1.43725V7.69444C11.8105 8.28113 12.2862 8.75675 12.8728 8.75675Z" fill="#C5DEEA"/>
<path d="M13.543 5.57823C13.543 5.61204 13.5433 5.64579 13.5439 5.67948C13.6027 8.86635 18.3985 8.86635 18.4573 5.67948C18.4579 5.64579 18.4582 5.6121 18.4582 5.57823C18.4582 3.68442 17.4796 2.0193 16.0005 1.06055C14.5217 2.0193 13.543 3.68436 13.543 5.57823Z" fill="#FF5B47"/>
<path d="M17.7314 4.53464H16.9124C16.7736 4.53464 16.661 4.42214 16.661 4.28327V3.46427C16.661 3.32545 16.5485 3.21289 16.4097 3.21289H15.5907C15.4519 3.21289 15.3393 3.32539 15.3393 3.46427V4.28327C15.3393 4.42208 15.2268 4.53464 15.088 4.53464H14.269C14.1301 4.53464 14.0176 4.64714 14.0176 4.78602V5.60502C14.0176 5.74383 14.1301 5.85639 14.269 5.85639H15.088C15.2268 5.85639 15.3393 5.96889 15.3393 6.10777V6.92677C15.3393 7.06558 15.4518 7.17815 15.5907 7.17815H16.4097C16.5485 7.17815 16.6611 7.06565 16.6611 6.92677V6.10764C16.6611 5.96883 16.7736 5.85627 16.9125 5.85627H17.7315C17.8703 5.85627 17.9828 5.74377 17.9828 5.60489V4.78602C17.9828 4.64714 17.8703 4.53464 17.7314 4.53464Z" fill="white"/>
</g>
<defs>
<clipPath id="clip0">
<rect width="32" height="32" fill="white"/>
</clipPath>
</defs>
</svg>
