<svg width="12" height="12" viewBox="0 0 12 12" fill="none" xmlns="http://www.w3.org/2000/svg">
<circle cx="6" cy="6" r="6" fill="#ECEDF0"/>
<path d="M8.70705 7.96562C8.55968 7.61654 8.34581 7.29946 8.07736 7.03203C7.80973 6.76384 7.4927 6.55 7.14377 6.40234C7.14064 6.40078 7.13752 6.4 7.13439 6.39844C7.62111 6.04688 7.93752 5.47422 7.93752 4.82812C7.93752 3.75781 7.07033 2.89062 6.00002 2.89062C4.92971 2.89062 4.06252 3.75781 4.06252 4.82812C4.06252 5.47422 4.37893 6.04687 4.86564 6.39922C4.86252 6.40078 4.85939 6.40156 4.85627 6.40312C4.50627 6.55078 4.19221 6.7625 3.92268 7.03281C3.65448 7.30044 3.44065 7.61748 3.29299 7.96641C3.14793 8.30801 3.06969 8.67425 3.06252 9.04531C3.06231 9.05365 3.06377 9.06195 3.06682 9.06971C3.06987 9.07747 3.07444 9.08455 3.08026 9.09052C3.08609 9.09649 3.09305 9.10123 3.10074 9.10447C3.10842 9.10771 3.11668 9.10938 3.12502 9.10938H3.59377C3.62814 9.10938 3.65549 9.08203 3.65627 9.04844C3.67189 8.44531 3.91408 7.88047 4.34221 7.45234C4.78518 7.00938 5.37346 6.76562 6.00002 6.76562C6.62658 6.76562 7.21486 7.00938 7.65783 7.45234C8.08596 7.88047 8.32814 8.44531 8.34377 9.04844C8.34455 9.08281 8.37189 9.10938 8.40627 9.10938H8.87502C8.88336 9.10938 8.89162 9.10771 8.8993 9.10447C8.90699 9.10123 8.91395 9.09649 8.91978 9.09052C8.9256 9.08455 8.93017 9.07747 8.93322 9.06971C8.93627 9.06195 8.93773 9.05365 8.93752 9.04531C8.92971 8.67188 8.85236 8.30859 8.70705 7.96562ZM6.00002 6.17188C5.64143 6.17188 5.30393 6.03203 5.05002 5.77813C4.79611 5.52422 4.65627 5.18672 4.65627 4.82812C4.65627 4.46953 4.79611 4.13203 5.05002 3.87812C5.30393 3.62422 5.64143 3.48438 6.00002 3.48438C6.35861 3.48438 6.69611 3.62422 6.95002 3.87812C7.20393 4.13203 7.34377 4.46953 7.34377 4.82812C7.34377 5.18672 7.20393 5.52422 6.95002 5.77813C6.69611 6.03203 6.35861 6.17188 6.00002 6.17188Z" fill="#9292A3"/>
</svg>
