<svg width="12" height="16" viewBox="0 0 12 16" fill="none" xmlns="http://www.w3.org/2000/svg">
<path d="M2.99933 2.66666H8.99932C9.18332 2.66666 9.33266 2.51731 9.33266 2.33331V1.66666C9.33266 1.11531 8.88401 0.666656 8.33266 0.666656H7.15001C6.91467 0.26 6.47798 0 5.99932 0C5.52067 0 5.08398 0.26 4.84867 0.666656H3.66601C3.11467 0.666656 2.66602 1.11531 2.66602 1.66666V2.33331C2.66598 2.51734 2.81533 2.66666 2.99933 2.66666Z" fill="white"/>
<path d="M11 1.33304H10.3333C10.1493 1.33304 10 1.48238 10 1.66638V2.33304C10 2.88438 9.55134 3.33304 9 3.33304H3C2.44866 3.33304 2 2.88438 2 2.33304V1.66635C2 1.48235 1.85066 1.33301 1.66666 1.33301H1C0.448656 1.33301 0 1.78166 0 2.33301V14.9997C0 15.551 0.448656 15.9997 1 15.9997H11C11.5513 15.9997 12 15.551 12 14.9997V2.33304C12 1.7817 11.5513 1.33304 11 1.33304ZM2.33334 13.6664C1.966 13.6664 1.66669 13.367 1.66669 12.9997C1.66669 12.6324 1.96603 12.333 2.33334 12.333C2.70069 12.333 3 12.6324 3 12.9997C3 13.367 2.70066 13.6664 2.33334 13.6664ZM2.33334 10.9997C1.966 10.9997 1.66669 10.7004 1.66669 10.333C1.66669 9.96573 1.96603 9.66638 2.33334 9.66638C2.70069 9.66638 3 9.96573 3 10.333C3 10.7004 2.70066 10.9997 2.33334 10.9997ZM2.33334 8.33304C1.966 8.33304 1.66669 8.0337 1.66669 7.66638C1.66669 7.29904 1.96603 6.99973 2.33334 6.99973C2.70069 6.99973 3 7.29907 3 7.66638C3 8.0337 2.70066 8.33304 2.33334 8.33304ZM2.33334 5.66635C1.966 5.66635 1.66669 5.36701 1.66669 4.9997C1.66669 4.63238 1.96603 4.33304 2.33334 4.33304C2.70069 4.33304 3 4.63238 3 4.9997C3 5.36701 2.70066 5.66635 2.33334 5.66635ZM7 13.333H4.33334C4.14934 13.333 4 13.1837 4 12.9997C4 12.8157 4.14934 12.6664 4.33334 12.6664H7C7.184 12.6664 7.33334 12.8157 7.33334 12.9997C7.33334 13.1837 7.184 13.333 7 13.333ZM10.3333 10.6664H4.33334C4.14934 10.6664 4 10.517 4 10.333C4 10.149 4.14934 9.9997 4.33334 9.9997H10.3333C10.5173 9.9997 10.6667 10.149 10.6667 10.333C10.6667 10.517 10.5173 10.6664 10.3333 10.6664ZM10.3333 7.9997H4.33334C4.14934 7.9997 4 7.85035 4 7.66635C4 7.48235 4.14934 7.33301 4.33334 7.33301H10.3333C10.5173 7.33301 10.6667 7.48235 10.6667 7.66635C10.6667 7.85035 10.5173 7.9997 10.3333 7.9997ZM10.3333 5.33304H4.33334C4.14934 5.33304 4 5.1837 4 4.9997C4 4.8157 4.14934 4.66635 4.33334 4.66635H10.3333C10.5173 4.66635 10.6667 4.8157 10.6667 4.9997C10.6667 5.1837 10.5173 5.33304 10.3333 5.33304Z" fill="white"/>
</svg>
