<svg width="16" height="16" viewBox="0 0 16 16" fill="none" xmlns="http://www.w3.org/2000/svg">
  <g clip-path="url(#clip0)">
    <path d="M8 4.6875C6.70766 4.6875 5.65625 3.63609 5.65625 2.34375C5.65625 1.05141 6.70766 0 8 0C9.29234 0 10.3438 1.05141 10.3438 2.34375C10.3438 3.63609 9.29234 4.6875 8 4.6875ZM8 0.9375C7.22459 0.9375 6.59375 1.56834 6.59375 2.34375C6.59375 3.11916 7.22459 3.75 8 3.75C8.77541 3.75 9.40625 3.11916 9.40625 2.34375C9.40625 1.56834 8.77541 0.9375 8 0.9375Z" fill="#9292A3"/>
    <path d="M0.313552 13.3902C-0.332636 12.2709 0.0522082 10.8347 1.17143 10.1885C2.29071 9.54237 3.7269 9.92722 4.37305 11.0464C5.02074 12.1682 4.63711 13.6003 3.51518 14.248C2.38886 14.8983 0.955614 14.5022 0.313552 13.3902ZM1.64018 11.0004C0.968646 11.3881 0.737771 12.2499 1.12546 12.9214C1.5113 13.5897 2.3719 13.8256 3.04643 13.4361C3.71949 13.0475 3.9498 12.1883 3.56118 11.5152C3.17346 10.8437 2.31174 10.6127 1.64018 11.0004Z" fill="#9292A3"/>
    <path d="M12.4842 14.248C11.3624 13.6004 10.9786 12.1684 11.6263 11.0464C12.2725 9.92723 13.7088 9.54236 14.828 10.1885C15.9471 10.8347 16.332 12.2709 15.6858 13.3902C15.0425 14.5043 13.608 14.8969 12.4842 14.248ZM12.4382 11.5152C12.0496 12.1882 12.2798 13.0475 12.953 13.4361C13.6245 13.8238 14.4862 13.5929 14.874 12.9214C15.2616 12.2499 15.0308 11.3881 14.3592 11.0004C13.6842 10.6107 12.8239 10.8472 12.4382 11.5152Z" fill="#9292A3"/>
    <path d="M1.91559 8.59745L0.979492 8.54592C1.04068 7.43466 1.37012 6.34116 1.93221 5.38363C2.47874 4.45256 3.24518 3.64722 4.14868 3.05469L4.66281 3.83863C3.04837 4.89744 2.02137 6.67644 1.91559 8.59745Z" fill="#9292A3"/>
    <path d="M14.0841 8.59745C13.9784 6.67644 12.9514 4.89744 11.3369 3.83863L11.851 3.05469C12.7545 3.64722 13.521 4.45253 14.0675 5.38363C14.6296 6.34116 14.959 7.43466 15.0202 8.54592L14.0841 8.59745Z" fill="#9292A3"/>
    <path d="M7.99961 16.0001C6.88474 16.0001 5.81836 15.7466 4.83008 15.2468L5.25324 14.4102C6.10908 14.8431 7.03311 15.0626 7.99961 15.0626C8.96612 15.0626 9.89015 14.8431 10.746 14.4102L11.1692 15.2468C10.1809 15.7466 9.11449 16.0001 7.99961 16.0001Z" fill="#9292A3"/>
  </g>
  <defs>
    <clipPath id="clip0">
      <rect width="16" height="16" fill="white"/>
    </clipPath>
  </defs>
</svg>
