<svg width="14" height="14" viewBox="0 0 14 14" fill="none" xmlns="http://www.w3.org/2000/svg">
<path d="M14 6.60937L7.48243 0.0917969V4.36158C5.52981 4.46395 3.70858 5.27314 2.31561 6.66611C0.822363 8.15932 0 10.1447 0 12.2565V13.909L0.794855 12.4602C2.035 10.1997 4.40896 8.79539 6.99021 8.79539C7.15389 8.79539 7.31845 8.80119 7.48243 8.81268V13.1269L14 6.60937ZM6.99021 7.94828C4.67849 7.94828 2.51511 8.95432 1.03094 10.6522C1.75921 7.53014 4.56528 5.19756 7.90595 5.19756H8.32948V2.13678L12.802 6.60934L8.32948 11.0819V8.05397L7.95802 8.00795C7.63839 7.96838 7.31279 7.94828 6.99021 7.94828Z" fill="#9292A3"/>
</svg>
