<svg width="18" height="18" viewBox="0 0 18 18" fill="none" xmlns="http://www.w3.org/2000/svg">
<path d="M4.22731 15.75H5.1895C5.25492 15.75 5.31651 15.7207 5.35499 15.6727L8.99976 11.0836L12.6445 15.6727C12.683 15.7207 12.7446 15.75 12.81 15.75H13.7722C13.8556 15.75 13.9043 15.6633 13.8556 15.6012L9.33203 9.90469C9.16782 9.69844 8.8317 9.69844 8.66876 9.90469L4.1452 15.6012C4.09517 15.6633 4.14392 15.75 4.22731 15.75Z" fill="#9292A3"/>
<path d="M13.7727 2.25H12.8105C12.7451 2.25 12.6835 2.2793 12.645 2.32734L9.00024 6.91641L5.35548 2.32734C5.31699 2.2793 5.25541 2.25 5.18998 2.25H4.2278C4.14441 2.25 4.09566 2.33672 4.14441 2.39883L8.66797 8.09531C8.83218 8.30156 9.1683 8.30156 9.33124 8.09531L13.8548 2.39883C13.9048 2.33672 13.8561 2.25 13.7727 2.25Z" fill="#9292A3"/>
</svg>
