<svg width="24" height="24" viewBox="0 0 24 24" fill="none" xmlns="http://www.w3.org/2000/svg">
<g clip-path="url(#clip0)">
<path d="M21.0138 4.08093C20.8855 3.93519 20.6633 3.92104 20.5176 4.04928C20.3718 4.17758 20.3576 4.39977 20.4859 4.5455C22.2474 6.54678 23.2318 9.0806 23.2929 11.737L17.6069 13.4094C17.5596 12.8444 17.0849 12.3991 16.5079 12.3991H7.48888C6.9119 12.3991 6.43724 12.8444 6.38985 13.4094L0.706642 11.7378C0.707251 11.7115 0.707298 11.6852 0.708048 11.6589C0.794016 8.77123 1.96697 6.05534 4.01085 4.01155C6.05474 1.96766 8.77063 0.79476 11.6582 0.708791C14.5334 0.62287 17.302 1.61957 19.4547 3.51425C19.6004 3.64255 19.8227 3.62844 19.9509 3.48261C20.0792 3.33688 20.065 3.11469 19.9193 2.9864C17.6323 0.973447 14.6913 -0.0847073 11.6373 0.00585502C8.56977 0.0971674 5.68471 1.34315 3.51356 3.51425C1.34245 5.68536 0.0964709 8.57046 0.00515857 11.638C-0.0857319 14.6917 0.972751 17.6329 2.9857 19.92C3.05517 19.9989 3.1522 20.0393 3.24979 20.0393C3.33229 20.0393 3.41512 20.0104 3.48196 19.9516C3.6277 19.8233 3.6419 19.6011 3.51361 19.4554C2.91239 18.7723 2.40192 18.027 1.9875 17.2361H6.38573V17.9066C6.38573 18.5856 6.84688 19.1769 7.50725 19.3446C8.97631 19.7177 10.4874 19.9043 11.9984 19.9043C13.5094 19.9043 15.0206 19.7177 16.4896 19.3446C17.15 19.1768 17.6111 18.5855 17.6111 17.9066V17.2361H22.0143C21.4885 18.2405 20.8089 19.1692 19.9887 19.9894C17.9448 22.0333 15.229 23.2062 12.3413 23.2922C9.46648 23.3772 6.69754 22.3814 4.54481 20.4867C4.39907 20.3583 4.17684 20.3725 4.04859 20.5183C3.92029 20.6641 3.93445 20.8862 4.08023 21.0145C6.27655 22.9476 9.07616 24.0004 11.9994 24.0004C12.1201 24.0004 12.2411 23.9986 12.3623 23.995C15.4298 23.9037 18.3149 22.6578 20.486 20.4866C22.6571 18.3155 23.9031 15.4304 23.9944 12.3629C24.0852 9.30921 23.0267 6.36795 21.0138 4.08093ZM6.38568 16.5329H1.64948V16.5328C1.09097 15.2586 0.771142 13.8846 0.712782 12.4727L6.38568 14.1412V16.5329ZM16.3165 18.663C13.4915 19.3805 10.5052 19.3805 7.68027 18.663C7.33204 18.5746 7.08885 18.2635 7.08885 17.9066V13.5023C7.08885 13.2817 7.26829 13.1023 7.48883 13.1023H16.5079C16.7285 13.1023 16.9079 13.2817 16.9079 13.5023V17.9066H16.908C16.9079 18.2635 16.6647 18.5746 16.3165 18.663ZM22.3517 16.5328H17.6111V14.1411L23.2861 12.4721C23.2277 13.8888 22.908 15.2621 22.3517 16.5328Z" fill="#9292A3"/>
<path d="M9.51085 8.671C9.33333 8.59216 9.12563 8.67208 9.04678 8.8495C8.48053 10.1235 6.38241 10.1438 6.36127 10.1439C6.1673 10.1441 6.01013 10.3014 6.01013 10.4955C6.01013 10.6896 6.16754 10.8471 6.36174 10.8471C6.46655 10.8471 8.93719 10.8276 9.68939 9.13506C9.76824 8.95764 9.68831 8.74985 9.51085 8.671Z" fill="#9292A3"/>
<path d="M17.6361 10.1439C17.615 10.1438 15.5168 10.1235 14.9505 8.84952C14.8717 8.6721 14.664 8.59213 14.4865 8.67102C14.3091 8.74987 14.2291 8.95766 14.308 9.13508C15.0602 10.8276 17.5308 10.8471 17.6356 10.8471C17.8296 10.8471 17.9867 10.69 17.987 10.496C17.9872 10.302 17.83 10.1444 17.6361 10.1439Z" fill="#9292A3"/>
<circle cx="12" cy="12" r="11.5" stroke="#9292A3"/>
</g>
<defs>
<clipPath id="clip0">
<rect width="24" height="24" fill="white"/>
</clipPath>
</defs>
</svg>
