<svg width="20" height="20" viewBox="0 0 20 20" fill="none" xmlns="http://www.w3.org/2000/svg">
<path d="M17.5301 7.37668L19.8736 2.35098L16.6874 0.865234L13.6511 7.37672H0V19.1345H20V7.37672H17.5301V7.37668ZM17.2542 2.42254L18.3162 2.91777L14.8495 10.3523L13.7874 9.85707L17.2542 2.42254ZM13.2519 11.0055L13.2921 10.9191L14.3542 11.4144L14.3117 11.5055C14.0188 12.1336 13.5535 12.6464 12.9709 12.9934C12.874 12.3489 12.9698 11.6418 13.2519 11.0055ZM18.8281 17.9626H1.17188V8.54855H13.1046L12.1833 10.5244C11.7859 11.4173 11.6693 12.4259 11.8422 13.3381C11.1693 13.414 10.546 13.418 10.3379 13.3373C10.28 13.2197 10.2306 12.894 10.2003 12.6937C10.1464 12.3386 10.0908 11.9715 9.94555 11.6509C9.64652 10.9909 9.11711 10.8923 8.8282 10.8923C8.55559 10.8923 8.06094 11.0043 7.81156 11.7545C7.70043 12.0887 7.64902 12.4925 7.59453 12.9199C7.53676 13.373 7.47707 13.8416 7.35023 14.1554C7.24477 14.4163 7.16836 14.4123 7.10109 14.4088C7.0368 14.4054 6.96039 14.2277 6.91324 14.053C6.80617 13.6565 6.77332 13.0836 6.74152 12.5295C6.70766 11.9385 6.67258 11.3273 6.54336 10.8468C6.27578 9.8518 5.64922 9.71418 5.30176 9.72055C4.91813 9.72766 4.23258 9.88777 3.95164 10.8803C3.81102 11.3771 3.79957 11.973 3.78949 12.4988C3.78402 12.7841 3.77605 13.1987 3.73367 13.3788C3.50121 13.4607 2.95965 13.3952 2.56758 13.2659L2.19719 14.3777C2.44527 14.4606 3.72145 14.8464 4.48332 14.2973C4.93328 13.973 4.94555 13.3323 4.96113 12.5213C4.96988 12.0663 4.97977 11.5507 5.07918 11.1994C5.15926 10.9165 5.2375 10.8952 5.30766 10.8926C5.33598 10.9314 5.40504 11.055 5.46258 11.3875C5.52191 11.7304 5.54605 12.1512 5.5716 12.5966C5.6068 13.2102 5.6432 13.8448 5.78195 14.3585C6.04332 15.3264 6.6102 15.5564 7.03969 15.5789C7.06402 15.5802 7.08961 15.5809 7.11645 15.5809C7.49254 15.5809 8.09664 15.4357 8.43672 14.5945C8.62039 14.1401 8.68984 13.5951 8.75699 13.068C8.78973 12.8111 8.83867 12.4273 8.90254 12.1891C8.96625 12.3715 9.01313 12.6809 9.04172 12.8692C9.12797 13.4384 9.21715 14.0268 9.69207 14.3204C9.91875 14.4604 10.3587 14.6356 11.5576 14.5414C12.1532 14.4945 12.6675 14.4025 12.6891 14.3986L12.7385 14.3896L12.7855 14.3725C13.9369 13.9535 14.8561 13.1111 15.3739 12.0007L16.9837 8.54848H18.8281V17.9626Z" fill="#9292A3"/>
<path d="M16.4453 12.0645H17.6172V14.4082H16.4453V12.0645Z" fill="#9292A3"/>
</svg>
