<svg width="70" height="70" viewBox="0 0 70 70" fill="none" xmlns="http://www.w3.org/2000/svg">
  <path d="M35 0C15.6719 0 0 15.6719 0 35C0 54.3281 15.6719 70 35 70C54.3281 70 70 54.3281 70 35C70 15.6719 54.3281 0 35 0ZM35 64.0625C18.9531 64.0625 5.9375 51.0469 5.9375 35C5.9375 18.9531 18.9531 5.9375 35 5.9375C51.0469 5.9375 64.0625 18.9531 64.0625 35C64.0625 51.0469 51.0469 64.0625 35 64.0625Z" fill="#24BEE1"/>
  <path d="M49.6066 22.5781H45.9425C45.1456 22.5781 44.3878 22.9609 43.919 23.6172L31.6377 40.6484L26.0752 32.9297C25.6065 32.2812 24.8565 31.8906 24.0518 31.8906H20.3877C19.8799 31.8906 19.583 32.4687 19.8799 32.8828L29.6143 46.3828C29.8443 46.7038 30.1474 46.9653 30.4986 47.1457C30.8498 47.3261 31.239 47.4203 31.6338 47.4203C32.0287 47.4203 32.4178 47.3261 32.7691 47.1457C33.1203 46.9653 33.4234 46.7038 33.6534 46.3828L50.1066 23.5703C50.4113 23.1563 50.1144 22.5781 49.6066 22.5781Z" fill="#24BEE1"/>
</svg>
