<svg width="17" height="13" viewBox="0 0 17 13" fill="none" xmlns="http://www.w3.org/2000/svg">
<path d="M0 5.6C0 5.82091 0.179086 6 0.4 6H4.6C4.82091 6 5 5.82091 5 5.6V0.4C5 0.179086 4.82091 0 4.6 0H0.4C0.179086 0 0 0.179086 0 0.4V5.6ZM0 12.6C0 12.8209 0.179086 13 0.4 13H4.6C4.82091 13 5 12.8209 5 12.6V7.4C5 7.17909 4.82091 7 4.6 7H0.4C0.179086 7 0 7.17909 0 7.4V12.6ZM6 12.6C6 12.8209 6.17909 13 6.4 13H10.6C10.8209 13 11 12.8209 11 12.6V7.4C11 7.17909 10.8209 7 10.6 7H6.4C6.17909 7 6 7.17909 6 7.4V12.6ZM12 12.6C12 12.8209 12.1791 13 12.4 13H16.6C16.8209 13 17 12.8209 17 12.6V7.4C17 7.17909 16.8209 7 16.6 7H12.4C12.1791 7 12 7.17909 12 7.4V12.6ZM6 5.6C6 5.82091 6.17909 6 6.4 6H10.6C10.8209 6 11 5.82091 11 5.6V0.4C11 0.179086 10.8209 0 10.6 0H6.4C6.17909 0 6 0.179086 6 0.4V5.6ZM12.4 0C12.1791 0 12 0.179086 12 0.4V5.6C12 5.82091 12.1791 6 12.4 6H16.6C16.8209 6 17 5.82091 17 5.6V0.4C17 0.179086 16.8209 0 16.6 0H12.4Z"/>
</svg>
