<svg xmlns="http://www.w3.org/2000/svg" fill="none" viewBox="0 0 24 24" height="24" width="24">
<g clip-path="url(#clip0)">
<path fill="#9292A3" d="M23.7141 9.39128C22.4393 5.05709 17.4465 0.865234 13.6464 0.865234C11.8748 0.865234 11.1152 1.79457 11.0478 1.8373L9.05193 3.83314C8.061 4.82407 7.81678 6.39505 8.36436 8.25683C8.57799 8.98308 8.90441 9.72414 9.32711 10.4549C4.38299 10.1734 0 12.3323 0 15.3712V18.1945C0 20.9651 3.72041 23.1353 8.46991 23.1353C13.2194 23.1353 16.9398 20.9651 16.9398 18.1945V16.5883C18.4051 16.9513 19.9709 16.8707 21.0302 15.8113L23.0266 13.8149C24.0175 12.824 24.2617 11.2531 23.7141 9.39128ZM13.6464 2.27689C15.2381 2.27689 17.2512 3.24787 19.0208 4.84426L14.0556 9.80955C12.9226 8.55426 12.1005 7.17254 11.7151 5.86215C11.3257 4.5383 11.4465 3.43491 12.0465 2.83491C12.4168 2.46464 12.9551 2.27689 13.6464 2.27689ZM15.3864 16.041C15.126 16.6614 14.5144 17.2594 13.622 17.7461C12.4229 18.4002 10.8645 18.7959 9.17573 18.8823V11.8607C9.57631 11.8814 9.9719 11.9201 10.359 11.9759C11.656 13.6323 13.4472 15.1606 15.3864 16.041ZM3.31785 12.9964C4.51695 12.3423 6.07528 11.9466 7.76408 11.8602V18.8823C6.07532 18.7959 4.51695 18.4002 3.31785 17.7461C2.10647 17.0854 1.41165 16.2197 1.41165 15.3712C1.41165 14.5227 2.10647 13.6571 3.31785 12.9964ZM13.622 20.5694C10.7975 22.1101 6.14167 22.1097 3.31785 20.5694C2.10647 19.9087 1.41165 19.043 1.41165 18.1945V18.1377C4.71713 21.0372 12.2218 21.0381 15.5282 18.1377C15.5164 18.1678 15.7088 19.4312 13.622 20.5694ZM17.0048 15.1447C13.9232 14.2382 10.6278 10.9495 9.7187 7.85851C9.32932 6.53466 9.45016 5.43131 10.0501 4.83132L10.0903 4.79118C10.221 6.78909 11.4372 9.21303 13.5438 11.3195C15.5633 13.3391 18.0282 14.6356 20.0717 14.7736L20.032 14.8132C19.4319 15.4132 18.3286 15.5339 17.0048 15.1447ZM20.4284 13.3748C18.8368 13.3748 16.8237 12.4038 15.054 10.8074L20.0192 5.84225C21.1523 7.09749 21.9744 8.47926 22.3598 9.78965C22.7492 11.1135 22.6284 12.2168 22.0284 12.8168C21.658 13.1871 21.1198 13.3748 20.4284 13.3748Z"></path>
</g>
<defs>
<clipPath id="clip0">
<rect fill="white" height="24" width="24"></rect>
</clipPath>
</defs>
</svg>
