<svg width="24" height="24" viewBox="0 0 24 24" fill="none" xmlns="http://www.w3.org/2000/svg">
<path d="M10.5162 10.76C10.5162 9.89844 11.1983 9.2 12.0397 9.2C12.881 9.2 13.5631 9.89844 13.5631 10.76C13.5631 11.6216 12.881 12.32 12.0397 12.32C11.1983 12.32 10.5162 11.6216 10.5162 10.76ZM16.4927 10.76C16.4927 8.2456 14.4951 6.2 12.0397 6.2C9.58427 6.2 7.5866 8.2456 7.5866 10.76C7.5866 13.2744 9.58427 15.32 12.0397 15.32C14.4951 15.32 16.4927 13.2744 16.4927 10.76ZM14.9302 10.76C14.9302 12.3922 13.6335 13.72 12.0397 13.72C10.4458 13.72 9.14908 12.3922 9.14908 10.76C9.14908 9.12784 10.4458 7.8 12.0397 7.8C13.6335 7.8 14.9302 9.12784 14.9302 10.76ZM12.9459 18.4673C13.3748 18.4187 13.6839 18.0233 13.6365 17.5842C13.589 17.145 13.2034 16.8285 12.774 16.877C12.5227 16.9055 12.2682 16.92 12.0177 16.92C8.22456 16.92 5.07988 13.5999 3.81974 11.6381C3.47713 11.1046 3.47713 10.4153 3.81974 9.88188C5.07988 7.92008 8.22456 4.6 12.0177 4.6C15.8108 4.6 18.9362 7.92328 20.185 9.88692C20.4605 10.3201 20.5144 10.8658 20.3293 11.3467C20.1711 11.7578 20.3683 12.2223 20.7697 12.3843C21.1714 12.5462 21.6249 12.3443 21.783 11.9333C22.1531 10.9715 22.0452 9.88008 21.4942 9.0138C21.0795 8.36156 19.909 6.68708 18.0039 5.2284C16.0727 3.74976 14.0586 3 12.0177 3C9.97953 3 7.96374 3.74772 6.02619 5.22236C4.11259 6.6788 2.93276 8.3512 2.51433 9.00264C1.82856 10.0702 1.82856 11.4498 2.51433 12.5174C2.93276 13.1688 4.11259 14.8412 6.02619 16.2976C7.96374 17.7723 9.97953 18.52 12.0177 18.52C12.3255 18.52 12.6378 18.5023 12.9459 18.4673ZM21.4926 17.7C21.4926 16.9526 21.0486 15.9256 20.1352 14.5601C19.5098 13.6251 18.8928 12.8752 18.8668 12.8437C18.7184 12.6638 18.5 12.56 18.27 12.56C18.04 12.56 17.8217 12.6638 17.6732 12.8437C17.6473 12.8752 17.0303 13.6252 16.4048 14.5601C15.4914 15.9256 15.0474 16.9526 15.0474 17.7C15.0474 19.5196 16.4931 21 18.27 21C20.047 21 21.4926 19.5196 21.4926 17.7ZM18.8462 15.4643C19.8779 17.0066 19.9302 17.5972 19.9302 17.7C19.9302 18.6374 19.1855 19.4 18.27 19.4C17.3546 19.4 16.6099 18.6374 16.6099 17.7C16.6099 17.5977 16.6618 17.0095 17.6868 15.4748C17.8881 15.1734 18.0909 14.8899 18.2701 14.6478C18.4469 14.8867 18.6468 15.1663 18.8462 15.4643Z" fill="#3D3D46"/>
</svg>
