<svg width="16" height="16" viewBox="0 0 16 16" fill="none" xmlns="http://www.w3.org/2000/svg">
  <path d="M11.5938 4.96875V2.875H12.9375C13.0063 2.875 13.0625 2.81875 13.0625 2.75V1.875C13.0625 1.80625 13.0063 1.75 12.9375 1.75H3.0625C2.99375 1.75 2.9375 1.80625 2.9375 1.875V2.75C2.9375 2.81875 2.99375 2.875 3.0625 2.875H4.40625V4.96875C4.40625 6.24219 5.06875 7.3625 6.06875 8C5.06875 8.6375 4.40625 9.75781 4.40625 11.0312V13.125H3.0625C2.99375 13.125 2.9375 13.1812 2.9375 13.25V14.125C2.9375 14.1938 2.99375 14.25 3.0625 14.25H12.9375C13.0063 14.25 13.0625 14.1938 13.0625 14.125V13.25C13.0625 13.1812 13.0063 13.125 12.9375 13.125H11.5938V11.0312C11.5938 9.75781 10.9312 8.6375 9.93125 8C10.9312 7.3625 11.5938 6.24219 11.5938 4.96875ZM10.4688 11.0312V13.125H5.53125V11.0312C5.53125 10.3719 5.7875 9.75156 6.25469 9.28594C6.72031 8.81875 7.34062 8.5625 8 8.5625C8.65938 8.5625 9.27969 8.81875 9.74531 9.28594C10.2125 9.75156 10.4688 10.3719 10.4688 11.0312ZM10.4688 4.96875C10.4688 5.62812 10.2125 6.24844 9.74531 6.71406C9.27969 7.18125 8.65938 7.4375 8 7.4375C7.34062 7.4375 6.72031 7.18125 6.25469 6.71406C6.02447 6.4856 5.84196 6.21365 5.71776 5.91403C5.59357 5.61441 5.53017 5.29309 5.53125 4.96875V2.875H10.4688V4.96875Z" fill="#9292A3"/>
</svg>
