<svg width="32" height="32" viewBox="0 0 32 32" fill="none" xmlns="http://www.w3.org/2000/svg">
<g clip-path="url(#clip0)">
<path d="M25.1146 27.2H3.15196C2.72613 27.198 2.34205 26.9436 2.17416 26.5522C2.00628 26.1609 2.08659 25.7072 2.37863 25.3973C3.96471 23.7048 4.91469 21.5145 5.06663 19.2V13.3333C5.06514 9.73816 7.1891 6.48212 10.48 5.03463C11.6304 4.5251 12.8751 4.26343 14.1333 4.26663C14.3626 4.26663 14.592 4.2773 14.816 4.2933C13.2746 6.75945 13.193 9.86781 14.6028 12.4114C16.0126 14.9551 18.6918 16.5333 21.6 16.5333C22.1373 16.5345 22.6735 16.4809 23.2 16.3733V19.2C23.3519 21.5145 24.3019 23.7048 25.888 25.3973C26.18 25.7072 26.2603 26.1609 26.0924 26.5522C25.9245 26.9436 25.5405 27.198 25.1146 27.2Z" fill="#DCF0F9"/>
<path d="M7.19996 25.5999H5.06663C4.77208 25.5999 4.53329 25.3611 4.53329 25.0665C4.53329 24.772 4.77208 24.5332 5.06663 24.5332H7.19996C7.49451 24.5332 7.73329 24.772 7.73329 25.0665C7.73329 25.3611 7.49451 25.5999 7.19996 25.5999Z" fill="#E8EDFC"/>
<path d="M23.2 25.5999H9.33329C9.03874 25.5999 8.79996 25.3611 8.79996 25.0665C8.79996 24.772 9.03874 24.5332 9.33329 24.5332H23.2C23.4945 24.5332 23.7333 24.772 23.7333 25.0665C23.7333 25.3611 23.4945 25.5999 23.2 25.5999Z" fill="#E8EDFC"/>
<path d="M7.19997 13.8675C6.90542 13.8675 6.66663 13.6287 6.66663 13.3341C6.66313 11.0655 7.6956 8.91947 9.47037 7.50639C9.61859 7.38291 9.82194 7.34909 10.0021 7.41796C10.1824 7.48684 10.3113 7.64766 10.3394 7.83852C10.3675 8.02939 10.2903 8.22054 10.1376 8.33839C8.61614 9.54978 7.73082 11.3893 7.7333 13.3341C7.7333 13.4756 7.67711 13.6112 7.57709 13.7113C7.47707 13.8113 7.34142 13.8675 7.19997 13.8675Z" fill="white"/>
<path d="M18.4 27.2002C18.4 29.5566 16.4897 31.4669 14.1333 31.4669C11.7769 31.4669 9.86664 29.5566 9.86664 27.2002H18.4Z" fill="#DCF0F9"/>
<path d="M17.056 1.95186C16.1589 2.57307 15.3969 3.36952 14.816 4.2932C14.592 4.2772 14.3626 4.26653 14.1333 4.26653C12.8751 4.26333 11.6304 4.525 10.48 5.03453C10.4259 4.78213 10.3991 4.52465 10.4 4.26653C10.3982 2.67766 11.4035 1.2622 12.9042 0.740319C14.4049 0.218437 16.0715 0.704764 17.056 1.95186Z" fill="#DCF0F9"/>
<path d="M29.6 8.53346C29.5985 12.9511 26.0176 16.532 21.6 16.5335C20.5629 16.5361 19.5355 16.3349 18.576 15.9415L14.6453 17.2535C14.4517 17.3164 14.2391 17.2636 14.0974 17.1174C13.9557 16.9712 13.9096 16.757 13.9786 16.5655L15.168 13.2908C13.1022 10.4976 13.0752 6.6904 15.1013 3.86825C17.1273 1.0461 20.7433 -0.145844 24.0504 0.918284C27.3575 1.98241 29.5999 5.05935 29.6 8.53346Z" fill="white"/>
<path d="M16.9759 15.9414L13.9861 16.9393C14.0872 17.2028 14.377 17.3408 14.6453 17.2534L17.7599 16.2134C17.4939 16.1368 17.2322 16.046 16.9759 15.9414Z" fill="#CAD9FC"/>
<path d="M17.3333 9.60013C17.9224 9.60013 18.4 9.12257 18.4 8.53346C18.4 7.94436 17.9224 7.4668 17.3333 7.4668C16.7442 7.4668 16.2666 7.94436 16.2666 8.53346C16.2666 9.12257 16.7442 9.60013 17.3333 9.60013Z" fill="white"/>
<path d="M21.6 9.60013C22.1891 9.60013 22.6666 9.12257 22.6666 8.53346C22.6666 7.94436 22.1891 7.4668 21.6 7.4668C21.0109 7.4668 20.5333 7.94436 20.5333 8.53346C20.5333 9.12257 21.0109 9.60013 21.6 9.60013Z" fill="white"/>
<path d="M25.8666 9.60013C26.4557 9.60013 26.9333 9.12257 26.9333 8.53346C26.9333 7.94436 26.4557 7.4668 25.8666 7.4668C25.2775 7.4668 24.8 7.94436 24.8 8.53346C24.8 9.12257 25.2775 9.60013 25.8666 9.60013Z" fill="white"/>
<path d="M3.15196 27.2008H4.75196C4.32613 27.1989 3.94205 26.9445 3.77416 26.5531C3.60628 26.1618 3.68659 25.7081 3.97863 25.3982C5.56471 23.7056 6.51469 21.5154 6.66663 19.2008V13.3342C6.66514 9.73905 8.7891 6.483 12.08 5.03551C12.0259 4.78311 11.9991 4.52564 12 4.26751C11.9994 2.5141 13.2203 0.997066 14.9333 0.622713C14.6706 0.564499 14.4024 0.534816 14.1333 0.53418C13.9975 0.534532 13.8619 0.542188 13.7269 0.557113H13.7141C13.5852 0.571421 13.4572 0.592607 13.3306 0.62058C11.6179 0.996184 10.3981 2.5141 10.4 4.26751C10.3991 4.52564 10.4259 4.78311 10.48 5.03551C7.1891 6.483 5.06514 9.73905 5.06663 13.3342V19.2008C4.91469 21.5154 3.96471 23.7056 2.37863 25.3982C2.08659 25.7081 2.00628 26.1618 2.17416 26.5531C2.34205 26.9445 2.72613 27.1989 3.15196 27.2008Z" fill="white"/>
<path d="M5.58289 8.98242L6.5333 9.46722C5.92753 10.6667 5.60806 11.9902 5.59996 13.3339H4.53329C4.54175 11.8217 4.90104 10.3322 5.58289 8.98242Z" fill="white"/>
<path d="M5.33332 11.7493C5.03877 11.7509 4.79867 11.5134 4.79705 11.2189C4.79543 10.9243 5.0329 10.6842 5.32745 10.6826H5.33332C5.62787 10.6826 5.86665 10.9214 5.86665 11.216C5.86665 11.5105 5.62787 11.7493 5.33332 11.7493Z" fill="#54B2D3"/>
<path d="M3.15198 27.7338H9.36478C9.64356 30.1564 11.6946 31.985 14.1333 31.985C16.572 31.985 18.6231 30.1564 18.9018 27.7338H25.1146C25.7455 27.7399 26.3188 27.3682 26.5706 26.7898C26.8346 26.2007 26.7208 25.5108 26.2816 25.0378C24.7926 23.4387 23.8937 21.3795 23.7333 19.2004V16.786C26.9822 15.9553 29.4424 13.2973 30.0199 9.994C30.5973 6.69068 29.1847 3.35565 26.4103 1.47205C23.6359 -0.411544 20.015 -0.493844 17.1578 1.26175C16.3607 0.451125 15.2702 -0.00363817 14.1333 0.000421112C12.9208 -0.000493838 11.7652 0.514934 10.9557 1.41773C10.1463 2.32054 9.75952 3.52529 9.89225 4.73056C9.62739 4.85922 9.36944 5.00164 9.11945 5.15722C8.74439 5.38696 8.38404 5.6399 8.04051 5.91455C7.70455 6.19868 7.3866 6.50345 7.08851 6.82709C6.48728 7.47089 5.98036 8.19669 5.58291 8.98282C5.51444 9.11011 5.5018 9.26008 5.54799 9.39704C5.59418 9.53399 5.69507 9.64567 5.82665 9.70549C6.0881 9.82435 6.39695 9.72039 6.53331 9.46762C6.88617 8.76832 7.33693 8.12289 7.87198 7.55082C8.13696 7.26326 8.41945 6.99234 8.71785 6.73962C9.02376 6.49597 9.34436 6.27137 9.67785 6.06709C10.961 5.27996 12.4295 4.84627 13.9344 4.81002C12.581 7.5692 12.8244 10.8444 14.5706 13.3732L13.4784 16.3796C13.3583 16.7062 13.4051 17.0708 13.6037 17.3565C13.8023 17.6422 14.1278 17.813 14.4757 17.8143C14.5905 17.8146 14.7047 17.7966 14.8138 17.761L18.56 16.5092C19.8664 17.0132 21.2789 17.1795 22.6666 16.993V19.2004C22.8133 21.649 23.8135 23.9687 25.4933 25.7562C25.6457 25.9179 25.6859 26.1554 25.5952 26.3583C25.5139 26.5501 25.3235 26.6726 25.1152 26.6671H3.15198C2.94371 26.6726 2.75327 26.5501 2.67198 26.3583C2.58259 26.1567 2.6225 25.9213 2.77331 25.7604C4.45378 23.9717 5.454 21.6504 5.59998 19.2004V13.3338C5.59998 13.0392 5.3612 12.8004 5.06665 12.8004C4.77209 12.8004 4.53331 13.0392 4.53331 13.3338V19.2004C4.37864 21.3816 3.47852 23.4432 1.98398 25.0394C1.54545 25.5122 1.43206 26.2014 1.69598 26.7898C1.94778 27.3682 2.52114 27.7399 3.15198 27.7338ZM10.9333 4.26709C10.9351 2.50051 12.3667 1.06885 14.1333 1.06709C14.9201 1.06576 15.6792 1.35806 16.2618 1.88682C15.5984 2.41886 15.0177 3.04651 14.5386 3.74922C14.4032 3.74335 14.2693 3.73375 14.1333 3.73375C13.0438 3.74501 11.9632 3.93213 10.9333 4.28789C10.9333 4.28095 10.9333 4.27402 10.9333 4.26709ZM18.7786 15.4484C18.6597 15.3998 18.5273 15.3952 18.4053 15.4356L14.48 16.7471L15.6693 13.4724C15.7306 13.304 15.7031 13.116 15.5962 12.9722C14.6409 11.6901 14.1275 10.1326 14.1333 8.53376C14.1333 4.41003 17.4763 1.06709 21.6 1.06709C25.7237 1.06709 29.0666 4.41003 29.0666 8.53376C29.0666 12.6575 25.7237 16.0004 21.6 16.0004C20.6324 16.0032 19.6738 15.8156 18.7786 15.4484ZM14.1333 27.7338H17.8288C17.565 29.5719 15.9903 30.9367 14.1333 30.9367C12.2763 30.9367 10.7017 29.5719 10.4378 27.7338H14.1333Z" fill="#54B2D3"/>
<path d="M4.53329 25.0675C4.53329 25.3621 4.77208 25.6008 5.06663 25.6008H7.19996C7.49451 25.6008 7.7333 25.3621 7.7333 25.0675C7.7333 24.773 7.49451 24.5342 7.19996 24.5342H5.06663C4.77208 24.5342 4.53329 24.773 4.53329 25.0675Z" fill="#54B2D3"/>
<path d="M8.79997 25.0675C8.79997 25.3621 9.03875 25.6008 9.33331 25.6008H23.2C23.4945 25.6008 23.7333 25.3621 23.7333 25.0675C23.7333 24.773 23.4945 24.5342 23.2 24.5342H9.33331C9.03875 24.5342 8.79997 24.773 8.79997 25.0675Z" fill="#54B2D3"/>
<path d="M9.47037 7.50639C7.69561 8.91947 6.66313 11.0655 6.66663 13.3341C6.66663 13.6287 6.90542 13.8675 7.19997 13.8675C7.49452 13.8675 7.7333 13.6287 7.7333 13.3341C7.73082 11.3893 8.61614 9.54978 10.1376 8.33839C10.2903 8.22054 10.3675 8.02939 10.3394 7.83852C10.3113 7.64766 10.1824 7.48684 10.0022 7.41796C9.82194 7.34909 9.61859 7.38291 9.47037 7.50639Z" fill="#54B2D3"/>
<path d="M17.3333 6.93359C16.4497 6.93359 15.7333 7.64994 15.7333 8.53359C15.7333 9.41725 16.4497 10.1336 17.3333 10.1336C18.217 10.1336 18.9333 9.41725 18.9333 8.53359C18.9333 7.64994 18.217 6.93359 17.3333 6.93359ZM17.3333 9.06693C17.0388 9.06693 16.8 8.82814 16.8 8.53359C16.8 8.23904 17.0388 8.00026 17.3333 8.00026C17.6279 8.00026 17.8667 8.23904 17.8667 8.53359C17.8667 8.82814 17.6279 9.06693 17.3333 9.06693Z" fill="#54B2D3"/>
<path d="M21.6 6.93359C20.7163 6.93359 20 7.64994 20 8.53359C20 9.41725 20.7163 10.1336 21.6 10.1336C22.4836 10.1336 23.2 9.41725 23.2 8.53359C23.2 7.64994 22.4836 6.93359 21.6 6.93359ZM21.6 9.06693C21.3054 9.06693 21.0666 8.82814 21.0666 8.53359C21.0666 8.23904 21.3054 8.00026 21.6 8.00026C21.8945 8.00026 22.1333 8.23904 22.1333 8.53359C22.1333 8.82814 21.8945 9.06693 21.6 9.06693Z" fill="#54B2D3"/>
<path d="M27.4666 8.53359C27.4666 7.64994 26.7503 6.93359 25.8666 6.93359C24.983 6.93359 24.2666 7.64994 24.2666 8.53359C24.2666 9.41725 24.983 10.1336 25.8666 10.1336C26.7503 10.1336 27.4666 9.41725 27.4666 8.53359ZM25.8666 9.06693C25.5721 9.06693 25.3333 8.82814 25.3333 8.53359C25.3333 8.23904 25.5721 8.00026 25.8666 8.00026C26.1612 8.00026 26.4 8.23904 26.4 8.53359C26.4 8.82814 26.1612 9.06693 25.8666 9.06693Z" fill="#54B2D3"/>
</g>
<defs>
<clipPath id="clip0">
<rect width="32" height="32" fill="white"/>
</clipPath>
</defs>
</svg>
