<svg width="32" height="32" viewBox="0 0 32 32" fill="none" xmlns="http://www.w3.org/2000/svg">
<path d="M18.6667 3.73268V15.466C18.6649 16.0544 18.1884 16.5309 17.6 16.5327H8L3.568 19.626C3.39388 19.7484 3.16622 19.7641 2.97699 19.6666C2.78776 19.5692 2.66822 19.3748 2.66667 19.162V16.5327H1.6C1.01163 16.5309 0.53509 16.0544 0.533333 15.466V3.73268C0.53509 3.14431 1.01163 2.66777 1.6 2.66602H3.2V13.3327C3.20176 13.9211 3.67829 14.3976 4.26667 14.3993H14.9333C15.5217 14.3976 15.9982 13.9211 16 13.3327V2.66602H17.6C18.1884 2.66777 18.6649 3.14431 18.6667 3.73268Z" fill="#DCF0F9"/>
<path d="M31.4666 15.4661V27.1994C31.4649 27.7878 30.9883 28.2643 30.4 28.2661H29.3333V30.8954C29.3317 31.1082 29.2122 31.3026 29.023 31.4C28.8338 31.4975 28.6061 31.4818 28.432 31.3594L24 28.2661H14.4C13.8116 28.2643 13.3351 27.7878 13.3333 27.1994V16.5327H17.6C18.1883 16.531 18.6649 16.0545 18.6666 15.4661V14.3994H30.4C30.9883 14.4012 31.4649 14.8777 31.4666 15.4661Z" fill="#DCF0F9"/>
<path d="M16 2.66725V4.80059H3.20003V2.66725C3.20178 2.07888 3.67832 1.60234 4.26669 1.60059H14.9334C15.5217 1.60234 15.9983 2.07888 16 2.66725Z" fill="white"/>
<path d="M16 4.7998V13.3331C15.9983 13.9215 15.5217 14.398 14.9334 14.3998H4.26669C3.67832 14.398 3.20178 13.9215 3.20003 13.3331V4.7998H16Z" fill="white"/>
<path d="M1.6 16.5327H2.66667V19.162C2.66822 19.3748 2.78776 19.5692 2.97699 19.6666C3.16622 19.7641 3.39388 19.7484 3.568 19.626L4.26667 19.1385V16.5327H3.2C2.61163 16.5309 2.13509 16.0544 2.13333 15.466V3.73268C2.13509 3.14431 2.61163 2.66777 3.2 2.66602H1.6C1.01163 2.66777 0.53509 3.14431 0.533333 3.73268V15.466C0.53509 16.0544 1.01163 16.5309 1.6 16.5327Z" fill="white"/>
<path d="M14.4 28.2665H16C15.4116 28.2648 14.9351 27.7882 14.9333 27.1999V16.5332H13.3333V27.1999C13.3351 27.7882 13.8116 28.2648 14.4 28.2665Z" fill="white"/>
<path d="M-1.33514e-05 11.2002H1.06665V15.4669H-1.33514e-05V11.2002Z" fill="white"/>
<path d="M0.543966 13.8665C0.249414 13.8679 0.00943893 13.6304 0.00796618 13.3358C0.00649342 13.0413 0.244081 12.8013 0.538633 12.7998H0.543966C0.838518 12.7998 1.0773 13.0386 1.0773 13.3331C1.0773 13.6277 0.838518 13.8665 0.543966 13.8665Z" fill="#54B2D3"/>
<path d="M30.4 13.8667H19.2V3.73333C19.2 2.84968 18.4837 2.13333 17.6 2.13333H16.4347C16.2095 1.49653 15.6088 1.06969 14.9333 1.06667H13.3333V0.533333C13.3333 0.238781 13.0946 0 12.8 0C12.5054 0 12.2667 0.238781 12.2667 0.533333V1.06667H10.1333V0.533333C10.1333 0.238781 9.89455 0 9.6 0C9.30545 0 9.06667 0.238781 9.06667 0.533333V1.06667H6.93333V0.533333C6.93333 0.238781 6.69455 0 6.4 0C6.10545 0 5.86667 0.238781 5.86667 0.533333V1.06667H4.26667C3.59124 1.06969 2.99047 1.49653 2.76533 2.13333H1.6C0.716344 2.13333 0 2.84968 0 3.73333V11.2C0 11.4946 0.238781 11.7333 0.533333 11.7333C0.827885 11.7333 1.06667 11.4946 1.06667 11.2V3.73333C1.06667 3.43878 1.30545 3.2 1.6 3.2H2.66667V13.3333C2.66667 14.217 3.38301 14.9333 4.26667 14.9333H14.9333C15.817 14.9333 16.5333 14.217 16.5333 13.3333V3.2H17.6C17.8946 3.2 18.1333 3.43878 18.1333 3.73333V15.4667C18.1333 15.7612 17.8946 16 17.6 16H8H7.98987H5.86667C5.57211 16 5.33333 16.2388 5.33333 16.5333C5.33333 16.8279 5.57211 17.0667 5.86667 17.0667H6.30133L3.26133 19.1872L3.2 19.1627V17.0667H3.73333C4.02789 17.0667 4.26667 16.8279 4.26667 16.5333C4.26667 16.2388 4.02789 16 3.73333 16H2.67467H2.66667H1.6C1.30545 16 1.06667 15.7612 1.06667 15.4667C1.06667 15.1721 0.827885 14.9333 0.533333 14.9333C0.238781 14.9333 0 15.1721 0 15.4667C0 16.3503 0.716344 17.0667 1.6 17.0667H2.13333V19.1627C2.13456 19.5743 2.36452 19.9512 2.73005 20.1406C3.09557 20.3299 3.53606 20.3004 3.87307 20.064L8.16747 17.0667H12.8V27.2C12.8 28.0837 13.5163 28.8 14.4 28.8H23.8325L28.1248 31.7963C28.4615 32.0336 28.9022 32.0641 29.2683 31.8752C29.6344 31.6863 29.865 31.3095 29.8667 30.8976V28.8H30.4C31.2837 28.8 32 28.0837 32 27.2V15.4667C32 14.583 31.2837 13.8667 30.4 13.8667ZM4.26667 2.13333H5.86667V2.66667C5.86667 2.96122 6.10545 3.2 6.4 3.2C6.69455 3.2 6.93333 2.96122 6.93333 2.66667V2.13333H9.06667V2.66667C9.06667 2.96122 9.30545 3.2 9.6 3.2C9.89455 3.2 10.1333 2.96122 10.1333 2.66667V2.13333H12.2667V2.66667C12.2667 2.96122 12.5054 3.2 12.8 3.2C13.0946 3.2 13.3333 2.96122 13.3333 2.66667V2.13333H14.9333C15.2279 2.13333 15.4667 2.37211 15.4667 2.66667V4.26667H3.73333V2.66667C3.73333 2.37211 3.97212 2.13333 4.26667 2.13333ZM14.9333 13.8667H4.26667C3.97212 13.8667 3.73333 13.6279 3.73333 13.3333V5.33333H15.4667V13.3333C15.4667 13.6279 15.2279 13.8667 14.9333 13.8667ZM30.9333 27.2C30.9333 27.4946 30.6946 27.7333 30.4 27.7333H28.2667C27.9721 27.7333 27.7333 27.9721 27.7333 28.2667C27.7333 28.5612 27.9721 28.8 28.2667 28.8H28.8V30.8971L28.7371 30.9232L25.6955 28.8H26.1333C26.4279 28.8 26.6667 28.5612 26.6667 28.2667C26.6667 27.9721 26.4279 27.7333 26.1333 27.7333H14.4C14.1054 27.7333 13.8667 27.4946 13.8667 27.2V17.0667H17.6C18.4837 17.0667 19.2 16.3503 19.2 15.4667V14.9333H30.4C30.6946 14.9333 30.9333 15.1721 30.9333 15.4667V27.2Z" fill="#54B2D3"/>
<path d="M9.59998 6.39941C9.02834 6.40036 8.50027 6.70502 8.21332 7.19942C8.0767 7.45328 8.16655 7.76975 8.41618 7.91396C8.6658 8.05817 8.98484 7.97791 9.13652 7.73275C9.26583 7.50878 9.5372 7.40985 9.78031 7.49807C10.0234 7.58628 10.1682 7.83621 10.1238 8.09099C10.0794 8.34577 9.85861 8.53198 9.59998 8.53275C9.30543 8.53275 9.06665 8.77153 9.06665 9.06608V9.59942C9.06665 9.89397 9.30543 10.1328 9.59998 10.1328C9.89454 10.1328 10.1333 9.89397 10.1333 9.59942V9.50822C10.8685 9.24877 11.3096 8.49725 11.1778 7.72888C11.046 6.96051 10.3796 6.39899 9.59998 6.39941Z" fill="#54B2D3"/>
<path d="M9.60001 12.2669C9.89456 12.2669 10.1333 12.0281 10.1333 11.7335C10.1333 11.439 9.89456 11.2002 9.60001 11.2002C9.30545 11.2002 9.06667 11.439 9.06667 11.7335C9.06667 12.0281 9.30545 12.2669 9.60001 12.2669Z" fill="#54B2D3"/>
<path d="M20.9563 22.2441C21.0563 22.3441 21.1919 22.4003 21.3334 22.4003C21.3488 22.4011 21.3643 22.4011 21.3798 22.4003C21.5369 22.3865 21.6798 22.3039 21.7702 22.1747L25.5035 16.8414C25.6197 16.6855 25.6419 16.4788 25.5615 16.3019C25.481 16.1249 25.3107 16.0058 25.1169 15.9908C24.9231 15.9759 24.7365 16.0676 24.6299 16.2302L21.2608 21.0403L20.6438 20.4233C20.4345 20.2211 20.1019 20.224 19.8961 20.4297C19.6904 20.6355 19.6875 20.9681 19.8897 21.1774L20.9563 22.2441Z" fill="#54B2D3"/>
<path d="M29.3333 23.4668H19.2C18.9055 23.4668 18.6667 23.7056 18.6667 24.0001C18.6667 24.2947 18.9055 24.5335 19.2 24.5335H29.3333C29.6279 24.5335 29.8667 24.2947 29.8667 24.0001C29.8667 23.7056 29.6279 23.4668 29.3333 23.4668Z" fill="#54B2D3"/>
<path d="M16 24.5335H17.0666C17.3612 24.5335 17.6 24.2947 17.6 24.0001C17.6 23.7056 17.3612 23.4668 17.0666 23.4668H16C15.7054 23.4668 15.4666 23.7056 15.4666 24.0001C15.4666 24.2947 15.7054 24.5335 16 24.5335Z" fill="#54B2D3"/>
<path d="M21.8666 25.6006H16C15.7054 25.6006 15.4666 25.8394 15.4666 26.1339C15.4666 26.4285 15.7054 26.6672 16 26.6672H21.8666C22.1612 26.6672 22.4 26.4285 22.4 26.1339C22.4 25.8394 22.1612 25.6006 21.8666 25.6006Z" fill="#54B2D3"/>
</svg>
