<svg width="324" height="130" viewBox="0 0 324 130" fill="none" xmlns="http://www.w3.org/2000/svg">
<mask id="mask0" mask-type="alpha" maskUnits="userSpaceOnUse" x="0" y="10" width="324" height="109">
<rect x="0.5" y="10.5" width="323" height="108" rx="1.5" fill="#DDF0F6" stroke="#ECEDF0"/>
</mask>
<g mask="url(#mask0)">
<path d="M425.213 -13.3258C425.213 72.8628 330.913 336.185 244.724 336.185C158.536 336.185 -8.06006 260.83 -8.06006 174.642C-8.06006 88.4533 35.8157 24.0685 244.724 24.0682C396.794 24.068 425.213 -99.5143 425.213 -13.3258Z" fill="#54B2D3" fill-opacity="0.5"/>
</g>
<g filter="url(#filter0_d)">
<path d="M132 31.5996C132 22.7631 139.163 15.5996 148 15.5996H215.6C224.437 15.5996 231.6 22.7631 231.6 31.5996V118.8H132V31.5996Z" fill="white"/>
</g>
<rect x="145.2" y="60" width="43.2" height="1.2" rx="0.6" fill="#9292A2"/>
<rect x="145.2" y="64.7998" width="37.2" height="1.2" rx="0.6" fill="#9292A2"/>
<rect x="145.2" y="70.7998" width="74.4" height="1.2" rx="0.6" fill="#DBDBE1"/>
<rect x="145.2" y="75.5996" width="68.4" height="1.2" rx="0.6" fill="#DBDBE1"/>
<rect x="145.2" y="80.4004" width="74.4" height="2.4" rx="1.2" fill="#DBDBE1"/>
<rect x="145.2" y="85.2002" width="68.4" height="2.4" rx="1.2" fill="#DBDBE1"/>
<rect x="145.2" y="90" width="73.2" height="2.4" rx="1.2" fill="#DBDBE1"/>
<rect x="145.2" y="94.7998" width="63.6" height="2.4" rx="1.2" fill="#DBDBE1"/>
<rect x="145.2" y="99.5996" width="68.4" height="2.4" rx="1.2" fill="#DBDBE1"/>
<rect x="145.2" y="104.4" width="63.6" height="2.4" rx="1.2" fill="#DBDBE1"/>
<path d="M161.794 43.4245H148.294C148.212 43.4245 148.144 43.492 148.144 43.5745V44.6995C148.144 44.782 148.212 44.8495 148.294 44.8495H161.794C161.877 44.8495 161.944 44.782 161.944 44.6995V43.5745C161.944 43.492 161.877 43.4245 161.794 43.4245ZM152.7 34.9064H154.086V41.2495C154.086 41.332 154.153 41.3995 154.236 41.3995H155.361C155.443 41.3995 155.511 41.332 155.511 41.2495V34.9064H156.9C157.026 34.9064 157.095 34.762 157.018 34.6645L154.918 32.0058C154.904 31.9879 154.886 31.9734 154.866 31.9634C154.846 31.9534 154.823 31.9482 154.8 31.9482C154.778 31.9482 154.755 31.9534 154.735 31.9634C154.714 31.9734 154.696 31.9879 154.682 32.0058L152.582 34.6627C152.505 34.762 152.575 34.9064 152.7 34.9064V34.9064Z" fill="#9292A3"/>
<rect x="184.8" y="28.7998" width="33.6" height="19.2" rx="9.6" fill="#54B2D3"/>
<g filter="url(#filter1_d)">
<rect x="204.8" y="32.7998" width="12" height="12" rx="6" fill="white"/>
</g>
<defs>
<filter id="filter0_d" x="122" y="0.599609" width="125.6" height="129.2" filterUnits="userSpaceOnUse" color-interpolation-filters="sRGB">
<feFlood flood-opacity="0" result="BackgroundImageFix"/>
<feColorMatrix in="SourceAlpha" type="matrix" values="0 0 0 0 0 0 0 0 0 0 0 0 0 0 0 0 0 0 127 0"/>
<feOffset dx="3" dy="-2"/>
<feGaussianBlur stdDeviation="6.5"/>
<feColorMatrix type="matrix" values="0 0 0 0 0 0 0 0 0 0 0 0 0 0 0 0 0 0 0.05 0"/>
<feBlend mode="normal" in2="BackgroundImageFix" result="effect1_dropShadow"/>
<feBlend mode="normal" in="SourceGraphic" in2="effect1_dropShadow" result="shape"/>
</filter>
<filter id="filter1_d" x="200.8" y="30.7998" width="20" height="20" filterUnits="userSpaceOnUse" color-interpolation-filters="sRGB">
<feFlood flood-opacity="0" result="BackgroundImageFix"/>
<feColorMatrix in="SourceAlpha" type="matrix" values="0 0 0 0 0 0 0 0 0 0 0 0 0 0 0 0 0 0 127 0"/>
<feOffset dy="2"/>
<feGaussianBlur stdDeviation="2"/>
<feColorMatrix type="matrix" values="0 0 0 0 0 0 0 0 0 0.137255 0 0 0 0 0.0431373 0 0 0 0.2 0"/>
<feBlend mode="normal" in2="BackgroundImageFix" result="effect1_dropShadow"/>
<feBlend mode="normal" in="SourceGraphic" in2="effect1_dropShadow" result="shape"/>
</filter>
</defs>
</svg>
