<svg width="16" height="16" viewBox="0 0 16 16" fill="none" xmlns="http://www.w3.org/2000/svg">
<path fill-rule="evenodd" clip-rule="evenodd" d="M7.65752 8.45007V6.8834C7.65752 6.77294 7.56798 6.6834 7.45752 6.6834H6.74085C6.63039 6.6834 6.54085 6.77294 6.54085 6.8834V8.45007C6.54085 8.56053 6.63039 8.65007 6.74085 8.65007H7.45752C7.56798 8.65007 7.65752 8.56053 7.65752 8.45007Z" fill="#54B2D3"/>
<path fill-rule="evenodd" clip-rule="evenodd" d="M4.84089 1.53678V2.0078H2.97422C2.7533 2.0078 2.57422 2.18688 2.57422 2.4078L2.57422 12.9911C2.57422 13.1752 2.72346 13.3244 2.90755 13.3244H4.84086V13.7954C4.84086 14.036 5.05173 14.2222 5.29048 14.1924L12.4654 13.299C12.6322 13.2782 12.7575 13.1364 12.7575 12.9683C12.7575 12.6894 12.7575 12.2999 12.7575 12.2078V2.42636C12.7575 2.22463 12.6073 2.05447 12.4071 2.02944L5.2905 1.13987C5.05176 1.11002 4.84089 1.29618 4.84089 1.53678ZM4.84089 3.12446V12.2078H3.69089V3.12446H4.84089ZM11.6408 3.05904V12.2732L5.95753 12.9836V2.34862L11.6408 3.05904Z" fill="#54B2D3"/>
</svg>
