<svg xmlns="http://www.w3.org/2000/svg" fill="none" viewBox="0 0 32 32" height="32" width="32">
<path fill="white" d="M0 16C0 7.16344 7.16344 0 16 0C24.8366 0 32 7.16344 32 16C32 24.8366 24.8366 32 16 32C7.16344 32 0 24.8366 0 16Z"></path>
<path fill="#9292A3" d="M15.0156 11.0605C15.0156 11.3216 15.1193 11.572 15.3039 11.7566C15.4885 11.9412 15.7389 12.0449 16 12.0449C16.2611 12.0449 16.5115 11.9412 16.6961 11.7566C16.8807 11.572 16.9844 11.3216 16.9844 11.0605C16.9844 10.7995 16.8807 10.5491 16.6961 10.3645C16.5115 10.1799 16.2611 10.0762 16 10.0762C15.7389 10.0762 15.4885 10.1799 15.3039 10.3645C15.1193 10.5491 15.0156 10.7995 15.0156 11.0605ZM15.0156 15.9824C15.0156 16.2435 15.1193 16.4939 15.3039 16.6785C15.4885 16.8631 15.7389 16.9668 16 16.9668C16.2611 16.9668 16.5115 16.8631 16.6961 16.6785C16.8807 16.4939 16.9844 16.2435 16.9844 15.9824C16.9844 15.7213 16.8807 15.471 16.6961 15.2864C16.5115 15.1018 16.2611 14.998 16 14.998C15.7389 14.998 15.4885 15.1018 15.3039 15.2864C15.1193 15.471 15.0156 15.7213 15.0156 15.9824ZM15.0156 20.9043C15.0156 21.1654 15.1193 21.4157 15.3039 21.6004C15.4885 21.785 15.7389 21.8887 16 21.8887C16.2611 21.8887 16.5115 21.785 16.6961 21.6004C16.8807 21.4157 16.9844 21.1654 16.9844 20.9043C16.9844 20.6432 16.8807 20.3928 16.6961 20.2082C16.5115 20.0236 16.2611 19.9199 16 19.9199C15.7389 19.9199 15.4885 20.0236 15.3039 20.2082C15.1193 20.3928 15.0156 20.6432 15.0156 20.9043Z"></path>
<path fill="#ECEDF0" d="M16 31C7.71573 31 1 24.2843 1 16H-1C-1 25.3888 6.61116 33 16 33V31ZM31 16C31 24.2843 24.2843 31 16 31V33C25.3888 33 33 25.3888 33 16H31ZM16 1C24.2843 1 31 7.71573 31 16H33C33 6.61116 25.3888 -1 16 -1V1ZM16 -1C6.61116 -1 -1 6.61116 -1 16H1C1 7.71573 7.71573 1 16 1V-1Z"></path>
</svg>
