<svg width="40" height="40" viewBox="0 0 40 40" fill="none" xmlns="http://www.w3.org/2000/svg">
<g clip-path="url(#clip0)">
<path fill-rule="evenodd" clip-rule="evenodd" d="M8.13967 24.615C8.14194 27.758 8.19905 29.7028 9.73741 32.7317C10.7508 34.7266 12.7412 36.7992 14.8456 38.2166C16.5278 39.3511 18.2808 40.0678 19.6639 39.9947C21.0288 40.0678 22.759 39.367 24.4251 38.2532C26.5479 36.8357 28.5655 34.7449 29.5881 32.7317C30.1542 31.6201 30.5194 30.6523 30.7544 29.7187C31.1607 28.1118 31.1858 26.603 31.1858 24.615C31.6651 19.0342 25.9339 14.0491 22.0742 13.3004C20.5039 12.9968 18.8833 12.9923 17.313 13.289C13.4305 14.0217 8.01186 19.0341 8.13967 24.615Z" fill="#B2E8CC"/>
<path fill-rule="evenodd" clip-rule="evenodd" d="M18.5249 17.6486C22.3846 18.3973 25.9292 20.9628 27.6365 25.3453C27.6365 28.6413 27.527 30.5358 26.0388 33.4643C24.7127 36.0778 21.7774 38.737 19.1252 39.9856C19.31 40.0015 19.4881 40.0038 19.6639 39.9947C21.0288 40.0678 22.7589 39.367 24.4251 38.2531C26.5478 36.8357 28.5655 34.7449 29.5881 32.7317C30.1542 31.6201 30.5193 30.6523 30.7544 29.7187C31.1607 28.1118 31.1858 26.603 31.1858 24.6149C29.4785 20.2324 25.9339 17.6669 22.0742 16.9182C20.5039 16.6124 18.8832 16.6101 17.3129 16.9068C16.6533 17.0301 16.0028 17.2081 15.366 17.4386C16.4227 17.377 17.4864 17.4478 18.5249 17.6486Z" fill="#65CD98"/>
<path fill-rule="evenodd" clip-rule="evenodd" d="M18.2191 0C12.9374 0.312734 7.09882 4.46008 8.13054 13.047C11.2051 9.46805 21.1589 5.36859 26.0229 5.3868C25.7809 2.05883 22.8981 0.205469 19.5064 0L18.2191 0Z" fill="#FE93D3"/>
<path fill-rule="evenodd" clip-rule="evenodd" d="M28.7892 10.559C24.3064 8.94066 22.7749 13.4282 22.0741 16.9182C25.9338 17.6668 29.4785 20.2324 31.1857 24.6149C34.3082 19.5864 33.838 13.8025 28.7892 10.559Z" fill="#ED72AA"/>
<path fill-rule="evenodd" clip-rule="evenodd" d="M8.13055 13.0471C10.4815 8.02778 15.9138 4.36661 23.0557 4.53552C23.6172 4.54919 24.1422 4.63137 24.6284 4.77059C25.1351 4.91669 25.603 5.12442 26.023 5.38684C25.9545 4.43958 25.6715 3.61106 25.2241 2.90802C24.5484 2.66833 23.7952 2.52911 22.9735 2.51083C16.5027 2.37161 11.3123 4.85044 8.25156 8.54817C7.98899 9.88341 7.92969 11.3831 8.13055 13.0471Z" fill="#ED72AA"/>
<path fill-rule="evenodd" clip-rule="evenodd" d="M28.7895 10.559C28.7686 14.7019 25.9382 17.5074 22.0739 16.9179C16.6257 15.8615 10.5502 18.4269 8.13933 24.6151C6.73824 21.5118 6.52723 18.3029 7.2866 15.3847C7.49519 14.5811 7.77863 13.7984 8.13051 13.0472C8.15465 12.9948 8.17965 12.9433 8.20543 12.8909C10.5953 7.95169 15.9878 4.36841 23.0554 4.53513C24.2013 4.56247 25.1965 4.87575 26.0227 5.38708C27.7846 6.47817 28.7758 8.47513 28.7895 10.559Z" fill="#FE93D3"/>
<path fill-rule="evenodd" clip-rule="evenodd" d="M8.13959 24.6149C9.856 20.2096 13.4304 17.6394 17.3129 16.9068C18.8832 16.61 20.5038 16.6123 22.0741 16.9182C25.9383 17.5071 28.7687 14.7018 28.7892 10.559C28.7778 8.87449 28.1296 7.24707 26.9518 6.11035C27.0362 6.52348 27.0796 6.95035 27.0819 7.37941C27.0613 11.52 24.2311 14.3275 20.3668 13.7386C15.2654 12.7479 9.61631 14.9346 6.93896 20.294C7.101 21.732 7.49365 23.1837 8.13959 24.6149Z" fill="#ED72AA"/>
<path d="M22.2437 11.4626C22.131 11.7775 21.7855 11.9409 21.4715 11.8282C17.1869 10.2974 11.1855 11.5343 8.09337 14.5861C8.00642 14.6714 7.60619 15.0716 7.2865 15.3849C7.49509 14.5813 7.77853 13.7986 8.13041 13.0473C8.15455 12.995 8.17955 12.9434 8.20533 12.8911C9.75541 11.6969 11.7604 10.7999 13.9781 10.3224C16.7424 9.72808 19.5478 9.85855 21.8782 10.6912C22.1922 10.8031 22.3556 11.1486 22.2437 11.4626Z" fill="#ED72AA"/>
<path fill-rule="evenodd" clip-rule="evenodd" d="M14.8455 22.3506C12.9762 22.3506 11.4629 23.6014 11.4629 25.1444C11.4629 26.6897 12.9762 27.9405 14.8455 27.9405C16.7149 27.9405 18.2305 26.6896 18.2305 25.1444C18.2305 23.6014 16.7149 22.3506 14.8455 22.3506Z" fill="#FFEEE6"/>
<path fill-rule="evenodd" clip-rule="evenodd" d="M24.578 22.3506C22.7087 22.3506 21.1931 23.6014 21.1931 25.1444C21.1931 26.6897 22.7087 27.9405 24.578 27.9405C26.4474 27.9405 27.9607 26.6896 27.9607 25.1444C27.9607 23.6014 26.4474 22.3506 24.578 22.3506Z" fill="#FFEEE6"/>
<path fill-rule="evenodd" clip-rule="evenodd" d="M24.0212 33.7474C24.0212 32.3368 22.0422 31.1932 19.6023 31.1932C17.1623 31.1932 15.1833 32.3368 15.1833 33.7474C15.1833 35.158 17.1623 36.3038 19.6023 36.3038C22.0422 36.3038 24.0212 35.158 24.0212 33.7474Z" fill="#FFEEE6"/>
<path fill-rule="evenodd" clip-rule="evenodd" d="M13.6152 22.54C15.238 22.7455 16.482 23.905 16.482 25.3042C16.482 26.4888 15.5896 27.5022 14.3297 27.9086C14.4963 27.9291 14.6698 27.9405 14.8455 27.9405C16.7149 27.9405 18.2305 26.6896 18.2305 25.1444C18.2305 23.6014 16.7149 22.3506 14.8455 22.3506C14.4118 22.3506 13.9964 22.4168 13.6152 22.54Z" fill="#FFDFCF"/>
<path fill-rule="evenodd" clip-rule="evenodd" d="M23.3455 22.54C24.9706 22.7455 26.2123 23.905 26.2123 25.3042C26.2123 26.4888 25.3198 27.5022 24.0599 27.9086C24.2288 27.9291 24.4023 27.9405 24.578 27.9405C26.4474 27.9405 27.9607 26.6896 27.9607 25.1444C27.9607 24.9527 27.9379 24.7632 27.8923 24.5807C27.753 24.0214 27.413 23.5216 26.9336 23.1381C26.3241 22.6496 25.4934 22.3506 24.578 22.3506C24.142 22.3506 23.7289 22.4168 23.3455 22.54Z" fill="#FFDFCF"/>
<path fill-rule="evenodd" clip-rule="evenodd" d="M18.8513 31.2297C20.901 31.4511 22.453 32.492 22.453 33.7405C22.453 35.005 20.8667 36.0527 18.785 36.2604C19.0498 36.2878 19.3237 36.3038 19.6021 36.3038C22.0421 36.3038 24.021 35.1579 24.021 33.7474C24.021 32.3368 22.0421 31.1932 19.6021 31.1932C19.3466 31.1932 19.0955 31.2046 18.8513 31.2297Z" fill="#FFDFCF"/>
<path d="M24.578 25.8824C24.1154 25.8824 23.6527 25.7553 23.292 25.5011C23.0194 25.309 22.9542 24.9322 23.1464 24.6596C23.3384 24.387 23.7153 24.3218 23.988 24.5139C24.297 24.7317 24.8594 24.7316 25.1682 24.5139C25.4409 24.3218 25.8177 24.3869 26.0098 24.6596C26.202 24.9322 26.1368 25.309 25.8641 25.5011C25.5035 25.7554 25.0408 25.8824 24.578 25.8824Z" fill="#3D3D46"/>
<path d="M14.8455 25.8824C14.3828 25.8824 13.92 25.7553 13.5595 25.5011C13.2869 25.309 13.2217 24.9322 13.4138 24.6596C13.606 24.387 13.9828 24.3218 14.2553 24.5139C14.5642 24.7316 15.1267 24.7316 15.4357 24.5139C15.7083 24.3218 16.0851 24.3869 16.2772 24.6596C16.4693 24.9322 16.4042 25.309 16.1315 25.5011C15.771 25.7554 15.3083 25.8824 14.8455 25.8824Z" fill="#3D3D46"/>
<path d="M19.6022 34.5128C18.9192 34.5128 18.2365 34.3851 17.7044 34.1298C17.4037 33.9855 17.2769 33.6247 17.4212 33.324C17.5654 33.0234 17.9262 32.8964 18.2269 33.0408C18.9595 33.3924 20.2449 33.3923 20.9776 33.0408C21.2782 32.8967 21.639 33.0234 21.7833 33.324C21.9276 33.6248 21.8007 33.9855 21.5 34.1298C20.9679 34.385 20.285 34.5128 19.6022 34.5128Z" fill="#ED72AA"/>
</g>
<defs>
<clipPath id="clip0">
<rect width="40" height="40" fill="white"/>
</clipPath>
</defs>
</svg>
