<svg width="14" height="12" viewBox="0 0 14 12" fill="none" xmlns="http://www.w3.org/2000/svg">
<path d="M7.00019 3.813H8.75019V1.18799C8.75019 1.00686 8.86132 0.844988 9.03019 0.780237C9.19732 0.713737 9.38982 0.759237 9.51145 0.893988L13.8865 5.70651C14.0378 5.87364 14.0378 6.12826 13.8865 6.29539L9.51145 11.1079C9.42657 11.1998 9.30845 11.2505 9.1877 11.2505C9.13432 11.2505 9.08095 11.2409 9.03019 11.2217C8.86132 11.156 8.75019 10.9942 8.75019 10.813V8.18802H7.83144C5.15568 8.18802 2.64004 9.23015 0.747405 11.1228C0.621404 11.2488 0.432403 11.2855 0.270527 11.2173C0.106901 11.1499 0.000150681 10.9898 0.000150681 10.813C0.000150681 6.95339 3.14054 3.813 7.00019 3.813Z" fill="#9292A3"/>
</svg>
