<svg width="24" height="24" viewBox="0 0 24 24" fill="none" xmlns="http://www.w3.org/2000/svg">
<g clip-path="url(#clip0)">
<path fill-rule="evenodd" clip-rule="evenodd" d="M9.30558 16.2996C12.3192 22.9723 1.36519 23.2512 4.26863 16.2961C4.30856 16.2004 4.23905 16.0947 4.13536 16.0947H0.144891C0.064875 16.0947 0 16.1596 0 16.2396V23.5869C0 23.6669 0.064875 23.7318 0.144891 23.7318H11.8282H23.8552C23.9352 23.7318 24 23.6669 24 23.5869V16.2396C24 16.1596 23.9352 16.0947 23.8552 16.0947H19.8171C19.7118 16.0947 19.6422 16.2036 19.6855 16.2996C22.6979 22.9723 11.7451 23.2513 14.6486 16.2961C14.6886 16.2004 14.619 16.0947 14.5154 16.0947H11.8282H9.43716C9.33178 16.0947 9.26227 16.2037 9.30558 16.2996Z" fill="#FFEEE6"/>
<path fill-rule="evenodd" clip-rule="evenodd" d="M5.96969 15.832C3.2621 21.0488 9.13038 20.9324 8.31864 17.6389C8.14342 16.9243 7.82997 16.2686 7.80396 15.832C7.52013 10.9647 10.9766 3.25493 13.255 0.433618C13.3229 0.349524 13.2223 0.234587 13.1297 0.290321C9.34741 2.56582 6.22619 10.1921 5.96969 15.832Z" fill="#5C5C5C"/>
<path fill-rule="evenodd" clip-rule="evenodd" d="M6.77324 16.0851C6.79926 16.5232 7.11271 17.1789 7.28929 17.8934C7.53431 18.8914 7.1661 19.5977 6.61035 19.9522C7.59867 20.0385 8.70196 19.1925 8.31867 17.6388C8.14345 16.9243 7.82999 16.2686 7.80398 15.8319C7.5201 10.9645 10.9768 3.25452 13.2551 0.433347C13.3232 0.349019 13.2223 0.23455 13.1295 0.290425C12.6151 0.599988 12.1129 1.00864 11.6286 1.49825C9.39182 4.78499 6.51313 11.628 6.77324 16.0851Z" fill="#3D3D46"/>
<path d="M1.17394 20.118C1.08098 20.118 0.988217 20.0822 0.91767 20.0104L0.914952 20.0076C0.805686 19.8965 0.775827 19.726 0.849749 19.5887C0.98217 19.3429 1.30819 19.3275 1.46559 19.5397C1.56379 19.672 1.55915 19.8603 1.45326 19.9866C1.37986 20.0741 1.27678 20.118 1.17394 20.118Z" fill="#FFBC85"/>
<path d="M3.52417 22.3521C3.43225 22.3521 3.34047 22.3171 3.27006 22.2467L3.26734 22.244C3.15695 22.1336 3.12559 21.963 3.19876 21.8251C3.32955 21.5785 3.65505 21.5607 3.81405 21.7715C3.91351 21.9033 3.91019 22.0921 3.80472 22.2192C3.73141 22.3075 3.62776 22.3521 3.52417 22.3521Z" fill="#FFBC85"/>
<path d="M11.8069 18.8093C11.715 18.8093 11.6232 18.7743 11.5528 18.7039L11.5501 18.7011C11.4397 18.5907 11.4083 18.4201 11.4815 18.2822C11.6123 18.0357 11.9378 18.0178 12.0968 18.2286C12.1962 18.3605 12.1929 18.5493 12.0874 18.6764C12.0142 18.7647 11.9105 18.8093 11.8069 18.8093Z" fill="#FFBC85"/>
<path d="M11.0129 21.9017C10.921 21.9017 10.8292 21.8667 10.7588 21.7963L10.7561 21.7935C10.6457 21.6832 10.6144 21.5125 10.6875 21.3746C10.8183 21.1281 11.1438 21.1102 11.3028 21.321C11.4023 21.4529 11.399 21.6417 11.2935 21.7688C11.2202 21.8572 11.1165 21.9017 11.0129 21.9017Z" fill="#FFBC85"/>
<path fill-rule="evenodd" clip-rule="evenodd" d="M16.3647 15.8252C13.6571 21.042 19.5254 20.9256 18.7137 17.6321C18.5371 16.9175 18.2236 16.2618 18.199 15.8252C17.9151 10.958 21.3703 3.24854 23.6496 0.427043C23.7176 0.34295 23.617 0.227965 23.5243 0.283746C19.7422 2.55948 16.6212 10.1855 16.3647 15.8252Z" fill="#5C5C5C"/>
<path fill-rule="evenodd" clip-rule="evenodd" d="M17.1682 16.0783C17.1928 16.5164 17.5076 17.1707 17.6828 17.8866C17.9292 18.8846 17.561 19.5909 17.0039 19.9454C17.9936 20.0317 19.0955 19.1857 18.7136 17.632C18.537 16.9174 18.2235 16.2618 18.1989 15.8251C17.9151 10.9573 21.3711 3.24649 23.6504 0.425884C23.7185 0.341555 23.6177 0.227134 23.5248 0.282962C23.0094 0.592618 22.5068 1.00151 22.0221 1.49149C19.7854 4.77818 16.9081 11.6212 17.1682 16.0783Z" fill="#3D3D46"/>
<path fill-rule="evenodd" clip-rule="evenodd" d="M12.6946 19.1884C12.6946 20.9365 12.0293 22.5299 10.937 23.7317H11.8282H23.8551C23.9351 23.7317 23.9999 23.6669 23.9999 23.5869V16.2396C23.9999 16.1596 23.9351 16.0947 23.8551 16.0947H19.817C19.7117 16.0947 19.6421 16.2036 19.6854 16.2996C22.6978 22.9723 11.745 23.2513 14.6485 16.2961C14.6885 16.2004 14.619 16.0947 14.5153 16.0947H11.9445C12.4249 17.0214 12.6946 18.0741 12.6946 19.1884Z" fill="#FFDFCF"/>
<path d="M21.1147 21.9356C20.9824 21.9356 20.8554 21.863 20.7921 21.7364L20.7907 21.7337C20.7013 21.5547 20.7738 21.3372 20.9527 21.2478C21.1362 21.1561 21.3601 21.2346 21.4451 21.4233C21.5233 21.597 21.4492 21.8097 21.2794 21.896C21.2264 21.9228 21.1701 21.9356 21.1147 21.9356Z" fill="#FFBC85"/>
<path d="M21.9989 18.382C21.8667 18.382 21.7397 18.3094 21.6764 18.1828L21.675 18.1801C21.5856 18.0012 21.6581 17.7836 21.837 17.6942C22.0204 17.6026 22.2442 17.6809 22.3293 17.8695C22.4076 18.0431 22.3337 18.2559 22.1639 18.3423C22.1108 18.3692 22.0544 18.382 21.9989 18.382Z" fill="#FFBC85"/>
</g>
<defs>
<clipPath id="clip0">
<rect width="24" height="24" fill="white"/>
</clipPath>
</defs>
</svg>
