<svg width="32" height="32" viewBox="0 0 32 32" fill="none" xmlns="http://www.w3.org/2000/svg">
<path d="M0 16C0 7.16344 7.16344 0 16 0C24.8366 0 32 7.16344 32 16C32 24.8366 24.8366 32 16 32C7.16344 32 0 24.8366 0 16Z" fill="white"/>
<path d="M16.423 11.7988H15.5775C15.5002 11.7988 15.4369 11.8621 15.4369 11.9395V16.7787C15.4369 16.8244 15.458 16.8666 15.4949 16.893L18.4006 19.0147C18.4639 19.0604 18.5518 19.048 18.5975 18.9848L19.1002 18.2992C19.1477 18.2342 19.1336 18.1463 19.0703 18.1023L16.5637 16.29V11.9395C16.5637 11.8621 16.5004 11.7988 16.423 11.7988ZM20.2867 13.1207L23.043 13.7939C23.1309 13.815 23.217 13.7482 23.217 13.6586L23.2311 10.8197C23.2311 10.702 23.0957 10.6352 23.0043 10.709L20.234 12.8729C20.213 12.8891 20.1971 12.9108 20.188 12.9357C20.1789 12.9605 20.177 12.9875 20.1825 13.0133C20.188 13.0392 20.2007 13.0631 20.2191 13.082C20.2376 13.101 20.261 13.1144 20.2867 13.1207ZM23.2346 18.4135L22.2379 18.0707C22.2031 18.0588 22.1651 18.061 22.1319 18.0767C22.0988 18.0925 22.0731 18.1206 22.0604 18.1551C22.027 18.2447 21.9918 18.3326 21.9549 18.4205C21.642 19.1606 21.1938 19.8268 20.6207 20.3981C20.054 20.9665 19.3824 21.4196 18.6432 21.7322C17.8773 22.056 17.0541 22.2222 16.2227 22.2209C15.3824 22.2209 14.5686 22.0574 13.8021 21.7322C13.0629 21.4196 12.3913 20.9665 11.8246 20.3981C11.2533 19.8268 10.8051 19.1606 10.4904 18.4205C10.1684 17.6543 10.0035 16.8312 10.0053 16C10.0053 15.1598 10.1687 14.3441 10.4939 13.5777C10.8068 12.8377 11.2551 12.1715 11.8281 11.6002C12.3948 11.0318 13.0664 10.5787 13.8057 10.266C14.5686 9.94082 15.3842 9.77735 16.2244 9.77735C17.0646 9.77735 17.8785 9.94082 18.6449 10.266C19.3842 10.5787 20.0558 11.0318 20.6225 11.6002C20.8018 11.7813 20.9705 11.9693 21.1252 12.168L22.1764 11.3453C20.793 9.57696 18.6396 8.43965 16.2209 8.44141C12.0092 8.44317 8.62715 11.8639 8.66934 16.0773C8.71152 20.217 12.0777 23.5586 16.2244 23.5586C19.4852 23.5586 22.2625 21.4914 23.3207 18.5963C23.3471 18.5225 23.3084 18.4398 23.2346 18.4135Z" fill="#9292A3"/>
<path d="M16 31C7.71573 31 1 24.2843 1 16H-1C-1 25.3888 6.61116 33 16 33V31ZM31 16C31 24.2843 24.2843 31 16 31V33C25.3888 33 33 25.3888 33 16H31ZM16 1C24.2843 1 31 7.71573 31 16H33C33 6.61116 25.3888 -1 16 -1V1ZM16 -1C6.61116 -1 -1 6.61116 -1 16H1C1 7.71573 7.71573 1 16 1V-1Z" fill="#ECEDF0"/>
</svg>
