<svg width="44" height="44" viewBox="0 0 44 44" fill="none" xmlns="http://www.w3.org/2000/svg">
<rect width="44" height="44" rx="22" fill="#FAAD14"/>
<path d="M31.4928 14.9475L26.824 15.51C26.6693 15.5288 26.6037 15.7186 26.7138 15.8288L28.1037 17.2186L22.8068 22.5155L20.4209 20.1319C20.2732 19.9842 20.0365 19.9866 19.8912 20.1319L12.3513 27.6741C12.3164 27.7093 12.2969 27.7569 12.2969 27.8065C12.2969 27.8561 12.3164 27.9037 12.3513 27.9389L13.406 28.9983C13.4787 29.071 13.5982 29.071 13.6709 28.9983L20.156 22.5155L22.5396 24.8991C22.6873 25.0444 22.924 25.0444 23.0693 24.8991L29.4303 18.5428L30.8201 19.9327C30.845 19.9575 30.8764 19.9748 30.9106 19.9826C30.9449 19.9904 30.9806 19.9885 31.0138 19.977C31.047 19.9656 31.0764 19.945 31.0985 19.9177C31.1206 19.8904 31.1346 19.8574 31.1388 19.8225L31.7013 15.1538C31.7178 15.0342 31.6146 14.9311 31.4928 14.9475Z" fill="white"/>
</svg>
