<svg width="40" height="40" viewBox="0 0 40 40" fill="none" xmlns="http://www.w3.org/2000/svg">
<path fill-rule="evenodd" clip-rule="evenodd" d="M15.6214 15.1727C10.1722 14.1159 2.69518 17.5885 1.68713 24.6173C1.68948 27.1005 1.68252 26.3873 1.70573 26.7404C1.70573 28.508 2.23995 30.673 3.28518 32.7333C4.29791 34.7286 6.29088 36.7982 8.39291 38.2175C10.0746 39.3534 11.8283 40.0688 13.2103 39.9944C14.5785 40.0687 16.3089 39.3673 17.972 38.2547C20.0973 36.8355 22.1135 34.7449 23.1355 32.7333C23.6442 31.7344 24.0298 30.7101 24.2946 29.7205C24.5756 28.666 24.7173 27.6509 24.7173 26.7403C24.7382 26.3873 24.7335 27.1003 24.7335 24.6173C23.4678 19.5466 19.4819 15.9207 15.6214 15.1727Z" fill="#FFDFCF"/>
<path fill-rule="evenodd" clip-rule="evenodd" d="M11.768 0C6.48592 0.313594 0.646471 4.46219 1.68014 13.0473C4.17483 10.7245 13.7725 7.16125 19.5724 5.38664C19.3286 2.06039 16.446 0.206719 13.0548 0H11.768Z" fill="#FE93D3"/>
<path fill-rule="evenodd" clip-rule="evenodd" d="M22.3389 10.5597C16.5087 10.7571 15.6841 14.9266 15.6215 16.9196C19.4819 17.6676 23.0265 20.2343 24.7337 24.6175C27.8554 19.5885 27.3862 13.8047 22.3389 10.5597Z" fill="#ED72AA"/>
<path fill-rule="evenodd" clip-rule="evenodd" d="M23.1355 32.7334C23.6442 31.7346 24.0298 30.7102 24.2946 29.7207C24.5757 28.6661 24.7173 27.6511 24.7173 26.7404C24.7383 26.3874 24.7336 27.1004 24.7336 24.6174C23.0263 20.2342 19.4818 17.6675 15.6213 16.9195C14.0534 16.6152 12.4322 16.6106 10.8619 16.9056C11.2684 16.945 11.6726 17.0032 12.0744 17.0821C16.6201 17.9625 21.4933 21.8974 21.1681 26.9031C21.1681 31.5952 18.2205 35.8808 14.4251 38.4174C13.5146 39.026 12.5832 39.5114 11.7029 39.8157C12.2371 39.9551 12.7458 40.0201 13.2104 39.9946C14.5785 40.0689 16.309 39.3674 17.972 38.2548C20.0974 36.8355 22.1136 34.745 23.1355 32.7334Z" fill="#FFCEBF"/>
<path fill-rule="evenodd" clip-rule="evenodd" d="M1.6802 13.0473C4.03083 8.02995 9.4638 4.36682 16.604 4.53643C17.1638 4.55034 17.6888 4.63167 18.1765 4.77104C18.6852 4.91737 19.1497 5.12643 19.5725 5.38659C19.5029 4.4412 19.2195 3.61198 18.7712 2.90815C18.0953 2.66893 17.3427 2.52956 16.5204 2.51096C10.0515 2.37159 4.86012 4.85003 1.79872 8.55034C1.53614 9.88596 1.47809 11.3818 1.6802 13.0473Z" fill="#ED72AA"/>
<path fill-rule="evenodd" clip-rule="evenodd" d="M22.5386 31.2189L23.4607 27.4466L22.5386 22.9102H21.0729C20.8244 22.9102 20.5898 22.9729 20.3853 23.082C19.923 23.3305 19.6072 23.8184 19.6072 24.3759V29.7532C19.6072 30.3177 19.9301 30.8101 20.4016 31.054C20.6037 31.1585 20.8312 31.2189 21.0728 31.2189H22.5386Z" fill="#F9F6F6"/>
<path fill-rule="evenodd" clip-rule="evenodd" d="M32.659 30.9379L33.1514 26.8939L32.659 23.1913H27.0588L26.4015 27.0635L27.0588 30.9379H32.659Z" fill="#5C5C5C"/>
<path fill-rule="evenodd" clip-rule="evenodd" d="M38.747 29.2771C39.2162 29.2771 39.5994 28.8938 39.5994 28.4246V25.7046C39.5994 25.2353 39.2161 24.8521 38.747 24.8521H36.4706L35.6995 27.0634L36.4706 29.2771H38.747Z" fill="#5C5C5C"/>
<path fill-rule="evenodd" clip-rule="evenodd" d="M22.5386 31.0842V29.3885H21.0729C21.0148 29.3885 20.9544 29.3838 20.8963 29.3768C20.7198 29.3559 20.5526 29.3025 20.4016 29.2235C19.9301 28.9796 19.6072 28.4849 19.6072 27.9204V29.7531C19.6072 30.3176 19.9301 30.81 20.4016 31.0539C20.6037 31.1585 20.8312 31.2188 21.0728 31.2188H22.5385V31.0842H22.5386Z" fill="#E4E6EA"/>
<path fill-rule="evenodd" clip-rule="evenodd" d="M27.0588 30.9378H32.659V29.1074H27.0588V30.2642V30.9378Z" fill="#3D3D46"/>
<path fill-rule="evenodd" clip-rule="evenodd" d="M38.7469 29.277C39.2162 29.277 39.5994 28.8937 39.5994 28.4245V26.5941C39.5994 27.0633 39.2161 27.4466 38.7469 27.4466H36.4706V29.277H38.7469Z" fill="#3D3D46"/>
<path fill-rule="evenodd" clip-rule="evenodd" d="M27.0588 30.9379V23.1912V22.0322C27.0588 21.5746 26.7057 21.3121 26.2806 21.1564C25.4073 20.8312 24.3713 20.5641 23.4677 20.2854C23.0612 20.1599 22.6872 20.5339 22.5734 20.9589C22.5525 21.0425 22.5386 21.1285 22.5386 21.2122V22.9101V31.2189V32.9146C22.5386 33.112 22.6036 33.3141 22.7128 33.4836C22.8847 33.7554 23.168 33.9366 23.4677 33.8437L26.132 33.0238C26.6198 32.8728 27.0588 32.6057 27.0588 32.097V30.9379Z" fill="#FFCB64"/>
<path fill-rule="evenodd" clip-rule="evenodd" d="M23.4677 33.8437L26.132 33.0237C26.6198 32.8727 27.0588 32.6056 27.0588 32.0969V30.9379V30.2643C27.0588 30.7753 26.6198 31.0424 26.132 31.1934L23.4816 32.0087C22.7615 32.2294 22.6919 31.435 22.5386 31.0843V32.9147C22.5386 33.1121 22.6036 33.3142 22.7128 33.4837C22.8847 33.7554 23.1681 33.9365 23.4677 33.8437Z" fill="#FAAD14"/>
<path fill-rule="evenodd" clip-rule="evenodd" d="M36.4706 29.2771V24.8521C36.4706 23.9393 35.7227 23.1913 34.8098 23.1913H32.6589V30.9379H34.8098C35.7226 30.9379 36.4706 30.19 36.4706 29.2771Z" fill="#FFCB64"/>
<path fill-rule="evenodd" clip-rule="evenodd" d="M34.8098 30.9378C35.7227 30.9378 36.4706 30.1898 36.4706 29.2769V27.4465C36.4706 28.3594 35.7227 29.1074 34.8098 29.1074H32.6589V30.9378H34.8098Z" fill="#FAAD14"/>
<path fill-rule="evenodd" clip-rule="evenodd" d="M22.3393 10.5594C22.3182 14.7014 19.4864 17.5096 15.6216 16.9195C10.1726 15.8629 4.09783 18.4272 1.68705 24.6175C0.385798 21.7378 0.111032 18.7662 0.68572 16.0206C0.887282 15.0582 1.19369 14.1236 1.59603 13.2303C1.62369 13.1693 1.65213 13.1083 1.68056 13.0474C4.03119 8.03004 9.46385 4.36676 16.6042 4.53668C17.7495 4.56434 18.746 4.87559 19.5725 5.38684C21.3331 6.4784 22.3246 8.47621 22.3393 10.5594Z" fill="#FE93D3"/>
<path fill-rule="evenodd" clip-rule="evenodd" d="M1.68719 24.6175C3.40375 20.2087 6.97844 17.6396 10.8621 16.9057C12.4323 16.6107 14.0536 16.6153 15.6215 16.9196C19.4866 17.5096 22.318 14.7013 22.3389 10.5596C22.3273 8.87559 21.677 7.24965 20.4993 6.11145C20.5829 6.52489 20.6294 6.94997 20.6317 7.37973C20.6108 11.5214 17.7794 14.3296 13.9143 13.7396C8.81344 12.75 3.16445 14.9358 0.486328 20.297C0.648906 21.7325 1.04148 23.1866 1.68719 24.6175Z" fill="#ED72AA"/>
<path d="M13.717 31.8285C13.5472 31.8285 13.3782 31.7579 13.2576 31.6199C11.0625 29.1068 11.0626 25.0196 13.2579 22.5089C13.4794 22.2553 13.8646 22.2297 14.118 22.4512C14.3715 22.6728 14.3973 23.0579 14.1757 23.3113C12.3672 25.3798 12.3672 28.7472 14.1759 30.8178C14.3974 31.0713 14.3714 31.4565 14.1179 31.6779C14.0022 31.7789 13.8593 31.8285 13.717 31.8285Z" fill="#54B2D3"/>
<path d="M16.5136 30.5068C16.3438 30.5068 16.1749 30.4363 16.0543 30.2984C14.4949 28.5139 14.4951 25.6124 16.0546 23.8303C16.2764 23.5769 16.6616 23.5514 16.9149 23.7731C17.1682 23.9948 17.1939 24.3799 16.9721 24.6332C15.7998 25.9728 15.7999 28.1542 16.9725 29.496C17.194 29.7495 17.1681 30.1347 16.9146 30.3562C16.7989 30.4573 16.656 30.5068 16.5136 30.5068Z" fill="#54B2D3"/>
<path d="M15.698 10.6294C15.6297 10.9594 15.3079 11.1715 14.9779 11.1032C10.0499 10.0856 4.25879 11.7868 1.50825 15.0607C1.41637 15.1705 0.96856 15.7532 0.685669 16.0206C0.887231 15.0583 1.19364 14.1236 1.59598 13.2303C3.02567 11.9583 4.9195 10.9415 7.06528 10.3084C9.74504 9.51838 12.6426 9.37612 15.2241 9.90932C15.5541 9.97752 15.7663 10.2994 15.698 10.6294Z" fill="#ED72AA"/>
</svg>
