<svg width="79" class="logo_inner" height="75" viewBox="0 0 79 75" fill="none"
xmlns="http://www.w3.org/2000/svg">
<mask id="mask0_29625:104273" style="mask-type:alpha" maskUnits="userSpaceOnUse" x="33" y="0"
    width="13" height="75">
    <path d="M33.9971 0.978516H45.2922V74.81H33.9971V0.978516Z" fill="white" />
</mask>
<g mask="url(#mask0_29625:104273)">
    <path fill-rule="evenodd" clip-rule="evenodd"
        d="M41.8028 62.8229C40.9501 61.6914 40.6551 60.2395 40.6344 58.8498C40.6136 57.2435 40.9916 55.5542 42.077 54.3213C43.2317 52.9477 44.8011 51.7286 45.1445 49.8595C45.3703 48.4122 45.3842 46.8336 44.6766 45.5061C43.8309 43.7062 41.8696 42.7222 41.1552 40.8393C40.4707 39.0256 40.45 36.9514 41.0953 35.1262C41.8719 32.9506 44.2342 31.8467 44.967 29.6458C45.398 28.2354 45.398 26.6683 44.9601 25.2602C44.2249 23.0593 41.8235 21.9784 41.0838 19.7775C40.3993 17.7748 40.3786 15.3296 41.7337 13.592C42.3997 12.7208 43.2616 12.0202 43.9138 11.1375C45.232 9.5128 45.4925 7.25659 45.1306 5.25389C44.4761 2.40539 41.3672 0.434955 38.5095 1.11251C36.8802 1.42363 35.4674 2.55289 34.6631 3.98635C33.5108 6.15268 33.8703 9.06801 35.6149 10.8241C36.5667 11.8243 37.5646 12.8337 38.15 14.1013C38.793 15.4587 38.5948 17.0051 38.5694 18.4593C38.3758 20.5311 36.7718 21.9899 35.4674 23.4418C33.8842 25.1242 33.6514 27.7238 34.4165 29.8325C35.1932 31.7707 37.1659 32.8677 38.044 34.7459C38.7584 36.0342 38.604 37.5483 38.5902 38.9611C38.574 40.2148 37.9679 41.3763 37.2028 42.3373C36.3386 43.4827 35.1102 44.3584 34.5202 45.702C33.7989 47.3775 33.8312 49.3502 34.5548 51.0188C35.3914 52.7426 37.1498 53.7866 38.0071 55.4989C38.7999 56.9739 38.6247 58.7115 38.5487 60.3224C38.2952 62.3574 36.6866 63.7748 35.4029 65.2197C33.444 67.3838 33.5339 71.1195 35.6749 73.1361C36.8225 74.3022 38.4957 74.936 40.1297 74.7908C41.7659 74.6502 43.2824 73.7283 44.2618 72.4308C45.3888 70.8545 45.5363 68.7366 44.9417 66.9321C44.3655 65.2474 42.803 64.2265 41.8028 62.8229Z"
        fill="#24BEE1" />
</g>
<path fill-rule="evenodd" clip-rule="evenodd"
    d="M32.8764 55.0096C31.8532 53.7997 30.5211 52.7834 29.9288 51.2577C29.2006 49.3772 29.2006 47.1993 29.9542 45.328C30.4819 44.0005 31.6227 43.0925 32.5284 42.0439C33.3235 41.129 33.9227 39.9882 33.9711 38.7576C34.0264 37.5453 34.0449 36.2686 33.4733 35.1624C32.699 33.4454 30.906 32.489 30.1086 30.7859C29.249 29.0114 29.1914 26.8981 29.7468 25.0221C30.157 23.6463 31.1572 22.57 32.162 21.5905C33.3304 20.4475 34.1048 18.8573 33.9942 17.198C34.1278 15.299 33.1622 13.3862 31.5398 12.3813C30.316 11.4618 28.7143 11.2797 27.2417 11.5332C25.7183 11.8812 24.2964 12.8284 23.5289 14.2112C22.6739 15.6009 22.6855 17.3386 22.9943 18.8896C23.5612 21.1803 25.9234 22.305 26.8407 24.4022C27.6957 26.421 27.668 28.8132 26.707 30.7905C25.8312 32.5628 23.953 33.6091 23.2063 35.4643C22.7339 36.4967 22.8099 37.6606 22.8399 38.7668C22.879 39.8384 23.3492 40.8524 24.006 41.6867C24.944 42.8413 26.1562 43.7977 26.7992 45.1713C27.721 47.1601 27.6634 49.5569 26.7531 51.5389C25.8312 53.5716 23.5082 54.6732 22.9874 56.9294C22.697 58.4343 22.6762 60.112 23.4736 61.4764C24.4715 63.1956 26.3797 64.4193 28.3986 64.3733C30.9866 64.4447 33.4364 62.4397 33.9158 59.9023C34.1393 58.2246 33.9826 56.3717 32.8764 55.0096ZM52.21 50.756C51.726 48.9999 51.7283 47.0548 52.4128 45.3471C53.1756 43.5057 55.0516 42.4664 55.9181 40.6941C56.7432 39.0233 56.7708 36.9791 56.008 35.2829C55.1668 33.3539 53.095 32.2823 52.3575 30.2934C51.7191 28.5488 51.7053 26.5623 52.2976 24.7993C52.8553 23.1261 54.3832 22.1006 55.3788 20.7155C56.5634 19.1138 56.8999 16.9129 56.1601 15.0485C55.2498 12.4742 52.2976 10.9117 49.6473 11.5547C47.6353 12.0087 45.9069 13.645 45.4321 15.6615C45.121 16.8414 45.1971 18.1136 45.605 19.259C46.4485 21.5797 48.9974 22.785 49.645 25.2141C50.069 26.931 50.0713 28.8323 49.3776 30.4824C48.5364 32.3584 46.5914 33.4484 45.7364 35.3129C45.1302 36.7924 45.0841 38.5024 45.5704 40.0235C46.354 42.3143 48.836 43.4873 49.5643 45.8103C50.0713 47.4512 50.0621 49.2834 49.5366 50.9197C48.8222 53.0952 46.5268 54.2014 45.6949 56.3078C45.0196 57.9902 45.0795 59.9952 46.006 61.5738C46.7181 62.7262 47.8151 63.6595 49.108 64.0905C50.7466 64.6413 52.6502 64.4039 54.0675 63.3922C55.4572 62.4773 56.3191 60.894 56.5288 59.2646C56.6855 57.5477 56.1209 55.7662 54.9363 54.5033C53.897 53.3625 52.6571 52.2955 52.21 50.756Z"
    fill="#24BEE1" />
<path fill-rule="evenodd" clip-rule="evenodd"
    d="M63.2116 39.1781C63.1908 37.7355 63.0157 36.2052 63.6863 34.8685C64.5482 32.8635 66.7007 31.7688 67.4405 29.6924C68.2172 27.5376 67.747 24.8988 65.9817 23.3616C64.6358 21.9996 62.5617 21.6401 60.7387 22.0181C59.1946 22.4237 57.8234 23.4815 57.102 24.9195C56.4268 26.1594 56.4222 27.6367 56.6365 29.001C56.9937 30.7917 58.4295 32.0246 59.5933 33.3175C61.3425 35.2557 61.52 38.1826 60.7479 40.577C60.0496 42.6466 57.9087 43.7113 57.0421 45.6725C56.4775 46.7603 56.4521 48.0232 56.572 49.2147C56.9223 51.2819 58.4825 53.1371 60.5175 53.711C62.0984 54.1627 63.8914 53.9391 65.265 53.0173C66.4887 52.1853 67.4198 50.8832 67.6733 49.4129C68.1088 47.4862 67.4636 45.3844 66.0739 43.9879C64.7718 42.6489 63.3429 41.1463 63.2116 39.1781Z"
    fill="#24BEE1" />
<path fill-rule="evenodd" clip-rule="evenodd"
    d="M78.8875 37.8004C78.2215 34.7307 74.6586 32.6681 71.6741 33.7374C69.4571 34.4242 67.6964 36.5974 67.8093 38.9643C67.5835 41.6906 69.7659 44.2142 72.4139 44.6589C74.7715 45.0807 77.3596 43.8316 78.4082 41.6583C79.0627 40.4899 79.0927 39.0933 78.8875 37.8004ZM22.2896 45.7248C21.6674 44.1508 20.1256 43.2497 19.243 41.8531C17.9201 39.8273 17.8256 37.1332 18.7037 34.9185C19.5011 32.9135 21.6628 31.8603 22.3911 29.8253C22.7944 28.6615 22.981 27.3779 22.6307 26.1748C22.1998 24.0684 20.3883 22.3746 18.305 21.9528C17.2495 21.8422 16.1433 21.8076 15.1477 22.2363C12.8385 22.9922 11.3312 25.4881 11.5433 27.8803C11.4833 29.8922 12.8315 31.5354 14.189 32.8628C15.014 33.6187 15.4888 34.6374 15.9658 35.6283C16.2147 37.3176 16.3276 39.0829 15.7284 40.7169C14.8711 42.8118 12.6679 43.948 11.8751 46.0705C11.4649 47.0569 11.511 48.1562 11.5824 49.2002C11.8751 51.2397 13.433 52.9843 15.3574 53.6642C16.3345 53.9361 17.3739 54.0352 18.3764 53.8209C20.4736 53.3807 22.2758 51.6292 22.663 49.5021C22.9879 48.2461 22.7598 46.914 22.2896 45.7248Z"
    fill="#24BEE1" />
<path fill-rule="evenodd" clip-rule="evenodd"
    d="M11.5573 38.9603C11.578 36.6787 9.95559 34.5746 7.84687 33.8002C6.65078 33.3485 5.34868 33.3877 4.13185 33.7265C2.97724 34.2335 1.83646 34.941 1.18887 36.0541C0.426044 37.3632 0.00430068 38.9695 0.476745 40.4536C0.863919 42.2489 2.22825 43.7124 3.92213 44.3646C6.08155 45.2657 8.7111 44.5005 10.2114 42.7536C11.101 41.712 11.6403 40.3407 11.5573 38.9603Z"
    fill="#24BEE1" />
</svg>