<svg width="12" height="12" viewBox="0 0 12 12" fill="none" xmlns="http://www.w3.org/2000/svg">
<path d="M10.875 1.875H1.125C0.917578 1.875 0.75 2.04258 0.75 2.25V9.75C0.75 9.95742 0.917578 10.125 1.125 10.125H10.875C11.0824 10.125 11.25 9.95742 11.25 9.75V2.25C11.25 2.04258 11.0824 1.875 10.875 1.875ZM9.92813 3.15117L6.23086 6.02813C6.13945 6.09961 6.01172 6.09961 5.92031 6.02813L2.22188 3.15117C2.20793 3.14041 2.19771 3.12556 2.19263 3.1087C2.18755 3.09183 2.18788 3.0738 2.19357 3.05714C2.19925 3.04047 2.21001 3.026 2.22433 3.01575C2.23866 3.00551 2.25583 3 2.27344 3H9.87656C9.89417 3 9.91134 3.00551 9.92567 3.01575C9.93999 3.026 9.95075 3.04047 9.95643 3.05714C9.96212 3.0738 9.96245 3.09183 9.95737 3.1087C9.95229 3.12556 9.94207 3.14041 9.92813 3.15117Z" fill="#9292A3"/>
</svg>
