<svg width="343" height="90" viewBox="0 0 343 90" fill="none" xmlns="http://www.w3.org/2000/svg">
<path fill-rule="evenodd" clip-rule="evenodd" d="M31.2515 48.9195C33.7404 48.9195 36.003 48.4371 38.0394 47.4677C40.0712 46.4982 41.7908 45.1888 43.2027 43.5486C44.6146 41.9084 45.7142 40.0109 46.5016 37.8607C47.289 35.7106 47.6872 33.4179 47.6872 30.9737C47.6872 28.5295 47.289 26.2323 46.5016 24.0821C45.7142 21.9319 44.6146 20.039 43.2027 18.3896C41.7908 16.7494 40.0712 15.4446 38.0394 14.4752C36.003 13.5057 33.7404 13.0233 31.2515 13.0233H14.3179V48.9195H31.2515ZM0 0.00275889H31.2515C35.8989 0.00275889 40.1119 0.820565 43.886 2.46996C47.6646 4.11017 50.9002 6.36602 53.5972 9.22834C56.2943 12.0953 58.3714 15.4032 59.824 19.1523C61.2766 22.9013 62.0006 26.8433 62.0006 30.9737C62.0006 35.1868 61.2766 39.1472 59.824 42.8549C58.3714 46.5626 56.2943 49.8476 53.5972 52.7099C50.9002 55.5768 47.6646 57.8281 43.886 59.4775C40.1119 61.1177 35.8989 61.9401 31.2515 61.9401H14.3179V88.482H0V0.00275889ZM95.9931 77.7421C98.5634 77.7421 100.912 77.2367 103.03 76.2259C105.143 75.2106 106.949 73.8644 108.442 72.1783C109.94 70.4921 111.098 68.5119 111.931 66.2377C112.759 63.9634 113.175 61.5606 113.175 59.0336C113.175 56.5067 112.759 54.0992 111.931 51.825C111.098 49.5508 109.94 47.5752 108.442 45.8844C106.949 44.2029 105.143 42.8521 103.03 41.8459C100.912 40.8306 98.5634 40.3206 95.9931 40.3206C93.4182 40.3206 91.0922 40.8306 89.0196 41.8459C86.9425 42.8521 85.1596 44.2029 83.6662 45.8844C82.1729 47.5752 81.0325 49.5508 80.2451 51.825C79.4532 54.0992 79.0595 56.5067 79.0595 59.0336C79.0595 61.5606 79.4532 63.9634 80.2451 66.2377C81.0325 68.5119 82.1729 70.4921 83.6662 72.1783C85.1596 73.8644 86.9425 75.2106 89.0196 76.2259C91.0922 77.2367 93.4182 77.7421 95.9931 77.7421ZM126.742 29.5834V88.4838H113.175V80.5171C111.347 83.4713 108.754 85.7869 105.392 87.4731C102.03 89.1546 98.6494 90 95.2464 90C90.8478 90 86.8204 89.1776 83.173 87.5374C79.5166 85.8926 76.3851 83.6367 73.7695 80.7744C71.1539 77.9121 69.1221 74.6225 67.6694 70.9148C66.2168 67.2071 65.4883 63.2467 65.4883 59.0336C65.4883 54.9033 66.2168 50.9659 67.6694 47.2122C69.1221 43.4632 71.1539 40.1552 73.7695 37.2883C76.3851 34.426 79.5166 32.1701 83.173 30.5299C86.8204 28.8851 90.8478 28.0627 95.2464 28.0627C98.6494 28.0627 102.03 28.9081 105.392 30.5896C108.754 32.2758 111.347 34.5959 113.175 37.5456V29.5834H126.742ZM173.183 77.7421C175.754 77.7421 178.08 77.2367 180.157 76.2259C182.229 75.2106 184.017 73.8644 185.51 72.1783C187.003 70.4921 188.144 68.5119 188.931 66.2377C189.719 63.9634 190.117 61.5606 190.117 59.0336C190.117 56.5067 189.719 54.0992 188.931 51.825C188.144 49.5508 187.003 47.5752 185.51 45.8844C184.017 44.2029 182.229 42.8521 180.157 41.8459C178.08 40.8306 175.754 40.3206 173.183 40.3206C170.527 40.3206 168.142 40.8306 166.024 41.8459C163.906 42.8521 162.101 44.2029 160.607 45.8844C159.114 47.5752 157.974 49.5508 157.182 51.825C156.394 54.0992 156.001 56.5067 156.001 59.0336C156.001 61.5606 156.394 63.9634 157.182 66.2377C157.974 68.5119 159.114 70.4921 160.607 72.1783C162.101 73.8644 163.906 75.2106 166.024 76.2259C168.142 77.2367 170.527 77.7421 173.183 77.7421ZM156.001 88.4838H142.434V0H156.001V37.5456C157.824 34.5959 160.422 32.2758 163.784 30.5896C167.146 28.9081 170.527 28.0627 173.93 28.0627C178.328 28.0627 182.351 28.8851 186.003 30.5299C189.66 32.1701 192.791 34.426 195.407 37.2883C198.022 40.1552 200.054 43.4632 201.507 47.2122C202.959 50.9659 203.683 54.9033 203.683 59.0336C203.683 63.2467 202.959 67.2071 201.507 70.9148C200.054 74.6225 198.022 77.9121 195.407 80.7744C192.791 83.6367 189.66 85.8926 186.003 87.5374C182.351 89.1776 178.328 90 173.93 90C170.527 90 167.146 89.1546 163.784 87.4731C160.422 85.7869 157.824 83.4713 156.001 80.5171V88.4838ZM243.899 77.7421C246.469 77.7421 248.818 77.2367 250.931 76.2259C253.049 75.2106 254.855 73.8644 256.348 72.1783C257.846 70.4921 259.004 68.5119 259.832 66.2377C260.665 63.9634 261.081 61.5606 261.081 59.0336C261.081 56.5067 260.665 54.0992 259.832 51.825C259.004 49.5508 257.846 47.5752 256.348 45.8844C254.855 44.2029 253.049 42.8521 250.931 41.8459C248.818 40.8306 246.469 40.3206 243.899 40.3206C241.324 40.3206 238.998 40.8306 236.926 41.8459C234.848 42.8521 233.066 44.2029 231.572 45.8844C230.079 47.5752 228.938 49.5508 228.151 51.825C227.359 54.0992 226.965 56.5067 226.965 59.0336C226.965 61.5606 227.359 63.9634 228.151 66.2377C228.938 68.5119 230.079 70.4921 231.572 72.1783C233.066 73.8644 234.848 75.2106 236.926 76.2259C238.998 77.2367 241.324 77.7421 243.899 77.7421ZM274.648 29.5834V88.4838H261.081V80.5171C259.253 83.4713 256.66 85.7869 253.298 87.4731C249.936 89.1546 246.555 90 243.152 90C238.749 90 234.726 89.1776 231.074 87.5374C227.423 85.8926 224.291 83.6367 221.675 80.7744C219.06 77.9121 217.028 74.6225 215.575 70.9148C214.123 67.2071 213.394 63.2467 213.394 59.0336C213.394 54.9033 214.123 50.9659 215.575 47.2122C217.028 43.4632 219.06 40.1552 221.675 37.2883C224.291 34.426 227.423 32.1701 231.074 30.5299C234.726 28.8851 238.749 28.0627 243.152 28.0627C246.555 28.0627 249.936 28.9081 253.298 30.5896C256.66 32.2758 259.253 34.5959 261.081 37.5456V29.5834H274.648ZM343 29.5816V88.482H329.429V80.2672C327.605 83.4695 325.075 85.8954 321.835 87.5356C318.6 89.1804 314.821 89.9982 310.504 89.9982C306.273 89.9982 302.725 89.2814 299.861 87.8526C296.996 86.4191 294.734 84.4803 293.077 82.036C291.665 79.8445 290.688 77.4049 290.149 74.7034C289.611 72.011 289.344 68.6387 289.344 64.5956V29.5816H302.911V60.0426C302.911 62.5741 303.119 64.931 303.535 67.1226C303.952 69.3141 304.635 71.1886 305.59 72.7507C306.54 74.3082 307.83 75.5487 309.445 76.4768C311.065 77.4049 313.079 77.8689 315.486 77.8689C320.215 77.8689 323.722 76.1598 326.008 72.7507C328.288 69.3325 329.429 65.0964 329.429 60.0426V29.5816H343Z" fill="#24BEE1"/>
</svg>
