<svg width="99" height="24" viewBox="0 0 99 24" fill="none" xmlns="http://www.w3.org/2000/svg">
  <rect x="0.5" y="0.5" width="98" height="23" rx="11.5" fill="#CFCFCF" fill-opacity="0.1"/>
  <path d="M17.2097 4.13295C16.1604 4.13295 15.3066 4.9867 15.3066 6.03608C15.3066 7.08545 16.1604 7.9392 17.2097 7.9392C18.2591 7.9392 19.1129 7.08545 19.1129 6.03608C19.1129 4.9867 18.2591 4.13295 17.2097 4.13295ZM17.2097 7.0017C16.6773 7.0017 16.2441 6.56851 16.2441 6.03608C16.2441 5.50364 16.6773 5.07045 17.2097 5.07045C17.7422 5.07045 18.1754 5.50364 18.1754 6.03608C18.1754 6.56854 17.7422 7.0017 17.2097 7.0017Z" fill="#9292A3"/>
  <path d="M25.0965 14.5422C24.0471 14.5422 23.1934 15.3959 23.1934 16.4453C23.1934 17.4947 24.0471 18.3484 25.0965 18.3484C26.1459 18.3484 26.9996 17.4947 26.9996 16.4453C26.9996 15.3959 26.1459 14.5422 25.0965 14.5422ZM25.0965 17.4109C24.564 17.4109 24.1309 16.9777 24.1309 16.4453C24.1309 15.9129 24.564 15.4797 25.0965 15.4797C25.6289 15.4797 26.0621 15.9129 26.0621 16.4453C26.0621 16.9777 25.6289 17.4109 25.0965 17.4109Z" fill="#9292A3"/>
  <path d="M21.9944 14.9232C21.5598 14.5371 20.9795 14.3546 20.4021 14.423L20.0078 14.4696C20.0902 14.2191 20.0879 13.9446 19.9948 13.6911L18.1007 8.53977H15.6363L12.7344 15.3297L12.3775 15.3719C11.5922 15.4647 11 16.1311 11 16.9219C11 17.7826 11.7002 18.4828 12.5608 18.4828H20.6413V18.4827C21.7645 18.4827 22.6783 17.569 22.6783 16.4458C22.6783 15.8644 22.429 15.3095 21.9944 14.9232ZM16.2551 9.47733H17.4466L19.1148 14.0147C19.1534 14.1196 19.1131 14.2013 19.0856 14.2406C19.0582 14.28 18.9954 14.346 18.8837 14.346C18.7981 14.346 18.72 14.3026 18.6747 14.2301L16.8906 11.3696L15.5523 14.9965L13.8081 15.2027L16.2551 9.47733ZM17.8764 14.7216L16.5972 14.8729L17.1077 13.4892L17.8764 14.7216ZM20.6413 17.5453H12.5608C12.2171 17.5452 11.9375 17.2656 11.9375 16.9219C11.9375 16.6061 12.174 16.34 12.4876 16.3029L20.5122 15.354C20.557 15.3487 20.6015 15.3461 20.6457 15.3461C20.9135 15.3461 21.1673 15.4425 21.3716 15.6241C21.6096 15.8356 21.7407 16.1274 21.7407 16.4458C21.7407 17.0521 21.2475 17.5453 20.6413 17.5453Z" fill="#9292A3"/>
  <path d="M26.465 18.9295H11.4688V19.867H26.465V18.9295Z" fill="#9292A3"/>
  <path d="M42.984 17H41.626V9.272L38.238 17H36.978L33.618 9.272V17H32.26V7.074H34.122L37.622 15.152L41.15 7.074H42.984V17ZM44.8797 15.194C44.8797 14.6153 45.0664 14.1533 45.4397 13.808C45.813 13.4533 46.3077 13.234 46.9237 13.15L48.7437 12.884C49.089 12.8373 49.2617 12.6693 49.2617 12.38C49.2617 12.0253 49.1404 11.736 48.8977 11.512C48.655 11.288 48.291 11.176 47.8057 11.176C47.3577 11.176 47.003 11.302 46.7417 11.554C46.4804 11.7967 46.3264 12.1233 46.2797 12.534L45.0197 12.24C45.085 11.596 45.379 11.0733 45.9017 10.672C46.4244 10.2613 47.0497 10.056 47.7777 10.056C48.7297 10.056 49.4344 10.2893 49.8917 10.756C50.349 11.2133 50.5777 11.8013 50.5777 12.52V15.894C50.5777 16.2953 50.6057 16.664 50.6617 17H49.3737C49.327 16.72 49.3037 16.4167 49.3037 16.09C49.117 16.3887 48.8417 16.65 48.4777 16.874C48.123 17.098 47.675 17.21 47.1337 17.21C46.471 17.21 45.9297 17.014 45.5097 16.622C45.0897 16.2207 44.8797 15.7447 44.8797 15.194ZM47.3157 16.104C47.9037 16.104 48.375 15.9453 48.7297 15.628C49.0844 15.3107 49.2617 14.8067 49.2617 14.116V13.808L47.2037 14.116C46.905 14.1627 46.667 14.27 46.4897 14.438C46.3124 14.606 46.2237 14.8347 46.2237 15.124C46.2237 15.3853 46.3217 15.614 46.5177 15.81C46.723 16.006 46.989 16.104 47.3157 16.104ZM51.9978 15.25L53.1878 14.83C53.2345 15.194 53.3931 15.4973 53.6638 15.74C53.9345 15.9733 54.2985 16.09 54.7558 16.09C55.1105 16.09 55.3905 16.006 55.5958 15.838C55.8011 15.6607 55.9038 15.446 55.9038 15.194C55.9038 14.746 55.6145 14.4567 55.0358 14.326L53.8878 14.074C53.3651 13.962 52.9545 13.738 52.6558 13.402C52.3571 13.066 52.2078 12.66 52.2078 12.184C52.2078 11.6053 52.4411 11.106 52.9078 10.686C53.3838 10.266 53.9485 10.056 54.6018 10.056C55.0311 10.056 55.4138 10.1213 55.7498 10.252C56.0858 10.3733 56.3471 10.5367 56.5338 10.742C56.7205 10.9473 56.8605 11.1387 56.9538 11.316C57.0471 11.4933 57.1171 11.6753 57.1638 11.862L56.0018 12.296C55.9831 12.184 55.9505 12.0767 55.9038 11.974C55.8571 11.862 55.7825 11.7407 55.6798 11.61C55.5865 11.4793 55.4465 11.3767 55.2598 11.302C55.0731 11.218 54.8538 11.176 54.6018 11.176C54.2751 11.176 54.0045 11.2647 53.7898 11.442C53.5845 11.6193 53.4818 11.8293 53.4818 12.072C53.4818 12.5013 53.7385 12.772 54.2518 12.884L55.3438 13.122C55.9411 13.2527 56.3985 13.4953 56.7158 13.85C57.0425 14.1953 57.2058 14.62 57.2058 15.124C57.2058 15.656 56.9865 16.1367 56.5478 16.566C56.1185 16.9953 55.5165 17.21 54.7418 17.21C53.9111 17.21 53.2625 17.0047 52.7958 16.594C52.3291 16.174 52.0631 15.726 51.9978 15.25ZM58.3279 15.25L59.5179 14.83C59.5646 15.194 59.7232 15.4973 59.9939 15.74C60.2646 15.9733 60.6286 16.09 61.0859 16.09C61.4406 16.09 61.7206 16.006 61.9259 15.838C62.1312 15.6607 62.2339 15.446 62.2339 15.194C62.2339 14.746 61.9446 14.4567 61.3659 14.326L60.2179 14.074C59.6952 13.962 59.2846 13.738 58.9859 13.402C58.6872 13.066 58.5379 12.66 58.5379 12.184C58.5379 11.6053 58.7712 11.106 59.2379 10.686C59.7139 10.266 60.2786 10.056 60.9319 10.056C61.3612 10.056 61.7439 10.1213 62.0799 10.252C62.4159 10.3733 62.6772 10.5367 62.8639 10.742C63.0506 10.9473 63.1906 11.1387 63.2839 11.316C63.3772 11.4933 63.4472 11.6753 63.4939 11.862L62.3319 12.296C62.3132 12.184 62.2806 12.0767 62.2339 11.974C62.1872 11.862 62.1126 11.7407 62.0099 11.61C61.9166 11.4793 61.7766 11.3767 61.5899 11.302C61.4032 11.218 61.1839 11.176 60.9319 11.176C60.6052 11.176 60.3346 11.2647 60.1199 11.442C59.9146 11.6193 59.8119 11.8293 59.8119 12.072C59.8119 12.5013 60.0686 12.772 60.5819 12.884L61.6739 13.122C62.2712 13.2527 62.7286 13.4953 63.0459 13.85C63.3726 14.1953 63.5359 14.62 63.5359 15.124C63.5359 15.656 63.3166 16.1367 62.8779 16.566C62.4486 16.9953 61.8466 17.21 61.0719 17.21C60.2412 17.21 59.5926 17.0047 59.1259 16.594C58.6592 16.174 58.3932 15.726 58.3279 15.25ZM64.7313 15.194C64.7313 14.6153 64.9179 14.1533 65.2913 13.808C65.6646 13.4533 66.1593 13.234 66.7753 13.15L68.5953 12.884C68.9406 12.8373 69.1133 12.6693 69.1133 12.38C69.1133 12.0253 68.9919 11.736 68.7493 11.512C68.5066 11.288 68.1426 11.176 67.6573 11.176C67.2093 11.176 66.8546 11.302 66.5933 11.554C66.3319 11.7967 66.1779 12.1233 66.1313 12.534L64.8713 12.24C64.9366 11.596 65.2306 11.0733 65.7533 10.672C66.2759 10.2613 66.9013 10.056 67.6292 10.056C68.5813 10.056 69.2859 10.2893 69.7433 10.756C70.2006 11.2133 70.4293 11.8013 70.4293 12.52V15.894C70.4293 16.2953 70.4573 16.664 70.5133 17H69.2253C69.1786 16.72 69.1553 16.4167 69.1553 16.09C68.9686 16.3887 68.6933 16.65 68.3293 16.874C67.9746 17.098 67.5266 17.21 66.9853 17.21C66.3226 17.21 65.7813 17.014 65.3613 16.622C64.9413 16.2207 64.7313 15.7447 64.7313 15.194ZM67.1673 16.104C67.7553 16.104 68.2266 15.9453 68.5813 15.628C68.9359 15.3107 69.1133 14.8067 69.1133 14.116V13.808L67.0553 14.116C66.7566 14.1627 66.5186 14.27 66.3413 14.438C66.1639 14.606 66.0753 14.8347 66.0753 15.124C66.0753 15.3853 66.1733 15.614 66.3693 15.81C66.5746 16.006 66.8406 16.104 67.1673 16.104ZM71.9894 17.364L73.2634 17.07C73.31 17.546 73.5014 17.938 73.8374 18.246C74.1734 18.5633 74.5934 18.722 75.0974 18.722C76.4694 18.722 77.1554 17.994 77.1554 16.538V15.572C76.9874 15.8987 76.7214 16.1647 76.3574 16.37C76.0027 16.5753 75.5827 16.678 75.0974 16.678C74.2014 16.678 73.4594 16.3747 72.8714 15.768C72.2927 15.152 72.0034 14.368 72.0034 13.416C72.0034 12.492 72.2927 11.7173 72.8714 11.092C73.45 10.4573 74.192 10.14 75.0974 10.14C76.124 10.14 76.8147 10.4947 77.1694 11.204V10.266H78.4714V16.496C78.4714 16.944 78.4107 17.3593 78.2894 17.742C78.1774 18.134 77.9954 18.4933 77.7434 18.82C77.4914 19.1467 77.1367 19.4033 76.6794 19.59C76.2314 19.7767 75.704 19.87 75.0974 19.87C74.2667 19.87 73.562 19.632 72.9834 19.156C72.4047 18.6893 72.0734 18.092 71.9894 17.364ZM75.2934 15.572C75.8627 15.572 76.3247 15.376 76.6794 14.984C77.034 14.5827 77.2114 14.06 77.2114 13.416C77.2114 12.772 77.034 12.254 76.6794 11.862C76.3247 11.4607 75.8627 11.26 75.2934 11.26C74.7147 11.26 74.2434 11.456 73.8794 11.848C73.5247 12.24 73.3474 12.7627 73.3474 13.416C73.3474 14.0787 73.52 14.606 73.8654 14.998C74.22 15.3807 74.696 15.572 75.2934 15.572ZM81.4271 12.94H85.1091C85.0905 12.436 84.9225 12.0253 84.6051 11.708C84.2878 11.3813 83.8398 11.218 83.2611 11.218C82.7385 11.218 82.3091 11.3907 81.9731 11.736C81.6371 12.072 81.4551 12.4733 81.4271 12.94ZM85.3051 14.69L86.4391 15.082C86.2431 15.7073 85.8791 16.2207 85.3471 16.622C84.8151 17.014 84.1711 17.21 83.4151 17.21C82.4725 17.21 81.6698 16.888 81.0071 16.244C80.3538 15.5907 80.0271 14.7133 80.0271 13.612C80.0271 12.5853 80.3445 11.736 80.9791 11.064C81.6138 10.392 82.3698 10.056 83.2471 10.056C84.2645 10.056 85.0578 10.378 85.6271 11.022C86.1965 11.6567 86.4811 12.5107 86.4811 13.584C86.4811 13.752 86.4718 13.892 86.4531 14.004H81.3851C81.3945 14.6013 81.5905 15.0913 81.9731 15.474C82.3651 15.8567 82.8458 16.048 83.4151 16.048C84.3765 16.048 85.0065 15.5953 85.3051 14.69Z" fill="#C0C0C0"/>
  <rect x="0.5" y="0.5" width="98" height="23" rx="11.5" stroke="#C0C0C0"/>
</svg>
