<svg width="32" height="32" viewBox="0 0 32 32" fill="none" xmlns="http://www.w3.org/2000/svg">
  <path d="M0 16C0 7.16344 7.16344 0 16 0C24.8366 0 32 7.16344 32 16C32 24.8366 24.8366 32 16 32C7.16344 32 0 24.8366 0 16Z" fill="white"/>
  <path d="M15.0156 11.0625C15.0156 11.3236 15.1193 11.574 15.3039 11.7586C15.4885 11.9432 15.7389 12.0469 16 12.0469C16.2611 12.0469 16.5115 11.9432 16.6961 11.7586C16.8807 11.574 16.9844 11.3236 16.9844 11.0625C16.9844 10.8014 16.8807 10.551 16.6961 10.3664C16.5115 10.1818 16.2611 10.0781 16 10.0781C15.7389 10.0781 15.4885 10.1818 15.3039 10.3664C15.1193 10.551 15.0156 10.8014 15.0156 11.0625ZM15.0156 15.9844C15.0156 16.2454 15.1193 16.4958 15.3039 16.6804C15.4885 16.865 15.7389 16.9688 16 16.9688C16.2611 16.9688 16.5115 16.865 16.6961 16.6804C16.8807 16.4958 16.9844 16.2454 16.9844 15.9844C16.9844 15.7233 16.8807 15.4729 16.6961 15.2883C16.5115 15.1037 16.2611 15 16 15C15.7389 15 15.4885 15.1037 15.3039 15.2883C15.1193 15.4729 15.0156 15.7233 15.0156 15.9844ZM15.0156 20.9062C15.0156 21.1673 15.1193 21.4177 15.3039 21.6023C15.4885 21.7869 15.7389 21.8906 16 21.8906C16.2611 21.8906 16.5115 21.7869 16.6961 21.6023C16.8807 21.4177 16.9844 21.1673 16.9844 20.9062C16.9844 20.6452 16.8807 20.3948 16.6961 20.2102C16.5115 20.0256 16.2611 19.9219 16 19.9219C15.7389 19.9219 15.4885 20.0256 15.3039 20.2102C15.1193 20.3948 15.0156 20.6452 15.0156 20.9062Z" fill="#9292A3"/>
  <path d="M16 31C7.71573 31 1 24.2843 1 16H-1C-1 25.3888 6.61116 33 16 33V31ZM31 16C31 24.2843 24.2843 31 16 31V33C25.3888 33 33 25.3888 33 16H31ZM16 1C24.2843 1 31 7.71573 31 16H33C33 6.61116 25.3888 -1 16 -1V1ZM16 -1C6.61116 -1 -1 6.61116 -1 16H1C1 7.71573 7.71573 1 16 1V-1Z" fill="#ECEDF0"/>
</svg>
