<svg width="16" height="16" viewBox="0 0 16 16" fill="none" xmlns="http://www.w3.org/2000/svg">
<path d="M14.2508 4H8.41746C8.18746 4 8.00079 4.19911 8.00079 4.44444C8.00079 4.68978 8.18746 4.88889 8.41746 4.88889H13.0366L10.4766 7.01244L8.64079 5.76711L8.19413 6.51733L10.2775 7.93067C10.345 7.97689 10.4233 8 10.5008 8C10.5908 8 10.6816 7.96889 10.7566 7.90667L13.8341 5.35289V11.1111H8.41746C8.18746 11.1111 8.00079 11.3102 8.00079 11.5556C8.00079 11.8009 8.18746 12 8.41746 12H14.2508C14.4808 12 14.6675 11.8009 14.6675 11.5556V4.44444C14.6675 4.19911 14.4808 4 14.2508 4Z" fill="#9292A3"/>
<path d="M8.51997 2.09253C8.42708 2.01654 8.30242 1.98374 8.18508 2.00774L1.66657 3.20768C1.47346 3.24288 1.33412 3.40768 1.33412 3.60047V12.4001C1.33412 12.5921 1.47346 12.7577 1.66657 12.7929L8.18508 13.9928C8.20953 13.9976 8.23479 14 8.26005 14C8.35457 14 8.44664 13.968 8.51997 13.908C8.61368 13.832 8.66745 13.7184 8.66745 13.6V2.40052C8.66745 2.28133 8.61368 2.16853 8.51997 2.09253Z" fill="#9292A3"/>
<path d="M5.33412 10.6667C4.23172 10.6667 3.33412 9.61978 3.33412 8.33333C3.33412 7.04689 4.23172 6 5.33412 6C6.43652 6 7.33412 7.04689 7.33412 8.33333C7.33412 9.61978 6.43652 10.6667 5.33412 10.6667ZM5.33412 6.77778C4.67252 6.77778 4.13412 7.47544 4.13412 8.33333C4.13412 9.19122 4.67252 9.88889 5.33412 9.88889C5.99572 9.88889 6.53412 9.19122 6.53412 8.33333C6.53412 7.47544 5.99572 6.77778 5.33412 6.77778Z" fill="#FAFAFA"/>
</svg>
