<svg width="24" height="24" viewBox="0 0 24 24" fill="none" xmlns="http://www.w3.org/2000/svg">
<path d="M21.375 6H12.625C12.28 6 12 6.29867 12 6.66667C12 7.03467 12.28 7.33333 12.625 7.33333H19.5538L15.7137 10.5187L12.96 8.65067L12.29 9.776L15.415 11.896C15.5163 11.9653 15.6337 12 15.75 12C15.885 12 16.0213 11.9533 16.1337 11.86L20.75 8.02933V16.6667H12.625C12.28 16.6667 12 16.9653 12 17.3333C12 17.7013 12.28 18 12.625 18H21.375C21.72 18 22 17.7013 22 17.3333V6.66667C22 6.29867 21.72 6 21.375 6Z" fill="#006EC3"/>
<path d="M12.7788 3.1388C12.6394 3.02481 12.4524 2.97561 12.2764 3.01161L2.49867 4.81153C2.209 4.86432 2 5.11151 2 5.4007V18.6001C2 18.8881 2.209 19.1365 2.49867 19.1893L12.2764 20.9892C12.3131 20.9964 12.351 21 12.3889 21C12.5307 21 12.6688 20.952 12.7788 20.862C12.9193 20.748 13 20.5776 13 20.4V3.60078C13 3.42199 12.9193 3.2528 12.7788 3.1388Z" fill="#006EC3"/>
<path d="M8 16C6.3464 16 5 14.4297 5 12.5C5 10.5703 6.3464 9 8 9C9.6536 9 11 10.5703 11 12.5C11 14.4297 9.6536 16 8 16ZM8 10.1667C7.0076 10.1667 6.2 11.2132 6.2 12.5C6.2 13.7868 7.0076 14.8333 8 14.8333C8.9924 14.8333 9.8 13.7868 9.8 12.5C9.8 11.2132 8.9924 10.1667 8 10.1667Z" fill="#FAFAFA"/>
</svg>
