<svg width="78" height="22" viewBox="0 0 78 22" fill="none" xmlns="http://www.w3.org/2000/svg">
<mask id="mask0" mask-type="alpha" maskUnits="userSpaceOnUse" x="9" y="0" width="4" height="22">
<path d="M9.43925 0.5H12.6011V21.4593H9.43925V0.5Z" fill="white"/>
</mask>
<g mask="url(#mask0)">
<path fill-rule="evenodd" clip-rule="evenodd" d="M11.6247 18.0564C11.386 17.7352 11.3034 17.323 11.2976 16.9285C11.2918 16.4725 11.3976 15.993 11.7015 15.643C12.0247 15.253 12.464 14.9069 12.5602 14.3764C12.6234 13.9655 12.6273 13.5174 12.4292 13.1405C12.1924 12.6296 11.6434 12.3502 11.4434 11.8157C11.2518 11.3008 11.246 10.712 11.4267 10.1939C11.6441 9.57626 12.3053 9.26288 12.5105 8.63809C12.6311 8.2377 12.6311 7.79282 12.5086 7.39309C12.3028 6.76829 11.6305 6.46146 11.4234 5.83667C11.2318 5.26814 11.226 4.574 11.6054 4.08071C11.7918 3.83341 12.0331 3.63452 12.2157 3.38395C12.5847 2.92272 12.6576 2.28222 12.5563 1.71369C12.3731 0.905062 11.5028 0.345694 10.7028 0.538038C10.2467 0.626359 9.85125 0.946933 9.6261 1.35387C9.30353 1.96884 9.40417 2.79645 9.89254 3.29497C10.159 3.57891 10.4383 3.86546 10.6022 4.22529C10.7822 4.61064 10.7267 5.04962 10.7196 5.46245C10.6654 6.0506 10.2164 6.46473 9.85125 6.8769C9.40804 7.35449 9.34288 8.09246 9.55707 8.69108C9.77448 9.24129 10.3267 9.55271 10.5725 10.0859C10.7725 10.4516 10.7293 10.8815 10.7254 11.2825C10.7209 11.6384 10.5512 11.9681 10.337 12.2409C10.0951 12.5661 9.75125 12.8147 9.5861 13.1961C9.38417 13.6718 9.3932 14.2318 9.59578 14.7054C9.82996 15.1948 10.3222 15.4912 10.5622 15.9773C10.7841 16.396 10.7351 16.8893 10.7138 17.3466C10.6428 17.9243 10.1925 18.3266 9.83319 18.7368C9.28482 19.3511 9.30998 20.4117 9.90931 20.9841C10.2306 21.3152 10.699 21.4951 11.1564 21.4538C11.6144 21.4139 12.0389 21.1522 12.3131 20.7839C12.6286 20.3364 12.6698 19.7352 12.5034 19.2229C12.3421 18.7447 11.9047 18.4548 11.6247 18.0564Z" fill="#24BEE1"/>
</g>
<path fill-rule="evenodd" clip-rule="evenodd" d="M9.12551 15.838C8.83907 15.4945 8.46618 15.206 8.30038 14.7729C8.09652 14.239 8.09652 13.6208 8.30747 13.0895C8.45521 12.7127 8.77455 12.4549 9.02809 12.1573C9.25066 11.8975 9.4184 11.5737 9.43194 11.2243C9.44743 10.8802 9.45259 10.5178 9.29259 10.2037C9.07583 9.71632 8.57392 9.44482 8.3507 8.96134C8.11006 8.45758 8.09394 7.85765 8.24941 7.3251C8.36425 6.93453 8.64423 6.629 8.92551 6.35095C9.2526 6.02645 9.46936 5.57503 9.4384 5.10398C9.47581 4.5649 9.2055 4.02188 8.75133 3.73664C8.40876 3.4756 7.96039 3.42392 7.54815 3.49588C7.12172 3.59467 6.72367 3.86356 6.50884 4.2561C6.2695 4.6506 6.27272 5.14389 6.35917 5.58419C6.51787 6.2345 7.17913 6.55376 7.4359 7.14911C7.67524 7.72222 7.6675 8.40132 7.39848 8.96265C7.15333 9.46575 6.62755 9.76277 6.41852 10.2894C6.28627 10.5825 6.30756 10.9129 6.31595 11.2269C6.32691 11.5312 6.45852 11.819 6.64238 12.0559C6.90495 12.3836 7.24429 12.6551 7.42429 13.0451C7.68234 13.6097 7.66621 14.2901 7.41138 14.8527C7.15333 15.4297 6.50303 15.7425 6.35723 16.383C6.27595 16.8102 6.27014 17.2864 6.49336 17.6738C6.7727 18.1618 7.30687 18.5092 7.87201 18.4961C8.59649 18.5164 9.28227 17.9472 9.41646 17.2269C9.47904 16.7506 9.43517 16.2246 9.12551 15.838ZM14.5376 14.6305C14.4021 14.1319 14.4028 13.5798 14.5944 13.095C14.8079 12.5722 15.3331 12.2772 15.5756 11.7741C15.8066 11.2998 15.8143 10.7195 15.6008 10.2379C15.3653 9.69035 14.7853 9.38613 14.5789 8.82153C14.4002 8.32628 14.3963 7.76233 14.5621 7.26184C14.7182 6.78687 15.146 6.49573 15.4247 6.10254C15.7563 5.64785 15.8505 5.02306 15.6434 4.49378C15.3885 3.763 14.5621 3.31943 13.8202 3.50197C13.257 3.63085 12.7732 4.09535 12.6403 4.66781C12.5532 5.00277 12.5745 5.36391 12.6886 5.68906C12.9248 6.34788 13.6383 6.69004 13.8196 7.3796C13.9383 7.867 13.9389 8.40675 13.7447 8.87518C13.5093 9.40772 12.9648 9.71717 12.7254 10.2464C12.5557 10.6665 12.5428 11.1519 12.679 11.5837C12.8983 12.234 13.5931 12.567 13.797 13.2265C13.9389 13.6923 13.9363 14.2124 13.7892 14.6769C13.5893 15.2945 12.9467 15.6085 12.7138 16.2065C12.5248 16.6841 12.5416 17.2533 12.8009 17.7014C13.0002 18.0285 13.3073 18.2935 13.6693 18.4158C14.1279 18.5722 14.6608 18.5048 15.0576 18.2176C15.4466 17.9579 15.6879 17.5084 15.7466 17.0459C15.7905 16.5585 15.6324 16.0528 15.3008 15.6942C15.0098 15.3704 14.6628 15.0675 14.5376 14.6305Z" fill="#24BEE1"/>
<path fill-rule="evenodd" clip-rule="evenodd" d="M17.6173 11.3441C17.6115 10.9345 17.5624 10.5001 17.7502 10.1207C17.9914 9.55149 18.594 9.24073 18.8011 8.65127C19.0185 8.03956 18.8869 7.29046 18.3927 6.85409C18.016 6.46744 17.4353 6.36538 16.925 6.47267C16.4928 6.58782 16.1089 6.88811 15.907 7.29635C15.718 7.64833 15.7167 8.06769 15.7767 8.455C15.8767 8.96334 16.2786 9.31335 16.6044 9.68037C17.0941 10.2306 17.1437 11.0615 16.9276 11.7412C16.7321 12.3287 16.1328 12.631 15.8902 13.1877C15.7322 13.4965 15.7251 13.855 15.7586 14.1933C15.8567 14.7801 16.2934 15.3068 16.8631 15.4697C17.3057 15.5979 17.8076 15.5344 18.1921 15.2728C18.5346 15.0366 18.7953 14.6669 18.8662 14.2495C18.9882 13.7026 18.8075 13.1059 18.4185 12.7095C18.054 12.3294 17.654 11.9028 17.6173 11.3441Z" fill="#24BEE1"/>
<path fill-rule="evenodd" clip-rule="evenodd" d="M22.0054 10.9528C21.819 10.0814 20.8216 9.49587 19.9861 9.79944C19.3655 9.9944 18.8726 10.6113 18.9042 11.2832C18.841 12.0572 19.452 12.7736 20.1932 12.8998C20.8532 13.0196 21.5777 12.665 21.8712 12.048C22.0544 11.7163 22.0628 11.3199 22.0054 10.9528ZM6.1618 13.2024C5.98762 12.7556 5.55602 12.4998 5.30893 12.1033C4.93863 11.5282 4.91218 10.7634 5.15797 10.1347C5.38119 9.56555 5.98633 9.26656 6.19019 8.68888C6.30309 8.35849 6.35534 7.99408 6.25728 7.65257C6.13664 7.0546 5.62957 6.57374 5.04636 6.45402C4.75089 6.42262 4.44123 6.4128 4.16253 6.53449C3.51611 6.74908 3.09419 7.45761 3.15354 8.1367C3.13677 8.70785 3.51417 9.17432 3.89415 9.55116C4.12511 9.76574 4.25801 10.0549 4.39155 10.3362C4.46123 10.8158 4.49284 11.3169 4.3251 11.7808C4.08511 12.3755 3.46837 12.698 3.24644 13.3006C3.13161 13.5806 3.14451 13.8926 3.16451 14.189C3.24644 14.768 3.68255 15.2633 4.22124 15.4563C4.49477 15.5335 4.78573 15.5616 5.06636 15.5007C5.65344 15.3758 6.15793 14.8786 6.26631 14.2747C6.35728 13.9182 6.29341 13.54 6.1618 13.2024Z" fill="#24BEE1"/>
<path fill-rule="evenodd" clip-rule="evenodd" d="M3.15749 11.2821C3.16329 10.6345 2.70912 10.0371 2.11882 9.81731C1.784 9.68909 1.4195 9.70021 1.07887 9.79638C0.755653 9.94031 0.436311 10.1412 0.255029 10.4572C0.0414892 10.8288 -0.0765703 11.2848 0.0556822 11.7061C0.164065 12.2157 0.545984 12.6312 1.02016 12.8163C1.62465 13.0721 2.36075 12.8549 2.78073 12.359C3.02975 12.0633 3.18071 11.674 3.15749 11.2821Z" fill="#24BEE1"/>
<path fill-rule="evenodd" clip-rule="evenodd" d="M33.403 11.6271C33.7578 11.6271 34.0804 11.5584 34.3707 11.4204C34.6603 11.2824 34.9055 11.0959 35.1068 10.8623C35.3081 10.6288 35.4648 10.3586 35.5771 10.0524C35.6893 9.74622 35.7461 9.41976 35.7461 9.07171C35.7461 8.72365 35.6893 8.39654 35.5771 8.09036C35.4648 7.78418 35.3081 7.51463 35.1068 7.27976C34.9055 7.0462 34.6603 6.8604 34.3707 6.72236C34.0804 6.58431 33.7578 6.51562 33.403 6.51562H30.9889V11.6271H33.403ZM28.9477 4.66153H33.403C34.0655 4.66153 34.6661 4.77798 35.2042 5.01285C35.7429 5.24641 36.2041 5.56764 36.5886 5.97522C36.9731 6.38346 37.2693 6.85451 37.4763 7.38837C37.6834 7.92222 37.7867 8.48355 37.7867 9.07171C37.7867 9.67164 37.6834 10.2356 37.4763 10.7636C37.2693 11.2915 36.9731 11.7593 36.5886 12.1669C36.2041 12.5751 35.7429 12.8957 35.2042 13.1306C34.6661 13.3641 34.0655 13.4812 33.403 13.4812H30.9889V17.2607H28.9477V4.66153ZM42.6327 15.7314C42.9992 15.7314 43.334 15.6594 43.6359 15.5155C43.9372 15.3709 44.1946 15.1792 44.4075 14.9391C44.621 14.699 44.7862 14.417 44.9049 14.0932C45.0229 13.7694 45.0823 13.4272 45.0823 13.0674C45.0823 12.7075 45.0229 12.3647 44.9049 12.0409C44.7862 11.717 44.621 11.4357 44.4075 11.195C44.1946 10.9555 43.9372 10.7632 43.6359 10.6199C43.334 10.4753 42.9992 10.4027 42.6327 10.4027C42.2656 10.4027 41.934 10.4753 41.6386 10.6199C41.3424 10.7632 41.0883 10.9555 40.8754 11.195C40.6625 11.4357 40.4999 11.717 40.3876 12.0409C40.2747 12.3647 40.2186 12.7075 40.2186 13.0674C40.2186 13.4272 40.2747 13.7694 40.3876 14.0932C40.4999 14.417 40.6625 14.699 40.8754 14.9391C41.0883 15.1792 41.3424 15.3709 41.6386 15.5155C41.934 15.6594 42.2656 15.7314 42.6327 15.7314ZM47.0164 8.87373V17.261H45.0823V16.1266C44.8217 16.5472 44.452 16.877 43.9727 17.1171C43.4933 17.3565 43.0114 17.4769 42.5263 17.4769C41.8992 17.4769 41.325 17.3598 40.8051 17.1262C40.2838 16.892 39.8373 16.5708 39.4645 16.1632C39.0916 15.7556 38.8019 15.2872 38.5948 14.7592C38.3877 14.2312 38.2839 13.6673 38.2839 13.0674C38.2839 12.4792 38.3877 11.9185 38.5948 11.384C38.8019 10.8502 39.0916 10.3791 39.4645 9.97088C39.8373 9.5633 40.2838 9.24207 40.8051 9.00851C41.325 8.77429 41.8992 8.65718 42.5263 8.65718C43.0114 8.65718 43.4933 8.77756 43.9727 9.01701C44.452 9.25712 44.8217 9.5875 45.0823 10.0075V8.87373H47.0164ZM53.6372 15.7314C54.0036 15.7314 54.3352 15.6594 54.6313 15.5155C54.9268 15.3709 55.1816 15.1792 55.3945 14.9391C55.6074 14.699 55.77 14.417 55.8822 14.0932C55.9945 13.7694 56.0513 13.4272 56.0513 13.0674C56.0513 12.7075 55.9945 12.3647 55.8822 12.0409C55.77 11.717 55.6074 11.4357 55.3945 11.195C55.1816 10.9555 54.9268 10.7632 54.6313 10.6199C54.3352 10.4753 54.0036 10.4027 53.6372 10.4027C53.2585 10.4027 52.9185 10.4753 52.6166 10.6199C52.3146 10.7632 52.0572 10.9555 51.8443 11.195C51.6314 11.4357 51.4689 11.717 51.356 12.0409C51.2437 12.3647 51.1876 12.7075 51.1876 13.0674C51.1876 13.4272 51.2437 13.7694 51.356 14.0932C51.4689 14.417 51.6314 14.699 51.8443 14.9391C52.0572 15.1792 52.3146 15.3709 52.6166 15.5155C52.9185 15.6594 53.2585 15.7314 53.6372 15.7314ZM51.1876 17.261H49.2535V4.66113H51.1876V10.0075C51.4476 9.5875 51.8179 9.25712 52.2972 9.01701C52.7766 8.77756 53.2585 8.65718 53.7436 8.65718C54.3707 8.65718 54.9442 8.77429 55.4648 9.00851C55.9861 9.24207 56.4325 9.5633 56.8054 9.97088C57.1783 10.3791 57.468 10.8502 57.6751 11.384C57.8821 11.9185 57.9854 12.4792 57.9854 13.0674C57.9854 13.6673 57.8821 14.2312 57.6751 14.7592C57.468 15.2872 57.1783 15.7556 56.8054 16.1632C56.4325 16.5708 55.9861 16.892 55.4648 17.1262C54.9442 17.3598 54.3707 17.4769 53.7436 17.4769C53.2585 17.4769 52.7766 17.3565 52.2972 17.1171C51.8179 16.877 51.4476 16.5472 51.1876 16.1266V17.261ZM63.7186 15.7314C64.085 15.7314 64.4199 15.6594 64.7212 15.5155C65.0231 15.3709 65.2805 15.1792 65.4934 14.9391C65.7069 14.699 65.8721 14.417 65.9901 14.0932C66.1088 13.7694 66.1682 13.4272 66.1682 13.0674C66.1682 12.7075 66.1088 12.3647 65.9901 12.0409C65.8721 11.717 65.7069 11.4357 65.4934 11.195C65.2805 10.9555 65.0231 10.7632 64.7212 10.6199C64.4199 10.4753 64.085 10.4027 63.7186 10.4027C63.3515 10.4027 63.0199 10.4753 62.7245 10.6199C62.4283 10.7632 62.1742 10.9555 61.9613 11.195C61.7484 11.4357 61.5858 11.717 61.4735 12.0409C61.3606 12.3647 61.3045 12.7075 61.3045 13.0674C61.3045 13.4272 61.3606 13.7694 61.4735 14.0932C61.5858 14.417 61.7484 14.699 61.9613 14.9391C62.1742 15.1792 62.4283 15.3709 62.7245 15.5155C63.0199 15.6594 63.3515 15.7314 63.7186 15.7314ZM68.1023 8.87373V17.261H66.1682V16.1266C65.9076 16.5472 65.5379 16.877 65.0586 17.1171C64.5792 17.3565 64.0973 17.4769 63.6122 17.4769C62.9844 17.4769 62.4109 17.3598 61.8903 17.1262C61.3697 16.892 60.9232 16.5708 60.5504 16.1632C60.1775 15.7556 59.8878 15.2872 59.6807 14.7592C59.4736 14.2312 59.3698 13.6673 59.3698 13.0674C59.3698 12.4792 59.4736 11.9185 59.6807 11.384C59.8878 10.8502 60.1775 10.3791 60.5504 9.97088C60.9232 9.5633 61.3697 9.24207 61.8903 9.00851C62.4109 8.77429 62.9844 8.65718 63.6122 8.65718C64.0973 8.65718 64.5792 8.77756 65.0586 9.01701C65.5379 9.25712 65.9076 9.5875 66.1682 10.0075V8.87373H68.1023ZM77.8467 8.87347V17.2607H75.912V16.091C75.652 16.547 75.2914 16.8924 74.8294 17.126C74.3682 17.3602 73.8295 17.4766 73.214 17.4766C72.6108 17.4766 72.105 17.3746 71.6967 17.1711C71.2883 16.967 70.9657 16.6909 70.7296 16.3428C70.5283 16.0308 70.389 15.6834 70.3122 15.2987C70.2354 14.9153 70.1974 14.4351 70.1974 13.8594V8.87347H72.1315V13.211C72.1315 13.5715 72.1612 13.9071 72.2205 14.2192C72.2799 14.5313 72.3773 14.7982 72.5134 15.0206C72.6489 15.2424 72.8328 15.4191 73.0631 15.5512C73.294 15.6834 73.5811 15.7495 73.9243 15.7495C74.5985 15.7495 75.0985 15.5061 75.4242 15.0206C75.7494 14.5339 75.912 13.9307 75.912 13.211V8.87347H77.8467Z" fill="#414748"/>
</svg>
