<svg width="14" height="12" viewBox="0 0 14 12" fill="none" xmlns="http://www.w3.org/2000/svg">
<path d="M6.99989 3.81304H5.24986V1.18799C5.24986 1.00687 5.13874 0.844989 4.96986 0.780238C4.80273 0.713737 4.61023 0.759237 4.4886 0.893989L0.113533 5.70656C-0.0378443 5.87369 -0.0378443 6.12832 0.113533 6.29545L4.4886 11.108C4.57348 11.1999 4.6916 11.2507 4.81236 11.2507C4.86573 11.2507 4.91911 11.241 4.96986 11.2218C5.13874 11.1561 5.24986 10.9943 5.24986 10.8131V8.1881H6.16863C8.84442 8.1881 11.3601 9.23024 13.2527 11.1229C13.3787 11.2489 13.5677 11.2857 13.7296 11.2174C13.8932 11.15 14 10.9899 14 10.8131C14 6.95346 10.8596 3.81304 6.99989 3.81304Z" fill="#9292A3"/>
</svg>
