<svg width="16" height="16" viewBox="0 0 16 16" fill="none" xmlns="http://www.w3.org/2000/svg">
<path d="M6.62286 6.51297H5.2171V4.35934C5.2171 4.21074 5.12784 4.07793 4.99218 4.02481C4.85793 3.97025 4.7033 4.00758 4.6056 4.11813L1.0912 8.06645C0.9696 8.20356 0.9696 8.41247 1.0912 8.54958L4.6056 12.4979C4.67378 12.5733 4.76867 12.6149 4.86566 12.6149C4.90854 12.6149 4.95142 12.607 4.99218 12.5912C5.12784 12.5374 5.2171 12.4046 5.2171 12.256V10.1023H5.95513C8.10454 10.1023 10.1253 10.9573 11.6456 12.5101C11.7469 12.6135 11.8987 12.6436 12.0287 12.5876C12.1602 12.5324 12.2459 12.401 12.2459 12.256C12.2459 9.08942 9.72327 6.51297 6.62286 6.51297Z" fill="#9292A3"/>
<path d="M3.47162 7.73401L3.47102 7.7347C3.18154 8.06112 3.18154 8.55491 3.47102 8.88133L3.47163 8.88201L6.98603 12.8303L6.98601 12.8303L6.98869 12.8333C7.1504 13.0121 7.37939 13.1149 7.61957 13.1149C7.72392 13.1149 7.82806 13.0957 7.92672 13.0575L7.92672 13.0575L7.93054 13.056C8.26064 12.9249 8.47101 12.6052 8.47101 12.256V10.6023H8.70903C10.7223 10.6023 12.6148 11.402 14.0423 12.8599C14.2853 13.1081 14.656 13.1856 14.9784 13.0477C15.2993 12.9118 15.4998 12.5959 15.4998 12.256C15.4998 8.82328 12.7632 6.01297 9.37677 6.01297H8.47101V4.35934C8.47101 4.01159 8.26208 3.69133 7.93138 3.5604C7.59675 3.42587 7.21971 3.52191 6.98554 3.78624C6.98531 3.7865 6.98508 3.78677 6.98484 3.78703L3.47162 7.73401Z" fill="#9292A3" stroke="white"/>
</svg>
