<svg width="40" height="40" viewBox="0 0 40 40" fill="none" xmlns="http://www.w3.org/2000/svg">
<mask id="path-1-inside-1" fill="white">
<rect x="26" y="6" width="8" height="8" rx="1"/>
</mask>
<rect x="26" y="6" width="8" height="8" rx="1" stroke="#54B2D3" stroke-width="3" mask="url(#path-1-inside-1)"/>
<mask id="path-2-inside-2" fill="white">
<rect x="16" y="6" width="8" height="8" rx="1"/>
</mask>
<rect x="16" y="6" width="8" height="8" rx="1" stroke="#54B2D3" stroke-width="3" mask="url(#path-2-inside-2)"/>
<mask id="path-3-inside-3" fill="white">
<rect x="6" y="6" width="8" height="8" rx="1"/>
</mask>
<rect x="6" y="6" width="8" height="8" rx="1" stroke="#54B2D3" stroke-width="3" mask="url(#path-3-inside-3)"/>
<mask id="path-4-inside-4" fill="white">
<rect x="26" y="16" width="8" height="8" rx="1"/>
</mask>
<rect x="26" y="16" width="8" height="8" rx="1" stroke="#54B2D3" stroke-width="3" mask="url(#path-4-inside-4)"/>
<mask id="path-5-inside-5" fill="white">
<rect x="16" y="16" width="8" height="8" rx="1"/>
</mask>
<rect x="16" y="16" width="8" height="8" rx="1" stroke="#54B2D3" stroke-width="3" mask="url(#path-5-inside-5)"/>
<mask id="path-6-inside-6" fill="white">
<rect x="6" y="16" width="8" height="8" rx="1"/>
</mask>
<rect x="6" y="16" width="8" height="8" rx="1" stroke="#54B2D3" stroke-width="3" mask="url(#path-6-inside-6)"/>
<mask id="path-7-inside-7" fill="white">
<rect x="26" y="26" width="8" height="8" rx="1"/>
</mask>
<rect x="26" y="26" width="8" height="8" rx="1" stroke="#54B2D3" stroke-width="3" mask="url(#path-7-inside-7)"/>
<mask id="path-8-inside-8" fill="white">
<rect x="16" y="26" width="8" height="8" rx="1"/>
</mask>
<rect x="16" y="26" width="8" height="8" rx="1" stroke="#54B2D3" stroke-width="3" mask="url(#path-8-inside-8)"/>
<mask id="path-9-inside-9" fill="white">
<rect x="6" y="26" width="8" height="8" rx="1"/>
</mask>
<rect x="6" y="26" width="8" height="8" rx="1" stroke="#54B2D3" stroke-width="3" mask="url(#path-9-inside-9)"/>
</svg>
