<svg width="16" height="16" viewBox="0 0 16 16" fill="none" xmlns="http://www.w3.org/2000/svg">
<path d="M7.25093 8C7.25093 8.19891 7.32995 8.38968 7.4706 8.53033C7.61125 8.67098 7.80202 8.75 8.00093 8.75C8.19984 8.75 8.39061 8.67098 8.53126 8.53033C8.67191 8.38968 8.75093 8.19891 8.75093 8C8.75093 7.80109 8.67191 7.61032 8.53126 7.46967C8.39061 7.32902 8.19984 7.25 8.00093 7.25C7.80202 7.25 7.61125 7.32902 7.4706 7.46967C7.32995 7.61032 7.25093 7.80109 7.25093 8ZM10.3759 8C10.3759 8.19891 10.4549 8.38968 10.5956 8.53033C10.7363 8.67098 10.927 8.75 11.1259 8.75C11.3248 8.75 11.5156 8.67098 11.6563 8.53033C11.7969 8.38968 11.8759 8.19891 11.8759 8C11.8759 7.80109 11.7969 7.61032 11.6563 7.46967C11.5156 7.32902 11.3248 7.25 11.1259 7.25C10.927 7.25 10.7363 7.32902 10.5956 7.46967C10.4549 7.61032 10.3759 7.80109 10.3759 8ZM4.12593 8C4.12593 8.19891 4.20495 8.38968 4.3456 8.53033C4.48625 8.67098 4.67702 8.75 4.87593 8.75C5.07484 8.75 5.26561 8.67098 5.40626 8.53033C5.54691 8.38968 5.62593 8.19891 5.62593 8C5.62593 7.80109 5.54691 7.61032 5.40626 7.46967C5.26561 7.32902 5.07484 7.25 4.87593 7.25C4.67702 7.25 4.48625 7.32902 4.3456 7.46967C4.20495 7.61032 4.12593 7.80109 4.12593 8ZM14.4572 5.2875C14.1041 4.44844 13.5978 3.69531 12.9525 3.04844C12.3117 2.40531 11.551 1.8941 10.7134 1.54375C9.85405 1.18281 8.94155 1 8.00093 1H7.96968C7.0228 1.00469 6.10562 1.19219 5.24312 1.56094C4.41274 1.91488 3.65915 2.427 3.02437 3.06875C2.3853 3.71406 1.88374 4.46406 1.53687 5.3C1.17749 6.16563 0.99624 7.08594 1.00093 8.03281C1.00623 9.11792 1.26295 10.187 1.75093 11.1562V13.5312C1.75093 13.7219 1.82665 13.9047 1.96144 14.0395C2.09624 14.1743 2.27905 14.25 2.46968 14.25H4.84624C5.81545 14.738 6.88457 14.9947 7.96968 15H8.00249C8.93843 15 9.84624 14.8188 10.7009 14.4641C11.5343 14.1179 12.2921 13.6126 12.9322 12.9766C13.5775 12.3375 14.0853 11.5906 14.44 10.7578C14.8087 9.89531 14.9962 8.97813 15.0009 8.03125C15.0056 7.07969 14.8212 6.15625 14.4572 5.2875ZM12.0962 12.1313C11.0009 13.2156 9.5478 13.8125 8.00093 13.8125H7.97437C7.03218 13.8078 6.09624 13.5734 5.26968 13.1328L5.13843 13.0625H2.93843V10.8625L2.86812 10.7312C2.42749 9.90469 2.19312 8.96875 2.18843 8.02656C2.18218 6.46875 2.77749 5.00625 3.86968 3.90469C4.9603 2.80312 6.41812 2.19375 7.97593 2.1875H8.00249C8.78374 2.1875 9.54155 2.33906 10.2556 2.63906C10.9525 2.93125 11.5775 3.35156 12.115 3.88906C12.6509 4.425 13.0728 5.05156 13.365 5.74844C13.6681 6.47031 13.8197 7.23594 13.8166 8.02656C13.8072 9.58281 13.1962 11.0406 12.0962 12.1313Z" fill="#9292A3"/>
</svg>
