<svg width="24" height="24" viewBox="0 0 24 24" fill="none" xmlns="http://www.w3.org/2000/svg">
<path d="M14.9688 16.6094C14.5372 16.6094 14.1875 16.9591 14.1875 17.3906C14.1875 19.0706 12.8208 20.4375 11.1406 20.4375C9.46048 20.4375 8.09375 19.0706 8.09375 17.3906V15.1453L10.8712 11.1151C10.8882 11.0903 10.9035 11.0646 10.9174 11.0385C10.9703 10.9891 11.0225 10.9388 11.0735 10.8869C12.074 9.86972 12.625 8.44775 12.625 6.88281C12.625 6.86938 12.6247 6.85596 12.6239 6.84268L12.625 3.81641C12.625 2.81482 11.8102 2 10.8086 2H9.34375C8.91223 2 8.5625 2.34973 8.5625 2.78125V3.5625C8.5625 3.99402 8.91223 4.34375 9.34375 4.34375C9.77527 4.34375 10.125 3.99402 10.125 3.5625H10.8086C10.9487 3.5625 11.0625 3.67633 11.0625 3.8161L11.0614 6.88251C11.0614 6.89517 11.0617 6.90768 11.0623 6.92004C11.0456 9.20963 9.47375 10.8672 7.3125 10.8672C5.13965 10.8672 3.5625 9.19147 3.5625 6.88281C3.5625 6.85855 3.56097 6.83444 3.55884 6.81064C3.56113 6.78683 3.5625 6.76288 3.5625 6.73846V3.81641C3.5625 3.67633 3.67633 3.5625 3.81641 3.5625H4.46185C4.46185 4.30469 4.82379 4.30469 5.24219 4.30469C5.67371 4.30469 6.02344 3.95496 6.02344 3.52344V2.78125C6.02344 2.34973 5.67371 2 5.24219 2H3.81641C2.81482 2 2 2.81482 2 3.81641V6.73846C2 6.76288 2.00153 6.78683 2.00366 6.81064C2.00153 6.83444 2 6.85855 2 6.88281C2 8.44775 2.55099 9.86972 3.55151 10.8869C3.58279 10.9186 3.61438 10.9499 3.64627 10.9807C3.66626 11.0271 3.69083 11.0721 3.72058 11.1151L6.53125 15.1937V17.3906C6.53125 19.9323 8.59897 22 11.1406 22C13.6823 22 15.75 19.9323 15.75 17.3906C15.75 16.9591 15.4003 16.6094 14.9688 16.6094ZM7.3125 12.4297C7.58151 12.4297 7.84671 12.4106 8.10641 12.3734L7.29587 13.5495L6.48135 12.3677C6.75296 12.4086 7.03067 12.4297 7.3125 12.4297ZM20.4375 10.3766V5.125C20.4375 3.40182 19.0357 2 17.3125 2C15.5893 2 14.1875 3.40182 14.1875 5.125V17.3906C14.1875 17.8221 14.5372 16.6094 14.9688 16.6094C15.4003 16.6094 15.75 17.8221 15.75 17.3906V5.125C15.75 4.26349 16.451 3.5625 17.3125 3.5625C18.174 3.5625 18.875 4.26349 18.875 5.125V10.3766C17.9657 10.699 17.3125 11.5674 17.3125 12.5859C17.3125 13.8784 18.3638 14.9297 19.6562 14.9297C20.9487 14.9297 22 13.8784 22 12.5859C22 11.5674 21.3468 10.699 20.4375 10.3766ZM19.6562 13.3672C19.2255 13.3672 18.875 13.0167 18.875 12.5859C18.875 12.1552 19.2255 11.8047 19.6562 11.8047C20.087 11.8047 20.4375 12.1552 20.4375 12.5859C20.4375 13.0167 20.087 13.3672 19.6562 13.3672Z" fill="#3D3D46"/>
</svg>
