<svg width="44" height="44" viewBox="0 0 44 44" fill="none" xmlns="http://www.w3.org/2000/svg">
<rect width="44" height="44" rx="22" fill="#6383F1"/>
<path d="M27.3906 17.4531V14.3125H29.4062C29.5094 14.3125 29.5938 14.2281 29.5938 14.125V12.8125C29.5938 12.7094 29.5094 12.625 29.4062 12.625H14.5938C14.4906 12.625 14.4062 12.7094 14.4062 12.8125V14.125C14.4062 14.2281 14.4906 14.3125 14.5938 14.3125H16.6094V17.4531C16.6094 19.3633 17.6031 21.0437 19.1031 22C17.6031 22.9563 16.6094 24.6367 16.6094 26.5469V29.6875H14.5938C14.4906 29.6875 14.4062 29.7719 14.4062 29.875V31.1875C14.4062 31.2906 14.4906 31.375 14.5938 31.375H29.4062C29.5094 31.375 29.5938 31.2906 29.5938 31.1875V29.875C29.5938 29.7719 29.5094 29.6875 29.4062 29.6875H27.3906V26.5469C27.3906 24.6367 26.3969 22.9563 24.8969 22C26.3969 21.0437 27.3906 19.3633 27.3906 17.4531ZM25.7031 26.5469V29.6875H18.2969V26.5469C18.2969 25.5578 18.6812 24.6273 19.382 23.9289C20.0805 23.2281 21.0109 22.8438 22 22.8438C22.9891 22.8438 23.9195 23.2281 24.618 23.9289C25.3188 24.6273 25.7031 25.5578 25.7031 26.5469ZM25.7031 17.4531C25.7031 18.4422 25.3188 19.3727 24.618 20.0711C23.9195 20.7719 22.9891 21.1562 22 21.1562C21.0109 21.1562 20.0805 20.7719 19.382 20.0711C19.0367 19.7284 18.7629 19.3205 18.5766 18.871C18.3904 18.4216 18.2953 17.9396 18.2969 17.4531V14.3125H25.7031V17.4531Z" fill="white"/>
</svg>
