<svg width="24" height="24" viewBox="0 0 24 24" fill="none" xmlns="http://www.w3.org/2000/svg">
<path d="M23.8525 5.10553L22.8581 4.11122L21.6281 5.34122C20.8221 4.87814 19.7733 4.99013 19.0853 5.67816L18.6702 6.09328V0H3.85705L0.148438 3.70861V24H18.6702V12.4937L22.2856 8.87836C22.9736 8.19033 23.0856 7.14155 22.6225 6.33553L23.8525 5.10553ZM9.96247 17.0028L10.9609 18.0012L9.23052 18.7332L9.96247 17.0028ZM12.0618 17.1134L10.8503 15.9019L18.5881 8.16408L19.7996 9.37556L12.0618 17.1134ZM4.24016 1.60561V4.09172H1.75405L4.24016 1.60561ZM17.264 22.5938H1.55469V5.49797H5.64641V1.40625H17.264V7.49953L15.0468 9.71672H3.7445V11.123H13.6405L12.2343 12.5292H3.7445V13.9355H10.828L8.93038 15.8331L7.70717 18.7249L6.72439 17.7422L5.15408 19.3125H2.96094V20.7188H5.73655L6.72439 19.7309L7.84147 20.8476L12.1306 19.0333L17.264 13.8999V22.5938ZM21.2912 7.884L20.794 8.3812L19.5825 7.16967L20.0797 6.67247C20.354 6.39834 20.7999 6.3983 21.0741 6.67247L21.2913 6.88959C21.5653 7.16377 21.5653 7.60983 21.2912 7.884Z" fill="#9292A3"/>
</svg>
