<svg width="11" height="16" viewBox="0 0 11 16" fill="none" xmlns="http://www.w3.org/2000/svg">
<path d="M10.1407 2.26301V0.753246C10.1407 0.622386 9.99026 0.550121 9.8887 0.630199L1.08401 7.50715C1.0092 7.56533 0.948672 7.63982 0.907034 7.72495C0.865395 7.81008 0.84375 7.9036 0.84375 7.99836C0.84375 8.09313 0.865395 8.18665 0.907034 8.27178C0.948672 8.3569 1.0092 8.4314 1.08401 8.48957L9.8887 15.3665C9.99222 15.4466 10.1407 15.3743 10.1407 15.2435V13.7337C10.1407 13.638 10.0957 13.5462 10.0215 13.4876L2.99026 7.99934L10.0215 2.50911C10.0957 2.45051 10.1407 2.35871 10.1407 2.26301Z" fill="#9292A3"/>
</svg>
