<svg width="20" height="20" viewBox="0 0 20 20" fill="none" xmlns="http://www.w3.org/2000/svg">
<circle cx="10" cy="10" r="10" fill="#54B2D3"/>
<path d="M4.25781 7.30469H11.5234C11.5879 7.30469 11.6406 7.25195 11.6406 7.1875V6.36719C11.6406 6.30273 11.5879 6.25 11.5234 6.25H4.25781C4.19336 6.25 4.14062 6.30273 4.14062 6.36719V7.1875C4.14062 7.25195 4.19336 7.30469 4.25781 7.30469ZM4.25781 13.5156H11.5234C11.5879 13.5156 11.6406 13.4629 11.6406 13.3984V12.5781C11.6406 12.5137 11.5879 12.4609 11.5234 12.4609H4.25781C4.19336 12.4609 4.14062 12.5137 4.14062 12.5781V13.3984C4.14062 13.4629 4.19336 13.5156 4.25781 13.5156ZM15.7422 9.35547H4.25781C4.19336 9.35547 4.14062 9.4082 4.14062 9.47266V10.293C4.14062 10.3574 4.19336 10.4102 4.25781 10.4102H15.7422C15.8066 10.4102 15.8594 10.3574 15.8594 10.293V9.47266C15.8594 9.4082 15.8066 9.35547 15.7422 9.35547Z" fill="white"/>
</svg>
