<svg width="10" height="10" viewBox="0 0 10 10" fill="none" xmlns="http://www.w3.org/2000/svg">
<path d="M5 0.625C2.58398 0.625 0.625 2.58398 0.625 5C0.625 7.41602 2.58398 9.375 5 9.375C7.41602 9.375 9.375 7.41602 9.375 5C9.375 2.58398 7.41602 0.625 5 0.625ZM5 8.63281C2.99414 8.63281 1.36719 7.00586 1.36719 5C1.36719 2.99414 2.99414 1.36719 5 1.36719C7.00586 1.36719 8.63281 2.99414 8.63281 5C8.63281 7.00586 7.00586 8.63281 5 8.63281Z" fill="#FF5B64"/>
<path d="M6.70605 6.23632L5.31347 5.22948V2.8125C5.31347 2.76953 5.27832 2.73438 5.23535 2.73438H4.76562C4.72266 2.73438 4.6875 2.76953 4.6875 2.8125V5.50195C4.6875 5.52734 4.69922 5.55077 4.71973 5.56542L6.33496 6.74315C6.37011 6.76854 6.41894 6.76073 6.44433 6.72655L6.72363 6.34569C6.74902 6.30956 6.7412 6.26073 6.70605 6.23632Z" fill="#FF5B64"/>
</svg>
