<svg width="16" height="16" viewBox="0 0 16 16" fill="none" xmlns="http://www.w3.org/2000/svg">
<path d="M10.5521 0.941406V0H5.44791V0.941406H2.82422V16H13.1758V0.941406H10.5521ZM6.38541 0.9375H9.61456V1.88281H6.38541V0.9375ZM12.2383 15.0625H3.76172V1.87891H5.44791V2.82031H10.5521V1.87891H12.2382V15.0625H12.2383Z" fill="#54B2D3"/>
<path d="M7.53125 6.54688H8.46875V5.69531H9.32031V4.75781H8.46875V3.90625H7.53125V4.75781H6.67969V5.69531H7.53125V6.54688Z" fill="#54B2D3"/>
<path d="M5.17578 7.53125H6.11719V8.46875H5.17578V7.53125Z" fill="#54B2D3"/>
<path d="M7.05859 7.53125H10.8242V8.46875H7.05859V7.53125Z" fill="#54B2D3"/>
<path d="M5.17578 9.41406H6.11719V10.3516H5.17578V9.41406Z" fill="#54B2D3"/>
<path d="M7.05859 9.41406H10.8242V10.3516H7.05859V9.41406Z" fill="#54B2D3"/>
<path d="M5.17578 11.2969H10.8242V12.2344H5.17578V11.2969Z" fill="#54B2D3"/>
<path d="M5.17578 13.1797H10.8242V14.1172H5.17578V13.1797Z" fill="#54B2D3"/>
</svg>
