<svg width="16" height="16" viewBox="0 0 16 16" fill="none" xmlns="http://www.w3.org/2000/svg">
<g clip-path="url(#clip0)">
<path d="M15.8094 6.2602C14.9595 3.37074 11.631 0.576172 9.09759 0.576172C7.91654 0.576172 7.41013 1.19573 7.36518 1.22421L6.03462 2.55477C5.374 3.21539 5.21119 4.26271 5.57624 5.5039C5.71866 5.98807 5.93628 6.48211 6.21807 6.96929C2.92199 6.7816 0 8.22089 0 10.2468V12.129C0 13.9761 2.48027 15.4229 5.64661 15.4229C8.81294 15.4229 11.2932 13.9761 11.2932 12.129V11.0582C12.27 11.3002 13.3139 11.2465 14.0201 10.5402L15.351 9.2093C16.0117 8.54871 16.1744 7.50139 15.8094 6.2602ZM9.09759 1.51727C10.1587 1.51727 11.5008 2.16459 12.6806 3.22885L9.37042 6.53905C8.61506 5.70219 8.06699 4.78104 7.81004 3.90745C7.55048 3.02488 7.63101 2.28929 8.03101 1.88929C8.27786 1.64244 8.6367 1.51727 9.09759 1.51727ZM10.2576 10.6934C10.084 11.107 9.67624 11.5056 9.08131 11.8301C8.28191 12.2661 7.24299 12.53 6.11716 12.5875V7.9065C6.38421 7.9203 6.64794 7.94606 6.90599 7.98326C7.77064 9.08755 8.96477 10.1064 10.2576 10.6934ZM2.2119 8.66358C3.0113 8.22754 4.05018 7.96372 5.17605 7.90612V12.5875C4.05022 12.5299 3.0113 12.2661 2.2119 11.8301C1.40431 11.3896 0.941101 10.8125 0.941101 10.2468C0.941101 9.68116 1.40431 9.10408 2.2119 8.66358ZM9.08131 13.7123C7.19832 14.7394 4.09445 14.7392 2.2119 13.7123C1.40431 13.2718 0.941101 12.6947 0.941101 12.129V12.0912C3.14475 14.0242 8.14786 14.0247 10.3521 12.0912C10.3442 12.1112 10.4725 12.9535 9.08131 13.7123ZM11.3365 10.0958C9.28211 9.4915 7.0852 7.29899 6.47913 5.23835C6.21955 4.35579 6.30011 3.62022 6.70007 3.22023L6.72686 3.19347C6.81401 4.52541 7.62483 6.14137 9.0292 7.54571C10.3755 8.89208 12.0188 9.75639 13.3811 9.8484L13.3547 9.87481C12.9546 10.2748 12.219 10.3553 11.3365 10.0958ZM13.619 8.91589C12.5579 8.91589 11.2158 8.26854 10.036 7.20431L13.3462 3.89418C14.1015 4.73101 14.6496 5.65219 14.9065 6.52578C15.1661 7.40834 15.0856 8.14391 14.6856 8.54391C14.4387 8.79073 14.0798 8.91589 13.619 8.91589Z" fill="#54B2D3"/>
</g>
<defs>
<clipPath id="clip0">
<rect width="16" height="16" fill="white"/>
</clipPath>
</defs>
</svg>
