<svg width="16" height="16" viewBox="0 0 16 16" fill="none" xmlns="http://www.w3.org/2000/svg">
  <g clip-path="url(#clip0)">
    <path d="M7.99993 7.38462C10.0391 7.38462 11.6922 5.73151 11.6922 3.69231C11.6922 1.6531 10.0391 0 7.99993 0C5.96072 0 4.30762 1.6531 4.30762 3.69231C4.30762 5.73151 5.96072 7.38462 7.99993 7.38462Z" fill="#CFCFD7"/>
    <path d="M15.1691 11.2245C11.0152 7.73768 4.98323 7.73768 0.829388 11.2245C0.694004 11.3389 0.615234 11.5063 0.615234 11.6848C0.615234 12.2792 0.615234 13.7168 0.615234 14.7691C0.615234 15.4485 1.16662 15.9986 1.846 15.9986H14.1537C14.8331 15.9986 15.3845 15.4485 15.3845 14.7691V11.926C15.3845 11.5063 15.3057 11.3389 15.1691 11.2245Z" fill="#CFCFD7"/>
  </g>
  <defs>
    <clipPath id="clip0">
      <rect width="16" height="16" fill="white"/>
    </clipPath>
  </defs>
</svg>
